%TF.GenerationSoftware,KiCad,Pcbnew,(6.0.7)*%
%TF.CreationDate,2023-06-23T09:46:04+02:00*%
%TF.ProjectId,switch_breakout,73776974-6368-45f6-9272-65616b6f7574,1.0*%
%TF.SameCoordinates,Original*%
%TF.FileFunction,Legend,Top*%
%TF.FilePolarity,Positive*%
%FSLAX46Y46*%
G04 Gerber Fmt 4.6, Leading zero omitted, Abs format (unit mm)*
G04 Created by KiCad (PCBNEW (6.0.7)) date 2023-06-23 09:46:04*
%MOMM*%
%LPD*%
G01*
G04 APERTURE LIST*
%ADD10C,0.150000*%
%ADD11C,0.120000*%
G04 APERTURE END LIST*
D10*
%TO.C,SW1*%
X132866666Y-93404761D02*
X133009523Y-93452380D01*
X133247619Y-93452380D01*
X133342857Y-93404761D01*
X133390476Y-93357142D01*
X133438095Y-93261904D01*
X133438095Y-93166666D01*
X133390476Y-93071428D01*
X133342857Y-93023809D01*
X133247619Y-92976190D01*
X133057142Y-92928571D01*
X132961904Y-92880952D01*
X132914285Y-92833333D01*
X132866666Y-92738095D01*
X132866666Y-92642857D01*
X132914285Y-92547619D01*
X132961904Y-92500000D01*
X133057142Y-92452380D01*
X133295238Y-92452380D01*
X133438095Y-92500000D01*
X133771428Y-92452380D02*
X134009523Y-93452380D01*
X134200000Y-92738095D01*
X134390476Y-93452380D01*
X134628571Y-92452380D01*
X135533333Y-93452380D02*
X134961904Y-93452380D01*
X135247619Y-93452380D02*
X135247619Y-92452380D01*
X135152380Y-92595238D01*
X135057142Y-92690476D01*
X134961904Y-92738095D01*
X125933571Y-88057380D02*
X125933571Y-87057380D01*
X126505000Y-88057380D02*
X126076428Y-87485952D01*
X126505000Y-87057380D02*
X125933571Y-87628809D01*
X127314523Y-88009761D02*
X127219285Y-88057380D01*
X127028809Y-88057380D01*
X126933571Y-88009761D01*
X126885952Y-87914523D01*
X126885952Y-87533571D01*
X126933571Y-87438333D01*
X127028809Y-87390714D01*
X127219285Y-87390714D01*
X127314523Y-87438333D01*
X127362142Y-87533571D01*
X127362142Y-87628809D01*
X126885952Y-87724047D01*
X127695476Y-87390714D02*
X127933571Y-88057380D01*
X128171666Y-87390714D02*
X127933571Y-88057380D01*
X127838333Y-88295476D01*
X127790714Y-88343095D01*
X127695476Y-88390714D01*
D11*
X122805000Y-93805000D02*
X122785000Y-81085000D01*
X123405000Y-87605000D02*
X123905000Y-87905000D01*
X135805000Y-93805000D02*
X135805000Y-81105000D01*
X135805000Y-93805000D02*
X122805000Y-93805000D01*
X125605000Y-87605000D02*
X123405000Y-87605000D01*
X122535000Y-81835000D02*
X122535000Y-80835000D01*
X123535000Y-80835000D02*
X122535000Y-80835000D01*
X135805000Y-81105000D02*
X122785000Y-81085000D01*
X123405000Y-87605000D02*
X123905000Y-87305000D01*
%TD*%
M02*
