%TF.GenerationSoftware,KiCad,Pcbnew,(6.0.7)*%
%TF.CreationDate,2023-06-23T09:46:04+02:00*%
%TF.ProjectId,switch_breakout,73776974-6368-45f6-9272-65616b6f7574,1.0*%
%TF.SameCoordinates,Original*%
%TF.FileFunction,Copper,L1,Top*%
%TF.FilePolarity,Positive*%
%FSLAX46Y46*%
G04 Gerber Fmt 4.6, Leading zero omitted, Abs format (unit mm)*
G04 Created by KiCad (PCBNEW (6.0.7)) date 2023-06-23 09:46:04*
%MOMM*%
%LPD*%
G01*
G04 APERTURE LIST*
G04 Aperture macros list*
%AMRoundRect*
0 Rectangle with rounded corners*
0 $1 Rounding radius*
0 $2 $3 $4 $5 $6 $7 $8 $9 X,Y pos of 4 corners*
0 Add a 4 corners polygon primitive as box body*
4,1,4,$2,$3,$4,$5,$6,$7,$8,$9,$2,$3,0*
0 Add four circle primitives for the rounded corners*
1,1,$1+$1,$2,$3*
1,1,$1+$1,$4,$5*
1,1,$1+$1,$6,$7*
1,1,$1+$1,$8,$9*
0 Add four rect primitives between the rounded corners*
20,1,$1+$1,$2,$3,$4,$5,0*
20,1,$1+$1,$4,$5,$6,$7,0*
20,1,$1+$1,$6,$7,$8,$9,0*
20,1,$1+$1,$8,$9,$2,$3,0*%
G04 Aperture macros list end*
%TA.AperFunction,ComponentPad*%
%ADD10R,3.000000X3.000000*%
%TD*%
%TA.AperFunction,ComponentPad*%
%ADD11C,3.000000*%
%TD*%
%TA.AperFunction,ComponentPad*%
%ADD12RoundRect,0.250000X-0.625000X0.350000X-0.625000X-0.350000X0.625000X-0.350000X0.625000X0.350000X0*%
%TD*%
%TA.AperFunction,ComponentPad*%
%ADD13O,1.750000X1.200000*%
%TD*%
%TA.AperFunction,Conductor*%
%ADD14C,0.250000*%
%TD*%
G04 APERTURE END LIST*
D10*
%TO.P,SW1,1,A*%
%TO.N,GND*%
X124605000Y-85105000D03*
D11*
%TO.P,SW1,2,B*%
%TO.N,Net-(J1-Pad2)*%
X129305000Y-85105000D03*
%TO.P,SW1,3,C*%
%TO.N,Net-(J1-Pad3)*%
X134005000Y-85105000D03*
%TO.P,SW1,4,A*%
X124605000Y-89905000D03*
%TO.P,SW1,5,B*%
%TO.N,Net-(J1-Pad1)*%
X129305000Y-89905000D03*
%TO.P,SW1,6,C*%
%TO.N,Net-(J1-Pad3)*%
X134005000Y-89905000D03*
%TD*%
D12*
%TO.P,J1,1,Pin_1*%
%TO.N,Net-(J1-Pad1)*%
X118800000Y-84800000D03*
D13*
%TO.P,J1,2,Pin_2*%
%TO.N,Net-(J1-Pad2)*%
X118800000Y-86800000D03*
%TO.P,J1,3,Pin_3*%
%TO.N,Net-(J1-Pad3)*%
X118800000Y-88800000D03*
%TO.P,J1,4,Pin_4*%
%TO.N,GND*%
X118800000Y-90800000D03*
%TD*%
D14*
%TO.N,Net-(J1-Pad2)*%
X119250000Y-86800000D02*
X121800000Y-86800000D01*
X122500000Y-87500000D02*
X127000000Y-87500000D01*
X127000000Y-87410000D02*
X129305000Y-85105000D01*
X127000000Y-87500000D02*
X127000000Y-87410000D01*
X121800000Y-86800000D02*
X122500000Y-87500000D01*
%TO.N,Net-(J1-Pad3)*%
X134005000Y-89905000D02*
X134005000Y-85105000D01*
X119250000Y-88800000D02*
X120300000Y-88800000D01*
X124605000Y-89905000D02*
X124605000Y-92105000D01*
X121500000Y-89900000D02*
X121505000Y-89905000D01*
X125500000Y-93000000D02*
X133000000Y-93000000D01*
X120300000Y-88800000D02*
X121400000Y-89900000D01*
X134005000Y-91995000D02*
X134005000Y-89905000D01*
X133000000Y-93000000D02*
X134005000Y-91995000D01*
X121400000Y-89900000D02*
X121500000Y-89900000D01*
X124605000Y-92105000D02*
X125500000Y-93000000D01*
X121505000Y-89905000D02*
X124605000Y-89905000D01*
%TD*%
%TA.AperFunction,Conductor*%
%TO.N,GND*%
G36*
X135970018Y-80510000D02*
G01*
X135984852Y-80512310D01*
X135984855Y-80512310D01*
X135993724Y-80513691D01*
X136002626Y-80512527D01*
X136002750Y-80512511D01*
X136033192Y-80512240D01*
X136040621Y-80513077D01*
X136095264Y-80519234D01*
X136122771Y-80525513D01*
X136199853Y-80552485D01*
X136225274Y-80564727D01*
X136294426Y-80608178D01*
X136316485Y-80625770D01*
X136374230Y-80683515D01*
X136391822Y-80705574D01*
X136435273Y-80774726D01*
X136447515Y-80800147D01*
X136474487Y-80877228D01*
X136480766Y-80904736D01*
X136487018Y-80960226D01*
X136486923Y-80975868D01*
X136487800Y-80975879D01*
X136487690Y-80984851D01*
X136486309Y-80993724D01*
X136487473Y-81002626D01*
X136487473Y-81002628D01*
X136490436Y-81025283D01*
X136491500Y-81041621D01*
X136491500Y-93950633D01*
X136490000Y-93970018D01*
X136486309Y-93993724D01*
X136487473Y-94002626D01*
X136487489Y-94002750D01*
X136487760Y-94033192D01*
X136485430Y-94053870D01*
X136480766Y-94095264D01*
X136474487Y-94122771D01*
X136447515Y-94199853D01*
X136435273Y-94225274D01*
X136391822Y-94294426D01*
X136374230Y-94316485D01*
X136316485Y-94374230D01*
X136294426Y-94391822D01*
X136225274Y-94435273D01*
X136199853Y-94447515D01*
X136122772Y-94474487D01*
X136095264Y-94480766D01*
X136039774Y-94487018D01*
X136024132Y-94486923D01*
X136024121Y-94487800D01*
X136015149Y-94487690D01*
X136006276Y-94486309D01*
X135997374Y-94487473D01*
X135997372Y-94487473D01*
X135986385Y-94488910D01*
X135974714Y-94490436D01*
X135958379Y-94491500D01*
X116049367Y-94491500D01*
X116029982Y-94490000D01*
X116015148Y-94487690D01*
X116015145Y-94487690D01*
X116006276Y-94486309D01*
X115997374Y-94487473D01*
X115997250Y-94487489D01*
X115966808Y-94487760D01*
X115946130Y-94485430D01*
X115904736Y-94480766D01*
X115877229Y-94474487D01*
X115800147Y-94447515D01*
X115774726Y-94435273D01*
X115705574Y-94391822D01*
X115683515Y-94374230D01*
X115625770Y-94316485D01*
X115608178Y-94294426D01*
X115564727Y-94225274D01*
X115552485Y-94199853D01*
X115525513Y-94122772D01*
X115519234Y-94095266D01*
X115513170Y-94041451D01*
X115512888Y-94016640D01*
X115513576Y-94012552D01*
X115513729Y-94000000D01*
X115509773Y-93972376D01*
X115508500Y-93954514D01*
X115508500Y-91067399D01*
X117449712Y-91067399D01*
X117471194Y-91156537D01*
X117475083Y-91167832D01*
X117557629Y-91349382D01*
X117563576Y-91359724D01*
X117678968Y-91522397D01*
X117686761Y-91531425D01*
X117830831Y-91669342D01*
X117840196Y-91676738D01*
X118007741Y-91784921D01*
X118018345Y-91790417D01*
X118203312Y-91864961D01*
X118214770Y-91868355D01*
X118411928Y-91906857D01*
X118420791Y-91907934D01*
X118423500Y-91908000D01*
X118527885Y-91908000D01*
X118543124Y-91903525D01*
X118544329Y-91902135D01*
X118546000Y-91894452D01*
X118546000Y-91889885D01*
X119054000Y-91889885D01*
X119058475Y-91905124D01*
X119059865Y-91906329D01*
X119067548Y-91908000D01*
X119124832Y-91908000D01*
X119130808Y-91907715D01*
X119279494Y-91893529D01*
X119291228Y-91891270D01*
X119482599Y-91835128D01*
X119493675Y-91830698D01*
X119670978Y-91739381D01*
X119681024Y-91732931D01*
X119837857Y-91609738D01*
X119846506Y-91601501D01*
X119977212Y-91450877D01*
X119984147Y-91441153D01*
X120084010Y-91268533D01*
X120088984Y-91257669D01*
X120154407Y-91069273D01*
X120154648Y-91068284D01*
X120153180Y-91057992D01*
X120139615Y-91054000D01*
X119072115Y-91054000D01*
X119056876Y-91058475D01*
X119055671Y-91059865D01*
X119054000Y-91067548D01*
X119054000Y-91889885D01*
X118546000Y-91889885D01*
X118546000Y-91072115D01*
X118541525Y-91056876D01*
X118540135Y-91055671D01*
X118532452Y-91054000D01*
X117464598Y-91054000D01*
X117451067Y-91057973D01*
X117449712Y-91067399D01*
X115508500Y-91067399D01*
X115508500Y-88745604D01*
X117412787Y-88745604D01*
X117422567Y-88956899D01*
X117423971Y-88962724D01*
X117423971Y-88962725D01*
X117454690Y-89090188D01*
X117472125Y-89162534D01*
X117559674Y-89355087D01*
X117682054Y-89527611D01*
X117834850Y-89673881D01*
X117839881Y-89677130D01*
X117839888Y-89677135D01*
X117867607Y-89695033D01*
X117913984Y-89748789D01*
X117923937Y-89819085D01*
X117894304Y-89883602D01*
X117877091Y-89899970D01*
X117762143Y-89990262D01*
X117753494Y-89998499D01*
X117622788Y-90149123D01*
X117615853Y-90158847D01*
X117515990Y-90331467D01*
X117511016Y-90342331D01*
X117445593Y-90530727D01*
X117445352Y-90531716D01*
X117446820Y-90542008D01*
X117460385Y-90546000D01*
X120135402Y-90546000D01*
X120148933Y-90542027D01*
X120150288Y-90532601D01*
X120128806Y-90443463D01*
X120124917Y-90432168D01*
X120042371Y-90250618D01*
X120036424Y-90240276D01*
X119921032Y-90077603D01*
X119913239Y-90068575D01*
X119769169Y-89930658D01*
X119759800Y-89923259D01*
X119732423Y-89905582D01*
X119686045Y-89851828D01*
X119676091Y-89781532D01*
X119705722Y-89717015D01*
X119722937Y-89700644D01*
X119838202Y-89610102D01*
X119842920Y-89606396D01*
X119925061Y-89511737D01*
X119984812Y-89473398D01*
X120055808Y-89473448D01*
X120109320Y-89505224D01*
X120504065Y-89899970D01*
X120896353Y-90292258D01*
X120903887Y-90300537D01*
X120908000Y-90307018D01*
X120934036Y-90331467D01*
X120957651Y-90353643D01*
X120960493Y-90356398D01*
X120980230Y-90376135D01*
X120983427Y-90378615D01*
X120992447Y-90386318D01*
X121024679Y-90416586D01*
X121031625Y-90420405D01*
X121031628Y-90420407D01*
X121042434Y-90426348D01*
X121058953Y-90437199D01*
X121074959Y-90449614D01*
X121082228Y-90452759D01*
X121082232Y-90452762D01*
X121115537Y-90467174D01*
X121126187Y-90472391D01*
X121164940Y-90493695D01*
X121172615Y-90495666D01*
X121172616Y-90495666D01*
X121184562Y-90498733D01*
X121203267Y-90505137D01*
X121221855Y-90513181D01*
X121229678Y-90514420D01*
X121229688Y-90514423D01*
X121265524Y-90520099D01*
X121277144Y-90522505D01*
X121309169Y-90530727D01*
X121319970Y-90533500D01*
X121340224Y-90533500D01*
X121359934Y-90535051D01*
X121379943Y-90538220D01*
X121387835Y-90537474D01*
X121387839Y-90537474D01*
X121395120Y-90536786D01*
X121419804Y-90537174D01*
X121424970Y-90538500D01*
X121445224Y-90538500D01*
X121464934Y-90540051D01*
X121484943Y-90543220D01*
X121492835Y-90542474D01*
X121528961Y-90539059D01*
X121540819Y-90538500D01*
X122608863Y-90538500D01*
X122676984Y-90558502D01*
X122723477Y-90612158D01*
X122728070Y-90623686D01*
X122749112Y-90685144D01*
X122872160Y-90929799D01*
X122874586Y-90933328D01*
X122874589Y-90933334D01*
X123024843Y-91151953D01*
X123027274Y-91155490D01*
X123211582Y-91358043D01*
X123421675Y-91533707D01*
X123425316Y-91535991D01*
X123650024Y-91676951D01*
X123650028Y-91676953D01*
X123653664Y-91679234D01*
X123897352Y-91789264D01*
X123951205Y-91835526D01*
X123971500Y-91904100D01*
X123971500Y-92026233D01*
X123970973Y-92037416D01*
X123969298Y-92044909D01*
X123969547Y-92052835D01*
X123969547Y-92052836D01*
X123971438Y-92112986D01*
X123971500Y-92116945D01*
X123971500Y-92144856D01*
X123971997Y-92148790D01*
X123971997Y-92148791D01*
X123972005Y-92148856D01*
X123972938Y-92160693D01*
X123974327Y-92204889D01*
X123979409Y-92222381D01*
X123979978Y-92224339D01*
X123983987Y-92243700D01*
X123986526Y-92263797D01*
X123989445Y-92271168D01*
X123989445Y-92271170D01*
X124002804Y-92304912D01*
X124006649Y-92316142D01*
X124010558Y-92329596D01*
X124018982Y-92358593D01*
X124023015Y-92365412D01*
X124023017Y-92365417D01*
X124029293Y-92376028D01*
X124037988Y-92393776D01*
X124045448Y-92412617D01*
X124050110Y-92419033D01*
X124050110Y-92419034D01*
X124071436Y-92448387D01*
X124077952Y-92458307D01*
X124091505Y-92481223D01*
X124100458Y-92496362D01*
X124114779Y-92510683D01*
X124127619Y-92525716D01*
X124139528Y-92542107D01*
X124145634Y-92547158D01*
X124173605Y-92570298D01*
X124182384Y-92578288D01*
X124996343Y-93392247D01*
X125003887Y-93400537D01*
X125008000Y-93407018D01*
X125013777Y-93412443D01*
X125057667Y-93453658D01*
X125060509Y-93456413D01*
X125080230Y-93476134D01*
X125083425Y-93478612D01*
X125092447Y-93486318D01*
X125124679Y-93516586D01*
X125131628Y-93520406D01*
X125142432Y-93526346D01*
X125158956Y-93537199D01*
X125174959Y-93549613D01*
X125215543Y-93567176D01*
X125226173Y-93572383D01*
X125264940Y-93593695D01*
X125272617Y-93595666D01*
X125272622Y-93595668D01*
X125284558Y-93598732D01*
X125303266Y-93605137D01*
X125321855Y-93613181D01*
X125329683Y-93614421D01*
X125329690Y-93614423D01*
X125365524Y-93620099D01*
X125377144Y-93622505D01*
X125408959Y-93630673D01*
X125419970Y-93633500D01*
X125440224Y-93633500D01*
X125459934Y-93635051D01*
X125479943Y-93638220D01*
X125487835Y-93637474D01*
X125506580Y-93635702D01*
X125523962Y-93634059D01*
X125535819Y-93633500D01*
X132921233Y-93633500D01*
X132932416Y-93634027D01*
X132939909Y-93635702D01*
X132947835Y-93635453D01*
X132947836Y-93635453D01*
X133007986Y-93633562D01*
X133011945Y-93633500D01*
X133039856Y-93633500D01*
X133043791Y-93633003D01*
X133043856Y-93632995D01*
X133055693Y-93632062D01*
X133087951Y-93631048D01*
X133091970Y-93630922D01*
X133099889Y-93630673D01*
X133119343Y-93625021D01*
X133138700Y-93621013D01*
X133150930Y-93619468D01*
X133150931Y-93619468D01*
X133158797Y-93618474D01*
X133166168Y-93615555D01*
X133166170Y-93615555D01*
X133199912Y-93602196D01*
X133211142Y-93598351D01*
X133245983Y-93588229D01*
X133245984Y-93588229D01*
X133253593Y-93586018D01*
X133260412Y-93581985D01*
X133260417Y-93581983D01*
X133271028Y-93575707D01*
X133288776Y-93567012D01*
X133307617Y-93559552D01*
X133327987Y-93544753D01*
X133343387Y-93533564D01*
X133353307Y-93527048D01*
X133384535Y-93508580D01*
X133384538Y-93508578D01*
X133391362Y-93504542D01*
X133405683Y-93490221D01*
X133420717Y-93477380D01*
X133422432Y-93476134D01*
X133437107Y-93465472D01*
X133465298Y-93431395D01*
X133473288Y-93422616D01*
X134397247Y-92498657D01*
X134405537Y-92491113D01*
X134412018Y-92487000D01*
X134458659Y-92437332D01*
X134461413Y-92434491D01*
X134481135Y-92414769D01*
X134483612Y-92411576D01*
X134491317Y-92402555D01*
X134521586Y-92370321D01*
X134525407Y-92363371D01*
X134531346Y-92352568D01*
X134542202Y-92336041D01*
X134549757Y-92326302D01*
X134549758Y-92326300D01*
X134554614Y-92320040D01*
X134572174Y-92279460D01*
X134577391Y-92268812D01*
X134594875Y-92237009D01*
X134594876Y-92237007D01*
X134598695Y-92230060D01*
X134603733Y-92210437D01*
X134610137Y-92191734D01*
X134615033Y-92180420D01*
X134615033Y-92180419D01*
X134618181Y-92173145D01*
X134619420Y-92165322D01*
X134619423Y-92165312D01*
X134625099Y-92129476D01*
X134627505Y-92117856D01*
X134636528Y-92082711D01*
X134636528Y-92082710D01*
X134638500Y-92075030D01*
X134638500Y-92054776D01*
X134640051Y-92035065D01*
X134641980Y-92022886D01*
X134643220Y-92015057D01*
X134639059Y-91971038D01*
X134638500Y-91959181D01*
X134638500Y-91900805D01*
X134658502Y-91832684D01*
X134716282Y-91784396D01*
X134718608Y-91783433D01*
X134900136Y-91708241D01*
X135068704Y-91609738D01*
X135132879Y-91572237D01*
X135132880Y-91572236D01*
X135136582Y-91570073D01*
X135352089Y-91401094D01*
X135392180Y-91359724D01*
X135539686Y-91207509D01*
X135542669Y-91204431D01*
X135545202Y-91200983D01*
X135545206Y-91200978D01*
X135702257Y-90987178D01*
X135704795Y-90983723D01*
X135732154Y-90933334D01*
X135833418Y-90746830D01*
X135833419Y-90746828D01*
X135835468Y-90743054D01*
X135911437Y-90542008D01*
X135930751Y-90490895D01*
X135930752Y-90490891D01*
X135932269Y-90486877D01*
X135962476Y-90354984D01*
X135992449Y-90224117D01*
X135992450Y-90224113D01*
X135993407Y-90219933D01*
X136006110Y-90077603D01*
X136017531Y-89949627D01*
X136017531Y-89949625D01*
X136017751Y-89947161D01*
X136018193Y-89905000D01*
X136004262Y-89700644D01*
X135999859Y-89636055D01*
X135999858Y-89636049D01*
X135999567Y-89631778D01*
X135944032Y-89363612D01*
X135852617Y-89105465D01*
X135727013Y-88862112D01*
X135717040Y-88847921D01*
X135572008Y-88641562D01*
X135569545Y-88638057D01*
X135383125Y-88437445D01*
X135379810Y-88434731D01*
X135379806Y-88434728D01*
X135187628Y-88277432D01*
X135171205Y-88263990D01*
X134937704Y-88120901D01*
X134933768Y-88119173D01*
X134713854Y-88022637D01*
X134659519Y-87976941D01*
X134638500Y-87907264D01*
X134638500Y-87100805D01*
X134658502Y-87032684D01*
X134716282Y-86984396D01*
X134782665Y-86956899D01*
X134900136Y-86908241D01*
X135136582Y-86770073D01*
X135352089Y-86601094D01*
X135356149Y-86596905D01*
X135483947Y-86465027D01*
X135542669Y-86404431D01*
X135545202Y-86400983D01*
X135545206Y-86400978D01*
X135702257Y-86187178D01*
X135704795Y-86183723D01*
X135714450Y-86165941D01*
X135833418Y-85946830D01*
X135833419Y-85946828D01*
X135835468Y-85943054D01*
X135907537Y-85752329D01*
X135930751Y-85690895D01*
X135930752Y-85690891D01*
X135932269Y-85686877D01*
X135979886Y-85478968D01*
X135992449Y-85424117D01*
X135992450Y-85424113D01*
X135993407Y-85419933D01*
X135997229Y-85377115D01*
X136017531Y-85149627D01*
X136017531Y-85149625D01*
X136017751Y-85147161D01*
X136018193Y-85105000D01*
X136016465Y-85079648D01*
X135999859Y-84836055D01*
X135999858Y-84836049D01*
X135999567Y-84831778D01*
X135944032Y-84563612D01*
X135852617Y-84305465D01*
X135727013Y-84062112D01*
X135717040Y-84047921D01*
X135578427Y-83850695D01*
X135569545Y-83838057D01*
X135442892Y-83701762D01*
X135386046Y-83640588D01*
X135386043Y-83640585D01*
X135383125Y-83637445D01*
X135379810Y-83634731D01*
X135379806Y-83634728D01*
X135174523Y-83466706D01*
X135171205Y-83463990D01*
X134937704Y-83320901D01*
X134933768Y-83319173D01*
X134690873Y-83212549D01*
X134690869Y-83212548D01*
X134686945Y-83210825D01*
X134423566Y-83135800D01*
X134419324Y-83135196D01*
X134419318Y-83135195D01*
X134192366Y-83102895D01*
X134152443Y-83097213D01*
X134008589Y-83096460D01*
X133882877Y-83095802D01*
X133882871Y-83095802D01*
X133878591Y-83095780D01*
X133874347Y-83096339D01*
X133874343Y-83096339D01*
X133766416Y-83110548D01*
X133607078Y-83131525D01*
X133602938Y-83132658D01*
X133602936Y-83132658D01*
X133533418Y-83151676D01*
X133342928Y-83203788D01*
X133338980Y-83205472D01*
X133094982Y-83309546D01*
X133094978Y-83309548D01*
X133091030Y-83311232D01*
X133071125Y-83323145D01*
X132859725Y-83449664D01*
X132859721Y-83449667D01*
X132856043Y-83451868D01*
X132642318Y-83623094D01*
X132453808Y-83821742D01*
X132294002Y-84044136D01*
X132165857Y-84286161D01*
X132164385Y-84290184D01*
X132164383Y-84290188D01*
X132073214Y-84539317D01*
X132071743Y-84543337D01*
X132013404Y-84810907D01*
X131991917Y-85083918D01*
X132007682Y-85357320D01*
X132008507Y-85361525D01*
X132008508Y-85361533D01*
X132019127Y-85415657D01*
X132060405Y-85626053D01*
X132061792Y-85630103D01*
X132061793Y-85630108D01*
X132142830Y-85866796D01*
X132149112Y-85885144D01*
X132272160Y-86129799D01*
X132274586Y-86133328D01*
X132274589Y-86133334D01*
X132420075Y-86345016D01*
X132427274Y-86355490D01*
X132430161Y-86358663D01*
X132430162Y-86358664D01*
X132578443Y-86521624D01*
X132611582Y-86558043D01*
X132821675Y-86733707D01*
X132825316Y-86735991D01*
X133050024Y-86876951D01*
X133050028Y-86876953D01*
X133053664Y-86879234D01*
X133297352Y-86989264D01*
X133351205Y-87035526D01*
X133371500Y-87104100D01*
X133371500Y-87908362D01*
X133351498Y-87976483D01*
X133294935Y-88024259D01*
X133246887Y-88044753D01*
X133094982Y-88109546D01*
X133094978Y-88109548D01*
X133091030Y-88111232D01*
X132980312Y-88177495D01*
X132859725Y-88249664D01*
X132859721Y-88249667D01*
X132856043Y-88251868D01*
X132642318Y-88423094D01*
X132453808Y-88621742D01*
X132294002Y-88844136D01*
X132165857Y-89086161D01*
X132164385Y-89090184D01*
X132164383Y-89090188D01*
X132098032Y-89271500D01*
X132071743Y-89343337D01*
X132013404Y-89610907D01*
X132013068Y-89615177D01*
X131993195Y-89867686D01*
X131991917Y-89883918D01*
X132007682Y-90157320D01*
X132008507Y-90161525D01*
X132008508Y-90161533D01*
X132019127Y-90215657D01*
X132060405Y-90426053D01*
X132061792Y-90430103D01*
X132061793Y-90430108D01*
X132124123Y-90612158D01*
X132149112Y-90685144D01*
X132272160Y-90929799D01*
X132274586Y-90933328D01*
X132274589Y-90933334D01*
X132424843Y-91151953D01*
X132427274Y-91155490D01*
X132611582Y-91358043D01*
X132821675Y-91533707D01*
X132825316Y-91535991D01*
X133050024Y-91676951D01*
X133050028Y-91676953D01*
X133053664Y-91679234D01*
X133143241Y-91719680D01*
X133197094Y-91765942D01*
X133217388Y-91833976D01*
X133197678Y-91902182D01*
X133180485Y-91923611D01*
X132974619Y-92129476D01*
X132774499Y-92329596D01*
X132712187Y-92363621D01*
X132685404Y-92366500D01*
X125814595Y-92366500D01*
X125746474Y-92346498D01*
X125725499Y-92329595D01*
X125353469Y-91957564D01*
X125319444Y-91895252D01*
X125324509Y-91824436D01*
X125367056Y-91767601D01*
X125394345Y-91752061D01*
X125500136Y-91708241D01*
X125668704Y-91609738D01*
X125732879Y-91572237D01*
X125732880Y-91572236D01*
X125736582Y-91570073D01*
X125952089Y-91401094D01*
X125992180Y-91359724D01*
X126139686Y-91207509D01*
X126142669Y-91204431D01*
X126145202Y-91200983D01*
X126145206Y-91200978D01*
X126302257Y-90987178D01*
X126304795Y-90983723D01*
X126332154Y-90933334D01*
X126433418Y-90746830D01*
X126433419Y-90746828D01*
X126435468Y-90743054D01*
X126511437Y-90542008D01*
X126530751Y-90490895D01*
X126530752Y-90490891D01*
X126532269Y-90486877D01*
X126562476Y-90354984D01*
X126592449Y-90224117D01*
X126592450Y-90224113D01*
X126593407Y-90219933D01*
X126606110Y-90077603D01*
X126617531Y-89949627D01*
X126617531Y-89949625D01*
X126617751Y-89947161D01*
X126618193Y-89905000D01*
X126616756Y-89883918D01*
X127291917Y-89883918D01*
X127307682Y-90157320D01*
X127308507Y-90161525D01*
X127308508Y-90161533D01*
X127319127Y-90215657D01*
X127360405Y-90426053D01*
X127361792Y-90430103D01*
X127361793Y-90430108D01*
X127424123Y-90612158D01*
X127449112Y-90685144D01*
X127572160Y-90929799D01*
X127574586Y-90933328D01*
X127574589Y-90933334D01*
X127724843Y-91151953D01*
X127727274Y-91155490D01*
X127911582Y-91358043D01*
X128121675Y-91533707D01*
X128125316Y-91535991D01*
X128350024Y-91676951D01*
X128350028Y-91676953D01*
X128353664Y-91679234D01*
X128472589Y-91732931D01*
X128599345Y-91790164D01*
X128599349Y-91790166D01*
X128603257Y-91791930D01*
X128666393Y-91810632D01*
X128861723Y-91868491D01*
X128861727Y-91868492D01*
X128865836Y-91869709D01*
X128870070Y-91870357D01*
X128870075Y-91870358D01*
X129132298Y-91910483D01*
X129132300Y-91910483D01*
X129136540Y-91911132D01*
X129275912Y-91913322D01*
X129406071Y-91915367D01*
X129406077Y-91915367D01*
X129410362Y-91915434D01*
X129682235Y-91882534D01*
X129947127Y-91813041D01*
X129951087Y-91811401D01*
X129951092Y-91811399D01*
X130094348Y-91752060D01*
X130200136Y-91708241D01*
X130368704Y-91609738D01*
X130432879Y-91572237D01*
X130432880Y-91572236D01*
X130436582Y-91570073D01*
X130652089Y-91401094D01*
X130692180Y-91359724D01*
X130839686Y-91207509D01*
X130842669Y-91204431D01*
X130845202Y-91200983D01*
X130845206Y-91200978D01*
X131002257Y-90987178D01*
X131004795Y-90983723D01*
X131032154Y-90933334D01*
X131133418Y-90746830D01*
X131133419Y-90746828D01*
X131135468Y-90743054D01*
X131211437Y-90542008D01*
X131230751Y-90490895D01*
X131230752Y-90490891D01*
X131232269Y-90486877D01*
X131262476Y-90354984D01*
X131292449Y-90224117D01*
X131292450Y-90224113D01*
X131293407Y-90219933D01*
X131306110Y-90077603D01*
X131317531Y-89949627D01*
X131317531Y-89949625D01*
X131317751Y-89947161D01*
X131318193Y-89905000D01*
X131304262Y-89700644D01*
X131299859Y-89636055D01*
X131299858Y-89636049D01*
X131299567Y-89631778D01*
X131244032Y-89363612D01*
X131152617Y-89105465D01*
X131027013Y-88862112D01*
X131017040Y-88847921D01*
X130872008Y-88641562D01*
X130869545Y-88638057D01*
X130683125Y-88437445D01*
X130679810Y-88434731D01*
X130679806Y-88434728D01*
X130487628Y-88277432D01*
X130471205Y-88263990D01*
X130237704Y-88120901D01*
X130233768Y-88119173D01*
X129990873Y-88012549D01*
X129990869Y-88012548D01*
X129986945Y-88010825D01*
X129723566Y-87935800D01*
X129719324Y-87935196D01*
X129719318Y-87935195D01*
X129479234Y-87901026D01*
X129452443Y-87897213D01*
X129308589Y-87896460D01*
X129182877Y-87895802D01*
X129182871Y-87895802D01*
X129178591Y-87895780D01*
X129174347Y-87896339D01*
X129174343Y-87896339D01*
X129091360Y-87907264D01*
X128907078Y-87931525D01*
X128902938Y-87932658D01*
X128902936Y-87932658D01*
X128830008Y-87952609D01*
X128642928Y-88003788D01*
X128638980Y-88005472D01*
X128394982Y-88109546D01*
X128394978Y-88109548D01*
X128391030Y-88111232D01*
X128280312Y-88177495D01*
X128159725Y-88249664D01*
X128159721Y-88249667D01*
X128156043Y-88251868D01*
X127942318Y-88423094D01*
X127753808Y-88621742D01*
X127594002Y-88844136D01*
X127465857Y-89086161D01*
X127464385Y-89090184D01*
X127464383Y-89090188D01*
X127398032Y-89271500D01*
X127371743Y-89343337D01*
X127313404Y-89610907D01*
X127313068Y-89615177D01*
X127293195Y-89867686D01*
X127291917Y-89883918D01*
X126616756Y-89883918D01*
X126604262Y-89700644D01*
X126599859Y-89636055D01*
X126599858Y-89636049D01*
X126599567Y-89631778D01*
X126544032Y-89363612D01*
X126452617Y-89105465D01*
X126327013Y-88862112D01*
X126317040Y-88847921D01*
X126172008Y-88641562D01*
X126169545Y-88638057D01*
X125983125Y-88437445D01*
X125979810Y-88434731D01*
X125979806Y-88434728D01*
X125884846Y-88357004D01*
X125844800Y-88298379D01*
X125842807Y-88227410D01*
X125879498Y-88166630D01*
X125943226Y-88135335D01*
X125964652Y-88133500D01*
X126928207Y-88133500D01*
X126951816Y-88135732D01*
X126952119Y-88135790D01*
X126952123Y-88135790D01*
X126959906Y-88137275D01*
X127015951Y-88133749D01*
X127023862Y-88133500D01*
X127039856Y-88133500D01*
X127055730Y-88131494D01*
X127063590Y-88130752D01*
X127091049Y-88129024D01*
X127111737Y-88127723D01*
X127111738Y-88127723D01*
X127119650Y-88127225D01*
X127127191Y-88124775D01*
X127127487Y-88124679D01*
X127150631Y-88119506D01*
X127150935Y-88119468D01*
X127150940Y-88119467D01*
X127158797Y-88118474D01*
X127166162Y-88115558D01*
X127166166Y-88115557D01*
X127211011Y-88097801D01*
X127218430Y-88095129D01*
X127271875Y-88077764D01*
X127278572Y-88073514D01*
X127278831Y-88073350D01*
X127299958Y-88062585D01*
X127300246Y-88062471D01*
X127300251Y-88062468D01*
X127307617Y-88059552D01*
X127314025Y-88054896D01*
X127314031Y-88054893D01*
X127353052Y-88026542D01*
X127359589Y-88022099D01*
X127407018Y-87992000D01*
X127412659Y-87985993D01*
X127430446Y-87970312D01*
X127430691Y-87970134D01*
X127430693Y-87970132D01*
X127437107Y-87965472D01*
X127442162Y-87959362D01*
X127472903Y-87922204D01*
X127478134Y-87916270D01*
X127511158Y-87881102D01*
X127511160Y-87881099D01*
X127516586Y-87875321D01*
X127520558Y-87868097D01*
X127533881Y-87848494D01*
X127534080Y-87848254D01*
X127534084Y-87848247D01*
X127539133Y-87842144D01*
X127563047Y-87791324D01*
X127566629Y-87784292D01*
X127593695Y-87735060D01*
X127595667Y-87727381D01*
X127597299Y-87723258D01*
X127625355Y-87680549D01*
X128342382Y-86963522D01*
X128404694Y-86929496D01*
X128475509Y-86934561D01*
X128483328Y-86937780D01*
X128599345Y-86990164D01*
X128599349Y-86990166D01*
X128603257Y-86991930D01*
X128607377Y-86993150D01*
X128607376Y-86993150D01*
X128861723Y-87068491D01*
X128861727Y-87068492D01*
X128865836Y-87069709D01*
X128870070Y-87070357D01*
X128870075Y-87070358D01*
X129132298Y-87110483D01*
X129132300Y-87110483D01*
X129136540Y-87111132D01*
X129275912Y-87113322D01*
X129406071Y-87115367D01*
X129406077Y-87115367D01*
X129410362Y-87115434D01*
X129682235Y-87082534D01*
X129947127Y-87013041D01*
X129951087Y-87011401D01*
X129951092Y-87011399D01*
X130082665Y-86956899D01*
X130200136Y-86908241D01*
X130436582Y-86770073D01*
X130652089Y-86601094D01*
X130656149Y-86596905D01*
X130783947Y-86465027D01*
X130842669Y-86404431D01*
X130845202Y-86400983D01*
X130845206Y-86400978D01*
X131002257Y-86187178D01*
X131004795Y-86183723D01*
X131014450Y-86165941D01*
X131133418Y-85946830D01*
X131133419Y-85946828D01*
X131135468Y-85943054D01*
X131207537Y-85752329D01*
X131230751Y-85690895D01*
X131230752Y-85690891D01*
X131232269Y-85686877D01*
X131279886Y-85478968D01*
X131292449Y-85424117D01*
X131292450Y-85424113D01*
X131293407Y-85419933D01*
X131297229Y-85377115D01*
X131317531Y-85149627D01*
X131317531Y-85149625D01*
X131317751Y-85147161D01*
X131318193Y-85105000D01*
X131316465Y-85079648D01*
X131299859Y-84836055D01*
X131299858Y-84836049D01*
X131299567Y-84831778D01*
X131244032Y-84563612D01*
X131152617Y-84305465D01*
X131027013Y-84062112D01*
X131017040Y-84047921D01*
X130878427Y-83850695D01*
X130869545Y-83838057D01*
X130742892Y-83701762D01*
X130686046Y-83640588D01*
X130686043Y-83640585D01*
X130683125Y-83637445D01*
X130679810Y-83634731D01*
X130679806Y-83634728D01*
X130474523Y-83466706D01*
X130471205Y-83463990D01*
X130237704Y-83320901D01*
X130233768Y-83319173D01*
X129990873Y-83212549D01*
X129990869Y-83212548D01*
X129986945Y-83210825D01*
X129723566Y-83135800D01*
X129719324Y-83135196D01*
X129719318Y-83135195D01*
X129492366Y-83102895D01*
X129452443Y-83097213D01*
X129308589Y-83096460D01*
X129182877Y-83095802D01*
X129182871Y-83095802D01*
X129178591Y-83095780D01*
X129174347Y-83096339D01*
X129174343Y-83096339D01*
X129066416Y-83110548D01*
X128907078Y-83131525D01*
X128902938Y-83132658D01*
X128902936Y-83132658D01*
X128833418Y-83151676D01*
X128642928Y-83203788D01*
X128638980Y-83205472D01*
X128394982Y-83309546D01*
X128394978Y-83309548D01*
X128391030Y-83311232D01*
X128371125Y-83323145D01*
X128159725Y-83449664D01*
X128159721Y-83449667D01*
X128156043Y-83451868D01*
X127942318Y-83623094D01*
X127753808Y-83821742D01*
X127594002Y-84044136D01*
X127465857Y-84286161D01*
X127464385Y-84290184D01*
X127464383Y-84290188D01*
X127373214Y-84539317D01*
X127371743Y-84543337D01*
X127313404Y-84810907D01*
X127291917Y-85083918D01*
X127307682Y-85357320D01*
X127308507Y-85361525D01*
X127308508Y-85361533D01*
X127319127Y-85415657D01*
X127360405Y-85626053D01*
X127361792Y-85630103D01*
X127361793Y-85630108D01*
X127442830Y-85866796D01*
X127449112Y-85885144D01*
X127451039Y-85888975D01*
X127451042Y-85888982D01*
X127468387Y-85923470D01*
X127481125Y-85993314D01*
X127454080Y-86058958D01*
X127444917Y-86069178D01*
X126828095Y-86686000D01*
X126765783Y-86720026D01*
X126694968Y-86714961D01*
X126638132Y-86672414D01*
X126613321Y-86605894D01*
X126613000Y-86596905D01*
X126613000Y-85377115D01*
X126608525Y-85361876D01*
X126607135Y-85360671D01*
X126599452Y-85359000D01*
X122615116Y-85359000D01*
X122599877Y-85363475D01*
X122598672Y-85364865D01*
X122597001Y-85372548D01*
X122597001Y-86396906D01*
X122576999Y-86465027D01*
X122523343Y-86511520D01*
X122453069Y-86521624D01*
X122388489Y-86492130D01*
X122381906Y-86486001D01*
X122303652Y-86407747D01*
X122296112Y-86399461D01*
X122292000Y-86392982D01*
X122242348Y-86346356D01*
X122239507Y-86343602D01*
X122219770Y-86323865D01*
X122216573Y-86321385D01*
X122207551Y-86313680D01*
X122181100Y-86288841D01*
X122175321Y-86283414D01*
X122168375Y-86279595D01*
X122168372Y-86279593D01*
X122157566Y-86273652D01*
X122141047Y-86262801D01*
X122140583Y-86262441D01*
X122125041Y-86250386D01*
X122117772Y-86247241D01*
X122117768Y-86247238D01*
X122084463Y-86232826D01*
X122073813Y-86227609D01*
X122035060Y-86206305D01*
X122015437Y-86201267D01*
X121996734Y-86194863D01*
X121985420Y-86189967D01*
X121985419Y-86189967D01*
X121978145Y-86186819D01*
X121970322Y-86185580D01*
X121970312Y-86185577D01*
X121934476Y-86179901D01*
X121922856Y-86177495D01*
X121887711Y-86168472D01*
X121887710Y-86168472D01*
X121880030Y-86166500D01*
X121859776Y-86166500D01*
X121840065Y-86164949D01*
X121827886Y-86163020D01*
X121820057Y-86161780D01*
X121812165Y-86162526D01*
X121776039Y-86165941D01*
X121764181Y-86166500D01*
X120049807Y-86166500D01*
X119981686Y-86146498D01*
X119947037Y-86113399D01*
X119921416Y-86077280D01*
X119921413Y-86077276D01*
X119917946Y-86072389D01*
X119913619Y-86068247D01*
X119913614Y-86068241D01*
X119822683Y-85981194D01*
X119787306Y-85919639D01*
X119790825Y-85848730D01*
X119832121Y-85790979D01*
X119843504Y-85783035D01*
X119899348Y-85748478D01*
X120024305Y-85623303D01*
X120117115Y-85472738D01*
X120155397Y-85357320D01*
X120170632Y-85311389D01*
X120170632Y-85311387D01*
X120172797Y-85304861D01*
X120183500Y-85200400D01*
X120183500Y-84832885D01*
X122597000Y-84832885D01*
X122601475Y-84848124D01*
X122602865Y-84849329D01*
X122610548Y-84851000D01*
X124332885Y-84851000D01*
X124348124Y-84846525D01*
X124349329Y-84845135D01*
X124351000Y-84837452D01*
X124351000Y-84832885D01*
X124859000Y-84832885D01*
X124863475Y-84848124D01*
X124864865Y-84849329D01*
X124872548Y-84851000D01*
X126594884Y-84851000D01*
X126610123Y-84846525D01*
X126611328Y-84845135D01*
X126612999Y-84837452D01*
X126612999Y-83560331D01*
X126612629Y-83553510D01*
X126607105Y-83502648D01*
X126603479Y-83487396D01*
X126558324Y-83366946D01*
X126549786Y-83351351D01*
X126473285Y-83249276D01*
X126460724Y-83236715D01*
X126358649Y-83160214D01*
X126343054Y-83151676D01*
X126222606Y-83106522D01*
X126207351Y-83102895D01*
X126156486Y-83097369D01*
X126149672Y-83097000D01*
X124877115Y-83097000D01*
X124861876Y-83101475D01*
X124860671Y-83102865D01*
X124859000Y-83110548D01*
X124859000Y-84832885D01*
X124351000Y-84832885D01*
X124351000Y-83115116D01*
X124346525Y-83099877D01*
X124345135Y-83098672D01*
X124337452Y-83097001D01*
X123060331Y-83097001D01*
X123053510Y-83097371D01*
X123002648Y-83102895D01*
X122987396Y-83106521D01*
X122866946Y-83151676D01*
X122851351Y-83160214D01*
X122749276Y-83236715D01*
X122736715Y-83249276D01*
X122660214Y-83351351D01*
X122651676Y-83366946D01*
X122606522Y-83487394D01*
X122602895Y-83502649D01*
X122597369Y-83553514D01*
X122597000Y-83560328D01*
X122597000Y-84832885D01*
X120183500Y-84832885D01*
X120183500Y-84399600D01*
X120172526Y-84293834D01*
X120116550Y-84126054D01*
X120023478Y-83975652D01*
X119898303Y-83850695D01*
X119883487Y-83841562D01*
X119753968Y-83761725D01*
X119753966Y-83761724D01*
X119747738Y-83757885D01*
X119587254Y-83704655D01*
X119586389Y-83704368D01*
X119586387Y-83704368D01*
X119579861Y-83702203D01*
X119573025Y-83701503D01*
X119573022Y-83701502D01*
X119529969Y-83697091D01*
X119475400Y-83691500D01*
X118124600Y-83691500D01*
X118121354Y-83691837D01*
X118121350Y-83691837D01*
X118025692Y-83701762D01*
X118025688Y-83701763D01*
X118018834Y-83702474D01*
X118012298Y-83704655D01*
X118012296Y-83704655D01*
X117880194Y-83748728D01*
X117851054Y-83758450D01*
X117700652Y-83851522D01*
X117575695Y-83976697D01*
X117571855Y-83982927D01*
X117571854Y-83982928D01*
X117520698Y-84065919D01*
X117482885Y-84127262D01*
X117427203Y-84295139D01*
X117416500Y-84399600D01*
X117416500Y-85200400D01*
X117427474Y-85306166D01*
X117429655Y-85312702D01*
X117429655Y-85312704D01*
X117464003Y-85415657D01*
X117483450Y-85473946D01*
X117576522Y-85624348D01*
X117701697Y-85749305D01*
X117707927Y-85753145D01*
X117707928Y-85753146D01*
X117753236Y-85781074D01*
X117800729Y-85833846D01*
X117812153Y-85903918D01*
X117783879Y-85969042D01*
X117764955Y-85987418D01*
X117757080Y-85993604D01*
X117753148Y-85998135D01*
X117753145Y-85998138D01*
X117653127Y-86113399D01*
X117618448Y-86153363D01*
X117615448Y-86158549D01*
X117615445Y-86158553D01*
X117559509Y-86255242D01*
X117512527Y-86336454D01*
X117443139Y-86536271D01*
X117442278Y-86542206D01*
X117442278Y-86542208D01*
X117414912Y-86730951D01*
X117412787Y-86745604D01*
X117422567Y-86956899D01*
X117423971Y-86962724D01*
X117423971Y-86962725D01*
X117460650Y-87114918D01*
X117472125Y-87162534D01*
X117559674Y-87355087D01*
X117682054Y-87527611D01*
X117834850Y-87673881D01*
X117839888Y-87677134D01*
X117867163Y-87694746D01*
X117913540Y-87748501D01*
X117923493Y-87818797D01*
X117893861Y-87883314D01*
X117876649Y-87899681D01*
X117757080Y-87993604D01*
X117753148Y-87998135D01*
X117753145Y-87998138D01*
X117656047Y-88110034D01*
X117618448Y-88153363D01*
X117615448Y-88158549D01*
X117615445Y-88158553D01*
X117552877Y-88266706D01*
X117512527Y-88336454D01*
X117443139Y-88536271D01*
X117442278Y-88542206D01*
X117442278Y-88542208D01*
X117428381Y-88638057D01*
X117412787Y-88745604D01*
X115508500Y-88745604D01*
X115508500Y-81053250D01*
X115510246Y-81032345D01*
X115512770Y-81017344D01*
X115512770Y-81017341D01*
X115513576Y-81012552D01*
X115513729Y-81000000D01*
X115513040Y-80995188D01*
X115512723Y-80990327D01*
X115513008Y-80990308D01*
X115512607Y-80963549D01*
X115519234Y-80904736D01*
X115525513Y-80877229D01*
X115552485Y-80800147D01*
X115564727Y-80774726D01*
X115608178Y-80705574D01*
X115625770Y-80683515D01*
X115683515Y-80625770D01*
X115705574Y-80608178D01*
X115774726Y-80564727D01*
X115800147Y-80552485D01*
X115877228Y-80525513D01*
X115904736Y-80519234D01*
X115960226Y-80512982D01*
X115975868Y-80513077D01*
X115975879Y-80512200D01*
X115984851Y-80512310D01*
X115993724Y-80513691D01*
X116002626Y-80512527D01*
X116002628Y-80512527D01*
X116017951Y-80510523D01*
X116025286Y-80509564D01*
X116041621Y-80508500D01*
X135950633Y-80508500D01*
X135970018Y-80510000D01*
G37*
%TD.AperFunction*%
%TD*%
M02*
