%TF.GenerationSoftware,KiCad,Pcbnew,(6.0.7)*%
%TF.CreationDate,2023-06-23T09:46:04+02:00*%
%TF.ProjectId,switch_breakout,73776974-6368-45f6-9272-65616b6f7574,1.0*%
%TF.SameCoordinates,Original*%
%TF.FileFunction,Legend,Bot*%
%TF.FilePolarity,Positive*%
%FSLAX46Y46*%
G04 Gerber Fmt 4.6, Leading zero omitted, Abs format (unit mm)*
G04 Created by KiCad (PCBNEW (6.0.7)) date 2023-06-23 09:46:04*
%MOMM*%
%LPD*%
G01*
G04 APERTURE LIST*
%ADD10C,0.150000*%
%ADD11C,0.120000*%
G04 APERTURE END LIST*
D10*
X135712023Y-81299761D02*
X135569166Y-81347380D01*
X135331071Y-81347380D01*
X135235833Y-81299761D01*
X135188214Y-81252142D01*
X135140595Y-81156904D01*
X135140595Y-81061666D01*
X135188214Y-80966428D01*
X135235833Y-80918809D01*
X135331071Y-80871190D01*
X135521547Y-80823571D01*
X135616785Y-80775952D01*
X135664404Y-80728333D01*
X135712023Y-80633095D01*
X135712023Y-80537857D01*
X135664404Y-80442619D01*
X135616785Y-80395000D01*
X135521547Y-80347380D01*
X135283452Y-80347380D01*
X135140595Y-80395000D01*
X134807261Y-80680714D02*
X134616785Y-81347380D01*
X134426309Y-80871190D01*
X134235833Y-81347380D01*
X134045357Y-80680714D01*
X133664404Y-81347380D02*
X133664404Y-80680714D01*
X133664404Y-80347380D02*
X133712023Y-80395000D01*
X133664404Y-80442619D01*
X133616785Y-80395000D01*
X133664404Y-80347380D01*
X133664404Y-80442619D01*
X133331071Y-80680714D02*
X132950119Y-80680714D01*
X133188214Y-80347380D02*
X133188214Y-81204523D01*
X133140595Y-81299761D01*
X133045357Y-81347380D01*
X132950119Y-81347380D01*
X132188214Y-81299761D02*
X132283452Y-81347380D01*
X132473928Y-81347380D01*
X132569166Y-81299761D01*
X132616785Y-81252142D01*
X132664404Y-81156904D01*
X132664404Y-80871190D01*
X132616785Y-80775952D01*
X132569166Y-80728333D01*
X132473928Y-80680714D01*
X132283452Y-80680714D01*
X132188214Y-80728333D01*
X131759642Y-81347380D02*
X131759642Y-80347380D01*
X131331071Y-81347380D02*
X131331071Y-80823571D01*
X131378690Y-80728333D01*
X131473928Y-80680714D01*
X131616785Y-80680714D01*
X131712023Y-80728333D01*
X131759642Y-80775952D01*
X130092976Y-81347380D02*
X130092976Y-80347380D01*
X130092976Y-80728333D02*
X129997738Y-80680714D01*
X129807261Y-80680714D01*
X129712023Y-80728333D01*
X129664404Y-80775952D01*
X129616785Y-80871190D01*
X129616785Y-81156904D01*
X129664404Y-81252142D01*
X129712023Y-81299761D01*
X129807261Y-81347380D01*
X129997738Y-81347380D01*
X130092976Y-81299761D01*
X129188214Y-81347380D02*
X129188214Y-80680714D01*
X129188214Y-80871190D02*
X129140595Y-80775952D01*
X129092976Y-80728333D01*
X128997738Y-80680714D01*
X128902500Y-80680714D01*
X128188214Y-81299761D02*
X128283452Y-81347380D01*
X128473928Y-81347380D01*
X128569166Y-81299761D01*
X128616785Y-81204523D01*
X128616785Y-80823571D01*
X128569166Y-80728333D01*
X128473928Y-80680714D01*
X128283452Y-80680714D01*
X128188214Y-80728333D01*
X128140595Y-80823571D01*
X128140595Y-80918809D01*
X128616785Y-81014047D01*
X127283452Y-81347380D02*
X127283452Y-80823571D01*
X127331071Y-80728333D01*
X127426309Y-80680714D01*
X127616785Y-80680714D01*
X127712023Y-80728333D01*
X127283452Y-81299761D02*
X127378690Y-81347380D01*
X127616785Y-81347380D01*
X127712023Y-81299761D01*
X127759642Y-81204523D01*
X127759642Y-81109285D01*
X127712023Y-81014047D01*
X127616785Y-80966428D01*
X127378690Y-80966428D01*
X127283452Y-80918809D01*
X126807261Y-81347380D02*
X126807261Y-80347380D01*
X126712023Y-80966428D02*
X126426309Y-81347380D01*
X126426309Y-80680714D02*
X126807261Y-81061666D01*
X125854880Y-81347380D02*
X125950119Y-81299761D01*
X125997738Y-81252142D01*
X126045357Y-81156904D01*
X126045357Y-80871190D01*
X125997738Y-80775952D01*
X125950119Y-80728333D01*
X125854880Y-80680714D01*
X125712023Y-80680714D01*
X125616785Y-80728333D01*
X125569166Y-80775952D01*
X125521547Y-80871190D01*
X125521547Y-81156904D01*
X125569166Y-81252142D01*
X125616785Y-81299761D01*
X125712023Y-81347380D01*
X125854880Y-81347380D01*
X124664404Y-80680714D02*
X124664404Y-81347380D01*
X125092976Y-80680714D02*
X125092976Y-81204523D01*
X125045357Y-81299761D01*
X124950119Y-81347380D01*
X124807261Y-81347380D01*
X124712023Y-81299761D01*
X124664404Y-81252142D01*
X124331071Y-80680714D02*
X123950119Y-80680714D01*
X124188214Y-80347380D02*
X124188214Y-81204523D01*
X124140595Y-81299761D01*
X124045357Y-81347380D01*
X123950119Y-81347380D01*
X122854880Y-81347380D02*
X122854880Y-80347380D01*
X122854880Y-80728333D02*
X122759642Y-80680714D01*
X122569166Y-80680714D01*
X122473928Y-80728333D01*
X122426309Y-80775952D01*
X122378690Y-80871190D01*
X122378690Y-81156904D01*
X122426309Y-81252142D01*
X122473928Y-81299761D01*
X122569166Y-81347380D01*
X122759642Y-81347380D01*
X122854880Y-81299761D01*
X121807261Y-81347380D02*
X121902500Y-81299761D01*
X121950119Y-81252142D01*
X121997738Y-81156904D01*
X121997738Y-80871190D01*
X121950119Y-80775952D01*
X121902500Y-80728333D01*
X121807261Y-80680714D01*
X121664404Y-80680714D01*
X121569166Y-80728333D01*
X121521547Y-80775952D01*
X121473928Y-80871190D01*
X121473928Y-81156904D01*
X121521547Y-81252142D01*
X121569166Y-81299761D01*
X121664404Y-81347380D01*
X121807261Y-81347380D01*
X120616785Y-81347380D02*
X120616785Y-80823571D01*
X120664404Y-80728333D01*
X120759642Y-80680714D01*
X120950119Y-80680714D01*
X121045357Y-80728333D01*
X120616785Y-81299761D02*
X120712023Y-81347380D01*
X120950119Y-81347380D01*
X121045357Y-81299761D01*
X121092976Y-81204523D01*
X121092976Y-81109285D01*
X121045357Y-81014047D01*
X120950119Y-80966428D01*
X120712023Y-80966428D01*
X120616785Y-80918809D01*
X120140595Y-81347380D02*
X120140595Y-80680714D01*
X120140595Y-80871190D02*
X120092976Y-80775952D01*
X120045357Y-80728333D01*
X119950119Y-80680714D01*
X119854880Y-80680714D01*
X119092976Y-81347380D02*
X119092976Y-80347380D01*
X119092976Y-81299761D02*
X119188214Y-81347380D01*
X119378690Y-81347380D01*
X119473928Y-81299761D01*
X119521547Y-81252142D01*
X119569166Y-81156904D01*
X119569166Y-80871190D01*
X119521547Y-80775952D01*
X119473928Y-80728333D01*
X119378690Y-80680714D01*
X119188214Y-80680714D01*
X119092976Y-80728333D01*
X135473928Y-81957380D02*
X135378690Y-81957380D01*
X135283452Y-82005000D01*
X135235833Y-82052619D01*
X135188214Y-82147857D01*
X135140595Y-82338333D01*
X135140595Y-82576428D01*
X135188214Y-82766904D01*
X135235833Y-82862142D01*
X135283452Y-82909761D01*
X135378690Y-82957380D01*
X135473928Y-82957380D01*
X135569166Y-82909761D01*
X135616785Y-82862142D01*
X135664404Y-82766904D01*
X135712023Y-82576428D01*
X135712023Y-82338333D01*
X135664404Y-82147857D01*
X135616785Y-82052619D01*
X135569166Y-82005000D01*
X135473928Y-81957380D01*
X134283452Y-81957380D02*
X134473928Y-81957380D01*
X134569166Y-82005000D01*
X134616785Y-82052619D01*
X134712023Y-82195476D01*
X134759642Y-82385952D01*
X134759642Y-82766904D01*
X134712023Y-82862142D01*
X134664404Y-82909761D01*
X134569166Y-82957380D01*
X134378690Y-82957380D01*
X134283452Y-82909761D01*
X134235833Y-82862142D01*
X134188214Y-82766904D01*
X134188214Y-82528809D01*
X134235833Y-82433571D01*
X134283452Y-82385952D01*
X134378690Y-82338333D01*
X134569166Y-82338333D01*
X134664404Y-82385952D01*
X134712023Y-82433571D01*
X134759642Y-82528809D01*
X133045357Y-81909761D02*
X133902500Y-83195476D01*
X132759642Y-82052619D02*
X132712023Y-82005000D01*
X132616785Y-81957380D01*
X132378690Y-81957380D01*
X132283452Y-82005000D01*
X132235833Y-82052619D01*
X132188214Y-82147857D01*
X132188214Y-82243095D01*
X132235833Y-82385952D01*
X132807261Y-82957380D01*
X132188214Y-82957380D01*
X131854880Y-81957380D02*
X131235833Y-81957380D01*
X131569166Y-82338333D01*
X131426309Y-82338333D01*
X131331071Y-82385952D01*
X131283452Y-82433571D01*
X131235833Y-82528809D01*
X131235833Y-82766904D01*
X131283452Y-82862142D01*
X131331071Y-82909761D01*
X131426309Y-82957380D01*
X131712023Y-82957380D01*
X131807261Y-82909761D01*
X131854880Y-82862142D01*
X129473928Y-82957380D02*
X129807261Y-82481190D01*
X130045357Y-82957380D02*
X130045357Y-81957380D01*
X129664404Y-81957380D01*
X129569166Y-82005000D01*
X129521547Y-82052619D01*
X129473928Y-82147857D01*
X129473928Y-82290714D01*
X129521547Y-82385952D01*
X129569166Y-82433571D01*
X129664404Y-82481190D01*
X130045357Y-82481190D01*
X128664404Y-82909761D02*
X128759642Y-82957380D01*
X128950119Y-82957380D01*
X129045357Y-82909761D01*
X129092976Y-82814523D01*
X129092976Y-82433571D01*
X129045357Y-82338333D01*
X128950119Y-82290714D01*
X128759642Y-82290714D01*
X128664404Y-82338333D01*
X128616785Y-82433571D01*
X128616785Y-82528809D01*
X129092976Y-82624047D01*
X128283452Y-82290714D02*
X128045357Y-82957380D01*
X127807261Y-82290714D01*
X126140595Y-82957380D02*
X126712023Y-82957380D01*
X126426309Y-82957380D02*
X126426309Y-81957380D01*
X126521547Y-82100238D01*
X126616785Y-82195476D01*
X126712023Y-82243095D01*
X125712023Y-82862142D02*
X125664404Y-82909761D01*
X125712023Y-82957380D01*
X125759642Y-82909761D01*
X125712023Y-82862142D01*
X125712023Y-82957380D01*
X125045357Y-81957380D02*
X124950119Y-81957380D01*
X124854880Y-82005000D01*
X124807261Y-82052619D01*
X124759642Y-82147857D01*
X124712023Y-82338333D01*
X124712023Y-82576428D01*
X124759642Y-82766904D01*
X124807261Y-82862142D01*
X124854880Y-82909761D01*
X124950119Y-82957380D01*
X125045357Y-82957380D01*
X125140595Y-82909761D01*
X125188214Y-82862142D01*
X125235833Y-82766904D01*
X125283452Y-82576428D01*
X125283452Y-82338333D01*
X125235833Y-82147857D01*
X125188214Y-82052619D01*
X125140595Y-82005000D01*
X125045357Y-81957380D01*
X135464404Y-91747380D02*
X135464404Y-92556904D01*
X135416785Y-92652142D01*
X135369166Y-92699761D01*
X135273928Y-92747380D01*
X135083452Y-92747380D01*
X134988214Y-92699761D01*
X134940595Y-92652142D01*
X134892976Y-92556904D01*
X134892976Y-91747380D01*
X134464404Y-92699761D02*
X134369166Y-92747380D01*
X134178690Y-92747380D01*
X134083452Y-92699761D01*
X134035833Y-92604523D01*
X134035833Y-92556904D01*
X134083452Y-92461666D01*
X134178690Y-92414047D01*
X134321547Y-92414047D01*
X134416785Y-92366428D01*
X134464404Y-92271190D01*
X134464404Y-92223571D01*
X134416785Y-92128333D01*
X134321547Y-92080714D01*
X134178690Y-92080714D01*
X134083452Y-92128333D01*
X133226309Y-92699761D02*
X133321547Y-92747380D01*
X133512023Y-92747380D01*
X133607261Y-92699761D01*
X133654880Y-92604523D01*
X133654880Y-92223571D01*
X133607261Y-92128333D01*
X133512023Y-92080714D01*
X133321547Y-92080714D01*
X133226309Y-92128333D01*
X133178690Y-92223571D01*
X133178690Y-92318809D01*
X133654880Y-92414047D01*
X132083452Y-92080714D02*
X131892976Y-92747380D01*
X131702500Y-92271190D01*
X131512023Y-92747380D01*
X131321547Y-92080714D01*
X130940595Y-92747380D02*
X130940595Y-92080714D01*
X130940595Y-91747380D02*
X130988214Y-91795000D01*
X130940595Y-91842619D01*
X130892976Y-91795000D01*
X130940595Y-91747380D01*
X130940595Y-91842619D01*
X130607261Y-92080714D02*
X130226309Y-92080714D01*
X130464404Y-91747380D02*
X130464404Y-92604523D01*
X130416785Y-92699761D01*
X130321547Y-92747380D01*
X130226309Y-92747380D01*
X129892976Y-92747380D02*
X129892976Y-91747380D01*
X129464404Y-92747380D02*
X129464404Y-92223571D01*
X129512023Y-92128333D01*
X129607261Y-92080714D01*
X129750119Y-92080714D01*
X129845357Y-92128333D01*
X129892976Y-92175952D01*
X128226309Y-92080714D02*
X128226309Y-93080714D01*
X128226309Y-92128333D02*
X128131071Y-92080714D01*
X127940595Y-92080714D01*
X127845357Y-92128333D01*
X127797738Y-92175952D01*
X127750119Y-92271190D01*
X127750119Y-92556904D01*
X127797738Y-92652142D01*
X127845357Y-92699761D01*
X127940595Y-92747380D01*
X128131071Y-92747380D01*
X128226309Y-92699761D01*
X127321547Y-92747380D02*
X127321547Y-91747380D01*
X126892976Y-92747380D02*
X126892976Y-92223571D01*
X126940595Y-92128333D01*
X127035833Y-92080714D01*
X127178690Y-92080714D01*
X127273928Y-92128333D01*
X127321547Y-92175952D01*
X125988214Y-92747380D02*
X125988214Y-92223571D01*
X126035833Y-92128333D01*
X126131071Y-92080714D01*
X126321547Y-92080714D01*
X126416785Y-92128333D01*
X125988214Y-92699761D02*
X126083452Y-92747380D01*
X126321547Y-92747380D01*
X126416785Y-92699761D01*
X126464404Y-92604523D01*
X126464404Y-92509285D01*
X126416785Y-92414047D01*
X126321547Y-92366428D01*
X126083452Y-92366428D01*
X125988214Y-92318809D01*
X125559642Y-92699761D02*
X125464404Y-92747380D01*
X125273928Y-92747380D01*
X125178690Y-92699761D01*
X125131071Y-92604523D01*
X125131071Y-92556904D01*
X125178690Y-92461666D01*
X125273928Y-92414047D01*
X125416785Y-92414047D01*
X125512023Y-92366428D01*
X125559642Y-92271190D01*
X125559642Y-92223571D01*
X125512023Y-92128333D01*
X125416785Y-92080714D01*
X125273928Y-92080714D01*
X125178690Y-92128333D01*
X124321547Y-92699761D02*
X124416785Y-92747380D01*
X124607261Y-92747380D01*
X124702500Y-92699761D01*
X124750119Y-92604523D01*
X124750119Y-92223571D01*
X124702500Y-92128333D01*
X124607261Y-92080714D01*
X124416785Y-92080714D01*
X124321547Y-92128333D01*
X124273928Y-92223571D01*
X124273928Y-92318809D01*
X124750119Y-92414047D01*
X123845357Y-92366428D02*
X123083452Y-92366428D01*
X135607261Y-93690714D02*
X135226309Y-93690714D01*
X135464404Y-94357380D02*
X135464404Y-93500238D01*
X135416785Y-93405000D01*
X135321547Y-93357380D01*
X135226309Y-93357380D01*
X134892976Y-94357380D02*
X134892976Y-93690714D01*
X134892976Y-93881190D02*
X134845357Y-93785952D01*
X134797738Y-93738333D01*
X134702500Y-93690714D01*
X134607261Y-93690714D01*
X133892976Y-94309761D02*
X133988214Y-94357380D01*
X134178690Y-94357380D01*
X134273928Y-94309761D01*
X134321547Y-94214523D01*
X134321547Y-93833571D01*
X134273928Y-93738333D01*
X134178690Y-93690714D01*
X133988214Y-93690714D01*
X133892976Y-93738333D01*
X133845357Y-93833571D01*
X133845357Y-93928809D01*
X134321547Y-94024047D01*
X132988214Y-93690714D02*
X132988214Y-94690714D01*
X132988214Y-94309761D02*
X133083452Y-94357380D01*
X133273928Y-94357380D01*
X133369166Y-94309761D01*
X133416785Y-94262142D01*
X133464404Y-94166904D01*
X133464404Y-93881190D01*
X133416785Y-93785952D01*
X133369166Y-93738333D01*
X133273928Y-93690714D01*
X133083452Y-93690714D01*
X132988214Y-93738333D01*
X132083452Y-93690714D02*
X132083452Y-94357380D01*
X132512023Y-93690714D02*
X132512023Y-94214523D01*
X132464404Y-94309761D01*
X132369166Y-94357380D01*
X132226309Y-94357380D01*
X132131071Y-94309761D01*
X132083452Y-94262142D01*
X131226309Y-94309761D02*
X131321547Y-94357380D01*
X131512023Y-94357380D01*
X131607261Y-94309761D01*
X131654880Y-94214523D01*
X131654880Y-93833571D01*
X131607261Y-93738333D01*
X131512023Y-93690714D01*
X131321547Y-93690714D01*
X131226309Y-93738333D01*
X131178690Y-93833571D01*
X131178690Y-93928809D01*
X131654880Y-94024047D01*
X130750119Y-93690714D02*
X130750119Y-94357380D01*
X130750119Y-93785952D02*
X130702500Y-93738333D01*
X130607261Y-93690714D01*
X130464404Y-93690714D01*
X130369166Y-93738333D01*
X130321547Y-93833571D01*
X130321547Y-94357380D01*
X129416785Y-94309761D02*
X129512023Y-94357380D01*
X129702500Y-94357380D01*
X129797738Y-94309761D01*
X129845357Y-94262142D01*
X129892976Y-94166904D01*
X129892976Y-93881190D01*
X129845357Y-93785952D01*
X129797738Y-93738333D01*
X129702500Y-93690714D01*
X129512023Y-93690714D01*
X129416785Y-93738333D01*
X129083452Y-93690714D02*
X128845357Y-94357380D01*
X128607261Y-93690714D02*
X128845357Y-94357380D01*
X128940595Y-94595476D01*
X128988214Y-94643095D01*
X129083452Y-94690714D01*
X128226309Y-93976428D02*
X127464404Y-93976428D01*
X126559642Y-94357380D02*
X126559642Y-93357380D01*
X126559642Y-94309761D02*
X126654880Y-94357380D01*
X126845357Y-94357380D01*
X126940595Y-94309761D01*
X126988214Y-94262142D01*
X127035833Y-94166904D01*
X127035833Y-93881190D01*
X126988214Y-93785952D01*
X126940595Y-93738333D01*
X126845357Y-93690714D01*
X126654880Y-93690714D01*
X126559642Y-93738333D01*
X125702500Y-94309761D02*
X125797738Y-94357380D01*
X125988214Y-94357380D01*
X126083452Y-94309761D01*
X126131071Y-94214523D01*
X126131071Y-93833571D01*
X126083452Y-93738333D01*
X125988214Y-93690714D01*
X125797738Y-93690714D01*
X125702500Y-93738333D01*
X125654880Y-93833571D01*
X125654880Y-93928809D01*
X126131071Y-94024047D01*
X125369166Y-93690714D02*
X124988214Y-93690714D01*
X125226309Y-93357380D02*
X125226309Y-94214523D01*
X125178690Y-94309761D01*
X125083452Y-94357380D01*
X124988214Y-94357380D01*
X124273928Y-94309761D02*
X124369166Y-94357380D01*
X124559642Y-94357380D01*
X124654880Y-94309761D01*
X124702500Y-94214523D01*
X124702500Y-93833571D01*
X124654880Y-93738333D01*
X124559642Y-93690714D01*
X124369166Y-93690714D01*
X124273928Y-93738333D01*
X124226309Y-93833571D01*
X124226309Y-93928809D01*
X124702500Y-94024047D01*
X123369166Y-94309761D02*
X123464404Y-94357380D01*
X123654880Y-94357380D01*
X123750119Y-94309761D01*
X123797738Y-94262142D01*
X123845357Y-94166904D01*
X123845357Y-93881190D01*
X123797738Y-93785952D01*
X123750119Y-93738333D01*
X123654880Y-93690714D01*
X123464404Y-93690714D01*
X123369166Y-93738333D01*
X123083452Y-93690714D02*
X122702500Y-93690714D01*
X122940595Y-93357380D02*
X122940595Y-94214523D01*
X122892976Y-94309761D01*
X122797738Y-94357380D01*
X122702500Y-94357380D01*
X122226309Y-94357380D02*
X122321547Y-94309761D01*
X122369166Y-94262142D01*
X122416785Y-94166904D01*
X122416785Y-93881190D01*
X122369166Y-93785952D01*
X122321547Y-93738333D01*
X122226309Y-93690714D01*
X122083452Y-93690714D01*
X121988214Y-93738333D01*
X121940595Y-93785952D01*
X121892976Y-93881190D01*
X121892976Y-94166904D01*
X121940595Y-94262142D01*
X121988214Y-94309761D01*
X122083452Y-94357380D01*
X122226309Y-94357380D01*
X121464404Y-94357380D02*
X121464404Y-93690714D01*
X121464404Y-93881190D02*
X121416785Y-93785952D01*
X121369166Y-93738333D01*
X121273928Y-93690714D01*
X121178690Y-93690714D01*
%TO.C,J1*%
X117533333Y-80952380D02*
X117533333Y-81666666D01*
X117580952Y-81809523D01*
X117676190Y-81904761D01*
X117819047Y-81952380D01*
X117914285Y-81952380D01*
X116533333Y-81952380D02*
X117104761Y-81952380D01*
X116819047Y-81952380D02*
X116819047Y-80952380D01*
X116914285Y-81095238D01*
X117009523Y-81190476D01*
X117104761Y-81238095D01*
D11*
X118300000Y-92860000D02*
X118300000Y-92250000D01*
X116890000Y-84500000D02*
X116890000Y-84200000D01*
X120600000Y-89900000D02*
X121100000Y-89900000D01*
X116990000Y-84500000D02*
X116790000Y-84500000D01*
X120600000Y-89700000D02*
X120600000Y-89900000D01*
X117600000Y-85300000D02*
X117600000Y-83350000D01*
X117600000Y-83350000D02*
X121100000Y-83350000D01*
X117600000Y-92250000D02*
X117600000Y-90300000D01*
X116690000Y-82440000D02*
X117940000Y-82440000D01*
X116990000Y-82740000D02*
X121710000Y-82740000D01*
X121100000Y-83350000D02*
X121100000Y-92250000D01*
X121100000Y-87700000D02*
X120600000Y-87700000D01*
X121100000Y-87800000D02*
X120600000Y-87800000D01*
X121100000Y-85800000D02*
X120600000Y-85800000D01*
X116990000Y-92860000D02*
X116990000Y-82740000D01*
X120600000Y-87700000D02*
X120600000Y-87900000D01*
X121100000Y-85700000D02*
X120600000Y-85700000D01*
X117600000Y-90300000D02*
X116990000Y-90300000D01*
X121710000Y-82740000D02*
X121710000Y-92860000D01*
X118300000Y-82740000D02*
X118300000Y-83350000D01*
X121100000Y-92250000D02*
X117600000Y-92250000D01*
X120600000Y-85900000D02*
X121100000Y-85900000D01*
X116790000Y-84200000D02*
X116990000Y-84200000D01*
X121710000Y-92860000D02*
X116990000Y-92860000D01*
X121100000Y-89700000D02*
X120600000Y-89700000D01*
X119600000Y-82740000D02*
X119600000Y-83350000D01*
X116990000Y-85300000D02*
X117600000Y-85300000D01*
X119600000Y-92860000D02*
X119600000Y-92250000D01*
X116790000Y-84500000D02*
X116790000Y-84200000D01*
X120600000Y-87900000D02*
X121100000Y-87900000D01*
X120600000Y-85700000D02*
X120600000Y-85900000D01*
X116690000Y-83690000D02*
X116690000Y-82440000D01*
X121100000Y-89800000D02*
X120600000Y-89800000D01*
%TD*%
M02*
