G04 #@! TF.GenerationSoftware,KiCad,Pcbnew,(5.1.9)-1*
G04 #@! TF.CreationDate,2021-12-02T13:45:28+01:00*
G04 #@! TF.ProjectId,PFD_HMC439QS16G,5046445f-484d-4433-9433-395153313647,1.3*
G04 #@! TF.SameCoordinates,Original*
G04 #@! TF.FileFunction,Legend,Top*
G04 #@! TF.FilePolarity,Positive*
%FSLAX46Y46*%
G04 Gerber Fmt 4.6, Leading zero omitted, Abs format (unit mm)*
G04 Created by KiCad (PCBNEW (5.1.9)-1) date 2021-12-02 13:45:28*
%MOMM*%
%LPD*%
G01*
G04 APERTURE LIST*
%ADD10C,0.300000*%
%ADD11C,0.150000*%
%ADD12C,0.200000*%
%ADD13C,0.120000*%
%ADD14C,1.000000*%
%ADD15C,0.600000*%
G04 APERTURE END LIST*
D10*
X83250000Y-102642857D02*
X83178571Y-102785714D01*
X83178571Y-103000000D01*
X83250000Y-103214285D01*
X83392857Y-103357142D01*
X83535714Y-103428571D01*
X83821428Y-103500000D01*
X84035714Y-103500000D01*
X84321428Y-103428571D01*
X84464285Y-103357142D01*
X84607142Y-103214285D01*
X84678571Y-103000000D01*
X84678571Y-102857142D01*
X84607142Y-102642857D01*
X84535714Y-102571428D01*
X84035714Y-102571428D01*
X84035714Y-102857142D01*
X84678571Y-101928571D02*
X83178571Y-101928571D01*
X84678571Y-101071428D01*
X83178571Y-101071428D01*
X84678571Y-100357142D02*
X83178571Y-100357142D01*
X83178571Y-100000000D01*
X83250000Y-99785714D01*
X83392857Y-99642857D01*
X83535714Y-99571428D01*
X83821428Y-99500000D01*
X84035714Y-99500000D01*
X84321428Y-99571428D01*
X84464285Y-99642857D01*
X84607142Y-99785714D01*
X84678571Y-100000000D01*
X84678571Y-100357142D01*
X76657142Y-56907142D02*
X77800000Y-56907142D01*
X79300000Y-57478571D02*
X78442857Y-57478571D01*
X78871428Y-57478571D02*
X78871428Y-55978571D01*
X78728571Y-56192857D01*
X78585714Y-56335714D01*
X78442857Y-56407142D01*
X80657142Y-55978571D02*
X79942857Y-55978571D01*
X79871428Y-56692857D01*
X79942857Y-56621428D01*
X80085714Y-56550000D01*
X80442857Y-56550000D01*
X80585714Y-56621428D01*
X80657142Y-56692857D01*
X80728571Y-56835714D01*
X80728571Y-57192857D01*
X80657142Y-57335714D01*
X80585714Y-57407142D01*
X80442857Y-57478571D01*
X80085714Y-57478571D01*
X79942857Y-57407142D01*
X79871428Y-57335714D01*
X81157142Y-55978571D02*
X81657142Y-57478571D01*
X82157142Y-55978571D01*
X76957142Y-144607142D02*
X78100000Y-144607142D01*
X77528571Y-145178571D02*
X77528571Y-144035714D01*
X79600000Y-145178571D02*
X78742857Y-145178571D01*
X79171428Y-145178571D02*
X79171428Y-143678571D01*
X79028571Y-143892857D01*
X78885714Y-144035714D01*
X78742857Y-144107142D01*
X80957142Y-143678571D02*
X80242857Y-143678571D01*
X80171428Y-144392857D01*
X80242857Y-144321428D01*
X80385714Y-144250000D01*
X80742857Y-144250000D01*
X80885714Y-144321428D01*
X80957142Y-144392857D01*
X81028571Y-144535714D01*
X81028571Y-144892857D01*
X80957142Y-145035714D01*
X80885714Y-145107142D01*
X80742857Y-145178571D01*
X80385714Y-145178571D01*
X80242857Y-145107142D01*
X80171428Y-145035714D01*
X81457142Y-143678571D02*
X81957142Y-145178571D01*
X82457142Y-143678571D01*
D11*
X170921309Y-92452380D02*
X170921309Y-93166666D01*
X170873690Y-93309523D01*
X170778452Y-93404761D01*
X170635595Y-93452380D01*
X170540357Y-93452380D01*
X171730833Y-92928571D02*
X171397500Y-92928571D01*
X171397500Y-93452380D02*
X171397500Y-92452380D01*
X171873690Y-92452380D01*
X172254642Y-92928571D02*
X172587976Y-92928571D01*
X172730833Y-93452380D02*
X172254642Y-93452380D01*
X172254642Y-92452380D01*
X172730833Y-92452380D01*
X173016547Y-92452380D02*
X173587976Y-92452380D01*
X173302261Y-93452380D02*
X173302261Y-92452380D01*
X174635595Y-92404761D02*
X173778452Y-93690476D01*
X175302261Y-92928571D02*
X175445119Y-92976190D01*
X175492738Y-93023809D01*
X175540357Y-93119047D01*
X175540357Y-93261904D01*
X175492738Y-93357142D01*
X175445119Y-93404761D01*
X175349880Y-93452380D01*
X174968928Y-93452380D01*
X174968928Y-92452380D01*
X175302261Y-92452380D01*
X175397500Y-92500000D01*
X175445119Y-92547619D01*
X175492738Y-92642857D01*
X175492738Y-92738095D01*
X175445119Y-92833333D01*
X175397500Y-92880952D01*
X175302261Y-92928571D01*
X174968928Y-92928571D01*
X175968928Y-93452380D02*
X175968928Y-92785714D01*
X175968928Y-92452380D02*
X175921309Y-92500000D01*
X175968928Y-92547619D01*
X176016547Y-92500000D01*
X175968928Y-92452380D01*
X175968928Y-92547619D01*
X176873690Y-93452380D02*
X176873690Y-92928571D01*
X176826071Y-92833333D01*
X176730833Y-92785714D01*
X176540357Y-92785714D01*
X176445119Y-92833333D01*
X176873690Y-93404761D02*
X176778452Y-93452380D01*
X176540357Y-93452380D01*
X176445119Y-93404761D01*
X176397500Y-93309523D01*
X176397500Y-93214285D01*
X176445119Y-93119047D01*
X176540357Y-93071428D01*
X176778452Y-93071428D01*
X176873690Y-93023809D01*
X177302261Y-93404761D02*
X177397500Y-93452380D01*
X177587976Y-93452380D01*
X177683214Y-93404761D01*
X177730833Y-93309523D01*
X177730833Y-93261904D01*
X177683214Y-93166666D01*
X177587976Y-93119047D01*
X177445119Y-93119047D01*
X177349880Y-93071428D01*
X177302261Y-92976190D01*
X177302261Y-92928571D01*
X177349880Y-92833333D01*
X177445119Y-92785714D01*
X177587976Y-92785714D01*
X177683214Y-92833333D01*
X178159404Y-93071428D02*
X178921309Y-93071428D01*
X179254642Y-92452380D02*
X179826071Y-92452380D01*
X179540357Y-93452380D02*
X179540357Y-92452380D01*
X180921309Y-92785714D02*
X180921309Y-93452380D01*
X180921309Y-92880952D02*
X180968928Y-92833333D01*
X181064166Y-92785714D01*
X181207023Y-92785714D01*
X181302261Y-92833333D01*
X181349880Y-92928571D01*
X181349880Y-93452380D01*
X181968928Y-93452380D02*
X181873690Y-93404761D01*
X181826071Y-93357142D01*
X181778452Y-93261904D01*
X181778452Y-92976190D01*
X181826071Y-92880952D01*
X181873690Y-92833333D01*
X181968928Y-92785714D01*
X182111785Y-92785714D01*
X182207023Y-92833333D01*
X182254642Y-92880952D01*
X182302261Y-92976190D01*
X182302261Y-93261904D01*
X182254642Y-93357142D01*
X182207023Y-93404761D01*
X182111785Y-93452380D01*
X181968928Y-93452380D01*
X182730833Y-92785714D02*
X182730833Y-93452380D01*
X182730833Y-92880952D02*
X182778452Y-92833333D01*
X182873690Y-92785714D01*
X183016547Y-92785714D01*
X183111785Y-92833333D01*
X183159404Y-92928571D01*
X183159404Y-93452380D01*
X183635595Y-93071428D02*
X184397500Y-93071428D01*
X184873690Y-93452380D02*
X184873690Y-92785714D01*
X184873690Y-92452380D02*
X184826071Y-92500000D01*
X184873690Y-92547619D01*
X184921309Y-92500000D01*
X184873690Y-92452380D01*
X184873690Y-92547619D01*
X185349880Y-92785714D02*
X185349880Y-93452380D01*
X185349880Y-92880952D02*
X185397500Y-92833333D01*
X185492738Y-92785714D01*
X185635595Y-92785714D01*
X185730833Y-92833333D01*
X185778452Y-92928571D01*
X185778452Y-93452380D01*
X186159404Y-92785714D02*
X186397500Y-93452380D01*
X186635595Y-92785714D01*
X187397500Y-93404761D02*
X187302261Y-93452380D01*
X187111785Y-93452380D01*
X187016547Y-93404761D01*
X186968928Y-93309523D01*
X186968928Y-92928571D01*
X187016547Y-92833333D01*
X187111785Y-92785714D01*
X187302261Y-92785714D01*
X187397500Y-92833333D01*
X187445119Y-92928571D01*
X187445119Y-93023809D01*
X186968928Y-93119047D01*
X187873690Y-93452380D02*
X187873690Y-92785714D01*
X187873690Y-92976190D02*
X187921309Y-92880952D01*
X187968928Y-92833333D01*
X188064166Y-92785714D01*
X188159404Y-92785714D01*
X188349880Y-92785714D02*
X188730833Y-92785714D01*
X188492738Y-92452380D02*
X188492738Y-93309523D01*
X188540357Y-93404761D01*
X188635595Y-93452380D01*
X188730833Y-93452380D01*
X189064166Y-93452380D02*
X189064166Y-92785714D01*
X189064166Y-92452380D02*
X189016547Y-92500000D01*
X189064166Y-92547619D01*
X189111785Y-92500000D01*
X189064166Y-92452380D01*
X189064166Y-92547619D01*
X189540357Y-92785714D02*
X189540357Y-93452380D01*
X189540357Y-92880952D02*
X189587976Y-92833333D01*
X189683214Y-92785714D01*
X189826071Y-92785714D01*
X189921309Y-92833333D01*
X189968928Y-92928571D01*
X189968928Y-93452380D01*
X190873690Y-92785714D02*
X190873690Y-93595238D01*
X190826071Y-93690476D01*
X190778452Y-93738095D01*
X190683214Y-93785714D01*
X190540357Y-93785714D01*
X190445119Y-93738095D01*
X190873690Y-93404761D02*
X190778452Y-93452380D01*
X190587976Y-93452380D01*
X190492738Y-93404761D01*
X190445119Y-93357142D01*
X190397500Y-93261904D01*
X190397500Y-92976190D01*
X190445119Y-92880952D01*
X190492738Y-92833333D01*
X190587976Y-92785714D01*
X190778452Y-92785714D01*
X190873690Y-92833333D01*
X191349880Y-93357142D02*
X191397500Y-93404761D01*
X191349880Y-93452380D01*
X191302261Y-93404761D01*
X191349880Y-93357142D01*
X191349880Y-93452380D01*
X191349880Y-92833333D02*
X191397500Y-92880952D01*
X191349880Y-92928571D01*
X191302261Y-92880952D01*
X191349880Y-92833333D01*
X191349880Y-92928571D01*
X170921309Y-94102380D02*
X170921309Y-94816666D01*
X170873690Y-94959523D01*
X170778452Y-95054761D01*
X170635595Y-95102380D01*
X170540357Y-95102380D01*
X171397500Y-95102380D02*
X171397500Y-94102380D01*
X171778452Y-94102380D01*
X171873690Y-94150000D01*
X171921309Y-94197619D01*
X171968928Y-94292857D01*
X171968928Y-94435714D01*
X171921309Y-94530952D01*
X171873690Y-94578571D01*
X171778452Y-94626190D01*
X171397500Y-94626190D01*
X172921309Y-95102380D02*
X172349880Y-95102380D01*
X172635595Y-95102380D02*
X172635595Y-94102380D01*
X172540357Y-94245238D01*
X172445119Y-94340476D01*
X172349880Y-94388095D01*
X173349880Y-95007142D02*
X173397500Y-95054761D01*
X173349880Y-95102380D01*
X173302261Y-95054761D01*
X173349880Y-95007142D01*
X173349880Y-95102380D01*
X173349880Y-94483333D02*
X173397500Y-94530952D01*
X173349880Y-94578571D01*
X173302261Y-94530952D01*
X173349880Y-94483333D01*
X173349880Y-94578571D01*
X173968928Y-95102380D02*
X173873690Y-95054761D01*
X173826071Y-95007142D01*
X173778452Y-94911904D01*
X173778452Y-94626190D01*
X173826071Y-94530952D01*
X173873690Y-94483333D01*
X173968928Y-94435714D01*
X174111785Y-94435714D01*
X174207023Y-94483333D01*
X174254642Y-94530952D01*
X174302261Y-94626190D01*
X174302261Y-94911904D01*
X174254642Y-95007142D01*
X174207023Y-95054761D01*
X174111785Y-95102380D01*
X173968928Y-95102380D01*
X174730833Y-94435714D02*
X174730833Y-95435714D01*
X174730833Y-94483333D02*
X174826071Y-94435714D01*
X175016547Y-94435714D01*
X175111785Y-94483333D01*
X175159404Y-94530952D01*
X175207023Y-94626190D01*
X175207023Y-94911904D01*
X175159404Y-95007142D01*
X175111785Y-95054761D01*
X175016547Y-95102380D01*
X174826071Y-95102380D01*
X174730833Y-95054761D01*
X176016547Y-95054761D02*
X175921309Y-95102380D01*
X175730833Y-95102380D01*
X175635595Y-95054761D01*
X175587976Y-94959523D01*
X175587976Y-94578571D01*
X175635595Y-94483333D01*
X175730833Y-94435714D01*
X175921309Y-94435714D01*
X176016547Y-94483333D01*
X176064166Y-94578571D01*
X176064166Y-94673809D01*
X175587976Y-94769047D01*
X176492738Y-94435714D02*
X176492738Y-95102380D01*
X176492738Y-94530952D02*
X176540357Y-94483333D01*
X176635595Y-94435714D01*
X176778452Y-94435714D01*
X176873690Y-94483333D01*
X176921309Y-94578571D01*
X176921309Y-95102380D01*
X177445119Y-95054761D02*
X177445119Y-95102380D01*
X177397500Y-95197619D01*
X177349880Y-95245238D01*
X178921309Y-94102380D02*
X178921309Y-94816666D01*
X178873690Y-94959523D01*
X178778452Y-95054761D01*
X178635595Y-95102380D01*
X178540357Y-95102380D01*
X179397500Y-95102380D02*
X179397500Y-94102380D01*
X179778452Y-94102380D01*
X179873690Y-94150000D01*
X179921309Y-94197619D01*
X179968928Y-94292857D01*
X179968928Y-94435714D01*
X179921309Y-94530952D01*
X179873690Y-94578571D01*
X179778452Y-94626190D01*
X179397500Y-94626190D01*
X180349880Y-94197619D02*
X180397500Y-94150000D01*
X180492738Y-94102380D01*
X180730833Y-94102380D01*
X180826071Y-94150000D01*
X180873690Y-94197619D01*
X180921309Y-94292857D01*
X180921309Y-94388095D01*
X180873690Y-94530952D01*
X180302261Y-95102380D01*
X180921309Y-95102380D01*
X181349880Y-95007142D02*
X181397500Y-95054761D01*
X181349880Y-95102380D01*
X181302261Y-95054761D01*
X181349880Y-95007142D01*
X181349880Y-95102380D01*
X181349880Y-94483333D02*
X181397500Y-94530952D01*
X181349880Y-94578571D01*
X181302261Y-94530952D01*
X181349880Y-94483333D01*
X181349880Y-94578571D01*
X182254642Y-95054761D02*
X182159404Y-95102380D01*
X181968928Y-95102380D01*
X181873690Y-95054761D01*
X181826071Y-95007142D01*
X181778452Y-94911904D01*
X181778452Y-94626190D01*
X181826071Y-94530952D01*
X181873690Y-94483333D01*
X181968928Y-94435714D01*
X182159404Y-94435714D01*
X182254642Y-94483333D01*
X182826071Y-95102380D02*
X182730833Y-95054761D01*
X182683214Y-94959523D01*
X182683214Y-94102380D01*
X183349880Y-95102380D02*
X183254642Y-95054761D01*
X183207023Y-95007142D01*
X183159404Y-94911904D01*
X183159404Y-94626190D01*
X183207023Y-94530952D01*
X183254642Y-94483333D01*
X183349880Y-94435714D01*
X183492738Y-94435714D01*
X183587976Y-94483333D01*
X183635595Y-94530952D01*
X183683214Y-94626190D01*
X183683214Y-94911904D01*
X183635595Y-95007142D01*
X183587976Y-95054761D01*
X183492738Y-95102380D01*
X183349880Y-95102380D01*
X184064166Y-95054761D02*
X184159404Y-95102380D01*
X184349880Y-95102380D01*
X184445119Y-95054761D01*
X184492738Y-94959523D01*
X184492738Y-94911904D01*
X184445119Y-94816666D01*
X184349880Y-94769047D01*
X184207023Y-94769047D01*
X184111785Y-94721428D01*
X184064166Y-94626190D01*
X184064166Y-94578571D01*
X184111785Y-94483333D01*
X184207023Y-94435714D01*
X184349880Y-94435714D01*
X184445119Y-94483333D01*
X185302261Y-95054761D02*
X185207023Y-95102380D01*
X185016547Y-95102380D01*
X184921309Y-95054761D01*
X184873690Y-94959523D01*
X184873690Y-94578571D01*
X184921309Y-94483333D01*
X185016547Y-94435714D01*
X185207023Y-94435714D01*
X185302261Y-94483333D01*
X185349880Y-94578571D01*
X185349880Y-94673809D01*
X184873690Y-94769047D01*
X186207023Y-95102380D02*
X186207023Y-94102380D01*
X186207023Y-95054761D02*
X186111785Y-95102380D01*
X185921309Y-95102380D01*
X185826071Y-95054761D01*
X185778452Y-95007142D01*
X185730833Y-94911904D01*
X185730833Y-94626190D01*
X185778452Y-94530952D01*
X185826071Y-94483333D01*
X185921309Y-94435714D01*
X186111785Y-94435714D01*
X186207023Y-94483333D01*
X186730833Y-95054761D02*
X186730833Y-95102380D01*
X186683214Y-95197619D01*
X186635595Y-95245238D01*
X188492738Y-95102380D02*
X188159404Y-94626190D01*
X187921309Y-95102380D02*
X187921309Y-94102380D01*
X188302261Y-94102380D01*
X188397500Y-94150000D01*
X188445119Y-94197619D01*
X188492738Y-94292857D01*
X188492738Y-94435714D01*
X188445119Y-94530952D01*
X188397500Y-94578571D01*
X188302261Y-94626190D01*
X187921309Y-94626190D01*
X189445119Y-95102380D02*
X188873690Y-95102380D01*
X189159404Y-95102380D02*
X189159404Y-94102380D01*
X189064166Y-94245238D01*
X188968928Y-94340476D01*
X188873690Y-94388095D01*
X189778452Y-94102380D02*
X190445119Y-94102380D01*
X190016547Y-95102380D01*
X190826071Y-94578571D02*
X191587976Y-94578571D01*
X191587976Y-94864285D02*
X190826071Y-94864285D01*
X192635595Y-95102380D02*
X192302261Y-94626190D01*
X192064166Y-95102380D02*
X192064166Y-94102380D01*
X192445119Y-94102380D01*
X192540357Y-94150000D01*
X192587976Y-94197619D01*
X192635595Y-94292857D01*
X192635595Y-94435714D01*
X192587976Y-94530952D01*
X192540357Y-94578571D01*
X192445119Y-94626190D01*
X192064166Y-94626190D01*
X193587976Y-95102380D02*
X193016547Y-95102380D01*
X193302261Y-95102380D02*
X193302261Y-94102380D01*
X193207023Y-94245238D01*
X193111785Y-94340476D01*
X193016547Y-94388095D01*
X194159404Y-94530952D02*
X194064166Y-94483333D01*
X194016547Y-94435714D01*
X193968928Y-94340476D01*
X193968928Y-94292857D01*
X194016547Y-94197619D01*
X194064166Y-94150000D01*
X194159404Y-94102380D01*
X194349880Y-94102380D01*
X194445119Y-94150000D01*
X194492738Y-94197619D01*
X194540357Y-94292857D01*
X194540357Y-94340476D01*
X194492738Y-94435714D01*
X194445119Y-94483333D01*
X194349880Y-94530952D01*
X194159404Y-94530952D01*
X194064166Y-94578571D01*
X194016547Y-94626190D01*
X193968928Y-94721428D01*
X193968928Y-94911904D01*
X194016547Y-95007142D01*
X194064166Y-95054761D01*
X194159404Y-95102380D01*
X194349880Y-95102380D01*
X194445119Y-95054761D01*
X194492738Y-95007142D01*
X194540357Y-94911904D01*
X194540357Y-94721428D01*
X194492738Y-94626190D01*
X194445119Y-94578571D01*
X194349880Y-94530952D01*
X170921309Y-97402380D02*
X170921309Y-98116666D01*
X170873690Y-98259523D01*
X170778452Y-98354761D01*
X170635595Y-98402380D01*
X170540357Y-98402380D01*
X171730833Y-97878571D02*
X171397500Y-97878571D01*
X171397500Y-98402380D02*
X171397500Y-97402380D01*
X171873690Y-97402380D01*
X172254642Y-97878571D02*
X172587976Y-97878571D01*
X172730833Y-98402380D02*
X172254642Y-98402380D01*
X172254642Y-97402380D01*
X172730833Y-97402380D01*
X173016547Y-97402380D02*
X173587976Y-97402380D01*
X173302261Y-98402380D02*
X173302261Y-97402380D01*
X174635595Y-97354761D02*
X173778452Y-98640476D01*
X175302261Y-97878571D02*
X175445119Y-97926190D01*
X175492738Y-97973809D01*
X175540357Y-98069047D01*
X175540357Y-98211904D01*
X175492738Y-98307142D01*
X175445119Y-98354761D01*
X175349880Y-98402380D01*
X174968928Y-98402380D01*
X174968928Y-97402380D01*
X175302261Y-97402380D01*
X175397500Y-97450000D01*
X175445119Y-97497619D01*
X175492738Y-97592857D01*
X175492738Y-97688095D01*
X175445119Y-97783333D01*
X175397500Y-97830952D01*
X175302261Y-97878571D01*
X174968928Y-97878571D01*
X175968928Y-98402380D02*
X175968928Y-97735714D01*
X175968928Y-97402380D02*
X175921309Y-97450000D01*
X175968928Y-97497619D01*
X176016547Y-97450000D01*
X175968928Y-97402380D01*
X175968928Y-97497619D01*
X176873690Y-98402380D02*
X176873690Y-97878571D01*
X176826071Y-97783333D01*
X176730833Y-97735714D01*
X176540357Y-97735714D01*
X176445119Y-97783333D01*
X176873690Y-98354761D02*
X176778452Y-98402380D01*
X176540357Y-98402380D01*
X176445119Y-98354761D01*
X176397500Y-98259523D01*
X176397500Y-98164285D01*
X176445119Y-98069047D01*
X176540357Y-98021428D01*
X176778452Y-98021428D01*
X176873690Y-97973809D01*
X177302261Y-98354761D02*
X177397500Y-98402380D01*
X177587976Y-98402380D01*
X177683214Y-98354761D01*
X177730833Y-98259523D01*
X177730833Y-98211904D01*
X177683214Y-98116666D01*
X177587976Y-98069047D01*
X177445119Y-98069047D01*
X177349880Y-98021428D01*
X177302261Y-97926190D01*
X177302261Y-97878571D01*
X177349880Y-97783333D01*
X177445119Y-97735714D01*
X177587976Y-97735714D01*
X177683214Y-97783333D01*
X178159404Y-98021428D02*
X178921309Y-98021428D01*
X179254642Y-97402380D02*
X179826071Y-97402380D01*
X179540357Y-98402380D02*
X179540357Y-97402380D01*
X180921309Y-98402380D02*
X180921309Y-97735714D01*
X180921309Y-97402380D02*
X180873690Y-97450000D01*
X180921309Y-97497619D01*
X180968928Y-97450000D01*
X180921309Y-97402380D01*
X180921309Y-97497619D01*
X181397500Y-97735714D02*
X181397500Y-98402380D01*
X181397500Y-97830952D02*
X181445119Y-97783333D01*
X181540357Y-97735714D01*
X181683214Y-97735714D01*
X181778452Y-97783333D01*
X181826071Y-97878571D01*
X181826071Y-98402380D01*
X182207023Y-97735714D02*
X182445119Y-98402380D01*
X182683214Y-97735714D01*
X183445119Y-98354761D02*
X183349880Y-98402380D01*
X183159404Y-98402380D01*
X183064166Y-98354761D01*
X183016547Y-98259523D01*
X183016547Y-97878571D01*
X183064166Y-97783333D01*
X183159404Y-97735714D01*
X183349880Y-97735714D01*
X183445119Y-97783333D01*
X183492738Y-97878571D01*
X183492738Y-97973809D01*
X183016547Y-98069047D01*
X183921309Y-98402380D02*
X183921309Y-97735714D01*
X183921309Y-97926190D02*
X183968928Y-97830952D01*
X184016547Y-97783333D01*
X184111785Y-97735714D01*
X184207023Y-97735714D01*
X184397500Y-97735714D02*
X184778452Y-97735714D01*
X184540357Y-97402380D02*
X184540357Y-98259523D01*
X184587976Y-98354761D01*
X184683214Y-98402380D01*
X184778452Y-98402380D01*
X185111785Y-98402380D02*
X185111785Y-97735714D01*
X185111785Y-97402380D02*
X185064166Y-97450000D01*
X185111785Y-97497619D01*
X185159404Y-97450000D01*
X185111785Y-97402380D01*
X185111785Y-97497619D01*
X185587976Y-97735714D02*
X185587976Y-98402380D01*
X185587976Y-97830952D02*
X185635595Y-97783333D01*
X185730833Y-97735714D01*
X185873690Y-97735714D01*
X185968928Y-97783333D01*
X186016547Y-97878571D01*
X186016547Y-98402380D01*
X186921309Y-97735714D02*
X186921309Y-98545238D01*
X186873690Y-98640476D01*
X186826071Y-98688095D01*
X186730833Y-98735714D01*
X186587976Y-98735714D01*
X186492738Y-98688095D01*
X186921309Y-98354761D02*
X186826071Y-98402380D01*
X186635595Y-98402380D01*
X186540357Y-98354761D01*
X186492738Y-98307142D01*
X186445119Y-98211904D01*
X186445119Y-97926190D01*
X186492738Y-97830952D01*
X186540357Y-97783333D01*
X186635595Y-97735714D01*
X186826071Y-97735714D01*
X186921309Y-97783333D01*
X187397500Y-98307142D02*
X187445119Y-98354761D01*
X187397500Y-98402380D01*
X187349880Y-98354761D01*
X187397500Y-98307142D01*
X187397500Y-98402380D01*
X187397500Y-97783333D02*
X187445119Y-97830952D01*
X187397500Y-97878571D01*
X187349880Y-97830952D01*
X187397500Y-97783333D01*
X187397500Y-97878571D01*
X170921309Y-99052380D02*
X170921309Y-99766666D01*
X170873690Y-99909523D01*
X170778452Y-100004761D01*
X170635595Y-100052380D01*
X170540357Y-100052380D01*
X171397500Y-100052380D02*
X171397500Y-99052380D01*
X171778452Y-99052380D01*
X171873690Y-99100000D01*
X171921309Y-99147619D01*
X171968928Y-99242857D01*
X171968928Y-99385714D01*
X171921309Y-99480952D01*
X171873690Y-99528571D01*
X171778452Y-99576190D01*
X171397500Y-99576190D01*
X172921309Y-100052380D02*
X172349880Y-100052380D01*
X172635595Y-100052380D02*
X172635595Y-99052380D01*
X172540357Y-99195238D01*
X172445119Y-99290476D01*
X172349880Y-99338095D01*
X173349880Y-99957142D02*
X173397500Y-100004761D01*
X173349880Y-100052380D01*
X173302261Y-100004761D01*
X173349880Y-99957142D01*
X173349880Y-100052380D01*
X173349880Y-99433333D02*
X173397500Y-99480952D01*
X173349880Y-99528571D01*
X173302261Y-99480952D01*
X173349880Y-99433333D01*
X173349880Y-99528571D01*
X174254642Y-100004761D02*
X174159404Y-100052380D01*
X173968928Y-100052380D01*
X173873690Y-100004761D01*
X173826071Y-99957142D01*
X173778452Y-99861904D01*
X173778452Y-99576190D01*
X173826071Y-99480952D01*
X173873690Y-99433333D01*
X173968928Y-99385714D01*
X174159404Y-99385714D01*
X174254642Y-99433333D01*
X174826071Y-100052380D02*
X174730833Y-100004761D01*
X174683214Y-99909523D01*
X174683214Y-99052380D01*
X175349880Y-100052380D02*
X175254642Y-100004761D01*
X175207023Y-99957142D01*
X175159404Y-99861904D01*
X175159404Y-99576190D01*
X175207023Y-99480952D01*
X175254642Y-99433333D01*
X175349880Y-99385714D01*
X175492738Y-99385714D01*
X175587976Y-99433333D01*
X175635595Y-99480952D01*
X175683214Y-99576190D01*
X175683214Y-99861904D01*
X175635595Y-99957142D01*
X175587976Y-100004761D01*
X175492738Y-100052380D01*
X175349880Y-100052380D01*
X176064166Y-100004761D02*
X176159404Y-100052380D01*
X176349880Y-100052380D01*
X176445119Y-100004761D01*
X176492738Y-99909523D01*
X176492738Y-99861904D01*
X176445119Y-99766666D01*
X176349880Y-99719047D01*
X176207023Y-99719047D01*
X176111785Y-99671428D01*
X176064166Y-99576190D01*
X176064166Y-99528571D01*
X176111785Y-99433333D01*
X176207023Y-99385714D01*
X176349880Y-99385714D01*
X176445119Y-99433333D01*
X177302261Y-100004761D02*
X177207023Y-100052380D01*
X177016547Y-100052380D01*
X176921309Y-100004761D01*
X176873690Y-99909523D01*
X176873690Y-99528571D01*
X176921309Y-99433333D01*
X177016547Y-99385714D01*
X177207023Y-99385714D01*
X177302261Y-99433333D01*
X177349880Y-99528571D01*
X177349880Y-99623809D01*
X176873690Y-99719047D01*
X178207023Y-100052380D02*
X178207023Y-99052380D01*
X178207023Y-100004761D02*
X178111785Y-100052380D01*
X177921309Y-100052380D01*
X177826071Y-100004761D01*
X177778452Y-99957142D01*
X177730833Y-99861904D01*
X177730833Y-99576190D01*
X177778452Y-99480952D01*
X177826071Y-99433333D01*
X177921309Y-99385714D01*
X178111785Y-99385714D01*
X178207023Y-99433333D01*
X178730833Y-100004761D02*
X178730833Y-100052380D01*
X178683214Y-100147619D01*
X178635595Y-100195238D01*
X180207023Y-99052380D02*
X180207023Y-99766666D01*
X180159404Y-99909523D01*
X180064166Y-100004761D01*
X179921309Y-100052380D01*
X179826071Y-100052380D01*
X180683214Y-100052380D02*
X180683214Y-99052380D01*
X181064166Y-99052380D01*
X181159404Y-99100000D01*
X181207023Y-99147619D01*
X181254642Y-99242857D01*
X181254642Y-99385714D01*
X181207023Y-99480952D01*
X181159404Y-99528571D01*
X181064166Y-99576190D01*
X180683214Y-99576190D01*
X181635595Y-99147619D02*
X181683214Y-99100000D01*
X181778452Y-99052380D01*
X182016547Y-99052380D01*
X182111785Y-99100000D01*
X182159404Y-99147619D01*
X182207023Y-99242857D01*
X182207023Y-99338095D01*
X182159404Y-99480952D01*
X181587976Y-100052380D01*
X182207023Y-100052380D01*
X182635595Y-99957142D02*
X182683214Y-100004761D01*
X182635595Y-100052380D01*
X182587976Y-100004761D01*
X182635595Y-99957142D01*
X182635595Y-100052380D01*
X182635595Y-99433333D02*
X182683214Y-99480952D01*
X182635595Y-99528571D01*
X182587976Y-99480952D01*
X182635595Y-99433333D01*
X182635595Y-99528571D01*
X183254642Y-100052380D02*
X183159404Y-100004761D01*
X183111785Y-99957142D01*
X183064166Y-99861904D01*
X183064166Y-99576190D01*
X183111785Y-99480952D01*
X183159404Y-99433333D01*
X183254642Y-99385714D01*
X183397500Y-99385714D01*
X183492738Y-99433333D01*
X183540357Y-99480952D01*
X183587976Y-99576190D01*
X183587976Y-99861904D01*
X183540357Y-99957142D01*
X183492738Y-100004761D01*
X183397500Y-100052380D01*
X183254642Y-100052380D01*
X184016547Y-99385714D02*
X184016547Y-100385714D01*
X184016547Y-99433333D02*
X184111785Y-99385714D01*
X184302261Y-99385714D01*
X184397500Y-99433333D01*
X184445119Y-99480952D01*
X184492738Y-99576190D01*
X184492738Y-99861904D01*
X184445119Y-99957142D01*
X184397500Y-100004761D01*
X184302261Y-100052380D01*
X184111785Y-100052380D01*
X184016547Y-100004761D01*
X185302261Y-100004761D02*
X185207023Y-100052380D01*
X185016547Y-100052380D01*
X184921309Y-100004761D01*
X184873690Y-99909523D01*
X184873690Y-99528571D01*
X184921309Y-99433333D01*
X185016547Y-99385714D01*
X185207023Y-99385714D01*
X185302261Y-99433333D01*
X185349880Y-99528571D01*
X185349880Y-99623809D01*
X184873690Y-99719047D01*
X185778452Y-99385714D02*
X185778452Y-100052380D01*
X185778452Y-99480952D02*
X185826071Y-99433333D01*
X185921309Y-99385714D01*
X186064166Y-99385714D01*
X186159404Y-99433333D01*
X186207023Y-99528571D01*
X186207023Y-100052380D01*
X186730833Y-100004761D02*
X186730833Y-100052380D01*
X186683214Y-100147619D01*
X186635595Y-100195238D01*
X188492738Y-100052380D02*
X188159404Y-99576190D01*
X187921309Y-100052380D02*
X187921309Y-99052380D01*
X188302261Y-99052380D01*
X188397500Y-99100000D01*
X188445119Y-99147619D01*
X188492738Y-99242857D01*
X188492738Y-99385714D01*
X188445119Y-99480952D01*
X188397500Y-99528571D01*
X188302261Y-99576190D01*
X187921309Y-99576190D01*
X189445119Y-100052380D02*
X188873690Y-100052380D01*
X189159404Y-100052380D02*
X189159404Y-99052380D01*
X189064166Y-99195238D01*
X188968928Y-99290476D01*
X188873690Y-99338095D01*
X189778452Y-99052380D02*
X190445119Y-99052380D01*
X190016547Y-100052380D01*
X190826071Y-99957142D02*
X190873690Y-100004761D01*
X190826071Y-100052380D01*
X190778452Y-100004761D01*
X190826071Y-99957142D01*
X190826071Y-100052380D01*
X190826071Y-99433333D02*
X190873690Y-99480952D01*
X190826071Y-99528571D01*
X190778452Y-99480952D01*
X190826071Y-99433333D01*
X190826071Y-99528571D01*
X191302261Y-100052380D02*
X191302261Y-99052380D01*
X191540357Y-99052380D01*
X191683214Y-99100000D01*
X191778452Y-99195238D01*
X191826071Y-99290476D01*
X191873690Y-99480952D01*
X191873690Y-99623809D01*
X191826071Y-99814285D01*
X191778452Y-99909523D01*
X191683214Y-100004761D01*
X191540357Y-100052380D01*
X191302261Y-100052380D01*
X192302261Y-100052380D02*
X192302261Y-99052380D01*
X192873690Y-100052380D01*
X192873690Y-99052380D01*
X193683214Y-99528571D02*
X193349880Y-99528571D01*
X193349880Y-100052380D02*
X193349880Y-99052380D01*
X193826071Y-99052380D01*
D12*
X153068095Y-54552380D02*
X153068095Y-53552380D01*
X153449047Y-53552380D01*
X153544285Y-53600000D01*
X153591904Y-53647619D01*
X153639523Y-53742857D01*
X153639523Y-53885714D01*
X153591904Y-53980952D01*
X153544285Y-54028571D01*
X153449047Y-54076190D01*
X153068095Y-54076190D01*
X154068095Y-54552380D02*
X154068095Y-53552380D01*
X154496666Y-54552380D02*
X154496666Y-54028571D01*
X154449047Y-53933333D01*
X154353809Y-53885714D01*
X154210952Y-53885714D01*
X154115714Y-53933333D01*
X154068095Y-53980952D01*
X155401428Y-54552380D02*
X155401428Y-54028571D01*
X155353809Y-53933333D01*
X155258571Y-53885714D01*
X155068095Y-53885714D01*
X154972857Y-53933333D01*
X155401428Y-54504761D02*
X155306190Y-54552380D01*
X155068095Y-54552380D01*
X154972857Y-54504761D01*
X154925238Y-54409523D01*
X154925238Y-54314285D01*
X154972857Y-54219047D01*
X155068095Y-54171428D01*
X155306190Y-54171428D01*
X155401428Y-54123809D01*
X155830000Y-54504761D02*
X155925238Y-54552380D01*
X156115714Y-54552380D01*
X156210952Y-54504761D01*
X156258571Y-54409523D01*
X156258571Y-54361904D01*
X156210952Y-54266666D01*
X156115714Y-54219047D01*
X155972857Y-54219047D01*
X155877619Y-54171428D01*
X155830000Y-54076190D01*
X155830000Y-54028571D01*
X155877619Y-53933333D01*
X155972857Y-53885714D01*
X156115714Y-53885714D01*
X156210952Y-53933333D01*
X157068095Y-54504761D02*
X156972857Y-54552380D01*
X156782380Y-54552380D01*
X156687142Y-54504761D01*
X156639523Y-54409523D01*
X156639523Y-54028571D01*
X156687142Y-53933333D01*
X156782380Y-53885714D01*
X156972857Y-53885714D01*
X157068095Y-53933333D01*
X157115714Y-54028571D01*
X157115714Y-54123809D01*
X156639523Y-54219047D01*
X157544285Y-54171428D02*
X158306190Y-54171428D01*
X159115714Y-54028571D02*
X158782380Y-54028571D01*
X158782380Y-54552380D02*
X158782380Y-53552380D01*
X159258571Y-53552380D01*
X159639523Y-54552380D02*
X159639523Y-53885714D01*
X159639523Y-54076190D02*
X159687142Y-53980952D01*
X159734761Y-53933333D01*
X159830000Y-53885714D01*
X159925238Y-53885714D01*
X160639523Y-54504761D02*
X160544285Y-54552380D01*
X160353809Y-54552380D01*
X160258571Y-54504761D01*
X160210952Y-54409523D01*
X160210952Y-54028571D01*
X160258571Y-53933333D01*
X160353809Y-53885714D01*
X160544285Y-53885714D01*
X160639523Y-53933333D01*
X160687142Y-54028571D01*
X160687142Y-54123809D01*
X160210952Y-54219047D01*
X161544285Y-53885714D02*
X161544285Y-54885714D01*
X161544285Y-54504761D02*
X161449047Y-54552380D01*
X161258571Y-54552380D01*
X161163333Y-54504761D01*
X161115714Y-54457142D01*
X161068095Y-54361904D01*
X161068095Y-54076190D01*
X161115714Y-53980952D01*
X161163333Y-53933333D01*
X161258571Y-53885714D01*
X161449047Y-53885714D01*
X161544285Y-53933333D01*
X162449047Y-53885714D02*
X162449047Y-54552380D01*
X162020476Y-53885714D02*
X162020476Y-54409523D01*
X162068095Y-54504761D01*
X162163333Y-54552380D01*
X162306190Y-54552380D01*
X162401428Y-54504761D01*
X162449047Y-54457142D01*
X163306190Y-54504761D02*
X163210952Y-54552380D01*
X163020476Y-54552380D01*
X162925238Y-54504761D01*
X162877619Y-54409523D01*
X162877619Y-54028571D01*
X162925238Y-53933333D01*
X163020476Y-53885714D01*
X163210952Y-53885714D01*
X163306190Y-53933333D01*
X163353809Y-54028571D01*
X163353809Y-54123809D01*
X162877619Y-54219047D01*
X163782380Y-53885714D02*
X163782380Y-54552380D01*
X163782380Y-53980952D02*
X163830000Y-53933333D01*
X163925238Y-53885714D01*
X164068095Y-53885714D01*
X164163333Y-53933333D01*
X164210952Y-54028571D01*
X164210952Y-54552380D01*
X165115714Y-54504761D02*
X165020476Y-54552380D01*
X164830000Y-54552380D01*
X164734761Y-54504761D01*
X164687142Y-54457142D01*
X164639523Y-54361904D01*
X164639523Y-54076190D01*
X164687142Y-53980952D01*
X164734761Y-53933333D01*
X164830000Y-53885714D01*
X165020476Y-53885714D01*
X165115714Y-53933333D01*
X165449047Y-53885714D02*
X165687142Y-54552380D01*
X165925238Y-53885714D02*
X165687142Y-54552380D01*
X165591904Y-54790476D01*
X165544285Y-54838095D01*
X165449047Y-54885714D01*
X167068095Y-54552380D02*
X167068095Y-53552380D01*
X167306190Y-53552380D01*
X167449047Y-53600000D01*
X167544285Y-53695238D01*
X167591904Y-53790476D01*
X167639523Y-53980952D01*
X167639523Y-54123809D01*
X167591904Y-54314285D01*
X167544285Y-54409523D01*
X167449047Y-54504761D01*
X167306190Y-54552380D01*
X167068095Y-54552380D01*
X168449047Y-54504761D02*
X168353809Y-54552380D01*
X168163333Y-54552380D01*
X168068095Y-54504761D01*
X168020476Y-54409523D01*
X168020476Y-54028571D01*
X168068095Y-53933333D01*
X168163333Y-53885714D01*
X168353809Y-53885714D01*
X168449047Y-53933333D01*
X168496666Y-54028571D01*
X168496666Y-54123809D01*
X168020476Y-54219047D01*
X168782380Y-53885714D02*
X169163333Y-53885714D01*
X168925238Y-53552380D02*
X168925238Y-54409523D01*
X168972857Y-54504761D01*
X169068095Y-54552380D01*
X169163333Y-54552380D01*
X169877619Y-54504761D02*
X169782380Y-54552380D01*
X169591904Y-54552380D01*
X169496666Y-54504761D01*
X169449047Y-54409523D01*
X169449047Y-54028571D01*
X169496666Y-53933333D01*
X169591904Y-53885714D01*
X169782380Y-53885714D01*
X169877619Y-53933333D01*
X169925238Y-54028571D01*
X169925238Y-54123809D01*
X169449047Y-54219047D01*
X170782380Y-54504761D02*
X170687142Y-54552380D01*
X170496666Y-54552380D01*
X170401428Y-54504761D01*
X170353809Y-54457142D01*
X170306190Y-54361904D01*
X170306190Y-54076190D01*
X170353809Y-53980952D01*
X170401428Y-53933333D01*
X170496666Y-53885714D01*
X170687142Y-53885714D01*
X170782380Y-53933333D01*
X171068095Y-53885714D02*
X171449047Y-53885714D01*
X171210952Y-53552380D02*
X171210952Y-54409523D01*
X171258571Y-54504761D01*
X171353809Y-54552380D01*
X171449047Y-54552380D01*
X171925238Y-54552380D02*
X171830000Y-54504761D01*
X171782380Y-54457142D01*
X171734761Y-54361904D01*
X171734761Y-54076190D01*
X171782380Y-53980952D01*
X171830000Y-53933333D01*
X171925238Y-53885714D01*
X172068095Y-53885714D01*
X172163333Y-53933333D01*
X172210952Y-53980952D01*
X172258571Y-54076190D01*
X172258571Y-54361904D01*
X172210952Y-54457142D01*
X172163333Y-54504761D01*
X172068095Y-54552380D01*
X171925238Y-54552380D01*
X172687142Y-54552380D02*
X172687142Y-53885714D01*
X172687142Y-54076190D02*
X172734761Y-53980952D01*
X172782380Y-53933333D01*
X172877619Y-53885714D01*
X172972857Y-53885714D01*
X153258571Y-55252380D02*
X153353809Y-55252380D01*
X153449047Y-55300000D01*
X153496666Y-55347619D01*
X153544285Y-55442857D01*
X153591904Y-55633333D01*
X153591904Y-55871428D01*
X153544285Y-56061904D01*
X153496666Y-56157142D01*
X153449047Y-56204761D01*
X153353809Y-56252380D01*
X153258571Y-56252380D01*
X153163333Y-56204761D01*
X153115714Y-56157142D01*
X153068095Y-56061904D01*
X153020476Y-55871428D01*
X153020476Y-55633333D01*
X153068095Y-55442857D01*
X153115714Y-55347619D01*
X153163333Y-55300000D01*
X153258571Y-55252380D01*
X154163333Y-55680952D02*
X154068095Y-55633333D01*
X154020476Y-55585714D01*
X153972857Y-55490476D01*
X153972857Y-55442857D01*
X154020476Y-55347619D01*
X154068095Y-55300000D01*
X154163333Y-55252380D01*
X154353809Y-55252380D01*
X154449047Y-55300000D01*
X154496666Y-55347619D01*
X154544285Y-55442857D01*
X154544285Y-55490476D01*
X154496666Y-55585714D01*
X154449047Y-55633333D01*
X154353809Y-55680952D01*
X154163333Y-55680952D01*
X154068095Y-55728571D01*
X154020476Y-55776190D01*
X153972857Y-55871428D01*
X153972857Y-56061904D01*
X154020476Y-56157142D01*
X154068095Y-56204761D01*
X154163333Y-56252380D01*
X154353809Y-56252380D01*
X154449047Y-56204761D01*
X154496666Y-56157142D01*
X154544285Y-56061904D01*
X154544285Y-55871428D01*
X154496666Y-55776190D01*
X154449047Y-55728571D01*
X154353809Y-55680952D01*
X155687142Y-55204761D02*
X154830000Y-56490476D01*
X155972857Y-55347619D02*
X156020476Y-55300000D01*
X156115714Y-55252380D01*
X156353809Y-55252380D01*
X156449047Y-55300000D01*
X156496666Y-55347619D01*
X156544285Y-55442857D01*
X156544285Y-55538095D01*
X156496666Y-55680952D01*
X155925238Y-56252380D01*
X156544285Y-56252380D01*
X157163333Y-55252380D02*
X157258571Y-55252380D01*
X157353809Y-55300000D01*
X157401428Y-55347619D01*
X157449047Y-55442857D01*
X157496666Y-55633333D01*
X157496666Y-55871428D01*
X157449047Y-56061904D01*
X157401428Y-56157142D01*
X157353809Y-56204761D01*
X157258571Y-56252380D01*
X157163333Y-56252380D01*
X157068095Y-56204761D01*
X157020476Y-56157142D01*
X156972857Y-56061904D01*
X156925238Y-55871428D01*
X156925238Y-55633333D01*
X156972857Y-55442857D01*
X157020476Y-55347619D01*
X157068095Y-55300000D01*
X157163333Y-55252380D01*
X157877619Y-55347619D02*
X157925238Y-55300000D01*
X158020476Y-55252380D01*
X158258571Y-55252380D01*
X158353809Y-55300000D01*
X158401428Y-55347619D01*
X158449047Y-55442857D01*
X158449047Y-55538095D01*
X158401428Y-55680952D01*
X157830000Y-56252380D01*
X158449047Y-56252380D01*
X159401428Y-56252380D02*
X158830000Y-56252380D01*
X159115714Y-56252380D02*
X159115714Y-55252380D01*
X159020476Y-55395238D01*
X158925238Y-55490476D01*
X158830000Y-55538095D01*
X161163333Y-56252380D02*
X160830000Y-55776190D01*
X160591904Y-56252380D02*
X160591904Y-55252380D01*
X160972857Y-55252380D01*
X161068095Y-55300000D01*
X161115714Y-55347619D01*
X161163333Y-55442857D01*
X161163333Y-55585714D01*
X161115714Y-55680952D01*
X161068095Y-55728571D01*
X160972857Y-55776190D01*
X160591904Y-55776190D01*
X161972857Y-56204761D02*
X161877619Y-56252380D01*
X161687142Y-56252380D01*
X161591904Y-56204761D01*
X161544285Y-56109523D01*
X161544285Y-55728571D01*
X161591904Y-55633333D01*
X161687142Y-55585714D01*
X161877619Y-55585714D01*
X161972857Y-55633333D01*
X162020476Y-55728571D01*
X162020476Y-55823809D01*
X161544285Y-55919047D01*
X162353809Y-55585714D02*
X162591904Y-56252380D01*
X162830000Y-55585714D01*
X164496666Y-56252380D02*
X163925238Y-56252380D01*
X164210952Y-56252380D02*
X164210952Y-55252380D01*
X164115714Y-55395238D01*
X164020476Y-55490476D01*
X163925238Y-55538095D01*
X164925238Y-56157142D02*
X164972857Y-56204761D01*
X164925238Y-56252380D01*
X164877619Y-56204761D01*
X164925238Y-56157142D01*
X164925238Y-56252380D01*
X165306190Y-55252380D02*
X165925238Y-55252380D01*
X165591904Y-55633333D01*
X165734761Y-55633333D01*
X165830000Y-55680952D01*
X165877619Y-55728571D01*
X165925238Y-55823809D01*
X165925238Y-56061904D01*
X165877619Y-56157142D01*
X165830000Y-56204761D01*
X165734761Y-56252380D01*
X165449047Y-56252380D01*
X165353809Y-56204761D01*
X165306190Y-56157142D01*
X167401428Y-56633333D02*
X167353809Y-56585714D01*
X167258571Y-56442857D01*
X167210952Y-56347619D01*
X167163333Y-56204761D01*
X167115714Y-55966666D01*
X167115714Y-55776190D01*
X167163333Y-55538095D01*
X167210952Y-55395238D01*
X167258571Y-55300000D01*
X167353809Y-55157142D01*
X167401428Y-55109523D01*
X167782380Y-55585714D02*
X167782380Y-56252380D01*
X167782380Y-55680952D02*
X167830000Y-55633333D01*
X167925238Y-55585714D01*
X168068095Y-55585714D01*
X168163333Y-55633333D01*
X168210952Y-55728571D01*
X168210952Y-56252380D01*
X168830000Y-56252380D02*
X168734761Y-56204761D01*
X168687142Y-56157142D01*
X168639523Y-56061904D01*
X168639523Y-55776190D01*
X168687142Y-55680952D01*
X168734761Y-55633333D01*
X168830000Y-55585714D01*
X168972857Y-55585714D01*
X169068095Y-55633333D01*
X169115714Y-55680952D01*
X169163333Y-55776190D01*
X169163333Y-56061904D01*
X169115714Y-56157142D01*
X169068095Y-56204761D01*
X168972857Y-56252380D01*
X168830000Y-56252380D01*
X170782380Y-56252380D02*
X170782380Y-55252380D01*
X170782380Y-56204761D02*
X170687142Y-56252380D01*
X170496666Y-56252380D01*
X170401428Y-56204761D01*
X170353809Y-56157142D01*
X170306190Y-56061904D01*
X170306190Y-55776190D01*
X170353809Y-55680952D01*
X170401428Y-55633333D01*
X170496666Y-55585714D01*
X170687142Y-55585714D01*
X170782380Y-55633333D01*
X171258571Y-56252380D02*
X171258571Y-55585714D01*
X171258571Y-55252380D02*
X171210952Y-55300000D01*
X171258571Y-55347619D01*
X171306190Y-55300000D01*
X171258571Y-55252380D01*
X171258571Y-55347619D01*
X171639523Y-55585714D02*
X171877619Y-56252380D01*
X172115714Y-55585714D01*
X172496666Y-56252380D02*
X172496666Y-55585714D01*
X172496666Y-55252380D02*
X172449047Y-55300000D01*
X172496666Y-55347619D01*
X172544285Y-55300000D01*
X172496666Y-55252380D01*
X172496666Y-55347619D01*
X173401428Y-56252380D02*
X173401428Y-55252380D01*
X173401428Y-56204761D02*
X173306190Y-56252380D01*
X173115714Y-56252380D01*
X173020476Y-56204761D01*
X172972857Y-56157142D01*
X172925238Y-56061904D01*
X172925238Y-55776190D01*
X172972857Y-55680952D01*
X173020476Y-55633333D01*
X173115714Y-55585714D01*
X173306190Y-55585714D01*
X173401428Y-55633333D01*
X174258571Y-56204761D02*
X174163333Y-56252380D01*
X173972857Y-56252380D01*
X173877619Y-56204761D01*
X173830000Y-56109523D01*
X173830000Y-55728571D01*
X173877619Y-55633333D01*
X173972857Y-55585714D01*
X174163333Y-55585714D01*
X174258571Y-55633333D01*
X174306190Y-55728571D01*
X174306190Y-55823809D01*
X173830000Y-55919047D01*
X174734761Y-56252380D02*
X174734761Y-55585714D01*
X174734761Y-55776190D02*
X174782380Y-55680952D01*
X174830000Y-55633333D01*
X174925238Y-55585714D01*
X175020476Y-55585714D01*
X175258571Y-56633333D02*
X175306190Y-56585714D01*
X175401428Y-56442857D01*
X175449047Y-56347619D01*
X175496666Y-56204761D01*
X175544285Y-55966666D01*
X175544285Y-55776190D01*
X175496666Y-55538095D01*
X175449047Y-55395238D01*
X175401428Y-55300000D01*
X175306190Y-55157142D01*
X175258571Y-55109523D01*
X153068095Y-57952380D02*
X153068095Y-56952380D01*
X153306190Y-56952380D01*
X153449047Y-57000000D01*
X153544285Y-57095238D01*
X153591904Y-57190476D01*
X153639523Y-57380952D01*
X153639523Y-57523809D01*
X153591904Y-57714285D01*
X153544285Y-57809523D01*
X153449047Y-57904761D01*
X153306190Y-57952380D01*
X153068095Y-57952380D01*
X154449047Y-57904761D02*
X154353809Y-57952380D01*
X154163333Y-57952380D01*
X154068095Y-57904761D01*
X154020476Y-57809523D01*
X154020476Y-57428571D01*
X154068095Y-57333333D01*
X154163333Y-57285714D01*
X154353809Y-57285714D01*
X154449047Y-57333333D01*
X154496666Y-57428571D01*
X154496666Y-57523809D01*
X154020476Y-57619047D01*
X154877619Y-57904761D02*
X154972857Y-57952380D01*
X155163333Y-57952380D01*
X155258571Y-57904761D01*
X155306190Y-57809523D01*
X155306190Y-57761904D01*
X155258571Y-57666666D01*
X155163333Y-57619047D01*
X155020476Y-57619047D01*
X154925238Y-57571428D01*
X154877619Y-57476190D01*
X154877619Y-57428571D01*
X154925238Y-57333333D01*
X155020476Y-57285714D01*
X155163333Y-57285714D01*
X155258571Y-57333333D01*
X155734761Y-57952380D02*
X155734761Y-57285714D01*
X155734761Y-56952380D02*
X155687142Y-57000000D01*
X155734761Y-57047619D01*
X155782380Y-57000000D01*
X155734761Y-56952380D01*
X155734761Y-57047619D01*
X156639523Y-57285714D02*
X156639523Y-58095238D01*
X156591904Y-58190476D01*
X156544285Y-58238095D01*
X156449047Y-58285714D01*
X156306190Y-58285714D01*
X156210952Y-58238095D01*
X156639523Y-57904761D02*
X156544285Y-57952380D01*
X156353809Y-57952380D01*
X156258571Y-57904761D01*
X156210952Y-57857142D01*
X156163333Y-57761904D01*
X156163333Y-57476190D01*
X156210952Y-57380952D01*
X156258571Y-57333333D01*
X156353809Y-57285714D01*
X156544285Y-57285714D01*
X156639523Y-57333333D01*
X157115714Y-57285714D02*
X157115714Y-57952380D01*
X157115714Y-57380952D02*
X157163333Y-57333333D01*
X157258571Y-57285714D01*
X157401428Y-57285714D01*
X157496666Y-57333333D01*
X157544285Y-57428571D01*
X157544285Y-57952380D01*
X158020476Y-57857142D02*
X158068095Y-57904761D01*
X158020476Y-57952380D01*
X157972857Y-57904761D01*
X158020476Y-57857142D01*
X158020476Y-57952380D01*
X158020476Y-57333333D02*
X158068095Y-57380952D01*
X158020476Y-57428571D01*
X157972857Y-57380952D01*
X158020476Y-57333333D01*
X158020476Y-57428571D01*
X159115714Y-56952380D02*
X159687142Y-56952380D01*
X159401428Y-57952380D02*
X159401428Y-56952380D01*
X160020476Y-57952380D02*
X160020476Y-57285714D01*
X160020476Y-56952380D02*
X159972857Y-57000000D01*
X160020476Y-57047619D01*
X160068095Y-57000000D01*
X160020476Y-56952380D01*
X160020476Y-57047619D01*
X160639523Y-57952380D02*
X160544285Y-57904761D01*
X160496666Y-57809523D01*
X160496666Y-56952380D01*
X161020476Y-57952380D02*
X161020476Y-57285714D01*
X161020476Y-57380952D02*
X161068095Y-57333333D01*
X161163333Y-57285714D01*
X161306190Y-57285714D01*
X161401428Y-57333333D01*
X161449047Y-57428571D01*
X161449047Y-57952380D01*
X161449047Y-57428571D02*
X161496666Y-57333333D01*
X161591904Y-57285714D01*
X161734761Y-57285714D01*
X161830000Y-57333333D01*
X161877619Y-57428571D01*
X161877619Y-57952380D01*
X162782380Y-57952380D02*
X162782380Y-57428571D01*
X162734761Y-57333333D01*
X162639523Y-57285714D01*
X162449047Y-57285714D01*
X162353809Y-57333333D01*
X162782380Y-57904761D02*
X162687142Y-57952380D01*
X162449047Y-57952380D01*
X162353809Y-57904761D01*
X162306190Y-57809523D01*
X162306190Y-57714285D01*
X162353809Y-57619047D01*
X162449047Y-57571428D01*
X162687142Y-57571428D01*
X162782380Y-57523809D01*
X163258571Y-57285714D02*
X163258571Y-57952380D01*
X163258571Y-57380952D02*
X163306190Y-57333333D01*
X163401428Y-57285714D01*
X163544285Y-57285714D01*
X163639523Y-57333333D01*
X163687142Y-57428571D01*
X163687142Y-57952380D01*
X164925238Y-57952380D02*
X164925238Y-56952380D01*
X165306190Y-56952380D01*
X165401428Y-57000000D01*
X165449047Y-57047619D01*
X165496666Y-57142857D01*
X165496666Y-57285714D01*
X165449047Y-57380952D01*
X165401428Y-57428571D01*
X165306190Y-57476190D01*
X164925238Y-57476190D01*
X165925238Y-57952380D02*
X165925238Y-57285714D01*
X165925238Y-57476190D02*
X165972857Y-57380952D01*
X166020476Y-57333333D01*
X166115714Y-57285714D01*
X166210952Y-57285714D01*
X166925238Y-57904761D02*
X166830000Y-57952380D01*
X166639523Y-57952380D01*
X166544285Y-57904761D01*
X166496666Y-57809523D01*
X166496666Y-57428571D01*
X166544285Y-57333333D01*
X166639523Y-57285714D01*
X166830000Y-57285714D01*
X166925238Y-57333333D01*
X166972857Y-57428571D01*
X166972857Y-57523809D01*
X166496666Y-57619047D01*
X167830000Y-57285714D02*
X167830000Y-57952380D01*
X167401428Y-57285714D02*
X167401428Y-57809523D01*
X167449047Y-57904761D01*
X167544285Y-57952380D01*
X167687142Y-57952380D01*
X167782380Y-57904761D01*
X167830000Y-57857142D01*
X168258571Y-57904761D02*
X168353809Y-57952380D01*
X168544285Y-57952380D01*
X168639523Y-57904761D01*
X168687142Y-57809523D01*
X168687142Y-57761904D01*
X168639523Y-57666666D01*
X168544285Y-57619047D01*
X168401428Y-57619047D01*
X168306190Y-57571428D01*
X168258571Y-57476190D01*
X168258571Y-57428571D01*
X168306190Y-57333333D01*
X168401428Y-57285714D01*
X168544285Y-57285714D01*
X168639523Y-57333333D01*
X169544285Y-57904761D02*
X169449047Y-57952380D01*
X169258571Y-57952380D01*
X169163333Y-57904761D01*
X169115714Y-57857142D01*
X169068095Y-57761904D01*
X169068095Y-57476190D01*
X169115714Y-57380952D01*
X169163333Y-57333333D01*
X169258571Y-57285714D01*
X169449047Y-57285714D01*
X169544285Y-57333333D01*
X169972857Y-57952380D02*
X169972857Y-56952380D01*
X170401428Y-57952380D02*
X170401428Y-57428571D01*
X170353809Y-57333333D01*
X170258571Y-57285714D01*
X170115714Y-57285714D01*
X170020476Y-57333333D01*
X169972857Y-57380952D01*
X171020476Y-57952380D02*
X170925238Y-57904761D01*
X170877619Y-57857142D01*
X170830000Y-57761904D01*
X170830000Y-57476190D01*
X170877619Y-57380952D01*
X170925238Y-57333333D01*
X171020476Y-57285714D01*
X171163333Y-57285714D01*
X171258571Y-57333333D01*
X171306190Y-57380952D01*
X171353809Y-57476190D01*
X171353809Y-57761904D01*
X171306190Y-57857142D01*
X171258571Y-57904761D01*
X171163333Y-57952380D01*
X171020476Y-57952380D01*
X171639523Y-57285714D02*
X172020476Y-57285714D01*
X171782380Y-57952380D02*
X171782380Y-57095238D01*
X171830000Y-57000000D01*
X171925238Y-56952380D01*
X172020476Y-56952380D01*
X172210952Y-57285714D02*
X172591904Y-57285714D01*
X172353809Y-57952380D02*
X172353809Y-57095238D01*
X172401428Y-57000000D01*
X172496666Y-56952380D01*
X172591904Y-56952380D01*
D13*
X103260000Y-99497936D02*
X103260000Y-100702064D01*
X100540000Y-99497936D02*
X100540000Y-100702064D01*
X100540000Y-106002064D02*
X100540000Y-104797936D01*
X103260000Y-106002064D02*
X103260000Y-104797936D01*
X196937221Y-73610000D02*
X197262779Y-73610000D01*
X196937221Y-72590000D02*
X197262779Y-72590000D01*
X195590000Y-68662779D02*
X195590000Y-68337221D01*
X196610000Y-68662779D02*
X196610000Y-68337221D01*
X113190000Y-100502064D02*
X113190000Y-99297936D01*
X115010000Y-100502064D02*
X115010000Y-99297936D01*
X105502064Y-108590000D02*
X104297936Y-108590000D01*
X105502064Y-110410000D02*
X104297936Y-110410000D01*
X194810000Y-77237221D02*
X194810000Y-77562779D01*
X193790000Y-77237221D02*
X193790000Y-77562779D01*
X182010000Y-65862779D02*
X182010000Y-65537221D01*
X180990000Y-65862779D02*
X180990000Y-65537221D01*
X107602064Y-94340000D02*
X106397936Y-94340000D01*
X107602064Y-97060000D02*
X106397936Y-97060000D01*
X112240000Y-105397936D02*
X112240000Y-106602064D01*
X114960000Y-105397936D02*
X114960000Y-106602064D01*
X179210000Y-78012779D02*
X179210000Y-77687221D01*
X178190000Y-78012779D02*
X178190000Y-77687221D01*
X178240000Y-67912779D02*
X178240000Y-67587221D01*
X179260000Y-67912779D02*
X179260000Y-67587221D01*
X163360000Y-68512779D02*
X163360000Y-68187221D01*
X162340000Y-68512779D02*
X162340000Y-68187221D01*
X161610000Y-71687221D02*
X161610000Y-72012779D01*
X160590000Y-71687221D02*
X160590000Y-72012779D01*
X164762779Y-77110000D02*
X164437221Y-77110000D01*
X164762779Y-76090000D02*
X164437221Y-76090000D01*
X170360000Y-70012779D02*
X170360000Y-69687221D01*
X169340000Y-70012779D02*
X169340000Y-69687221D01*
X183840000Y-79337221D02*
X183840000Y-79662779D01*
X184860000Y-79337221D02*
X184860000Y-79662779D01*
X173340000Y-73687221D02*
X173340000Y-74012779D01*
X174360000Y-73687221D02*
X174360000Y-74012779D01*
X206660000Y-107812779D02*
X206660000Y-107487221D01*
X205640000Y-107812779D02*
X205640000Y-107487221D01*
X199660000Y-113487221D02*
X199660000Y-113812779D01*
X198640000Y-113487221D02*
X198640000Y-113812779D01*
X194140000Y-109812779D02*
X194140000Y-109487221D01*
X195160000Y-109812779D02*
X195160000Y-109487221D01*
X211910000Y-112537221D02*
X211910000Y-112862779D01*
X210890000Y-112537221D02*
X210890000Y-112862779D01*
X221245000Y-78550000D02*
X221245000Y-81450000D01*
X227955000Y-78550000D02*
X227955000Y-81450000D01*
X223150000Y-83355000D02*
X226050000Y-83355000D01*
X223150000Y-76645000D02*
X226050000Y-76645000D01*
X223150000Y-61545000D02*
X226050000Y-61545000D01*
X223150000Y-68255000D02*
X226050000Y-68255000D01*
X227955000Y-63450000D02*
X227955000Y-66350000D01*
X221245000Y-63450000D02*
X221245000Y-66350000D01*
X201800000Y-104400000D02*
X201200000Y-104400000D01*
X202500000Y-102300000D02*
X202500000Y-103700000D01*
X201200000Y-101600000D02*
X201800000Y-101600000D01*
X200500000Y-103700000D02*
X200500000Y-102300000D01*
X200500000Y-102300000D02*
G75*
G02*
X201200000Y-101600000I700000J0D01*
G01*
X201800000Y-101600000D02*
G75*
G02*
X202500000Y-102300000I0J-700000D01*
G01*
X202500000Y-103700000D02*
G75*
G02*
X201800000Y-104400000I-700000J0D01*
G01*
X201200000Y-104400000D02*
G75*
G02*
X200500000Y-103700000I0J700000D01*
G01*
D14*
X134704000Y-57500000D02*
G75*
G03*
X134704000Y-57500000I-254000J0D01*
G01*
X136704000Y-57500000D02*
G75*
G03*
X136704000Y-57500000I-254000J0D01*
G01*
X138704000Y-57500000D02*
G75*
G03*
X138704000Y-57500000I-254000J0D01*
G01*
X138704000Y-55500000D02*
G75*
G03*
X138704000Y-55500000I-254000J0D01*
G01*
X136704000Y-55500000D02*
G75*
G03*
X136704000Y-55500000I-254000J0D01*
G01*
X134704000Y-55500000D02*
G75*
G03*
X134704000Y-55500000I-254000J0D01*
G01*
X136704000Y-53500000D02*
G75*
G03*
X136704000Y-53500000I-254000J0D01*
G01*
X134704000Y-53500000D02*
G75*
G03*
X134704000Y-53500000I-254000J0D01*
G01*
X138704000Y-53500000D02*
G75*
G03*
X138704000Y-53500000I-254000J0D01*
G01*
D13*
X111390000Y-100862779D02*
X111390000Y-100537221D01*
X112410000Y-100862779D02*
X112410000Y-100537221D01*
X108587221Y-109290000D02*
X108912779Y-109290000D01*
X108587221Y-110310000D02*
X108912779Y-110310000D01*
X186340000Y-67187221D02*
X186340000Y-67512779D01*
X187360000Y-67187221D02*
X187360000Y-67512779D01*
X183840000Y-76412779D02*
X183840000Y-76087221D01*
X184860000Y-76412779D02*
X184860000Y-76087221D01*
X180990000Y-69287221D02*
X180990000Y-69612779D01*
X182010000Y-69287221D02*
X182010000Y-69612779D01*
X186690000Y-77762779D02*
X186690000Y-77437221D01*
X187710000Y-77762779D02*
X187710000Y-77437221D01*
X182037221Y-73660000D02*
X182362779Y-73660000D01*
X182037221Y-72640000D02*
X182362779Y-72640000D01*
X177837221Y-76010000D02*
X178162779Y-76010000D01*
X177837221Y-74990000D02*
X178162779Y-74990000D01*
X177887221Y-69690000D02*
X178212779Y-69690000D01*
X177887221Y-70710000D02*
X178212779Y-70710000D01*
X174360000Y-69512779D02*
X174360000Y-69187221D01*
X173340000Y-69512779D02*
X173340000Y-69187221D01*
X172610000Y-73687221D02*
X172610000Y-74012779D01*
X171590000Y-73687221D02*
X171590000Y-74012779D01*
X166687221Y-69610000D02*
X167012779Y-69610000D01*
X166687221Y-68590000D02*
X167012779Y-68590000D01*
X162340000Y-71687221D02*
X162340000Y-72012779D01*
X163360000Y-71687221D02*
X163360000Y-72012779D01*
X158590000Y-72012779D02*
X158590000Y-71687221D01*
X159610000Y-72012779D02*
X159610000Y-71687221D01*
X212102064Y-136360000D02*
X210897936Y-136360000D01*
X212102064Y-133640000D02*
X210897936Y-133640000D01*
X208237221Y-92690000D02*
X208562779Y-92690000D01*
X208237221Y-93710000D02*
X208562779Y-93710000D01*
X203562779Y-112640000D02*
X203237221Y-112640000D01*
X203562779Y-113660000D02*
X203237221Y-113660000D01*
X196390000Y-109487221D02*
X196390000Y-109812779D01*
X197410000Y-109487221D02*
X197410000Y-109812779D01*
X209240000Y-107897936D02*
X209240000Y-109102064D01*
X211960000Y-107897936D02*
X211960000Y-109102064D01*
X230020000Y-96990000D02*
X210780000Y-96990000D01*
X230020000Y-91950000D02*
X210780000Y-91950000D01*
X230020000Y-96990000D02*
X230020000Y-91950000D01*
X210780000Y-96990000D02*
X210780000Y-91950000D01*
X231540000Y-95770000D02*
X230021000Y-95770000D01*
X231540000Y-93170000D02*
X230021000Y-93170000D01*
X231540000Y-95770000D02*
X231540000Y-93170000D01*
X230021000Y-95770000D02*
X230021000Y-93170000D01*
X231540000Y-94470000D02*
X230781000Y-94470000D01*
X107005000Y-102035000D02*
X108505000Y-102035000D01*
X107005000Y-102035000D02*
X105505000Y-102035000D01*
X107005000Y-97815000D02*
X108505000Y-97815000D01*
X107005000Y-97815000D02*
X104130000Y-97815000D01*
X107095000Y-103715000D02*
X104220000Y-103715000D01*
X107095000Y-103715000D02*
X108595000Y-103715000D01*
X107095000Y-107935000D02*
X105595000Y-107935000D01*
X107095000Y-107935000D02*
X108595000Y-107935000D01*
D11*
X193454300Y-70142500D02*
X189745700Y-70142500D01*
X195125000Y-75542500D02*
X189741400Y-75542500D01*
D13*
X167600000Y-75210000D02*
X169100000Y-75210000D01*
X167600000Y-75210000D02*
X166100000Y-75210000D01*
X167600000Y-71990000D02*
X169100000Y-71990000D01*
X167600000Y-71990000D02*
X164675000Y-71990000D01*
X201650000Y-111510000D02*
X204575000Y-111510000D01*
X201650000Y-111510000D02*
X200150000Y-111510000D01*
X201650000Y-108290000D02*
X203150000Y-108290000D01*
X201650000Y-108290000D02*
X200150000Y-108290000D01*
X190300000Y-109800000D02*
X189700000Y-109800000D01*
X191000000Y-107700000D02*
X191000000Y-109100000D01*
X189700000Y-107000000D02*
X190300000Y-107000000D01*
X189000000Y-109100000D02*
X189000000Y-107700000D01*
X189000000Y-107700000D02*
G75*
G02*
X189700000Y-107000000I700000J0D01*
G01*
X190300000Y-107000000D02*
G75*
G02*
X191000000Y-107700000I0J-700000D01*
G01*
X191000000Y-109100000D02*
G75*
G02*
X190300000Y-109800000I-700000J0D01*
G01*
X189700000Y-109800000D02*
G75*
G02*
X189000000Y-109100000I0J700000D01*
G01*
X217692164Y-64540000D02*
X217907836Y-64540000D01*
X217692164Y-65260000D02*
X217907836Y-65260000D01*
X106375000Y-142104775D02*
X106875000Y-142104775D01*
X106625000Y-142354775D02*
X106625000Y-141854775D01*
X107816000Y-136949000D02*
X108384000Y-136949000D01*
X107582000Y-136989000D02*
X108618000Y-136989000D01*
X107423000Y-137029000D02*
X108777000Y-137029000D01*
X107295000Y-137069000D02*
X108905000Y-137069000D01*
X107185000Y-137109000D02*
X109015000Y-137109000D01*
X107089000Y-137149000D02*
X109111000Y-137149000D01*
X107002000Y-137189000D02*
X109198000Y-137189000D01*
X106922000Y-137229000D02*
X109278000Y-137229000D01*
X109140000Y-137269000D02*
X109351000Y-137269000D01*
X106849000Y-137269000D02*
X107060000Y-137269000D01*
X109140000Y-137309000D02*
X109419000Y-137309000D01*
X106781000Y-137309000D02*
X107060000Y-137309000D01*
X109140000Y-137349000D02*
X109483000Y-137349000D01*
X106717000Y-137349000D02*
X107060000Y-137349000D01*
X109140000Y-137389000D02*
X109543000Y-137389000D01*
X106657000Y-137389000D02*
X107060000Y-137389000D01*
X109140000Y-137429000D02*
X109600000Y-137429000D01*
X106600000Y-137429000D02*
X107060000Y-137429000D01*
X109140000Y-137469000D02*
X109654000Y-137469000D01*
X106546000Y-137469000D02*
X107060000Y-137469000D01*
X109140000Y-137509000D02*
X109705000Y-137509000D01*
X106495000Y-137509000D02*
X107060000Y-137509000D01*
X109140000Y-137549000D02*
X109753000Y-137549000D01*
X106447000Y-137549000D02*
X107060000Y-137549000D01*
X109140000Y-137589000D02*
X109799000Y-137589000D01*
X106401000Y-137589000D02*
X107060000Y-137589000D01*
X109140000Y-137629000D02*
X109843000Y-137629000D01*
X106357000Y-137629000D02*
X107060000Y-137629000D01*
X109140000Y-137669000D02*
X109885000Y-137669000D01*
X106315000Y-137669000D02*
X107060000Y-137669000D01*
X109140000Y-137709000D02*
X109926000Y-137709000D01*
X106274000Y-137709000D02*
X107060000Y-137709000D01*
X109140000Y-137749000D02*
X109964000Y-137749000D01*
X106236000Y-137749000D02*
X107060000Y-137749000D01*
X109140000Y-137789000D02*
X110001000Y-137789000D01*
X106199000Y-137789000D02*
X107060000Y-137789000D01*
X109140000Y-137829000D02*
X110037000Y-137829000D01*
X106163000Y-137829000D02*
X107060000Y-137829000D01*
X109140000Y-137869000D02*
X110071000Y-137869000D01*
X106129000Y-137869000D02*
X107060000Y-137869000D01*
X109140000Y-137909000D02*
X110104000Y-137909000D01*
X106096000Y-137909000D02*
X107060000Y-137909000D01*
X109140000Y-137949000D02*
X110135000Y-137949000D01*
X106065000Y-137949000D02*
X107060000Y-137949000D01*
X109140000Y-137989000D02*
X110165000Y-137989000D01*
X106035000Y-137989000D02*
X107060000Y-137989000D01*
X109140000Y-138029000D02*
X110195000Y-138029000D01*
X106005000Y-138029000D02*
X107060000Y-138029000D01*
X109140000Y-138069000D02*
X110222000Y-138069000D01*
X105978000Y-138069000D02*
X107060000Y-138069000D01*
X109140000Y-138109000D02*
X110249000Y-138109000D01*
X105951000Y-138109000D02*
X107060000Y-138109000D01*
X109140000Y-138149000D02*
X110275000Y-138149000D01*
X105925000Y-138149000D02*
X107060000Y-138149000D01*
X109140000Y-138189000D02*
X110300000Y-138189000D01*
X105900000Y-138189000D02*
X107060000Y-138189000D01*
X109140000Y-138229000D02*
X110324000Y-138229000D01*
X105876000Y-138229000D02*
X107060000Y-138229000D01*
X109140000Y-138269000D02*
X110347000Y-138269000D01*
X105853000Y-138269000D02*
X107060000Y-138269000D01*
X109140000Y-138309000D02*
X110368000Y-138309000D01*
X105832000Y-138309000D02*
X107060000Y-138309000D01*
X109140000Y-138349000D02*
X110390000Y-138349000D01*
X105810000Y-138349000D02*
X107060000Y-138349000D01*
X109140000Y-138389000D02*
X110410000Y-138389000D01*
X105790000Y-138389000D02*
X107060000Y-138389000D01*
X109140000Y-138429000D02*
X110429000Y-138429000D01*
X105771000Y-138429000D02*
X107060000Y-138429000D01*
X109140000Y-138469000D02*
X110448000Y-138469000D01*
X105752000Y-138469000D02*
X107060000Y-138469000D01*
X109140000Y-138509000D02*
X110465000Y-138509000D01*
X105735000Y-138509000D02*
X107060000Y-138509000D01*
X109140000Y-138549000D02*
X110482000Y-138549000D01*
X105718000Y-138549000D02*
X107060000Y-138549000D01*
X109140000Y-138589000D02*
X110498000Y-138589000D01*
X105702000Y-138589000D02*
X107060000Y-138589000D01*
X109140000Y-138629000D02*
X110514000Y-138629000D01*
X105686000Y-138629000D02*
X107060000Y-138629000D01*
X109140000Y-138669000D02*
X110528000Y-138669000D01*
X105672000Y-138669000D02*
X107060000Y-138669000D01*
X109140000Y-138709000D02*
X110542000Y-138709000D01*
X105658000Y-138709000D02*
X107060000Y-138709000D01*
X109140000Y-138749000D02*
X110555000Y-138749000D01*
X105645000Y-138749000D02*
X107060000Y-138749000D01*
X109140000Y-138789000D02*
X110568000Y-138789000D01*
X105632000Y-138789000D02*
X107060000Y-138789000D01*
X109140000Y-138829000D02*
X110580000Y-138829000D01*
X105620000Y-138829000D02*
X107060000Y-138829000D01*
X109140000Y-138870000D02*
X110591000Y-138870000D01*
X105609000Y-138870000D02*
X107060000Y-138870000D01*
X109140000Y-138910000D02*
X110601000Y-138910000D01*
X105599000Y-138910000D02*
X107060000Y-138910000D01*
X109140000Y-138950000D02*
X110611000Y-138950000D01*
X105589000Y-138950000D02*
X107060000Y-138950000D01*
X109140000Y-138990000D02*
X110620000Y-138990000D01*
X105580000Y-138990000D02*
X107060000Y-138990000D01*
X109140000Y-139030000D02*
X110628000Y-139030000D01*
X105572000Y-139030000D02*
X107060000Y-139030000D01*
X109140000Y-139070000D02*
X110636000Y-139070000D01*
X105564000Y-139070000D02*
X107060000Y-139070000D01*
X109140000Y-139110000D02*
X110643000Y-139110000D01*
X105557000Y-139110000D02*
X107060000Y-139110000D01*
X109140000Y-139150000D02*
X110650000Y-139150000D01*
X105550000Y-139150000D02*
X107060000Y-139150000D01*
X109140000Y-139190000D02*
X110656000Y-139190000D01*
X105544000Y-139190000D02*
X107060000Y-139190000D01*
X109140000Y-139230000D02*
X110661000Y-139230000D01*
X105539000Y-139230000D02*
X107060000Y-139230000D01*
X109140000Y-139270000D02*
X110665000Y-139270000D01*
X105535000Y-139270000D02*
X107060000Y-139270000D01*
X109140000Y-139310000D02*
X110669000Y-139310000D01*
X105531000Y-139310000D02*
X107060000Y-139310000D01*
X105527000Y-139350000D02*
X110673000Y-139350000D01*
X105524000Y-139390000D02*
X110676000Y-139390000D01*
X105522000Y-139430000D02*
X110678000Y-139430000D01*
X105521000Y-139470000D02*
X110679000Y-139470000D01*
X105520000Y-139510000D02*
X110680000Y-139510000D01*
X105520000Y-139550000D02*
X110680000Y-139550000D01*
X110720000Y-139550000D02*
G75*
G03*
X110720000Y-139550000I-2620000J0D01*
G01*
X103210000Y-139459420D02*
X103210000Y-139740580D01*
X102190000Y-139459420D02*
X102190000Y-139740580D01*
X97190000Y-139559420D02*
X97190000Y-139840580D01*
X98210000Y-139559420D02*
X98210000Y-139840580D01*
X95420000Y-139450000D02*
G75*
G03*
X95420000Y-139450000I-2620000J0D01*
G01*
X90220000Y-139450000D02*
X95380000Y-139450000D01*
X90220000Y-139410000D02*
X95380000Y-139410000D01*
X90221000Y-139370000D02*
X95379000Y-139370000D01*
X90222000Y-139330000D02*
X95378000Y-139330000D01*
X90224000Y-139290000D02*
X95376000Y-139290000D01*
X90227000Y-139250000D02*
X95373000Y-139250000D01*
X90231000Y-139210000D02*
X91760000Y-139210000D01*
X93840000Y-139210000D02*
X95369000Y-139210000D01*
X90235000Y-139170000D02*
X91760000Y-139170000D01*
X93840000Y-139170000D02*
X95365000Y-139170000D01*
X90239000Y-139130000D02*
X91760000Y-139130000D01*
X93840000Y-139130000D02*
X95361000Y-139130000D01*
X90244000Y-139090000D02*
X91760000Y-139090000D01*
X93840000Y-139090000D02*
X95356000Y-139090000D01*
X90250000Y-139050000D02*
X91760000Y-139050000D01*
X93840000Y-139050000D02*
X95350000Y-139050000D01*
X90257000Y-139010000D02*
X91760000Y-139010000D01*
X93840000Y-139010000D02*
X95343000Y-139010000D01*
X90264000Y-138970000D02*
X91760000Y-138970000D01*
X93840000Y-138970000D02*
X95336000Y-138970000D01*
X90272000Y-138930000D02*
X91760000Y-138930000D01*
X93840000Y-138930000D02*
X95328000Y-138930000D01*
X90280000Y-138890000D02*
X91760000Y-138890000D01*
X93840000Y-138890000D02*
X95320000Y-138890000D01*
X90289000Y-138850000D02*
X91760000Y-138850000D01*
X93840000Y-138850000D02*
X95311000Y-138850000D01*
X90299000Y-138810000D02*
X91760000Y-138810000D01*
X93840000Y-138810000D02*
X95301000Y-138810000D01*
X90309000Y-138770000D02*
X91760000Y-138770000D01*
X93840000Y-138770000D02*
X95291000Y-138770000D01*
X90320000Y-138729000D02*
X91760000Y-138729000D01*
X93840000Y-138729000D02*
X95280000Y-138729000D01*
X90332000Y-138689000D02*
X91760000Y-138689000D01*
X93840000Y-138689000D02*
X95268000Y-138689000D01*
X90345000Y-138649000D02*
X91760000Y-138649000D01*
X93840000Y-138649000D02*
X95255000Y-138649000D01*
X90358000Y-138609000D02*
X91760000Y-138609000D01*
X93840000Y-138609000D02*
X95242000Y-138609000D01*
X90372000Y-138569000D02*
X91760000Y-138569000D01*
X93840000Y-138569000D02*
X95228000Y-138569000D01*
X90386000Y-138529000D02*
X91760000Y-138529000D01*
X93840000Y-138529000D02*
X95214000Y-138529000D01*
X90402000Y-138489000D02*
X91760000Y-138489000D01*
X93840000Y-138489000D02*
X95198000Y-138489000D01*
X90418000Y-138449000D02*
X91760000Y-138449000D01*
X93840000Y-138449000D02*
X95182000Y-138449000D01*
X90435000Y-138409000D02*
X91760000Y-138409000D01*
X93840000Y-138409000D02*
X95165000Y-138409000D01*
X90452000Y-138369000D02*
X91760000Y-138369000D01*
X93840000Y-138369000D02*
X95148000Y-138369000D01*
X90471000Y-138329000D02*
X91760000Y-138329000D01*
X93840000Y-138329000D02*
X95129000Y-138329000D01*
X90490000Y-138289000D02*
X91760000Y-138289000D01*
X93840000Y-138289000D02*
X95110000Y-138289000D01*
X90510000Y-138249000D02*
X91760000Y-138249000D01*
X93840000Y-138249000D02*
X95090000Y-138249000D01*
X90532000Y-138209000D02*
X91760000Y-138209000D01*
X93840000Y-138209000D02*
X95068000Y-138209000D01*
X90553000Y-138169000D02*
X91760000Y-138169000D01*
X93840000Y-138169000D02*
X95047000Y-138169000D01*
X90576000Y-138129000D02*
X91760000Y-138129000D01*
X93840000Y-138129000D02*
X95024000Y-138129000D01*
X90600000Y-138089000D02*
X91760000Y-138089000D01*
X93840000Y-138089000D02*
X95000000Y-138089000D01*
X90625000Y-138049000D02*
X91760000Y-138049000D01*
X93840000Y-138049000D02*
X94975000Y-138049000D01*
X90651000Y-138009000D02*
X91760000Y-138009000D01*
X93840000Y-138009000D02*
X94949000Y-138009000D01*
X90678000Y-137969000D02*
X91760000Y-137969000D01*
X93840000Y-137969000D02*
X94922000Y-137969000D01*
X90705000Y-137929000D02*
X91760000Y-137929000D01*
X93840000Y-137929000D02*
X94895000Y-137929000D01*
X90735000Y-137889000D02*
X91760000Y-137889000D01*
X93840000Y-137889000D02*
X94865000Y-137889000D01*
X90765000Y-137849000D02*
X91760000Y-137849000D01*
X93840000Y-137849000D02*
X94835000Y-137849000D01*
X90796000Y-137809000D02*
X91760000Y-137809000D01*
X93840000Y-137809000D02*
X94804000Y-137809000D01*
X90829000Y-137769000D02*
X91760000Y-137769000D01*
X93840000Y-137769000D02*
X94771000Y-137769000D01*
X90863000Y-137729000D02*
X91760000Y-137729000D01*
X93840000Y-137729000D02*
X94737000Y-137729000D01*
X90899000Y-137689000D02*
X91760000Y-137689000D01*
X93840000Y-137689000D02*
X94701000Y-137689000D01*
X90936000Y-137649000D02*
X91760000Y-137649000D01*
X93840000Y-137649000D02*
X94664000Y-137649000D01*
X90974000Y-137609000D02*
X91760000Y-137609000D01*
X93840000Y-137609000D02*
X94626000Y-137609000D01*
X91015000Y-137569000D02*
X91760000Y-137569000D01*
X93840000Y-137569000D02*
X94585000Y-137569000D01*
X91057000Y-137529000D02*
X91760000Y-137529000D01*
X93840000Y-137529000D02*
X94543000Y-137529000D01*
X91101000Y-137489000D02*
X91760000Y-137489000D01*
X93840000Y-137489000D02*
X94499000Y-137489000D01*
X91147000Y-137449000D02*
X91760000Y-137449000D01*
X93840000Y-137449000D02*
X94453000Y-137449000D01*
X91195000Y-137409000D02*
X91760000Y-137409000D01*
X93840000Y-137409000D02*
X94405000Y-137409000D01*
X91246000Y-137369000D02*
X91760000Y-137369000D01*
X93840000Y-137369000D02*
X94354000Y-137369000D01*
X91300000Y-137329000D02*
X91760000Y-137329000D01*
X93840000Y-137329000D02*
X94300000Y-137329000D01*
X91357000Y-137289000D02*
X91760000Y-137289000D01*
X93840000Y-137289000D02*
X94243000Y-137289000D01*
X91417000Y-137249000D02*
X91760000Y-137249000D01*
X93840000Y-137249000D02*
X94183000Y-137249000D01*
X91481000Y-137209000D02*
X91760000Y-137209000D01*
X93840000Y-137209000D02*
X94119000Y-137209000D01*
X91549000Y-137169000D02*
X91760000Y-137169000D01*
X93840000Y-137169000D02*
X94051000Y-137169000D01*
X91622000Y-137129000D02*
X93978000Y-137129000D01*
X91702000Y-137089000D02*
X93898000Y-137089000D01*
X91789000Y-137049000D02*
X93811000Y-137049000D01*
X91885000Y-137009000D02*
X93715000Y-137009000D01*
X91995000Y-136969000D02*
X93605000Y-136969000D01*
X92123000Y-136929000D02*
X93477000Y-136929000D01*
X92282000Y-136889000D02*
X93318000Y-136889000D01*
X92516000Y-136849000D02*
X93084000Y-136849000D01*
X91325000Y-142254775D02*
X91325000Y-141754775D01*
X91075000Y-142004775D02*
X91575000Y-142004775D01*
X75290000Y-52883000D02*
X75290000Y-59233000D01*
X69990000Y-52883000D02*
X75290000Y-52883000D01*
X69990000Y-147117000D02*
X69990000Y-52883000D01*
X75290000Y-147117000D02*
X69990000Y-147117000D01*
X75290000Y-147117000D02*
X75290000Y-140767000D01*
X206090000Y-114759420D02*
X206090000Y-115040580D01*
X207110000Y-114759420D02*
X207110000Y-115040580D01*
X206090000Y-111640580D02*
X206090000Y-111359420D01*
X207110000Y-111640580D02*
X207110000Y-111359420D01*
X105580000Y-148770000D02*
X95340000Y-148770000D01*
X105580000Y-144129000D02*
X95340000Y-144129000D01*
X105580000Y-148770000D02*
X105580000Y-144129000D01*
X95340000Y-148770000D02*
X95340000Y-144129000D01*
X105580000Y-147260000D02*
X95340000Y-147260000D01*
X102310000Y-148770000D02*
X102310000Y-147260000D01*
X98609000Y-148770000D02*
X98609000Y-147260000D01*
X229700000Y-135000000D02*
X228700000Y-136000000D01*
X229700000Y-135000000D02*
X228700000Y-134000000D01*
X214900000Y-127500000D02*
X229900000Y-127500000D01*
X214900000Y-142500000D02*
X214900000Y-127500000D01*
X229900000Y-142500000D02*
X214900000Y-142500000D01*
X229900000Y-127500000D02*
X229900000Y-142500000D01*
X229800000Y-102400000D02*
X229800000Y-117400000D01*
X229800000Y-117400000D02*
X214800000Y-117400000D01*
X214800000Y-117400000D02*
X214800000Y-102400000D01*
X214800000Y-102400000D02*
X229800000Y-102400000D01*
X229600000Y-109900000D02*
X228600000Y-108900000D01*
X229600000Y-109900000D02*
X228600000Y-110900000D01*
X203120000Y-106720000D02*
X199880000Y-106720000D01*
X203120000Y-99280000D02*
X199880000Y-99280000D01*
X199880000Y-99280000D02*
X199880000Y-106720000D01*
X203120000Y-99280000D02*
X203120000Y-106720000D01*
X191620000Y-104780000D02*
X191620000Y-112220000D01*
X188380000Y-104780000D02*
X188380000Y-112220000D01*
X191620000Y-104780000D02*
X188380000Y-104780000D01*
X191620000Y-112220000D02*
X188380000Y-112220000D01*
X94495225Y-59175000D02*
X94495225Y-59675000D01*
X94245225Y-59425000D02*
X94745225Y-59425000D01*
X99651000Y-60616000D02*
X99651000Y-61184000D01*
X99611000Y-60382000D02*
X99611000Y-61418000D01*
X99571000Y-60223000D02*
X99571000Y-61577000D01*
X99531000Y-60095000D02*
X99531000Y-61705000D01*
X99491000Y-59985000D02*
X99491000Y-61815000D01*
X99451000Y-59889000D02*
X99451000Y-61911000D01*
X99411000Y-59802000D02*
X99411000Y-61998000D01*
X99371000Y-59722000D02*
X99371000Y-62078000D01*
X99331000Y-61940000D02*
X99331000Y-62151000D01*
X99331000Y-59649000D02*
X99331000Y-59860000D01*
X99291000Y-61940000D02*
X99291000Y-62219000D01*
X99291000Y-59581000D02*
X99291000Y-59860000D01*
X99251000Y-61940000D02*
X99251000Y-62283000D01*
X99251000Y-59517000D02*
X99251000Y-59860000D01*
X99211000Y-61940000D02*
X99211000Y-62343000D01*
X99211000Y-59457000D02*
X99211000Y-59860000D01*
X99171000Y-61940000D02*
X99171000Y-62400000D01*
X99171000Y-59400000D02*
X99171000Y-59860000D01*
X99131000Y-61940000D02*
X99131000Y-62454000D01*
X99131000Y-59346000D02*
X99131000Y-59860000D01*
X99091000Y-61940000D02*
X99091000Y-62505000D01*
X99091000Y-59295000D02*
X99091000Y-59860000D01*
X99051000Y-61940000D02*
X99051000Y-62553000D01*
X99051000Y-59247000D02*
X99051000Y-59860000D01*
X99011000Y-61940000D02*
X99011000Y-62599000D01*
X99011000Y-59201000D02*
X99011000Y-59860000D01*
X98971000Y-61940000D02*
X98971000Y-62643000D01*
X98971000Y-59157000D02*
X98971000Y-59860000D01*
X98931000Y-61940000D02*
X98931000Y-62685000D01*
X98931000Y-59115000D02*
X98931000Y-59860000D01*
X98891000Y-61940000D02*
X98891000Y-62726000D01*
X98891000Y-59074000D02*
X98891000Y-59860000D01*
X98851000Y-61940000D02*
X98851000Y-62764000D01*
X98851000Y-59036000D02*
X98851000Y-59860000D01*
X98811000Y-61940000D02*
X98811000Y-62801000D01*
X98811000Y-58999000D02*
X98811000Y-59860000D01*
X98771000Y-61940000D02*
X98771000Y-62837000D01*
X98771000Y-58963000D02*
X98771000Y-59860000D01*
X98731000Y-61940000D02*
X98731000Y-62871000D01*
X98731000Y-58929000D02*
X98731000Y-59860000D01*
X98691000Y-61940000D02*
X98691000Y-62904000D01*
X98691000Y-58896000D02*
X98691000Y-59860000D01*
X98651000Y-61940000D02*
X98651000Y-62935000D01*
X98651000Y-58865000D02*
X98651000Y-59860000D01*
X98611000Y-61940000D02*
X98611000Y-62965000D01*
X98611000Y-58835000D02*
X98611000Y-59860000D01*
X98571000Y-61940000D02*
X98571000Y-62995000D01*
X98571000Y-58805000D02*
X98571000Y-59860000D01*
X98531000Y-61940000D02*
X98531000Y-63022000D01*
X98531000Y-58778000D02*
X98531000Y-59860000D01*
X98491000Y-61940000D02*
X98491000Y-63049000D01*
X98491000Y-58751000D02*
X98491000Y-59860000D01*
X98451000Y-61940000D02*
X98451000Y-63075000D01*
X98451000Y-58725000D02*
X98451000Y-59860000D01*
X98411000Y-61940000D02*
X98411000Y-63100000D01*
X98411000Y-58700000D02*
X98411000Y-59860000D01*
X98371000Y-61940000D02*
X98371000Y-63124000D01*
X98371000Y-58676000D02*
X98371000Y-59860000D01*
X98331000Y-61940000D02*
X98331000Y-63147000D01*
X98331000Y-58653000D02*
X98331000Y-59860000D01*
X98291000Y-61940000D02*
X98291000Y-63168000D01*
X98291000Y-58632000D02*
X98291000Y-59860000D01*
X98251000Y-61940000D02*
X98251000Y-63190000D01*
X98251000Y-58610000D02*
X98251000Y-59860000D01*
X98211000Y-61940000D02*
X98211000Y-63210000D01*
X98211000Y-58590000D02*
X98211000Y-59860000D01*
X98171000Y-61940000D02*
X98171000Y-63229000D01*
X98171000Y-58571000D02*
X98171000Y-59860000D01*
X98131000Y-61940000D02*
X98131000Y-63248000D01*
X98131000Y-58552000D02*
X98131000Y-59860000D01*
X98091000Y-61940000D02*
X98091000Y-63265000D01*
X98091000Y-58535000D02*
X98091000Y-59860000D01*
X98051000Y-61940000D02*
X98051000Y-63282000D01*
X98051000Y-58518000D02*
X98051000Y-59860000D01*
X98011000Y-61940000D02*
X98011000Y-63298000D01*
X98011000Y-58502000D02*
X98011000Y-59860000D01*
X97971000Y-61940000D02*
X97971000Y-63314000D01*
X97971000Y-58486000D02*
X97971000Y-59860000D01*
X97931000Y-61940000D02*
X97931000Y-63328000D01*
X97931000Y-58472000D02*
X97931000Y-59860000D01*
X97891000Y-61940000D02*
X97891000Y-63342000D01*
X97891000Y-58458000D02*
X97891000Y-59860000D01*
X97851000Y-61940000D02*
X97851000Y-63355000D01*
X97851000Y-58445000D02*
X97851000Y-59860000D01*
X97811000Y-61940000D02*
X97811000Y-63368000D01*
X97811000Y-58432000D02*
X97811000Y-59860000D01*
X97771000Y-61940000D02*
X97771000Y-63380000D01*
X97771000Y-58420000D02*
X97771000Y-59860000D01*
X97730000Y-61940000D02*
X97730000Y-63391000D01*
X97730000Y-58409000D02*
X97730000Y-59860000D01*
X97690000Y-61940000D02*
X97690000Y-63401000D01*
X97690000Y-58399000D02*
X97690000Y-59860000D01*
X97650000Y-61940000D02*
X97650000Y-63411000D01*
X97650000Y-58389000D02*
X97650000Y-59860000D01*
X97610000Y-61940000D02*
X97610000Y-63420000D01*
X97610000Y-58380000D02*
X97610000Y-59860000D01*
X97570000Y-61940000D02*
X97570000Y-63428000D01*
X97570000Y-58372000D02*
X97570000Y-59860000D01*
X97530000Y-61940000D02*
X97530000Y-63436000D01*
X97530000Y-58364000D02*
X97530000Y-59860000D01*
X97490000Y-61940000D02*
X97490000Y-63443000D01*
X97490000Y-58357000D02*
X97490000Y-59860000D01*
X97450000Y-61940000D02*
X97450000Y-63450000D01*
X97450000Y-58350000D02*
X97450000Y-59860000D01*
X97410000Y-61940000D02*
X97410000Y-63456000D01*
X97410000Y-58344000D02*
X97410000Y-59860000D01*
X97370000Y-61940000D02*
X97370000Y-63461000D01*
X97370000Y-58339000D02*
X97370000Y-59860000D01*
X97330000Y-61940000D02*
X97330000Y-63465000D01*
X97330000Y-58335000D02*
X97330000Y-59860000D01*
X97290000Y-61940000D02*
X97290000Y-63469000D01*
X97290000Y-58331000D02*
X97290000Y-59860000D01*
X97250000Y-58327000D02*
X97250000Y-63473000D01*
X97210000Y-58324000D02*
X97210000Y-63476000D01*
X97170000Y-58322000D02*
X97170000Y-63478000D01*
X97130000Y-58321000D02*
X97130000Y-63479000D01*
X97090000Y-58320000D02*
X97090000Y-63480000D01*
X97050000Y-58320000D02*
X97050000Y-63480000D01*
X99670000Y-60900000D02*
G75*
G03*
X99670000Y-60900000I-2620000J0D01*
G01*
X96859420Y-65890000D02*
X97140580Y-65890000D01*
X96859420Y-66910000D02*
X97140580Y-66910000D01*
X96859420Y-70310000D02*
X97140580Y-70310000D01*
X96859420Y-69290000D02*
X97140580Y-69290000D01*
X99670000Y-75300000D02*
G75*
G03*
X99670000Y-75300000I-2620000J0D01*
G01*
X97050000Y-72720000D02*
X97050000Y-77880000D01*
X97090000Y-72720000D02*
X97090000Y-77880000D01*
X97130000Y-72721000D02*
X97130000Y-77879000D01*
X97170000Y-72722000D02*
X97170000Y-77878000D01*
X97210000Y-72724000D02*
X97210000Y-77876000D01*
X97250000Y-72727000D02*
X97250000Y-77873000D01*
X97290000Y-72731000D02*
X97290000Y-74260000D01*
X97290000Y-76340000D02*
X97290000Y-77869000D01*
X97330000Y-72735000D02*
X97330000Y-74260000D01*
X97330000Y-76340000D02*
X97330000Y-77865000D01*
X97370000Y-72739000D02*
X97370000Y-74260000D01*
X97370000Y-76340000D02*
X97370000Y-77861000D01*
X97410000Y-72744000D02*
X97410000Y-74260000D01*
X97410000Y-76340000D02*
X97410000Y-77856000D01*
X97450000Y-72750000D02*
X97450000Y-74260000D01*
X97450000Y-76340000D02*
X97450000Y-77850000D01*
X97490000Y-72757000D02*
X97490000Y-74260000D01*
X97490000Y-76340000D02*
X97490000Y-77843000D01*
X97530000Y-72764000D02*
X97530000Y-74260000D01*
X97530000Y-76340000D02*
X97530000Y-77836000D01*
X97570000Y-72772000D02*
X97570000Y-74260000D01*
X97570000Y-76340000D02*
X97570000Y-77828000D01*
X97610000Y-72780000D02*
X97610000Y-74260000D01*
X97610000Y-76340000D02*
X97610000Y-77820000D01*
X97650000Y-72789000D02*
X97650000Y-74260000D01*
X97650000Y-76340000D02*
X97650000Y-77811000D01*
X97690000Y-72799000D02*
X97690000Y-74260000D01*
X97690000Y-76340000D02*
X97690000Y-77801000D01*
X97730000Y-72809000D02*
X97730000Y-74260000D01*
X97730000Y-76340000D02*
X97730000Y-77791000D01*
X97771000Y-72820000D02*
X97771000Y-74260000D01*
X97771000Y-76340000D02*
X97771000Y-77780000D01*
X97811000Y-72832000D02*
X97811000Y-74260000D01*
X97811000Y-76340000D02*
X97811000Y-77768000D01*
X97851000Y-72845000D02*
X97851000Y-74260000D01*
X97851000Y-76340000D02*
X97851000Y-77755000D01*
X97891000Y-72858000D02*
X97891000Y-74260000D01*
X97891000Y-76340000D02*
X97891000Y-77742000D01*
X97931000Y-72872000D02*
X97931000Y-74260000D01*
X97931000Y-76340000D02*
X97931000Y-77728000D01*
X97971000Y-72886000D02*
X97971000Y-74260000D01*
X97971000Y-76340000D02*
X97971000Y-77714000D01*
X98011000Y-72902000D02*
X98011000Y-74260000D01*
X98011000Y-76340000D02*
X98011000Y-77698000D01*
X98051000Y-72918000D02*
X98051000Y-74260000D01*
X98051000Y-76340000D02*
X98051000Y-77682000D01*
X98091000Y-72935000D02*
X98091000Y-74260000D01*
X98091000Y-76340000D02*
X98091000Y-77665000D01*
X98131000Y-72952000D02*
X98131000Y-74260000D01*
X98131000Y-76340000D02*
X98131000Y-77648000D01*
X98171000Y-72971000D02*
X98171000Y-74260000D01*
X98171000Y-76340000D02*
X98171000Y-77629000D01*
X98211000Y-72990000D02*
X98211000Y-74260000D01*
X98211000Y-76340000D02*
X98211000Y-77610000D01*
X98251000Y-73010000D02*
X98251000Y-74260000D01*
X98251000Y-76340000D02*
X98251000Y-77590000D01*
X98291000Y-73032000D02*
X98291000Y-74260000D01*
X98291000Y-76340000D02*
X98291000Y-77568000D01*
X98331000Y-73053000D02*
X98331000Y-74260000D01*
X98331000Y-76340000D02*
X98331000Y-77547000D01*
X98371000Y-73076000D02*
X98371000Y-74260000D01*
X98371000Y-76340000D02*
X98371000Y-77524000D01*
X98411000Y-73100000D02*
X98411000Y-74260000D01*
X98411000Y-76340000D02*
X98411000Y-77500000D01*
X98451000Y-73125000D02*
X98451000Y-74260000D01*
X98451000Y-76340000D02*
X98451000Y-77475000D01*
X98491000Y-73151000D02*
X98491000Y-74260000D01*
X98491000Y-76340000D02*
X98491000Y-77449000D01*
X98531000Y-73178000D02*
X98531000Y-74260000D01*
X98531000Y-76340000D02*
X98531000Y-77422000D01*
X98571000Y-73205000D02*
X98571000Y-74260000D01*
X98571000Y-76340000D02*
X98571000Y-77395000D01*
X98611000Y-73235000D02*
X98611000Y-74260000D01*
X98611000Y-76340000D02*
X98611000Y-77365000D01*
X98651000Y-73265000D02*
X98651000Y-74260000D01*
X98651000Y-76340000D02*
X98651000Y-77335000D01*
X98691000Y-73296000D02*
X98691000Y-74260000D01*
X98691000Y-76340000D02*
X98691000Y-77304000D01*
X98731000Y-73329000D02*
X98731000Y-74260000D01*
X98731000Y-76340000D02*
X98731000Y-77271000D01*
X98771000Y-73363000D02*
X98771000Y-74260000D01*
X98771000Y-76340000D02*
X98771000Y-77237000D01*
X98811000Y-73399000D02*
X98811000Y-74260000D01*
X98811000Y-76340000D02*
X98811000Y-77201000D01*
X98851000Y-73436000D02*
X98851000Y-74260000D01*
X98851000Y-76340000D02*
X98851000Y-77164000D01*
X98891000Y-73474000D02*
X98891000Y-74260000D01*
X98891000Y-76340000D02*
X98891000Y-77126000D01*
X98931000Y-73515000D02*
X98931000Y-74260000D01*
X98931000Y-76340000D02*
X98931000Y-77085000D01*
X98971000Y-73557000D02*
X98971000Y-74260000D01*
X98971000Y-76340000D02*
X98971000Y-77043000D01*
X99011000Y-73601000D02*
X99011000Y-74260000D01*
X99011000Y-76340000D02*
X99011000Y-76999000D01*
X99051000Y-73647000D02*
X99051000Y-74260000D01*
X99051000Y-76340000D02*
X99051000Y-76953000D01*
X99091000Y-73695000D02*
X99091000Y-74260000D01*
X99091000Y-76340000D02*
X99091000Y-76905000D01*
X99131000Y-73746000D02*
X99131000Y-74260000D01*
X99131000Y-76340000D02*
X99131000Y-76854000D01*
X99171000Y-73800000D02*
X99171000Y-74260000D01*
X99171000Y-76340000D02*
X99171000Y-76800000D01*
X99211000Y-73857000D02*
X99211000Y-74260000D01*
X99211000Y-76340000D02*
X99211000Y-76743000D01*
X99251000Y-73917000D02*
X99251000Y-74260000D01*
X99251000Y-76340000D02*
X99251000Y-76683000D01*
X99291000Y-73981000D02*
X99291000Y-74260000D01*
X99291000Y-76340000D02*
X99291000Y-76619000D01*
X99331000Y-74049000D02*
X99331000Y-74260000D01*
X99331000Y-76340000D02*
X99331000Y-76551000D01*
X99371000Y-74122000D02*
X99371000Y-76478000D01*
X99411000Y-74202000D02*
X99411000Y-76398000D01*
X99451000Y-74289000D02*
X99451000Y-76311000D01*
X99491000Y-74385000D02*
X99491000Y-76215000D01*
X99531000Y-74495000D02*
X99531000Y-76105000D01*
X99571000Y-74623000D02*
X99571000Y-75977000D01*
X99611000Y-74782000D02*
X99611000Y-75818000D01*
X99651000Y-75016000D02*
X99651000Y-75584000D01*
X94245225Y-73825000D02*
X94745225Y-73825000D01*
X94495225Y-73575000D02*
X94495225Y-74075000D01*
X83350000Y-140850000D02*
X83350000Y-135150000D01*
X87650000Y-140850000D02*
X87650000Y-135150000D01*
X83350000Y-140850000D02*
X87650000Y-140850000D01*
X87450000Y-58850000D02*
X83150000Y-58850000D01*
X83150000Y-58850000D02*
X83150000Y-64550000D01*
X87450000Y-58850000D02*
X87450000Y-64550000D01*
X106690000Y-69980000D02*
X104150000Y-69980000D01*
X106690000Y-67440000D02*
X104150000Y-67440000D01*
X106690000Y-64900000D02*
X104150000Y-64900000D01*
X122580000Y-72560000D02*
X106690000Y-72560000D01*
X122580000Y-62320000D02*
X106690000Y-62320000D01*
X122580000Y-62320000D02*
X122580000Y-72560000D01*
X106690000Y-62320000D02*
X106690000Y-72560000D01*
D11*
X217618333Y-81857142D02*
X217570714Y-81904761D01*
X217427857Y-81952380D01*
X217332619Y-81952380D01*
X217189761Y-81904761D01*
X217094523Y-81809523D01*
X217046904Y-81714285D01*
X216999285Y-81523809D01*
X216999285Y-81380952D01*
X217046904Y-81190476D01*
X217094523Y-81095238D01*
X217189761Y-81000000D01*
X217332619Y-80952380D01*
X217427857Y-80952380D01*
X217570714Y-81000000D01*
X217618333Y-81047619D01*
X218570714Y-81952380D02*
X217999285Y-81952380D01*
X218285000Y-81952380D02*
X218285000Y-80952380D01*
X218189761Y-81095238D01*
X218094523Y-81190476D01*
X217999285Y-81238095D01*
X100183333Y-97357142D02*
X100135714Y-97404761D01*
X99992857Y-97452380D01*
X99897619Y-97452380D01*
X99754761Y-97404761D01*
X99659523Y-97309523D01*
X99611904Y-97214285D01*
X99564285Y-97023809D01*
X99564285Y-96880952D01*
X99611904Y-96690476D01*
X99659523Y-96595238D01*
X99754761Y-96500000D01*
X99897619Y-96452380D01*
X99992857Y-96452380D01*
X100135714Y-96500000D01*
X100183333Y-96547619D01*
X100516666Y-96452380D02*
X101135714Y-96452380D01*
X100802380Y-96833333D01*
X100945238Y-96833333D01*
X101040476Y-96880952D01*
X101088095Y-96928571D01*
X101135714Y-97023809D01*
X101135714Y-97261904D01*
X101088095Y-97357142D01*
X101040476Y-97404761D01*
X100945238Y-97452380D01*
X100659523Y-97452380D01*
X100564285Y-97404761D01*
X100516666Y-97357142D01*
X101707142Y-108916666D02*
X101754761Y-108964285D01*
X101802380Y-109107142D01*
X101802380Y-109202380D01*
X101754761Y-109345238D01*
X101659523Y-109440476D01*
X101564285Y-109488095D01*
X101373809Y-109535714D01*
X101230952Y-109535714D01*
X101040476Y-109488095D01*
X100945238Y-109440476D01*
X100850000Y-109345238D01*
X100802380Y-109202380D01*
X100802380Y-109107142D01*
X100850000Y-108964285D01*
X100897619Y-108916666D01*
X101135714Y-108059523D02*
X101802380Y-108059523D01*
X100754761Y-108297619D02*
X101469047Y-108535714D01*
X101469047Y-107916666D01*
X196933333Y-72027142D02*
X196885714Y-72074761D01*
X196742857Y-72122380D01*
X196647619Y-72122380D01*
X196504761Y-72074761D01*
X196409523Y-71979523D01*
X196361904Y-71884285D01*
X196314285Y-71693809D01*
X196314285Y-71550952D01*
X196361904Y-71360476D01*
X196409523Y-71265238D01*
X196504761Y-71170000D01*
X196647619Y-71122380D01*
X196742857Y-71122380D01*
X196885714Y-71170000D01*
X196933333Y-71217619D01*
X197838095Y-71122380D02*
X197361904Y-71122380D01*
X197314285Y-71598571D01*
X197361904Y-71550952D01*
X197457142Y-71503333D01*
X197695238Y-71503333D01*
X197790476Y-71550952D01*
X197838095Y-71598571D01*
X197885714Y-71693809D01*
X197885714Y-71931904D01*
X197838095Y-72027142D01*
X197790476Y-72074761D01*
X197695238Y-72122380D01*
X197457142Y-72122380D01*
X197361904Y-72074761D01*
X197314285Y-72027142D01*
X195027142Y-68666666D02*
X195074761Y-68714285D01*
X195122380Y-68857142D01*
X195122380Y-68952380D01*
X195074761Y-69095238D01*
X194979523Y-69190476D01*
X194884285Y-69238095D01*
X194693809Y-69285714D01*
X194550952Y-69285714D01*
X194360476Y-69238095D01*
X194265238Y-69190476D01*
X194170000Y-69095238D01*
X194122380Y-68952380D01*
X194122380Y-68857142D01*
X194170000Y-68714285D01*
X194217619Y-68666666D01*
X194122380Y-67809523D02*
X194122380Y-68000000D01*
X194170000Y-68095238D01*
X194217619Y-68142857D01*
X194360476Y-68238095D01*
X194550952Y-68285714D01*
X194931904Y-68285714D01*
X195027142Y-68238095D01*
X195074761Y-68190476D01*
X195122380Y-68095238D01*
X195122380Y-67904761D01*
X195074761Y-67809523D01*
X195027142Y-67761904D01*
X194931904Y-67714285D01*
X194693809Y-67714285D01*
X194598571Y-67761904D01*
X194550952Y-67809523D01*
X194503333Y-67904761D01*
X194503333Y-68095238D01*
X194550952Y-68190476D01*
X194598571Y-68238095D01*
X194693809Y-68285714D01*
X116457142Y-100066666D02*
X116504761Y-100114285D01*
X116552380Y-100257142D01*
X116552380Y-100352380D01*
X116504761Y-100495238D01*
X116409523Y-100590476D01*
X116314285Y-100638095D01*
X116123809Y-100685714D01*
X115980952Y-100685714D01*
X115790476Y-100638095D01*
X115695238Y-100590476D01*
X115600000Y-100495238D01*
X115552380Y-100352380D01*
X115552380Y-100257142D01*
X115600000Y-100114285D01*
X115647619Y-100066666D01*
X115552380Y-99733333D02*
X115552380Y-99066666D01*
X116552380Y-99495238D01*
X104733333Y-111677142D02*
X104685714Y-111724761D01*
X104542857Y-111772380D01*
X104447619Y-111772380D01*
X104304761Y-111724761D01*
X104209523Y-111629523D01*
X104161904Y-111534285D01*
X104114285Y-111343809D01*
X104114285Y-111200952D01*
X104161904Y-111010476D01*
X104209523Y-110915238D01*
X104304761Y-110820000D01*
X104447619Y-110772380D01*
X104542857Y-110772380D01*
X104685714Y-110820000D01*
X104733333Y-110867619D01*
X105304761Y-111200952D02*
X105209523Y-111153333D01*
X105161904Y-111105714D01*
X105114285Y-111010476D01*
X105114285Y-110962857D01*
X105161904Y-110867619D01*
X105209523Y-110820000D01*
X105304761Y-110772380D01*
X105495238Y-110772380D01*
X105590476Y-110820000D01*
X105638095Y-110867619D01*
X105685714Y-110962857D01*
X105685714Y-111010476D01*
X105638095Y-111105714D01*
X105590476Y-111153333D01*
X105495238Y-111200952D01*
X105304761Y-111200952D01*
X105209523Y-111248571D01*
X105161904Y-111296190D01*
X105114285Y-111391428D01*
X105114285Y-111581904D01*
X105161904Y-111677142D01*
X105209523Y-111724761D01*
X105304761Y-111772380D01*
X105495238Y-111772380D01*
X105590476Y-111724761D01*
X105638095Y-111677142D01*
X105685714Y-111581904D01*
X105685714Y-111391428D01*
X105638095Y-111296190D01*
X105590476Y-111248571D01*
X105495238Y-111200952D01*
X196087142Y-77566666D02*
X196134761Y-77614285D01*
X196182380Y-77757142D01*
X196182380Y-77852380D01*
X196134761Y-77995238D01*
X196039523Y-78090476D01*
X195944285Y-78138095D01*
X195753809Y-78185714D01*
X195610952Y-78185714D01*
X195420476Y-78138095D01*
X195325238Y-78090476D01*
X195230000Y-77995238D01*
X195182380Y-77852380D01*
X195182380Y-77757142D01*
X195230000Y-77614285D01*
X195277619Y-77566666D01*
X196182380Y-77090476D02*
X196182380Y-76900000D01*
X196134761Y-76804761D01*
X196087142Y-76757142D01*
X195944285Y-76661904D01*
X195753809Y-76614285D01*
X195372857Y-76614285D01*
X195277619Y-76661904D01*
X195230000Y-76709523D01*
X195182380Y-76804761D01*
X195182380Y-76995238D01*
X195230000Y-77090476D01*
X195277619Y-77138095D01*
X195372857Y-77185714D01*
X195610952Y-77185714D01*
X195706190Y-77138095D01*
X195753809Y-77090476D01*
X195801428Y-76995238D01*
X195801428Y-76804761D01*
X195753809Y-76709523D01*
X195706190Y-76661904D01*
X195610952Y-76614285D01*
X180427142Y-66342857D02*
X180474761Y-66390476D01*
X180522380Y-66533333D01*
X180522380Y-66628571D01*
X180474761Y-66771428D01*
X180379523Y-66866666D01*
X180284285Y-66914285D01*
X180093809Y-66961904D01*
X179950952Y-66961904D01*
X179760476Y-66914285D01*
X179665238Y-66866666D01*
X179570000Y-66771428D01*
X179522380Y-66628571D01*
X179522380Y-66533333D01*
X179570000Y-66390476D01*
X179617619Y-66342857D01*
X180522380Y-65390476D02*
X180522380Y-65961904D01*
X180522380Y-65676190D02*
X179522380Y-65676190D01*
X179665238Y-65771428D01*
X179760476Y-65866666D01*
X179808095Y-65961904D01*
X179522380Y-64771428D02*
X179522380Y-64676190D01*
X179570000Y-64580952D01*
X179617619Y-64533333D01*
X179712857Y-64485714D01*
X179903333Y-64438095D01*
X180141428Y-64438095D01*
X180331904Y-64485714D01*
X180427142Y-64533333D01*
X180474761Y-64580952D01*
X180522380Y-64676190D01*
X180522380Y-64771428D01*
X180474761Y-64866666D01*
X180427142Y-64914285D01*
X180331904Y-64961904D01*
X180141428Y-65009523D01*
X179903333Y-65009523D01*
X179712857Y-64961904D01*
X179617619Y-64914285D01*
X179570000Y-64866666D01*
X179522380Y-64771428D01*
X110707142Y-96392857D02*
X110754761Y-96440476D01*
X110802380Y-96583333D01*
X110802380Y-96678571D01*
X110754761Y-96821428D01*
X110659523Y-96916666D01*
X110564285Y-96964285D01*
X110373809Y-97011904D01*
X110230952Y-97011904D01*
X110040476Y-96964285D01*
X109945238Y-96916666D01*
X109850000Y-96821428D01*
X109802380Y-96678571D01*
X109802380Y-96583333D01*
X109850000Y-96440476D01*
X109897619Y-96392857D01*
X110802380Y-95440476D02*
X110802380Y-96011904D01*
X110802380Y-95726190D02*
X109802380Y-95726190D01*
X109945238Y-95821428D01*
X110040476Y-95916666D01*
X110088095Y-96011904D01*
X110802380Y-94488095D02*
X110802380Y-95059523D01*
X110802380Y-94773809D02*
X109802380Y-94773809D01*
X109945238Y-94869047D01*
X110040476Y-94964285D01*
X110088095Y-95059523D01*
X116237142Y-106642857D02*
X116284761Y-106690476D01*
X116332380Y-106833333D01*
X116332380Y-106928571D01*
X116284761Y-107071428D01*
X116189523Y-107166666D01*
X116094285Y-107214285D01*
X115903809Y-107261904D01*
X115760952Y-107261904D01*
X115570476Y-107214285D01*
X115475238Y-107166666D01*
X115380000Y-107071428D01*
X115332380Y-106928571D01*
X115332380Y-106833333D01*
X115380000Y-106690476D01*
X115427619Y-106642857D01*
X116332380Y-105690476D02*
X116332380Y-106261904D01*
X116332380Y-105976190D02*
X115332380Y-105976190D01*
X115475238Y-106071428D01*
X115570476Y-106166666D01*
X115618095Y-106261904D01*
X115427619Y-105309523D02*
X115380000Y-105261904D01*
X115332380Y-105166666D01*
X115332380Y-104928571D01*
X115380000Y-104833333D01*
X115427619Y-104785714D01*
X115522857Y-104738095D01*
X115618095Y-104738095D01*
X115760952Y-104785714D01*
X116332380Y-105357142D01*
X116332380Y-104738095D01*
X177627142Y-78492857D02*
X177674761Y-78540476D01*
X177722380Y-78683333D01*
X177722380Y-78778571D01*
X177674761Y-78921428D01*
X177579523Y-79016666D01*
X177484285Y-79064285D01*
X177293809Y-79111904D01*
X177150952Y-79111904D01*
X176960476Y-79064285D01*
X176865238Y-79016666D01*
X176770000Y-78921428D01*
X176722380Y-78778571D01*
X176722380Y-78683333D01*
X176770000Y-78540476D01*
X176817619Y-78492857D01*
X177722380Y-77540476D02*
X177722380Y-78111904D01*
X177722380Y-77826190D02*
X176722380Y-77826190D01*
X176865238Y-77921428D01*
X176960476Y-78016666D01*
X177008095Y-78111904D01*
X176722380Y-77207142D02*
X176722380Y-76588095D01*
X177103333Y-76921428D01*
X177103333Y-76778571D01*
X177150952Y-76683333D01*
X177198571Y-76635714D01*
X177293809Y-76588095D01*
X177531904Y-76588095D01*
X177627142Y-76635714D01*
X177674761Y-76683333D01*
X177722380Y-76778571D01*
X177722380Y-77064285D01*
X177674761Y-77159523D01*
X177627142Y-77207142D01*
X177677142Y-68392857D02*
X177724761Y-68440476D01*
X177772380Y-68583333D01*
X177772380Y-68678571D01*
X177724761Y-68821428D01*
X177629523Y-68916666D01*
X177534285Y-68964285D01*
X177343809Y-69011904D01*
X177200952Y-69011904D01*
X177010476Y-68964285D01*
X176915238Y-68916666D01*
X176820000Y-68821428D01*
X176772380Y-68678571D01*
X176772380Y-68583333D01*
X176820000Y-68440476D01*
X176867619Y-68392857D01*
X177772380Y-67440476D02*
X177772380Y-68011904D01*
X177772380Y-67726190D02*
X176772380Y-67726190D01*
X176915238Y-67821428D01*
X177010476Y-67916666D01*
X177058095Y-68011904D01*
X177105714Y-66583333D02*
X177772380Y-66583333D01*
X176724761Y-66821428D02*
X177439047Y-67059523D01*
X177439047Y-66440476D01*
X161777142Y-68992857D02*
X161824761Y-69040476D01*
X161872380Y-69183333D01*
X161872380Y-69278571D01*
X161824761Y-69421428D01*
X161729523Y-69516666D01*
X161634285Y-69564285D01*
X161443809Y-69611904D01*
X161300952Y-69611904D01*
X161110476Y-69564285D01*
X161015238Y-69516666D01*
X160920000Y-69421428D01*
X160872380Y-69278571D01*
X160872380Y-69183333D01*
X160920000Y-69040476D01*
X160967619Y-68992857D01*
X161872380Y-68040476D02*
X161872380Y-68611904D01*
X161872380Y-68326190D02*
X160872380Y-68326190D01*
X161015238Y-68421428D01*
X161110476Y-68516666D01*
X161158095Y-68611904D01*
X160872380Y-67135714D02*
X160872380Y-67611904D01*
X161348571Y-67659523D01*
X161300952Y-67611904D01*
X161253333Y-67516666D01*
X161253333Y-67278571D01*
X161300952Y-67183333D01*
X161348571Y-67135714D01*
X161443809Y-67088095D01*
X161681904Y-67088095D01*
X161777142Y-67135714D01*
X161824761Y-67183333D01*
X161872380Y-67278571D01*
X161872380Y-67516666D01*
X161824761Y-67611904D01*
X161777142Y-67659523D01*
X161457142Y-75742857D02*
X161504761Y-75790476D01*
X161552380Y-75933333D01*
X161552380Y-76028571D01*
X161504761Y-76171428D01*
X161409523Y-76266666D01*
X161314285Y-76314285D01*
X161123809Y-76361904D01*
X160980952Y-76361904D01*
X160790476Y-76314285D01*
X160695238Y-76266666D01*
X160600000Y-76171428D01*
X160552380Y-76028571D01*
X160552380Y-75933333D01*
X160600000Y-75790476D01*
X160647619Y-75742857D01*
X161552380Y-74790476D02*
X161552380Y-75361904D01*
X161552380Y-75076190D02*
X160552380Y-75076190D01*
X160695238Y-75171428D01*
X160790476Y-75266666D01*
X160838095Y-75361904D01*
X160552380Y-73933333D02*
X160552380Y-74123809D01*
X160600000Y-74219047D01*
X160647619Y-74266666D01*
X160790476Y-74361904D01*
X160980952Y-74409523D01*
X161361904Y-74409523D01*
X161457142Y-74361904D01*
X161504761Y-74314285D01*
X161552380Y-74219047D01*
X161552380Y-74028571D01*
X161504761Y-73933333D01*
X161457142Y-73885714D01*
X161361904Y-73838095D01*
X161123809Y-73838095D01*
X161028571Y-73885714D01*
X160980952Y-73933333D01*
X160933333Y-74028571D01*
X160933333Y-74219047D01*
X160980952Y-74314285D01*
X161028571Y-74361904D01*
X161123809Y-74409523D01*
X166957142Y-76957142D02*
X166909523Y-77004761D01*
X166766666Y-77052380D01*
X166671428Y-77052380D01*
X166528571Y-77004761D01*
X166433333Y-76909523D01*
X166385714Y-76814285D01*
X166338095Y-76623809D01*
X166338095Y-76480952D01*
X166385714Y-76290476D01*
X166433333Y-76195238D01*
X166528571Y-76100000D01*
X166671428Y-76052380D01*
X166766666Y-76052380D01*
X166909523Y-76100000D01*
X166957142Y-76147619D01*
X167909523Y-77052380D02*
X167338095Y-77052380D01*
X167623809Y-77052380D02*
X167623809Y-76052380D01*
X167528571Y-76195238D01*
X167433333Y-76290476D01*
X167338095Y-76338095D01*
X168242857Y-76052380D02*
X168909523Y-76052380D01*
X168480952Y-77052380D01*
X170207142Y-67242857D02*
X170254761Y-67290476D01*
X170302380Y-67433333D01*
X170302380Y-67528571D01*
X170254761Y-67671428D01*
X170159523Y-67766666D01*
X170064285Y-67814285D01*
X169873809Y-67861904D01*
X169730952Y-67861904D01*
X169540476Y-67814285D01*
X169445238Y-67766666D01*
X169350000Y-67671428D01*
X169302380Y-67528571D01*
X169302380Y-67433333D01*
X169350000Y-67290476D01*
X169397619Y-67242857D01*
X170302380Y-66290476D02*
X170302380Y-66861904D01*
X170302380Y-66576190D02*
X169302380Y-66576190D01*
X169445238Y-66671428D01*
X169540476Y-66766666D01*
X169588095Y-66861904D01*
X169730952Y-65719047D02*
X169683333Y-65814285D01*
X169635714Y-65861904D01*
X169540476Y-65909523D01*
X169492857Y-65909523D01*
X169397619Y-65861904D01*
X169350000Y-65814285D01*
X169302380Y-65719047D01*
X169302380Y-65528571D01*
X169350000Y-65433333D01*
X169397619Y-65385714D01*
X169492857Y-65338095D01*
X169540476Y-65338095D01*
X169635714Y-65385714D01*
X169683333Y-65433333D01*
X169730952Y-65528571D01*
X169730952Y-65719047D01*
X169778571Y-65814285D01*
X169826190Y-65861904D01*
X169921428Y-65909523D01*
X170111904Y-65909523D01*
X170207142Y-65861904D01*
X170254761Y-65814285D01*
X170302380Y-65719047D01*
X170302380Y-65528571D01*
X170254761Y-65433333D01*
X170207142Y-65385714D01*
X170111904Y-65338095D01*
X169921428Y-65338095D01*
X169826190Y-65385714D01*
X169778571Y-65433333D01*
X169730952Y-65528571D01*
X183207142Y-80142857D02*
X183254761Y-80190476D01*
X183302380Y-80333333D01*
X183302380Y-80428571D01*
X183254761Y-80571428D01*
X183159523Y-80666666D01*
X183064285Y-80714285D01*
X182873809Y-80761904D01*
X182730952Y-80761904D01*
X182540476Y-80714285D01*
X182445238Y-80666666D01*
X182350000Y-80571428D01*
X182302380Y-80428571D01*
X182302380Y-80333333D01*
X182350000Y-80190476D01*
X182397619Y-80142857D01*
X183302380Y-79190476D02*
X183302380Y-79761904D01*
X183302380Y-79476190D02*
X182302380Y-79476190D01*
X182445238Y-79571428D01*
X182540476Y-79666666D01*
X182588095Y-79761904D01*
X183302380Y-78714285D02*
X183302380Y-78523809D01*
X183254761Y-78428571D01*
X183207142Y-78380952D01*
X183064285Y-78285714D01*
X182873809Y-78238095D01*
X182492857Y-78238095D01*
X182397619Y-78285714D01*
X182350000Y-78333333D01*
X182302380Y-78428571D01*
X182302380Y-78619047D01*
X182350000Y-78714285D01*
X182397619Y-78761904D01*
X182492857Y-78809523D01*
X182730952Y-78809523D01*
X182826190Y-78761904D01*
X182873809Y-78714285D01*
X182921428Y-78619047D01*
X182921428Y-78428571D01*
X182873809Y-78333333D01*
X182826190Y-78285714D01*
X182730952Y-78238095D01*
X174207142Y-77492857D02*
X174254761Y-77540476D01*
X174302380Y-77683333D01*
X174302380Y-77778571D01*
X174254761Y-77921428D01*
X174159523Y-78016666D01*
X174064285Y-78064285D01*
X173873809Y-78111904D01*
X173730952Y-78111904D01*
X173540476Y-78064285D01*
X173445238Y-78016666D01*
X173350000Y-77921428D01*
X173302380Y-77778571D01*
X173302380Y-77683333D01*
X173350000Y-77540476D01*
X173397619Y-77492857D01*
X173397619Y-77111904D02*
X173350000Y-77064285D01*
X173302380Y-76969047D01*
X173302380Y-76730952D01*
X173350000Y-76635714D01*
X173397619Y-76588095D01*
X173492857Y-76540476D01*
X173588095Y-76540476D01*
X173730952Y-76588095D01*
X174302380Y-77159523D01*
X174302380Y-76540476D01*
X173302380Y-75921428D02*
X173302380Y-75826190D01*
X173350000Y-75730952D01*
X173397619Y-75683333D01*
X173492857Y-75635714D01*
X173683333Y-75588095D01*
X173921428Y-75588095D01*
X174111904Y-75635714D01*
X174207142Y-75683333D01*
X174254761Y-75730952D01*
X174302380Y-75826190D01*
X174302380Y-75921428D01*
X174254761Y-76016666D01*
X174207142Y-76064285D01*
X174111904Y-76111904D01*
X173921428Y-76159523D01*
X173683333Y-76159523D01*
X173492857Y-76111904D01*
X173397619Y-76064285D01*
X173350000Y-76016666D01*
X173302380Y-75921428D01*
X206507142Y-105292857D02*
X206554761Y-105340476D01*
X206602380Y-105483333D01*
X206602380Y-105578571D01*
X206554761Y-105721428D01*
X206459523Y-105816666D01*
X206364285Y-105864285D01*
X206173809Y-105911904D01*
X206030952Y-105911904D01*
X205840476Y-105864285D01*
X205745238Y-105816666D01*
X205650000Y-105721428D01*
X205602380Y-105578571D01*
X205602380Y-105483333D01*
X205650000Y-105340476D01*
X205697619Y-105292857D01*
X205697619Y-104911904D02*
X205650000Y-104864285D01*
X205602380Y-104769047D01*
X205602380Y-104530952D01*
X205650000Y-104435714D01*
X205697619Y-104388095D01*
X205792857Y-104340476D01*
X205888095Y-104340476D01*
X206030952Y-104388095D01*
X206602380Y-104959523D01*
X206602380Y-104340476D01*
X206602380Y-103388095D02*
X206602380Y-103959523D01*
X206602380Y-103673809D02*
X205602380Y-103673809D01*
X205745238Y-103769047D01*
X205840476Y-103864285D01*
X205888095Y-103959523D01*
X199507142Y-118042857D02*
X199554761Y-118090476D01*
X199602380Y-118233333D01*
X199602380Y-118328571D01*
X199554761Y-118471428D01*
X199459523Y-118566666D01*
X199364285Y-118614285D01*
X199173809Y-118661904D01*
X199030952Y-118661904D01*
X198840476Y-118614285D01*
X198745238Y-118566666D01*
X198650000Y-118471428D01*
X198602380Y-118328571D01*
X198602380Y-118233333D01*
X198650000Y-118090476D01*
X198697619Y-118042857D01*
X198697619Y-117661904D02*
X198650000Y-117614285D01*
X198602380Y-117519047D01*
X198602380Y-117280952D01*
X198650000Y-117185714D01*
X198697619Y-117138095D01*
X198792857Y-117090476D01*
X198888095Y-117090476D01*
X199030952Y-117138095D01*
X199602380Y-117709523D01*
X199602380Y-117090476D01*
X198697619Y-116709523D02*
X198650000Y-116661904D01*
X198602380Y-116566666D01*
X198602380Y-116328571D01*
X198650000Y-116233333D01*
X198697619Y-116185714D01*
X198792857Y-116138095D01*
X198888095Y-116138095D01*
X199030952Y-116185714D01*
X199602380Y-116757142D01*
X199602380Y-116138095D01*
X195007142Y-113542857D02*
X195054761Y-113590476D01*
X195102380Y-113733333D01*
X195102380Y-113828571D01*
X195054761Y-113971428D01*
X194959523Y-114066666D01*
X194864285Y-114114285D01*
X194673809Y-114161904D01*
X194530952Y-114161904D01*
X194340476Y-114114285D01*
X194245238Y-114066666D01*
X194150000Y-113971428D01*
X194102380Y-113828571D01*
X194102380Y-113733333D01*
X194150000Y-113590476D01*
X194197619Y-113542857D01*
X194197619Y-113161904D02*
X194150000Y-113114285D01*
X194102380Y-113019047D01*
X194102380Y-112780952D01*
X194150000Y-112685714D01*
X194197619Y-112638095D01*
X194292857Y-112590476D01*
X194388095Y-112590476D01*
X194530952Y-112638095D01*
X195102380Y-113209523D01*
X195102380Y-112590476D01*
X194102380Y-112257142D02*
X194102380Y-111638095D01*
X194483333Y-111971428D01*
X194483333Y-111828571D01*
X194530952Y-111733333D01*
X194578571Y-111685714D01*
X194673809Y-111638095D01*
X194911904Y-111638095D01*
X195007142Y-111685714D01*
X195054761Y-111733333D01*
X195102380Y-111828571D01*
X195102380Y-112114285D01*
X195054761Y-112209523D01*
X195007142Y-112257142D01*
X211757142Y-116592857D02*
X211804761Y-116640476D01*
X211852380Y-116783333D01*
X211852380Y-116878571D01*
X211804761Y-117021428D01*
X211709523Y-117116666D01*
X211614285Y-117164285D01*
X211423809Y-117211904D01*
X211280952Y-117211904D01*
X211090476Y-117164285D01*
X210995238Y-117116666D01*
X210900000Y-117021428D01*
X210852380Y-116878571D01*
X210852380Y-116783333D01*
X210900000Y-116640476D01*
X210947619Y-116592857D01*
X210947619Y-116211904D02*
X210900000Y-116164285D01*
X210852380Y-116069047D01*
X210852380Y-115830952D01*
X210900000Y-115735714D01*
X210947619Y-115688095D01*
X211042857Y-115640476D01*
X211138095Y-115640476D01*
X211280952Y-115688095D01*
X211852380Y-116259523D01*
X211852380Y-115640476D01*
X211185714Y-114783333D02*
X211852380Y-114783333D01*
X210804761Y-115021428D02*
X211519047Y-115259523D01*
X211519047Y-114640476D01*
X224028571Y-85452380D02*
X223695238Y-84976190D01*
X223457142Y-85452380D02*
X223457142Y-84452380D01*
X223838095Y-84452380D01*
X223933333Y-84500000D01*
X223980952Y-84547619D01*
X224028571Y-84642857D01*
X224028571Y-84785714D01*
X223980952Y-84880952D01*
X223933333Y-84928571D01*
X223838095Y-84976190D01*
X223457142Y-84976190D01*
X224457142Y-84928571D02*
X224790476Y-84928571D01*
X224933333Y-85452380D02*
X224457142Y-85452380D01*
X224457142Y-84452380D01*
X224933333Y-84452380D01*
X225695238Y-84928571D02*
X225361904Y-84928571D01*
X225361904Y-85452380D02*
X225361904Y-84452380D01*
X225838095Y-84452380D01*
X224076190Y-70352380D02*
X224076190Y-69352380D01*
X224552380Y-70352380D02*
X224552380Y-69352380D01*
X225123809Y-70352380D01*
X225123809Y-69352380D01*
X198552380Y-103833333D02*
X199266666Y-103833333D01*
X199409523Y-103880952D01*
X199504761Y-103976190D01*
X199552380Y-104119047D01*
X199552380Y-104214285D01*
X199552380Y-103357142D02*
X198552380Y-103357142D01*
X198552380Y-102976190D01*
X198600000Y-102880952D01*
X198647619Y-102833333D01*
X198742857Y-102785714D01*
X198885714Y-102785714D01*
X198980952Y-102833333D01*
X199028571Y-102880952D01*
X199076190Y-102976190D01*
X199076190Y-103357142D01*
X199552380Y-101833333D02*
X199552380Y-102404761D01*
X199552380Y-102119047D02*
X198552380Y-102119047D01*
X198695238Y-102214285D01*
X198790476Y-102309523D01*
X198838095Y-102404761D01*
D15*
X140557619Y-56393333D02*
X142652857Y-56393333D01*
X140138571Y-57650476D02*
X141605238Y-53250476D01*
X143071904Y-57650476D01*
X144538571Y-57650476D02*
X144538571Y-53250476D01*
X146214761Y-53250476D01*
X146633809Y-53460000D01*
X146843333Y-53669523D01*
X147052857Y-54088571D01*
X147052857Y-54717142D01*
X146843333Y-55136190D01*
X146633809Y-55345714D01*
X146214761Y-55555238D01*
X144538571Y-55555238D01*
X151871904Y-58069523D02*
X151452857Y-57860000D01*
X151033809Y-57440952D01*
X150405238Y-56812380D01*
X149986190Y-56602857D01*
X149567142Y-56602857D01*
X149776666Y-57650476D02*
X149357619Y-57440952D01*
X148938571Y-57021904D01*
X148729047Y-56183809D01*
X148729047Y-54717142D01*
X148938571Y-53879047D01*
X149357619Y-53460000D01*
X149776666Y-53250476D01*
X150614761Y-53250476D01*
X151033809Y-53460000D01*
X151452857Y-53879047D01*
X151662380Y-54717142D01*
X151662380Y-56183809D01*
X151452857Y-57021904D01*
X151033809Y-57440952D01*
X150614761Y-57650476D01*
X149776666Y-57650476D01*
D11*
X112302380Y-98416666D02*
X111826190Y-98750000D01*
X112302380Y-98988095D02*
X111302380Y-98988095D01*
X111302380Y-98607142D01*
X111350000Y-98511904D01*
X111397619Y-98464285D01*
X111492857Y-98416666D01*
X111635714Y-98416666D01*
X111730952Y-98464285D01*
X111778571Y-98511904D01*
X111826190Y-98607142D01*
X111826190Y-98988095D01*
X112302380Y-97464285D02*
X112302380Y-98035714D01*
X112302380Y-97750000D02*
X111302380Y-97750000D01*
X111445238Y-97845238D01*
X111540476Y-97940476D01*
X111588095Y-98035714D01*
X108933333Y-111702380D02*
X108600000Y-111226190D01*
X108361904Y-111702380D02*
X108361904Y-110702380D01*
X108742857Y-110702380D01*
X108838095Y-110750000D01*
X108885714Y-110797619D01*
X108933333Y-110892857D01*
X108933333Y-111035714D01*
X108885714Y-111130952D01*
X108838095Y-111178571D01*
X108742857Y-111226190D01*
X108361904Y-111226190D01*
X109314285Y-110797619D02*
X109361904Y-110750000D01*
X109457142Y-110702380D01*
X109695238Y-110702380D01*
X109790476Y-110750000D01*
X109838095Y-110797619D01*
X109885714Y-110892857D01*
X109885714Y-110988095D01*
X109838095Y-111130952D01*
X109266666Y-111702380D01*
X109885714Y-111702380D01*
X188732380Y-67516666D02*
X188256190Y-67850000D01*
X188732380Y-68088095D02*
X187732380Y-68088095D01*
X187732380Y-67707142D01*
X187780000Y-67611904D01*
X187827619Y-67564285D01*
X187922857Y-67516666D01*
X188065714Y-67516666D01*
X188160952Y-67564285D01*
X188208571Y-67611904D01*
X188256190Y-67707142D01*
X188256190Y-68088095D01*
X187732380Y-67183333D02*
X187732380Y-66564285D01*
X188113333Y-66897619D01*
X188113333Y-66754761D01*
X188160952Y-66659523D01*
X188208571Y-66611904D01*
X188303809Y-66564285D01*
X188541904Y-66564285D01*
X188637142Y-66611904D01*
X188684761Y-66659523D01*
X188732380Y-66754761D01*
X188732380Y-67040476D01*
X188684761Y-67135714D01*
X188637142Y-67183333D01*
X183372380Y-76416666D02*
X182896190Y-76750000D01*
X183372380Y-76988095D02*
X182372380Y-76988095D01*
X182372380Y-76607142D01*
X182420000Y-76511904D01*
X182467619Y-76464285D01*
X182562857Y-76416666D01*
X182705714Y-76416666D01*
X182800952Y-76464285D01*
X182848571Y-76511904D01*
X182896190Y-76607142D01*
X182896190Y-76988095D01*
X182705714Y-75559523D02*
X183372380Y-75559523D01*
X182324761Y-75797619D02*
X183039047Y-76035714D01*
X183039047Y-75416666D01*
X183382380Y-69616666D02*
X182906190Y-69950000D01*
X183382380Y-70188095D02*
X182382380Y-70188095D01*
X182382380Y-69807142D01*
X182430000Y-69711904D01*
X182477619Y-69664285D01*
X182572857Y-69616666D01*
X182715714Y-69616666D01*
X182810952Y-69664285D01*
X182858571Y-69711904D01*
X182906190Y-69807142D01*
X182906190Y-70188095D01*
X182382380Y-68711904D02*
X182382380Y-69188095D01*
X182858571Y-69235714D01*
X182810952Y-69188095D01*
X182763333Y-69092857D01*
X182763333Y-68854761D01*
X182810952Y-68759523D01*
X182858571Y-68711904D01*
X182953809Y-68664285D01*
X183191904Y-68664285D01*
X183287142Y-68711904D01*
X183334761Y-68759523D01*
X183382380Y-68854761D01*
X183382380Y-69092857D01*
X183334761Y-69188095D01*
X183287142Y-69235714D01*
X187802380Y-80266666D02*
X187326190Y-80600000D01*
X187802380Y-80838095D02*
X186802380Y-80838095D01*
X186802380Y-80457142D01*
X186850000Y-80361904D01*
X186897619Y-80314285D01*
X186992857Y-80266666D01*
X187135714Y-80266666D01*
X187230952Y-80314285D01*
X187278571Y-80361904D01*
X187326190Y-80457142D01*
X187326190Y-80838095D01*
X186802380Y-79409523D02*
X186802380Y-79600000D01*
X186850000Y-79695238D01*
X186897619Y-79742857D01*
X187040476Y-79838095D01*
X187230952Y-79885714D01*
X187611904Y-79885714D01*
X187707142Y-79838095D01*
X187754761Y-79790476D01*
X187802380Y-79695238D01*
X187802380Y-79504761D01*
X187754761Y-79409523D01*
X187707142Y-79361904D01*
X187611904Y-79314285D01*
X187373809Y-79314285D01*
X187278571Y-79361904D01*
X187230952Y-79409523D01*
X187183333Y-79504761D01*
X187183333Y-79695238D01*
X187230952Y-79790476D01*
X187278571Y-79838095D01*
X187373809Y-79885714D01*
X182033333Y-72172380D02*
X181700000Y-71696190D01*
X181461904Y-72172380D02*
X181461904Y-71172380D01*
X181842857Y-71172380D01*
X181938095Y-71220000D01*
X181985714Y-71267619D01*
X182033333Y-71362857D01*
X182033333Y-71505714D01*
X181985714Y-71600952D01*
X181938095Y-71648571D01*
X181842857Y-71696190D01*
X181461904Y-71696190D01*
X182366666Y-71172380D02*
X183033333Y-71172380D01*
X182604761Y-72172380D01*
X177833333Y-74522380D02*
X177500000Y-74046190D01*
X177261904Y-74522380D02*
X177261904Y-73522380D01*
X177642857Y-73522380D01*
X177738095Y-73570000D01*
X177785714Y-73617619D01*
X177833333Y-73712857D01*
X177833333Y-73855714D01*
X177785714Y-73950952D01*
X177738095Y-73998571D01*
X177642857Y-74046190D01*
X177261904Y-74046190D01*
X178404761Y-73950952D02*
X178309523Y-73903333D01*
X178261904Y-73855714D01*
X178214285Y-73760476D01*
X178214285Y-73712857D01*
X178261904Y-73617619D01*
X178309523Y-73570000D01*
X178404761Y-73522380D01*
X178595238Y-73522380D01*
X178690476Y-73570000D01*
X178738095Y-73617619D01*
X178785714Y-73712857D01*
X178785714Y-73760476D01*
X178738095Y-73855714D01*
X178690476Y-73903333D01*
X178595238Y-73950952D01*
X178404761Y-73950952D01*
X178309523Y-73998571D01*
X178261904Y-74046190D01*
X178214285Y-74141428D01*
X178214285Y-74331904D01*
X178261904Y-74427142D01*
X178309523Y-74474761D01*
X178404761Y-74522380D01*
X178595238Y-74522380D01*
X178690476Y-74474761D01*
X178738095Y-74427142D01*
X178785714Y-74331904D01*
X178785714Y-74141428D01*
X178738095Y-74046190D01*
X178690476Y-73998571D01*
X178595238Y-73950952D01*
X177933333Y-72302380D02*
X177600000Y-71826190D01*
X177361904Y-72302380D02*
X177361904Y-71302380D01*
X177742857Y-71302380D01*
X177838095Y-71350000D01*
X177885714Y-71397619D01*
X177933333Y-71492857D01*
X177933333Y-71635714D01*
X177885714Y-71730952D01*
X177838095Y-71778571D01*
X177742857Y-71826190D01*
X177361904Y-71826190D01*
X178409523Y-72302380D02*
X178600000Y-72302380D01*
X178695238Y-72254761D01*
X178742857Y-72207142D01*
X178838095Y-72064285D01*
X178885714Y-71873809D01*
X178885714Y-71492857D01*
X178838095Y-71397619D01*
X178790476Y-71350000D01*
X178695238Y-71302380D01*
X178504761Y-71302380D01*
X178409523Y-71350000D01*
X178361904Y-71397619D01*
X178314285Y-71492857D01*
X178314285Y-71730952D01*
X178361904Y-71826190D01*
X178409523Y-71873809D01*
X178504761Y-71921428D01*
X178695238Y-71921428D01*
X178790476Y-71873809D01*
X178838095Y-71826190D01*
X178885714Y-71730952D01*
X172872380Y-69992857D02*
X172396190Y-70326190D01*
X172872380Y-70564285D02*
X171872380Y-70564285D01*
X171872380Y-70183333D01*
X171920000Y-70088095D01*
X171967619Y-70040476D01*
X172062857Y-69992857D01*
X172205714Y-69992857D01*
X172300952Y-70040476D01*
X172348571Y-70088095D01*
X172396190Y-70183333D01*
X172396190Y-70564285D01*
X172872380Y-69040476D02*
X172872380Y-69611904D01*
X172872380Y-69326190D02*
X171872380Y-69326190D01*
X172015238Y-69421428D01*
X172110476Y-69516666D01*
X172158095Y-69611904D01*
X171872380Y-68421428D02*
X171872380Y-68326190D01*
X171920000Y-68230952D01*
X171967619Y-68183333D01*
X172062857Y-68135714D01*
X172253333Y-68088095D01*
X172491428Y-68088095D01*
X172681904Y-68135714D01*
X172777142Y-68183333D01*
X172824761Y-68230952D01*
X172872380Y-68326190D01*
X172872380Y-68421428D01*
X172824761Y-68516666D01*
X172777142Y-68564285D01*
X172681904Y-68611904D01*
X172491428Y-68659523D01*
X172253333Y-68659523D01*
X172062857Y-68611904D01*
X171967619Y-68564285D01*
X171920000Y-68516666D01*
X171872380Y-68421428D01*
X172552380Y-77492857D02*
X172076190Y-77826190D01*
X172552380Y-78064285D02*
X171552380Y-78064285D01*
X171552380Y-77683333D01*
X171600000Y-77588095D01*
X171647619Y-77540476D01*
X171742857Y-77492857D01*
X171885714Y-77492857D01*
X171980952Y-77540476D01*
X172028571Y-77588095D01*
X172076190Y-77683333D01*
X172076190Y-78064285D01*
X172552380Y-76540476D02*
X172552380Y-77111904D01*
X172552380Y-76826190D02*
X171552380Y-76826190D01*
X171695238Y-76921428D01*
X171790476Y-77016666D01*
X171838095Y-77111904D01*
X172552380Y-75588095D02*
X172552380Y-76159523D01*
X172552380Y-75873809D02*
X171552380Y-75873809D01*
X171695238Y-75969047D01*
X171790476Y-76064285D01*
X171838095Y-76159523D01*
X166207142Y-68122380D02*
X165873809Y-67646190D01*
X165635714Y-68122380D02*
X165635714Y-67122380D01*
X166016666Y-67122380D01*
X166111904Y-67170000D01*
X166159523Y-67217619D01*
X166207142Y-67312857D01*
X166207142Y-67455714D01*
X166159523Y-67550952D01*
X166111904Y-67598571D01*
X166016666Y-67646190D01*
X165635714Y-67646190D01*
X167159523Y-68122380D02*
X166588095Y-68122380D01*
X166873809Y-68122380D02*
X166873809Y-67122380D01*
X166778571Y-67265238D01*
X166683333Y-67360476D01*
X166588095Y-67408095D01*
X167540476Y-67217619D02*
X167588095Y-67170000D01*
X167683333Y-67122380D01*
X167921428Y-67122380D01*
X168016666Y-67170000D01*
X168064285Y-67217619D01*
X168111904Y-67312857D01*
X168111904Y-67408095D01*
X168064285Y-67550952D01*
X167492857Y-68122380D01*
X168111904Y-68122380D01*
X163302380Y-75742857D02*
X162826190Y-76076190D01*
X163302380Y-76314285D02*
X162302380Y-76314285D01*
X162302380Y-75933333D01*
X162350000Y-75838095D01*
X162397619Y-75790476D01*
X162492857Y-75742857D01*
X162635714Y-75742857D01*
X162730952Y-75790476D01*
X162778571Y-75838095D01*
X162826190Y-75933333D01*
X162826190Y-76314285D01*
X163302380Y-74790476D02*
X163302380Y-75361904D01*
X163302380Y-75076190D02*
X162302380Y-75076190D01*
X162445238Y-75171428D01*
X162540476Y-75266666D01*
X162588095Y-75361904D01*
X162302380Y-74457142D02*
X162302380Y-73838095D01*
X162683333Y-74171428D01*
X162683333Y-74028571D01*
X162730952Y-73933333D01*
X162778571Y-73885714D01*
X162873809Y-73838095D01*
X163111904Y-73838095D01*
X163207142Y-73885714D01*
X163254761Y-73933333D01*
X163302380Y-74028571D01*
X163302380Y-74314285D01*
X163254761Y-74409523D01*
X163207142Y-74457142D01*
X159552380Y-75742857D02*
X159076190Y-76076190D01*
X159552380Y-76314285D02*
X158552380Y-76314285D01*
X158552380Y-75933333D01*
X158600000Y-75838095D01*
X158647619Y-75790476D01*
X158742857Y-75742857D01*
X158885714Y-75742857D01*
X158980952Y-75790476D01*
X159028571Y-75838095D01*
X159076190Y-75933333D01*
X159076190Y-76314285D01*
X159552380Y-74790476D02*
X159552380Y-75361904D01*
X159552380Y-75076190D02*
X158552380Y-75076190D01*
X158695238Y-75171428D01*
X158790476Y-75266666D01*
X158838095Y-75361904D01*
X158885714Y-73933333D02*
X159552380Y-73933333D01*
X158504761Y-74171428D02*
X159219047Y-74409523D01*
X159219047Y-73790476D01*
X210857142Y-137732380D02*
X210523809Y-137256190D01*
X210285714Y-137732380D02*
X210285714Y-136732380D01*
X210666666Y-136732380D01*
X210761904Y-136780000D01*
X210809523Y-136827619D01*
X210857142Y-136922857D01*
X210857142Y-137065714D01*
X210809523Y-137160952D01*
X210761904Y-137208571D01*
X210666666Y-137256190D01*
X210285714Y-137256190D01*
X211809523Y-137732380D02*
X211238095Y-137732380D01*
X211523809Y-137732380D02*
X211523809Y-136732380D01*
X211428571Y-136875238D01*
X211333333Y-136970476D01*
X211238095Y-137018095D01*
X212714285Y-136732380D02*
X212238095Y-136732380D01*
X212190476Y-137208571D01*
X212238095Y-137160952D01*
X212333333Y-137113333D01*
X212571428Y-137113333D01*
X212666666Y-137160952D01*
X212714285Y-137208571D01*
X212761904Y-137303809D01*
X212761904Y-137541904D01*
X212714285Y-137637142D01*
X212666666Y-137684761D01*
X212571428Y-137732380D01*
X212333333Y-137732380D01*
X212238095Y-137684761D01*
X212190476Y-137637142D01*
X207707142Y-95152380D02*
X207373809Y-94676190D01*
X207135714Y-95152380D02*
X207135714Y-94152380D01*
X207516666Y-94152380D01*
X207611904Y-94200000D01*
X207659523Y-94247619D01*
X207707142Y-94342857D01*
X207707142Y-94485714D01*
X207659523Y-94580952D01*
X207611904Y-94628571D01*
X207516666Y-94676190D01*
X207135714Y-94676190D01*
X208659523Y-95152380D02*
X208088095Y-95152380D01*
X208373809Y-95152380D02*
X208373809Y-94152380D01*
X208278571Y-94295238D01*
X208183333Y-94390476D01*
X208088095Y-94438095D01*
X209516666Y-94152380D02*
X209326190Y-94152380D01*
X209230952Y-94200000D01*
X209183333Y-94247619D01*
X209088095Y-94390476D01*
X209040476Y-94580952D01*
X209040476Y-94961904D01*
X209088095Y-95057142D01*
X209135714Y-95104761D01*
X209230952Y-95152380D01*
X209421428Y-95152380D01*
X209516666Y-95104761D01*
X209564285Y-95057142D01*
X209611904Y-94961904D01*
X209611904Y-94723809D01*
X209564285Y-94628571D01*
X209516666Y-94580952D01*
X209421428Y-94533333D01*
X209230952Y-94533333D01*
X209135714Y-94580952D01*
X209088095Y-94628571D01*
X209040476Y-94723809D01*
X202757142Y-115252380D02*
X202423809Y-114776190D01*
X202185714Y-115252380D02*
X202185714Y-114252380D01*
X202566666Y-114252380D01*
X202661904Y-114300000D01*
X202709523Y-114347619D01*
X202757142Y-114442857D01*
X202757142Y-114585714D01*
X202709523Y-114680952D01*
X202661904Y-114728571D01*
X202566666Y-114776190D01*
X202185714Y-114776190D01*
X203709523Y-115252380D02*
X203138095Y-115252380D01*
X203423809Y-115252380D02*
X203423809Y-114252380D01*
X203328571Y-114395238D01*
X203233333Y-114490476D01*
X203138095Y-114538095D01*
X204042857Y-114252380D02*
X204709523Y-114252380D01*
X204280952Y-115252380D01*
X197352380Y-113542857D02*
X196876190Y-113876190D01*
X197352380Y-114114285D02*
X196352380Y-114114285D01*
X196352380Y-113733333D01*
X196400000Y-113638095D01*
X196447619Y-113590476D01*
X196542857Y-113542857D01*
X196685714Y-113542857D01*
X196780952Y-113590476D01*
X196828571Y-113638095D01*
X196876190Y-113733333D01*
X196876190Y-114114285D01*
X197352380Y-112590476D02*
X197352380Y-113161904D01*
X197352380Y-112876190D02*
X196352380Y-112876190D01*
X196495238Y-112971428D01*
X196590476Y-113066666D01*
X196638095Y-113161904D01*
X196780952Y-112019047D02*
X196733333Y-112114285D01*
X196685714Y-112161904D01*
X196590476Y-112209523D01*
X196542857Y-112209523D01*
X196447619Y-112161904D01*
X196400000Y-112114285D01*
X196352380Y-112019047D01*
X196352380Y-111828571D01*
X196400000Y-111733333D01*
X196447619Y-111685714D01*
X196542857Y-111638095D01*
X196590476Y-111638095D01*
X196685714Y-111685714D01*
X196733333Y-111733333D01*
X196780952Y-111828571D01*
X196780952Y-112019047D01*
X196828571Y-112114285D01*
X196876190Y-112161904D01*
X196971428Y-112209523D01*
X197161904Y-112209523D01*
X197257142Y-112161904D01*
X197304761Y-112114285D01*
X197352380Y-112019047D01*
X197352380Y-111828571D01*
X197304761Y-111733333D01*
X197257142Y-111685714D01*
X197161904Y-111638095D01*
X196971428Y-111638095D01*
X196876190Y-111685714D01*
X196828571Y-111733333D01*
X196780952Y-111828571D01*
X213652380Y-108942857D02*
X213176190Y-109276190D01*
X213652380Y-109514285D02*
X212652380Y-109514285D01*
X212652380Y-109133333D01*
X212700000Y-109038095D01*
X212747619Y-108990476D01*
X212842857Y-108942857D01*
X212985714Y-108942857D01*
X213080952Y-108990476D01*
X213128571Y-109038095D01*
X213176190Y-109133333D01*
X213176190Y-109514285D01*
X213652380Y-107990476D02*
X213652380Y-108561904D01*
X213652380Y-108276190D02*
X212652380Y-108276190D01*
X212795238Y-108371428D01*
X212890476Y-108466666D01*
X212938095Y-108561904D01*
X213652380Y-107514285D02*
X213652380Y-107323809D01*
X213604761Y-107228571D01*
X213557142Y-107180952D01*
X213414285Y-107085714D01*
X213223809Y-107038095D01*
X212842857Y-107038095D01*
X212747619Y-107085714D01*
X212700000Y-107133333D01*
X212652380Y-107228571D01*
X212652380Y-107419047D01*
X212700000Y-107514285D01*
X212747619Y-107561904D01*
X212842857Y-107609523D01*
X213080952Y-107609523D01*
X213176190Y-107561904D01*
X213223809Y-107514285D01*
X213271428Y-107419047D01*
X213271428Y-107228571D01*
X213223809Y-107133333D01*
X213176190Y-107085714D01*
X213080952Y-107038095D01*
X227804761Y-98572380D02*
X227471428Y-98096190D01*
X227233333Y-98572380D02*
X227233333Y-97572380D01*
X227614285Y-97572380D01*
X227709523Y-97620000D01*
X227757142Y-97667619D01*
X227804761Y-97762857D01*
X227804761Y-97905714D01*
X227757142Y-98000952D01*
X227709523Y-98048571D01*
X227614285Y-98096190D01*
X227233333Y-98096190D01*
X228090476Y-97572380D02*
X228423809Y-98572380D01*
X228757142Y-97572380D01*
X229614285Y-98572380D02*
X229042857Y-98572380D01*
X229328571Y-98572380D02*
X229328571Y-97572380D01*
X229233333Y-97715238D01*
X229138095Y-97810476D01*
X229042857Y-97858095D01*
X102838095Y-96452380D02*
X102838095Y-97261904D01*
X102885714Y-97357142D01*
X102933333Y-97404761D01*
X103028571Y-97452380D01*
X103219047Y-97452380D01*
X103314285Y-97404761D01*
X103361904Y-97357142D01*
X103409523Y-97261904D01*
X103409523Y-96452380D01*
X103838095Y-96547619D02*
X103885714Y-96500000D01*
X103980952Y-96452380D01*
X104219047Y-96452380D01*
X104314285Y-96500000D01*
X104361904Y-96547619D01*
X104409523Y-96642857D01*
X104409523Y-96738095D01*
X104361904Y-96880952D01*
X103790476Y-97452380D01*
X104409523Y-97452380D01*
X111647619Y-103988095D02*
X110838095Y-103988095D01*
X110742857Y-104035714D01*
X110695238Y-104083333D01*
X110647619Y-104178571D01*
X110647619Y-104369047D01*
X110695238Y-104464285D01*
X110742857Y-104511904D01*
X110838095Y-104559523D01*
X111647619Y-104559523D01*
X111647619Y-104940476D02*
X111647619Y-105559523D01*
X111266666Y-105226190D01*
X111266666Y-105369047D01*
X111219047Y-105464285D01*
X111171428Y-105511904D01*
X111076190Y-105559523D01*
X110838095Y-105559523D01*
X110742857Y-105511904D01*
X110695238Y-105464285D01*
X110647619Y-105369047D01*
X110647619Y-105083333D01*
X110695238Y-104988095D01*
X110742857Y-104940476D01*
X190838095Y-75769880D02*
X190838095Y-76579404D01*
X190885714Y-76674642D01*
X190933333Y-76722261D01*
X191028571Y-76769880D01*
X191219047Y-76769880D01*
X191314285Y-76722261D01*
X191361904Y-76674642D01*
X191409523Y-76579404D01*
X191409523Y-75769880D01*
X192409523Y-76769880D02*
X191838095Y-76769880D01*
X192123809Y-76769880D02*
X192123809Y-75769880D01*
X192028571Y-75912738D01*
X191933333Y-76007976D01*
X191838095Y-76055595D01*
X166838095Y-70602380D02*
X166838095Y-71411904D01*
X166885714Y-71507142D01*
X166933333Y-71554761D01*
X167028571Y-71602380D01*
X167219047Y-71602380D01*
X167314285Y-71554761D01*
X167361904Y-71507142D01*
X167409523Y-71411904D01*
X167409523Y-70602380D01*
X168314285Y-70935714D02*
X168314285Y-71602380D01*
X168076190Y-70554761D02*
X167838095Y-71269047D01*
X168457142Y-71269047D01*
X200938095Y-106852380D02*
X200938095Y-107661904D01*
X200985714Y-107757142D01*
X201033333Y-107804761D01*
X201128571Y-107852380D01*
X201319047Y-107852380D01*
X201414285Y-107804761D01*
X201461904Y-107757142D01*
X201509523Y-107661904D01*
X201509523Y-106852380D01*
X202461904Y-106852380D02*
X201985714Y-106852380D01*
X201938095Y-107328571D01*
X201985714Y-107280952D01*
X202080952Y-107233333D01*
X202319047Y-107233333D01*
X202414285Y-107280952D01*
X202461904Y-107328571D01*
X202509523Y-107423809D01*
X202509523Y-107661904D01*
X202461904Y-107757142D01*
X202414285Y-107804761D01*
X202319047Y-107852380D01*
X202080952Y-107852380D01*
X201985714Y-107804761D01*
X201938095Y-107757142D01*
X186952380Y-109233333D02*
X187666666Y-109233333D01*
X187809523Y-109280952D01*
X187904761Y-109376190D01*
X187952380Y-109519047D01*
X187952380Y-109614285D01*
X187952380Y-108757142D02*
X186952380Y-108757142D01*
X186952380Y-108376190D01*
X187000000Y-108280952D01*
X187047619Y-108233333D01*
X187142857Y-108185714D01*
X187285714Y-108185714D01*
X187380952Y-108233333D01*
X187428571Y-108280952D01*
X187476190Y-108376190D01*
X187476190Y-108757142D01*
X187047619Y-107804761D02*
X187000000Y-107757142D01*
X186952380Y-107661904D01*
X186952380Y-107423809D01*
X187000000Y-107328571D01*
X187047619Y-107280952D01*
X187142857Y-107233333D01*
X187238095Y-107233333D01*
X187380952Y-107280952D01*
X187952380Y-107852380D01*
X187952380Y-107233333D01*
X217157142Y-66657142D02*
X217109523Y-66704761D01*
X216966666Y-66752380D01*
X216871428Y-66752380D01*
X216728571Y-66704761D01*
X216633333Y-66609523D01*
X216585714Y-66514285D01*
X216538095Y-66323809D01*
X216538095Y-66180952D01*
X216585714Y-65990476D01*
X216633333Y-65895238D01*
X216728571Y-65800000D01*
X216871428Y-65752380D01*
X216966666Y-65752380D01*
X217109523Y-65800000D01*
X217157142Y-65847619D01*
X217538095Y-65847619D02*
X217585714Y-65800000D01*
X217680952Y-65752380D01*
X217919047Y-65752380D01*
X218014285Y-65800000D01*
X218061904Y-65847619D01*
X218109523Y-65942857D01*
X218109523Y-66038095D01*
X218061904Y-66180952D01*
X217490476Y-66752380D01*
X218109523Y-66752380D01*
X218966666Y-65752380D02*
X218776190Y-65752380D01*
X218680952Y-65800000D01*
X218633333Y-65847619D01*
X218538095Y-65990476D01*
X218490476Y-66180952D01*
X218490476Y-66561904D01*
X218538095Y-66657142D01*
X218585714Y-66704761D01*
X218680952Y-66752380D01*
X218871428Y-66752380D01*
X218966666Y-66704761D01*
X219014285Y-66657142D01*
X219061904Y-66561904D01*
X219061904Y-66323809D01*
X219014285Y-66228571D01*
X218966666Y-66180952D01*
X218871428Y-66133333D01*
X218680952Y-66133333D01*
X218585714Y-66180952D01*
X218538095Y-66228571D01*
X218490476Y-66323809D01*
X112057142Y-140142857D02*
X112104761Y-140190476D01*
X112152380Y-140333333D01*
X112152380Y-140428571D01*
X112104761Y-140571428D01*
X112009523Y-140666666D01*
X111914285Y-140714285D01*
X111723809Y-140761904D01*
X111580952Y-140761904D01*
X111390476Y-140714285D01*
X111295238Y-140666666D01*
X111200000Y-140571428D01*
X111152380Y-140428571D01*
X111152380Y-140333333D01*
X111200000Y-140190476D01*
X111247619Y-140142857D01*
X111247619Y-139761904D02*
X111200000Y-139714285D01*
X111152380Y-139619047D01*
X111152380Y-139380952D01*
X111200000Y-139285714D01*
X111247619Y-139238095D01*
X111342857Y-139190476D01*
X111438095Y-139190476D01*
X111580952Y-139238095D01*
X112152380Y-139809523D01*
X112152380Y-139190476D01*
X112152380Y-138714285D02*
X112152380Y-138523809D01*
X112104761Y-138428571D01*
X112057142Y-138380952D01*
X111914285Y-138285714D01*
X111723809Y-138238095D01*
X111342857Y-138238095D01*
X111247619Y-138285714D01*
X111200000Y-138333333D01*
X111152380Y-138428571D01*
X111152380Y-138619047D01*
X111200000Y-138714285D01*
X111247619Y-138761904D01*
X111342857Y-138809523D01*
X111580952Y-138809523D01*
X111676190Y-138761904D01*
X111723809Y-138714285D01*
X111771428Y-138619047D01*
X111771428Y-138428571D01*
X111723809Y-138333333D01*
X111676190Y-138285714D01*
X111580952Y-138238095D01*
X101457142Y-140242857D02*
X101504761Y-140290476D01*
X101552380Y-140433333D01*
X101552380Y-140528571D01*
X101504761Y-140671428D01*
X101409523Y-140766666D01*
X101314285Y-140814285D01*
X101123809Y-140861904D01*
X100980952Y-140861904D01*
X100790476Y-140814285D01*
X100695238Y-140766666D01*
X100600000Y-140671428D01*
X100552380Y-140528571D01*
X100552380Y-140433333D01*
X100600000Y-140290476D01*
X100647619Y-140242857D01*
X100552380Y-139909523D02*
X100552380Y-139290476D01*
X100933333Y-139623809D01*
X100933333Y-139480952D01*
X100980952Y-139385714D01*
X101028571Y-139338095D01*
X101123809Y-139290476D01*
X101361904Y-139290476D01*
X101457142Y-139338095D01*
X101504761Y-139385714D01*
X101552380Y-139480952D01*
X101552380Y-139766666D01*
X101504761Y-139861904D01*
X101457142Y-139909523D01*
X100552380Y-138671428D02*
X100552380Y-138576190D01*
X100600000Y-138480952D01*
X100647619Y-138433333D01*
X100742857Y-138385714D01*
X100933333Y-138338095D01*
X101171428Y-138338095D01*
X101361904Y-138385714D01*
X101457142Y-138433333D01*
X101504761Y-138480952D01*
X101552380Y-138576190D01*
X101552380Y-138671428D01*
X101504761Y-138766666D01*
X101457142Y-138814285D01*
X101361904Y-138861904D01*
X101171428Y-138909523D01*
X100933333Y-138909523D01*
X100742857Y-138861904D01*
X100647619Y-138814285D01*
X100600000Y-138766666D01*
X100552380Y-138671428D01*
X99487142Y-140342857D02*
X99534761Y-140390476D01*
X99582380Y-140533333D01*
X99582380Y-140628571D01*
X99534761Y-140771428D01*
X99439523Y-140866666D01*
X99344285Y-140914285D01*
X99153809Y-140961904D01*
X99010952Y-140961904D01*
X98820476Y-140914285D01*
X98725238Y-140866666D01*
X98630000Y-140771428D01*
X98582380Y-140628571D01*
X98582380Y-140533333D01*
X98630000Y-140390476D01*
X98677619Y-140342857D01*
X98582380Y-140009523D02*
X98582380Y-139390476D01*
X98963333Y-139723809D01*
X98963333Y-139580952D01*
X99010952Y-139485714D01*
X99058571Y-139438095D01*
X99153809Y-139390476D01*
X99391904Y-139390476D01*
X99487142Y-139438095D01*
X99534761Y-139485714D01*
X99582380Y-139580952D01*
X99582380Y-139866666D01*
X99534761Y-139961904D01*
X99487142Y-140009523D01*
X99582380Y-138438095D02*
X99582380Y-139009523D01*
X99582380Y-138723809D02*
X98582380Y-138723809D01*
X98725238Y-138819047D01*
X98820476Y-138914285D01*
X98868095Y-139009523D01*
X89407142Y-140092857D02*
X89454761Y-140140476D01*
X89502380Y-140283333D01*
X89502380Y-140378571D01*
X89454761Y-140521428D01*
X89359523Y-140616666D01*
X89264285Y-140664285D01*
X89073809Y-140711904D01*
X88930952Y-140711904D01*
X88740476Y-140664285D01*
X88645238Y-140616666D01*
X88550000Y-140521428D01*
X88502380Y-140378571D01*
X88502380Y-140283333D01*
X88550000Y-140140476D01*
X88597619Y-140092857D01*
X88502380Y-139759523D02*
X88502380Y-139140476D01*
X88883333Y-139473809D01*
X88883333Y-139330952D01*
X88930952Y-139235714D01*
X88978571Y-139188095D01*
X89073809Y-139140476D01*
X89311904Y-139140476D01*
X89407142Y-139188095D01*
X89454761Y-139235714D01*
X89502380Y-139330952D01*
X89502380Y-139616666D01*
X89454761Y-139711904D01*
X89407142Y-139759523D01*
X88597619Y-138759523D02*
X88550000Y-138711904D01*
X88502380Y-138616666D01*
X88502380Y-138378571D01*
X88550000Y-138283333D01*
X88597619Y-138235714D01*
X88692857Y-138188095D01*
X88788095Y-138188095D01*
X88930952Y-138235714D01*
X89502380Y-138807142D01*
X89502380Y-138188095D01*
X208482380Y-115542857D02*
X208006190Y-115876190D01*
X208482380Y-116114285D02*
X207482380Y-116114285D01*
X207482380Y-115733333D01*
X207530000Y-115638095D01*
X207577619Y-115590476D01*
X207672857Y-115542857D01*
X207815714Y-115542857D01*
X207910952Y-115590476D01*
X207958571Y-115638095D01*
X208006190Y-115733333D01*
X208006190Y-116114285D01*
X207577619Y-115161904D02*
X207530000Y-115114285D01*
X207482380Y-115019047D01*
X207482380Y-114780952D01*
X207530000Y-114685714D01*
X207577619Y-114638095D01*
X207672857Y-114590476D01*
X207768095Y-114590476D01*
X207910952Y-114638095D01*
X208482380Y-115209523D01*
X208482380Y-114590476D01*
X208482380Y-113638095D02*
X208482380Y-114209523D01*
X208482380Y-113923809D02*
X207482380Y-113923809D01*
X207625238Y-114019047D01*
X207720476Y-114114285D01*
X207768095Y-114209523D01*
X208752380Y-112042857D02*
X208276190Y-112376190D01*
X208752380Y-112614285D02*
X207752380Y-112614285D01*
X207752380Y-112233333D01*
X207800000Y-112138095D01*
X207847619Y-112090476D01*
X207942857Y-112042857D01*
X208085714Y-112042857D01*
X208180952Y-112090476D01*
X208228571Y-112138095D01*
X208276190Y-112233333D01*
X208276190Y-112614285D01*
X207847619Y-111661904D02*
X207800000Y-111614285D01*
X207752380Y-111519047D01*
X207752380Y-111280952D01*
X207800000Y-111185714D01*
X207847619Y-111138095D01*
X207942857Y-111090476D01*
X208038095Y-111090476D01*
X208180952Y-111138095D01*
X208752380Y-111709523D01*
X208752380Y-111090476D01*
X207847619Y-110709523D02*
X207800000Y-110661904D01*
X207752380Y-110566666D01*
X207752380Y-110328571D01*
X207800000Y-110233333D01*
X207847619Y-110185714D01*
X207942857Y-110138095D01*
X208038095Y-110138095D01*
X208180952Y-110185714D01*
X208752380Y-110757142D01*
X208752380Y-110138095D01*
X99738095Y-142452380D02*
X99738095Y-143261904D01*
X99785714Y-143357142D01*
X99833333Y-143404761D01*
X99928571Y-143452380D01*
X100119047Y-143452380D01*
X100214285Y-143404761D01*
X100261904Y-143357142D01*
X100309523Y-143261904D01*
X100309523Y-142452380D01*
X100690476Y-142452380D02*
X101357142Y-142452380D01*
X100928571Y-143452380D01*
X214461904Y-125528571D02*
X214795238Y-125528571D01*
X214938095Y-126052380D02*
X214461904Y-126052380D01*
X214461904Y-125052380D01*
X214938095Y-125052380D01*
X215366666Y-126052380D02*
X215366666Y-125385714D01*
X215366666Y-125576190D02*
X215414285Y-125480952D01*
X215461904Y-125433333D01*
X215557142Y-125385714D01*
X215652380Y-125385714D01*
X215985714Y-126052380D02*
X215985714Y-125385714D01*
X215985714Y-125576190D02*
X216033333Y-125480952D01*
X216080952Y-125433333D01*
X216176190Y-125385714D01*
X216271428Y-125385714D01*
X216747619Y-126052380D02*
X216652380Y-126004761D01*
X216604761Y-125957142D01*
X216557142Y-125861904D01*
X216557142Y-125576190D01*
X216604761Y-125480952D01*
X216652380Y-125433333D01*
X216747619Y-125385714D01*
X216890476Y-125385714D01*
X216985714Y-125433333D01*
X217033333Y-125480952D01*
X217080952Y-125576190D01*
X217080952Y-125861904D01*
X217033333Y-125957142D01*
X216985714Y-126004761D01*
X216890476Y-126052380D01*
X216747619Y-126052380D01*
X217509523Y-126052380D02*
X217509523Y-125385714D01*
X217509523Y-125576190D02*
X217557142Y-125480952D01*
X217604761Y-125433333D01*
X217700000Y-125385714D01*
X217795238Y-125385714D01*
X217890476Y-126147619D02*
X218652380Y-126147619D01*
X219080952Y-125052380D02*
X219271428Y-125052380D01*
X219366666Y-125100000D01*
X219461904Y-125195238D01*
X219509523Y-125385714D01*
X219509523Y-125719047D01*
X219461904Y-125909523D01*
X219366666Y-126004761D01*
X219271428Y-126052380D01*
X219080952Y-126052380D01*
X218985714Y-126004761D01*
X218890476Y-125909523D01*
X218842857Y-125719047D01*
X218842857Y-125385714D01*
X218890476Y-125195238D01*
X218985714Y-125100000D01*
X219080952Y-125052380D01*
X220366666Y-125385714D02*
X220366666Y-126052380D01*
X219938095Y-125385714D02*
X219938095Y-125909523D01*
X219985714Y-126004761D01*
X220080952Y-126052380D01*
X220223809Y-126052380D01*
X220319047Y-126004761D01*
X220366666Y-125957142D01*
X220700000Y-125385714D02*
X221080952Y-125385714D01*
X220842857Y-125052380D02*
X220842857Y-125909523D01*
X220890476Y-126004761D01*
X220985714Y-126052380D01*
X221080952Y-126052380D01*
X214857142Y-100928571D02*
X214523809Y-100928571D01*
X214523809Y-101452380D02*
X214523809Y-100452380D01*
X215000000Y-100452380D01*
X215809523Y-101452380D02*
X215809523Y-100928571D01*
X215761904Y-100833333D01*
X215666666Y-100785714D01*
X215476190Y-100785714D01*
X215380952Y-100833333D01*
X215809523Y-101404761D02*
X215714285Y-101452380D01*
X215476190Y-101452380D01*
X215380952Y-101404761D01*
X215333333Y-101309523D01*
X215333333Y-101214285D01*
X215380952Y-101119047D01*
X215476190Y-101071428D01*
X215714285Y-101071428D01*
X215809523Y-101023809D01*
X216238095Y-101404761D02*
X216333333Y-101452380D01*
X216523809Y-101452380D01*
X216619047Y-101404761D01*
X216666666Y-101309523D01*
X216666666Y-101261904D01*
X216619047Y-101166666D01*
X216523809Y-101119047D01*
X216380952Y-101119047D01*
X216285714Y-101071428D01*
X216238095Y-100976190D01*
X216238095Y-100928571D01*
X216285714Y-100833333D01*
X216380952Y-100785714D01*
X216523809Y-100785714D01*
X216619047Y-100833333D01*
X216952380Y-100785714D02*
X217333333Y-100785714D01*
X217095238Y-100452380D02*
X217095238Y-101309523D01*
X217142857Y-101404761D01*
X217238095Y-101452380D01*
X217333333Y-101452380D01*
X217428571Y-101547619D02*
X218190476Y-101547619D01*
X218619047Y-100452380D02*
X218809523Y-100452380D01*
X218904761Y-100500000D01*
X219000000Y-100595238D01*
X219047619Y-100785714D01*
X219047619Y-101119047D01*
X219000000Y-101309523D01*
X218904761Y-101404761D01*
X218809523Y-101452380D01*
X218619047Y-101452380D01*
X218523809Y-101404761D01*
X218428571Y-101309523D01*
X218380952Y-101119047D01*
X218380952Y-100785714D01*
X218428571Y-100595238D01*
X218523809Y-100500000D01*
X218619047Y-100452380D01*
X219904761Y-100785714D02*
X219904761Y-101452380D01*
X219476190Y-100785714D02*
X219476190Y-101309523D01*
X219523809Y-101404761D01*
X219619047Y-101452380D01*
X219761904Y-101452380D01*
X219857142Y-101404761D01*
X219904761Y-101357142D01*
X220238095Y-100785714D02*
X220619047Y-100785714D01*
X220380952Y-100452380D02*
X220380952Y-101309523D01*
X220428571Y-101404761D01*
X220523809Y-101452380D01*
X220619047Y-101452380D01*
X204607142Y-103642857D02*
X204654761Y-103690476D01*
X204702380Y-103833333D01*
X204702380Y-103928571D01*
X204654761Y-104071428D01*
X204559523Y-104166666D01*
X204464285Y-104214285D01*
X204273809Y-104261904D01*
X204130952Y-104261904D01*
X203940476Y-104214285D01*
X203845238Y-104166666D01*
X203750000Y-104071428D01*
X203702380Y-103928571D01*
X203702380Y-103833333D01*
X203750000Y-103690476D01*
X203797619Y-103642857D01*
X203702380Y-103309523D02*
X203702380Y-102690476D01*
X204083333Y-103023809D01*
X204083333Y-102880952D01*
X204130952Y-102785714D01*
X204178571Y-102738095D01*
X204273809Y-102690476D01*
X204511904Y-102690476D01*
X204607142Y-102738095D01*
X204654761Y-102785714D01*
X204702380Y-102880952D01*
X204702380Y-103166666D01*
X204654761Y-103261904D01*
X204607142Y-103309523D01*
X203702380Y-102357142D02*
X203702380Y-101738095D01*
X204083333Y-102071428D01*
X204083333Y-101928571D01*
X204130952Y-101833333D01*
X204178571Y-101785714D01*
X204273809Y-101738095D01*
X204511904Y-101738095D01*
X204607142Y-101785714D01*
X204654761Y-101833333D01*
X204702380Y-101928571D01*
X204702380Y-102214285D01*
X204654761Y-102309523D01*
X204607142Y-102357142D01*
X193107142Y-109142857D02*
X193154761Y-109190476D01*
X193202380Y-109333333D01*
X193202380Y-109428571D01*
X193154761Y-109571428D01*
X193059523Y-109666666D01*
X192964285Y-109714285D01*
X192773809Y-109761904D01*
X192630952Y-109761904D01*
X192440476Y-109714285D01*
X192345238Y-109666666D01*
X192250000Y-109571428D01*
X192202380Y-109428571D01*
X192202380Y-109333333D01*
X192250000Y-109190476D01*
X192297619Y-109142857D01*
X192202380Y-108809523D02*
X192202380Y-108190476D01*
X192583333Y-108523809D01*
X192583333Y-108380952D01*
X192630952Y-108285714D01*
X192678571Y-108238095D01*
X192773809Y-108190476D01*
X193011904Y-108190476D01*
X193107142Y-108238095D01*
X193154761Y-108285714D01*
X193202380Y-108380952D01*
X193202380Y-108666666D01*
X193154761Y-108761904D01*
X193107142Y-108809523D01*
X192535714Y-107333333D02*
X193202380Y-107333333D01*
X192154761Y-107571428D02*
X192869047Y-107809523D01*
X192869047Y-107190476D01*
X96883333Y-57507142D02*
X96835714Y-57554761D01*
X96692857Y-57602380D01*
X96597619Y-57602380D01*
X96454761Y-57554761D01*
X96359523Y-57459523D01*
X96311904Y-57364285D01*
X96264285Y-57173809D01*
X96264285Y-57030952D01*
X96311904Y-56840476D01*
X96359523Y-56745238D01*
X96454761Y-56650000D01*
X96597619Y-56602380D01*
X96692857Y-56602380D01*
X96835714Y-56650000D01*
X96883333Y-56697619D01*
X97264285Y-56697619D02*
X97311904Y-56650000D01*
X97407142Y-56602380D01*
X97645238Y-56602380D01*
X97740476Y-56650000D01*
X97788095Y-56697619D01*
X97835714Y-56792857D01*
X97835714Y-56888095D01*
X97788095Y-57030952D01*
X97216666Y-57602380D01*
X97835714Y-57602380D01*
X96357142Y-65327142D02*
X96309523Y-65374761D01*
X96166666Y-65422380D01*
X96071428Y-65422380D01*
X95928571Y-65374761D01*
X95833333Y-65279523D01*
X95785714Y-65184285D01*
X95738095Y-64993809D01*
X95738095Y-64850952D01*
X95785714Y-64660476D01*
X95833333Y-64565238D01*
X95928571Y-64470000D01*
X96071428Y-64422380D01*
X96166666Y-64422380D01*
X96309523Y-64470000D01*
X96357142Y-64517619D01*
X96738095Y-64517619D02*
X96785714Y-64470000D01*
X96880952Y-64422380D01*
X97119047Y-64422380D01*
X97214285Y-64470000D01*
X97261904Y-64517619D01*
X97309523Y-64612857D01*
X97309523Y-64708095D01*
X97261904Y-64850952D01*
X96690476Y-65422380D01*
X97309523Y-65422380D01*
X98214285Y-64422380D02*
X97738095Y-64422380D01*
X97690476Y-64898571D01*
X97738095Y-64850952D01*
X97833333Y-64803333D01*
X98071428Y-64803333D01*
X98166666Y-64850952D01*
X98214285Y-64898571D01*
X98261904Y-64993809D01*
X98261904Y-65231904D01*
X98214285Y-65327142D01*
X98166666Y-65374761D01*
X98071428Y-65422380D01*
X97833333Y-65422380D01*
X97738095Y-65374761D01*
X97690476Y-65327142D01*
X96357142Y-68727142D02*
X96309523Y-68774761D01*
X96166666Y-68822380D01*
X96071428Y-68822380D01*
X95928571Y-68774761D01*
X95833333Y-68679523D01*
X95785714Y-68584285D01*
X95738095Y-68393809D01*
X95738095Y-68250952D01*
X95785714Y-68060476D01*
X95833333Y-67965238D01*
X95928571Y-67870000D01*
X96071428Y-67822380D01*
X96166666Y-67822380D01*
X96309523Y-67870000D01*
X96357142Y-67917619D01*
X96738095Y-67917619D02*
X96785714Y-67870000D01*
X96880952Y-67822380D01*
X97119047Y-67822380D01*
X97214285Y-67870000D01*
X97261904Y-67917619D01*
X97309523Y-68012857D01*
X97309523Y-68108095D01*
X97261904Y-68250952D01*
X96690476Y-68822380D01*
X97309523Y-68822380D01*
X97642857Y-67822380D02*
X98309523Y-67822380D01*
X97880952Y-68822380D01*
X96407142Y-71907142D02*
X96359523Y-71954761D01*
X96216666Y-72002380D01*
X96121428Y-72002380D01*
X95978571Y-71954761D01*
X95883333Y-71859523D01*
X95835714Y-71764285D01*
X95788095Y-71573809D01*
X95788095Y-71430952D01*
X95835714Y-71240476D01*
X95883333Y-71145238D01*
X95978571Y-71050000D01*
X96121428Y-71002380D01*
X96216666Y-71002380D01*
X96359523Y-71050000D01*
X96407142Y-71097619D01*
X96788095Y-71097619D02*
X96835714Y-71050000D01*
X96930952Y-71002380D01*
X97169047Y-71002380D01*
X97264285Y-71050000D01*
X97311904Y-71097619D01*
X97359523Y-71192857D01*
X97359523Y-71288095D01*
X97311904Y-71430952D01*
X96740476Y-72002380D01*
X97359523Y-72002380D01*
X97930952Y-71430952D02*
X97835714Y-71383333D01*
X97788095Y-71335714D01*
X97740476Y-71240476D01*
X97740476Y-71192857D01*
X97788095Y-71097619D01*
X97835714Y-71050000D01*
X97930952Y-71002380D01*
X98121428Y-71002380D01*
X98216666Y-71050000D01*
X98264285Y-71097619D01*
X98311904Y-71192857D01*
X98311904Y-71240476D01*
X98264285Y-71335714D01*
X98216666Y-71383333D01*
X98121428Y-71430952D01*
X97930952Y-71430952D01*
X97835714Y-71478571D01*
X97788095Y-71526190D01*
X97740476Y-71621428D01*
X97740476Y-71811904D01*
X97788095Y-71907142D01*
X97835714Y-71954761D01*
X97930952Y-72002380D01*
X98121428Y-72002380D01*
X98216666Y-71954761D01*
X98264285Y-71907142D01*
X98311904Y-71811904D01*
X98311904Y-71621428D01*
X98264285Y-71526190D01*
X98216666Y-71478571D01*
X98121428Y-71430952D01*
X84761904Y-132952380D02*
X84761904Y-131952380D01*
X85000000Y-131952380D01*
X85142857Y-132000000D01*
X85238095Y-132095238D01*
X85285714Y-132190476D01*
X85333333Y-132380952D01*
X85333333Y-132523809D01*
X85285714Y-132714285D01*
X85238095Y-132809523D01*
X85142857Y-132904761D01*
X85000000Y-132952380D01*
X84761904Y-132952380D01*
X86285714Y-132952380D02*
X85714285Y-132952380D01*
X86000000Y-132952380D02*
X86000000Y-131952380D01*
X85904761Y-132095238D01*
X85809523Y-132190476D01*
X85714285Y-132238095D01*
X84561904Y-67652380D02*
X84561904Y-66652380D01*
X84800000Y-66652380D01*
X84942857Y-66700000D01*
X85038095Y-66795238D01*
X85085714Y-66890476D01*
X85133333Y-67080952D01*
X85133333Y-67223809D01*
X85085714Y-67414285D01*
X85038095Y-67509523D01*
X84942857Y-67604761D01*
X84800000Y-67652380D01*
X84561904Y-67652380D01*
X85514285Y-66747619D02*
X85561904Y-66700000D01*
X85657142Y-66652380D01*
X85895238Y-66652380D01*
X85990476Y-66700000D01*
X86038095Y-66747619D01*
X86085714Y-66842857D01*
X86085714Y-66938095D01*
X86038095Y-67080952D01*
X85466666Y-67652380D01*
X86085714Y-67652380D01*
X123032380Y-68201904D02*
X123841904Y-68201904D01*
X123937142Y-68154285D01*
X123984761Y-68106666D01*
X124032380Y-68011428D01*
X124032380Y-67820952D01*
X123984761Y-67725714D01*
X123937142Y-67678095D01*
X123841904Y-67630476D01*
X123032380Y-67630476D01*
X123032380Y-66725714D02*
X123032380Y-66916190D01*
X123080000Y-67011428D01*
X123127619Y-67059047D01*
X123270476Y-67154285D01*
X123460952Y-67201904D01*
X123841904Y-67201904D01*
X123937142Y-67154285D01*
X123984761Y-67106666D01*
X124032380Y-67011428D01*
X124032380Y-66820952D01*
X123984761Y-66725714D01*
X123937142Y-66678095D01*
X123841904Y-66630476D01*
X123603809Y-66630476D01*
X123508571Y-66678095D01*
X123460952Y-66725714D01*
X123413333Y-66820952D01*
X123413333Y-67011428D01*
X123460952Y-67106666D01*
X123508571Y-67154285D01*
X123603809Y-67201904D01*
M02*
