G04 #@! TF.GenerationSoftware,KiCad,Pcbnew,(5.1.9)-1*
G04 #@! TF.CreationDate,2021-08-22T23:33:01+02:00*
G04 #@! TF.ProjectId,PFD_HMC439QS16G,5046445f-484d-4433-9433-395153313647,1.2*
G04 #@! TF.SameCoordinates,Original*
G04 #@! TF.FileFunction,Soldermask,Bot*
G04 #@! TF.FilePolarity,Negative*
%FSLAX46Y46*%
G04 Gerber Fmt 4.6, Leading zero omitted, Abs format (unit mm)*
G04 Created by KiCad (PCBNEW (5.1.9)-1) date 2021-08-22 23:33:01*
%MOMM*%
%LPD*%
G01*
G04 APERTURE LIST*
%ADD10C,2.450000*%
%ADD11C,2.650000*%
%ADD12C,2.200000*%
%ADD13C,2.000000*%
%ADD14C,3.300000*%
%ADD15O,2.305000X2.400000*%
%ADD16O,2.900000X2.000000*%
%ADD17O,7.400000X3.900000*%
G04 APERTURE END LIST*
D10*
X224600000Y-80000000D03*
D11*
X227140000Y-82540000D03*
X227140000Y-77460000D03*
X222060000Y-77460000D03*
X222060000Y-82540000D03*
X222060000Y-67440000D03*
X222060000Y-62360000D03*
X227140000Y-62360000D03*
X227140000Y-67440000D03*
D10*
X224600000Y-64900000D03*
D12*
X213900000Y-93200000D03*
X221520000Y-95740000D03*
X226600000Y-93200000D03*
D13*
X108100000Y-138300000D03*
G36*
G01*
X108900000Y-141800000D02*
X107300000Y-141800000D01*
G75*
G02*
X107100000Y-141600000I0J200000D01*
G01*
X107100000Y-140000000D01*
G75*
G02*
X107300000Y-139800000I200000J0D01*
G01*
X108900000Y-139800000D01*
G75*
G02*
X109100000Y-140000000I0J-200000D01*
G01*
X109100000Y-141600000D01*
G75*
G02*
X108900000Y-141800000I-200000J0D01*
G01*
G37*
G36*
G01*
X93600000Y-141700000D02*
X92000000Y-141700000D01*
G75*
G02*
X91800000Y-141500000I0J200000D01*
G01*
X91800000Y-139900000D01*
G75*
G02*
X92000000Y-139700000I200000J0D01*
G01*
X93600000Y-139700000D01*
G75*
G02*
X93800000Y-139900000I0J-200000D01*
G01*
X93800000Y-141500000D01*
G75*
G02*
X93600000Y-141700000I-200000J0D01*
G01*
G37*
X92800000Y-138200000D03*
D14*
X72750000Y-144450000D03*
X72750000Y-55550000D03*
D12*
X80370000Y-60630000D03*
X80370000Y-63170000D03*
X80370000Y-65710000D03*
X80370000Y-68250000D03*
X80370000Y-70790000D03*
X80370000Y-73330000D03*
X80370000Y-75870000D03*
X80370000Y-78410000D03*
X80370000Y-80950000D03*
X80370000Y-83490000D03*
X80370000Y-86030000D03*
X80370000Y-88570000D03*
X80370000Y-91110000D03*
X80370000Y-93650000D03*
X80370000Y-96190000D03*
X80370000Y-98730000D03*
X80370000Y-101270000D03*
X80370000Y-103810000D03*
X80370000Y-106350000D03*
X80370000Y-108890000D03*
X80370000Y-111430000D03*
X80370000Y-113970000D03*
X80370000Y-116510000D03*
X80370000Y-119050000D03*
X80370000Y-121590000D03*
X80370000Y-124130000D03*
X80370000Y-126670000D03*
X80370000Y-129210000D03*
X80370000Y-134290000D03*
X80370000Y-131750000D03*
X80370000Y-136830000D03*
X80370000Y-139370000D03*
X75290000Y-60630000D03*
X75290000Y-63170000D03*
X75290000Y-65710000D03*
X75290000Y-68250000D03*
X75290000Y-70790000D03*
X75290000Y-73330000D03*
X75290000Y-75870000D03*
X75290000Y-78410000D03*
X75290000Y-80950000D03*
X75290000Y-83490000D03*
X75290000Y-86030000D03*
X75290000Y-88570000D03*
X75290000Y-91110000D03*
X75290000Y-93650000D03*
X75290000Y-96190000D03*
X75290000Y-98730000D03*
X75290000Y-101270000D03*
X75290000Y-103810000D03*
X75290000Y-106350000D03*
X75290000Y-108890000D03*
X75290000Y-111430000D03*
X75290000Y-113970000D03*
X75290000Y-116510000D03*
X75290000Y-119050000D03*
X75290000Y-121590000D03*
X75290000Y-124130000D03*
X75290000Y-126670000D03*
X75290000Y-129210000D03*
X75290000Y-134290000D03*
X75290000Y-131750000D03*
X75290000Y-136830000D03*
X75290000Y-139370000D03*
G36*
G01*
X104152500Y-144500000D02*
X104152500Y-146500000D01*
G75*
G02*
X103952500Y-146700000I-200000J0D01*
G01*
X102047500Y-146700000D01*
G75*
G02*
X101847500Y-146500000I0J200000D01*
G01*
X101847500Y-144500000D01*
G75*
G02*
X102047500Y-144300000I200000J0D01*
G01*
X103952500Y-144300000D01*
G75*
G02*
X104152500Y-144500000I0J-200000D01*
G01*
G37*
D15*
X100460000Y-145500000D03*
X97920000Y-145500000D03*
D16*
X217200000Y-132460000D03*
X217200000Y-135000000D03*
D17*
X222280000Y-140080000D03*
X222280000Y-129920000D03*
X222180000Y-104820000D03*
X222180000Y-114980000D03*
D16*
X217100000Y-109900000D03*
X217100000Y-107360000D03*
D13*
X201500000Y-105500000D03*
X201500000Y-100500000D03*
X190000000Y-106000000D03*
X190000000Y-111000000D03*
M02*
