G04 #@! TF.FileFunction,Legend,Bot*
%FSLAX46Y46*%
G04 Gerber Fmt 4.6, Leading zero omitted, Abs format (unit mm)*
G04 Created by KiCad (PCBNEW 4.0.6) date 02/20/19 11:59:32*
%MOMM*%
%LPD*%
G01*
G04 APERTURE LIST*
%ADD10C,0.100000*%
%ADD11C,0.200000*%
%ADD12C,0.010000*%
G04 APERTURE END LIST*
D10*
D11*
X144690477Y-54452381D02*
X144690477Y-53452381D01*
X144452382Y-53452381D01*
X144309524Y-53500000D01*
X144214286Y-53595238D01*
X144166667Y-53690476D01*
X144119048Y-53880952D01*
X144119048Y-54023810D01*
X144166667Y-54214286D01*
X144214286Y-54309524D01*
X144309524Y-54404762D01*
X144452382Y-54452381D01*
X144690477Y-54452381D01*
X143309524Y-54404762D02*
X143404762Y-54452381D01*
X143595239Y-54452381D01*
X143690477Y-54404762D01*
X143738096Y-54309524D01*
X143738096Y-53928571D01*
X143690477Y-53833333D01*
X143595239Y-53785714D01*
X143404762Y-53785714D01*
X143309524Y-53833333D01*
X143261905Y-53928571D01*
X143261905Y-54023810D01*
X143738096Y-54119048D01*
X142880953Y-54404762D02*
X142785715Y-54452381D01*
X142595239Y-54452381D01*
X142500000Y-54404762D01*
X142452381Y-54309524D01*
X142452381Y-54261905D01*
X142500000Y-54166667D01*
X142595239Y-54119048D01*
X142738096Y-54119048D01*
X142833334Y-54071429D01*
X142880953Y-53976190D01*
X142880953Y-53928571D01*
X142833334Y-53833333D01*
X142738096Y-53785714D01*
X142595239Y-53785714D01*
X142500000Y-53833333D01*
X142023810Y-54452381D02*
X142023810Y-53785714D01*
X142023810Y-53452381D02*
X142071429Y-53500000D01*
X142023810Y-53547619D01*
X141976191Y-53500000D01*
X142023810Y-53452381D01*
X142023810Y-53547619D01*
X141119048Y-53785714D02*
X141119048Y-54595238D01*
X141166667Y-54690476D01*
X141214286Y-54738095D01*
X141309525Y-54785714D01*
X141452382Y-54785714D01*
X141547620Y-54738095D01*
X141119048Y-54404762D02*
X141214286Y-54452381D01*
X141404763Y-54452381D01*
X141500001Y-54404762D01*
X141547620Y-54357143D01*
X141595239Y-54261905D01*
X141595239Y-53976190D01*
X141547620Y-53880952D01*
X141500001Y-53833333D01*
X141404763Y-53785714D01*
X141214286Y-53785714D01*
X141119048Y-53833333D01*
X140642858Y-53785714D02*
X140642858Y-54452381D01*
X140642858Y-53880952D02*
X140595239Y-53833333D01*
X140500001Y-53785714D01*
X140357143Y-53785714D01*
X140261905Y-53833333D01*
X140214286Y-53928571D01*
X140214286Y-54452381D01*
X139738096Y-54357143D02*
X139690477Y-54404762D01*
X139738096Y-54452381D01*
X139785715Y-54404762D01*
X139738096Y-54357143D01*
X139738096Y-54452381D01*
X139738096Y-53833333D02*
X139690477Y-53880952D01*
X139738096Y-53928571D01*
X139785715Y-53880952D01*
X139738096Y-53833333D01*
X139738096Y-53928571D01*
X138642858Y-53452381D02*
X138071429Y-53452381D01*
X138357144Y-54452381D02*
X138357144Y-53452381D01*
X137738096Y-54452381D02*
X137738096Y-53785714D01*
X137738096Y-53452381D02*
X137785715Y-53500000D01*
X137738096Y-53547619D01*
X137690477Y-53500000D01*
X137738096Y-53452381D01*
X137738096Y-53547619D01*
X137119049Y-54452381D02*
X137214287Y-54404762D01*
X137261906Y-54309524D01*
X137261906Y-53452381D01*
X136738096Y-54452381D02*
X136738096Y-53785714D01*
X136738096Y-53880952D02*
X136690477Y-53833333D01*
X136595239Y-53785714D01*
X136452381Y-53785714D01*
X136357143Y-53833333D01*
X136309524Y-53928571D01*
X136309524Y-54452381D01*
X136309524Y-53928571D02*
X136261905Y-53833333D01*
X136166667Y-53785714D01*
X136023810Y-53785714D01*
X135928572Y-53833333D01*
X135880953Y-53928571D01*
X135880953Y-54452381D01*
X134976191Y-54452381D02*
X134976191Y-53928571D01*
X135023810Y-53833333D01*
X135119048Y-53785714D01*
X135309525Y-53785714D01*
X135404763Y-53833333D01*
X134976191Y-54404762D02*
X135071429Y-54452381D01*
X135309525Y-54452381D01*
X135404763Y-54404762D01*
X135452382Y-54309524D01*
X135452382Y-54214286D01*
X135404763Y-54119048D01*
X135309525Y-54071429D01*
X135071429Y-54071429D01*
X134976191Y-54023810D01*
X134500001Y-53785714D02*
X134500001Y-54452381D01*
X134500001Y-53880952D02*
X134452382Y-53833333D01*
X134357144Y-53785714D01*
X134214286Y-53785714D01*
X134119048Y-53833333D01*
X134071429Y-53928571D01*
X134071429Y-54452381D01*
X132833334Y-54452381D02*
X132833334Y-53452381D01*
X132452381Y-53452381D01*
X132357143Y-53500000D01*
X132309524Y-53547619D01*
X132261905Y-53642857D01*
X132261905Y-53785714D01*
X132309524Y-53880952D01*
X132357143Y-53928571D01*
X132452381Y-53976190D01*
X132833334Y-53976190D01*
X131833334Y-54452381D02*
X131833334Y-53785714D01*
X131833334Y-53976190D02*
X131785715Y-53880952D01*
X131738096Y-53833333D01*
X131642858Y-53785714D01*
X131547619Y-53785714D01*
X130833333Y-54404762D02*
X130928571Y-54452381D01*
X131119048Y-54452381D01*
X131214286Y-54404762D01*
X131261905Y-54309524D01*
X131261905Y-53928571D01*
X131214286Y-53833333D01*
X131119048Y-53785714D01*
X130928571Y-53785714D01*
X130833333Y-53833333D01*
X130785714Y-53928571D01*
X130785714Y-54023810D01*
X131261905Y-54119048D01*
X129928571Y-53785714D02*
X129928571Y-54452381D01*
X130357143Y-53785714D02*
X130357143Y-54309524D01*
X130309524Y-54404762D01*
X130214286Y-54452381D01*
X130071428Y-54452381D01*
X129976190Y-54404762D01*
X129928571Y-54357143D01*
X129500000Y-54404762D02*
X129404762Y-54452381D01*
X129214286Y-54452381D01*
X129119047Y-54404762D01*
X129071428Y-54309524D01*
X129071428Y-54261905D01*
X129119047Y-54166667D01*
X129214286Y-54119048D01*
X129357143Y-54119048D01*
X129452381Y-54071429D01*
X129500000Y-53976190D01*
X129500000Y-53928571D01*
X129452381Y-53833333D01*
X129357143Y-53785714D01*
X129214286Y-53785714D01*
X129119047Y-53833333D01*
X128214285Y-54404762D02*
X128309523Y-54452381D01*
X128500000Y-54452381D01*
X128595238Y-54404762D01*
X128642857Y-54357143D01*
X128690476Y-54261905D01*
X128690476Y-53976190D01*
X128642857Y-53880952D01*
X128595238Y-53833333D01*
X128500000Y-53785714D01*
X128309523Y-53785714D01*
X128214285Y-53833333D01*
X127785714Y-54452381D02*
X127785714Y-53452381D01*
X127357142Y-54452381D02*
X127357142Y-53928571D01*
X127404761Y-53833333D01*
X127499999Y-53785714D01*
X127642857Y-53785714D01*
X127738095Y-53833333D01*
X127785714Y-53880952D01*
X126738095Y-54452381D02*
X126833333Y-54404762D01*
X126880952Y-54357143D01*
X126928571Y-54261905D01*
X126928571Y-53976190D01*
X126880952Y-53880952D01*
X126833333Y-53833333D01*
X126738095Y-53785714D01*
X126595237Y-53785714D01*
X126499999Y-53833333D01*
X126452380Y-53880952D01*
X126404761Y-53976190D01*
X126404761Y-54261905D01*
X126452380Y-54357143D01*
X126499999Y-54404762D01*
X126595237Y-54452381D01*
X126738095Y-54452381D01*
X126119047Y-53785714D02*
X125738095Y-53785714D01*
X125976190Y-54452381D02*
X125976190Y-53595238D01*
X125928571Y-53500000D01*
X125833333Y-53452381D01*
X125738095Y-53452381D01*
X125547618Y-53785714D02*
X125166666Y-53785714D01*
X125404761Y-54452381D02*
X125404761Y-53595238D01*
X125357142Y-53500000D01*
X125261904Y-53452381D01*
X125166666Y-53452381D01*
D12*
G36*
X122908759Y-56469184D02*
X122882247Y-56482282D01*
X122849553Y-56505106D01*
X122825725Y-56529996D01*
X122809406Y-56561249D01*
X122799240Y-56603166D01*
X122793872Y-56660044D01*
X122791944Y-56736184D01*
X122791831Y-56768917D01*
X122792161Y-56840656D01*
X122793527Y-56891927D01*
X122796500Y-56927404D01*
X122801649Y-56951763D01*
X122809543Y-56969680D01*
X122817757Y-56981902D01*
X122870187Y-57033905D01*
X122931930Y-57065184D01*
X122998536Y-57074592D01*
X123065558Y-57060980D01*
X123086792Y-57051354D01*
X123137624Y-57024859D01*
X123137624Y-57440052D01*
X123100525Y-57420868D01*
X123051643Y-57406025D01*
X122991561Y-57402222D01*
X122931564Y-57409243D01*
X122886256Y-57425013D01*
X122848675Y-57455047D01*
X122816564Y-57498024D01*
X122814150Y-57502436D01*
X122803967Y-57523221D01*
X122796530Y-57544170D01*
X122791411Y-57569548D01*
X122788181Y-57603618D01*
X122786413Y-57650641D01*
X122785677Y-57714882D01*
X122785544Y-57787176D01*
X122785544Y-58017822D01*
X122923861Y-58017822D01*
X122923861Y-57592533D01*
X122962549Y-57559979D01*
X123002738Y-57533940D01*
X123040797Y-57529205D01*
X123079066Y-57541389D01*
X123099462Y-57553320D01*
X123114642Y-57570313D01*
X123125438Y-57595995D01*
X123132683Y-57633991D01*
X123137208Y-57687926D01*
X123139844Y-57761425D01*
X123140772Y-57810347D01*
X123143911Y-58011535D01*
X123209926Y-58015336D01*
X123275940Y-58019136D01*
X123275940Y-56770650D01*
X123137624Y-56770650D01*
X123134097Y-56840254D01*
X123122215Y-56888569D01*
X123100020Y-56918631D01*
X123065559Y-56933471D01*
X123030742Y-56936436D01*
X122991329Y-56933028D01*
X122965171Y-56919617D01*
X122948814Y-56901896D01*
X122935937Y-56882835D01*
X122928272Y-56861601D01*
X122924861Y-56831849D01*
X122924749Y-56787236D01*
X122925897Y-56749880D01*
X122928532Y-56693604D01*
X122932456Y-56656658D01*
X122939063Y-56633223D01*
X122949749Y-56617480D01*
X122959833Y-56608380D01*
X123001970Y-56588537D01*
X123051840Y-56585332D01*
X123080476Y-56592168D01*
X123108828Y-56616464D01*
X123127609Y-56663728D01*
X123136712Y-56733624D01*
X123137624Y-56770650D01*
X123275940Y-56770650D01*
X123275940Y-56458614D01*
X123206782Y-56458614D01*
X123165260Y-56460256D01*
X123143838Y-56466087D01*
X123137626Y-56477461D01*
X123137624Y-56477798D01*
X123134742Y-56488938D01*
X123122030Y-56487673D01*
X123096757Y-56475433D01*
X123037869Y-56456707D01*
X122971615Y-56454739D01*
X122908759Y-56469184D01*
X122908759Y-56469184D01*
G37*
X122908759Y-56469184D02*
X122882247Y-56482282D01*
X122849553Y-56505106D01*
X122825725Y-56529996D01*
X122809406Y-56561249D01*
X122799240Y-56603166D01*
X122793872Y-56660044D01*
X122791944Y-56736184D01*
X122791831Y-56768917D01*
X122792161Y-56840656D01*
X122793527Y-56891927D01*
X122796500Y-56927404D01*
X122801649Y-56951763D01*
X122809543Y-56969680D01*
X122817757Y-56981902D01*
X122870187Y-57033905D01*
X122931930Y-57065184D01*
X122998536Y-57074592D01*
X123065558Y-57060980D01*
X123086792Y-57051354D01*
X123137624Y-57024859D01*
X123137624Y-57440052D01*
X123100525Y-57420868D01*
X123051643Y-57406025D01*
X122991561Y-57402222D01*
X122931564Y-57409243D01*
X122886256Y-57425013D01*
X122848675Y-57455047D01*
X122816564Y-57498024D01*
X122814150Y-57502436D01*
X122803967Y-57523221D01*
X122796530Y-57544170D01*
X122791411Y-57569548D01*
X122788181Y-57603618D01*
X122786413Y-57650641D01*
X122785677Y-57714882D01*
X122785544Y-57787176D01*
X122785544Y-58017822D01*
X122923861Y-58017822D01*
X122923861Y-57592533D01*
X122962549Y-57559979D01*
X123002738Y-57533940D01*
X123040797Y-57529205D01*
X123079066Y-57541389D01*
X123099462Y-57553320D01*
X123114642Y-57570313D01*
X123125438Y-57595995D01*
X123132683Y-57633991D01*
X123137208Y-57687926D01*
X123139844Y-57761425D01*
X123140772Y-57810347D01*
X123143911Y-58011535D01*
X123209926Y-58015336D01*
X123275940Y-58019136D01*
X123275940Y-56770650D01*
X123137624Y-56770650D01*
X123134097Y-56840254D01*
X123122215Y-56888569D01*
X123100020Y-56918631D01*
X123065559Y-56933471D01*
X123030742Y-56936436D01*
X122991329Y-56933028D01*
X122965171Y-56919617D01*
X122948814Y-56901896D01*
X122935937Y-56882835D01*
X122928272Y-56861601D01*
X122924861Y-56831849D01*
X122924749Y-56787236D01*
X122925897Y-56749880D01*
X122928532Y-56693604D01*
X122932456Y-56656658D01*
X122939063Y-56633223D01*
X122949749Y-56617480D01*
X122959833Y-56608380D01*
X123001970Y-56588537D01*
X123051840Y-56585332D01*
X123080476Y-56592168D01*
X123108828Y-56616464D01*
X123127609Y-56663728D01*
X123136712Y-56733624D01*
X123137624Y-56770650D01*
X123275940Y-56770650D01*
X123275940Y-56458614D01*
X123206782Y-56458614D01*
X123165260Y-56460256D01*
X123143838Y-56466087D01*
X123137626Y-56477461D01*
X123137624Y-56477798D01*
X123134742Y-56488938D01*
X123122030Y-56487673D01*
X123096757Y-56475433D01*
X123037869Y-56456707D01*
X122971615Y-56454739D01*
X122908759Y-56469184D01*
G36*
X122384210Y-57406555D02*
X122325055Y-57422339D01*
X122280023Y-57450948D01*
X122248246Y-57488419D01*
X122238366Y-57504411D01*
X122231073Y-57521163D01*
X122225974Y-57542592D01*
X122222679Y-57572616D01*
X122220797Y-57615154D01*
X122219937Y-57674122D01*
X122219707Y-57753440D01*
X122219703Y-57774484D01*
X122219703Y-58017822D01*
X122280059Y-58017822D01*
X122318557Y-58015126D01*
X122347023Y-58008295D01*
X122354155Y-58004083D01*
X122373652Y-57996813D01*
X122393566Y-58004083D01*
X122426353Y-58013160D01*
X122473978Y-58016813D01*
X122526764Y-58015228D01*
X122575036Y-58008589D01*
X122603218Y-58000072D01*
X122657753Y-57965063D01*
X122691835Y-57916479D01*
X122707157Y-57851882D01*
X122707299Y-57850223D01*
X122705955Y-57821566D01*
X122584356Y-57821566D01*
X122573726Y-57854161D01*
X122556410Y-57872505D01*
X122521652Y-57886379D01*
X122475773Y-57891917D01*
X122428988Y-57889191D01*
X122391514Y-57878274D01*
X122381015Y-57871269D01*
X122362668Y-57838904D01*
X122358020Y-57802111D01*
X122358020Y-57753763D01*
X122427582Y-57753763D01*
X122493667Y-57758850D01*
X122543764Y-57773263D01*
X122574929Y-57795729D01*
X122584356Y-57821566D01*
X122705955Y-57821566D01*
X122703987Y-57779647D01*
X122680710Y-57723845D01*
X122636948Y-57681647D01*
X122630899Y-57677808D01*
X122604907Y-57665309D01*
X122572735Y-57657740D01*
X122527760Y-57654061D01*
X122474331Y-57653216D01*
X122358020Y-57653169D01*
X122358020Y-57604411D01*
X122362953Y-57566581D01*
X122375543Y-57541236D01*
X122377017Y-57539887D01*
X122405034Y-57528800D01*
X122447326Y-57524503D01*
X122494064Y-57526615D01*
X122535418Y-57534756D01*
X122559957Y-57546965D01*
X122573253Y-57556746D01*
X122587294Y-57558613D01*
X122606671Y-57550600D01*
X122635976Y-57530739D01*
X122679803Y-57497063D01*
X122683825Y-57493909D01*
X122681764Y-57482236D01*
X122664568Y-57462822D01*
X122638433Y-57441248D01*
X122609552Y-57423096D01*
X122600478Y-57418809D01*
X122567380Y-57410256D01*
X122518880Y-57404155D01*
X122464695Y-57401708D01*
X122462161Y-57401703D01*
X122384210Y-57406555D01*
X122384210Y-57406555D01*
G37*
X122384210Y-57406555D02*
X122325055Y-57422339D01*
X122280023Y-57450948D01*
X122248246Y-57488419D01*
X122238366Y-57504411D01*
X122231073Y-57521163D01*
X122225974Y-57542592D01*
X122222679Y-57572616D01*
X122220797Y-57615154D01*
X122219937Y-57674122D01*
X122219707Y-57753440D01*
X122219703Y-57774484D01*
X122219703Y-58017822D01*
X122280059Y-58017822D01*
X122318557Y-58015126D01*
X122347023Y-58008295D01*
X122354155Y-58004083D01*
X122373652Y-57996813D01*
X122393566Y-58004083D01*
X122426353Y-58013160D01*
X122473978Y-58016813D01*
X122526764Y-58015228D01*
X122575036Y-58008589D01*
X122603218Y-58000072D01*
X122657753Y-57965063D01*
X122691835Y-57916479D01*
X122707157Y-57851882D01*
X122707299Y-57850223D01*
X122705955Y-57821566D01*
X122584356Y-57821566D01*
X122573726Y-57854161D01*
X122556410Y-57872505D01*
X122521652Y-57886379D01*
X122475773Y-57891917D01*
X122428988Y-57889191D01*
X122391514Y-57878274D01*
X122381015Y-57871269D01*
X122362668Y-57838904D01*
X122358020Y-57802111D01*
X122358020Y-57753763D01*
X122427582Y-57753763D01*
X122493667Y-57758850D01*
X122543764Y-57773263D01*
X122574929Y-57795729D01*
X122584356Y-57821566D01*
X122705955Y-57821566D01*
X122703987Y-57779647D01*
X122680710Y-57723845D01*
X122636948Y-57681647D01*
X122630899Y-57677808D01*
X122604907Y-57665309D01*
X122572735Y-57657740D01*
X122527760Y-57654061D01*
X122474331Y-57653216D01*
X122358020Y-57653169D01*
X122358020Y-57604411D01*
X122362953Y-57566581D01*
X122375543Y-57541236D01*
X122377017Y-57539887D01*
X122405034Y-57528800D01*
X122447326Y-57524503D01*
X122494064Y-57526615D01*
X122535418Y-57534756D01*
X122559957Y-57546965D01*
X122573253Y-57556746D01*
X122587294Y-57558613D01*
X122606671Y-57550600D01*
X122635976Y-57530739D01*
X122679803Y-57497063D01*
X122683825Y-57493909D01*
X122681764Y-57482236D01*
X122664568Y-57462822D01*
X122638433Y-57441248D01*
X122609552Y-57423096D01*
X122600478Y-57418809D01*
X122567380Y-57410256D01*
X122518880Y-57404155D01*
X122464695Y-57401708D01*
X122462161Y-57401703D01*
X122384210Y-57406555D01*
G36*
X121993356Y-57403020D02*
X121974539Y-57408660D01*
X121968473Y-57421053D01*
X121968218Y-57426647D01*
X121967129Y-57442230D01*
X121959632Y-57444676D01*
X121939381Y-57433993D01*
X121927351Y-57426694D01*
X121889400Y-57411063D01*
X121844072Y-57403334D01*
X121796544Y-57402740D01*
X121751995Y-57408513D01*
X121715602Y-57419884D01*
X121692543Y-57436088D01*
X121687996Y-57456355D01*
X121690291Y-57461843D01*
X121707020Y-57484626D01*
X121732963Y-57512647D01*
X121737655Y-57517177D01*
X121762383Y-57538005D01*
X121783718Y-57544735D01*
X121813555Y-57540038D01*
X121825508Y-57536917D01*
X121862705Y-57529421D01*
X121888859Y-57532792D01*
X121910946Y-57544681D01*
X121931178Y-57560635D01*
X121946079Y-57580700D01*
X121956434Y-57608702D01*
X121963029Y-57648467D01*
X121966649Y-57703823D01*
X121968078Y-57778594D01*
X121968218Y-57823740D01*
X121968218Y-58017822D01*
X122093960Y-58017822D01*
X122093960Y-57401683D01*
X122031089Y-57401683D01*
X121993356Y-57403020D01*
X121993356Y-57403020D01*
G37*
X121993356Y-57403020D02*
X121974539Y-57408660D01*
X121968473Y-57421053D01*
X121968218Y-57426647D01*
X121967129Y-57442230D01*
X121959632Y-57444676D01*
X121939381Y-57433993D01*
X121927351Y-57426694D01*
X121889400Y-57411063D01*
X121844072Y-57403334D01*
X121796544Y-57402740D01*
X121751995Y-57408513D01*
X121715602Y-57419884D01*
X121692543Y-57436088D01*
X121687996Y-57456355D01*
X121690291Y-57461843D01*
X121707020Y-57484626D01*
X121732963Y-57512647D01*
X121737655Y-57517177D01*
X121762383Y-57538005D01*
X121783718Y-57544735D01*
X121813555Y-57540038D01*
X121825508Y-57536917D01*
X121862705Y-57529421D01*
X121888859Y-57532792D01*
X121910946Y-57544681D01*
X121931178Y-57560635D01*
X121946079Y-57580700D01*
X121956434Y-57608702D01*
X121963029Y-57648467D01*
X121966649Y-57703823D01*
X121968078Y-57778594D01*
X121968218Y-57823740D01*
X121968218Y-58017822D01*
X122093960Y-58017822D01*
X122093960Y-57401683D01*
X122031089Y-57401683D01*
X121993356Y-57403020D01*
G36*
X121201188Y-58017822D02*
X121270346Y-58017822D01*
X121310488Y-58016645D01*
X121331394Y-58011772D01*
X121338922Y-58001186D01*
X121339505Y-57994029D01*
X121340774Y-57979676D01*
X121348779Y-57976923D01*
X121369815Y-57985771D01*
X121386173Y-57994029D01*
X121448977Y-58013597D01*
X121517248Y-58014729D01*
X121572752Y-58000135D01*
X121624438Y-57964877D01*
X121663838Y-57912835D01*
X121685413Y-57851450D01*
X121685962Y-57848018D01*
X121689167Y-57810571D01*
X121690761Y-57756813D01*
X121690633Y-57716155D01*
X121553279Y-57716155D01*
X121550097Y-57770194D01*
X121542859Y-57814735D01*
X121533060Y-57839888D01*
X121495989Y-57874260D01*
X121451974Y-57886582D01*
X121406584Y-57876618D01*
X121367797Y-57846895D01*
X121353108Y-57826905D01*
X121344519Y-57803050D01*
X121340496Y-57768230D01*
X121339505Y-57715930D01*
X121341278Y-57664139D01*
X121345963Y-57618634D01*
X121352603Y-57588181D01*
X121353710Y-57585452D01*
X121380491Y-57553000D01*
X121419579Y-57535183D01*
X121463315Y-57532306D01*
X121504038Y-57544674D01*
X121534087Y-57572593D01*
X121537204Y-57578148D01*
X121546961Y-57612022D01*
X121552277Y-57660728D01*
X121553279Y-57716155D01*
X121690633Y-57716155D01*
X121690568Y-57695540D01*
X121689664Y-57662563D01*
X121683514Y-57580981D01*
X121670733Y-57519730D01*
X121649471Y-57474449D01*
X121617878Y-57440779D01*
X121587207Y-57421014D01*
X121544354Y-57407120D01*
X121491056Y-57402354D01*
X121436480Y-57406236D01*
X121389792Y-57418282D01*
X121365124Y-57432693D01*
X121339505Y-57455878D01*
X121339505Y-57162773D01*
X121201188Y-57162773D01*
X121201188Y-58017822D01*
X121201188Y-58017822D01*
G37*
X121201188Y-58017822D02*
X121270346Y-58017822D01*
X121310488Y-58016645D01*
X121331394Y-58011772D01*
X121338922Y-58001186D01*
X121339505Y-57994029D01*
X121340774Y-57979676D01*
X121348779Y-57976923D01*
X121369815Y-57985771D01*
X121386173Y-57994029D01*
X121448977Y-58013597D01*
X121517248Y-58014729D01*
X121572752Y-58000135D01*
X121624438Y-57964877D01*
X121663838Y-57912835D01*
X121685413Y-57851450D01*
X121685962Y-57848018D01*
X121689167Y-57810571D01*
X121690761Y-57756813D01*
X121690633Y-57716155D01*
X121553279Y-57716155D01*
X121550097Y-57770194D01*
X121542859Y-57814735D01*
X121533060Y-57839888D01*
X121495989Y-57874260D01*
X121451974Y-57886582D01*
X121406584Y-57876618D01*
X121367797Y-57846895D01*
X121353108Y-57826905D01*
X121344519Y-57803050D01*
X121340496Y-57768230D01*
X121339505Y-57715930D01*
X121341278Y-57664139D01*
X121345963Y-57618634D01*
X121352603Y-57588181D01*
X121353710Y-57585452D01*
X121380491Y-57553000D01*
X121419579Y-57535183D01*
X121463315Y-57532306D01*
X121504038Y-57544674D01*
X121534087Y-57572593D01*
X121537204Y-57578148D01*
X121546961Y-57612022D01*
X121552277Y-57660728D01*
X121553279Y-57716155D01*
X121690633Y-57716155D01*
X121690568Y-57695540D01*
X121689664Y-57662563D01*
X121683514Y-57580981D01*
X121670733Y-57519730D01*
X121649471Y-57474449D01*
X121617878Y-57440779D01*
X121587207Y-57421014D01*
X121544354Y-57407120D01*
X121491056Y-57402354D01*
X121436480Y-57406236D01*
X121389792Y-57418282D01*
X121365124Y-57432693D01*
X121339505Y-57455878D01*
X121339505Y-57162773D01*
X121201188Y-57162773D01*
X121201188Y-58017822D01*
G36*
X120718476Y-57404237D02*
X120668745Y-57407971D01*
X120538709Y-57797773D01*
X120518322Y-57728614D01*
X120506054Y-57685874D01*
X120489915Y-57628115D01*
X120472488Y-57564625D01*
X120463274Y-57530570D01*
X120428612Y-57401683D01*
X120285609Y-57401683D01*
X120328354Y-57536857D01*
X120349404Y-57603342D01*
X120374833Y-57683539D01*
X120401390Y-57767193D01*
X120425098Y-57841782D01*
X120479098Y-58011535D01*
X120537402Y-58015328D01*
X120595705Y-58019122D01*
X120627321Y-57914734D01*
X120646818Y-57849889D01*
X120668096Y-57778400D01*
X120686692Y-57715263D01*
X120687426Y-57712750D01*
X120701316Y-57669969D01*
X120713571Y-57640779D01*
X120722154Y-57629741D01*
X120723918Y-57631018D01*
X120730109Y-57648130D01*
X120741872Y-57684787D01*
X120757775Y-57736378D01*
X120776386Y-57798294D01*
X120786457Y-57832352D01*
X120840993Y-58017822D01*
X120956736Y-58017822D01*
X121049263Y-57725471D01*
X121075256Y-57643462D01*
X121098934Y-57568987D01*
X121119180Y-57505544D01*
X121134874Y-57456632D01*
X121144898Y-57425749D01*
X121147945Y-57416726D01*
X121145533Y-57407487D01*
X121126592Y-57403441D01*
X121087177Y-57403846D01*
X121081007Y-57404152D01*
X121007914Y-57407971D01*
X120960043Y-57584010D01*
X120942447Y-57648211D01*
X120926723Y-57704649D01*
X120914254Y-57748422D01*
X120906426Y-57774630D01*
X120904980Y-57778903D01*
X120898986Y-57773990D01*
X120886899Y-57748532D01*
X120870107Y-57705997D01*
X120849997Y-57649850D01*
X120832997Y-57599130D01*
X120768206Y-57400504D01*
X120718476Y-57404237D01*
X120718476Y-57404237D01*
G37*
X120718476Y-57404237D02*
X120668745Y-57407971D01*
X120538709Y-57797773D01*
X120518322Y-57728614D01*
X120506054Y-57685874D01*
X120489915Y-57628115D01*
X120472488Y-57564625D01*
X120463274Y-57530570D01*
X120428612Y-57401683D01*
X120285609Y-57401683D01*
X120328354Y-57536857D01*
X120349404Y-57603342D01*
X120374833Y-57683539D01*
X120401390Y-57767193D01*
X120425098Y-57841782D01*
X120479098Y-58011535D01*
X120537402Y-58015328D01*
X120595705Y-58019122D01*
X120627321Y-57914734D01*
X120646818Y-57849889D01*
X120668096Y-57778400D01*
X120686692Y-57715263D01*
X120687426Y-57712750D01*
X120701316Y-57669969D01*
X120713571Y-57640779D01*
X120722154Y-57629741D01*
X120723918Y-57631018D01*
X120730109Y-57648130D01*
X120741872Y-57684787D01*
X120757775Y-57736378D01*
X120776386Y-57798294D01*
X120786457Y-57832352D01*
X120840993Y-58017822D01*
X120956736Y-58017822D01*
X121049263Y-57725471D01*
X121075256Y-57643462D01*
X121098934Y-57568987D01*
X121119180Y-57505544D01*
X121134874Y-57456632D01*
X121144898Y-57425749D01*
X121147945Y-57416726D01*
X121145533Y-57407487D01*
X121126592Y-57403441D01*
X121087177Y-57403846D01*
X121081007Y-57404152D01*
X121007914Y-57407971D01*
X120960043Y-57584010D01*
X120942447Y-57648211D01*
X120926723Y-57704649D01*
X120914254Y-57748422D01*
X120906426Y-57774630D01*
X120904980Y-57778903D01*
X120898986Y-57773990D01*
X120886899Y-57748532D01*
X120870107Y-57705997D01*
X120849997Y-57649850D01*
X120832997Y-57599130D01*
X120768206Y-57400504D01*
X120718476Y-57404237D01*
G36*
X119961589Y-57405417D02*
X119908589Y-57418290D01*
X119893269Y-57425110D01*
X119863572Y-57442974D01*
X119840780Y-57463093D01*
X119823917Y-57488962D01*
X119812002Y-57524073D01*
X119804058Y-57571920D01*
X119799106Y-57635996D01*
X119796169Y-57719794D01*
X119795053Y-57775768D01*
X119790948Y-58017822D01*
X119861068Y-58017822D01*
X119903607Y-58016038D01*
X119925524Y-58009942D01*
X119931188Y-57999706D01*
X119934179Y-57988637D01*
X119947549Y-57990754D01*
X119965767Y-57999629D01*
X120011376Y-58013233D01*
X120069993Y-58016899D01*
X120131646Y-58010903D01*
X120186362Y-57995521D01*
X120191270Y-57993386D01*
X120241277Y-57958255D01*
X120274244Y-57909419D01*
X120289413Y-57852333D01*
X120288254Y-57831824D01*
X120164492Y-57831824D01*
X120153587Y-57859425D01*
X120121255Y-57879204D01*
X120069090Y-57889819D01*
X120041213Y-57891228D01*
X119994753Y-57887620D01*
X119963871Y-57873597D01*
X119956336Y-57866931D01*
X119935924Y-57830666D01*
X119931188Y-57797773D01*
X119931188Y-57753763D01*
X119992487Y-57753763D01*
X120063744Y-57757395D01*
X120113724Y-57768818D01*
X120145304Y-57788824D01*
X120152374Y-57797743D01*
X120164492Y-57831824D01*
X120288254Y-57831824D01*
X120286029Y-57792456D01*
X120263337Y-57735244D01*
X120232376Y-57696580D01*
X120213624Y-57679864D01*
X120195267Y-57668878D01*
X120171381Y-57662180D01*
X120136043Y-57658326D01*
X120083331Y-57655873D01*
X120062423Y-57655168D01*
X119931188Y-57650879D01*
X119931380Y-57611158D01*
X119936463Y-57569405D01*
X119954838Y-57544158D01*
X119991961Y-57528030D01*
X119992957Y-57527742D01*
X120045590Y-57521400D01*
X120097094Y-57529684D01*
X120135370Y-57549827D01*
X120150728Y-57559773D01*
X120167270Y-57558397D01*
X120192725Y-57543987D01*
X120207672Y-57533817D01*
X120236909Y-57512088D01*
X120255020Y-57495800D01*
X120257926Y-57491137D01*
X120245960Y-57467005D01*
X120210604Y-57438185D01*
X120195247Y-57428461D01*
X120151099Y-57411714D01*
X120091602Y-57402227D01*
X120025513Y-57400095D01*
X119961589Y-57405417D01*
X119961589Y-57405417D01*
G37*
X119961589Y-57405417D02*
X119908589Y-57418290D01*
X119893269Y-57425110D01*
X119863572Y-57442974D01*
X119840780Y-57463093D01*
X119823917Y-57488962D01*
X119812002Y-57524073D01*
X119804058Y-57571920D01*
X119799106Y-57635996D01*
X119796169Y-57719794D01*
X119795053Y-57775768D01*
X119790948Y-58017822D01*
X119861068Y-58017822D01*
X119903607Y-58016038D01*
X119925524Y-58009942D01*
X119931188Y-57999706D01*
X119934179Y-57988637D01*
X119947549Y-57990754D01*
X119965767Y-57999629D01*
X120011376Y-58013233D01*
X120069993Y-58016899D01*
X120131646Y-58010903D01*
X120186362Y-57995521D01*
X120191270Y-57993386D01*
X120241277Y-57958255D01*
X120274244Y-57909419D01*
X120289413Y-57852333D01*
X120288254Y-57831824D01*
X120164492Y-57831824D01*
X120153587Y-57859425D01*
X120121255Y-57879204D01*
X120069090Y-57889819D01*
X120041213Y-57891228D01*
X119994753Y-57887620D01*
X119963871Y-57873597D01*
X119956336Y-57866931D01*
X119935924Y-57830666D01*
X119931188Y-57797773D01*
X119931188Y-57753763D01*
X119992487Y-57753763D01*
X120063744Y-57757395D01*
X120113724Y-57768818D01*
X120145304Y-57788824D01*
X120152374Y-57797743D01*
X120164492Y-57831824D01*
X120288254Y-57831824D01*
X120286029Y-57792456D01*
X120263337Y-57735244D01*
X120232376Y-57696580D01*
X120213624Y-57679864D01*
X120195267Y-57668878D01*
X120171381Y-57662180D01*
X120136043Y-57658326D01*
X120083331Y-57655873D01*
X120062423Y-57655168D01*
X119931188Y-57650879D01*
X119931380Y-57611158D01*
X119936463Y-57569405D01*
X119954838Y-57544158D01*
X119991961Y-57528030D01*
X119992957Y-57527742D01*
X120045590Y-57521400D01*
X120097094Y-57529684D01*
X120135370Y-57549827D01*
X120150728Y-57559773D01*
X120167270Y-57558397D01*
X120192725Y-57543987D01*
X120207672Y-57533817D01*
X120236909Y-57512088D01*
X120255020Y-57495800D01*
X120257926Y-57491137D01*
X120245960Y-57467005D01*
X120210604Y-57438185D01*
X120195247Y-57428461D01*
X120151099Y-57411714D01*
X120091602Y-57402227D01*
X120025513Y-57400095D01*
X119961589Y-57405417D01*
G36*
X119364745Y-57401486D02*
X119316405Y-57411015D01*
X119288886Y-57425125D01*
X119259936Y-57448568D01*
X119301124Y-57500571D01*
X119326518Y-57532064D01*
X119343762Y-57547428D01*
X119360898Y-57549776D01*
X119385973Y-57542217D01*
X119397743Y-57537941D01*
X119445730Y-57531631D01*
X119489676Y-57545156D01*
X119521940Y-57575710D01*
X119527181Y-57585452D01*
X119532888Y-57611258D01*
X119537294Y-57658817D01*
X119540189Y-57724758D01*
X119541369Y-57805710D01*
X119541386Y-57817226D01*
X119541386Y-58017822D01*
X119679703Y-58017822D01*
X119679703Y-57401683D01*
X119610544Y-57401683D01*
X119570667Y-57402725D01*
X119549893Y-57407358D01*
X119542211Y-57417849D01*
X119541386Y-57427745D01*
X119541386Y-57453806D01*
X119508255Y-57427745D01*
X119470265Y-57409965D01*
X119419230Y-57401174D01*
X119364745Y-57401486D01*
X119364745Y-57401486D01*
G37*
X119364745Y-57401486D02*
X119316405Y-57411015D01*
X119288886Y-57425125D01*
X119259936Y-57448568D01*
X119301124Y-57500571D01*
X119326518Y-57532064D01*
X119343762Y-57547428D01*
X119360898Y-57549776D01*
X119385973Y-57542217D01*
X119397743Y-57537941D01*
X119445730Y-57531631D01*
X119489676Y-57545156D01*
X119521940Y-57575710D01*
X119527181Y-57585452D01*
X119532888Y-57611258D01*
X119537294Y-57658817D01*
X119540189Y-57724758D01*
X119541369Y-57805710D01*
X119541386Y-57817226D01*
X119541386Y-58017822D01*
X119679703Y-58017822D01*
X119679703Y-57401683D01*
X119610544Y-57401683D01*
X119570667Y-57402725D01*
X119549893Y-57407358D01*
X119542211Y-57417849D01*
X119541386Y-57427745D01*
X119541386Y-57453806D01*
X119508255Y-57427745D01*
X119470265Y-57409965D01*
X119419230Y-57401174D01*
X119364745Y-57401486D01*
G36*
X118967419Y-57404970D02*
X118907315Y-57420597D01*
X118856979Y-57452848D01*
X118832607Y-57476940D01*
X118792655Y-57533895D01*
X118769758Y-57599965D01*
X118761892Y-57681182D01*
X118761852Y-57687748D01*
X118761782Y-57753763D01*
X119141736Y-57753763D01*
X119133637Y-57788342D01*
X119119013Y-57819659D01*
X119093419Y-57852291D01*
X119088065Y-57857500D01*
X119042057Y-57885694D01*
X118989590Y-57890475D01*
X118929197Y-57871926D01*
X118918960Y-57866931D01*
X118887561Y-57851745D01*
X118866530Y-57843094D01*
X118862861Y-57842293D01*
X118850052Y-57850063D01*
X118825622Y-57869072D01*
X118813221Y-57879460D01*
X118787524Y-57903321D01*
X118779085Y-57919077D01*
X118784942Y-57933571D01*
X118788072Y-57937534D01*
X118809275Y-57954879D01*
X118844262Y-57975959D01*
X118868663Y-57988265D01*
X118937928Y-58009946D01*
X119014612Y-58016971D01*
X119087235Y-58008647D01*
X119107574Y-58002686D01*
X119170524Y-57968952D01*
X119217185Y-57917045D01*
X119247827Y-57846459D01*
X119262718Y-57756692D01*
X119264353Y-57709753D01*
X119259579Y-57641413D01*
X119139010Y-57641413D01*
X119127348Y-57646465D01*
X119096002Y-57650429D01*
X119050429Y-57652768D01*
X119019554Y-57653169D01*
X118964019Y-57652783D01*
X118928967Y-57650975D01*
X118909738Y-57646773D01*
X118901670Y-57639203D01*
X118900099Y-57628218D01*
X118910879Y-57594381D01*
X118938020Y-57560940D01*
X118973723Y-57535272D01*
X119009440Y-57524772D01*
X119057952Y-57534086D01*
X119099947Y-57561013D01*
X119129064Y-57599827D01*
X119139010Y-57641413D01*
X119259579Y-57641413D01*
X119257401Y-57610236D01*
X119235945Y-57530949D01*
X119199530Y-57471263D01*
X119147703Y-57430549D01*
X119080010Y-57408179D01*
X119043338Y-57403871D01*
X118967419Y-57404970D01*
X118967419Y-57404970D01*
G37*
X118967419Y-57404970D02*
X118907315Y-57420597D01*
X118856979Y-57452848D01*
X118832607Y-57476940D01*
X118792655Y-57533895D01*
X118769758Y-57599965D01*
X118761892Y-57681182D01*
X118761852Y-57687748D01*
X118761782Y-57753763D01*
X119141736Y-57753763D01*
X119133637Y-57788342D01*
X119119013Y-57819659D01*
X119093419Y-57852291D01*
X119088065Y-57857500D01*
X119042057Y-57885694D01*
X118989590Y-57890475D01*
X118929197Y-57871926D01*
X118918960Y-57866931D01*
X118887561Y-57851745D01*
X118866530Y-57843094D01*
X118862861Y-57842293D01*
X118850052Y-57850063D01*
X118825622Y-57869072D01*
X118813221Y-57879460D01*
X118787524Y-57903321D01*
X118779085Y-57919077D01*
X118784942Y-57933571D01*
X118788072Y-57937534D01*
X118809275Y-57954879D01*
X118844262Y-57975959D01*
X118868663Y-57988265D01*
X118937928Y-58009946D01*
X119014612Y-58016971D01*
X119087235Y-58008647D01*
X119107574Y-58002686D01*
X119170524Y-57968952D01*
X119217185Y-57917045D01*
X119247827Y-57846459D01*
X119262718Y-57756692D01*
X119264353Y-57709753D01*
X119259579Y-57641413D01*
X119139010Y-57641413D01*
X119127348Y-57646465D01*
X119096002Y-57650429D01*
X119050429Y-57652768D01*
X119019554Y-57653169D01*
X118964019Y-57652783D01*
X118928967Y-57650975D01*
X118909738Y-57646773D01*
X118901670Y-57639203D01*
X118900099Y-57628218D01*
X118910879Y-57594381D01*
X118938020Y-57560940D01*
X118973723Y-57535272D01*
X119009440Y-57524772D01*
X119057952Y-57534086D01*
X119099947Y-57561013D01*
X119129064Y-57599827D01*
X119139010Y-57641413D01*
X119259579Y-57641413D01*
X119257401Y-57610236D01*
X119235945Y-57530949D01*
X119199530Y-57471263D01*
X119147703Y-57430549D01*
X119080010Y-57408179D01*
X119043338Y-57403871D01*
X118967419Y-57404970D01*
G36*
X123538261Y-56465148D02*
X123472479Y-56494231D01*
X123422540Y-56542793D01*
X123388374Y-56610908D01*
X123369907Y-56698651D01*
X123368583Y-56712351D01*
X123367546Y-56808939D01*
X123380993Y-56893602D01*
X123408108Y-56962221D01*
X123422627Y-56984294D01*
X123473201Y-57031011D01*
X123537609Y-57061268D01*
X123609666Y-57073824D01*
X123683185Y-57067439D01*
X123739072Y-57047772D01*
X123787132Y-57014629D01*
X123826412Y-56971175D01*
X123827092Y-56970158D01*
X123843044Y-56943338D01*
X123853410Y-56916368D01*
X123859688Y-56882332D01*
X123863373Y-56834310D01*
X123864997Y-56794931D01*
X123865672Y-56759219D01*
X123739955Y-56759219D01*
X123738726Y-56794770D01*
X123734266Y-56842094D01*
X123726397Y-56872465D01*
X123712207Y-56894072D01*
X123698917Y-56906694D01*
X123651802Y-56933122D01*
X123602505Y-56936653D01*
X123556593Y-56917639D01*
X123533638Y-56896331D01*
X123517096Y-56874859D01*
X123507421Y-56854313D01*
X123503174Y-56827574D01*
X123502920Y-56787523D01*
X123504228Y-56750638D01*
X123507043Y-56697947D01*
X123511505Y-56663772D01*
X123519548Y-56641480D01*
X123533103Y-56624442D01*
X123543845Y-56614703D01*
X123588777Y-56589123D01*
X123637249Y-56587847D01*
X123677894Y-56602999D01*
X123712567Y-56634642D01*
X123733224Y-56686620D01*
X123739955Y-56759219D01*
X123865672Y-56759219D01*
X123866479Y-56716621D01*
X123863948Y-56658056D01*
X123856362Y-56614007D01*
X123842681Y-56579248D01*
X123821865Y-56548551D01*
X123814147Y-56539436D01*
X123765889Y-56494021D01*
X123714128Y-56467493D01*
X123650828Y-56456379D01*
X123619961Y-56455471D01*
X123538261Y-56465148D01*
X123538261Y-56465148D01*
G37*
X123538261Y-56465148D02*
X123472479Y-56494231D01*
X123422540Y-56542793D01*
X123388374Y-56610908D01*
X123369907Y-56698651D01*
X123368583Y-56712351D01*
X123367546Y-56808939D01*
X123380993Y-56893602D01*
X123408108Y-56962221D01*
X123422627Y-56984294D01*
X123473201Y-57031011D01*
X123537609Y-57061268D01*
X123609666Y-57073824D01*
X123683185Y-57067439D01*
X123739072Y-57047772D01*
X123787132Y-57014629D01*
X123826412Y-56971175D01*
X123827092Y-56970158D01*
X123843044Y-56943338D01*
X123853410Y-56916368D01*
X123859688Y-56882332D01*
X123863373Y-56834310D01*
X123864997Y-56794931D01*
X123865672Y-56759219D01*
X123739955Y-56759219D01*
X123738726Y-56794770D01*
X123734266Y-56842094D01*
X123726397Y-56872465D01*
X123712207Y-56894072D01*
X123698917Y-56906694D01*
X123651802Y-56933122D01*
X123602505Y-56936653D01*
X123556593Y-56917639D01*
X123533638Y-56896331D01*
X123517096Y-56874859D01*
X123507421Y-56854313D01*
X123503174Y-56827574D01*
X123502920Y-56787523D01*
X123504228Y-56750638D01*
X123507043Y-56697947D01*
X123511505Y-56663772D01*
X123519548Y-56641480D01*
X123533103Y-56624442D01*
X123543845Y-56614703D01*
X123588777Y-56589123D01*
X123637249Y-56587847D01*
X123677894Y-56602999D01*
X123712567Y-56634642D01*
X123733224Y-56686620D01*
X123739955Y-56759219D01*
X123865672Y-56759219D01*
X123866479Y-56716621D01*
X123863948Y-56658056D01*
X123856362Y-56614007D01*
X123842681Y-56579248D01*
X123821865Y-56548551D01*
X123814147Y-56539436D01*
X123765889Y-56494021D01*
X123714128Y-56467493D01*
X123650828Y-56456379D01*
X123619961Y-56455471D01*
X123538261Y-56465148D01*
G36*
X122356699Y-56472614D02*
X122344168Y-56478514D01*
X122300799Y-56510283D01*
X122259790Y-56556646D01*
X122229168Y-56607696D01*
X122220459Y-56631166D01*
X122212512Y-56673091D01*
X122207774Y-56723757D01*
X122207199Y-56744679D01*
X122207129Y-56810693D01*
X122587083Y-56810693D01*
X122578983Y-56845273D01*
X122559104Y-56886170D01*
X122524347Y-56921514D01*
X122482998Y-56944282D01*
X122456649Y-56949010D01*
X122420916Y-56943273D01*
X122378282Y-56928882D01*
X122363799Y-56922262D01*
X122310240Y-56895513D01*
X122264533Y-56930376D01*
X122238158Y-56953955D01*
X122224124Y-56973417D01*
X122223414Y-56979129D01*
X122235951Y-56992973D01*
X122263428Y-57014012D01*
X122288366Y-57030425D01*
X122355664Y-57059930D01*
X122431110Y-57073284D01*
X122505888Y-57069812D01*
X122565495Y-57051663D01*
X122626941Y-57012784D01*
X122670608Y-56961595D01*
X122697926Y-56895367D01*
X122710322Y-56811371D01*
X122711421Y-56772936D01*
X122707022Y-56684861D01*
X122706482Y-56682299D01*
X122580582Y-56682299D01*
X122577115Y-56690558D01*
X122562863Y-56695113D01*
X122533470Y-56697065D01*
X122484575Y-56697517D01*
X122465748Y-56697525D01*
X122408467Y-56696843D01*
X122372141Y-56694364D01*
X122352604Y-56689443D01*
X122345690Y-56681434D01*
X122345445Y-56678862D01*
X122353336Y-56658423D01*
X122373085Y-56629789D01*
X122381575Y-56619763D01*
X122413094Y-56591408D01*
X122445949Y-56580259D01*
X122463651Y-56579327D01*
X122511539Y-56590981D01*
X122551699Y-56622285D01*
X122577173Y-56667752D01*
X122577625Y-56669233D01*
X122580582Y-56682299D01*
X122706482Y-56682299D01*
X122692392Y-56615510D01*
X122666038Y-56560025D01*
X122633807Y-56520639D01*
X122574217Y-56477931D01*
X122504168Y-56455109D01*
X122429661Y-56453046D01*
X122356699Y-56472614D01*
X122356699Y-56472614D01*
G37*
X122356699Y-56472614D02*
X122344168Y-56478514D01*
X122300799Y-56510283D01*
X122259790Y-56556646D01*
X122229168Y-56607696D01*
X122220459Y-56631166D01*
X122212512Y-56673091D01*
X122207774Y-56723757D01*
X122207199Y-56744679D01*
X122207129Y-56810693D01*
X122587083Y-56810693D01*
X122578983Y-56845273D01*
X122559104Y-56886170D01*
X122524347Y-56921514D01*
X122482998Y-56944282D01*
X122456649Y-56949010D01*
X122420916Y-56943273D01*
X122378282Y-56928882D01*
X122363799Y-56922262D01*
X122310240Y-56895513D01*
X122264533Y-56930376D01*
X122238158Y-56953955D01*
X122224124Y-56973417D01*
X122223414Y-56979129D01*
X122235951Y-56992973D01*
X122263428Y-57014012D01*
X122288366Y-57030425D01*
X122355664Y-57059930D01*
X122431110Y-57073284D01*
X122505888Y-57069812D01*
X122565495Y-57051663D01*
X122626941Y-57012784D01*
X122670608Y-56961595D01*
X122697926Y-56895367D01*
X122710322Y-56811371D01*
X122711421Y-56772936D01*
X122707022Y-56684861D01*
X122706482Y-56682299D01*
X122580582Y-56682299D01*
X122577115Y-56690558D01*
X122562863Y-56695113D01*
X122533470Y-56697065D01*
X122484575Y-56697517D01*
X122465748Y-56697525D01*
X122408467Y-56696843D01*
X122372141Y-56694364D01*
X122352604Y-56689443D01*
X122345690Y-56681434D01*
X122345445Y-56678862D01*
X122353336Y-56658423D01*
X122373085Y-56629789D01*
X122381575Y-56619763D01*
X122413094Y-56591408D01*
X122445949Y-56580259D01*
X122463651Y-56579327D01*
X122511539Y-56590981D01*
X122551699Y-56622285D01*
X122577173Y-56667752D01*
X122577625Y-56669233D01*
X122580582Y-56682299D01*
X122706482Y-56682299D01*
X122692392Y-56615510D01*
X122666038Y-56560025D01*
X122633807Y-56520639D01*
X122574217Y-56477931D01*
X122504168Y-56455109D01*
X122429661Y-56453046D01*
X122356699Y-56472614D01*
G36*
X120985983Y-56456452D02*
X120938366Y-56465482D01*
X120888966Y-56484370D01*
X120883688Y-56486777D01*
X120846226Y-56506476D01*
X120820283Y-56524781D01*
X120811897Y-56536508D01*
X120819883Y-56555632D01*
X120839280Y-56583850D01*
X120847890Y-56594384D01*
X120883372Y-56635847D01*
X120929115Y-56608858D01*
X120972650Y-56590878D01*
X121022950Y-56581267D01*
X121071188Y-56580660D01*
X121108533Y-56589691D01*
X121117495Y-56595327D01*
X121134563Y-56621171D01*
X121136637Y-56650941D01*
X121123866Y-56674197D01*
X121116312Y-56678708D01*
X121093675Y-56684309D01*
X121053885Y-56690892D01*
X121004834Y-56697183D01*
X120995785Y-56698170D01*
X120917004Y-56711798D01*
X120859864Y-56734946D01*
X120821970Y-56769752D01*
X120800921Y-56818354D01*
X120794365Y-56877718D01*
X120803423Y-56945198D01*
X120832836Y-56998188D01*
X120882722Y-57036783D01*
X120953200Y-57061081D01*
X121031435Y-57070667D01*
X121095234Y-57070552D01*
X121146984Y-57061845D01*
X121182327Y-57049825D01*
X121226983Y-57028880D01*
X121268253Y-57004574D01*
X121282921Y-56993876D01*
X121320643Y-56963084D01*
X121275148Y-56917049D01*
X121229653Y-56871013D01*
X121177928Y-56905243D01*
X121126048Y-56930952D01*
X121070649Y-56944399D01*
X121017395Y-56945818D01*
X120971951Y-56935443D01*
X120939984Y-56913507D01*
X120929662Y-56894998D01*
X120931211Y-56865314D01*
X120956860Y-56842615D01*
X121006540Y-56826940D01*
X121060969Y-56819695D01*
X121144736Y-56805873D01*
X121206967Y-56779796D01*
X121248493Y-56740699D01*
X121270147Y-56687820D01*
X121273147Y-56625126D01*
X121258329Y-56559642D01*
X121224546Y-56510144D01*
X121171495Y-56476408D01*
X121098874Y-56458207D01*
X121045072Y-56454639D01*
X120985983Y-56456452D01*
X120985983Y-56456452D01*
G37*
X120985983Y-56456452D02*
X120938366Y-56465482D01*
X120888966Y-56484370D01*
X120883688Y-56486777D01*
X120846226Y-56506476D01*
X120820283Y-56524781D01*
X120811897Y-56536508D01*
X120819883Y-56555632D01*
X120839280Y-56583850D01*
X120847890Y-56594384D01*
X120883372Y-56635847D01*
X120929115Y-56608858D01*
X120972650Y-56590878D01*
X121022950Y-56581267D01*
X121071188Y-56580660D01*
X121108533Y-56589691D01*
X121117495Y-56595327D01*
X121134563Y-56621171D01*
X121136637Y-56650941D01*
X121123866Y-56674197D01*
X121116312Y-56678708D01*
X121093675Y-56684309D01*
X121053885Y-56690892D01*
X121004834Y-56697183D01*
X120995785Y-56698170D01*
X120917004Y-56711798D01*
X120859864Y-56734946D01*
X120821970Y-56769752D01*
X120800921Y-56818354D01*
X120794365Y-56877718D01*
X120803423Y-56945198D01*
X120832836Y-56998188D01*
X120882722Y-57036783D01*
X120953200Y-57061081D01*
X121031435Y-57070667D01*
X121095234Y-57070552D01*
X121146984Y-57061845D01*
X121182327Y-57049825D01*
X121226983Y-57028880D01*
X121268253Y-57004574D01*
X121282921Y-56993876D01*
X121320643Y-56963084D01*
X121275148Y-56917049D01*
X121229653Y-56871013D01*
X121177928Y-56905243D01*
X121126048Y-56930952D01*
X121070649Y-56944399D01*
X121017395Y-56945818D01*
X120971951Y-56935443D01*
X120939984Y-56913507D01*
X120929662Y-56894998D01*
X120931211Y-56865314D01*
X120956860Y-56842615D01*
X121006540Y-56826940D01*
X121060969Y-56819695D01*
X121144736Y-56805873D01*
X121206967Y-56779796D01*
X121248493Y-56740699D01*
X121270147Y-56687820D01*
X121273147Y-56625126D01*
X121258329Y-56559642D01*
X121224546Y-56510144D01*
X121171495Y-56476408D01*
X121098874Y-56458207D01*
X121045072Y-56454639D01*
X120985983Y-56456452D01*
G36*
X120389238Y-56466055D02*
X120325637Y-56500692D01*
X120275877Y-56555372D01*
X120252432Y-56599842D01*
X120242366Y-56639121D01*
X120235844Y-56695116D01*
X120233049Y-56759621D01*
X120234164Y-56824429D01*
X120239374Y-56881334D01*
X120245459Y-56911727D01*
X120265986Y-56953306D01*
X120301537Y-56997468D01*
X120344381Y-57036087D01*
X120386789Y-57061034D01*
X120387823Y-57061430D01*
X120440447Y-57072331D01*
X120502812Y-57072601D01*
X120562076Y-57062676D01*
X120584960Y-57054722D01*
X120643898Y-57021300D01*
X120686110Y-56977511D01*
X120713844Y-56919538D01*
X120729349Y-56843565D01*
X120732857Y-56803771D01*
X120732410Y-56753766D01*
X120597624Y-56753766D01*
X120593083Y-56826732D01*
X120580014Y-56882334D01*
X120559244Y-56917861D01*
X120544448Y-56928020D01*
X120506536Y-56935104D01*
X120461473Y-56933007D01*
X120422513Y-56922812D01*
X120412296Y-56917204D01*
X120385341Y-56884538D01*
X120367549Y-56834545D01*
X120359976Y-56773705D01*
X120363675Y-56708497D01*
X120371943Y-56669253D01*
X120395680Y-56623805D01*
X120433151Y-56595396D01*
X120478280Y-56585573D01*
X120524989Y-56595887D01*
X120560868Y-56621112D01*
X120579723Y-56641925D01*
X120590728Y-56662439D01*
X120595974Y-56690203D01*
X120597551Y-56732762D01*
X120597624Y-56753766D01*
X120732410Y-56753766D01*
X120731906Y-56697580D01*
X120714612Y-56610501D01*
X120680971Y-56542530D01*
X120630982Y-56493664D01*
X120564644Y-56463899D01*
X120550399Y-56460448D01*
X120464790Y-56452345D01*
X120389238Y-56466055D01*
X120389238Y-56466055D01*
G37*
X120389238Y-56466055D02*
X120325637Y-56500692D01*
X120275877Y-56555372D01*
X120252432Y-56599842D01*
X120242366Y-56639121D01*
X120235844Y-56695116D01*
X120233049Y-56759621D01*
X120234164Y-56824429D01*
X120239374Y-56881334D01*
X120245459Y-56911727D01*
X120265986Y-56953306D01*
X120301537Y-56997468D01*
X120344381Y-57036087D01*
X120386789Y-57061034D01*
X120387823Y-57061430D01*
X120440447Y-57072331D01*
X120502812Y-57072601D01*
X120562076Y-57062676D01*
X120584960Y-57054722D01*
X120643898Y-57021300D01*
X120686110Y-56977511D01*
X120713844Y-56919538D01*
X120729349Y-56843565D01*
X120732857Y-56803771D01*
X120732410Y-56753766D01*
X120597624Y-56753766D01*
X120593083Y-56826732D01*
X120580014Y-56882334D01*
X120559244Y-56917861D01*
X120544448Y-56928020D01*
X120506536Y-56935104D01*
X120461473Y-56933007D01*
X120422513Y-56922812D01*
X120412296Y-56917204D01*
X120385341Y-56884538D01*
X120367549Y-56834545D01*
X120359976Y-56773705D01*
X120363675Y-56708497D01*
X120371943Y-56669253D01*
X120395680Y-56623805D01*
X120433151Y-56595396D01*
X120478280Y-56585573D01*
X120524989Y-56595887D01*
X120560868Y-56621112D01*
X120579723Y-56641925D01*
X120590728Y-56662439D01*
X120595974Y-56690203D01*
X120597551Y-56732762D01*
X120597624Y-56753766D01*
X120732410Y-56753766D01*
X120731906Y-56697580D01*
X120714612Y-56610501D01*
X120680971Y-56542530D01*
X120630982Y-56493664D01*
X120564644Y-56463899D01*
X120550399Y-56460448D01*
X120464790Y-56452345D01*
X120389238Y-56466055D01*
G36*
X120006633Y-56654342D02*
X120005445Y-56746563D01*
X120001103Y-56816610D01*
X119992442Y-56867381D01*
X119978296Y-56901772D01*
X119957500Y-56922679D01*
X119928890Y-56933000D01*
X119893465Y-56935636D01*
X119856364Y-56932682D01*
X119828182Y-56921889D01*
X119807757Y-56900360D01*
X119793921Y-56865199D01*
X119785509Y-56813510D01*
X119781357Y-56742394D01*
X119780297Y-56654342D01*
X119780297Y-56458614D01*
X119641980Y-56458614D01*
X119641980Y-57062179D01*
X119711138Y-57062179D01*
X119752830Y-57060489D01*
X119774299Y-57054556D01*
X119780297Y-57043293D01*
X119783909Y-57033261D01*
X119798286Y-57035383D01*
X119827264Y-57049580D01*
X119893681Y-57071480D01*
X119964125Y-57069928D01*
X120031623Y-57046147D01*
X120063767Y-57027362D01*
X120088285Y-57007022D01*
X120106196Y-56981573D01*
X120118521Y-56947458D01*
X120126277Y-56901121D01*
X120130484Y-56839007D01*
X120132160Y-56757561D01*
X120132376Y-56694578D01*
X120132376Y-56458614D01*
X120006633Y-56458614D01*
X120006633Y-56654342D01*
X120006633Y-56654342D01*
G37*
X120006633Y-56654342D02*
X120005445Y-56746563D01*
X120001103Y-56816610D01*
X119992442Y-56867381D01*
X119978296Y-56901772D01*
X119957500Y-56922679D01*
X119928890Y-56933000D01*
X119893465Y-56935636D01*
X119856364Y-56932682D01*
X119828182Y-56921889D01*
X119807757Y-56900360D01*
X119793921Y-56865199D01*
X119785509Y-56813510D01*
X119781357Y-56742394D01*
X119780297Y-56654342D01*
X119780297Y-56458614D01*
X119641980Y-56458614D01*
X119641980Y-57062179D01*
X119711138Y-57062179D01*
X119752830Y-57060489D01*
X119774299Y-57054556D01*
X119780297Y-57043293D01*
X119783909Y-57033261D01*
X119798286Y-57035383D01*
X119827264Y-57049580D01*
X119893681Y-57071480D01*
X119964125Y-57069928D01*
X120031623Y-57046147D01*
X120063767Y-57027362D01*
X120088285Y-57007022D01*
X120106196Y-56981573D01*
X120118521Y-56947458D01*
X120126277Y-56901121D01*
X120130484Y-56839007D01*
X120132160Y-56757561D01*
X120132376Y-56694578D01*
X120132376Y-56458614D01*
X120006633Y-56458614D01*
X120006633Y-56654342D01*
G36*
X118782774Y-56463880D02*
X118709920Y-56494830D01*
X118686973Y-56509895D01*
X118657646Y-56533048D01*
X118639236Y-56551253D01*
X118636039Y-56557183D01*
X118645065Y-56570340D01*
X118668163Y-56592667D01*
X118686656Y-56608250D01*
X118737272Y-56648926D01*
X118777240Y-56615295D01*
X118808126Y-56593584D01*
X118838241Y-56586090D01*
X118872708Y-56587920D01*
X118927439Y-56601528D01*
X118965114Y-56629772D01*
X118988009Y-56675433D01*
X118998403Y-56741289D01*
X118998405Y-56741331D01*
X118997506Y-56814939D01*
X118983537Y-56868946D01*
X118955672Y-56905716D01*
X118936675Y-56918168D01*
X118886224Y-56933673D01*
X118832337Y-56933683D01*
X118785454Y-56918638D01*
X118774356Y-56911287D01*
X118746524Y-56892511D01*
X118724764Y-56889434D01*
X118701296Y-56903409D01*
X118675351Y-56928510D01*
X118634284Y-56970880D01*
X118679879Y-57008464D01*
X118750326Y-57050882D01*
X118829767Y-57071785D01*
X118912785Y-57070272D01*
X118967306Y-57056411D01*
X119031030Y-57022135D01*
X119081995Y-56968212D01*
X119105149Y-56930149D01*
X119123901Y-56875536D01*
X119133285Y-56806369D01*
X119133357Y-56731407D01*
X119124176Y-56659409D01*
X119105801Y-56599137D01*
X119102907Y-56592958D01*
X119060048Y-56532351D01*
X119002021Y-56488224D01*
X118933409Y-56461493D01*
X118858799Y-56453073D01*
X118782774Y-56463880D01*
X118782774Y-56463880D01*
G37*
X118782774Y-56463880D02*
X118709920Y-56494830D01*
X118686973Y-56509895D01*
X118657646Y-56533048D01*
X118639236Y-56551253D01*
X118636039Y-56557183D01*
X118645065Y-56570340D01*
X118668163Y-56592667D01*
X118686656Y-56608250D01*
X118737272Y-56648926D01*
X118777240Y-56615295D01*
X118808126Y-56593584D01*
X118838241Y-56586090D01*
X118872708Y-56587920D01*
X118927439Y-56601528D01*
X118965114Y-56629772D01*
X118988009Y-56675433D01*
X118998403Y-56741289D01*
X118998405Y-56741331D01*
X118997506Y-56814939D01*
X118983537Y-56868946D01*
X118955672Y-56905716D01*
X118936675Y-56918168D01*
X118886224Y-56933673D01*
X118832337Y-56933683D01*
X118785454Y-56918638D01*
X118774356Y-56911287D01*
X118746524Y-56892511D01*
X118724764Y-56889434D01*
X118701296Y-56903409D01*
X118675351Y-56928510D01*
X118634284Y-56970880D01*
X118679879Y-57008464D01*
X118750326Y-57050882D01*
X118829767Y-57071785D01*
X118912785Y-57070272D01*
X118967306Y-57056411D01*
X119031030Y-57022135D01*
X119081995Y-56968212D01*
X119105149Y-56930149D01*
X119123901Y-56875536D01*
X119133285Y-56806369D01*
X119133357Y-56731407D01*
X119124176Y-56659409D01*
X119105801Y-56599137D01*
X119102907Y-56592958D01*
X119060048Y-56532351D01*
X119002021Y-56488224D01*
X118933409Y-56461493D01*
X118858799Y-56453073D01*
X118782774Y-56463880D01*
G36*
X118322102Y-56456457D02*
X118289904Y-56464279D01*
X118228175Y-56492921D01*
X118175390Y-56536667D01*
X118138859Y-56589117D01*
X118133840Y-56600893D01*
X118126955Y-56631740D01*
X118122136Y-56677371D01*
X118120495Y-56723492D01*
X118120495Y-56810693D01*
X118302822Y-56810693D01*
X118378021Y-56810978D01*
X118430997Y-56812704D01*
X118464675Y-56817181D01*
X118481980Y-56825720D01*
X118485837Y-56839630D01*
X118479171Y-56860222D01*
X118467230Y-56884315D01*
X118433920Y-56924525D01*
X118387632Y-56944558D01*
X118331056Y-56943905D01*
X118266969Y-56922101D01*
X118211583Y-56895193D01*
X118165625Y-56931532D01*
X118119667Y-56967872D01*
X118162904Y-57007819D01*
X118220626Y-57045563D01*
X118291614Y-57068320D01*
X118367971Y-57074688D01*
X118441801Y-57063268D01*
X118453713Y-57059393D01*
X118518601Y-57025506D01*
X118566870Y-56974986D01*
X118599535Y-56906325D01*
X118617615Y-56818014D01*
X118617825Y-56816121D01*
X118619444Y-56719878D01*
X118612900Y-56685542D01*
X118485148Y-56685542D01*
X118473416Y-56690822D01*
X118441562Y-56694867D01*
X118394603Y-56697176D01*
X118364846Y-56697525D01*
X118309352Y-56697306D01*
X118274654Y-56695916D01*
X118256399Y-56692251D01*
X118250234Y-56685210D01*
X118251805Y-56673690D01*
X118253122Y-56669233D01*
X118275618Y-56627355D01*
X118310997Y-56593604D01*
X118342220Y-56578773D01*
X118383699Y-56579668D01*
X118425731Y-56598164D01*
X118460988Y-56628786D01*
X118482146Y-56666062D01*
X118485148Y-56685542D01*
X118612900Y-56685542D01*
X118603310Y-56635229D01*
X118571302Y-56564191D01*
X118525299Y-56508779D01*
X118467179Y-56471009D01*
X118398820Y-56452896D01*
X118322102Y-56456457D01*
X118322102Y-56456457D01*
G37*
X118322102Y-56456457D02*
X118289904Y-56464279D01*
X118228175Y-56492921D01*
X118175390Y-56536667D01*
X118138859Y-56589117D01*
X118133840Y-56600893D01*
X118126955Y-56631740D01*
X118122136Y-56677371D01*
X118120495Y-56723492D01*
X118120495Y-56810693D01*
X118302822Y-56810693D01*
X118378021Y-56810978D01*
X118430997Y-56812704D01*
X118464675Y-56817181D01*
X118481980Y-56825720D01*
X118485837Y-56839630D01*
X118479171Y-56860222D01*
X118467230Y-56884315D01*
X118433920Y-56924525D01*
X118387632Y-56944558D01*
X118331056Y-56943905D01*
X118266969Y-56922101D01*
X118211583Y-56895193D01*
X118165625Y-56931532D01*
X118119667Y-56967872D01*
X118162904Y-57007819D01*
X118220626Y-57045563D01*
X118291614Y-57068320D01*
X118367971Y-57074688D01*
X118441801Y-57063268D01*
X118453713Y-57059393D01*
X118518601Y-57025506D01*
X118566870Y-56974986D01*
X118599535Y-56906325D01*
X118617615Y-56818014D01*
X118617825Y-56816121D01*
X118619444Y-56719878D01*
X118612900Y-56685542D01*
X118485148Y-56685542D01*
X118473416Y-56690822D01*
X118441562Y-56694867D01*
X118394603Y-56697176D01*
X118364846Y-56697525D01*
X118309352Y-56697306D01*
X118274654Y-56695916D01*
X118256399Y-56692251D01*
X118250234Y-56685210D01*
X118251805Y-56673690D01*
X118253122Y-56669233D01*
X118275618Y-56627355D01*
X118310997Y-56593604D01*
X118342220Y-56578773D01*
X118383699Y-56579668D01*
X118425731Y-56598164D01*
X118460988Y-56628786D01*
X118482146Y-56666062D01*
X118485148Y-56685542D01*
X118612900Y-56685542D01*
X118603310Y-56635229D01*
X118571302Y-56564191D01*
X118525299Y-56508779D01*
X118467179Y-56471009D01*
X118398820Y-56452896D01*
X118322102Y-56456457D01*
G36*
X121754012Y-56469002D02*
X121722717Y-56483950D01*
X121692409Y-56505541D01*
X121669318Y-56530391D01*
X121652500Y-56562087D01*
X121641006Y-56604214D01*
X121633891Y-56660358D01*
X121630207Y-56734106D01*
X121629008Y-56829044D01*
X121628989Y-56838985D01*
X121628713Y-57062179D01*
X121767030Y-57062179D01*
X121767030Y-56856418D01*
X121767128Y-56780189D01*
X121767809Y-56724939D01*
X121769651Y-56686501D01*
X121773233Y-56660706D01*
X121779132Y-56643384D01*
X121787927Y-56630368D01*
X121800180Y-56617507D01*
X121843047Y-56589873D01*
X121889843Y-56584745D01*
X121934424Y-56602217D01*
X121949928Y-56615221D01*
X121961310Y-56627447D01*
X121969481Y-56640540D01*
X121974974Y-56658615D01*
X121978320Y-56685787D01*
X121980051Y-56726170D01*
X121980697Y-56783879D01*
X121980792Y-56854132D01*
X121980792Y-57062179D01*
X122119109Y-57062179D01*
X122119109Y-56458614D01*
X122049950Y-56458614D01*
X122008428Y-56460256D01*
X121987006Y-56466087D01*
X121980795Y-56477461D01*
X121980792Y-56477798D01*
X121977910Y-56488938D01*
X121965199Y-56487674D01*
X121939926Y-56475434D01*
X121882605Y-56457424D01*
X121817037Y-56455421D01*
X121754012Y-56469002D01*
X121754012Y-56469002D01*
G37*
X121754012Y-56469002D02*
X121722717Y-56483950D01*
X121692409Y-56505541D01*
X121669318Y-56530391D01*
X121652500Y-56562087D01*
X121641006Y-56604214D01*
X121633891Y-56660358D01*
X121630207Y-56734106D01*
X121629008Y-56829044D01*
X121628989Y-56838985D01*
X121628713Y-57062179D01*
X121767030Y-57062179D01*
X121767030Y-56856418D01*
X121767128Y-56780189D01*
X121767809Y-56724939D01*
X121769651Y-56686501D01*
X121773233Y-56660706D01*
X121779132Y-56643384D01*
X121787927Y-56630368D01*
X121800180Y-56617507D01*
X121843047Y-56589873D01*
X121889843Y-56584745D01*
X121934424Y-56602217D01*
X121949928Y-56615221D01*
X121961310Y-56627447D01*
X121969481Y-56640540D01*
X121974974Y-56658615D01*
X121978320Y-56685787D01*
X121980051Y-56726170D01*
X121980697Y-56783879D01*
X121980792Y-56854132D01*
X121980792Y-57062179D01*
X122119109Y-57062179D01*
X122119109Y-56458614D01*
X122049950Y-56458614D01*
X122008428Y-56460256D01*
X121987006Y-56466087D01*
X121980795Y-56477461D01*
X121980792Y-56477798D01*
X121977910Y-56488938D01*
X121965199Y-56487674D01*
X121939926Y-56475434D01*
X121882605Y-56457424D01*
X121817037Y-56455421D01*
X121754012Y-56469002D01*
G36*
X119200540Y-56458030D02*
X119157289Y-56471245D01*
X119129442Y-56487941D01*
X119120371Y-56501145D01*
X119122868Y-56516797D01*
X119139069Y-56541385D01*
X119152768Y-56558800D01*
X119181008Y-56590283D01*
X119202225Y-56603529D01*
X119220312Y-56602664D01*
X119273965Y-56589010D01*
X119313370Y-56589630D01*
X119345368Y-56605104D01*
X119356110Y-56614161D01*
X119390495Y-56646027D01*
X119390495Y-57062179D01*
X119528812Y-57062179D01*
X119528812Y-56458614D01*
X119459653Y-56458614D01*
X119418131Y-56460256D01*
X119396709Y-56466087D01*
X119390498Y-56477461D01*
X119390495Y-56477798D01*
X119387561Y-56489713D01*
X119374296Y-56488159D01*
X119355916Y-56479563D01*
X119317954Y-56463568D01*
X119287128Y-56453945D01*
X119247464Y-56451478D01*
X119200540Y-56458030D01*
X119200540Y-56458030D01*
G37*
X119200540Y-56458030D02*
X119157289Y-56471245D01*
X119129442Y-56487941D01*
X119120371Y-56501145D01*
X119122868Y-56516797D01*
X119139069Y-56541385D01*
X119152768Y-56558800D01*
X119181008Y-56590283D01*
X119202225Y-56603529D01*
X119220312Y-56602664D01*
X119273965Y-56589010D01*
X119313370Y-56589630D01*
X119345368Y-56605104D01*
X119356110Y-56614161D01*
X119390495Y-56646027D01*
X119390495Y-57062179D01*
X119528812Y-57062179D01*
X119528812Y-56458614D01*
X119459653Y-56458614D01*
X119418131Y-56460256D01*
X119396709Y-56466087D01*
X119390498Y-56477461D01*
X119390495Y-56477798D01*
X119387561Y-56489713D01*
X119374296Y-56488159D01*
X119355916Y-56479563D01*
X119317954Y-56463568D01*
X119287128Y-56453945D01*
X119247464Y-56451478D01*
X119200540Y-56458030D01*
G36*
X120623036Y-52290018D02*
X120566188Y-52591570D01*
X120146662Y-52764512D01*
X119895016Y-52593395D01*
X119824542Y-52545750D01*
X119760837Y-52503210D01*
X119706874Y-52467715D01*
X119665627Y-52441210D01*
X119640066Y-52425636D01*
X119633105Y-52422278D01*
X119620565Y-52430914D01*
X119593769Y-52454792D01*
X119555720Y-52490859D01*
X119509421Y-52536067D01*
X119457877Y-52587364D01*
X119404091Y-52641701D01*
X119351065Y-52696028D01*
X119301805Y-52747295D01*
X119259313Y-52792451D01*
X119226593Y-52828446D01*
X119206649Y-52852230D01*
X119201881Y-52860190D01*
X119208743Y-52874865D01*
X119227980Y-52907014D01*
X119257570Y-52953492D01*
X119295490Y-53011156D01*
X119339718Y-53076860D01*
X119365346Y-53114336D01*
X119412059Y-53182768D01*
X119453568Y-53244520D01*
X119487860Y-53296519D01*
X119512920Y-53335692D01*
X119526736Y-53358965D01*
X119528812Y-53363855D01*
X119524105Y-53377755D01*
X119511277Y-53410150D01*
X119492262Y-53456485D01*
X119468997Y-53512206D01*
X119443416Y-53572758D01*
X119417455Y-53633586D01*
X119393050Y-53690136D01*
X119372137Y-53737852D01*
X119356651Y-53772181D01*
X119348528Y-53788568D01*
X119348048Y-53789212D01*
X119335293Y-53792341D01*
X119301323Y-53799321D01*
X119249660Y-53809467D01*
X119183824Y-53822092D01*
X119107336Y-53836509D01*
X119062710Y-53844823D01*
X118980979Y-53860384D01*
X118907157Y-53875192D01*
X118844979Y-53888436D01*
X118798178Y-53899305D01*
X118770491Y-53906989D01*
X118764926Y-53909427D01*
X118759474Y-53925930D01*
X118755076Y-53963200D01*
X118751728Y-54016880D01*
X118749426Y-54082612D01*
X118748168Y-54156037D01*
X118747952Y-54232796D01*
X118748773Y-54308532D01*
X118750629Y-54378886D01*
X118753518Y-54439500D01*
X118757435Y-54486016D01*
X118762378Y-54514075D01*
X118765343Y-54519916D01*
X118783066Y-54526917D01*
X118820619Y-54536927D01*
X118873036Y-54548769D01*
X118935348Y-54561267D01*
X118957100Y-54565310D01*
X119061976Y-54584520D01*
X119144820Y-54599991D01*
X119208370Y-54612337D01*
X119255363Y-54622173D01*
X119288537Y-54630114D01*
X119310629Y-54636776D01*
X119324376Y-54642773D01*
X119332516Y-54648719D01*
X119333655Y-54649894D01*
X119345023Y-54668826D01*
X119362365Y-54705669D01*
X119383950Y-54755913D01*
X119408046Y-54815046D01*
X119432921Y-54878556D01*
X119456843Y-54941932D01*
X119478081Y-55000662D01*
X119494903Y-55050235D01*
X119505578Y-55086139D01*
X119508373Y-55103862D01*
X119508140Y-55104483D01*
X119498669Y-55118970D01*
X119477182Y-55150844D01*
X119445937Y-55196789D01*
X119407193Y-55253485D01*
X119363207Y-55317617D01*
X119350681Y-55335842D01*
X119306016Y-55401914D01*
X119266712Y-55462200D01*
X119234912Y-55513235D01*
X119212755Y-55551560D01*
X119202383Y-55573711D01*
X119201881Y-55576432D01*
X119210595Y-55590736D01*
X119234675Y-55619072D01*
X119271024Y-55658396D01*
X119316547Y-55705661D01*
X119368148Y-55757823D01*
X119422733Y-55811835D01*
X119477206Y-55864653D01*
X119528471Y-55913231D01*
X119573433Y-55954523D01*
X119608996Y-55985485D01*
X119632065Y-56003070D01*
X119638446Y-56005941D01*
X119653301Y-55999178D01*
X119683714Y-55980939D01*
X119724732Y-55954297D01*
X119756291Y-55932852D01*
X119813475Y-55893503D01*
X119881194Y-55847171D01*
X119949120Y-55800913D01*
X119985639Y-55776155D01*
X120109248Y-55692547D01*
X120213009Y-55748650D01*
X120260280Y-55773228D01*
X120300477Y-55792331D01*
X120327674Y-55803227D01*
X120334598Y-55804743D01*
X120342923Y-55793549D01*
X120359346Y-55761917D01*
X120382643Y-55712765D01*
X120411586Y-55649010D01*
X120444950Y-55573571D01*
X120481509Y-55489364D01*
X120520036Y-55399308D01*
X120559306Y-55306321D01*
X120598092Y-55213320D01*
X120635170Y-55123223D01*
X120669311Y-55038948D01*
X120699292Y-54963413D01*
X120723884Y-54899534D01*
X120741864Y-54850231D01*
X120752003Y-54818421D01*
X120753634Y-54807496D01*
X120740709Y-54793561D01*
X120712411Y-54770940D01*
X120674654Y-54744333D01*
X120671485Y-54742228D01*
X120573900Y-54664114D01*
X120495214Y-54572982D01*
X120436109Y-54471745D01*
X120397268Y-54363318D01*
X120379372Y-54250614D01*
X120383103Y-54136548D01*
X120409143Y-54024034D01*
X120458175Y-53915985D01*
X120472600Y-53892345D01*
X120547631Y-53796887D01*
X120636270Y-53720232D01*
X120735451Y-53662780D01*
X120842105Y-53624929D01*
X120953164Y-53607078D01*
X121065561Y-53609625D01*
X121176227Y-53632970D01*
X121282094Y-53677510D01*
X121380095Y-53743645D01*
X121410410Y-53770487D01*
X121487562Y-53854512D01*
X121543782Y-53942966D01*
X121582347Y-54042115D01*
X121603826Y-54140303D01*
X121609128Y-54250697D01*
X121591448Y-54361640D01*
X121552581Y-54469381D01*
X121494323Y-54570169D01*
X121418469Y-54660256D01*
X121326817Y-54735892D01*
X121314772Y-54743864D01*
X121276611Y-54769974D01*
X121247601Y-54792595D01*
X121233732Y-54807039D01*
X121233531Y-54807496D01*
X121236508Y-54823121D01*
X121248311Y-54858582D01*
X121267714Y-54910962D01*
X121293488Y-54977345D01*
X121324409Y-55054814D01*
X121359249Y-55140450D01*
X121396783Y-55231337D01*
X121435783Y-55324559D01*
X121475023Y-55417197D01*
X121513276Y-55506335D01*
X121549317Y-55589055D01*
X121581917Y-55662441D01*
X121609852Y-55723575D01*
X121631895Y-55769541D01*
X121646818Y-55797421D01*
X121652828Y-55804743D01*
X121671191Y-55799041D01*
X121705552Y-55783749D01*
X121749984Y-55761599D01*
X121774417Y-55748650D01*
X121878178Y-55692547D01*
X122001787Y-55776155D01*
X122064886Y-55818987D01*
X122133970Y-55866122D01*
X122198707Y-55910503D01*
X122231134Y-55932852D01*
X122276741Y-55963477D01*
X122315360Y-55987747D01*
X122341952Y-56002587D01*
X122350590Y-56005724D01*
X122363161Y-55997261D01*
X122390984Y-55973636D01*
X122431361Y-55937302D01*
X122481595Y-55890711D01*
X122538988Y-55836317D01*
X122575286Y-55801392D01*
X122638790Y-55738996D01*
X122693673Y-55683188D01*
X122737714Y-55636354D01*
X122768695Y-55600882D01*
X122784398Y-55579161D01*
X122785905Y-55574752D01*
X122778914Y-55557985D01*
X122759594Y-55524082D01*
X122730091Y-55476476D01*
X122692545Y-55418599D01*
X122649100Y-55353884D01*
X122636745Y-55335842D01*
X122591727Y-55270267D01*
X122551340Y-55211228D01*
X122517840Y-55162042D01*
X122493486Y-55126028D01*
X122480536Y-55106502D01*
X122479285Y-55104483D01*
X122481156Y-55088922D01*
X122491087Y-55054709D01*
X122507347Y-55006355D01*
X122528205Y-54948371D01*
X122551927Y-54885270D01*
X122576784Y-54821563D01*
X122601042Y-54761761D01*
X122622971Y-54710376D01*
X122640838Y-54671919D01*
X122652913Y-54650902D01*
X122653771Y-54649894D01*
X122661154Y-54643888D01*
X122673625Y-54637948D01*
X122693920Y-54631460D01*
X122724778Y-54623809D01*
X122768934Y-54614380D01*
X122829126Y-54602559D01*
X122908093Y-54587729D01*
X123008570Y-54569277D01*
X123030325Y-54565310D01*
X123094802Y-54552853D01*
X123151011Y-54540666D01*
X123193987Y-54529926D01*
X123218760Y-54521809D01*
X123222082Y-54519916D01*
X123227556Y-54503138D01*
X123232006Y-54465645D01*
X123235428Y-54411794D01*
X123237819Y-54345944D01*
X123239177Y-54272453D01*
X123239499Y-54195680D01*
X123238781Y-54119983D01*
X123237021Y-54049720D01*
X123234216Y-53989250D01*
X123230362Y-53942930D01*
X123225457Y-53915119D01*
X123222500Y-53909427D01*
X123206037Y-53903686D01*
X123168551Y-53894345D01*
X123113775Y-53882215D01*
X123045445Y-53868107D01*
X122967294Y-53852830D01*
X122924716Y-53844823D01*
X122843929Y-53829721D01*
X122771887Y-53816040D01*
X122712111Y-53804467D01*
X122668121Y-53795687D01*
X122643439Y-53790387D01*
X122639377Y-53789212D01*
X122632511Y-53775965D01*
X122617998Y-53744057D01*
X122597771Y-53698047D01*
X122573766Y-53642492D01*
X122547918Y-53581953D01*
X122522160Y-53520986D01*
X122498427Y-53464151D01*
X122478654Y-53416006D01*
X122464776Y-53381110D01*
X122458726Y-53364021D01*
X122458614Y-53363274D01*
X122465472Y-53349793D01*
X122484698Y-53318770D01*
X122514272Y-53273289D01*
X122552173Y-53216432D01*
X122596380Y-53151283D01*
X122622079Y-53113862D01*
X122668907Y-53045247D01*
X122710499Y-52982952D01*
X122744825Y-52930129D01*
X122769857Y-52889927D01*
X122783565Y-52865500D01*
X122785544Y-52860024D01*
X122777034Y-52847278D01*
X122753507Y-52820063D01*
X122717968Y-52781428D01*
X122673423Y-52734423D01*
X122622877Y-52682095D01*
X122569336Y-52627495D01*
X122515805Y-52573670D01*
X122465289Y-52523670D01*
X122420794Y-52480543D01*
X122385325Y-52447339D01*
X122361887Y-52427106D01*
X122354046Y-52422278D01*
X122341280Y-52429067D01*
X122310744Y-52448142D01*
X122265410Y-52477561D01*
X122208244Y-52515381D01*
X122142216Y-52559661D01*
X122092410Y-52593395D01*
X121840764Y-52764512D01*
X121631001Y-52678041D01*
X121421237Y-52591570D01*
X121364389Y-52290018D01*
X121307540Y-51988466D01*
X120679885Y-51988466D01*
X120623036Y-52290018D01*
X120623036Y-52290018D01*
G37*
X120623036Y-52290018D02*
X120566188Y-52591570D01*
X120146662Y-52764512D01*
X119895016Y-52593395D01*
X119824542Y-52545750D01*
X119760837Y-52503210D01*
X119706874Y-52467715D01*
X119665627Y-52441210D01*
X119640066Y-52425636D01*
X119633105Y-52422278D01*
X119620565Y-52430914D01*
X119593769Y-52454792D01*
X119555720Y-52490859D01*
X119509421Y-52536067D01*
X119457877Y-52587364D01*
X119404091Y-52641701D01*
X119351065Y-52696028D01*
X119301805Y-52747295D01*
X119259313Y-52792451D01*
X119226593Y-52828446D01*
X119206649Y-52852230D01*
X119201881Y-52860190D01*
X119208743Y-52874865D01*
X119227980Y-52907014D01*
X119257570Y-52953492D01*
X119295490Y-53011156D01*
X119339718Y-53076860D01*
X119365346Y-53114336D01*
X119412059Y-53182768D01*
X119453568Y-53244520D01*
X119487860Y-53296519D01*
X119512920Y-53335692D01*
X119526736Y-53358965D01*
X119528812Y-53363855D01*
X119524105Y-53377755D01*
X119511277Y-53410150D01*
X119492262Y-53456485D01*
X119468997Y-53512206D01*
X119443416Y-53572758D01*
X119417455Y-53633586D01*
X119393050Y-53690136D01*
X119372137Y-53737852D01*
X119356651Y-53772181D01*
X119348528Y-53788568D01*
X119348048Y-53789212D01*
X119335293Y-53792341D01*
X119301323Y-53799321D01*
X119249660Y-53809467D01*
X119183824Y-53822092D01*
X119107336Y-53836509D01*
X119062710Y-53844823D01*
X118980979Y-53860384D01*
X118907157Y-53875192D01*
X118844979Y-53888436D01*
X118798178Y-53899305D01*
X118770491Y-53906989D01*
X118764926Y-53909427D01*
X118759474Y-53925930D01*
X118755076Y-53963200D01*
X118751728Y-54016880D01*
X118749426Y-54082612D01*
X118748168Y-54156037D01*
X118747952Y-54232796D01*
X118748773Y-54308532D01*
X118750629Y-54378886D01*
X118753518Y-54439500D01*
X118757435Y-54486016D01*
X118762378Y-54514075D01*
X118765343Y-54519916D01*
X118783066Y-54526917D01*
X118820619Y-54536927D01*
X118873036Y-54548769D01*
X118935348Y-54561267D01*
X118957100Y-54565310D01*
X119061976Y-54584520D01*
X119144820Y-54599991D01*
X119208370Y-54612337D01*
X119255363Y-54622173D01*
X119288537Y-54630114D01*
X119310629Y-54636776D01*
X119324376Y-54642773D01*
X119332516Y-54648719D01*
X119333655Y-54649894D01*
X119345023Y-54668826D01*
X119362365Y-54705669D01*
X119383950Y-54755913D01*
X119408046Y-54815046D01*
X119432921Y-54878556D01*
X119456843Y-54941932D01*
X119478081Y-55000662D01*
X119494903Y-55050235D01*
X119505578Y-55086139D01*
X119508373Y-55103862D01*
X119508140Y-55104483D01*
X119498669Y-55118970D01*
X119477182Y-55150844D01*
X119445937Y-55196789D01*
X119407193Y-55253485D01*
X119363207Y-55317617D01*
X119350681Y-55335842D01*
X119306016Y-55401914D01*
X119266712Y-55462200D01*
X119234912Y-55513235D01*
X119212755Y-55551560D01*
X119202383Y-55573711D01*
X119201881Y-55576432D01*
X119210595Y-55590736D01*
X119234675Y-55619072D01*
X119271024Y-55658396D01*
X119316547Y-55705661D01*
X119368148Y-55757823D01*
X119422733Y-55811835D01*
X119477206Y-55864653D01*
X119528471Y-55913231D01*
X119573433Y-55954523D01*
X119608996Y-55985485D01*
X119632065Y-56003070D01*
X119638446Y-56005941D01*
X119653301Y-55999178D01*
X119683714Y-55980939D01*
X119724732Y-55954297D01*
X119756291Y-55932852D01*
X119813475Y-55893503D01*
X119881194Y-55847171D01*
X119949120Y-55800913D01*
X119985639Y-55776155D01*
X120109248Y-55692547D01*
X120213009Y-55748650D01*
X120260280Y-55773228D01*
X120300477Y-55792331D01*
X120327674Y-55803227D01*
X120334598Y-55804743D01*
X120342923Y-55793549D01*
X120359346Y-55761917D01*
X120382643Y-55712765D01*
X120411586Y-55649010D01*
X120444950Y-55573571D01*
X120481509Y-55489364D01*
X120520036Y-55399308D01*
X120559306Y-55306321D01*
X120598092Y-55213320D01*
X120635170Y-55123223D01*
X120669311Y-55038948D01*
X120699292Y-54963413D01*
X120723884Y-54899534D01*
X120741864Y-54850231D01*
X120752003Y-54818421D01*
X120753634Y-54807496D01*
X120740709Y-54793561D01*
X120712411Y-54770940D01*
X120674654Y-54744333D01*
X120671485Y-54742228D01*
X120573900Y-54664114D01*
X120495214Y-54572982D01*
X120436109Y-54471745D01*
X120397268Y-54363318D01*
X120379372Y-54250614D01*
X120383103Y-54136548D01*
X120409143Y-54024034D01*
X120458175Y-53915985D01*
X120472600Y-53892345D01*
X120547631Y-53796887D01*
X120636270Y-53720232D01*
X120735451Y-53662780D01*
X120842105Y-53624929D01*
X120953164Y-53607078D01*
X121065561Y-53609625D01*
X121176227Y-53632970D01*
X121282094Y-53677510D01*
X121380095Y-53743645D01*
X121410410Y-53770487D01*
X121487562Y-53854512D01*
X121543782Y-53942966D01*
X121582347Y-54042115D01*
X121603826Y-54140303D01*
X121609128Y-54250697D01*
X121591448Y-54361640D01*
X121552581Y-54469381D01*
X121494323Y-54570169D01*
X121418469Y-54660256D01*
X121326817Y-54735892D01*
X121314772Y-54743864D01*
X121276611Y-54769974D01*
X121247601Y-54792595D01*
X121233732Y-54807039D01*
X121233531Y-54807496D01*
X121236508Y-54823121D01*
X121248311Y-54858582D01*
X121267714Y-54910962D01*
X121293488Y-54977345D01*
X121324409Y-55054814D01*
X121359249Y-55140450D01*
X121396783Y-55231337D01*
X121435783Y-55324559D01*
X121475023Y-55417197D01*
X121513276Y-55506335D01*
X121549317Y-55589055D01*
X121581917Y-55662441D01*
X121609852Y-55723575D01*
X121631895Y-55769541D01*
X121646818Y-55797421D01*
X121652828Y-55804743D01*
X121671191Y-55799041D01*
X121705552Y-55783749D01*
X121749984Y-55761599D01*
X121774417Y-55748650D01*
X121878178Y-55692547D01*
X122001787Y-55776155D01*
X122064886Y-55818987D01*
X122133970Y-55866122D01*
X122198707Y-55910503D01*
X122231134Y-55932852D01*
X122276741Y-55963477D01*
X122315360Y-55987747D01*
X122341952Y-56002587D01*
X122350590Y-56005724D01*
X122363161Y-55997261D01*
X122390984Y-55973636D01*
X122431361Y-55937302D01*
X122481595Y-55890711D01*
X122538988Y-55836317D01*
X122575286Y-55801392D01*
X122638790Y-55738996D01*
X122693673Y-55683188D01*
X122737714Y-55636354D01*
X122768695Y-55600882D01*
X122784398Y-55579161D01*
X122785905Y-55574752D01*
X122778914Y-55557985D01*
X122759594Y-55524082D01*
X122730091Y-55476476D01*
X122692545Y-55418599D01*
X122649100Y-55353884D01*
X122636745Y-55335842D01*
X122591727Y-55270267D01*
X122551340Y-55211228D01*
X122517840Y-55162042D01*
X122493486Y-55126028D01*
X122480536Y-55106502D01*
X122479285Y-55104483D01*
X122481156Y-55088922D01*
X122491087Y-55054709D01*
X122507347Y-55006355D01*
X122528205Y-54948371D01*
X122551927Y-54885270D01*
X122576784Y-54821563D01*
X122601042Y-54761761D01*
X122622971Y-54710376D01*
X122640838Y-54671919D01*
X122652913Y-54650902D01*
X122653771Y-54649894D01*
X122661154Y-54643888D01*
X122673625Y-54637948D01*
X122693920Y-54631460D01*
X122724778Y-54623809D01*
X122768934Y-54614380D01*
X122829126Y-54602559D01*
X122908093Y-54587729D01*
X123008570Y-54569277D01*
X123030325Y-54565310D01*
X123094802Y-54552853D01*
X123151011Y-54540666D01*
X123193987Y-54529926D01*
X123218760Y-54521809D01*
X123222082Y-54519916D01*
X123227556Y-54503138D01*
X123232006Y-54465645D01*
X123235428Y-54411794D01*
X123237819Y-54345944D01*
X123239177Y-54272453D01*
X123239499Y-54195680D01*
X123238781Y-54119983D01*
X123237021Y-54049720D01*
X123234216Y-53989250D01*
X123230362Y-53942930D01*
X123225457Y-53915119D01*
X123222500Y-53909427D01*
X123206037Y-53903686D01*
X123168551Y-53894345D01*
X123113775Y-53882215D01*
X123045445Y-53868107D01*
X122967294Y-53852830D01*
X122924716Y-53844823D01*
X122843929Y-53829721D01*
X122771887Y-53816040D01*
X122712111Y-53804467D01*
X122668121Y-53795687D01*
X122643439Y-53790387D01*
X122639377Y-53789212D01*
X122632511Y-53775965D01*
X122617998Y-53744057D01*
X122597771Y-53698047D01*
X122573766Y-53642492D01*
X122547918Y-53581953D01*
X122522160Y-53520986D01*
X122498427Y-53464151D01*
X122478654Y-53416006D01*
X122464776Y-53381110D01*
X122458726Y-53364021D01*
X122458614Y-53363274D01*
X122465472Y-53349793D01*
X122484698Y-53318770D01*
X122514272Y-53273289D01*
X122552173Y-53216432D01*
X122596380Y-53151283D01*
X122622079Y-53113862D01*
X122668907Y-53045247D01*
X122710499Y-52982952D01*
X122744825Y-52930129D01*
X122769857Y-52889927D01*
X122783565Y-52865500D01*
X122785544Y-52860024D01*
X122777034Y-52847278D01*
X122753507Y-52820063D01*
X122717968Y-52781428D01*
X122673423Y-52734423D01*
X122622877Y-52682095D01*
X122569336Y-52627495D01*
X122515805Y-52573670D01*
X122465289Y-52523670D01*
X122420794Y-52480543D01*
X122385325Y-52447339D01*
X122361887Y-52427106D01*
X122354046Y-52422278D01*
X122341280Y-52429067D01*
X122310744Y-52448142D01*
X122265410Y-52477561D01*
X122208244Y-52515381D01*
X122142216Y-52559661D01*
X122092410Y-52593395D01*
X121840764Y-52764512D01*
X121631001Y-52678041D01*
X121421237Y-52591570D01*
X121364389Y-52290018D01*
X121307540Y-51988466D01*
X120679885Y-51988466D01*
X120623036Y-52290018D01*
M02*
