G04 #@! TF.GenerationSoftware,KiCad,Pcbnew,(5.1.5)-3*
G04 #@! TF.CreationDate,2020-11-23T23:15:06+01:00*
G04 #@! TF.ProjectId,PFD_HMC439QS16G,5046445f-484d-4433-9433-395153313647,1.1*
G04 #@! TF.SameCoordinates,Original*
G04 #@! TF.FileFunction,Legend,Top*
G04 #@! TF.FilePolarity,Positive*
%FSLAX46Y46*%
G04 Gerber Fmt 4.6, Leading zero omitted, Abs format (unit mm)*
G04 Created by KiCad (PCBNEW (5.1.5)-3) date 2020-11-23 23:15:06*
%MOMM*%
%LPD*%
G04 APERTURE LIST*
%ADD10C,0.150000*%
%ADD11C,0.200000*%
%ADD12C,0.300000*%
%ADD13C,0.120000*%
%ADD14C,1.000000*%
%ADD15C,0.600000*%
G04 APERTURE END LIST*
D10*
X97952380Y-105378690D02*
X98666666Y-105378690D01*
X98809523Y-105426309D01*
X98904761Y-105521547D01*
X98952380Y-105664404D01*
X98952380Y-105759642D01*
X98428571Y-104569166D02*
X98428571Y-104902500D01*
X98952380Y-104902500D02*
X97952380Y-104902500D01*
X97952380Y-104426309D01*
X98428571Y-104045357D02*
X98428571Y-103712023D01*
X98952380Y-103569166D02*
X98952380Y-104045357D01*
X97952380Y-104045357D01*
X97952380Y-103569166D01*
X97952380Y-103283452D02*
X97952380Y-102712023D01*
X98952380Y-102997738D02*
X97952380Y-102997738D01*
X97904761Y-101664404D02*
X99190476Y-102521547D01*
X98428571Y-100997738D02*
X98476190Y-100854880D01*
X98523809Y-100807261D01*
X98619047Y-100759642D01*
X98761904Y-100759642D01*
X98857142Y-100807261D01*
X98904761Y-100854880D01*
X98952380Y-100950119D01*
X98952380Y-101331071D01*
X97952380Y-101331071D01*
X97952380Y-100997738D01*
X98000000Y-100902500D01*
X98047619Y-100854880D01*
X98142857Y-100807261D01*
X98238095Y-100807261D01*
X98333333Y-100854880D01*
X98380952Y-100902500D01*
X98428571Y-100997738D01*
X98428571Y-101331071D01*
X98952380Y-100331071D02*
X98285714Y-100331071D01*
X97952380Y-100331071D02*
X98000000Y-100378690D01*
X98047619Y-100331071D01*
X98000000Y-100283452D01*
X97952380Y-100331071D01*
X98047619Y-100331071D01*
X98952380Y-99426309D02*
X98428571Y-99426309D01*
X98333333Y-99473928D01*
X98285714Y-99569166D01*
X98285714Y-99759642D01*
X98333333Y-99854880D01*
X98904761Y-99426309D02*
X98952380Y-99521547D01*
X98952380Y-99759642D01*
X98904761Y-99854880D01*
X98809523Y-99902500D01*
X98714285Y-99902500D01*
X98619047Y-99854880D01*
X98571428Y-99759642D01*
X98571428Y-99521547D01*
X98523809Y-99426309D01*
X98904761Y-98997738D02*
X98952380Y-98902500D01*
X98952380Y-98712023D01*
X98904761Y-98616785D01*
X98809523Y-98569166D01*
X98761904Y-98569166D01*
X98666666Y-98616785D01*
X98619047Y-98712023D01*
X98619047Y-98854880D01*
X98571428Y-98950119D01*
X98476190Y-98997738D01*
X98428571Y-98997738D01*
X98333333Y-98950119D01*
X98285714Y-98854880D01*
X98285714Y-98712023D01*
X98333333Y-98616785D01*
X98571428Y-98140595D02*
X98571428Y-97378690D01*
X97952380Y-97045357D02*
X97952380Y-96473928D01*
X98952380Y-96759642D02*
X97952380Y-96759642D01*
X98285714Y-95378690D02*
X98952380Y-95378690D01*
X98380952Y-95378690D02*
X98333333Y-95331071D01*
X98285714Y-95235833D01*
X98285714Y-95092976D01*
X98333333Y-94997738D01*
X98428571Y-94950119D01*
X98952380Y-94950119D01*
X98952380Y-94331071D02*
X98904761Y-94426309D01*
X98857142Y-94473928D01*
X98761904Y-94521547D01*
X98476190Y-94521547D01*
X98380952Y-94473928D01*
X98333333Y-94426309D01*
X98285714Y-94331071D01*
X98285714Y-94188214D01*
X98333333Y-94092976D01*
X98380952Y-94045357D01*
X98476190Y-93997738D01*
X98761904Y-93997738D01*
X98857142Y-94045357D01*
X98904761Y-94092976D01*
X98952380Y-94188214D01*
X98952380Y-94331071D01*
X98285714Y-93569166D02*
X98952380Y-93569166D01*
X98380952Y-93569166D02*
X98333333Y-93521547D01*
X98285714Y-93426309D01*
X98285714Y-93283452D01*
X98333333Y-93188214D01*
X98428571Y-93140595D01*
X98952380Y-93140595D01*
X98571428Y-92664404D02*
X98571428Y-91902500D01*
X98952380Y-91426309D02*
X98285714Y-91426309D01*
X97952380Y-91426309D02*
X98000000Y-91473928D01*
X98047619Y-91426309D01*
X98000000Y-91378690D01*
X97952380Y-91426309D01*
X98047619Y-91426309D01*
X98285714Y-90950119D02*
X98952380Y-90950119D01*
X98380952Y-90950119D02*
X98333333Y-90902500D01*
X98285714Y-90807261D01*
X98285714Y-90664404D01*
X98333333Y-90569166D01*
X98428571Y-90521547D01*
X98952380Y-90521547D01*
X98285714Y-90140595D02*
X98952380Y-89902500D01*
X98285714Y-89664404D01*
X98904761Y-88902500D02*
X98952380Y-88997738D01*
X98952380Y-89188214D01*
X98904761Y-89283452D01*
X98809523Y-89331071D01*
X98428571Y-89331071D01*
X98333333Y-89283452D01*
X98285714Y-89188214D01*
X98285714Y-88997738D01*
X98333333Y-88902500D01*
X98428571Y-88854880D01*
X98523809Y-88854880D01*
X98619047Y-89331071D01*
X98952380Y-88426309D02*
X98285714Y-88426309D01*
X98476190Y-88426309D02*
X98380952Y-88378690D01*
X98333333Y-88331071D01*
X98285714Y-88235833D01*
X98285714Y-88140595D01*
X98285714Y-87950119D02*
X98285714Y-87569166D01*
X97952380Y-87807261D02*
X98809523Y-87807261D01*
X98904761Y-87759642D01*
X98952380Y-87664404D01*
X98952380Y-87569166D01*
X98952380Y-87235833D02*
X98285714Y-87235833D01*
X97952380Y-87235833D02*
X98000000Y-87283452D01*
X98047619Y-87235833D01*
X98000000Y-87188214D01*
X97952380Y-87235833D01*
X98047619Y-87235833D01*
X98285714Y-86759642D02*
X98952380Y-86759642D01*
X98380952Y-86759642D02*
X98333333Y-86712023D01*
X98285714Y-86616785D01*
X98285714Y-86473928D01*
X98333333Y-86378690D01*
X98428571Y-86331071D01*
X98952380Y-86331071D01*
X98285714Y-85426309D02*
X99095238Y-85426309D01*
X99190476Y-85473928D01*
X99238095Y-85521547D01*
X99285714Y-85616785D01*
X99285714Y-85759642D01*
X99238095Y-85854880D01*
X98904761Y-85426309D02*
X98952380Y-85521547D01*
X98952380Y-85712023D01*
X98904761Y-85807261D01*
X98857142Y-85854880D01*
X98761904Y-85902500D01*
X98476190Y-85902500D01*
X98380952Y-85854880D01*
X98333333Y-85807261D01*
X98285714Y-85712023D01*
X98285714Y-85521547D01*
X98333333Y-85426309D01*
X98857142Y-84950119D02*
X98904761Y-84902500D01*
X98952380Y-84950119D01*
X98904761Y-84997738D01*
X98857142Y-84950119D01*
X98952380Y-84950119D01*
X98333333Y-84950119D02*
X98380952Y-84902500D01*
X98428571Y-84950119D01*
X98380952Y-84997738D01*
X98333333Y-84950119D01*
X98428571Y-84950119D01*
X99602380Y-105378690D02*
X100316666Y-105378690D01*
X100459523Y-105426309D01*
X100554761Y-105521547D01*
X100602380Y-105664404D01*
X100602380Y-105759642D01*
X100602380Y-104902500D02*
X99602380Y-104902500D01*
X99602380Y-104521547D01*
X99650000Y-104426309D01*
X99697619Y-104378690D01*
X99792857Y-104331071D01*
X99935714Y-104331071D01*
X100030952Y-104378690D01*
X100078571Y-104426309D01*
X100126190Y-104521547D01*
X100126190Y-104902500D01*
X100602380Y-103378690D02*
X100602380Y-103950119D01*
X100602380Y-103664404D02*
X99602380Y-103664404D01*
X99745238Y-103759642D01*
X99840476Y-103854880D01*
X99888095Y-103950119D01*
X100507142Y-102950119D02*
X100554761Y-102902500D01*
X100602380Y-102950119D01*
X100554761Y-102997738D01*
X100507142Y-102950119D01*
X100602380Y-102950119D01*
X99983333Y-102950119D02*
X100030952Y-102902500D01*
X100078571Y-102950119D01*
X100030952Y-102997738D01*
X99983333Y-102950119D01*
X100078571Y-102950119D01*
X100602380Y-102331071D02*
X100554761Y-102426309D01*
X100507142Y-102473928D01*
X100411904Y-102521547D01*
X100126190Y-102521547D01*
X100030952Y-102473928D01*
X99983333Y-102426309D01*
X99935714Y-102331071D01*
X99935714Y-102188214D01*
X99983333Y-102092976D01*
X100030952Y-102045357D01*
X100126190Y-101997738D01*
X100411904Y-101997738D01*
X100507142Y-102045357D01*
X100554761Y-102092976D01*
X100602380Y-102188214D01*
X100602380Y-102331071D01*
X99935714Y-101569166D02*
X100935714Y-101569166D01*
X99983333Y-101569166D02*
X99935714Y-101473928D01*
X99935714Y-101283452D01*
X99983333Y-101188214D01*
X100030952Y-101140595D01*
X100126190Y-101092976D01*
X100411904Y-101092976D01*
X100507142Y-101140595D01*
X100554761Y-101188214D01*
X100602380Y-101283452D01*
X100602380Y-101473928D01*
X100554761Y-101569166D01*
X100554761Y-100283452D02*
X100602380Y-100378690D01*
X100602380Y-100569166D01*
X100554761Y-100664404D01*
X100459523Y-100712023D01*
X100078571Y-100712023D01*
X99983333Y-100664404D01*
X99935714Y-100569166D01*
X99935714Y-100378690D01*
X99983333Y-100283452D01*
X100078571Y-100235833D01*
X100173809Y-100235833D01*
X100269047Y-100712023D01*
X99935714Y-99807261D02*
X100602380Y-99807261D01*
X100030952Y-99807261D02*
X99983333Y-99759642D01*
X99935714Y-99664404D01*
X99935714Y-99521547D01*
X99983333Y-99426309D01*
X100078571Y-99378690D01*
X100602380Y-99378690D01*
X100554761Y-98854880D02*
X100602380Y-98854880D01*
X100697619Y-98902500D01*
X100745238Y-98950119D01*
X99602380Y-97378690D02*
X100316666Y-97378690D01*
X100459523Y-97426309D01*
X100554761Y-97521547D01*
X100602380Y-97664404D01*
X100602380Y-97759642D01*
X100602380Y-96902500D02*
X99602380Y-96902500D01*
X99602380Y-96521547D01*
X99650000Y-96426309D01*
X99697619Y-96378690D01*
X99792857Y-96331071D01*
X99935714Y-96331071D01*
X100030952Y-96378690D01*
X100078571Y-96426309D01*
X100126190Y-96521547D01*
X100126190Y-96902500D01*
X99697619Y-95950119D02*
X99650000Y-95902500D01*
X99602380Y-95807261D01*
X99602380Y-95569166D01*
X99650000Y-95473928D01*
X99697619Y-95426309D01*
X99792857Y-95378690D01*
X99888095Y-95378690D01*
X100030952Y-95426309D01*
X100602380Y-95997738D01*
X100602380Y-95378690D01*
X100507142Y-94950119D02*
X100554761Y-94902500D01*
X100602380Y-94950119D01*
X100554761Y-94997738D01*
X100507142Y-94950119D01*
X100602380Y-94950119D01*
X99983333Y-94950119D02*
X100030952Y-94902500D01*
X100078571Y-94950119D01*
X100030952Y-94997738D01*
X99983333Y-94950119D01*
X100078571Y-94950119D01*
X100554761Y-94045357D02*
X100602380Y-94140595D01*
X100602380Y-94331071D01*
X100554761Y-94426309D01*
X100507142Y-94473928D01*
X100411904Y-94521547D01*
X100126190Y-94521547D01*
X100030952Y-94473928D01*
X99983333Y-94426309D01*
X99935714Y-94331071D01*
X99935714Y-94140595D01*
X99983333Y-94045357D01*
X100602380Y-93473928D02*
X100554761Y-93569166D01*
X100459523Y-93616785D01*
X99602380Y-93616785D01*
X100602380Y-92950119D02*
X100554761Y-93045357D01*
X100507142Y-93092976D01*
X100411904Y-93140595D01*
X100126190Y-93140595D01*
X100030952Y-93092976D01*
X99983333Y-93045357D01*
X99935714Y-92950119D01*
X99935714Y-92807261D01*
X99983333Y-92712023D01*
X100030952Y-92664404D01*
X100126190Y-92616785D01*
X100411904Y-92616785D01*
X100507142Y-92664404D01*
X100554761Y-92712023D01*
X100602380Y-92807261D01*
X100602380Y-92950119D01*
X100554761Y-92235833D02*
X100602380Y-92140595D01*
X100602380Y-91950119D01*
X100554761Y-91854880D01*
X100459523Y-91807261D01*
X100411904Y-91807261D01*
X100316666Y-91854880D01*
X100269047Y-91950119D01*
X100269047Y-92092976D01*
X100221428Y-92188214D01*
X100126190Y-92235833D01*
X100078571Y-92235833D01*
X99983333Y-92188214D01*
X99935714Y-92092976D01*
X99935714Y-91950119D01*
X99983333Y-91854880D01*
X100554761Y-90997738D02*
X100602380Y-91092976D01*
X100602380Y-91283452D01*
X100554761Y-91378690D01*
X100459523Y-91426309D01*
X100078571Y-91426309D01*
X99983333Y-91378690D01*
X99935714Y-91283452D01*
X99935714Y-91092976D01*
X99983333Y-90997738D01*
X100078571Y-90950119D01*
X100173809Y-90950119D01*
X100269047Y-91426309D01*
X100602380Y-90092976D02*
X99602380Y-90092976D01*
X100554761Y-90092976D02*
X100602380Y-90188214D01*
X100602380Y-90378690D01*
X100554761Y-90473928D01*
X100507142Y-90521547D01*
X100411904Y-90569166D01*
X100126190Y-90569166D01*
X100030952Y-90521547D01*
X99983333Y-90473928D01*
X99935714Y-90378690D01*
X99935714Y-90188214D01*
X99983333Y-90092976D01*
X100554761Y-89569166D02*
X100602380Y-89569166D01*
X100697619Y-89616785D01*
X100745238Y-89664404D01*
X100602380Y-87807261D02*
X100126190Y-88140595D01*
X100602380Y-88378690D02*
X99602380Y-88378690D01*
X99602380Y-87997738D01*
X99650000Y-87902500D01*
X99697619Y-87854880D01*
X99792857Y-87807261D01*
X99935714Y-87807261D01*
X100030952Y-87854880D01*
X100078571Y-87902500D01*
X100126190Y-87997738D01*
X100126190Y-88378690D01*
X100602380Y-86854880D02*
X100602380Y-87426309D01*
X100602380Y-87140595D02*
X99602380Y-87140595D01*
X99745238Y-87235833D01*
X99840476Y-87331071D01*
X99888095Y-87426309D01*
X99602380Y-86521547D02*
X99602380Y-85854880D01*
X100602380Y-86283452D01*
X100078571Y-85473928D02*
X100078571Y-84712023D01*
X100364285Y-84712023D02*
X100364285Y-85473928D01*
X100602380Y-83664404D02*
X100126190Y-83997738D01*
X100602380Y-84235833D02*
X99602380Y-84235833D01*
X99602380Y-83854880D01*
X99650000Y-83759642D01*
X99697619Y-83712023D01*
X99792857Y-83664404D01*
X99935714Y-83664404D01*
X100030952Y-83712023D01*
X100078571Y-83759642D01*
X100126190Y-83854880D01*
X100126190Y-84235833D01*
X100602380Y-82712023D02*
X100602380Y-83283452D01*
X100602380Y-82997738D02*
X99602380Y-82997738D01*
X99745238Y-83092976D01*
X99840476Y-83188214D01*
X99888095Y-83283452D01*
X100030952Y-82140595D02*
X99983333Y-82235833D01*
X99935714Y-82283452D01*
X99840476Y-82331071D01*
X99792857Y-82331071D01*
X99697619Y-82283452D01*
X99650000Y-82235833D01*
X99602380Y-82140595D01*
X99602380Y-81950119D01*
X99650000Y-81854880D01*
X99697619Y-81807261D01*
X99792857Y-81759642D01*
X99840476Y-81759642D01*
X99935714Y-81807261D01*
X99983333Y-81854880D01*
X100030952Y-81950119D01*
X100030952Y-82140595D01*
X100078571Y-82235833D01*
X100126190Y-82283452D01*
X100221428Y-82331071D01*
X100411904Y-82331071D01*
X100507142Y-82283452D01*
X100554761Y-82235833D01*
X100602380Y-82140595D01*
X100602380Y-81950119D01*
X100554761Y-81854880D01*
X100507142Y-81807261D01*
X100411904Y-81759642D01*
X100221428Y-81759642D01*
X100126190Y-81807261D01*
X100078571Y-81854880D01*
X100030952Y-81950119D01*
X102902380Y-105378690D02*
X103616666Y-105378690D01*
X103759523Y-105426309D01*
X103854761Y-105521547D01*
X103902380Y-105664404D01*
X103902380Y-105759642D01*
X103378571Y-104569166D02*
X103378571Y-104902500D01*
X103902380Y-104902500D02*
X102902380Y-104902500D01*
X102902380Y-104426309D01*
X103378571Y-104045357D02*
X103378571Y-103712023D01*
X103902380Y-103569166D02*
X103902380Y-104045357D01*
X102902380Y-104045357D01*
X102902380Y-103569166D01*
X102902380Y-103283452D02*
X102902380Y-102712023D01*
X103902380Y-102997738D02*
X102902380Y-102997738D01*
X102854761Y-101664404D02*
X104140476Y-102521547D01*
X103378571Y-100997738D02*
X103426190Y-100854880D01*
X103473809Y-100807261D01*
X103569047Y-100759642D01*
X103711904Y-100759642D01*
X103807142Y-100807261D01*
X103854761Y-100854880D01*
X103902380Y-100950119D01*
X103902380Y-101331071D01*
X102902380Y-101331071D01*
X102902380Y-100997738D01*
X102950000Y-100902500D01*
X102997619Y-100854880D01*
X103092857Y-100807261D01*
X103188095Y-100807261D01*
X103283333Y-100854880D01*
X103330952Y-100902500D01*
X103378571Y-100997738D01*
X103378571Y-101331071D01*
X103902380Y-100331071D02*
X103235714Y-100331071D01*
X102902380Y-100331071D02*
X102950000Y-100378690D01*
X102997619Y-100331071D01*
X102950000Y-100283452D01*
X102902380Y-100331071D01*
X102997619Y-100331071D01*
X103902380Y-99426309D02*
X103378571Y-99426309D01*
X103283333Y-99473928D01*
X103235714Y-99569166D01*
X103235714Y-99759642D01*
X103283333Y-99854880D01*
X103854761Y-99426309D02*
X103902380Y-99521547D01*
X103902380Y-99759642D01*
X103854761Y-99854880D01*
X103759523Y-99902500D01*
X103664285Y-99902500D01*
X103569047Y-99854880D01*
X103521428Y-99759642D01*
X103521428Y-99521547D01*
X103473809Y-99426309D01*
X103854761Y-98997738D02*
X103902380Y-98902500D01*
X103902380Y-98712023D01*
X103854761Y-98616785D01*
X103759523Y-98569166D01*
X103711904Y-98569166D01*
X103616666Y-98616785D01*
X103569047Y-98712023D01*
X103569047Y-98854880D01*
X103521428Y-98950119D01*
X103426190Y-98997738D01*
X103378571Y-98997738D01*
X103283333Y-98950119D01*
X103235714Y-98854880D01*
X103235714Y-98712023D01*
X103283333Y-98616785D01*
X103521428Y-98140595D02*
X103521428Y-97378690D01*
X102902380Y-97045357D02*
X102902380Y-96473928D01*
X103902380Y-96759642D02*
X102902380Y-96759642D01*
X103902380Y-95378690D02*
X103235714Y-95378690D01*
X102902380Y-95378690D02*
X102950000Y-95426309D01*
X102997619Y-95378690D01*
X102950000Y-95331071D01*
X102902380Y-95378690D01*
X102997619Y-95378690D01*
X103235714Y-94902500D02*
X103902380Y-94902500D01*
X103330952Y-94902500D02*
X103283333Y-94854880D01*
X103235714Y-94759642D01*
X103235714Y-94616785D01*
X103283333Y-94521547D01*
X103378571Y-94473928D01*
X103902380Y-94473928D01*
X103235714Y-94092976D02*
X103902380Y-93854880D01*
X103235714Y-93616785D01*
X103854761Y-92854880D02*
X103902380Y-92950119D01*
X103902380Y-93140595D01*
X103854761Y-93235833D01*
X103759523Y-93283452D01*
X103378571Y-93283452D01*
X103283333Y-93235833D01*
X103235714Y-93140595D01*
X103235714Y-92950119D01*
X103283333Y-92854880D01*
X103378571Y-92807261D01*
X103473809Y-92807261D01*
X103569047Y-93283452D01*
X103902380Y-92378690D02*
X103235714Y-92378690D01*
X103426190Y-92378690D02*
X103330952Y-92331071D01*
X103283333Y-92283452D01*
X103235714Y-92188214D01*
X103235714Y-92092976D01*
X103235714Y-91902500D02*
X103235714Y-91521547D01*
X102902380Y-91759642D02*
X103759523Y-91759642D01*
X103854761Y-91712023D01*
X103902380Y-91616785D01*
X103902380Y-91521547D01*
X103902380Y-91188214D02*
X103235714Y-91188214D01*
X102902380Y-91188214D02*
X102950000Y-91235833D01*
X102997619Y-91188214D01*
X102950000Y-91140595D01*
X102902380Y-91188214D01*
X102997619Y-91188214D01*
X103235714Y-90712023D02*
X103902380Y-90712023D01*
X103330952Y-90712023D02*
X103283333Y-90664404D01*
X103235714Y-90569166D01*
X103235714Y-90426309D01*
X103283333Y-90331071D01*
X103378571Y-90283452D01*
X103902380Y-90283452D01*
X103235714Y-89378690D02*
X104045238Y-89378690D01*
X104140476Y-89426309D01*
X104188095Y-89473928D01*
X104235714Y-89569166D01*
X104235714Y-89712023D01*
X104188095Y-89807261D01*
X103854761Y-89378690D02*
X103902380Y-89473928D01*
X103902380Y-89664404D01*
X103854761Y-89759642D01*
X103807142Y-89807261D01*
X103711904Y-89854880D01*
X103426190Y-89854880D01*
X103330952Y-89807261D01*
X103283333Y-89759642D01*
X103235714Y-89664404D01*
X103235714Y-89473928D01*
X103283333Y-89378690D01*
X103807142Y-88902500D02*
X103854761Y-88854880D01*
X103902380Y-88902500D01*
X103854761Y-88950119D01*
X103807142Y-88902500D01*
X103902380Y-88902500D01*
X103283333Y-88902500D02*
X103330952Y-88854880D01*
X103378571Y-88902500D01*
X103330952Y-88950119D01*
X103283333Y-88902500D01*
X103378571Y-88902500D01*
X104552380Y-105378690D02*
X105266666Y-105378690D01*
X105409523Y-105426309D01*
X105504761Y-105521547D01*
X105552380Y-105664404D01*
X105552380Y-105759642D01*
X105552380Y-104902500D02*
X104552380Y-104902500D01*
X104552380Y-104521547D01*
X104600000Y-104426309D01*
X104647619Y-104378690D01*
X104742857Y-104331071D01*
X104885714Y-104331071D01*
X104980952Y-104378690D01*
X105028571Y-104426309D01*
X105076190Y-104521547D01*
X105076190Y-104902500D01*
X105552380Y-103378690D02*
X105552380Y-103950119D01*
X105552380Y-103664404D02*
X104552380Y-103664404D01*
X104695238Y-103759642D01*
X104790476Y-103854880D01*
X104838095Y-103950119D01*
X105457142Y-102950119D02*
X105504761Y-102902500D01*
X105552380Y-102950119D01*
X105504761Y-102997738D01*
X105457142Y-102950119D01*
X105552380Y-102950119D01*
X104933333Y-102950119D02*
X104980952Y-102902500D01*
X105028571Y-102950119D01*
X104980952Y-102997738D01*
X104933333Y-102950119D01*
X105028571Y-102950119D01*
X105504761Y-102045357D02*
X105552380Y-102140595D01*
X105552380Y-102331071D01*
X105504761Y-102426309D01*
X105457142Y-102473928D01*
X105361904Y-102521547D01*
X105076190Y-102521547D01*
X104980952Y-102473928D01*
X104933333Y-102426309D01*
X104885714Y-102331071D01*
X104885714Y-102140595D01*
X104933333Y-102045357D01*
X105552380Y-101473928D02*
X105504761Y-101569166D01*
X105409523Y-101616785D01*
X104552380Y-101616785D01*
X105552380Y-100950119D02*
X105504761Y-101045357D01*
X105457142Y-101092976D01*
X105361904Y-101140595D01*
X105076190Y-101140595D01*
X104980952Y-101092976D01*
X104933333Y-101045357D01*
X104885714Y-100950119D01*
X104885714Y-100807261D01*
X104933333Y-100712023D01*
X104980952Y-100664404D01*
X105076190Y-100616785D01*
X105361904Y-100616785D01*
X105457142Y-100664404D01*
X105504761Y-100712023D01*
X105552380Y-100807261D01*
X105552380Y-100950119D01*
X105504761Y-100235833D02*
X105552380Y-100140595D01*
X105552380Y-99950119D01*
X105504761Y-99854880D01*
X105409523Y-99807261D01*
X105361904Y-99807261D01*
X105266666Y-99854880D01*
X105219047Y-99950119D01*
X105219047Y-100092976D01*
X105171428Y-100188214D01*
X105076190Y-100235833D01*
X105028571Y-100235833D01*
X104933333Y-100188214D01*
X104885714Y-100092976D01*
X104885714Y-99950119D01*
X104933333Y-99854880D01*
X105504761Y-98997738D02*
X105552380Y-99092976D01*
X105552380Y-99283452D01*
X105504761Y-99378690D01*
X105409523Y-99426309D01*
X105028571Y-99426309D01*
X104933333Y-99378690D01*
X104885714Y-99283452D01*
X104885714Y-99092976D01*
X104933333Y-98997738D01*
X105028571Y-98950119D01*
X105123809Y-98950119D01*
X105219047Y-99426309D01*
X105552380Y-98092976D02*
X104552380Y-98092976D01*
X105504761Y-98092976D02*
X105552380Y-98188214D01*
X105552380Y-98378690D01*
X105504761Y-98473928D01*
X105457142Y-98521547D01*
X105361904Y-98569166D01*
X105076190Y-98569166D01*
X104980952Y-98521547D01*
X104933333Y-98473928D01*
X104885714Y-98378690D01*
X104885714Y-98188214D01*
X104933333Y-98092976D01*
X105504761Y-97569166D02*
X105552380Y-97569166D01*
X105647619Y-97616785D01*
X105695238Y-97664404D01*
X104552380Y-96092976D02*
X105266666Y-96092976D01*
X105409523Y-96140595D01*
X105504761Y-96235833D01*
X105552380Y-96378690D01*
X105552380Y-96473928D01*
X105552380Y-95616785D02*
X104552380Y-95616785D01*
X104552380Y-95235833D01*
X104600000Y-95140595D01*
X104647619Y-95092976D01*
X104742857Y-95045357D01*
X104885714Y-95045357D01*
X104980952Y-95092976D01*
X105028571Y-95140595D01*
X105076190Y-95235833D01*
X105076190Y-95616785D01*
X104647619Y-94664404D02*
X104600000Y-94616785D01*
X104552380Y-94521547D01*
X104552380Y-94283452D01*
X104600000Y-94188214D01*
X104647619Y-94140595D01*
X104742857Y-94092976D01*
X104838095Y-94092976D01*
X104980952Y-94140595D01*
X105552380Y-94712023D01*
X105552380Y-94092976D01*
X105457142Y-93664404D02*
X105504761Y-93616785D01*
X105552380Y-93664404D01*
X105504761Y-93712023D01*
X105457142Y-93664404D01*
X105552380Y-93664404D01*
X104933333Y-93664404D02*
X104980952Y-93616785D01*
X105028571Y-93664404D01*
X104980952Y-93712023D01*
X104933333Y-93664404D01*
X105028571Y-93664404D01*
X105552380Y-93045357D02*
X105504761Y-93140595D01*
X105457142Y-93188214D01*
X105361904Y-93235833D01*
X105076190Y-93235833D01*
X104980952Y-93188214D01*
X104933333Y-93140595D01*
X104885714Y-93045357D01*
X104885714Y-92902500D01*
X104933333Y-92807261D01*
X104980952Y-92759642D01*
X105076190Y-92712023D01*
X105361904Y-92712023D01*
X105457142Y-92759642D01*
X105504761Y-92807261D01*
X105552380Y-92902500D01*
X105552380Y-93045357D01*
X104885714Y-92283452D02*
X105885714Y-92283452D01*
X104933333Y-92283452D02*
X104885714Y-92188214D01*
X104885714Y-91997738D01*
X104933333Y-91902500D01*
X104980952Y-91854880D01*
X105076190Y-91807261D01*
X105361904Y-91807261D01*
X105457142Y-91854880D01*
X105504761Y-91902500D01*
X105552380Y-91997738D01*
X105552380Y-92188214D01*
X105504761Y-92283452D01*
X105504761Y-90997738D02*
X105552380Y-91092976D01*
X105552380Y-91283452D01*
X105504761Y-91378690D01*
X105409523Y-91426309D01*
X105028571Y-91426309D01*
X104933333Y-91378690D01*
X104885714Y-91283452D01*
X104885714Y-91092976D01*
X104933333Y-90997738D01*
X105028571Y-90950119D01*
X105123809Y-90950119D01*
X105219047Y-91426309D01*
X104885714Y-90521547D02*
X105552380Y-90521547D01*
X104980952Y-90521547D02*
X104933333Y-90473928D01*
X104885714Y-90378690D01*
X104885714Y-90235833D01*
X104933333Y-90140595D01*
X105028571Y-90092976D01*
X105552380Y-90092976D01*
X105504761Y-89569166D02*
X105552380Y-89569166D01*
X105647619Y-89616785D01*
X105695238Y-89664404D01*
X105552380Y-87807261D02*
X105076190Y-88140595D01*
X105552380Y-88378690D02*
X104552380Y-88378690D01*
X104552380Y-87997738D01*
X104600000Y-87902500D01*
X104647619Y-87854880D01*
X104742857Y-87807261D01*
X104885714Y-87807261D01*
X104980952Y-87854880D01*
X105028571Y-87902500D01*
X105076190Y-87997738D01*
X105076190Y-88378690D01*
X105552380Y-86854880D02*
X105552380Y-87426309D01*
X105552380Y-87140595D02*
X104552380Y-87140595D01*
X104695238Y-87235833D01*
X104790476Y-87331071D01*
X104838095Y-87426309D01*
X104552380Y-86521547D02*
X104552380Y-85854880D01*
X105552380Y-86283452D01*
X105457142Y-85473928D02*
X105504761Y-85426309D01*
X105552380Y-85473928D01*
X105504761Y-85521547D01*
X105457142Y-85473928D01*
X105552380Y-85473928D01*
X104933333Y-85473928D02*
X104980952Y-85426309D01*
X105028571Y-85473928D01*
X104980952Y-85521547D01*
X104933333Y-85473928D01*
X105028571Y-85473928D01*
X105552380Y-84997738D02*
X104552380Y-84997738D01*
X104552380Y-84759642D01*
X104600000Y-84616785D01*
X104695238Y-84521547D01*
X104790476Y-84473928D01*
X104980952Y-84426309D01*
X105123809Y-84426309D01*
X105314285Y-84473928D01*
X105409523Y-84521547D01*
X105504761Y-84616785D01*
X105552380Y-84759642D01*
X105552380Y-84997738D01*
X105552380Y-83997738D02*
X104552380Y-83997738D01*
X105552380Y-83426309D01*
X104552380Y-83426309D01*
X105028571Y-82616785D02*
X105028571Y-82950119D01*
X105552380Y-82950119D02*
X104552380Y-82950119D01*
X104552380Y-82473928D01*
D11*
X161868095Y-74352380D02*
X161868095Y-73352380D01*
X162249047Y-73352380D01*
X162344285Y-73400000D01*
X162391904Y-73447619D01*
X162439523Y-73542857D01*
X162439523Y-73685714D01*
X162391904Y-73780952D01*
X162344285Y-73828571D01*
X162249047Y-73876190D01*
X161868095Y-73876190D01*
X162868095Y-74352380D02*
X162868095Y-73352380D01*
X163296666Y-74352380D02*
X163296666Y-73828571D01*
X163249047Y-73733333D01*
X163153809Y-73685714D01*
X163010952Y-73685714D01*
X162915714Y-73733333D01*
X162868095Y-73780952D01*
X164201428Y-74352380D02*
X164201428Y-73828571D01*
X164153809Y-73733333D01*
X164058571Y-73685714D01*
X163868095Y-73685714D01*
X163772857Y-73733333D01*
X164201428Y-74304761D02*
X164106190Y-74352380D01*
X163868095Y-74352380D01*
X163772857Y-74304761D01*
X163725238Y-74209523D01*
X163725238Y-74114285D01*
X163772857Y-74019047D01*
X163868095Y-73971428D01*
X164106190Y-73971428D01*
X164201428Y-73923809D01*
X164630000Y-74304761D02*
X164725238Y-74352380D01*
X164915714Y-74352380D01*
X165010952Y-74304761D01*
X165058571Y-74209523D01*
X165058571Y-74161904D01*
X165010952Y-74066666D01*
X164915714Y-74019047D01*
X164772857Y-74019047D01*
X164677619Y-73971428D01*
X164630000Y-73876190D01*
X164630000Y-73828571D01*
X164677619Y-73733333D01*
X164772857Y-73685714D01*
X164915714Y-73685714D01*
X165010952Y-73733333D01*
X165868095Y-74304761D02*
X165772857Y-74352380D01*
X165582380Y-74352380D01*
X165487142Y-74304761D01*
X165439523Y-74209523D01*
X165439523Y-73828571D01*
X165487142Y-73733333D01*
X165582380Y-73685714D01*
X165772857Y-73685714D01*
X165868095Y-73733333D01*
X165915714Y-73828571D01*
X165915714Y-73923809D01*
X165439523Y-74019047D01*
X166344285Y-73971428D02*
X167106190Y-73971428D01*
X167915714Y-73828571D02*
X167582380Y-73828571D01*
X167582380Y-74352380D02*
X167582380Y-73352380D01*
X168058571Y-73352380D01*
X168439523Y-74352380D02*
X168439523Y-73685714D01*
X168439523Y-73876190D02*
X168487142Y-73780952D01*
X168534761Y-73733333D01*
X168630000Y-73685714D01*
X168725238Y-73685714D01*
X169439523Y-74304761D02*
X169344285Y-74352380D01*
X169153809Y-74352380D01*
X169058571Y-74304761D01*
X169010952Y-74209523D01*
X169010952Y-73828571D01*
X169058571Y-73733333D01*
X169153809Y-73685714D01*
X169344285Y-73685714D01*
X169439523Y-73733333D01*
X169487142Y-73828571D01*
X169487142Y-73923809D01*
X169010952Y-74019047D01*
X170344285Y-73685714D02*
X170344285Y-74685714D01*
X170344285Y-74304761D02*
X170249047Y-74352380D01*
X170058571Y-74352380D01*
X169963333Y-74304761D01*
X169915714Y-74257142D01*
X169868095Y-74161904D01*
X169868095Y-73876190D01*
X169915714Y-73780952D01*
X169963333Y-73733333D01*
X170058571Y-73685714D01*
X170249047Y-73685714D01*
X170344285Y-73733333D01*
X171249047Y-73685714D02*
X171249047Y-74352380D01*
X170820476Y-73685714D02*
X170820476Y-74209523D01*
X170868095Y-74304761D01*
X170963333Y-74352380D01*
X171106190Y-74352380D01*
X171201428Y-74304761D01*
X171249047Y-74257142D01*
X172106190Y-74304761D02*
X172010952Y-74352380D01*
X171820476Y-74352380D01*
X171725238Y-74304761D01*
X171677619Y-74209523D01*
X171677619Y-73828571D01*
X171725238Y-73733333D01*
X171820476Y-73685714D01*
X172010952Y-73685714D01*
X172106190Y-73733333D01*
X172153809Y-73828571D01*
X172153809Y-73923809D01*
X171677619Y-74019047D01*
X172582380Y-73685714D02*
X172582380Y-74352380D01*
X172582380Y-73780952D02*
X172630000Y-73733333D01*
X172725238Y-73685714D01*
X172868095Y-73685714D01*
X172963333Y-73733333D01*
X173010952Y-73828571D01*
X173010952Y-74352380D01*
X173915714Y-74304761D02*
X173820476Y-74352380D01*
X173630000Y-74352380D01*
X173534761Y-74304761D01*
X173487142Y-74257142D01*
X173439523Y-74161904D01*
X173439523Y-73876190D01*
X173487142Y-73780952D01*
X173534761Y-73733333D01*
X173630000Y-73685714D01*
X173820476Y-73685714D01*
X173915714Y-73733333D01*
X174249047Y-73685714D02*
X174487142Y-74352380D01*
X174725238Y-73685714D02*
X174487142Y-74352380D01*
X174391904Y-74590476D01*
X174344285Y-74638095D01*
X174249047Y-74685714D01*
X175868095Y-74352380D02*
X175868095Y-73352380D01*
X176106190Y-73352380D01*
X176249047Y-73400000D01*
X176344285Y-73495238D01*
X176391904Y-73590476D01*
X176439523Y-73780952D01*
X176439523Y-73923809D01*
X176391904Y-74114285D01*
X176344285Y-74209523D01*
X176249047Y-74304761D01*
X176106190Y-74352380D01*
X175868095Y-74352380D01*
X177249047Y-74304761D02*
X177153809Y-74352380D01*
X176963333Y-74352380D01*
X176868095Y-74304761D01*
X176820476Y-74209523D01*
X176820476Y-73828571D01*
X176868095Y-73733333D01*
X176963333Y-73685714D01*
X177153809Y-73685714D01*
X177249047Y-73733333D01*
X177296666Y-73828571D01*
X177296666Y-73923809D01*
X176820476Y-74019047D01*
X177582380Y-73685714D02*
X177963333Y-73685714D01*
X177725238Y-73352380D02*
X177725238Y-74209523D01*
X177772857Y-74304761D01*
X177868095Y-74352380D01*
X177963333Y-74352380D01*
X178677619Y-74304761D02*
X178582380Y-74352380D01*
X178391904Y-74352380D01*
X178296666Y-74304761D01*
X178249047Y-74209523D01*
X178249047Y-73828571D01*
X178296666Y-73733333D01*
X178391904Y-73685714D01*
X178582380Y-73685714D01*
X178677619Y-73733333D01*
X178725238Y-73828571D01*
X178725238Y-73923809D01*
X178249047Y-74019047D01*
X179582380Y-74304761D02*
X179487142Y-74352380D01*
X179296666Y-74352380D01*
X179201428Y-74304761D01*
X179153809Y-74257142D01*
X179106190Y-74161904D01*
X179106190Y-73876190D01*
X179153809Y-73780952D01*
X179201428Y-73733333D01*
X179296666Y-73685714D01*
X179487142Y-73685714D01*
X179582380Y-73733333D01*
X179868095Y-73685714D02*
X180249047Y-73685714D01*
X180010952Y-73352380D02*
X180010952Y-74209523D01*
X180058571Y-74304761D01*
X180153809Y-74352380D01*
X180249047Y-74352380D01*
X180725238Y-74352380D02*
X180630000Y-74304761D01*
X180582380Y-74257142D01*
X180534761Y-74161904D01*
X180534761Y-73876190D01*
X180582380Y-73780952D01*
X180630000Y-73733333D01*
X180725238Y-73685714D01*
X180868095Y-73685714D01*
X180963333Y-73733333D01*
X181010952Y-73780952D01*
X181058571Y-73876190D01*
X181058571Y-74161904D01*
X181010952Y-74257142D01*
X180963333Y-74304761D01*
X180868095Y-74352380D01*
X180725238Y-74352380D01*
X181487142Y-74352380D02*
X181487142Y-73685714D01*
X181487142Y-73876190D02*
X181534761Y-73780952D01*
X181582380Y-73733333D01*
X181677619Y-73685714D01*
X181772857Y-73685714D01*
X162391904Y-76052380D02*
X161820476Y-76052380D01*
X162106190Y-76052380D02*
X162106190Y-75052380D01*
X162010952Y-75195238D01*
X161915714Y-75290476D01*
X161820476Y-75338095D01*
X163344285Y-76052380D02*
X162772857Y-76052380D01*
X163058571Y-76052380D02*
X163058571Y-75052380D01*
X162963333Y-75195238D01*
X162868095Y-75290476D01*
X162772857Y-75338095D01*
X164487142Y-75004761D02*
X163630000Y-76290476D01*
X164772857Y-75147619D02*
X164820476Y-75100000D01*
X164915714Y-75052380D01*
X165153809Y-75052380D01*
X165249047Y-75100000D01*
X165296666Y-75147619D01*
X165344285Y-75242857D01*
X165344285Y-75338095D01*
X165296666Y-75480952D01*
X164725238Y-76052380D01*
X165344285Y-76052380D01*
X165963333Y-75052380D02*
X166058571Y-75052380D01*
X166153809Y-75100000D01*
X166201428Y-75147619D01*
X166249047Y-75242857D01*
X166296666Y-75433333D01*
X166296666Y-75671428D01*
X166249047Y-75861904D01*
X166201428Y-75957142D01*
X166153809Y-76004761D01*
X166058571Y-76052380D01*
X165963333Y-76052380D01*
X165868095Y-76004761D01*
X165820476Y-75957142D01*
X165772857Y-75861904D01*
X165725238Y-75671428D01*
X165725238Y-75433333D01*
X165772857Y-75242857D01*
X165820476Y-75147619D01*
X165868095Y-75100000D01*
X165963333Y-75052380D01*
X166677619Y-75147619D02*
X166725238Y-75100000D01*
X166820476Y-75052380D01*
X167058571Y-75052380D01*
X167153809Y-75100000D01*
X167201428Y-75147619D01*
X167249047Y-75242857D01*
X167249047Y-75338095D01*
X167201428Y-75480952D01*
X166630000Y-76052380D01*
X167249047Y-76052380D01*
X167868095Y-75052380D02*
X167963333Y-75052380D01*
X168058571Y-75100000D01*
X168106190Y-75147619D01*
X168153809Y-75242857D01*
X168201428Y-75433333D01*
X168201428Y-75671428D01*
X168153809Y-75861904D01*
X168106190Y-75957142D01*
X168058571Y-76004761D01*
X167963333Y-76052380D01*
X167868095Y-76052380D01*
X167772857Y-76004761D01*
X167725238Y-75957142D01*
X167677619Y-75861904D01*
X167630000Y-75671428D01*
X167630000Y-75433333D01*
X167677619Y-75242857D01*
X167725238Y-75147619D01*
X167772857Y-75100000D01*
X167868095Y-75052380D01*
X169963333Y-76052380D02*
X169630000Y-75576190D01*
X169391904Y-76052380D02*
X169391904Y-75052380D01*
X169772857Y-75052380D01*
X169868095Y-75100000D01*
X169915714Y-75147619D01*
X169963333Y-75242857D01*
X169963333Y-75385714D01*
X169915714Y-75480952D01*
X169868095Y-75528571D01*
X169772857Y-75576190D01*
X169391904Y-75576190D01*
X170772857Y-76004761D02*
X170677619Y-76052380D01*
X170487142Y-76052380D01*
X170391904Y-76004761D01*
X170344285Y-75909523D01*
X170344285Y-75528571D01*
X170391904Y-75433333D01*
X170487142Y-75385714D01*
X170677619Y-75385714D01*
X170772857Y-75433333D01*
X170820476Y-75528571D01*
X170820476Y-75623809D01*
X170344285Y-75719047D01*
X171153809Y-75385714D02*
X171391904Y-76052380D01*
X171630000Y-75385714D01*
X173296666Y-76052380D02*
X172725238Y-76052380D01*
X173010952Y-76052380D02*
X173010952Y-75052380D01*
X172915714Y-75195238D01*
X172820476Y-75290476D01*
X172725238Y-75338095D01*
X173725238Y-75957142D02*
X173772857Y-76004761D01*
X173725238Y-76052380D01*
X173677619Y-76004761D01*
X173725238Y-75957142D01*
X173725238Y-76052380D01*
X174725238Y-76052380D02*
X174153809Y-76052380D01*
X174439523Y-76052380D02*
X174439523Y-75052380D01*
X174344285Y-75195238D01*
X174249047Y-75290476D01*
X174153809Y-75338095D01*
X161868095Y-77752380D02*
X161868095Y-76752380D01*
X162106190Y-76752380D01*
X162249047Y-76800000D01*
X162344285Y-76895238D01*
X162391904Y-76990476D01*
X162439523Y-77180952D01*
X162439523Y-77323809D01*
X162391904Y-77514285D01*
X162344285Y-77609523D01*
X162249047Y-77704761D01*
X162106190Y-77752380D01*
X161868095Y-77752380D01*
X163249047Y-77704761D02*
X163153809Y-77752380D01*
X162963333Y-77752380D01*
X162868095Y-77704761D01*
X162820476Y-77609523D01*
X162820476Y-77228571D01*
X162868095Y-77133333D01*
X162963333Y-77085714D01*
X163153809Y-77085714D01*
X163249047Y-77133333D01*
X163296666Y-77228571D01*
X163296666Y-77323809D01*
X162820476Y-77419047D01*
X163677619Y-77704761D02*
X163772857Y-77752380D01*
X163963333Y-77752380D01*
X164058571Y-77704761D01*
X164106190Y-77609523D01*
X164106190Y-77561904D01*
X164058571Y-77466666D01*
X163963333Y-77419047D01*
X163820476Y-77419047D01*
X163725238Y-77371428D01*
X163677619Y-77276190D01*
X163677619Y-77228571D01*
X163725238Y-77133333D01*
X163820476Y-77085714D01*
X163963333Y-77085714D01*
X164058571Y-77133333D01*
X164534761Y-77752380D02*
X164534761Y-77085714D01*
X164534761Y-76752380D02*
X164487142Y-76800000D01*
X164534761Y-76847619D01*
X164582380Y-76800000D01*
X164534761Y-76752380D01*
X164534761Y-76847619D01*
X165439523Y-77085714D02*
X165439523Y-77895238D01*
X165391904Y-77990476D01*
X165344285Y-78038095D01*
X165249047Y-78085714D01*
X165106190Y-78085714D01*
X165010952Y-78038095D01*
X165439523Y-77704761D02*
X165344285Y-77752380D01*
X165153809Y-77752380D01*
X165058571Y-77704761D01*
X165010952Y-77657142D01*
X164963333Y-77561904D01*
X164963333Y-77276190D01*
X165010952Y-77180952D01*
X165058571Y-77133333D01*
X165153809Y-77085714D01*
X165344285Y-77085714D01*
X165439523Y-77133333D01*
X165915714Y-77085714D02*
X165915714Y-77752380D01*
X165915714Y-77180952D02*
X165963333Y-77133333D01*
X166058571Y-77085714D01*
X166201428Y-77085714D01*
X166296666Y-77133333D01*
X166344285Y-77228571D01*
X166344285Y-77752380D01*
X166820476Y-77657142D02*
X166868095Y-77704761D01*
X166820476Y-77752380D01*
X166772857Y-77704761D01*
X166820476Y-77657142D01*
X166820476Y-77752380D01*
X166820476Y-77133333D02*
X166868095Y-77180952D01*
X166820476Y-77228571D01*
X166772857Y-77180952D01*
X166820476Y-77133333D01*
X166820476Y-77228571D01*
X167915714Y-76752380D02*
X168487142Y-76752380D01*
X168201428Y-77752380D02*
X168201428Y-76752380D01*
X168820476Y-77752380D02*
X168820476Y-77085714D01*
X168820476Y-76752380D02*
X168772857Y-76800000D01*
X168820476Y-76847619D01*
X168868095Y-76800000D01*
X168820476Y-76752380D01*
X168820476Y-76847619D01*
X169439523Y-77752380D02*
X169344285Y-77704761D01*
X169296666Y-77609523D01*
X169296666Y-76752380D01*
X169820476Y-77752380D02*
X169820476Y-77085714D01*
X169820476Y-77180952D02*
X169868095Y-77133333D01*
X169963333Y-77085714D01*
X170106190Y-77085714D01*
X170201428Y-77133333D01*
X170249047Y-77228571D01*
X170249047Y-77752380D01*
X170249047Y-77228571D02*
X170296666Y-77133333D01*
X170391904Y-77085714D01*
X170534761Y-77085714D01*
X170630000Y-77133333D01*
X170677619Y-77228571D01*
X170677619Y-77752380D01*
X171582380Y-77752380D02*
X171582380Y-77228571D01*
X171534761Y-77133333D01*
X171439523Y-77085714D01*
X171249047Y-77085714D01*
X171153809Y-77133333D01*
X171582380Y-77704761D02*
X171487142Y-77752380D01*
X171249047Y-77752380D01*
X171153809Y-77704761D01*
X171106190Y-77609523D01*
X171106190Y-77514285D01*
X171153809Y-77419047D01*
X171249047Y-77371428D01*
X171487142Y-77371428D01*
X171582380Y-77323809D01*
X172058571Y-77085714D02*
X172058571Y-77752380D01*
X172058571Y-77180952D02*
X172106190Y-77133333D01*
X172201428Y-77085714D01*
X172344285Y-77085714D01*
X172439523Y-77133333D01*
X172487142Y-77228571D01*
X172487142Y-77752380D01*
X173725238Y-77752380D02*
X173725238Y-76752380D01*
X174106190Y-76752380D01*
X174201428Y-76800000D01*
X174249047Y-76847619D01*
X174296666Y-76942857D01*
X174296666Y-77085714D01*
X174249047Y-77180952D01*
X174201428Y-77228571D01*
X174106190Y-77276190D01*
X173725238Y-77276190D01*
X174725238Y-77752380D02*
X174725238Y-77085714D01*
X174725238Y-77276190D02*
X174772857Y-77180952D01*
X174820476Y-77133333D01*
X174915714Y-77085714D01*
X175010952Y-77085714D01*
X175725238Y-77704761D02*
X175630000Y-77752380D01*
X175439523Y-77752380D01*
X175344285Y-77704761D01*
X175296666Y-77609523D01*
X175296666Y-77228571D01*
X175344285Y-77133333D01*
X175439523Y-77085714D01*
X175630000Y-77085714D01*
X175725238Y-77133333D01*
X175772857Y-77228571D01*
X175772857Y-77323809D01*
X175296666Y-77419047D01*
X176630000Y-77085714D02*
X176630000Y-77752380D01*
X176201428Y-77085714D02*
X176201428Y-77609523D01*
X176249047Y-77704761D01*
X176344285Y-77752380D01*
X176487142Y-77752380D01*
X176582380Y-77704761D01*
X176630000Y-77657142D01*
X177058571Y-77704761D02*
X177153809Y-77752380D01*
X177344285Y-77752380D01*
X177439523Y-77704761D01*
X177487142Y-77609523D01*
X177487142Y-77561904D01*
X177439523Y-77466666D01*
X177344285Y-77419047D01*
X177201428Y-77419047D01*
X177106190Y-77371428D01*
X177058571Y-77276190D01*
X177058571Y-77228571D01*
X177106190Y-77133333D01*
X177201428Y-77085714D01*
X177344285Y-77085714D01*
X177439523Y-77133333D01*
X178344285Y-77704761D02*
X178249047Y-77752380D01*
X178058571Y-77752380D01*
X177963333Y-77704761D01*
X177915714Y-77657142D01*
X177868095Y-77561904D01*
X177868095Y-77276190D01*
X177915714Y-77180952D01*
X177963333Y-77133333D01*
X178058571Y-77085714D01*
X178249047Y-77085714D01*
X178344285Y-77133333D01*
X178772857Y-77752380D02*
X178772857Y-76752380D01*
X179201428Y-77752380D02*
X179201428Y-77228571D01*
X179153809Y-77133333D01*
X179058571Y-77085714D01*
X178915714Y-77085714D01*
X178820476Y-77133333D01*
X178772857Y-77180952D01*
X179820476Y-77752380D02*
X179725238Y-77704761D01*
X179677619Y-77657142D01*
X179630000Y-77561904D01*
X179630000Y-77276190D01*
X179677619Y-77180952D01*
X179725238Y-77133333D01*
X179820476Y-77085714D01*
X179963333Y-77085714D01*
X180058571Y-77133333D01*
X180106190Y-77180952D01*
X180153809Y-77276190D01*
X180153809Y-77561904D01*
X180106190Y-77657142D01*
X180058571Y-77704761D01*
X179963333Y-77752380D01*
X179820476Y-77752380D01*
X180439523Y-77085714D02*
X180820476Y-77085714D01*
X180582380Y-77752380D02*
X180582380Y-76895238D01*
X180630000Y-76800000D01*
X180725238Y-76752380D01*
X180820476Y-76752380D01*
X181010952Y-77085714D02*
X181391904Y-77085714D01*
X181153809Y-77752380D02*
X181153809Y-76895238D01*
X181201428Y-76800000D01*
X181296666Y-76752380D01*
X181391904Y-76752380D01*
D12*
X132357142Y-71550000D02*
X132214285Y-71478571D01*
X132000000Y-71478571D01*
X131785714Y-71550000D01*
X131642857Y-71692857D01*
X131571428Y-71835714D01*
X131500000Y-72121428D01*
X131500000Y-72335714D01*
X131571428Y-72621428D01*
X131642857Y-72764285D01*
X131785714Y-72907142D01*
X132000000Y-72978571D01*
X132142857Y-72978571D01*
X132357142Y-72907142D01*
X132428571Y-72835714D01*
X132428571Y-72335714D01*
X132142857Y-72335714D01*
X133071428Y-72978571D02*
X133071428Y-71478571D01*
X133928571Y-72978571D01*
X133928571Y-71478571D01*
X134642857Y-72978571D02*
X134642857Y-71478571D01*
X135000000Y-71478571D01*
X135214285Y-71550000D01*
X135357142Y-71692857D01*
X135428571Y-71835714D01*
X135500000Y-72121428D01*
X135500000Y-72335714D01*
X135428571Y-72621428D01*
X135357142Y-72764285D01*
X135214285Y-72907142D01*
X135000000Y-72978571D01*
X134642857Y-72978571D01*
X126671428Y-74678571D02*
X127171428Y-76178571D01*
X127671428Y-74678571D01*
X128171428Y-75607142D02*
X129314285Y-75607142D01*
X138171428Y-74878571D02*
X138671428Y-76378571D01*
X139171428Y-74878571D01*
X139671428Y-75807142D02*
X140814285Y-75807142D01*
X140242857Y-76378571D02*
X140242857Y-75235714D01*
D13*
X137002064Y-81160000D02*
X135797936Y-81160000D01*
X137002064Y-78440000D02*
X135797936Y-78440000D01*
X130497936Y-78440000D02*
X131702064Y-78440000D01*
X130497936Y-81160000D02*
X131702064Y-81160000D01*
X175337221Y-100510000D02*
X175662779Y-100510000D01*
X175337221Y-99490000D02*
X175662779Y-99490000D01*
X173990000Y-95562779D02*
X173990000Y-95237221D01*
X175010000Y-95562779D02*
X175010000Y-95237221D01*
X135997936Y-91090000D02*
X137202064Y-91090000D01*
X135997936Y-92910000D02*
X137202064Y-92910000D01*
X127910000Y-83402064D02*
X127910000Y-82197936D01*
X126090000Y-83402064D02*
X126090000Y-82197936D01*
X173210000Y-104137221D02*
X173210000Y-104462779D01*
X172190000Y-104137221D02*
X172190000Y-104462779D01*
X160410000Y-92762779D02*
X160410000Y-92437221D01*
X159390000Y-92762779D02*
X159390000Y-92437221D01*
X142160000Y-85502064D02*
X142160000Y-84297936D01*
X139440000Y-85502064D02*
X139440000Y-84297936D01*
X131102064Y-90140000D02*
X129897936Y-90140000D01*
X131102064Y-92860000D02*
X129897936Y-92860000D01*
X157610000Y-104912779D02*
X157610000Y-104587221D01*
X156590000Y-104912779D02*
X156590000Y-104587221D01*
X156640000Y-94812779D02*
X156640000Y-94487221D01*
X157660000Y-94812779D02*
X157660000Y-94487221D01*
X141760000Y-95412779D02*
X141760000Y-95087221D01*
X140740000Y-95412779D02*
X140740000Y-95087221D01*
X140010000Y-98587221D02*
X140010000Y-98912779D01*
X138990000Y-98587221D02*
X138990000Y-98912779D01*
X143162779Y-104010000D02*
X142837221Y-104010000D01*
X143162779Y-102990000D02*
X142837221Y-102990000D01*
X148760000Y-96912779D02*
X148760000Y-96587221D01*
X147740000Y-96912779D02*
X147740000Y-96587221D01*
X162240000Y-106237221D02*
X162240000Y-106562779D01*
X163260000Y-106237221D02*
X163260000Y-106562779D01*
X151740000Y-100587221D02*
X151740000Y-100912779D01*
X152760000Y-100587221D02*
X152760000Y-100912779D01*
X137260000Y-108912779D02*
X137260000Y-108587221D01*
X136240000Y-108912779D02*
X136240000Y-108587221D01*
X130260000Y-114587221D02*
X130260000Y-114912779D01*
X129240000Y-114587221D02*
X129240000Y-114912779D01*
X124740000Y-110912779D02*
X124740000Y-110587221D01*
X125760000Y-110912779D02*
X125760000Y-110587221D01*
X118890000Y-106262779D02*
X118890000Y-105937221D01*
X119910000Y-106262779D02*
X119910000Y-105937221D01*
X184845000Y-105450000D02*
X184845000Y-108350000D01*
X191555000Y-105450000D02*
X191555000Y-108350000D01*
X186750000Y-110255000D02*
X189650000Y-110255000D01*
X186750000Y-103545000D02*
X189650000Y-103545000D01*
X186750000Y-88445000D02*
X189650000Y-88445000D01*
X186750000Y-95155000D02*
X189650000Y-95155000D01*
X191555000Y-90350000D02*
X191555000Y-93250000D01*
X184845000Y-90350000D02*
X184845000Y-93250000D01*
X110300000Y-88445000D02*
X113200000Y-88445000D01*
X110300000Y-95155000D02*
X113200000Y-95155000D01*
X115105000Y-90350000D02*
X115105000Y-93250000D01*
X108395000Y-90350000D02*
X108395000Y-93250000D01*
X137630000Y-76830000D02*
X137630000Y-74170000D01*
X132490000Y-76830000D02*
X137630000Y-76830000D01*
X132490000Y-74170000D02*
X137630000Y-74170000D01*
X132490000Y-76830000D02*
X132490000Y-74170000D01*
X131220000Y-76830000D02*
X129890000Y-76830000D01*
X129890000Y-76830000D02*
X129890000Y-75500000D01*
X108445000Y-105450000D02*
X108445000Y-108350000D01*
X115155000Y-105450000D02*
X115155000Y-108350000D01*
X110350000Y-110255000D02*
X113250000Y-110255000D01*
X110350000Y-103545000D02*
X113250000Y-103545000D01*
X129200000Y-108000000D02*
G75*
G02X128500000Y-107300000I0J700000D01*
G01*
X128500000Y-106700000D02*
G75*
G02X129200000Y-106000000I700000J0D01*
G01*
X130600000Y-106000000D02*
G75*
G02X131300000Y-106700000I0J-700000D01*
G01*
X131300000Y-107300000D02*
G75*
G02X130600000Y-108000000I-700000J0D01*
G01*
X131300000Y-106700000D02*
X131300000Y-107300000D01*
X129200000Y-106000000D02*
X130600000Y-106000000D01*
X128500000Y-107300000D02*
X128500000Y-106700000D01*
X130600000Y-108000000D02*
X129200000Y-108000000D01*
D14*
X143504000Y-77300000D02*
G75*
G03X143504000Y-77300000I-254000J0D01*
G01*
X145504000Y-77300000D02*
G75*
G03X145504000Y-77300000I-254000J0D01*
G01*
X147504000Y-77300000D02*
G75*
G03X147504000Y-77300000I-254000J0D01*
G01*
X147504000Y-75300000D02*
G75*
G03X147504000Y-75300000I-254000J0D01*
G01*
X145504000Y-75300000D02*
G75*
G03X145504000Y-75300000I-254000J0D01*
G01*
X143504000Y-75300000D02*
G75*
G03X143504000Y-75300000I-254000J0D01*
G01*
X145504000Y-73300000D02*
G75*
G03X145504000Y-73300000I-254000J0D01*
G01*
X143504000Y-73300000D02*
G75*
G03X143504000Y-73300000I-254000J0D01*
G01*
X147504000Y-73300000D02*
G75*
G03X147504000Y-73300000I-254000J0D01*
G01*
D13*
X135637221Y-89290000D02*
X135962779Y-89290000D01*
X135637221Y-90310000D02*
X135962779Y-90310000D01*
X127210000Y-86487221D02*
X127210000Y-86812779D01*
X126190000Y-86487221D02*
X126190000Y-86812779D01*
X164740000Y-94087221D02*
X164740000Y-94412779D01*
X165760000Y-94087221D02*
X165760000Y-94412779D01*
X162240000Y-103312779D02*
X162240000Y-102987221D01*
X163260000Y-103312779D02*
X163260000Y-102987221D01*
X159390000Y-96187221D02*
X159390000Y-96512779D01*
X160410000Y-96187221D02*
X160410000Y-96512779D01*
X165090000Y-104662779D02*
X165090000Y-104337221D01*
X166110000Y-104662779D02*
X166110000Y-104337221D01*
X160437221Y-100560000D02*
X160762779Y-100560000D01*
X160437221Y-99540000D02*
X160762779Y-99540000D01*
X156237221Y-102910000D02*
X156562779Y-102910000D01*
X156237221Y-101890000D02*
X156562779Y-101890000D01*
X156287221Y-96590000D02*
X156612779Y-96590000D01*
X156287221Y-97610000D02*
X156612779Y-97610000D01*
X152760000Y-96412779D02*
X152760000Y-96087221D01*
X151740000Y-96412779D02*
X151740000Y-96087221D01*
X151010000Y-100587221D02*
X151010000Y-100912779D01*
X149990000Y-100587221D02*
X149990000Y-100912779D01*
X145087221Y-96510000D02*
X145412779Y-96510000D01*
X145087221Y-95490000D02*
X145412779Y-95490000D01*
X140740000Y-98587221D02*
X140740000Y-98912779D01*
X141760000Y-98587221D02*
X141760000Y-98912779D01*
X136990000Y-98912779D02*
X136990000Y-98587221D01*
X138010000Y-98912779D02*
X138010000Y-98587221D01*
X118497936Y-90440000D02*
X119702064Y-90440000D01*
X118497936Y-93160000D02*
X119702064Y-93160000D01*
X145912779Y-121510000D02*
X145587221Y-121510000D01*
X145912779Y-120490000D02*
X145587221Y-120490000D01*
X134162779Y-113740000D02*
X133837221Y-113740000D01*
X134162779Y-114760000D02*
X133837221Y-114760000D01*
X126990000Y-110587221D02*
X126990000Y-110912779D01*
X128010000Y-110587221D02*
X128010000Y-110912779D01*
X124840000Y-104897936D02*
X124840000Y-106102064D01*
X127560000Y-104897936D02*
X127560000Y-106102064D01*
X121937221Y-106390000D02*
X122262779Y-106390000D01*
X121937221Y-107410000D02*
X122262779Y-107410000D01*
X118010000Y-105937221D02*
X118010000Y-106262779D01*
X116990000Y-105937221D02*
X116990000Y-106262779D01*
X138460000Y-124370000D02*
X138460000Y-105130000D01*
X143500000Y-124370000D02*
X143500000Y-105130000D01*
X138460000Y-124370000D02*
X143500000Y-124370000D01*
X138460000Y-105130000D02*
X143500000Y-105130000D01*
X139680000Y-125890000D02*
X139680000Y-124371000D01*
X142280000Y-125890000D02*
X142280000Y-124371000D01*
X139680000Y-125890000D02*
X142280000Y-125890000D01*
X139680000Y-124371000D02*
X142280000Y-124371000D01*
X140980000Y-125890000D02*
X140980000Y-125131000D01*
X134465000Y-84905000D02*
X134465000Y-86405000D01*
X134465000Y-84905000D02*
X134465000Y-83405000D01*
X138685000Y-84905000D02*
X138685000Y-86405000D01*
X138685000Y-84905000D02*
X138685000Y-82030000D01*
X132785000Y-84995000D02*
X132785000Y-82120000D01*
X132785000Y-84995000D02*
X132785000Y-86495000D01*
X128565000Y-84995000D02*
X128565000Y-83495000D01*
X128565000Y-84995000D02*
X128565000Y-86495000D01*
D10*
X171854300Y-97042500D02*
X168145700Y-97042500D01*
X173525000Y-102442500D02*
X168141400Y-102442500D01*
D13*
X146000000Y-102110000D02*
X147500000Y-102110000D01*
X146000000Y-102110000D02*
X144500000Y-102110000D01*
X146000000Y-98890000D02*
X147500000Y-98890000D01*
X146000000Y-98890000D02*
X143075000Y-98890000D01*
X132250000Y-112610000D02*
X135175000Y-112610000D01*
X132250000Y-112610000D02*
X130750000Y-112610000D01*
X132250000Y-109390000D02*
X133750000Y-109390000D01*
X132250000Y-109390000D02*
X130750000Y-109390000D01*
X122000000Y-108800000D02*
G75*
G02X122700000Y-108100000I700000J0D01*
G01*
X123300000Y-108100000D02*
G75*
G02X124000000Y-108800000I0J-700000D01*
G01*
X124000000Y-110200000D02*
G75*
G02X123300000Y-110900000I-700000J0D01*
G01*
X122700000Y-110900000D02*
G75*
G02X122000000Y-110200000I0J700000D01*
G01*
X123300000Y-110900000D02*
X122700000Y-110900000D01*
X124000000Y-108800000D02*
X124000000Y-110200000D01*
X122700000Y-108100000D02*
X123300000Y-108100000D01*
X122000000Y-110200000D02*
X122000000Y-108800000D01*
D10*
X182183333Y-106087142D02*
X182135714Y-106134761D01*
X181992857Y-106182380D01*
X181897619Y-106182380D01*
X181754761Y-106134761D01*
X181659523Y-106039523D01*
X181611904Y-105944285D01*
X181564285Y-105753809D01*
X181564285Y-105610952D01*
X181611904Y-105420476D01*
X181659523Y-105325238D01*
X181754761Y-105230000D01*
X181897619Y-105182380D01*
X181992857Y-105182380D01*
X182135714Y-105230000D01*
X182183333Y-105277619D01*
X183135714Y-106182380D02*
X182564285Y-106182380D01*
X182850000Y-106182380D02*
X182850000Y-105182380D01*
X182754761Y-105325238D01*
X182659523Y-105420476D01*
X182564285Y-105468095D01*
X182333333Y-90987142D02*
X182285714Y-91034761D01*
X182142857Y-91082380D01*
X182047619Y-91082380D01*
X181904761Y-91034761D01*
X181809523Y-90939523D01*
X181761904Y-90844285D01*
X181714285Y-90653809D01*
X181714285Y-90510952D01*
X181761904Y-90320476D01*
X181809523Y-90225238D01*
X181904761Y-90130000D01*
X182047619Y-90082380D01*
X182142857Y-90082380D01*
X182285714Y-90130000D01*
X182333333Y-90177619D01*
X182714285Y-90177619D02*
X182761904Y-90130000D01*
X182857142Y-90082380D01*
X183095238Y-90082380D01*
X183190476Y-90130000D01*
X183238095Y-90177619D01*
X183285714Y-90272857D01*
X183285714Y-90368095D01*
X183238095Y-90510952D01*
X182666666Y-91082380D01*
X183285714Y-91082380D01*
X139857142Y-78416666D02*
X139904761Y-78464285D01*
X139952380Y-78607142D01*
X139952380Y-78702380D01*
X139904761Y-78845238D01*
X139809523Y-78940476D01*
X139714285Y-78988095D01*
X139523809Y-79035714D01*
X139380952Y-79035714D01*
X139190476Y-78988095D01*
X139095238Y-78940476D01*
X139000000Y-78845238D01*
X138952380Y-78702380D01*
X138952380Y-78607142D01*
X139000000Y-78464285D01*
X139047619Y-78416666D01*
X138952380Y-78083333D02*
X138952380Y-77464285D01*
X139333333Y-77797619D01*
X139333333Y-77654761D01*
X139380952Y-77559523D01*
X139428571Y-77511904D01*
X139523809Y-77464285D01*
X139761904Y-77464285D01*
X139857142Y-77511904D01*
X139904761Y-77559523D01*
X139952380Y-77654761D01*
X139952380Y-77940476D01*
X139904761Y-78035714D01*
X139857142Y-78083333D01*
X127583333Y-79607142D02*
X127535714Y-79654761D01*
X127392857Y-79702380D01*
X127297619Y-79702380D01*
X127154761Y-79654761D01*
X127059523Y-79559523D01*
X127011904Y-79464285D01*
X126964285Y-79273809D01*
X126964285Y-79130952D01*
X127011904Y-78940476D01*
X127059523Y-78845238D01*
X127154761Y-78750000D01*
X127297619Y-78702380D01*
X127392857Y-78702380D01*
X127535714Y-78750000D01*
X127583333Y-78797619D01*
X128440476Y-79035714D02*
X128440476Y-79702380D01*
X128202380Y-78654761D02*
X127964285Y-79369047D01*
X128583333Y-79369047D01*
X175333333Y-98927142D02*
X175285714Y-98974761D01*
X175142857Y-99022380D01*
X175047619Y-99022380D01*
X174904761Y-98974761D01*
X174809523Y-98879523D01*
X174761904Y-98784285D01*
X174714285Y-98593809D01*
X174714285Y-98450952D01*
X174761904Y-98260476D01*
X174809523Y-98165238D01*
X174904761Y-98070000D01*
X175047619Y-98022380D01*
X175142857Y-98022380D01*
X175285714Y-98070000D01*
X175333333Y-98117619D01*
X176238095Y-98022380D02*
X175761904Y-98022380D01*
X175714285Y-98498571D01*
X175761904Y-98450952D01*
X175857142Y-98403333D01*
X176095238Y-98403333D01*
X176190476Y-98450952D01*
X176238095Y-98498571D01*
X176285714Y-98593809D01*
X176285714Y-98831904D01*
X176238095Y-98927142D01*
X176190476Y-98974761D01*
X176095238Y-99022380D01*
X175857142Y-99022380D01*
X175761904Y-98974761D01*
X175714285Y-98927142D01*
X173427142Y-95566666D02*
X173474761Y-95614285D01*
X173522380Y-95757142D01*
X173522380Y-95852380D01*
X173474761Y-95995238D01*
X173379523Y-96090476D01*
X173284285Y-96138095D01*
X173093809Y-96185714D01*
X172950952Y-96185714D01*
X172760476Y-96138095D01*
X172665238Y-96090476D01*
X172570000Y-95995238D01*
X172522380Y-95852380D01*
X172522380Y-95757142D01*
X172570000Y-95614285D01*
X172617619Y-95566666D01*
X172522380Y-94709523D02*
X172522380Y-94900000D01*
X172570000Y-94995238D01*
X172617619Y-95042857D01*
X172760476Y-95138095D01*
X172950952Y-95185714D01*
X173331904Y-95185714D01*
X173427142Y-95138095D01*
X173474761Y-95090476D01*
X173522380Y-94995238D01*
X173522380Y-94804761D01*
X173474761Y-94709523D01*
X173427142Y-94661904D01*
X173331904Y-94614285D01*
X173093809Y-94614285D01*
X172998571Y-94661904D01*
X172950952Y-94709523D01*
X172903333Y-94804761D01*
X172903333Y-94995238D01*
X172950952Y-95090476D01*
X172998571Y-95138095D01*
X173093809Y-95185714D01*
X136433333Y-94357142D02*
X136385714Y-94404761D01*
X136242857Y-94452380D01*
X136147619Y-94452380D01*
X136004761Y-94404761D01*
X135909523Y-94309523D01*
X135861904Y-94214285D01*
X135814285Y-94023809D01*
X135814285Y-93880952D01*
X135861904Y-93690476D01*
X135909523Y-93595238D01*
X136004761Y-93500000D01*
X136147619Y-93452380D01*
X136242857Y-93452380D01*
X136385714Y-93500000D01*
X136433333Y-93547619D01*
X136766666Y-93452380D02*
X137433333Y-93452380D01*
X137004761Y-94452380D01*
X125537142Y-82966666D02*
X125584761Y-83014285D01*
X125632380Y-83157142D01*
X125632380Y-83252380D01*
X125584761Y-83395238D01*
X125489523Y-83490476D01*
X125394285Y-83538095D01*
X125203809Y-83585714D01*
X125060952Y-83585714D01*
X124870476Y-83538095D01*
X124775238Y-83490476D01*
X124680000Y-83395238D01*
X124632380Y-83252380D01*
X124632380Y-83157142D01*
X124680000Y-83014285D01*
X124727619Y-82966666D01*
X125060952Y-82395238D02*
X125013333Y-82490476D01*
X124965714Y-82538095D01*
X124870476Y-82585714D01*
X124822857Y-82585714D01*
X124727619Y-82538095D01*
X124680000Y-82490476D01*
X124632380Y-82395238D01*
X124632380Y-82204761D01*
X124680000Y-82109523D01*
X124727619Y-82061904D01*
X124822857Y-82014285D01*
X124870476Y-82014285D01*
X124965714Y-82061904D01*
X125013333Y-82109523D01*
X125060952Y-82204761D01*
X125060952Y-82395238D01*
X125108571Y-82490476D01*
X125156190Y-82538095D01*
X125251428Y-82585714D01*
X125441904Y-82585714D01*
X125537142Y-82538095D01*
X125584761Y-82490476D01*
X125632380Y-82395238D01*
X125632380Y-82204761D01*
X125584761Y-82109523D01*
X125537142Y-82061904D01*
X125441904Y-82014285D01*
X125251428Y-82014285D01*
X125156190Y-82061904D01*
X125108571Y-82109523D01*
X125060952Y-82204761D01*
X174487142Y-104466666D02*
X174534761Y-104514285D01*
X174582380Y-104657142D01*
X174582380Y-104752380D01*
X174534761Y-104895238D01*
X174439523Y-104990476D01*
X174344285Y-105038095D01*
X174153809Y-105085714D01*
X174010952Y-105085714D01*
X173820476Y-105038095D01*
X173725238Y-104990476D01*
X173630000Y-104895238D01*
X173582380Y-104752380D01*
X173582380Y-104657142D01*
X173630000Y-104514285D01*
X173677619Y-104466666D01*
X174582380Y-103990476D02*
X174582380Y-103800000D01*
X174534761Y-103704761D01*
X174487142Y-103657142D01*
X174344285Y-103561904D01*
X174153809Y-103514285D01*
X173772857Y-103514285D01*
X173677619Y-103561904D01*
X173630000Y-103609523D01*
X173582380Y-103704761D01*
X173582380Y-103895238D01*
X173630000Y-103990476D01*
X173677619Y-104038095D01*
X173772857Y-104085714D01*
X174010952Y-104085714D01*
X174106190Y-104038095D01*
X174153809Y-103990476D01*
X174201428Y-103895238D01*
X174201428Y-103704761D01*
X174153809Y-103609523D01*
X174106190Y-103561904D01*
X174010952Y-103514285D01*
X158827142Y-93242857D02*
X158874761Y-93290476D01*
X158922380Y-93433333D01*
X158922380Y-93528571D01*
X158874761Y-93671428D01*
X158779523Y-93766666D01*
X158684285Y-93814285D01*
X158493809Y-93861904D01*
X158350952Y-93861904D01*
X158160476Y-93814285D01*
X158065238Y-93766666D01*
X157970000Y-93671428D01*
X157922380Y-93528571D01*
X157922380Y-93433333D01*
X157970000Y-93290476D01*
X158017619Y-93242857D01*
X158922380Y-92290476D02*
X158922380Y-92861904D01*
X158922380Y-92576190D02*
X157922380Y-92576190D01*
X158065238Y-92671428D01*
X158160476Y-92766666D01*
X158208095Y-92861904D01*
X157922380Y-91671428D02*
X157922380Y-91576190D01*
X157970000Y-91480952D01*
X158017619Y-91433333D01*
X158112857Y-91385714D01*
X158303333Y-91338095D01*
X158541428Y-91338095D01*
X158731904Y-91385714D01*
X158827142Y-91433333D01*
X158874761Y-91480952D01*
X158922380Y-91576190D01*
X158922380Y-91671428D01*
X158874761Y-91766666D01*
X158827142Y-91814285D01*
X158731904Y-91861904D01*
X158541428Y-91909523D01*
X158303333Y-91909523D01*
X158112857Y-91861904D01*
X158017619Y-91814285D01*
X157970000Y-91766666D01*
X157922380Y-91671428D01*
X140107142Y-88607142D02*
X140059523Y-88654761D01*
X139916666Y-88702380D01*
X139821428Y-88702380D01*
X139678571Y-88654761D01*
X139583333Y-88559523D01*
X139535714Y-88464285D01*
X139488095Y-88273809D01*
X139488095Y-88130952D01*
X139535714Y-87940476D01*
X139583333Y-87845238D01*
X139678571Y-87750000D01*
X139821428Y-87702380D01*
X139916666Y-87702380D01*
X140059523Y-87750000D01*
X140107142Y-87797619D01*
X141059523Y-88702380D02*
X140488095Y-88702380D01*
X140773809Y-88702380D02*
X140773809Y-87702380D01*
X140678571Y-87845238D01*
X140583333Y-87940476D01*
X140488095Y-87988095D01*
X142011904Y-88702380D02*
X141440476Y-88702380D01*
X141726190Y-88702380D02*
X141726190Y-87702380D01*
X141630952Y-87845238D01*
X141535714Y-87940476D01*
X141440476Y-87988095D01*
X129857142Y-94137142D02*
X129809523Y-94184761D01*
X129666666Y-94232380D01*
X129571428Y-94232380D01*
X129428571Y-94184761D01*
X129333333Y-94089523D01*
X129285714Y-93994285D01*
X129238095Y-93803809D01*
X129238095Y-93660952D01*
X129285714Y-93470476D01*
X129333333Y-93375238D01*
X129428571Y-93280000D01*
X129571428Y-93232380D01*
X129666666Y-93232380D01*
X129809523Y-93280000D01*
X129857142Y-93327619D01*
X130809523Y-94232380D02*
X130238095Y-94232380D01*
X130523809Y-94232380D02*
X130523809Y-93232380D01*
X130428571Y-93375238D01*
X130333333Y-93470476D01*
X130238095Y-93518095D01*
X131190476Y-93327619D02*
X131238095Y-93280000D01*
X131333333Y-93232380D01*
X131571428Y-93232380D01*
X131666666Y-93280000D01*
X131714285Y-93327619D01*
X131761904Y-93422857D01*
X131761904Y-93518095D01*
X131714285Y-93660952D01*
X131142857Y-94232380D01*
X131761904Y-94232380D01*
X156027142Y-105392857D02*
X156074761Y-105440476D01*
X156122380Y-105583333D01*
X156122380Y-105678571D01*
X156074761Y-105821428D01*
X155979523Y-105916666D01*
X155884285Y-105964285D01*
X155693809Y-106011904D01*
X155550952Y-106011904D01*
X155360476Y-105964285D01*
X155265238Y-105916666D01*
X155170000Y-105821428D01*
X155122380Y-105678571D01*
X155122380Y-105583333D01*
X155170000Y-105440476D01*
X155217619Y-105392857D01*
X156122380Y-104440476D02*
X156122380Y-105011904D01*
X156122380Y-104726190D02*
X155122380Y-104726190D01*
X155265238Y-104821428D01*
X155360476Y-104916666D01*
X155408095Y-105011904D01*
X155122380Y-104107142D02*
X155122380Y-103488095D01*
X155503333Y-103821428D01*
X155503333Y-103678571D01*
X155550952Y-103583333D01*
X155598571Y-103535714D01*
X155693809Y-103488095D01*
X155931904Y-103488095D01*
X156027142Y-103535714D01*
X156074761Y-103583333D01*
X156122380Y-103678571D01*
X156122380Y-103964285D01*
X156074761Y-104059523D01*
X156027142Y-104107142D01*
X156077142Y-95292857D02*
X156124761Y-95340476D01*
X156172380Y-95483333D01*
X156172380Y-95578571D01*
X156124761Y-95721428D01*
X156029523Y-95816666D01*
X155934285Y-95864285D01*
X155743809Y-95911904D01*
X155600952Y-95911904D01*
X155410476Y-95864285D01*
X155315238Y-95816666D01*
X155220000Y-95721428D01*
X155172380Y-95578571D01*
X155172380Y-95483333D01*
X155220000Y-95340476D01*
X155267619Y-95292857D01*
X156172380Y-94340476D02*
X156172380Y-94911904D01*
X156172380Y-94626190D02*
X155172380Y-94626190D01*
X155315238Y-94721428D01*
X155410476Y-94816666D01*
X155458095Y-94911904D01*
X155505714Y-93483333D02*
X156172380Y-93483333D01*
X155124761Y-93721428D02*
X155839047Y-93959523D01*
X155839047Y-93340476D01*
X140177142Y-95892857D02*
X140224761Y-95940476D01*
X140272380Y-96083333D01*
X140272380Y-96178571D01*
X140224761Y-96321428D01*
X140129523Y-96416666D01*
X140034285Y-96464285D01*
X139843809Y-96511904D01*
X139700952Y-96511904D01*
X139510476Y-96464285D01*
X139415238Y-96416666D01*
X139320000Y-96321428D01*
X139272380Y-96178571D01*
X139272380Y-96083333D01*
X139320000Y-95940476D01*
X139367619Y-95892857D01*
X140272380Y-94940476D02*
X140272380Y-95511904D01*
X140272380Y-95226190D02*
X139272380Y-95226190D01*
X139415238Y-95321428D01*
X139510476Y-95416666D01*
X139558095Y-95511904D01*
X139272380Y-94035714D02*
X139272380Y-94511904D01*
X139748571Y-94559523D01*
X139700952Y-94511904D01*
X139653333Y-94416666D01*
X139653333Y-94178571D01*
X139700952Y-94083333D01*
X139748571Y-94035714D01*
X139843809Y-93988095D01*
X140081904Y-93988095D01*
X140177142Y-94035714D01*
X140224761Y-94083333D01*
X140272380Y-94178571D01*
X140272380Y-94416666D01*
X140224761Y-94511904D01*
X140177142Y-94559523D01*
X139857142Y-102642857D02*
X139904761Y-102690476D01*
X139952380Y-102833333D01*
X139952380Y-102928571D01*
X139904761Y-103071428D01*
X139809523Y-103166666D01*
X139714285Y-103214285D01*
X139523809Y-103261904D01*
X139380952Y-103261904D01*
X139190476Y-103214285D01*
X139095238Y-103166666D01*
X139000000Y-103071428D01*
X138952380Y-102928571D01*
X138952380Y-102833333D01*
X139000000Y-102690476D01*
X139047619Y-102642857D01*
X139952380Y-101690476D02*
X139952380Y-102261904D01*
X139952380Y-101976190D02*
X138952380Y-101976190D01*
X139095238Y-102071428D01*
X139190476Y-102166666D01*
X139238095Y-102261904D01*
X138952380Y-100833333D02*
X138952380Y-101023809D01*
X139000000Y-101119047D01*
X139047619Y-101166666D01*
X139190476Y-101261904D01*
X139380952Y-101309523D01*
X139761904Y-101309523D01*
X139857142Y-101261904D01*
X139904761Y-101214285D01*
X139952380Y-101119047D01*
X139952380Y-100928571D01*
X139904761Y-100833333D01*
X139857142Y-100785714D01*
X139761904Y-100738095D01*
X139523809Y-100738095D01*
X139428571Y-100785714D01*
X139380952Y-100833333D01*
X139333333Y-100928571D01*
X139333333Y-101119047D01*
X139380952Y-101214285D01*
X139428571Y-101261904D01*
X139523809Y-101309523D01*
X145357142Y-103857142D02*
X145309523Y-103904761D01*
X145166666Y-103952380D01*
X145071428Y-103952380D01*
X144928571Y-103904761D01*
X144833333Y-103809523D01*
X144785714Y-103714285D01*
X144738095Y-103523809D01*
X144738095Y-103380952D01*
X144785714Y-103190476D01*
X144833333Y-103095238D01*
X144928571Y-103000000D01*
X145071428Y-102952380D01*
X145166666Y-102952380D01*
X145309523Y-103000000D01*
X145357142Y-103047619D01*
X146309523Y-103952380D02*
X145738095Y-103952380D01*
X146023809Y-103952380D02*
X146023809Y-102952380D01*
X145928571Y-103095238D01*
X145833333Y-103190476D01*
X145738095Y-103238095D01*
X146642857Y-102952380D02*
X147309523Y-102952380D01*
X146880952Y-103952380D01*
X148607142Y-94142857D02*
X148654761Y-94190476D01*
X148702380Y-94333333D01*
X148702380Y-94428571D01*
X148654761Y-94571428D01*
X148559523Y-94666666D01*
X148464285Y-94714285D01*
X148273809Y-94761904D01*
X148130952Y-94761904D01*
X147940476Y-94714285D01*
X147845238Y-94666666D01*
X147750000Y-94571428D01*
X147702380Y-94428571D01*
X147702380Y-94333333D01*
X147750000Y-94190476D01*
X147797619Y-94142857D01*
X148702380Y-93190476D02*
X148702380Y-93761904D01*
X148702380Y-93476190D02*
X147702380Y-93476190D01*
X147845238Y-93571428D01*
X147940476Y-93666666D01*
X147988095Y-93761904D01*
X148130952Y-92619047D02*
X148083333Y-92714285D01*
X148035714Y-92761904D01*
X147940476Y-92809523D01*
X147892857Y-92809523D01*
X147797619Y-92761904D01*
X147750000Y-92714285D01*
X147702380Y-92619047D01*
X147702380Y-92428571D01*
X147750000Y-92333333D01*
X147797619Y-92285714D01*
X147892857Y-92238095D01*
X147940476Y-92238095D01*
X148035714Y-92285714D01*
X148083333Y-92333333D01*
X148130952Y-92428571D01*
X148130952Y-92619047D01*
X148178571Y-92714285D01*
X148226190Y-92761904D01*
X148321428Y-92809523D01*
X148511904Y-92809523D01*
X148607142Y-92761904D01*
X148654761Y-92714285D01*
X148702380Y-92619047D01*
X148702380Y-92428571D01*
X148654761Y-92333333D01*
X148607142Y-92285714D01*
X148511904Y-92238095D01*
X148321428Y-92238095D01*
X148226190Y-92285714D01*
X148178571Y-92333333D01*
X148130952Y-92428571D01*
X161607142Y-107042857D02*
X161654761Y-107090476D01*
X161702380Y-107233333D01*
X161702380Y-107328571D01*
X161654761Y-107471428D01*
X161559523Y-107566666D01*
X161464285Y-107614285D01*
X161273809Y-107661904D01*
X161130952Y-107661904D01*
X160940476Y-107614285D01*
X160845238Y-107566666D01*
X160750000Y-107471428D01*
X160702380Y-107328571D01*
X160702380Y-107233333D01*
X160750000Y-107090476D01*
X160797619Y-107042857D01*
X161702380Y-106090476D02*
X161702380Y-106661904D01*
X161702380Y-106376190D02*
X160702380Y-106376190D01*
X160845238Y-106471428D01*
X160940476Y-106566666D01*
X160988095Y-106661904D01*
X161702380Y-105614285D02*
X161702380Y-105423809D01*
X161654761Y-105328571D01*
X161607142Y-105280952D01*
X161464285Y-105185714D01*
X161273809Y-105138095D01*
X160892857Y-105138095D01*
X160797619Y-105185714D01*
X160750000Y-105233333D01*
X160702380Y-105328571D01*
X160702380Y-105519047D01*
X160750000Y-105614285D01*
X160797619Y-105661904D01*
X160892857Y-105709523D01*
X161130952Y-105709523D01*
X161226190Y-105661904D01*
X161273809Y-105614285D01*
X161321428Y-105519047D01*
X161321428Y-105328571D01*
X161273809Y-105233333D01*
X161226190Y-105185714D01*
X161130952Y-105138095D01*
X152607142Y-104392857D02*
X152654761Y-104440476D01*
X152702380Y-104583333D01*
X152702380Y-104678571D01*
X152654761Y-104821428D01*
X152559523Y-104916666D01*
X152464285Y-104964285D01*
X152273809Y-105011904D01*
X152130952Y-105011904D01*
X151940476Y-104964285D01*
X151845238Y-104916666D01*
X151750000Y-104821428D01*
X151702380Y-104678571D01*
X151702380Y-104583333D01*
X151750000Y-104440476D01*
X151797619Y-104392857D01*
X151797619Y-104011904D02*
X151750000Y-103964285D01*
X151702380Y-103869047D01*
X151702380Y-103630952D01*
X151750000Y-103535714D01*
X151797619Y-103488095D01*
X151892857Y-103440476D01*
X151988095Y-103440476D01*
X152130952Y-103488095D01*
X152702380Y-104059523D01*
X152702380Y-103440476D01*
X151702380Y-102821428D02*
X151702380Y-102726190D01*
X151750000Y-102630952D01*
X151797619Y-102583333D01*
X151892857Y-102535714D01*
X152083333Y-102488095D01*
X152321428Y-102488095D01*
X152511904Y-102535714D01*
X152607142Y-102583333D01*
X152654761Y-102630952D01*
X152702380Y-102726190D01*
X152702380Y-102821428D01*
X152654761Y-102916666D01*
X152607142Y-102964285D01*
X152511904Y-103011904D01*
X152321428Y-103059523D01*
X152083333Y-103059523D01*
X151892857Y-103011904D01*
X151797619Y-102964285D01*
X151750000Y-102916666D01*
X151702380Y-102821428D01*
X137107142Y-106392857D02*
X137154761Y-106440476D01*
X137202380Y-106583333D01*
X137202380Y-106678571D01*
X137154761Y-106821428D01*
X137059523Y-106916666D01*
X136964285Y-106964285D01*
X136773809Y-107011904D01*
X136630952Y-107011904D01*
X136440476Y-106964285D01*
X136345238Y-106916666D01*
X136250000Y-106821428D01*
X136202380Y-106678571D01*
X136202380Y-106583333D01*
X136250000Y-106440476D01*
X136297619Y-106392857D01*
X136297619Y-106011904D02*
X136250000Y-105964285D01*
X136202380Y-105869047D01*
X136202380Y-105630952D01*
X136250000Y-105535714D01*
X136297619Y-105488095D01*
X136392857Y-105440476D01*
X136488095Y-105440476D01*
X136630952Y-105488095D01*
X137202380Y-106059523D01*
X137202380Y-105440476D01*
X137202380Y-104488095D02*
X137202380Y-105059523D01*
X137202380Y-104773809D02*
X136202380Y-104773809D01*
X136345238Y-104869047D01*
X136440476Y-104964285D01*
X136488095Y-105059523D01*
X130107142Y-119142857D02*
X130154761Y-119190476D01*
X130202380Y-119333333D01*
X130202380Y-119428571D01*
X130154761Y-119571428D01*
X130059523Y-119666666D01*
X129964285Y-119714285D01*
X129773809Y-119761904D01*
X129630952Y-119761904D01*
X129440476Y-119714285D01*
X129345238Y-119666666D01*
X129250000Y-119571428D01*
X129202380Y-119428571D01*
X129202380Y-119333333D01*
X129250000Y-119190476D01*
X129297619Y-119142857D01*
X129297619Y-118761904D02*
X129250000Y-118714285D01*
X129202380Y-118619047D01*
X129202380Y-118380952D01*
X129250000Y-118285714D01*
X129297619Y-118238095D01*
X129392857Y-118190476D01*
X129488095Y-118190476D01*
X129630952Y-118238095D01*
X130202380Y-118809523D01*
X130202380Y-118190476D01*
X129297619Y-117809523D02*
X129250000Y-117761904D01*
X129202380Y-117666666D01*
X129202380Y-117428571D01*
X129250000Y-117333333D01*
X129297619Y-117285714D01*
X129392857Y-117238095D01*
X129488095Y-117238095D01*
X129630952Y-117285714D01*
X130202380Y-117857142D01*
X130202380Y-117238095D01*
X125607142Y-114642857D02*
X125654761Y-114690476D01*
X125702380Y-114833333D01*
X125702380Y-114928571D01*
X125654761Y-115071428D01*
X125559523Y-115166666D01*
X125464285Y-115214285D01*
X125273809Y-115261904D01*
X125130952Y-115261904D01*
X124940476Y-115214285D01*
X124845238Y-115166666D01*
X124750000Y-115071428D01*
X124702380Y-114928571D01*
X124702380Y-114833333D01*
X124750000Y-114690476D01*
X124797619Y-114642857D01*
X124797619Y-114261904D02*
X124750000Y-114214285D01*
X124702380Y-114119047D01*
X124702380Y-113880952D01*
X124750000Y-113785714D01*
X124797619Y-113738095D01*
X124892857Y-113690476D01*
X124988095Y-113690476D01*
X125130952Y-113738095D01*
X125702380Y-114309523D01*
X125702380Y-113690476D01*
X124702380Y-113357142D02*
X124702380Y-112738095D01*
X125083333Y-113071428D01*
X125083333Y-112928571D01*
X125130952Y-112833333D01*
X125178571Y-112785714D01*
X125273809Y-112738095D01*
X125511904Y-112738095D01*
X125607142Y-112785714D01*
X125654761Y-112833333D01*
X125702380Y-112928571D01*
X125702380Y-113214285D01*
X125654761Y-113309523D01*
X125607142Y-113357142D01*
X119757142Y-103492857D02*
X119804761Y-103540476D01*
X119852380Y-103683333D01*
X119852380Y-103778571D01*
X119804761Y-103921428D01*
X119709523Y-104016666D01*
X119614285Y-104064285D01*
X119423809Y-104111904D01*
X119280952Y-104111904D01*
X119090476Y-104064285D01*
X118995238Y-104016666D01*
X118900000Y-103921428D01*
X118852380Y-103778571D01*
X118852380Y-103683333D01*
X118900000Y-103540476D01*
X118947619Y-103492857D01*
X118947619Y-103111904D02*
X118900000Y-103064285D01*
X118852380Y-102969047D01*
X118852380Y-102730952D01*
X118900000Y-102635714D01*
X118947619Y-102588095D01*
X119042857Y-102540476D01*
X119138095Y-102540476D01*
X119280952Y-102588095D01*
X119852380Y-103159523D01*
X119852380Y-102540476D01*
X119185714Y-101683333D02*
X119852380Y-101683333D01*
X118804761Y-101921428D02*
X119519047Y-102159523D01*
X119519047Y-101540476D01*
X187628571Y-112352380D02*
X187295238Y-111876190D01*
X187057142Y-112352380D02*
X187057142Y-111352380D01*
X187438095Y-111352380D01*
X187533333Y-111400000D01*
X187580952Y-111447619D01*
X187628571Y-111542857D01*
X187628571Y-111685714D01*
X187580952Y-111780952D01*
X187533333Y-111828571D01*
X187438095Y-111876190D01*
X187057142Y-111876190D01*
X188057142Y-111828571D02*
X188390476Y-111828571D01*
X188533333Y-112352380D02*
X188057142Y-112352380D01*
X188057142Y-111352380D01*
X188533333Y-111352380D01*
X189295238Y-111828571D02*
X188961904Y-111828571D01*
X188961904Y-112352380D02*
X188961904Y-111352380D01*
X189438095Y-111352380D01*
X108511904Y-96728571D02*
X108845238Y-96728571D01*
X108988095Y-97252380D02*
X108511904Y-97252380D01*
X108511904Y-96252380D01*
X108988095Y-96252380D01*
X109416666Y-97252380D02*
X109416666Y-96585714D01*
X109416666Y-96776190D02*
X109464285Y-96680952D01*
X109511904Y-96633333D01*
X109607142Y-96585714D01*
X109702380Y-96585714D01*
X110035714Y-97252380D02*
X110035714Y-96585714D01*
X110035714Y-96776190D02*
X110083333Y-96680952D01*
X110130952Y-96633333D01*
X110226190Y-96585714D01*
X110321428Y-96585714D01*
X110797619Y-97252380D02*
X110702380Y-97204761D01*
X110654761Y-97157142D01*
X110607142Y-97061904D01*
X110607142Y-96776190D01*
X110654761Y-96680952D01*
X110702380Y-96633333D01*
X110797619Y-96585714D01*
X110940476Y-96585714D01*
X111035714Y-96633333D01*
X111083333Y-96680952D01*
X111130952Y-96776190D01*
X111130952Y-97061904D01*
X111083333Y-97157142D01*
X111035714Y-97204761D01*
X110940476Y-97252380D01*
X110797619Y-97252380D01*
X111559523Y-97252380D02*
X111559523Y-96585714D01*
X111559523Y-96776190D02*
X111607142Y-96680952D01*
X111654761Y-96633333D01*
X111750000Y-96585714D01*
X111845238Y-96585714D01*
X111940476Y-97347619D02*
X112702380Y-97347619D01*
X113130952Y-96252380D02*
X113321428Y-96252380D01*
X113416666Y-96300000D01*
X113511904Y-96395238D01*
X113559523Y-96585714D01*
X113559523Y-96919047D01*
X113511904Y-97109523D01*
X113416666Y-97204761D01*
X113321428Y-97252380D01*
X113130952Y-97252380D01*
X113035714Y-97204761D01*
X112940476Y-97109523D01*
X112892857Y-96919047D01*
X112892857Y-96585714D01*
X112940476Y-96395238D01*
X113035714Y-96300000D01*
X113130952Y-96252380D01*
X114416666Y-96585714D02*
X114416666Y-97252380D01*
X113988095Y-96585714D02*
X113988095Y-97109523D01*
X114035714Y-97204761D01*
X114130952Y-97252380D01*
X114273809Y-97252380D01*
X114369047Y-97204761D01*
X114416666Y-97157142D01*
X114750000Y-96585714D02*
X115130952Y-96585714D01*
X114892857Y-96252380D02*
X114892857Y-97109523D01*
X114940476Y-97204761D01*
X115035714Y-97252380D01*
X115130952Y-97252380D01*
X107561904Y-111352380D02*
X107561904Y-112066666D01*
X107514285Y-112209523D01*
X107419047Y-112304761D01*
X107276190Y-112352380D01*
X107180952Y-112352380D01*
X108371428Y-111828571D02*
X108038095Y-111828571D01*
X108038095Y-112352380D02*
X108038095Y-111352380D01*
X108514285Y-111352380D01*
X108895238Y-111828571D02*
X109228571Y-111828571D01*
X109371428Y-112352380D02*
X108895238Y-112352380D01*
X108895238Y-111352380D01*
X109371428Y-111352380D01*
X109657142Y-111352380D02*
X110228571Y-111352380D01*
X109942857Y-112352380D02*
X109942857Y-111352380D01*
X111276190Y-111304761D02*
X110419047Y-112590476D01*
X111942857Y-111828571D02*
X112085714Y-111876190D01*
X112133333Y-111923809D01*
X112180952Y-112019047D01*
X112180952Y-112161904D01*
X112133333Y-112257142D01*
X112085714Y-112304761D01*
X111990476Y-112352380D01*
X111609523Y-112352380D01*
X111609523Y-111352380D01*
X111942857Y-111352380D01*
X112038095Y-111400000D01*
X112085714Y-111447619D01*
X112133333Y-111542857D01*
X112133333Y-111638095D01*
X112085714Y-111733333D01*
X112038095Y-111780952D01*
X111942857Y-111828571D01*
X111609523Y-111828571D01*
X112609523Y-112352380D02*
X112609523Y-111685714D01*
X112609523Y-111352380D02*
X112561904Y-111400000D01*
X112609523Y-111447619D01*
X112657142Y-111400000D01*
X112609523Y-111352380D01*
X112609523Y-111447619D01*
X113514285Y-112352380D02*
X113514285Y-111828571D01*
X113466666Y-111733333D01*
X113371428Y-111685714D01*
X113180952Y-111685714D01*
X113085714Y-111733333D01*
X113514285Y-112304761D02*
X113419047Y-112352380D01*
X113180952Y-112352380D01*
X113085714Y-112304761D01*
X113038095Y-112209523D01*
X113038095Y-112114285D01*
X113085714Y-112019047D01*
X113180952Y-111971428D01*
X113419047Y-111971428D01*
X113514285Y-111923809D01*
X113942857Y-112304761D02*
X114038095Y-112352380D01*
X114228571Y-112352380D01*
X114323809Y-112304761D01*
X114371428Y-112209523D01*
X114371428Y-112161904D01*
X114323809Y-112066666D01*
X114228571Y-112019047D01*
X114085714Y-112019047D01*
X113990476Y-111971428D01*
X113942857Y-111876190D01*
X113942857Y-111828571D01*
X113990476Y-111733333D01*
X114085714Y-111685714D01*
X114228571Y-111685714D01*
X114323809Y-111733333D01*
X114800000Y-111971428D02*
X115561904Y-111971428D01*
X115895238Y-111352380D02*
X116466666Y-111352380D01*
X116180952Y-112352380D02*
X116180952Y-111352380D01*
X129066666Y-104552380D02*
X129066666Y-105266666D01*
X129019047Y-105409523D01*
X128923809Y-105504761D01*
X128780952Y-105552380D01*
X128685714Y-105552380D01*
X129542857Y-105552380D02*
X129542857Y-104552380D01*
X129923809Y-104552380D01*
X130019047Y-104600000D01*
X130066666Y-104647619D01*
X130114285Y-104742857D01*
X130114285Y-104885714D01*
X130066666Y-104980952D01*
X130019047Y-105028571D01*
X129923809Y-105076190D01*
X129542857Y-105076190D01*
X131066666Y-105552380D02*
X130495238Y-105552380D01*
X130780952Y-105552380D02*
X130780952Y-104552380D01*
X130685714Y-104695238D01*
X130590476Y-104790476D01*
X130495238Y-104838095D01*
D15*
X149357619Y-76193333D02*
X151452857Y-76193333D01*
X148938571Y-77450476D02*
X150405238Y-73050476D01*
X151871904Y-77450476D01*
X153338571Y-77450476D02*
X153338571Y-73050476D01*
X155014761Y-73050476D01*
X155433809Y-73260000D01*
X155643333Y-73469523D01*
X155852857Y-73888571D01*
X155852857Y-74517142D01*
X155643333Y-74936190D01*
X155433809Y-75145714D01*
X155014761Y-75355238D01*
X153338571Y-75355238D01*
X160671904Y-77869523D02*
X160252857Y-77660000D01*
X159833809Y-77240952D01*
X159205238Y-76612380D01*
X158786190Y-76402857D01*
X158367142Y-76402857D01*
X158576666Y-77450476D02*
X158157619Y-77240952D01*
X157738571Y-76821904D01*
X157529047Y-75983809D01*
X157529047Y-74517142D01*
X157738571Y-73679047D01*
X158157619Y-73260000D01*
X158576666Y-73050476D01*
X159414761Y-73050476D01*
X159833809Y-73260000D01*
X160252857Y-73679047D01*
X160462380Y-74517142D01*
X160462380Y-75983809D01*
X160252857Y-76821904D01*
X159833809Y-77240952D01*
X159414761Y-77450476D01*
X158576666Y-77450476D01*
D10*
X138083333Y-90202380D02*
X137750000Y-89726190D01*
X137511904Y-90202380D02*
X137511904Y-89202380D01*
X137892857Y-89202380D01*
X137988095Y-89250000D01*
X138035714Y-89297619D01*
X138083333Y-89392857D01*
X138083333Y-89535714D01*
X138035714Y-89630952D01*
X137988095Y-89678571D01*
X137892857Y-89726190D01*
X137511904Y-89726190D01*
X139035714Y-90202380D02*
X138464285Y-90202380D01*
X138750000Y-90202380D02*
X138750000Y-89202380D01*
X138654761Y-89345238D01*
X138559523Y-89440476D01*
X138464285Y-89488095D01*
X125702380Y-87166666D02*
X125226190Y-87500000D01*
X125702380Y-87738095D02*
X124702380Y-87738095D01*
X124702380Y-87357142D01*
X124750000Y-87261904D01*
X124797619Y-87214285D01*
X124892857Y-87166666D01*
X125035714Y-87166666D01*
X125130952Y-87214285D01*
X125178571Y-87261904D01*
X125226190Y-87357142D01*
X125226190Y-87738095D01*
X124797619Y-86785714D02*
X124750000Y-86738095D01*
X124702380Y-86642857D01*
X124702380Y-86404761D01*
X124750000Y-86309523D01*
X124797619Y-86261904D01*
X124892857Y-86214285D01*
X124988095Y-86214285D01*
X125130952Y-86261904D01*
X125702380Y-86833333D01*
X125702380Y-86214285D01*
X167132380Y-94416666D02*
X166656190Y-94750000D01*
X167132380Y-94988095D02*
X166132380Y-94988095D01*
X166132380Y-94607142D01*
X166180000Y-94511904D01*
X166227619Y-94464285D01*
X166322857Y-94416666D01*
X166465714Y-94416666D01*
X166560952Y-94464285D01*
X166608571Y-94511904D01*
X166656190Y-94607142D01*
X166656190Y-94988095D01*
X166132380Y-94083333D02*
X166132380Y-93464285D01*
X166513333Y-93797619D01*
X166513333Y-93654761D01*
X166560952Y-93559523D01*
X166608571Y-93511904D01*
X166703809Y-93464285D01*
X166941904Y-93464285D01*
X167037142Y-93511904D01*
X167084761Y-93559523D01*
X167132380Y-93654761D01*
X167132380Y-93940476D01*
X167084761Y-94035714D01*
X167037142Y-94083333D01*
X161772380Y-103316666D02*
X161296190Y-103650000D01*
X161772380Y-103888095D02*
X160772380Y-103888095D01*
X160772380Y-103507142D01*
X160820000Y-103411904D01*
X160867619Y-103364285D01*
X160962857Y-103316666D01*
X161105714Y-103316666D01*
X161200952Y-103364285D01*
X161248571Y-103411904D01*
X161296190Y-103507142D01*
X161296190Y-103888095D01*
X161105714Y-102459523D02*
X161772380Y-102459523D01*
X160724761Y-102697619D02*
X161439047Y-102935714D01*
X161439047Y-102316666D01*
X161782380Y-96516666D02*
X161306190Y-96850000D01*
X161782380Y-97088095D02*
X160782380Y-97088095D01*
X160782380Y-96707142D01*
X160830000Y-96611904D01*
X160877619Y-96564285D01*
X160972857Y-96516666D01*
X161115714Y-96516666D01*
X161210952Y-96564285D01*
X161258571Y-96611904D01*
X161306190Y-96707142D01*
X161306190Y-97088095D01*
X160782380Y-95611904D02*
X160782380Y-96088095D01*
X161258571Y-96135714D01*
X161210952Y-96088095D01*
X161163333Y-95992857D01*
X161163333Y-95754761D01*
X161210952Y-95659523D01*
X161258571Y-95611904D01*
X161353809Y-95564285D01*
X161591904Y-95564285D01*
X161687142Y-95611904D01*
X161734761Y-95659523D01*
X161782380Y-95754761D01*
X161782380Y-95992857D01*
X161734761Y-96088095D01*
X161687142Y-96135714D01*
X166202380Y-107166666D02*
X165726190Y-107500000D01*
X166202380Y-107738095D02*
X165202380Y-107738095D01*
X165202380Y-107357142D01*
X165250000Y-107261904D01*
X165297619Y-107214285D01*
X165392857Y-107166666D01*
X165535714Y-107166666D01*
X165630952Y-107214285D01*
X165678571Y-107261904D01*
X165726190Y-107357142D01*
X165726190Y-107738095D01*
X165202380Y-106309523D02*
X165202380Y-106500000D01*
X165250000Y-106595238D01*
X165297619Y-106642857D01*
X165440476Y-106738095D01*
X165630952Y-106785714D01*
X166011904Y-106785714D01*
X166107142Y-106738095D01*
X166154761Y-106690476D01*
X166202380Y-106595238D01*
X166202380Y-106404761D01*
X166154761Y-106309523D01*
X166107142Y-106261904D01*
X166011904Y-106214285D01*
X165773809Y-106214285D01*
X165678571Y-106261904D01*
X165630952Y-106309523D01*
X165583333Y-106404761D01*
X165583333Y-106595238D01*
X165630952Y-106690476D01*
X165678571Y-106738095D01*
X165773809Y-106785714D01*
X160433333Y-99072380D02*
X160100000Y-98596190D01*
X159861904Y-99072380D02*
X159861904Y-98072380D01*
X160242857Y-98072380D01*
X160338095Y-98120000D01*
X160385714Y-98167619D01*
X160433333Y-98262857D01*
X160433333Y-98405714D01*
X160385714Y-98500952D01*
X160338095Y-98548571D01*
X160242857Y-98596190D01*
X159861904Y-98596190D01*
X160766666Y-98072380D02*
X161433333Y-98072380D01*
X161004761Y-99072380D01*
X156233333Y-101422380D02*
X155900000Y-100946190D01*
X155661904Y-101422380D02*
X155661904Y-100422380D01*
X156042857Y-100422380D01*
X156138095Y-100470000D01*
X156185714Y-100517619D01*
X156233333Y-100612857D01*
X156233333Y-100755714D01*
X156185714Y-100850952D01*
X156138095Y-100898571D01*
X156042857Y-100946190D01*
X155661904Y-100946190D01*
X156804761Y-100850952D02*
X156709523Y-100803333D01*
X156661904Y-100755714D01*
X156614285Y-100660476D01*
X156614285Y-100612857D01*
X156661904Y-100517619D01*
X156709523Y-100470000D01*
X156804761Y-100422380D01*
X156995238Y-100422380D01*
X157090476Y-100470000D01*
X157138095Y-100517619D01*
X157185714Y-100612857D01*
X157185714Y-100660476D01*
X157138095Y-100755714D01*
X157090476Y-100803333D01*
X156995238Y-100850952D01*
X156804761Y-100850952D01*
X156709523Y-100898571D01*
X156661904Y-100946190D01*
X156614285Y-101041428D01*
X156614285Y-101231904D01*
X156661904Y-101327142D01*
X156709523Y-101374761D01*
X156804761Y-101422380D01*
X156995238Y-101422380D01*
X157090476Y-101374761D01*
X157138095Y-101327142D01*
X157185714Y-101231904D01*
X157185714Y-101041428D01*
X157138095Y-100946190D01*
X157090476Y-100898571D01*
X156995238Y-100850952D01*
X156333333Y-99202380D02*
X156000000Y-98726190D01*
X155761904Y-99202380D02*
X155761904Y-98202380D01*
X156142857Y-98202380D01*
X156238095Y-98250000D01*
X156285714Y-98297619D01*
X156333333Y-98392857D01*
X156333333Y-98535714D01*
X156285714Y-98630952D01*
X156238095Y-98678571D01*
X156142857Y-98726190D01*
X155761904Y-98726190D01*
X156809523Y-99202380D02*
X157000000Y-99202380D01*
X157095238Y-99154761D01*
X157142857Y-99107142D01*
X157238095Y-98964285D01*
X157285714Y-98773809D01*
X157285714Y-98392857D01*
X157238095Y-98297619D01*
X157190476Y-98250000D01*
X157095238Y-98202380D01*
X156904761Y-98202380D01*
X156809523Y-98250000D01*
X156761904Y-98297619D01*
X156714285Y-98392857D01*
X156714285Y-98630952D01*
X156761904Y-98726190D01*
X156809523Y-98773809D01*
X156904761Y-98821428D01*
X157095238Y-98821428D01*
X157190476Y-98773809D01*
X157238095Y-98726190D01*
X157285714Y-98630952D01*
X151272380Y-96892857D02*
X150796190Y-97226190D01*
X151272380Y-97464285D02*
X150272380Y-97464285D01*
X150272380Y-97083333D01*
X150320000Y-96988095D01*
X150367619Y-96940476D01*
X150462857Y-96892857D01*
X150605714Y-96892857D01*
X150700952Y-96940476D01*
X150748571Y-96988095D01*
X150796190Y-97083333D01*
X150796190Y-97464285D01*
X151272380Y-95940476D02*
X151272380Y-96511904D01*
X151272380Y-96226190D02*
X150272380Y-96226190D01*
X150415238Y-96321428D01*
X150510476Y-96416666D01*
X150558095Y-96511904D01*
X150272380Y-95321428D02*
X150272380Y-95226190D01*
X150320000Y-95130952D01*
X150367619Y-95083333D01*
X150462857Y-95035714D01*
X150653333Y-94988095D01*
X150891428Y-94988095D01*
X151081904Y-95035714D01*
X151177142Y-95083333D01*
X151224761Y-95130952D01*
X151272380Y-95226190D01*
X151272380Y-95321428D01*
X151224761Y-95416666D01*
X151177142Y-95464285D01*
X151081904Y-95511904D01*
X150891428Y-95559523D01*
X150653333Y-95559523D01*
X150462857Y-95511904D01*
X150367619Y-95464285D01*
X150320000Y-95416666D01*
X150272380Y-95321428D01*
X150952380Y-104392857D02*
X150476190Y-104726190D01*
X150952380Y-104964285D02*
X149952380Y-104964285D01*
X149952380Y-104583333D01*
X150000000Y-104488095D01*
X150047619Y-104440476D01*
X150142857Y-104392857D01*
X150285714Y-104392857D01*
X150380952Y-104440476D01*
X150428571Y-104488095D01*
X150476190Y-104583333D01*
X150476190Y-104964285D01*
X150952380Y-103440476D02*
X150952380Y-104011904D01*
X150952380Y-103726190D02*
X149952380Y-103726190D01*
X150095238Y-103821428D01*
X150190476Y-103916666D01*
X150238095Y-104011904D01*
X150952380Y-102488095D02*
X150952380Y-103059523D01*
X150952380Y-102773809D02*
X149952380Y-102773809D01*
X150095238Y-102869047D01*
X150190476Y-102964285D01*
X150238095Y-103059523D01*
X144607142Y-95022380D02*
X144273809Y-94546190D01*
X144035714Y-95022380D02*
X144035714Y-94022380D01*
X144416666Y-94022380D01*
X144511904Y-94070000D01*
X144559523Y-94117619D01*
X144607142Y-94212857D01*
X144607142Y-94355714D01*
X144559523Y-94450952D01*
X144511904Y-94498571D01*
X144416666Y-94546190D01*
X144035714Y-94546190D01*
X145559523Y-95022380D02*
X144988095Y-95022380D01*
X145273809Y-95022380D02*
X145273809Y-94022380D01*
X145178571Y-94165238D01*
X145083333Y-94260476D01*
X144988095Y-94308095D01*
X145940476Y-94117619D02*
X145988095Y-94070000D01*
X146083333Y-94022380D01*
X146321428Y-94022380D01*
X146416666Y-94070000D01*
X146464285Y-94117619D01*
X146511904Y-94212857D01*
X146511904Y-94308095D01*
X146464285Y-94450952D01*
X145892857Y-95022380D01*
X146511904Y-95022380D01*
X141702380Y-102642857D02*
X141226190Y-102976190D01*
X141702380Y-103214285D02*
X140702380Y-103214285D01*
X140702380Y-102833333D01*
X140750000Y-102738095D01*
X140797619Y-102690476D01*
X140892857Y-102642857D01*
X141035714Y-102642857D01*
X141130952Y-102690476D01*
X141178571Y-102738095D01*
X141226190Y-102833333D01*
X141226190Y-103214285D01*
X141702380Y-101690476D02*
X141702380Y-102261904D01*
X141702380Y-101976190D02*
X140702380Y-101976190D01*
X140845238Y-102071428D01*
X140940476Y-102166666D01*
X140988095Y-102261904D01*
X140702380Y-101357142D02*
X140702380Y-100738095D01*
X141083333Y-101071428D01*
X141083333Y-100928571D01*
X141130952Y-100833333D01*
X141178571Y-100785714D01*
X141273809Y-100738095D01*
X141511904Y-100738095D01*
X141607142Y-100785714D01*
X141654761Y-100833333D01*
X141702380Y-100928571D01*
X141702380Y-101214285D01*
X141654761Y-101309523D01*
X141607142Y-101357142D01*
X137952380Y-102642857D02*
X137476190Y-102976190D01*
X137952380Y-103214285D02*
X136952380Y-103214285D01*
X136952380Y-102833333D01*
X137000000Y-102738095D01*
X137047619Y-102690476D01*
X137142857Y-102642857D01*
X137285714Y-102642857D01*
X137380952Y-102690476D01*
X137428571Y-102738095D01*
X137476190Y-102833333D01*
X137476190Y-103214285D01*
X137952380Y-101690476D02*
X137952380Y-102261904D01*
X137952380Y-101976190D02*
X136952380Y-101976190D01*
X137095238Y-102071428D01*
X137190476Y-102166666D01*
X137238095Y-102261904D01*
X137285714Y-100833333D02*
X137952380Y-100833333D01*
X136904761Y-101071428D02*
X137619047Y-101309523D01*
X137619047Y-100690476D01*
X118457142Y-89972380D02*
X118123809Y-89496190D01*
X117885714Y-89972380D02*
X117885714Y-88972380D01*
X118266666Y-88972380D01*
X118361904Y-89020000D01*
X118409523Y-89067619D01*
X118457142Y-89162857D01*
X118457142Y-89305714D01*
X118409523Y-89400952D01*
X118361904Y-89448571D01*
X118266666Y-89496190D01*
X117885714Y-89496190D01*
X119409523Y-89972380D02*
X118838095Y-89972380D01*
X119123809Y-89972380D02*
X119123809Y-88972380D01*
X119028571Y-89115238D01*
X118933333Y-89210476D01*
X118838095Y-89258095D01*
X120314285Y-88972380D02*
X119838095Y-88972380D01*
X119790476Y-89448571D01*
X119838095Y-89400952D01*
X119933333Y-89353333D01*
X120171428Y-89353333D01*
X120266666Y-89400952D01*
X120314285Y-89448571D01*
X120361904Y-89543809D01*
X120361904Y-89781904D01*
X120314285Y-89877142D01*
X120266666Y-89924761D01*
X120171428Y-89972380D01*
X119933333Y-89972380D01*
X119838095Y-89924761D01*
X119790476Y-89877142D01*
X145107142Y-122882380D02*
X144773809Y-122406190D01*
X144535714Y-122882380D02*
X144535714Y-121882380D01*
X144916666Y-121882380D01*
X145011904Y-121930000D01*
X145059523Y-121977619D01*
X145107142Y-122072857D01*
X145107142Y-122215714D01*
X145059523Y-122310952D01*
X145011904Y-122358571D01*
X144916666Y-122406190D01*
X144535714Y-122406190D01*
X146059523Y-122882380D02*
X145488095Y-122882380D01*
X145773809Y-122882380D02*
X145773809Y-121882380D01*
X145678571Y-122025238D01*
X145583333Y-122120476D01*
X145488095Y-122168095D01*
X146916666Y-121882380D02*
X146726190Y-121882380D01*
X146630952Y-121930000D01*
X146583333Y-121977619D01*
X146488095Y-122120476D01*
X146440476Y-122310952D01*
X146440476Y-122691904D01*
X146488095Y-122787142D01*
X146535714Y-122834761D01*
X146630952Y-122882380D01*
X146821428Y-122882380D01*
X146916666Y-122834761D01*
X146964285Y-122787142D01*
X147011904Y-122691904D01*
X147011904Y-122453809D01*
X146964285Y-122358571D01*
X146916666Y-122310952D01*
X146821428Y-122263333D01*
X146630952Y-122263333D01*
X146535714Y-122310952D01*
X146488095Y-122358571D01*
X146440476Y-122453809D01*
X136357142Y-114702380D02*
X136023809Y-114226190D01*
X135785714Y-114702380D02*
X135785714Y-113702380D01*
X136166666Y-113702380D01*
X136261904Y-113750000D01*
X136309523Y-113797619D01*
X136357142Y-113892857D01*
X136357142Y-114035714D01*
X136309523Y-114130952D01*
X136261904Y-114178571D01*
X136166666Y-114226190D01*
X135785714Y-114226190D01*
X137309523Y-114702380D02*
X136738095Y-114702380D01*
X137023809Y-114702380D02*
X137023809Y-113702380D01*
X136928571Y-113845238D01*
X136833333Y-113940476D01*
X136738095Y-113988095D01*
X137642857Y-113702380D02*
X138309523Y-113702380D01*
X137880952Y-114702380D01*
X127952380Y-114642857D02*
X127476190Y-114976190D01*
X127952380Y-115214285D02*
X126952380Y-115214285D01*
X126952380Y-114833333D01*
X127000000Y-114738095D01*
X127047619Y-114690476D01*
X127142857Y-114642857D01*
X127285714Y-114642857D01*
X127380952Y-114690476D01*
X127428571Y-114738095D01*
X127476190Y-114833333D01*
X127476190Y-115214285D01*
X127952380Y-113690476D02*
X127952380Y-114261904D01*
X127952380Y-113976190D02*
X126952380Y-113976190D01*
X127095238Y-114071428D01*
X127190476Y-114166666D01*
X127238095Y-114261904D01*
X127380952Y-113119047D02*
X127333333Y-113214285D01*
X127285714Y-113261904D01*
X127190476Y-113309523D01*
X127142857Y-113309523D01*
X127047619Y-113261904D01*
X127000000Y-113214285D01*
X126952380Y-113119047D01*
X126952380Y-112928571D01*
X127000000Y-112833333D01*
X127047619Y-112785714D01*
X127142857Y-112738095D01*
X127190476Y-112738095D01*
X127285714Y-112785714D01*
X127333333Y-112833333D01*
X127380952Y-112928571D01*
X127380952Y-113119047D01*
X127428571Y-113214285D01*
X127476190Y-113261904D01*
X127571428Y-113309523D01*
X127761904Y-113309523D01*
X127857142Y-113261904D01*
X127904761Y-113214285D01*
X127952380Y-113119047D01*
X127952380Y-112928571D01*
X127904761Y-112833333D01*
X127857142Y-112785714D01*
X127761904Y-112738095D01*
X127571428Y-112738095D01*
X127476190Y-112785714D01*
X127428571Y-112833333D01*
X127380952Y-112928571D01*
X124152380Y-106142857D02*
X123676190Y-106476190D01*
X124152380Y-106714285D02*
X123152380Y-106714285D01*
X123152380Y-106333333D01*
X123200000Y-106238095D01*
X123247619Y-106190476D01*
X123342857Y-106142857D01*
X123485714Y-106142857D01*
X123580952Y-106190476D01*
X123628571Y-106238095D01*
X123676190Y-106333333D01*
X123676190Y-106714285D01*
X124152380Y-105190476D02*
X124152380Y-105761904D01*
X124152380Y-105476190D02*
X123152380Y-105476190D01*
X123295238Y-105571428D01*
X123390476Y-105666666D01*
X123438095Y-105761904D01*
X124152380Y-104714285D02*
X124152380Y-104523809D01*
X124104761Y-104428571D01*
X124057142Y-104380952D01*
X123914285Y-104285714D01*
X123723809Y-104238095D01*
X123342857Y-104238095D01*
X123247619Y-104285714D01*
X123200000Y-104333333D01*
X123152380Y-104428571D01*
X123152380Y-104619047D01*
X123200000Y-104714285D01*
X123247619Y-104761904D01*
X123342857Y-104809523D01*
X123580952Y-104809523D01*
X123676190Y-104761904D01*
X123723809Y-104714285D01*
X123771428Y-104619047D01*
X123771428Y-104428571D01*
X123723809Y-104333333D01*
X123676190Y-104285714D01*
X123580952Y-104238095D01*
X121457142Y-105922380D02*
X121123809Y-105446190D01*
X120885714Y-105922380D02*
X120885714Y-104922380D01*
X121266666Y-104922380D01*
X121361904Y-104970000D01*
X121409523Y-105017619D01*
X121457142Y-105112857D01*
X121457142Y-105255714D01*
X121409523Y-105350952D01*
X121361904Y-105398571D01*
X121266666Y-105446190D01*
X120885714Y-105446190D01*
X121838095Y-105017619D02*
X121885714Y-104970000D01*
X121980952Y-104922380D01*
X122219047Y-104922380D01*
X122314285Y-104970000D01*
X122361904Y-105017619D01*
X122409523Y-105112857D01*
X122409523Y-105208095D01*
X122361904Y-105350952D01*
X121790476Y-105922380D01*
X122409523Y-105922380D01*
X123028571Y-104922380D02*
X123123809Y-104922380D01*
X123219047Y-104970000D01*
X123266666Y-105017619D01*
X123314285Y-105112857D01*
X123361904Y-105303333D01*
X123361904Y-105541428D01*
X123314285Y-105731904D01*
X123266666Y-105827142D01*
X123219047Y-105874761D01*
X123123809Y-105922380D01*
X123028571Y-105922380D01*
X122933333Y-105874761D01*
X122885714Y-105827142D01*
X122838095Y-105731904D01*
X122790476Y-105541428D01*
X122790476Y-105303333D01*
X122838095Y-105112857D01*
X122885714Y-105017619D01*
X122933333Y-104970000D01*
X123028571Y-104922380D01*
X117952380Y-103742857D02*
X117476190Y-104076190D01*
X117952380Y-104314285D02*
X116952380Y-104314285D01*
X116952380Y-103933333D01*
X117000000Y-103838095D01*
X117047619Y-103790476D01*
X117142857Y-103742857D01*
X117285714Y-103742857D01*
X117380952Y-103790476D01*
X117428571Y-103838095D01*
X117476190Y-103933333D01*
X117476190Y-104314285D01*
X117047619Y-103361904D02*
X117000000Y-103314285D01*
X116952380Y-103219047D01*
X116952380Y-102980952D01*
X117000000Y-102885714D01*
X117047619Y-102838095D01*
X117142857Y-102790476D01*
X117238095Y-102790476D01*
X117380952Y-102838095D01*
X117952380Y-103409523D01*
X117952380Y-102790476D01*
X117952380Y-101838095D02*
X117952380Y-102409523D01*
X117952380Y-102123809D02*
X116952380Y-102123809D01*
X117095238Y-102219047D01*
X117190476Y-102314285D01*
X117238095Y-102409523D01*
X137782380Y-123345238D02*
X137306190Y-123678571D01*
X137782380Y-123916666D02*
X136782380Y-123916666D01*
X136782380Y-123535714D01*
X136830000Y-123440476D01*
X136877619Y-123392857D01*
X136972857Y-123345238D01*
X137115714Y-123345238D01*
X137210952Y-123392857D01*
X137258571Y-123440476D01*
X137306190Y-123535714D01*
X137306190Y-123916666D01*
X136782380Y-123059523D02*
X137782380Y-122726190D01*
X136782380Y-122392857D01*
X137782380Y-121535714D02*
X137782380Y-122107142D01*
X137782380Y-121821428D02*
X136782380Y-121821428D01*
X136925238Y-121916666D01*
X137020476Y-122011904D01*
X137068095Y-122107142D01*
X138952380Y-82261904D02*
X139761904Y-82261904D01*
X139857142Y-82214285D01*
X139904761Y-82166666D01*
X139952380Y-82071428D01*
X139952380Y-81880952D01*
X139904761Y-81785714D01*
X139857142Y-81738095D01*
X139761904Y-81690476D01*
X138952380Y-81690476D01*
X139047619Y-81261904D02*
X139000000Y-81214285D01*
X138952380Y-81119047D01*
X138952380Y-80880952D01*
X139000000Y-80785714D01*
X139047619Y-80738095D01*
X139142857Y-80690476D01*
X139238095Y-80690476D01*
X139380952Y-80738095D01*
X139952380Y-81309523D01*
X139952380Y-80690476D01*
X130988095Y-88452380D02*
X130988095Y-89261904D01*
X131035714Y-89357142D01*
X131083333Y-89404761D01*
X131178571Y-89452380D01*
X131369047Y-89452380D01*
X131464285Y-89404761D01*
X131511904Y-89357142D01*
X131559523Y-89261904D01*
X131559523Y-88452380D01*
X131940476Y-88452380D02*
X132559523Y-88452380D01*
X132226190Y-88833333D01*
X132369047Y-88833333D01*
X132464285Y-88880952D01*
X132511904Y-88928571D01*
X132559523Y-89023809D01*
X132559523Y-89261904D01*
X132511904Y-89357142D01*
X132464285Y-89404761D01*
X132369047Y-89452380D01*
X132083333Y-89452380D01*
X131988095Y-89404761D01*
X131940476Y-89357142D01*
X169238095Y-102669880D02*
X169238095Y-103479404D01*
X169285714Y-103574642D01*
X169333333Y-103622261D01*
X169428571Y-103669880D01*
X169619047Y-103669880D01*
X169714285Y-103622261D01*
X169761904Y-103574642D01*
X169809523Y-103479404D01*
X169809523Y-102669880D01*
X170809523Y-103669880D02*
X170238095Y-103669880D01*
X170523809Y-103669880D02*
X170523809Y-102669880D01*
X170428571Y-102812738D01*
X170333333Y-102907976D01*
X170238095Y-102955595D01*
X145238095Y-97502380D02*
X145238095Y-98311904D01*
X145285714Y-98407142D01*
X145333333Y-98454761D01*
X145428571Y-98502380D01*
X145619047Y-98502380D01*
X145714285Y-98454761D01*
X145761904Y-98407142D01*
X145809523Y-98311904D01*
X145809523Y-97502380D01*
X146714285Y-97835714D02*
X146714285Y-98502380D01*
X146476190Y-97454761D02*
X146238095Y-98169047D01*
X146857142Y-98169047D01*
X131538095Y-107952380D02*
X131538095Y-108761904D01*
X131585714Y-108857142D01*
X131633333Y-108904761D01*
X131728571Y-108952380D01*
X131919047Y-108952380D01*
X132014285Y-108904761D01*
X132061904Y-108857142D01*
X132109523Y-108761904D01*
X132109523Y-107952380D01*
X133061904Y-107952380D02*
X132585714Y-107952380D01*
X132538095Y-108428571D01*
X132585714Y-108380952D01*
X132680952Y-108333333D01*
X132919047Y-108333333D01*
X133014285Y-108380952D01*
X133061904Y-108428571D01*
X133109523Y-108523809D01*
X133109523Y-108761904D01*
X133061904Y-108857142D01*
X133014285Y-108904761D01*
X132919047Y-108952380D01*
X132680952Y-108952380D01*
X132585714Y-108904761D01*
X132538095Y-108857142D01*
X120652380Y-110333333D02*
X121366666Y-110333333D01*
X121509523Y-110380952D01*
X121604761Y-110476190D01*
X121652380Y-110619047D01*
X121652380Y-110714285D01*
X121652380Y-109857142D02*
X120652380Y-109857142D01*
X120652380Y-109476190D01*
X120700000Y-109380952D01*
X120747619Y-109333333D01*
X120842857Y-109285714D01*
X120985714Y-109285714D01*
X121080952Y-109333333D01*
X121128571Y-109380952D01*
X121176190Y-109476190D01*
X121176190Y-109857142D01*
X120747619Y-108904761D02*
X120700000Y-108857142D01*
X120652380Y-108761904D01*
X120652380Y-108523809D01*
X120700000Y-108428571D01*
X120747619Y-108380952D01*
X120842857Y-108333333D01*
X120938095Y-108333333D01*
X121080952Y-108380952D01*
X121652380Y-108952380D01*
X121652380Y-108333333D01*
M02*
