G04 #@! TF.GenerationSoftware,KiCad,Pcbnew,(5.1.5)-3*
G04 #@! TF.CreationDate,2020-11-23T23:15:06+01:00*
G04 #@! TF.ProjectId,PFD_HMC439QS16G,5046445f-484d-4433-9433-395153313647,1.1*
G04 #@! TF.SameCoordinates,Original*
G04 #@! TF.FileFunction,Copper,L2,Bot*
G04 #@! TF.FilePolarity,Positive*
%FSLAX46Y46*%
G04 Gerber Fmt 4.6, Leading zero omitted, Abs format (unit mm)*
G04 Created by KiCad (PCBNEW (5.1.5)-3) date 2020-11-23 23:15:06*
%MOMM*%
%LPD*%
G04 APERTURE LIST*
%ADD10C,2.050000*%
%ADD11C,2.250000*%
%ADD12R,1.700000X1.700000*%
%ADD13O,1.700000X1.700000*%
%ADD14C,1.800000*%
%ADD15C,0.900000*%
%ADD16C,8.600000*%
%ADD17C,0.600000*%
%ADD18C,0.250000*%
%ADD19C,0.500000*%
%ADD20C,0.254000*%
G04 APERTURE END LIST*
D10*
X188200000Y-106900000D03*
D11*
X190740000Y-109440000D03*
X190740000Y-104360000D03*
X185660000Y-104360000D03*
X185660000Y-109440000D03*
X185660000Y-94340000D03*
X185660000Y-89260000D03*
X190740000Y-89260000D03*
X190740000Y-94340000D03*
D10*
X188200000Y-91800000D03*
D11*
X109210000Y-94340000D03*
X109210000Y-89260000D03*
X114290000Y-89260000D03*
X114290000Y-94340000D03*
D10*
X111750000Y-91800000D03*
D12*
X131220000Y-75500000D03*
D13*
X133760000Y-75500000D03*
X136300000Y-75500000D03*
D10*
X111800000Y-106900000D03*
D11*
X114340000Y-109440000D03*
X114340000Y-104360000D03*
X109260000Y-104360000D03*
X109260000Y-109440000D03*
D14*
X142250000Y-108250000D03*
X139710000Y-115870000D03*
X142250000Y-120950000D03*
D15*
X111680419Y-71219581D03*
X109400000Y-70275000D03*
X107119581Y-71219581D03*
X106175000Y-73500000D03*
X107119581Y-75780419D03*
X109400000Y-76725000D03*
X111680419Y-75780419D03*
X112625000Y-73500000D03*
D16*
X109400000Y-73500000D03*
X187700000Y-73500000D03*
D15*
X190925000Y-73500000D03*
X189980419Y-75780419D03*
X187700000Y-76725000D03*
X185419581Y-75780419D03*
X184475000Y-73500000D03*
X185419581Y-71219581D03*
X187700000Y-70275000D03*
X189980419Y-71219581D03*
X189680419Y-119319581D03*
X187400000Y-118375000D03*
X185119581Y-119319581D03*
X184175000Y-121600000D03*
X185119581Y-123880419D03*
X187400000Y-124825000D03*
X189680419Y-123880419D03*
X190625000Y-121600000D03*
D16*
X187400000Y-121600000D03*
X109400000Y-121500000D03*
D15*
X112625000Y-121500000D03*
X111680419Y-123780419D03*
X109400000Y-124725000D03*
X107119581Y-123780419D03*
X106175000Y-121500000D03*
X107119581Y-119219581D03*
X109400000Y-118275000D03*
X111680419Y-119219581D03*
D17*
X170000000Y-99700000D03*
X174000000Y-102000000D03*
X175000000Y-103000000D03*
X176000000Y-104000000D03*
X177000000Y-105000000D03*
X178000000Y-106000000D03*
X179000000Y-107000000D03*
X180000000Y-108000000D03*
X181000000Y-108000000D03*
X182000000Y-108000000D03*
X183000000Y-108000000D03*
X184000000Y-106000000D03*
X183000000Y-106000000D03*
X182000000Y-106000000D03*
X181000000Y-106000000D03*
X180000000Y-106000000D03*
X179000000Y-105000000D03*
X178000000Y-104000000D03*
X177000000Y-103000000D03*
X176000000Y-102000000D03*
X175000000Y-101000000D03*
X184000000Y-108000000D03*
X184000000Y-93000000D03*
X183000000Y-93000000D03*
X182000000Y-93000000D03*
X181000000Y-93000000D03*
X180000000Y-94000000D03*
X179000000Y-95000000D03*
X178000000Y-96000000D03*
X177000000Y-97000000D03*
X176000000Y-98000000D03*
X184000000Y-90800000D03*
X183000000Y-90800000D03*
X182000000Y-90800000D03*
X181000000Y-90800000D03*
X180000000Y-91700000D03*
X179000000Y-92700000D03*
X178000000Y-93700000D03*
X177000000Y-94700000D03*
X176000000Y-95700000D03*
X177800000Y-100000000D03*
X174500000Y-93100000D03*
X174800000Y-98800000D03*
X167000000Y-104000000D03*
X168000000Y-104000000D03*
X169000000Y-104000000D03*
X170000000Y-104000000D03*
X171000000Y-104000000D03*
X167000000Y-103000000D03*
X168000000Y-103000000D03*
X169000000Y-103000000D03*
X170000000Y-103000000D03*
X171000000Y-103000000D03*
X169000000Y-102000000D03*
X170000000Y-102000000D03*
X171000000Y-102000000D03*
X169000000Y-98000000D03*
X170000000Y-98000000D03*
X171000000Y-98000000D03*
X169000000Y-97000000D03*
X170000000Y-97000000D03*
X171000000Y-97000000D03*
X167000000Y-96000000D03*
X168000000Y-96000000D03*
X169000000Y-96000000D03*
X170000000Y-96000000D03*
X171000000Y-96000000D03*
X172000000Y-96000000D03*
X167000000Y-95000000D03*
X168000000Y-95000000D03*
X169000000Y-95000000D03*
X170000000Y-95000000D03*
X171000000Y-95000000D03*
X172000000Y-95000000D03*
X167000000Y-94000000D03*
X168000000Y-94000000D03*
X169000000Y-94000000D03*
X170000000Y-94000000D03*
X171000000Y-94000000D03*
X172000000Y-94000000D03*
X160900000Y-98000000D03*
X161900000Y-98000000D03*
X162900000Y-98000000D03*
X163900000Y-98000000D03*
X164900000Y-99000000D03*
X163900000Y-99000000D03*
X162900000Y-99000000D03*
X161900000Y-99000000D03*
X160900000Y-99000000D03*
X158600000Y-91800000D03*
X164100000Y-103100000D03*
X164100000Y-104100000D03*
X165000000Y-101000000D03*
X164000000Y-101000000D03*
X163000000Y-101000000D03*
X159000000Y-101400000D03*
X160000000Y-101400000D03*
X161100000Y-101400000D03*
X159000000Y-103200000D03*
X160000000Y-103200000D03*
X161000000Y-103200000D03*
X158000000Y-101000000D03*
X157000000Y-101000000D03*
X157000000Y-98500000D03*
X158000000Y-98500000D03*
X159000000Y-98500000D03*
X158500000Y-96300000D03*
X157100000Y-106600000D03*
X133760000Y-77240000D03*
X133760000Y-78240000D03*
X133760000Y-79240000D03*
X123600000Y-81400000D03*
X140800000Y-82000000D03*
X135600000Y-85300000D03*
X135600000Y-84500000D03*
X137600000Y-85300000D03*
X136600000Y-85300000D03*
X137600000Y-84500000D03*
X136600000Y-84500000D03*
X138000000Y-89800000D03*
X126700000Y-88700000D03*
X130300000Y-88900000D03*
X154000000Y-76000000D03*
X155500000Y-76000000D03*
X157000000Y-76000000D03*
X157000000Y-78000000D03*
X157000000Y-80000000D03*
X157000000Y-82000000D03*
X157000000Y-84000000D03*
X157000000Y-86000000D03*
X157000000Y-88000000D03*
X157000000Y-90000000D03*
X157000000Y-92000000D03*
X157000000Y-99750000D03*
X157000000Y-108000000D03*
X157000000Y-110000000D03*
X157000000Y-112000000D03*
X157000000Y-114000000D03*
X157000000Y-116000000D03*
X157000000Y-118000000D03*
X157000000Y-120000000D03*
X157000000Y-122000000D03*
X157000000Y-124000000D03*
X154000000Y-78000000D03*
X154000000Y-80000000D03*
X154000000Y-82000000D03*
X154000000Y-84000000D03*
X154000000Y-86000000D03*
X154000000Y-88000000D03*
X154000000Y-90000000D03*
X154000000Y-92000000D03*
X154000000Y-94000000D03*
X154000000Y-96000000D03*
X154000000Y-98000000D03*
X154000000Y-100000000D03*
X154000000Y-101500000D03*
X154000000Y-104000000D03*
X154000000Y-106000000D03*
X154000000Y-108000000D03*
X154000000Y-110000000D03*
X154000000Y-112000000D03*
X154000000Y-114000000D03*
X154000000Y-116000000D03*
X154000000Y-118000000D03*
X154000000Y-120000000D03*
X154000000Y-122000000D03*
X154000000Y-124000000D03*
X159000000Y-114000000D03*
X161000000Y-114000000D03*
X163000000Y-114000000D03*
X165000000Y-114000000D03*
X167000000Y-114000000D03*
X169000000Y-114000000D03*
X171000000Y-114000000D03*
X173000000Y-114000000D03*
X175000000Y-114000000D03*
X177000000Y-114000000D03*
X179000000Y-114000000D03*
X181000000Y-114000000D03*
X183000000Y-114000000D03*
X185000000Y-114000000D03*
X187000000Y-114000000D03*
X189000000Y-114000000D03*
X191000000Y-114000000D03*
X193000000Y-114000000D03*
X159000000Y-86000000D03*
X161000000Y-86000000D03*
X163000000Y-86000000D03*
X165000000Y-86000000D03*
X167000000Y-86000000D03*
X169000000Y-86000000D03*
X171000000Y-86000000D03*
X173000000Y-86000000D03*
X175000000Y-86000000D03*
X177000000Y-86000000D03*
X179000000Y-86000000D03*
X181000000Y-86000000D03*
X183000000Y-86000000D03*
X185000000Y-86000000D03*
X187000000Y-86000000D03*
X189000000Y-86000000D03*
X191000000Y-86000000D03*
X193000000Y-86000000D03*
X193000000Y-88000000D03*
X193000000Y-90000000D03*
X193000000Y-92000000D03*
X193000000Y-94000000D03*
X193000000Y-96000000D03*
X193000000Y-98000000D03*
X193000000Y-100000000D03*
X193000000Y-102000000D03*
X193000000Y-104000000D03*
X193000000Y-106000000D03*
X193000000Y-108000000D03*
X193000000Y-110000000D03*
X193000000Y-112000000D03*
X148250000Y-94000000D03*
X152250000Y-94250000D03*
X140750000Y-103500000D03*
X142250000Y-101000000D03*
X127000000Y-91500000D03*
X141250000Y-93000000D03*
X129750000Y-116750000D03*
X136750000Y-106500000D03*
X162000000Y-95250000D03*
X163000000Y-95250000D03*
X164000000Y-95250000D03*
X147750000Y-121000000D03*
X130200000Y-108900000D03*
X126200000Y-102400000D03*
X117500000Y-103500000D03*
X119400000Y-103700000D03*
X143100000Y-106300000D03*
X144200000Y-105200000D03*
X145200000Y-104000000D03*
X144900000Y-97500000D03*
X145500000Y-99500000D03*
X164950000Y-111800000D03*
X159850000Y-100050000D03*
X159900000Y-94499998D03*
X130137500Y-112862500D03*
X148112500Y-98637500D03*
X156500000Y-87000000D03*
X143887500Y-102362500D03*
X133500000Y-94750000D03*
X142500000Y-99500000D03*
X135500000Y-96750000D03*
X149250000Y-101750000D03*
X152250000Y-98250000D03*
X131700000Y-85400000D03*
X130700000Y-85400000D03*
X129700000Y-85400000D03*
X131700000Y-84600000D03*
X129700000Y-84600000D03*
X130700000Y-84600000D03*
X127750000Y-79500000D03*
X126800000Y-79500000D03*
X125800000Y-79500000D03*
X125800000Y-78300000D03*
X126800000Y-78300000D03*
X127800000Y-78300000D03*
D18*
X159850000Y-94549998D02*
X159900000Y-94499998D01*
X159850000Y-100050000D02*
X159850000Y-94549998D01*
X148112500Y-99061764D02*
X148112500Y-98637500D01*
X134312502Y-112862500D02*
X148112500Y-99062502D01*
X148112500Y-99062502D02*
X148112500Y-99061764D01*
X130137500Y-112862500D02*
X134312502Y-112862500D01*
D19*
X156200001Y-87299999D02*
X156500000Y-87000000D01*
X164950000Y-111800000D02*
X156200001Y-103050001D01*
X156200001Y-103050001D02*
X156200001Y-87299999D01*
D18*
X143887500Y-102362500D02*
X143887500Y-98637500D01*
X143887500Y-98637500D02*
X140000000Y-94750000D01*
X140000000Y-94750000D02*
X133500000Y-94750000D01*
X142500000Y-99500000D02*
X138250000Y-99500000D01*
X138250000Y-99500000D02*
X135500000Y-96750000D01*
X149250000Y-101750000D02*
X152250000Y-98750000D01*
X152250000Y-98750000D02*
X152250000Y-98250000D01*
D20*
G36*
X132873000Y-77938136D02*
G01*
X132860932Y-77967271D01*
X132825000Y-78147911D01*
X132825000Y-78332089D01*
X132860932Y-78512729D01*
X132873000Y-78541864D01*
X132873000Y-78938136D01*
X132860932Y-78967271D01*
X132825000Y-79147911D01*
X132825000Y-79332089D01*
X132860932Y-79512729D01*
X132873000Y-79541864D01*
X132873000Y-85873000D01*
X125127000Y-85873000D01*
X125127000Y-77877000D01*
X132873000Y-77877000D01*
X132873000Y-77938136D01*
G37*
X132873000Y-77938136D02*
X132860932Y-77967271D01*
X132825000Y-78147911D01*
X132825000Y-78332089D01*
X132860932Y-78512729D01*
X132873000Y-78541864D01*
X132873000Y-78938136D01*
X132860932Y-78967271D01*
X132825000Y-79147911D01*
X132825000Y-79332089D01*
X132860932Y-79512729D01*
X132873000Y-79541864D01*
X132873000Y-85873000D01*
X125127000Y-85873000D01*
X125127000Y-77877000D01*
X132873000Y-77877000D01*
X132873000Y-77938136D01*
G36*
X115215000Y-69583646D02*
G01*
X115217887Y-69612954D01*
X115217844Y-69619066D01*
X115218777Y-69628585D01*
X115239178Y-69822682D01*
X115251661Y-69883496D01*
X115263295Y-69944481D01*
X115266059Y-69953637D01*
X115323771Y-70140075D01*
X115347818Y-70197279D01*
X115371087Y-70254873D01*
X115375577Y-70263317D01*
X115468402Y-70434994D01*
X115503122Y-70486468D01*
X115537117Y-70538418D01*
X115543161Y-70545829D01*
X115667565Y-70696207D01*
X115711638Y-70739973D01*
X115755057Y-70784311D01*
X115762426Y-70790408D01*
X115913668Y-70913758D01*
X115965397Y-70948126D01*
X116016608Y-70983191D01*
X116025016Y-70987737D01*
X116025020Y-70987740D01*
X116025024Y-70987742D01*
X116197343Y-71079366D01*
X116254739Y-71103022D01*
X116311807Y-71127482D01*
X116320944Y-71130310D01*
X116507780Y-71186719D01*
X116568690Y-71198780D01*
X116629409Y-71211686D01*
X116638921Y-71212686D01*
X116833155Y-71231731D01*
X116833163Y-71231731D01*
X116866353Y-71235000D01*
X121933647Y-71235000D01*
X121962955Y-71232113D01*
X121969066Y-71232156D01*
X121978585Y-71231223D01*
X122172682Y-71210822D01*
X122233496Y-71198339D01*
X122294481Y-71186705D01*
X122303637Y-71183941D01*
X122490075Y-71126229D01*
X122547279Y-71102182D01*
X122604873Y-71078913D01*
X122613317Y-71074423D01*
X122784994Y-70981598D01*
X122836468Y-70946878D01*
X122888418Y-70912883D01*
X122895829Y-70906839D01*
X123046207Y-70782435D01*
X123089973Y-70738362D01*
X123134311Y-70694943D01*
X123140408Y-70687574D01*
X123263758Y-70536332D01*
X123298126Y-70484603D01*
X123333191Y-70433392D01*
X123337739Y-70424981D01*
X123337740Y-70424980D01*
X123337742Y-70424976D01*
X123429366Y-70252657D01*
X123453022Y-70195261D01*
X123477482Y-70138193D01*
X123480310Y-70129056D01*
X123536719Y-69942220D01*
X123548780Y-69881310D01*
X123561686Y-69820591D01*
X123562686Y-69811079D01*
X123581731Y-69616845D01*
X123581731Y-69616837D01*
X123585000Y-69583647D01*
X123585000Y-69235000D01*
X144215000Y-69235000D01*
X144215000Y-69583646D01*
X144217887Y-69612954D01*
X144217844Y-69619066D01*
X144218777Y-69628585D01*
X144239178Y-69822682D01*
X144251661Y-69883496D01*
X144263295Y-69944481D01*
X144266059Y-69953637D01*
X144323771Y-70140075D01*
X144347818Y-70197279D01*
X144371087Y-70254873D01*
X144375577Y-70263317D01*
X144468402Y-70434994D01*
X144503122Y-70486468D01*
X144537117Y-70538418D01*
X144543161Y-70545829D01*
X144667565Y-70696207D01*
X144711638Y-70739973D01*
X144755057Y-70784311D01*
X144762426Y-70790408D01*
X144913668Y-70913758D01*
X144965397Y-70948126D01*
X145016608Y-70983191D01*
X145025016Y-70987737D01*
X145025020Y-70987740D01*
X145025024Y-70987742D01*
X145197343Y-71079366D01*
X145254739Y-71103022D01*
X145311807Y-71127482D01*
X145320944Y-71130310D01*
X145507780Y-71186719D01*
X145568690Y-71198780D01*
X145629409Y-71211686D01*
X145638921Y-71212686D01*
X145833155Y-71231731D01*
X145833163Y-71231731D01*
X145866353Y-71235000D01*
X150933647Y-71235000D01*
X150962955Y-71232113D01*
X150969066Y-71232156D01*
X150978585Y-71231223D01*
X151172682Y-71210822D01*
X151233496Y-71198339D01*
X151294481Y-71186705D01*
X151303637Y-71183941D01*
X151490075Y-71126229D01*
X151547279Y-71102182D01*
X151604873Y-71078913D01*
X151613317Y-71074423D01*
X151784994Y-70981598D01*
X151836468Y-70946878D01*
X151888418Y-70912883D01*
X151895829Y-70906839D01*
X152046207Y-70782435D01*
X152089973Y-70738362D01*
X152134311Y-70694943D01*
X152140408Y-70687574D01*
X152263758Y-70536332D01*
X152298126Y-70484603D01*
X152333191Y-70433392D01*
X152337739Y-70424981D01*
X152337740Y-70424980D01*
X152337742Y-70424976D01*
X152429366Y-70252657D01*
X152453022Y-70195261D01*
X152477482Y-70138193D01*
X152480310Y-70129056D01*
X152536719Y-69942220D01*
X152548780Y-69881310D01*
X152561686Y-69820591D01*
X152562686Y-69811079D01*
X152581731Y-69616845D01*
X152581731Y-69616837D01*
X152585000Y-69583647D01*
X152585000Y-69235000D01*
X173215000Y-69235000D01*
X173215000Y-69583646D01*
X173217887Y-69612954D01*
X173217844Y-69619066D01*
X173218777Y-69628585D01*
X173239178Y-69822682D01*
X173251661Y-69883496D01*
X173263295Y-69944481D01*
X173266059Y-69953637D01*
X173323771Y-70140075D01*
X173347818Y-70197279D01*
X173371087Y-70254873D01*
X173375577Y-70263317D01*
X173468402Y-70434994D01*
X173503122Y-70486468D01*
X173537117Y-70538418D01*
X173543161Y-70545829D01*
X173667565Y-70696207D01*
X173711638Y-70739973D01*
X173755057Y-70784311D01*
X173762426Y-70790408D01*
X173913668Y-70913758D01*
X173965397Y-70948126D01*
X174016608Y-70983191D01*
X174025016Y-70987737D01*
X174025020Y-70987740D01*
X174025024Y-70987742D01*
X174197343Y-71079366D01*
X174254739Y-71103022D01*
X174311807Y-71127482D01*
X174320944Y-71130310D01*
X174507780Y-71186719D01*
X174568690Y-71198780D01*
X174629409Y-71211686D01*
X174638921Y-71212686D01*
X174833155Y-71231731D01*
X174833163Y-71231731D01*
X174866353Y-71235000D01*
X179933647Y-71235000D01*
X179962955Y-71232113D01*
X179969066Y-71232156D01*
X179978585Y-71231223D01*
X180172682Y-71210822D01*
X180233496Y-71198339D01*
X180294481Y-71186705D01*
X180303637Y-71183941D01*
X180490075Y-71126229D01*
X180547279Y-71102182D01*
X180604873Y-71078913D01*
X180613317Y-71074423D01*
X180784994Y-70981598D01*
X180836468Y-70946878D01*
X180888418Y-70912883D01*
X180895829Y-70906839D01*
X181046207Y-70782435D01*
X181089973Y-70738362D01*
X181134311Y-70694943D01*
X181140408Y-70687574D01*
X181263758Y-70536332D01*
X181298126Y-70484603D01*
X181333191Y-70433392D01*
X181337739Y-70424981D01*
X181337740Y-70424980D01*
X181337742Y-70424976D01*
X181429366Y-70252657D01*
X181453022Y-70195261D01*
X181477482Y-70138193D01*
X181480310Y-70129056D01*
X181536719Y-69942220D01*
X181548780Y-69881310D01*
X181561686Y-69820591D01*
X181562686Y-69811079D01*
X181581731Y-69616845D01*
X181581731Y-69616837D01*
X181585000Y-69583647D01*
X181585000Y-69235000D01*
X185200259Y-69235000D01*
X184554121Y-69666735D01*
X183866735Y-70354121D01*
X183326660Y-71162401D01*
X182954650Y-72060514D01*
X182765000Y-73013945D01*
X182765000Y-73986055D01*
X182954650Y-74939486D01*
X183326660Y-75837599D01*
X183866735Y-76645879D01*
X184554121Y-77333265D01*
X185362401Y-77873340D01*
X186260514Y-78245350D01*
X187213945Y-78435000D01*
X188186055Y-78435000D01*
X189139486Y-78245350D01*
X190037599Y-77873340D01*
X190845879Y-77333265D01*
X191533265Y-76645879D01*
X191715000Y-76373893D01*
X191715000Y-79883646D01*
X191717053Y-79904491D01*
X191772182Y-80805838D01*
X191773736Y-80817408D01*
X191774001Y-80829079D01*
X191783834Y-80896484D01*
X191993749Y-81961512D01*
X191997855Y-81976521D01*
X192000450Y-81991863D01*
X192019910Y-82057143D01*
X192381371Y-83080712D01*
X192387601Y-83094971D01*
X192392383Y-83109777D01*
X192421063Y-83171563D01*
X192926495Y-84132234D01*
X192934718Y-84145445D01*
X192941588Y-84159406D01*
X192978887Y-84216405D01*
X193617705Y-85094050D01*
X193627749Y-85105936D01*
X193636562Y-85118758D01*
X193681698Y-85169775D01*
X194440519Y-85946010D01*
X194452169Y-85956317D01*
X194462744Y-85967737D01*
X194514773Y-86011705D01*
X195377698Y-86670269D01*
X195390720Y-86678790D01*
X195402828Y-86688560D01*
X195460658Y-86724556D01*
X196409613Y-87251654D01*
X196423724Y-87258204D01*
X196437121Y-87266127D01*
X196499542Y-87293398D01*
X197514648Y-87677987D01*
X197529565Y-87682434D01*
X197543956Y-87688336D01*
X197609660Y-87706311D01*
X198669650Y-87940335D01*
X198685051Y-87942582D01*
X198700145Y-87946345D01*
X198767756Y-87954647D01*
X199841777Y-88032576D01*
X200251897Y-88072789D01*
X200590393Y-88174987D01*
X200902588Y-88340984D01*
X201176597Y-88564460D01*
X201401980Y-88836902D01*
X201570153Y-89147931D01*
X201674712Y-89485708D01*
X201715001Y-89869031D01*
X201715000Y-93065000D01*
X201366353Y-93065000D01*
X201337045Y-93067887D01*
X201330933Y-93067844D01*
X201321415Y-93068777D01*
X201127318Y-93089178D01*
X201066504Y-93101661D01*
X201005519Y-93113295D01*
X200996363Y-93116059D01*
X200809925Y-93173771D01*
X200752692Y-93197830D01*
X200695127Y-93221087D01*
X200686682Y-93225577D01*
X200515006Y-93318402D01*
X200463532Y-93353122D01*
X200411582Y-93387117D01*
X200404170Y-93393162D01*
X200253793Y-93517565D01*
X200210027Y-93561638D01*
X200165689Y-93605057D01*
X200159592Y-93612426D01*
X200036242Y-93763668D01*
X200001881Y-93815386D01*
X199966809Y-93866607D01*
X199962260Y-93875020D01*
X199870635Y-94047343D01*
X199846978Y-94104739D01*
X199822519Y-94161807D01*
X199819690Y-94170943D01*
X199763281Y-94357780D01*
X199751219Y-94418698D01*
X199738314Y-94479410D01*
X199737314Y-94488922D01*
X199718269Y-94683155D01*
X199718269Y-94683164D01*
X199715000Y-94716354D01*
X199715001Y-100283647D01*
X199717887Y-100312945D01*
X199717844Y-100319066D01*
X199718777Y-100328585D01*
X199739178Y-100522682D01*
X199751661Y-100583496D01*
X199763295Y-100644481D01*
X199766059Y-100653637D01*
X199823771Y-100840075D01*
X199847818Y-100897279D01*
X199871087Y-100954873D01*
X199875577Y-100963317D01*
X199968402Y-101134994D01*
X200003122Y-101186468D01*
X200037117Y-101238418D01*
X200043161Y-101245829D01*
X200167565Y-101396207D01*
X200211638Y-101439973D01*
X200255057Y-101484311D01*
X200262426Y-101490408D01*
X200413668Y-101613758D01*
X200465397Y-101648126D01*
X200516608Y-101683191D01*
X200525016Y-101687737D01*
X200525020Y-101687740D01*
X200525024Y-101687742D01*
X200697343Y-101779366D01*
X200754739Y-101803022D01*
X200811807Y-101827482D01*
X200820944Y-101830310D01*
X201007780Y-101886719D01*
X201068690Y-101898780D01*
X201129409Y-101911686D01*
X201138921Y-101912686D01*
X201333155Y-101931731D01*
X201333163Y-101931731D01*
X201366353Y-101935000D01*
X201715001Y-101935000D01*
X201715000Y-114016495D01*
X201677211Y-114401897D01*
X201575013Y-114740392D01*
X201409016Y-115052588D01*
X201185539Y-115326599D01*
X200913098Y-115551980D01*
X200602069Y-115720153D01*
X200264296Y-115824711D01*
X199870106Y-115866143D01*
X199858182Y-115866278D01*
X198944162Y-115922182D01*
X198932592Y-115923736D01*
X198920921Y-115924001D01*
X198853516Y-115933834D01*
X197788488Y-116143749D01*
X197773479Y-116147855D01*
X197758137Y-116150450D01*
X197692857Y-116169910D01*
X196669287Y-116531371D01*
X196655026Y-116537602D01*
X196640223Y-116542383D01*
X196578437Y-116571063D01*
X195617767Y-117076495D01*
X195604559Y-117084716D01*
X195590594Y-117091588D01*
X195533595Y-117128887D01*
X194655950Y-117767705D01*
X194644061Y-117777753D01*
X194631243Y-117786562D01*
X194580225Y-117831698D01*
X193803990Y-118590518D01*
X193793678Y-118602173D01*
X193782262Y-118612745D01*
X193738295Y-118664773D01*
X193079731Y-119527699D01*
X193071213Y-119540716D01*
X193061440Y-119552828D01*
X193025444Y-119610659D01*
X192498346Y-120559613D01*
X192491793Y-120573730D01*
X192483874Y-120587121D01*
X192456602Y-120649542D01*
X192316291Y-121019888D01*
X192145350Y-120160514D01*
X191773340Y-119262401D01*
X191233265Y-118454121D01*
X190545879Y-117766735D01*
X189737599Y-117226660D01*
X188839486Y-116854650D01*
X187886055Y-116665000D01*
X186913945Y-116665000D01*
X185960514Y-116854650D01*
X185062401Y-117226660D01*
X184254121Y-117766735D01*
X183566735Y-118454121D01*
X183026660Y-119262401D01*
X182654650Y-120160514D01*
X182465000Y-121113945D01*
X182465000Y-122086055D01*
X182654650Y-123039486D01*
X183026660Y-123937599D01*
X183566735Y-124745879D01*
X184254121Y-125433265D01*
X184900259Y-125865000D01*
X181585000Y-125865000D01*
X181585000Y-125516353D01*
X181582113Y-125487045D01*
X181582156Y-125480933D01*
X181581223Y-125471415D01*
X181560822Y-125277318D01*
X181548339Y-125216504D01*
X181536705Y-125155519D01*
X181533941Y-125146363D01*
X181476229Y-124959925D01*
X181452170Y-124902692D01*
X181428913Y-124845127D01*
X181424423Y-124836682D01*
X181331598Y-124665006D01*
X181296878Y-124613532D01*
X181262883Y-124561582D01*
X181256838Y-124554170D01*
X181132435Y-124403793D01*
X181088362Y-124360027D01*
X181044943Y-124315689D01*
X181037574Y-124309592D01*
X180886332Y-124186242D01*
X180834614Y-124151881D01*
X180783393Y-124116809D01*
X180774980Y-124112260D01*
X180602657Y-124020635D01*
X180545261Y-123996978D01*
X180488193Y-123972519D01*
X180479057Y-123969690D01*
X180292220Y-123913281D01*
X180231302Y-123901219D01*
X180170590Y-123888314D01*
X180161078Y-123887314D01*
X179966845Y-123868269D01*
X179966837Y-123868269D01*
X179933647Y-123865000D01*
X174866353Y-123865000D01*
X174837045Y-123867887D01*
X174830933Y-123867844D01*
X174821415Y-123868777D01*
X174627318Y-123889178D01*
X174566504Y-123901661D01*
X174505519Y-123913295D01*
X174496363Y-123916059D01*
X174309925Y-123973771D01*
X174252692Y-123997830D01*
X174195127Y-124021087D01*
X174186682Y-124025577D01*
X174015006Y-124118402D01*
X173963532Y-124153122D01*
X173911582Y-124187117D01*
X173904170Y-124193162D01*
X173753793Y-124317565D01*
X173710027Y-124361638D01*
X173665689Y-124405057D01*
X173659592Y-124412426D01*
X173536242Y-124563668D01*
X173501881Y-124615386D01*
X173466809Y-124666607D01*
X173462260Y-124675020D01*
X173370635Y-124847343D01*
X173346978Y-124904739D01*
X173322519Y-124961807D01*
X173319690Y-124970943D01*
X173263281Y-125157780D01*
X173251219Y-125218698D01*
X173238314Y-125279410D01*
X173237314Y-125288922D01*
X173218269Y-125483155D01*
X173218269Y-125483164D01*
X173215000Y-125516354D01*
X173215000Y-125865000D01*
X156127000Y-125865000D01*
X156127000Y-104228578D01*
X164107346Y-112208925D01*
X164121414Y-112242889D01*
X164223738Y-112396028D01*
X164353972Y-112526262D01*
X164507111Y-112628586D01*
X164677271Y-112699068D01*
X164857911Y-112735000D01*
X165042089Y-112735000D01*
X165222729Y-112699068D01*
X165392889Y-112628586D01*
X165546028Y-112526262D01*
X165676262Y-112396028D01*
X165778586Y-112242889D01*
X165849068Y-112072729D01*
X165885000Y-111892089D01*
X165885000Y-111707911D01*
X165849068Y-111527271D01*
X165778586Y-111357111D01*
X165676262Y-111203972D01*
X165546028Y-111073738D01*
X165392889Y-110971414D01*
X165358925Y-110957346D01*
X165066110Y-110664531D01*
X184615074Y-110664531D01*
X184725921Y-110941714D01*
X185036840Y-111095089D01*
X185371705Y-111184860D01*
X185717650Y-111207576D01*
X186061380Y-111162366D01*
X186389685Y-111050966D01*
X186594079Y-110941714D01*
X186704926Y-110664531D01*
X189695074Y-110664531D01*
X189805921Y-110941714D01*
X190116840Y-111095089D01*
X190451705Y-111184860D01*
X190797650Y-111207576D01*
X191141380Y-111162366D01*
X191469685Y-111050966D01*
X191674079Y-110941714D01*
X191784926Y-110664531D01*
X190740000Y-109619605D01*
X189695074Y-110664531D01*
X186704926Y-110664531D01*
X185660000Y-109619605D01*
X184615074Y-110664531D01*
X165066110Y-110664531D01*
X163899229Y-109497650D01*
X183892424Y-109497650D01*
X183937634Y-109841380D01*
X184049034Y-110169685D01*
X184158286Y-110374079D01*
X184435469Y-110484926D01*
X185480395Y-109440000D01*
X185839605Y-109440000D01*
X186884531Y-110484926D01*
X187161714Y-110374079D01*
X187315089Y-110063160D01*
X187404860Y-109728295D01*
X187420004Y-109497650D01*
X188972424Y-109497650D01*
X189017634Y-109841380D01*
X189129034Y-110169685D01*
X189238286Y-110374079D01*
X189515469Y-110484926D01*
X190560395Y-109440000D01*
X190919605Y-109440000D01*
X191964531Y-110484926D01*
X192241714Y-110374079D01*
X192395089Y-110063160D01*
X192484860Y-109728295D01*
X192507576Y-109382350D01*
X192462366Y-109038620D01*
X192350966Y-108710315D01*
X192241714Y-108505921D01*
X191964531Y-108395074D01*
X190919605Y-109440000D01*
X190560395Y-109440000D01*
X189515469Y-108395074D01*
X189238286Y-108505921D01*
X189084911Y-108816840D01*
X188995140Y-109151705D01*
X188972424Y-109497650D01*
X187420004Y-109497650D01*
X187427576Y-109382350D01*
X187382366Y-109038620D01*
X187270966Y-108710315D01*
X187161714Y-108505921D01*
X186884531Y-108395074D01*
X185839605Y-109440000D01*
X185480395Y-109440000D01*
X184435469Y-108395074D01*
X184158286Y-108505921D01*
X184004911Y-108816840D01*
X183915140Y-109151705D01*
X183892424Y-109497650D01*
X163899229Y-109497650D01*
X162617048Y-108215469D01*
X184615074Y-108215469D01*
X185660000Y-109260395D01*
X186704926Y-108215469D01*
X186594079Y-107938286D01*
X186283160Y-107784911D01*
X185948295Y-107695140D01*
X185602350Y-107672424D01*
X185258620Y-107717634D01*
X184930315Y-107829034D01*
X184725921Y-107938286D01*
X184615074Y-108215469D01*
X162617048Y-108215469D01*
X161138083Y-106736504D01*
X186540000Y-106736504D01*
X186540000Y-107063496D01*
X186603793Y-107384204D01*
X186728927Y-107686305D01*
X186910594Y-107958188D01*
X187141812Y-108189406D01*
X187413695Y-108371073D01*
X187715796Y-108496207D01*
X188036504Y-108560000D01*
X188363496Y-108560000D01*
X188684204Y-108496207D01*
X188986305Y-108371073D01*
X189219182Y-108215469D01*
X189695074Y-108215469D01*
X190740000Y-109260395D01*
X191784926Y-108215469D01*
X191674079Y-107938286D01*
X191363160Y-107784911D01*
X191028295Y-107695140D01*
X190682350Y-107672424D01*
X190338620Y-107717634D01*
X190010315Y-107829034D01*
X189805921Y-107938286D01*
X189695074Y-108215469D01*
X189219182Y-108215469D01*
X189258188Y-108189406D01*
X189489406Y-107958188D01*
X189671073Y-107686305D01*
X189796207Y-107384204D01*
X189860000Y-107063496D01*
X189860000Y-106736504D01*
X189796207Y-106415796D01*
X189671073Y-106113695D01*
X189489406Y-105841812D01*
X189258188Y-105610594D01*
X189219183Y-105584531D01*
X189695074Y-105584531D01*
X189805921Y-105861714D01*
X190116840Y-106015089D01*
X190451705Y-106104860D01*
X190797650Y-106127576D01*
X191141380Y-106082366D01*
X191469685Y-105970966D01*
X191674079Y-105861714D01*
X191784926Y-105584531D01*
X190740000Y-104539605D01*
X189695074Y-105584531D01*
X189219183Y-105584531D01*
X188986305Y-105428927D01*
X188684204Y-105303793D01*
X188363496Y-105240000D01*
X188036504Y-105240000D01*
X187715796Y-105303793D01*
X187413695Y-105428927D01*
X187141812Y-105610594D01*
X186910594Y-105841812D01*
X186728927Y-106113695D01*
X186603793Y-106415796D01*
X186540000Y-106736504D01*
X161138083Y-106736504D01*
X159986110Y-105584531D01*
X184615074Y-105584531D01*
X184725921Y-105861714D01*
X185036840Y-106015089D01*
X185371705Y-106104860D01*
X185717650Y-106127576D01*
X186061380Y-106082366D01*
X186389685Y-105970966D01*
X186594079Y-105861714D01*
X186704926Y-105584531D01*
X185660000Y-104539605D01*
X184615074Y-105584531D01*
X159986110Y-105584531D01*
X158819229Y-104417650D01*
X183892424Y-104417650D01*
X183937634Y-104761380D01*
X184049034Y-105089685D01*
X184158286Y-105294079D01*
X184435469Y-105404926D01*
X185480395Y-104360000D01*
X185839605Y-104360000D01*
X186884531Y-105404926D01*
X187161714Y-105294079D01*
X187315089Y-104983160D01*
X187404860Y-104648295D01*
X187420004Y-104417650D01*
X188972424Y-104417650D01*
X189017634Y-104761380D01*
X189129034Y-105089685D01*
X189238286Y-105294079D01*
X189515469Y-105404926D01*
X190560395Y-104360000D01*
X190919605Y-104360000D01*
X191964531Y-105404926D01*
X192241714Y-105294079D01*
X192395089Y-104983160D01*
X192484860Y-104648295D01*
X192507576Y-104302350D01*
X192462366Y-103958620D01*
X192350966Y-103630315D01*
X192241714Y-103425921D01*
X191964531Y-103315074D01*
X190919605Y-104360000D01*
X190560395Y-104360000D01*
X189515469Y-103315074D01*
X189238286Y-103425921D01*
X189084911Y-103736840D01*
X188995140Y-104071705D01*
X188972424Y-104417650D01*
X187420004Y-104417650D01*
X187427576Y-104302350D01*
X187382366Y-103958620D01*
X187270966Y-103630315D01*
X187161714Y-103425921D01*
X186884531Y-103315074D01*
X185839605Y-104360000D01*
X185480395Y-104360000D01*
X184435469Y-103315074D01*
X184158286Y-103425921D01*
X184004911Y-103736840D01*
X183915140Y-104071705D01*
X183892424Y-104417650D01*
X158819229Y-104417650D01*
X157537048Y-103135469D01*
X184615074Y-103135469D01*
X185660000Y-104180395D01*
X186704926Y-103135469D01*
X189695074Y-103135469D01*
X190740000Y-104180395D01*
X191784926Y-103135469D01*
X191674079Y-102858286D01*
X191363160Y-102704911D01*
X191028295Y-102615140D01*
X190682350Y-102592424D01*
X190338620Y-102637634D01*
X190010315Y-102749034D01*
X189805921Y-102858286D01*
X189695074Y-103135469D01*
X186704926Y-103135469D01*
X186594079Y-102858286D01*
X186283160Y-102704911D01*
X185948295Y-102615140D01*
X185602350Y-102592424D01*
X185258620Y-102637634D01*
X184930315Y-102749034D01*
X184725921Y-102858286D01*
X184615074Y-103135469D01*
X157537048Y-103135469D01*
X157085001Y-102683423D01*
X157085001Y-99957911D01*
X158915000Y-99957911D01*
X158915000Y-100142089D01*
X158950932Y-100322729D01*
X159021414Y-100492889D01*
X159123738Y-100646028D01*
X159253972Y-100776262D01*
X159407111Y-100878586D01*
X159577271Y-100949068D01*
X159757911Y-100985000D01*
X159942089Y-100985000D01*
X160122729Y-100949068D01*
X160292889Y-100878586D01*
X160446028Y-100776262D01*
X160576262Y-100646028D01*
X160678586Y-100492889D01*
X160749068Y-100322729D01*
X160785000Y-100142089D01*
X160785000Y-99957911D01*
X160749068Y-99777271D01*
X160678586Y-99607111D01*
X160610000Y-99504465D01*
X160610000Y-95564531D01*
X184615074Y-95564531D01*
X184725921Y-95841714D01*
X185036840Y-95995089D01*
X185371705Y-96084860D01*
X185717650Y-96107576D01*
X186061380Y-96062366D01*
X186389685Y-95950966D01*
X186594079Y-95841714D01*
X186704926Y-95564531D01*
X189695074Y-95564531D01*
X189805921Y-95841714D01*
X190116840Y-95995089D01*
X190451705Y-96084860D01*
X190797650Y-96107576D01*
X191141380Y-96062366D01*
X191469685Y-95950966D01*
X191674079Y-95841714D01*
X191784926Y-95564531D01*
X190740000Y-94519605D01*
X189695074Y-95564531D01*
X186704926Y-95564531D01*
X185660000Y-94519605D01*
X184615074Y-95564531D01*
X160610000Y-95564531D01*
X160610000Y-95112288D01*
X160626262Y-95096026D01*
X160728586Y-94942887D01*
X160799068Y-94772727D01*
X160835000Y-94592087D01*
X160835000Y-94407909D01*
X160832960Y-94397650D01*
X183892424Y-94397650D01*
X183937634Y-94741380D01*
X184049034Y-95069685D01*
X184158286Y-95274079D01*
X184435469Y-95384926D01*
X185480395Y-94340000D01*
X185839605Y-94340000D01*
X186884531Y-95384926D01*
X187161714Y-95274079D01*
X187315089Y-94963160D01*
X187404860Y-94628295D01*
X187420004Y-94397650D01*
X188972424Y-94397650D01*
X189017634Y-94741380D01*
X189129034Y-95069685D01*
X189238286Y-95274079D01*
X189515469Y-95384926D01*
X190560395Y-94340000D01*
X190919605Y-94340000D01*
X191964531Y-95384926D01*
X192241714Y-95274079D01*
X192395089Y-94963160D01*
X192484860Y-94628295D01*
X192507576Y-94282350D01*
X192462366Y-93938620D01*
X192350966Y-93610315D01*
X192241714Y-93405921D01*
X191964531Y-93295074D01*
X190919605Y-94340000D01*
X190560395Y-94340000D01*
X189515469Y-93295074D01*
X189238286Y-93405921D01*
X189084911Y-93716840D01*
X188995140Y-94051705D01*
X188972424Y-94397650D01*
X187420004Y-94397650D01*
X187427576Y-94282350D01*
X187382366Y-93938620D01*
X187270966Y-93610315D01*
X187161714Y-93405921D01*
X186884531Y-93295074D01*
X185839605Y-94340000D01*
X185480395Y-94340000D01*
X184435469Y-93295074D01*
X184158286Y-93405921D01*
X184004911Y-93716840D01*
X183915140Y-94051705D01*
X183892424Y-94397650D01*
X160832960Y-94397650D01*
X160799068Y-94227269D01*
X160728586Y-94057109D01*
X160626262Y-93903970D01*
X160496028Y-93773736D01*
X160342889Y-93671412D01*
X160172729Y-93600930D01*
X159992089Y-93564998D01*
X159807911Y-93564998D01*
X159627271Y-93600930D01*
X159457111Y-93671412D01*
X159303972Y-93773736D01*
X159173738Y-93903970D01*
X159071414Y-94057109D01*
X159000932Y-94227269D01*
X158965000Y-94407909D01*
X158965000Y-94592087D01*
X159000932Y-94772727D01*
X159071414Y-94942887D01*
X159090001Y-94970704D01*
X159090000Y-99504464D01*
X159021414Y-99607111D01*
X158950932Y-99777271D01*
X158915000Y-99957911D01*
X157085001Y-99957911D01*
X157085001Y-93115469D01*
X184615074Y-93115469D01*
X185660000Y-94160395D01*
X186704926Y-93115469D01*
X186594079Y-92838286D01*
X186283160Y-92684911D01*
X185948295Y-92595140D01*
X185602350Y-92572424D01*
X185258620Y-92617634D01*
X184930315Y-92729034D01*
X184725921Y-92838286D01*
X184615074Y-93115469D01*
X157085001Y-93115469D01*
X157085001Y-91636504D01*
X186540000Y-91636504D01*
X186540000Y-91963496D01*
X186603793Y-92284204D01*
X186728927Y-92586305D01*
X186910594Y-92858188D01*
X187141812Y-93089406D01*
X187413695Y-93271073D01*
X187715796Y-93396207D01*
X188036504Y-93460000D01*
X188363496Y-93460000D01*
X188684204Y-93396207D01*
X188986305Y-93271073D01*
X189219182Y-93115469D01*
X189695074Y-93115469D01*
X190740000Y-94160395D01*
X191784926Y-93115469D01*
X191674079Y-92838286D01*
X191363160Y-92684911D01*
X191028295Y-92595140D01*
X190682350Y-92572424D01*
X190338620Y-92617634D01*
X190010315Y-92729034D01*
X189805921Y-92838286D01*
X189695074Y-93115469D01*
X189219182Y-93115469D01*
X189258188Y-93089406D01*
X189489406Y-92858188D01*
X189671073Y-92586305D01*
X189796207Y-92284204D01*
X189860000Y-91963496D01*
X189860000Y-91636504D01*
X189796207Y-91315796D01*
X189671073Y-91013695D01*
X189489406Y-90741812D01*
X189258188Y-90510594D01*
X189219183Y-90484531D01*
X189695074Y-90484531D01*
X189805921Y-90761714D01*
X190116840Y-90915089D01*
X190451705Y-91004860D01*
X190797650Y-91027576D01*
X191141380Y-90982366D01*
X191469685Y-90870966D01*
X191674079Y-90761714D01*
X191784926Y-90484531D01*
X190740000Y-89439605D01*
X189695074Y-90484531D01*
X189219183Y-90484531D01*
X188986305Y-90328927D01*
X188684204Y-90203793D01*
X188363496Y-90140000D01*
X188036504Y-90140000D01*
X187715796Y-90203793D01*
X187413695Y-90328927D01*
X187141812Y-90510594D01*
X186910594Y-90741812D01*
X186728927Y-91013695D01*
X186603793Y-91315796D01*
X186540000Y-91636504D01*
X157085001Y-91636504D01*
X157085001Y-90484531D01*
X184615074Y-90484531D01*
X184725921Y-90761714D01*
X185036840Y-90915089D01*
X185371705Y-91004860D01*
X185717650Y-91027576D01*
X186061380Y-90982366D01*
X186389685Y-90870966D01*
X186594079Y-90761714D01*
X186704926Y-90484531D01*
X185660000Y-89439605D01*
X184615074Y-90484531D01*
X157085001Y-90484531D01*
X157085001Y-89317650D01*
X183892424Y-89317650D01*
X183937634Y-89661380D01*
X184049034Y-89989685D01*
X184158286Y-90194079D01*
X184435469Y-90304926D01*
X185480395Y-89260000D01*
X185839605Y-89260000D01*
X186884531Y-90304926D01*
X187161714Y-90194079D01*
X187315089Y-89883160D01*
X187404860Y-89548295D01*
X187420004Y-89317650D01*
X188972424Y-89317650D01*
X189017634Y-89661380D01*
X189129034Y-89989685D01*
X189238286Y-90194079D01*
X189515469Y-90304926D01*
X190560395Y-89260000D01*
X190919605Y-89260000D01*
X191964531Y-90304926D01*
X192241714Y-90194079D01*
X192395089Y-89883160D01*
X192484860Y-89548295D01*
X192507576Y-89202350D01*
X192462366Y-88858620D01*
X192350966Y-88530315D01*
X192241714Y-88325921D01*
X191964531Y-88215074D01*
X190919605Y-89260000D01*
X190560395Y-89260000D01*
X189515469Y-88215074D01*
X189238286Y-88325921D01*
X189084911Y-88636840D01*
X188995140Y-88971705D01*
X188972424Y-89317650D01*
X187420004Y-89317650D01*
X187427576Y-89202350D01*
X187382366Y-88858620D01*
X187270966Y-88530315D01*
X187161714Y-88325921D01*
X186884531Y-88215074D01*
X185839605Y-89260000D01*
X185480395Y-89260000D01*
X184435469Y-88215074D01*
X184158286Y-88325921D01*
X184004911Y-88636840D01*
X183915140Y-88971705D01*
X183892424Y-89317650D01*
X157085001Y-89317650D01*
X157085001Y-88035469D01*
X184615074Y-88035469D01*
X185660000Y-89080395D01*
X186704926Y-88035469D01*
X189695074Y-88035469D01*
X190740000Y-89080395D01*
X191784926Y-88035469D01*
X191674079Y-87758286D01*
X191363160Y-87604911D01*
X191028295Y-87515140D01*
X190682350Y-87492424D01*
X190338620Y-87537634D01*
X190010315Y-87649034D01*
X189805921Y-87758286D01*
X189695074Y-88035469D01*
X186704926Y-88035469D01*
X186594079Y-87758286D01*
X186283160Y-87604911D01*
X185948295Y-87515140D01*
X185602350Y-87492424D01*
X185258620Y-87537634D01*
X184930315Y-87649034D01*
X184725921Y-87758286D01*
X184615074Y-88035469D01*
X157085001Y-88035469D01*
X157085001Y-87733630D01*
X157096028Y-87726262D01*
X157226262Y-87596028D01*
X157328586Y-87442889D01*
X157399068Y-87272729D01*
X157435000Y-87092089D01*
X157435000Y-86907911D01*
X157399068Y-86727271D01*
X157328586Y-86557111D01*
X157226262Y-86403972D01*
X157096028Y-86273738D01*
X156942889Y-86171414D01*
X156772729Y-86100932D01*
X156592089Y-86065000D01*
X156407911Y-86065000D01*
X156227271Y-86100932D01*
X156127000Y-86142465D01*
X156127000Y-77000000D01*
X156124560Y-76975224D01*
X156117333Y-76951399D01*
X156105597Y-76929443D01*
X156089803Y-76910197D01*
X156070557Y-76894403D01*
X156048601Y-76882667D01*
X156024776Y-76875440D01*
X156000000Y-76873000D01*
X155000000Y-76873000D01*
X154975224Y-76875440D01*
X154951399Y-76882667D01*
X154929443Y-76894403D01*
X154910197Y-76910197D01*
X154894403Y-76929443D01*
X154882667Y-76951399D01*
X154875440Y-76975224D01*
X154873000Y-77000000D01*
X154873000Y-125865000D01*
X152885000Y-125865000D01*
X152885000Y-125516353D01*
X152882113Y-125487045D01*
X152882156Y-125480933D01*
X152881223Y-125471415D01*
X152860822Y-125277318D01*
X152848339Y-125216504D01*
X152836705Y-125155519D01*
X152833941Y-125146363D01*
X152776229Y-124959925D01*
X152752170Y-124902692D01*
X152728913Y-124845127D01*
X152724423Y-124836682D01*
X152631598Y-124665006D01*
X152596878Y-124613532D01*
X152562883Y-124561582D01*
X152556838Y-124554170D01*
X152432435Y-124403793D01*
X152388362Y-124360027D01*
X152344943Y-124315689D01*
X152337574Y-124309592D01*
X152186332Y-124186242D01*
X152134614Y-124151881D01*
X152083393Y-124116809D01*
X152074980Y-124112260D01*
X151902657Y-124020635D01*
X151845261Y-123996978D01*
X151788193Y-123972519D01*
X151779057Y-123969690D01*
X151592220Y-123913281D01*
X151531302Y-123901219D01*
X151470590Y-123888314D01*
X151461078Y-123887314D01*
X151266845Y-123868269D01*
X151266837Y-123868269D01*
X151233647Y-123865000D01*
X145666353Y-123865000D01*
X145637045Y-123867887D01*
X145630933Y-123867844D01*
X145621415Y-123868777D01*
X145427318Y-123889178D01*
X145366504Y-123901661D01*
X145305519Y-123913295D01*
X145296363Y-123916059D01*
X145109925Y-123973771D01*
X145052692Y-123997830D01*
X144995127Y-124021087D01*
X144986682Y-124025577D01*
X144815006Y-124118402D01*
X144763532Y-124153122D01*
X144711582Y-124187117D01*
X144704170Y-124193162D01*
X144553793Y-124317565D01*
X144510027Y-124361638D01*
X144465689Y-124405057D01*
X144459592Y-124412426D01*
X144336242Y-124563668D01*
X144301881Y-124615386D01*
X144266809Y-124666607D01*
X144262260Y-124675020D01*
X144170635Y-124847343D01*
X144146978Y-124904739D01*
X144122519Y-124961807D01*
X144119690Y-124970943D01*
X144063281Y-125157780D01*
X144051219Y-125218698D01*
X144038314Y-125279410D01*
X144037314Y-125288922D01*
X144018269Y-125483155D01*
X144018269Y-125483164D01*
X144015000Y-125516354D01*
X144015000Y-125865000D01*
X123935000Y-125865000D01*
X123935000Y-125516353D01*
X123932113Y-125487045D01*
X123932156Y-125480933D01*
X123931223Y-125471415D01*
X123910822Y-125277318D01*
X123898339Y-125216504D01*
X123886705Y-125155519D01*
X123883941Y-125146363D01*
X123826229Y-124959925D01*
X123802170Y-124902692D01*
X123778913Y-124845127D01*
X123774423Y-124836682D01*
X123681598Y-124665006D01*
X123646878Y-124613532D01*
X123612883Y-124561582D01*
X123606838Y-124554170D01*
X123482435Y-124403793D01*
X123438362Y-124360027D01*
X123394943Y-124315689D01*
X123387574Y-124309592D01*
X123236332Y-124186242D01*
X123184614Y-124151881D01*
X123133393Y-124116809D01*
X123124980Y-124112260D01*
X122952657Y-124020635D01*
X122895261Y-123996978D01*
X122838193Y-123972519D01*
X122829057Y-123969690D01*
X122642220Y-123913281D01*
X122581302Y-123901219D01*
X122520590Y-123888314D01*
X122511078Y-123887314D01*
X122316845Y-123868269D01*
X122316837Y-123868269D01*
X122283647Y-123865000D01*
X116716353Y-123865000D01*
X116687045Y-123867887D01*
X116680933Y-123867844D01*
X116671415Y-123868777D01*
X116477318Y-123889178D01*
X116416504Y-123901661D01*
X116355519Y-123913295D01*
X116346363Y-123916059D01*
X116159925Y-123973771D01*
X116102692Y-123997830D01*
X116045127Y-124021087D01*
X116036682Y-124025577D01*
X115865006Y-124118402D01*
X115813532Y-124153122D01*
X115761582Y-124187117D01*
X115754170Y-124193162D01*
X115603793Y-124317565D01*
X115560027Y-124361638D01*
X115515689Y-124405057D01*
X115509592Y-124412426D01*
X115386242Y-124563668D01*
X115351881Y-124615386D01*
X115316809Y-124666607D01*
X115312260Y-124675020D01*
X115220635Y-124847343D01*
X115196978Y-124904739D01*
X115172519Y-124961807D01*
X115169690Y-124970943D01*
X115113281Y-125157780D01*
X115101219Y-125218698D01*
X115088314Y-125279410D01*
X115087314Y-125288922D01*
X115068269Y-125483155D01*
X115068269Y-125483164D01*
X115065000Y-125516354D01*
X115065000Y-125865000D01*
X111750081Y-125865000D01*
X112545879Y-125333265D01*
X113233265Y-124645879D01*
X113773340Y-123837599D01*
X114145350Y-122939486D01*
X114335000Y-121986055D01*
X114335000Y-121013945D01*
X114292209Y-120798816D01*
X140715000Y-120798816D01*
X140715000Y-121101184D01*
X140773989Y-121397743D01*
X140889701Y-121677095D01*
X141057688Y-121928505D01*
X141271495Y-122142312D01*
X141522905Y-122310299D01*
X141802257Y-122426011D01*
X142098816Y-122485000D01*
X142401184Y-122485000D01*
X142697743Y-122426011D01*
X142977095Y-122310299D01*
X143228505Y-122142312D01*
X143442312Y-121928505D01*
X143610299Y-121677095D01*
X143726011Y-121397743D01*
X143785000Y-121101184D01*
X143785000Y-120798816D01*
X143726011Y-120502257D01*
X143610299Y-120222905D01*
X143442312Y-119971495D01*
X143228505Y-119757688D01*
X142977095Y-119589701D01*
X142697743Y-119473989D01*
X142401184Y-119415000D01*
X142098816Y-119415000D01*
X141802257Y-119473989D01*
X141522905Y-119589701D01*
X141271495Y-119757688D01*
X141057688Y-119971495D01*
X140889701Y-120222905D01*
X140773989Y-120502257D01*
X140715000Y-120798816D01*
X114292209Y-120798816D01*
X114145350Y-120060514D01*
X113773340Y-119162401D01*
X113233265Y-118354121D01*
X112545879Y-117666735D01*
X111737599Y-117126660D01*
X110839486Y-116754650D01*
X109886055Y-116565000D01*
X108913945Y-116565000D01*
X107960514Y-116754650D01*
X107062401Y-117126660D01*
X106254121Y-117666735D01*
X105566735Y-118354121D01*
X105085000Y-119075089D01*
X105085000Y-115718816D01*
X138175000Y-115718816D01*
X138175000Y-116021184D01*
X138233989Y-116317743D01*
X138349701Y-116597095D01*
X138517688Y-116848505D01*
X138731495Y-117062312D01*
X138982905Y-117230299D01*
X139262257Y-117346011D01*
X139558816Y-117405000D01*
X139861184Y-117405000D01*
X140157743Y-117346011D01*
X140437095Y-117230299D01*
X140688505Y-117062312D01*
X140902312Y-116848505D01*
X141070299Y-116597095D01*
X141186011Y-116317743D01*
X141245000Y-116021184D01*
X141245000Y-115718816D01*
X141186011Y-115422257D01*
X141070299Y-115142905D01*
X140902312Y-114891495D01*
X140688505Y-114677688D01*
X140437095Y-114509701D01*
X140157743Y-114393989D01*
X139861184Y-114335000D01*
X139558816Y-114335000D01*
X139262257Y-114393989D01*
X138982905Y-114509701D01*
X138731495Y-114677688D01*
X138517688Y-114891495D01*
X138349701Y-115142905D01*
X138233989Y-115422257D01*
X138175000Y-115718816D01*
X105085000Y-115718816D01*
X105085000Y-115116353D01*
X105082723Y-115093233D01*
X105028186Y-114289524D01*
X105026874Y-114280227D01*
X105026661Y-114270840D01*
X105016828Y-114203435D01*
X104806894Y-113138312D01*
X104802788Y-113123303D01*
X104800193Y-113107961D01*
X104780733Y-113042682D01*
X104684585Y-112770411D01*
X129202500Y-112770411D01*
X129202500Y-112954589D01*
X129238432Y-113135229D01*
X129308914Y-113305389D01*
X129411238Y-113458528D01*
X129541472Y-113588762D01*
X129694611Y-113691086D01*
X129864771Y-113761568D01*
X130045411Y-113797500D01*
X130229589Y-113797500D01*
X130410229Y-113761568D01*
X130580389Y-113691086D01*
X130683035Y-113622500D01*
X134275180Y-113622500D01*
X134312502Y-113626176D01*
X134349824Y-113622500D01*
X134349835Y-113622500D01*
X134461488Y-113611503D01*
X134604749Y-113568046D01*
X134736778Y-113497474D01*
X134852503Y-113402501D01*
X134876306Y-113373497D01*
X140150987Y-108098816D01*
X140715000Y-108098816D01*
X140715000Y-108401184D01*
X140773989Y-108697743D01*
X140889701Y-108977095D01*
X141057688Y-109228505D01*
X141271495Y-109442312D01*
X141522905Y-109610299D01*
X141802257Y-109726011D01*
X142098816Y-109785000D01*
X142401184Y-109785000D01*
X142697743Y-109726011D01*
X142977095Y-109610299D01*
X143228505Y-109442312D01*
X143442312Y-109228505D01*
X143610299Y-108977095D01*
X143726011Y-108697743D01*
X143785000Y-108401184D01*
X143785000Y-108098816D01*
X143726011Y-107802257D01*
X143610299Y-107522905D01*
X143442312Y-107271495D01*
X143228505Y-107057688D01*
X142977095Y-106889701D01*
X142697743Y-106773989D01*
X142401184Y-106715000D01*
X142098816Y-106715000D01*
X141802257Y-106773989D01*
X141522905Y-106889701D01*
X141271495Y-107057688D01*
X141057688Y-107271495D01*
X140889701Y-107522905D01*
X140773989Y-107802257D01*
X140715000Y-108098816D01*
X140150987Y-108098816D01*
X146591892Y-101657911D01*
X148315000Y-101657911D01*
X148315000Y-101842089D01*
X148350932Y-102022729D01*
X148421414Y-102192889D01*
X148523738Y-102346028D01*
X148653972Y-102476262D01*
X148807111Y-102578586D01*
X148977271Y-102649068D01*
X149157911Y-102685000D01*
X149342089Y-102685000D01*
X149522729Y-102649068D01*
X149692889Y-102578586D01*
X149846028Y-102476262D01*
X149976262Y-102346028D01*
X150078586Y-102192889D01*
X150149068Y-102022729D01*
X150173153Y-101901648D01*
X152761004Y-99313798D01*
X152790001Y-99290001D01*
X152884974Y-99174276D01*
X152955546Y-99042247D01*
X152999003Y-98898986D01*
X153009052Y-98796954D01*
X153078586Y-98692889D01*
X153149068Y-98522729D01*
X153185000Y-98342089D01*
X153185000Y-98157911D01*
X153149068Y-97977271D01*
X153078586Y-97807111D01*
X152976262Y-97653972D01*
X152846028Y-97523738D01*
X152692889Y-97421414D01*
X152522729Y-97350932D01*
X152342089Y-97315000D01*
X152157911Y-97315000D01*
X151977271Y-97350932D01*
X151807111Y-97421414D01*
X151653972Y-97523738D01*
X151523738Y-97653972D01*
X151421414Y-97807111D01*
X151350932Y-97977271D01*
X151315000Y-98157911D01*
X151315000Y-98342089D01*
X151350932Y-98522729D01*
X151366027Y-98559171D01*
X149098352Y-100826847D01*
X148977271Y-100850932D01*
X148807111Y-100921414D01*
X148653972Y-101023738D01*
X148523738Y-101153972D01*
X148421414Y-101307111D01*
X148350932Y-101477271D01*
X148315000Y-101657911D01*
X146591892Y-101657911D01*
X148623504Y-99626300D01*
X148652501Y-99602503D01*
X148747474Y-99486778D01*
X148818046Y-99354749D01*
X148861503Y-99211488D01*
X148862889Y-99197420D01*
X148941086Y-99080389D01*
X149011568Y-98910229D01*
X149047500Y-98729589D01*
X149047500Y-98545411D01*
X149011568Y-98364771D01*
X148941086Y-98194611D01*
X148838762Y-98041472D01*
X148708528Y-97911238D01*
X148555389Y-97808914D01*
X148385229Y-97738432D01*
X148204589Y-97702500D01*
X148020411Y-97702500D01*
X147839771Y-97738432D01*
X147669611Y-97808914D01*
X147516472Y-97911238D01*
X147386238Y-98041472D01*
X147283914Y-98194611D01*
X147213432Y-98364771D01*
X147177500Y-98545411D01*
X147177500Y-98729589D01*
X147209540Y-98890660D01*
X144647500Y-101452700D01*
X144647500Y-98674822D01*
X144651176Y-98637499D01*
X144647500Y-98600176D01*
X144647500Y-98600167D01*
X144636503Y-98488514D01*
X144593046Y-98345253D01*
X144522474Y-98213224D01*
X144427501Y-98097499D01*
X144398503Y-98073701D01*
X140563804Y-94239003D01*
X140540001Y-94209999D01*
X140424276Y-94115026D01*
X140292247Y-94044454D01*
X140148986Y-94000997D01*
X140037333Y-93990000D01*
X140037322Y-93990000D01*
X140000000Y-93986324D01*
X139962678Y-93990000D01*
X134045535Y-93990000D01*
X133942889Y-93921414D01*
X133772729Y-93850932D01*
X133592089Y-93815000D01*
X133407911Y-93815000D01*
X133227271Y-93850932D01*
X133057111Y-93921414D01*
X132903972Y-94023738D01*
X132773738Y-94153972D01*
X132671414Y-94307111D01*
X132600932Y-94477271D01*
X132565000Y-94657911D01*
X132565000Y-94842089D01*
X132600932Y-95022729D01*
X132671414Y-95192889D01*
X132773738Y-95346028D01*
X132903972Y-95476262D01*
X133057111Y-95578586D01*
X133227271Y-95649068D01*
X133407911Y-95685000D01*
X133592089Y-95685000D01*
X133772729Y-95649068D01*
X133942889Y-95578586D01*
X134045535Y-95510000D01*
X139685199Y-95510000D01*
X142778535Y-98603337D01*
X142772729Y-98600932D01*
X142592089Y-98565000D01*
X142407911Y-98565000D01*
X142227271Y-98600932D01*
X142057111Y-98671414D01*
X141954465Y-98740000D01*
X138564802Y-98740000D01*
X136423153Y-96598352D01*
X136399068Y-96477271D01*
X136328586Y-96307111D01*
X136226262Y-96153972D01*
X136096028Y-96023738D01*
X135942889Y-95921414D01*
X135772729Y-95850932D01*
X135592089Y-95815000D01*
X135407911Y-95815000D01*
X135227271Y-95850932D01*
X135057111Y-95921414D01*
X134903972Y-96023738D01*
X134773738Y-96153972D01*
X134671414Y-96307111D01*
X134600932Y-96477271D01*
X134565000Y-96657911D01*
X134565000Y-96842089D01*
X134600932Y-97022729D01*
X134671414Y-97192889D01*
X134773738Y-97346028D01*
X134903972Y-97476262D01*
X135057111Y-97578586D01*
X135227271Y-97649068D01*
X135348352Y-97673153D01*
X137686201Y-100011003D01*
X137709999Y-100040001D01*
X137825724Y-100134974D01*
X137957753Y-100205546D01*
X138101014Y-100249003D01*
X138212667Y-100260000D01*
X138212676Y-100260000D01*
X138249999Y-100263676D01*
X138287322Y-100260000D01*
X141954465Y-100260000D01*
X142057111Y-100328586D01*
X142227271Y-100399068D01*
X142407911Y-100435000D01*
X142592089Y-100435000D01*
X142772729Y-100399068D01*
X142942889Y-100328586D01*
X143096028Y-100226262D01*
X143127501Y-100194789D01*
X143127500Y-101816964D01*
X143058914Y-101919611D01*
X142988432Y-102089771D01*
X142952500Y-102270411D01*
X142952500Y-102454589D01*
X142988432Y-102635229D01*
X143058914Y-102805389D01*
X143153401Y-102946799D01*
X133997701Y-112102500D01*
X130683035Y-112102500D01*
X130580389Y-112033914D01*
X130410229Y-111963432D01*
X130229589Y-111927500D01*
X130045411Y-111927500D01*
X129864771Y-111963432D01*
X129694611Y-112033914D01*
X129541472Y-112136238D01*
X129411238Y-112266472D01*
X129308914Y-112419611D01*
X129238432Y-112589771D01*
X129202500Y-112770411D01*
X104684585Y-112770411D01*
X104419241Y-112019021D01*
X104413012Y-112004764D01*
X104408229Y-111989955D01*
X104379548Y-111928169D01*
X103874070Y-110967414D01*
X103865849Y-110954206D01*
X103858978Y-110940243D01*
X103821679Y-110883244D01*
X103662483Y-110664531D01*
X108215074Y-110664531D01*
X108325921Y-110941714D01*
X108636840Y-111095089D01*
X108971705Y-111184860D01*
X109317650Y-111207576D01*
X109661380Y-111162366D01*
X109989685Y-111050966D01*
X110194079Y-110941714D01*
X110304926Y-110664531D01*
X113295074Y-110664531D01*
X113405921Y-110941714D01*
X113716840Y-111095089D01*
X114051705Y-111184860D01*
X114397650Y-111207576D01*
X114741380Y-111162366D01*
X115069685Y-111050966D01*
X115274079Y-110941714D01*
X115384926Y-110664531D01*
X114340000Y-109619605D01*
X113295074Y-110664531D01*
X110304926Y-110664531D01*
X109260000Y-109619605D01*
X108215074Y-110664531D01*
X103662483Y-110664531D01*
X103182805Y-110005521D01*
X103172760Y-109993634D01*
X103163948Y-109980813D01*
X103118812Y-109929795D01*
X102696362Y-109497650D01*
X107492424Y-109497650D01*
X107537634Y-109841380D01*
X107649034Y-110169685D01*
X107758286Y-110374079D01*
X108035469Y-110484926D01*
X109080395Y-109440000D01*
X109439605Y-109440000D01*
X110484531Y-110484926D01*
X110761714Y-110374079D01*
X110915089Y-110063160D01*
X111004860Y-109728295D01*
X111020004Y-109497650D01*
X112572424Y-109497650D01*
X112617634Y-109841380D01*
X112729034Y-110169685D01*
X112838286Y-110374079D01*
X113115469Y-110484926D01*
X114160395Y-109440000D01*
X114519605Y-109440000D01*
X115564531Y-110484926D01*
X115841714Y-110374079D01*
X115995089Y-110063160D01*
X116084860Y-109728295D01*
X116107576Y-109382350D01*
X116062366Y-109038620D01*
X115950966Y-108710315D01*
X115841714Y-108505921D01*
X115564531Y-108395074D01*
X114519605Y-109440000D01*
X114160395Y-109440000D01*
X113115469Y-108395074D01*
X112838286Y-108505921D01*
X112684911Y-108816840D01*
X112595140Y-109151705D01*
X112572424Y-109497650D01*
X111020004Y-109497650D01*
X111027576Y-109382350D01*
X110982366Y-109038620D01*
X110870966Y-108710315D01*
X110761714Y-108505921D01*
X110484531Y-108395074D01*
X109439605Y-109440000D01*
X109080395Y-109440000D01*
X108035469Y-108395074D01*
X107758286Y-108505921D01*
X107604911Y-108816840D01*
X107515140Y-109151705D01*
X107492424Y-109497650D01*
X102696362Y-109497650D01*
X102359924Y-109153491D01*
X102348273Y-109143183D01*
X102337698Y-109131763D01*
X102285669Y-109087796D01*
X101422666Y-108429173D01*
X101409643Y-108420651D01*
X101397536Y-108410882D01*
X101339706Y-108374885D01*
X101052703Y-108215469D01*
X108215074Y-108215469D01*
X109260000Y-109260395D01*
X110304926Y-108215469D01*
X110194079Y-107938286D01*
X109883160Y-107784911D01*
X109548295Y-107695140D01*
X109202350Y-107672424D01*
X108858620Y-107717634D01*
X108530315Y-107829034D01*
X108325921Y-107938286D01*
X108215074Y-108215469D01*
X101052703Y-108215469D01*
X100390666Y-107847741D01*
X100376553Y-107841190D01*
X100363159Y-107833269D01*
X100300738Y-107805997D01*
X99285543Y-107421374D01*
X99270630Y-107416928D01*
X99256234Y-107411024D01*
X99190542Y-107393052D01*
X99190531Y-107393049D01*
X99190528Y-107393049D01*
X98130445Y-107159005D01*
X98115047Y-107156759D01*
X98099951Y-107152995D01*
X98032341Y-107144693D01*
X96949572Y-107066129D01*
X96945019Y-107066129D01*
X96548103Y-107027211D01*
X96209608Y-106925013D01*
X95897412Y-106759016D01*
X95869810Y-106736504D01*
X110140000Y-106736504D01*
X110140000Y-107063496D01*
X110203793Y-107384204D01*
X110328927Y-107686305D01*
X110510594Y-107958188D01*
X110741812Y-108189406D01*
X111013695Y-108371073D01*
X111315796Y-108496207D01*
X111636504Y-108560000D01*
X111963496Y-108560000D01*
X112284204Y-108496207D01*
X112586305Y-108371073D01*
X112819182Y-108215469D01*
X113295074Y-108215469D01*
X114340000Y-109260395D01*
X115384926Y-108215469D01*
X115274079Y-107938286D01*
X114963160Y-107784911D01*
X114628295Y-107695140D01*
X114282350Y-107672424D01*
X113938620Y-107717634D01*
X113610315Y-107829034D01*
X113405921Y-107938286D01*
X113295074Y-108215469D01*
X112819182Y-108215469D01*
X112858188Y-108189406D01*
X113089406Y-107958188D01*
X113271073Y-107686305D01*
X113396207Y-107384204D01*
X113460000Y-107063496D01*
X113460000Y-106736504D01*
X113396207Y-106415796D01*
X113271073Y-106113695D01*
X113089406Y-105841812D01*
X112858188Y-105610594D01*
X112819183Y-105584531D01*
X113295074Y-105584531D01*
X113405921Y-105861714D01*
X113716840Y-106015089D01*
X114051705Y-106104860D01*
X114397650Y-106127576D01*
X114741380Y-106082366D01*
X115069685Y-105970966D01*
X115274079Y-105861714D01*
X115384926Y-105584531D01*
X114340000Y-104539605D01*
X113295074Y-105584531D01*
X112819183Y-105584531D01*
X112586305Y-105428927D01*
X112284204Y-105303793D01*
X111963496Y-105240000D01*
X111636504Y-105240000D01*
X111315796Y-105303793D01*
X111013695Y-105428927D01*
X110741812Y-105610594D01*
X110510594Y-105841812D01*
X110328927Y-106113695D01*
X110203793Y-106415796D01*
X110140000Y-106736504D01*
X95869810Y-106736504D01*
X95623401Y-106535539D01*
X95398020Y-106263098D01*
X95229847Y-105952069D01*
X95125289Y-105614296D01*
X95122161Y-105584531D01*
X108215074Y-105584531D01*
X108325921Y-105861714D01*
X108636840Y-106015089D01*
X108971705Y-106104860D01*
X109317650Y-106127576D01*
X109661380Y-106082366D01*
X109989685Y-105970966D01*
X110194079Y-105861714D01*
X110304926Y-105584531D01*
X109260000Y-104539605D01*
X108215074Y-105584531D01*
X95122161Y-105584531D01*
X95085000Y-105230977D01*
X95085000Y-104417650D01*
X107492424Y-104417650D01*
X107537634Y-104761380D01*
X107649034Y-105089685D01*
X107758286Y-105294079D01*
X108035469Y-105404926D01*
X109080395Y-104360000D01*
X109439605Y-104360000D01*
X110484531Y-105404926D01*
X110761714Y-105294079D01*
X110915089Y-104983160D01*
X111004860Y-104648295D01*
X111020004Y-104417650D01*
X112572424Y-104417650D01*
X112617634Y-104761380D01*
X112729034Y-105089685D01*
X112838286Y-105294079D01*
X113115469Y-105404926D01*
X114160395Y-104360000D01*
X114519605Y-104360000D01*
X115564531Y-105404926D01*
X115841714Y-105294079D01*
X115995089Y-104983160D01*
X116084860Y-104648295D01*
X116107576Y-104302350D01*
X116062366Y-103958620D01*
X115950966Y-103630315D01*
X115841714Y-103425921D01*
X115564531Y-103315074D01*
X114519605Y-104360000D01*
X114160395Y-104360000D01*
X113115469Y-103315074D01*
X112838286Y-103425921D01*
X112684911Y-103736840D01*
X112595140Y-104071705D01*
X112572424Y-104417650D01*
X111020004Y-104417650D01*
X111027576Y-104302350D01*
X110982366Y-103958620D01*
X110870966Y-103630315D01*
X110761714Y-103425921D01*
X110484531Y-103315074D01*
X109439605Y-104360000D01*
X109080395Y-104360000D01*
X108035469Y-103315074D01*
X107758286Y-103425921D01*
X107604911Y-103736840D01*
X107515140Y-104071705D01*
X107492424Y-104417650D01*
X95085000Y-104417650D01*
X95085000Y-103135469D01*
X108215074Y-103135469D01*
X109260000Y-104180395D01*
X110304926Y-103135469D01*
X113295074Y-103135469D01*
X114340000Y-104180395D01*
X115384926Y-103135469D01*
X115274079Y-102858286D01*
X114963160Y-102704911D01*
X114628295Y-102615140D01*
X114282350Y-102592424D01*
X113938620Y-102637634D01*
X113610315Y-102749034D01*
X113405921Y-102858286D01*
X113295074Y-103135469D01*
X110304926Y-103135469D01*
X110194079Y-102858286D01*
X109883160Y-102704911D01*
X109548295Y-102615140D01*
X109202350Y-102592424D01*
X108858620Y-102637634D01*
X108530315Y-102749034D01*
X108325921Y-102858286D01*
X108215074Y-103135469D01*
X95085000Y-103135469D01*
X95085000Y-101985000D01*
X95433647Y-101985000D01*
X95462955Y-101982113D01*
X95469066Y-101982156D01*
X95478585Y-101981223D01*
X95672682Y-101960822D01*
X95733496Y-101948339D01*
X95794481Y-101936705D01*
X95803637Y-101933941D01*
X95990075Y-101876229D01*
X96047279Y-101852182D01*
X96104873Y-101828913D01*
X96113317Y-101824423D01*
X96284994Y-101731598D01*
X96336468Y-101696878D01*
X96388418Y-101662883D01*
X96395829Y-101656839D01*
X96546207Y-101532435D01*
X96589973Y-101488362D01*
X96634311Y-101444943D01*
X96640408Y-101437574D01*
X96763758Y-101286332D01*
X96798126Y-101234603D01*
X96833191Y-101183392D01*
X96837739Y-101174981D01*
X96837740Y-101174980D01*
X96837742Y-101174976D01*
X96929366Y-101002657D01*
X96953022Y-100945261D01*
X96977482Y-100888193D01*
X96980310Y-100879056D01*
X97036719Y-100692220D01*
X97048780Y-100631310D01*
X97061686Y-100570591D01*
X97062686Y-100561079D01*
X97081731Y-100366845D01*
X97081731Y-100366837D01*
X97085000Y-100333647D01*
X97085000Y-95564531D01*
X108165074Y-95564531D01*
X108275921Y-95841714D01*
X108586840Y-95995089D01*
X108921705Y-96084860D01*
X109267650Y-96107576D01*
X109611380Y-96062366D01*
X109939685Y-95950966D01*
X110144079Y-95841714D01*
X110254926Y-95564531D01*
X113245074Y-95564531D01*
X113355921Y-95841714D01*
X113666840Y-95995089D01*
X114001705Y-96084860D01*
X114347650Y-96107576D01*
X114691380Y-96062366D01*
X115019685Y-95950966D01*
X115224079Y-95841714D01*
X115334926Y-95564531D01*
X114290000Y-94519605D01*
X113245074Y-95564531D01*
X110254926Y-95564531D01*
X109210000Y-94519605D01*
X108165074Y-95564531D01*
X97085000Y-95564531D01*
X97085000Y-94766353D01*
X97082113Y-94737045D01*
X97082156Y-94730933D01*
X97081223Y-94721415D01*
X97060822Y-94527318D01*
X97048339Y-94466504D01*
X97036705Y-94405519D01*
X97034330Y-94397650D01*
X107442424Y-94397650D01*
X107487634Y-94741380D01*
X107599034Y-95069685D01*
X107708286Y-95274079D01*
X107985469Y-95384926D01*
X109030395Y-94340000D01*
X109389605Y-94340000D01*
X110434531Y-95384926D01*
X110711714Y-95274079D01*
X110865089Y-94963160D01*
X110954860Y-94628295D01*
X110970004Y-94397650D01*
X112522424Y-94397650D01*
X112567634Y-94741380D01*
X112679034Y-95069685D01*
X112788286Y-95274079D01*
X113065469Y-95384926D01*
X114110395Y-94340000D01*
X114469605Y-94340000D01*
X115514531Y-95384926D01*
X115791714Y-95274079D01*
X115945089Y-94963160D01*
X116034860Y-94628295D01*
X116057576Y-94282350D01*
X116012366Y-93938620D01*
X115900966Y-93610315D01*
X115791714Y-93405921D01*
X115514531Y-93295074D01*
X114469605Y-94340000D01*
X114110395Y-94340000D01*
X113065469Y-93295074D01*
X112788286Y-93405921D01*
X112634911Y-93716840D01*
X112545140Y-94051705D01*
X112522424Y-94397650D01*
X110970004Y-94397650D01*
X110977576Y-94282350D01*
X110932366Y-93938620D01*
X110820966Y-93610315D01*
X110711714Y-93405921D01*
X110434531Y-93295074D01*
X109389605Y-94340000D01*
X109030395Y-94340000D01*
X107985469Y-93295074D01*
X107708286Y-93405921D01*
X107554911Y-93716840D01*
X107465140Y-94051705D01*
X107442424Y-94397650D01*
X97034330Y-94397650D01*
X97033941Y-94396363D01*
X96976229Y-94209925D01*
X96952170Y-94152692D01*
X96928913Y-94095127D01*
X96924423Y-94086682D01*
X96831598Y-93915006D01*
X96796878Y-93863532D01*
X96762883Y-93811582D01*
X96756838Y-93804170D01*
X96632435Y-93653793D01*
X96588362Y-93610027D01*
X96544943Y-93565689D01*
X96537574Y-93559592D01*
X96386332Y-93436242D01*
X96334614Y-93401881D01*
X96283393Y-93366809D01*
X96274980Y-93362260D01*
X96102657Y-93270635D01*
X96045261Y-93246978D01*
X95988193Y-93222519D01*
X95979057Y-93219690D01*
X95792220Y-93163281D01*
X95731302Y-93151219D01*
X95670590Y-93138314D01*
X95661078Y-93137314D01*
X95466845Y-93118269D01*
X95466837Y-93118269D01*
X95438409Y-93115469D01*
X108165074Y-93115469D01*
X109210000Y-94160395D01*
X110254926Y-93115469D01*
X110144079Y-92838286D01*
X109833160Y-92684911D01*
X109498295Y-92595140D01*
X109152350Y-92572424D01*
X108808620Y-92617634D01*
X108480315Y-92729034D01*
X108275921Y-92838286D01*
X108165074Y-93115469D01*
X95438409Y-93115469D01*
X95433647Y-93115000D01*
X95085000Y-93115000D01*
X95085000Y-91636504D01*
X110090000Y-91636504D01*
X110090000Y-91963496D01*
X110153793Y-92284204D01*
X110278927Y-92586305D01*
X110460594Y-92858188D01*
X110691812Y-93089406D01*
X110963695Y-93271073D01*
X111265796Y-93396207D01*
X111586504Y-93460000D01*
X111913496Y-93460000D01*
X112234204Y-93396207D01*
X112536305Y-93271073D01*
X112769182Y-93115469D01*
X113245074Y-93115469D01*
X114290000Y-94160395D01*
X115334926Y-93115469D01*
X115224079Y-92838286D01*
X114913160Y-92684911D01*
X114578295Y-92595140D01*
X114232350Y-92572424D01*
X113888620Y-92617634D01*
X113560315Y-92729034D01*
X113355921Y-92838286D01*
X113245074Y-93115469D01*
X112769182Y-93115469D01*
X112808188Y-93089406D01*
X113039406Y-92858188D01*
X113221073Y-92586305D01*
X113346207Y-92284204D01*
X113410000Y-91963496D01*
X113410000Y-91636504D01*
X113346207Y-91315796D01*
X113221073Y-91013695D01*
X113039406Y-90741812D01*
X112808188Y-90510594D01*
X112769183Y-90484531D01*
X113245074Y-90484531D01*
X113355921Y-90761714D01*
X113666840Y-90915089D01*
X114001705Y-91004860D01*
X114347650Y-91027576D01*
X114691380Y-90982366D01*
X115019685Y-90870966D01*
X115224079Y-90761714D01*
X115334926Y-90484531D01*
X114290000Y-89439605D01*
X113245074Y-90484531D01*
X112769183Y-90484531D01*
X112536305Y-90328927D01*
X112234204Y-90203793D01*
X111913496Y-90140000D01*
X111586504Y-90140000D01*
X111265796Y-90203793D01*
X110963695Y-90328927D01*
X110691812Y-90510594D01*
X110460594Y-90741812D01*
X110278927Y-91013695D01*
X110153793Y-91315796D01*
X110090000Y-91636504D01*
X95085000Y-91636504D01*
X95085000Y-90484531D01*
X108165074Y-90484531D01*
X108275921Y-90761714D01*
X108586840Y-90915089D01*
X108921705Y-91004860D01*
X109267650Y-91027576D01*
X109611380Y-90982366D01*
X109939685Y-90870966D01*
X110144079Y-90761714D01*
X110254926Y-90484531D01*
X109210000Y-89439605D01*
X108165074Y-90484531D01*
X95085000Y-90484531D01*
X95085000Y-89317650D01*
X107442424Y-89317650D01*
X107487634Y-89661380D01*
X107599034Y-89989685D01*
X107708286Y-90194079D01*
X107985469Y-90304926D01*
X109030395Y-89260000D01*
X109389605Y-89260000D01*
X110434531Y-90304926D01*
X110711714Y-90194079D01*
X110865089Y-89883160D01*
X110954860Y-89548295D01*
X110970004Y-89317650D01*
X112522424Y-89317650D01*
X112567634Y-89661380D01*
X112679034Y-89989685D01*
X112788286Y-90194079D01*
X113065469Y-90304926D01*
X114110395Y-89260000D01*
X114469605Y-89260000D01*
X115514531Y-90304926D01*
X115791714Y-90194079D01*
X115945089Y-89883160D01*
X116034860Y-89548295D01*
X116057576Y-89202350D01*
X116012366Y-88858620D01*
X115900966Y-88530315D01*
X115791714Y-88325921D01*
X115514531Y-88215074D01*
X114469605Y-89260000D01*
X114110395Y-89260000D01*
X113065469Y-88215074D01*
X112788286Y-88325921D01*
X112634911Y-88636840D01*
X112545140Y-88971705D01*
X112522424Y-89317650D01*
X110970004Y-89317650D01*
X110977576Y-89202350D01*
X110932366Y-88858620D01*
X110820966Y-88530315D01*
X110711714Y-88325921D01*
X110434531Y-88215074D01*
X109389605Y-89260000D01*
X109030395Y-89260000D01*
X107985469Y-88215074D01*
X107708286Y-88325921D01*
X107554911Y-88636840D01*
X107465140Y-88971705D01*
X107442424Y-89317650D01*
X95085000Y-89317650D01*
X95085000Y-88035469D01*
X108165074Y-88035469D01*
X109210000Y-89080395D01*
X110254926Y-88035469D01*
X113245074Y-88035469D01*
X114290000Y-89080395D01*
X115334926Y-88035469D01*
X115224079Y-87758286D01*
X114913160Y-87604911D01*
X114578295Y-87515140D01*
X114232350Y-87492424D01*
X113888620Y-87537634D01*
X113560315Y-87649034D01*
X113355921Y-87758286D01*
X113245074Y-88035469D01*
X110254926Y-88035469D01*
X110144079Y-87758286D01*
X109833160Y-87604911D01*
X109498295Y-87515140D01*
X109152350Y-87492424D01*
X108808620Y-87537634D01*
X108480315Y-87649034D01*
X108275921Y-87758286D01*
X108165074Y-88035469D01*
X95085000Y-88035469D01*
X95085000Y-81083504D01*
X95122789Y-80698103D01*
X95224987Y-80359607D01*
X95390984Y-80047412D01*
X95614460Y-79773403D01*
X95886902Y-79548020D01*
X96197931Y-79379847D01*
X96535708Y-79275288D01*
X96929894Y-79233857D01*
X96941818Y-79233722D01*
X97855838Y-79177818D01*
X97867408Y-79176264D01*
X97879079Y-79175999D01*
X97946484Y-79166166D01*
X99011512Y-78956251D01*
X99026521Y-78952145D01*
X99041863Y-78949550D01*
X99107143Y-78930090D01*
X100130712Y-78568629D01*
X100144971Y-78562399D01*
X100159777Y-78557617D01*
X100221563Y-78528937D01*
X101182234Y-78023505D01*
X101195445Y-78015282D01*
X101209406Y-78008412D01*
X101266405Y-77971113D01*
X102144050Y-77332295D01*
X102155936Y-77322251D01*
X102168758Y-77313438D01*
X102219775Y-77268302D01*
X102511810Y-76982818D01*
X106096787Y-76982818D01*
X106588946Y-77585149D01*
X107439933Y-78055063D01*
X108366243Y-78349929D01*
X109332281Y-78458414D01*
X110300921Y-78376351D01*
X111234938Y-78106893D01*
X111925147Y-77750000D01*
X124365000Y-77750000D01*
X124365000Y-86000000D01*
X124377201Y-86123882D01*
X124413336Y-86243004D01*
X124472017Y-86352787D01*
X124550987Y-86449013D01*
X124647213Y-86527983D01*
X124756996Y-86586664D01*
X124876118Y-86622799D01*
X125000000Y-86635000D01*
X133000000Y-86635000D01*
X133123882Y-86622799D01*
X133243004Y-86586664D01*
X133352787Y-86527983D01*
X133449013Y-86449013D01*
X133527983Y-86352787D01*
X133586664Y-86243004D01*
X133622799Y-86123882D01*
X133635000Y-86000000D01*
X133635000Y-77750000D01*
X133622799Y-77626118D01*
X133586664Y-77506996D01*
X133527983Y-77397213D01*
X133449013Y-77300987D01*
X133352787Y-77222017D01*
X133243004Y-77163336D01*
X133123882Y-77127201D01*
X133000000Y-77115000D01*
X125000000Y-77115000D01*
X124876118Y-77127201D01*
X124756996Y-77163336D01*
X124647213Y-77222017D01*
X124550987Y-77300987D01*
X124472017Y-77397213D01*
X124413336Y-77506996D01*
X124377201Y-77626118D01*
X124365000Y-77750000D01*
X111925147Y-77750000D01*
X112098440Y-77660394D01*
X112211054Y-77585149D01*
X112703213Y-76982818D01*
X109400000Y-73679605D01*
X106096787Y-76982818D01*
X102511810Y-76982818D01*
X102996010Y-76509481D01*
X103006317Y-76497831D01*
X103017737Y-76487256D01*
X103061705Y-76435227D01*
X103720269Y-75572302D01*
X103728790Y-75559280D01*
X103738560Y-75547172D01*
X103774556Y-75489342D01*
X104301654Y-74540387D01*
X104308204Y-74526276D01*
X104316127Y-74512879D01*
X104343398Y-74450458D01*
X104494138Y-74052586D01*
X104523649Y-74400921D01*
X104793107Y-75334938D01*
X105239606Y-76198440D01*
X105314851Y-76311054D01*
X105917182Y-76803213D01*
X109220395Y-73500000D01*
X109579605Y-73500000D01*
X112882818Y-76803213D01*
X113485149Y-76311054D01*
X113955063Y-75460067D01*
X114212926Y-74650000D01*
X129731928Y-74650000D01*
X129731928Y-76350000D01*
X129744188Y-76474482D01*
X129780498Y-76594180D01*
X129839463Y-76704494D01*
X129918815Y-76801185D01*
X130015506Y-76880537D01*
X130125820Y-76939502D01*
X130245518Y-76975812D01*
X130370000Y-76988072D01*
X132070000Y-76988072D01*
X132194482Y-76975812D01*
X132314180Y-76939502D01*
X132424494Y-76880537D01*
X132521185Y-76801185D01*
X132600537Y-76704494D01*
X132659502Y-76594180D01*
X132683966Y-76513534D01*
X132759731Y-76597588D01*
X132993080Y-76771641D01*
X133255901Y-76896825D01*
X133403110Y-76941476D01*
X133633000Y-76820155D01*
X133633000Y-75627000D01*
X133613000Y-75627000D01*
X133613000Y-75373000D01*
X133633000Y-75373000D01*
X133633000Y-74179845D01*
X133887000Y-74179845D01*
X133887000Y-75373000D01*
X133907000Y-75373000D01*
X133907000Y-75627000D01*
X133887000Y-75627000D01*
X133887000Y-76820155D01*
X134116890Y-76941476D01*
X134264099Y-76896825D01*
X134526920Y-76771641D01*
X134760269Y-76597588D01*
X134955178Y-76381355D01*
X135024805Y-76264466D01*
X135146525Y-76446632D01*
X135353368Y-76653475D01*
X135596589Y-76815990D01*
X135866842Y-76927932D01*
X136153740Y-76985000D01*
X136446260Y-76985000D01*
X136733158Y-76927932D01*
X137003411Y-76815990D01*
X137246632Y-76653475D01*
X137453475Y-76446632D01*
X137615990Y-76203411D01*
X137727932Y-75933158D01*
X137785000Y-75646260D01*
X137785000Y-75353740D01*
X137727932Y-75066842D01*
X137615990Y-74796589D01*
X137453475Y-74553368D01*
X137246632Y-74346525D01*
X137003411Y-74184010D01*
X136733158Y-74072068D01*
X136446260Y-74015000D01*
X136153740Y-74015000D01*
X135866842Y-74072068D01*
X135596589Y-74184010D01*
X135353368Y-74346525D01*
X135146525Y-74553368D01*
X135024805Y-74735534D01*
X134955178Y-74618645D01*
X134760269Y-74402412D01*
X134526920Y-74228359D01*
X134264099Y-74103175D01*
X134116890Y-74058524D01*
X133887000Y-74179845D01*
X133633000Y-74179845D01*
X133403110Y-74058524D01*
X133255901Y-74103175D01*
X132993080Y-74228359D01*
X132759731Y-74402412D01*
X132683966Y-74486466D01*
X132659502Y-74405820D01*
X132600537Y-74295506D01*
X132521185Y-74198815D01*
X132424494Y-74119463D01*
X132314180Y-74060498D01*
X132194482Y-74024188D01*
X132070000Y-74011928D01*
X130370000Y-74011928D01*
X130245518Y-74024188D01*
X130125820Y-74060498D01*
X130015506Y-74119463D01*
X129918815Y-74198815D01*
X129839463Y-74295506D01*
X129780498Y-74405820D01*
X129744188Y-74525518D01*
X129731928Y-74650000D01*
X114212926Y-74650000D01*
X114249929Y-74533757D01*
X114358414Y-73567719D01*
X114276351Y-72599079D01*
X114006893Y-71665062D01*
X113560394Y-70801560D01*
X113485149Y-70688946D01*
X112882818Y-70196787D01*
X109579605Y-73500000D01*
X109220395Y-73500000D01*
X105917182Y-70196787D01*
X105314851Y-70688946D01*
X105082463Y-71109788D01*
X105082576Y-71108223D01*
X105122789Y-70698103D01*
X105224987Y-70359607D01*
X105390984Y-70047412D01*
X105614460Y-69773403D01*
X105886902Y-69548020D01*
X106197931Y-69379847D01*
X106535708Y-69275288D01*
X106899994Y-69237000D01*
X106701560Y-69339606D01*
X106588946Y-69414851D01*
X106096787Y-70017182D01*
X109400000Y-73320395D01*
X112703213Y-70017182D01*
X112211054Y-69414851D01*
X111885354Y-69235000D01*
X115215000Y-69235000D01*
X115215000Y-69583646D01*
G37*
X115215000Y-69583646D02*
X115217887Y-69612954D01*
X115217844Y-69619066D01*
X115218777Y-69628585D01*
X115239178Y-69822682D01*
X115251661Y-69883496D01*
X115263295Y-69944481D01*
X115266059Y-69953637D01*
X115323771Y-70140075D01*
X115347818Y-70197279D01*
X115371087Y-70254873D01*
X115375577Y-70263317D01*
X115468402Y-70434994D01*
X115503122Y-70486468D01*
X115537117Y-70538418D01*
X115543161Y-70545829D01*
X115667565Y-70696207D01*
X115711638Y-70739973D01*
X115755057Y-70784311D01*
X115762426Y-70790408D01*
X115913668Y-70913758D01*
X115965397Y-70948126D01*
X116016608Y-70983191D01*
X116025016Y-70987737D01*
X116025020Y-70987740D01*
X116025024Y-70987742D01*
X116197343Y-71079366D01*
X116254739Y-71103022D01*
X116311807Y-71127482D01*
X116320944Y-71130310D01*
X116507780Y-71186719D01*
X116568690Y-71198780D01*
X116629409Y-71211686D01*
X116638921Y-71212686D01*
X116833155Y-71231731D01*
X116833163Y-71231731D01*
X116866353Y-71235000D01*
X121933647Y-71235000D01*
X121962955Y-71232113D01*
X121969066Y-71232156D01*
X121978585Y-71231223D01*
X122172682Y-71210822D01*
X122233496Y-71198339D01*
X122294481Y-71186705D01*
X122303637Y-71183941D01*
X122490075Y-71126229D01*
X122547279Y-71102182D01*
X122604873Y-71078913D01*
X122613317Y-71074423D01*
X122784994Y-70981598D01*
X122836468Y-70946878D01*
X122888418Y-70912883D01*
X122895829Y-70906839D01*
X123046207Y-70782435D01*
X123089973Y-70738362D01*
X123134311Y-70694943D01*
X123140408Y-70687574D01*
X123263758Y-70536332D01*
X123298126Y-70484603D01*
X123333191Y-70433392D01*
X123337739Y-70424981D01*
X123337740Y-70424980D01*
X123337742Y-70424976D01*
X123429366Y-70252657D01*
X123453022Y-70195261D01*
X123477482Y-70138193D01*
X123480310Y-70129056D01*
X123536719Y-69942220D01*
X123548780Y-69881310D01*
X123561686Y-69820591D01*
X123562686Y-69811079D01*
X123581731Y-69616845D01*
X123581731Y-69616837D01*
X123585000Y-69583647D01*
X123585000Y-69235000D01*
X144215000Y-69235000D01*
X144215000Y-69583646D01*
X144217887Y-69612954D01*
X144217844Y-69619066D01*
X144218777Y-69628585D01*
X144239178Y-69822682D01*
X144251661Y-69883496D01*
X144263295Y-69944481D01*
X144266059Y-69953637D01*
X144323771Y-70140075D01*
X144347818Y-70197279D01*
X144371087Y-70254873D01*
X144375577Y-70263317D01*
X144468402Y-70434994D01*
X144503122Y-70486468D01*
X144537117Y-70538418D01*
X144543161Y-70545829D01*
X144667565Y-70696207D01*
X144711638Y-70739973D01*
X144755057Y-70784311D01*
X144762426Y-70790408D01*
X144913668Y-70913758D01*
X144965397Y-70948126D01*
X145016608Y-70983191D01*
X145025016Y-70987737D01*
X145025020Y-70987740D01*
X145025024Y-70987742D01*
X145197343Y-71079366D01*
X145254739Y-71103022D01*
X145311807Y-71127482D01*
X145320944Y-71130310D01*
X145507780Y-71186719D01*
X145568690Y-71198780D01*
X145629409Y-71211686D01*
X145638921Y-71212686D01*
X145833155Y-71231731D01*
X145833163Y-71231731D01*
X145866353Y-71235000D01*
X150933647Y-71235000D01*
X150962955Y-71232113D01*
X150969066Y-71232156D01*
X150978585Y-71231223D01*
X151172682Y-71210822D01*
X151233496Y-71198339D01*
X151294481Y-71186705D01*
X151303637Y-71183941D01*
X151490075Y-71126229D01*
X151547279Y-71102182D01*
X151604873Y-71078913D01*
X151613317Y-71074423D01*
X151784994Y-70981598D01*
X151836468Y-70946878D01*
X151888418Y-70912883D01*
X151895829Y-70906839D01*
X152046207Y-70782435D01*
X152089973Y-70738362D01*
X152134311Y-70694943D01*
X152140408Y-70687574D01*
X152263758Y-70536332D01*
X152298126Y-70484603D01*
X152333191Y-70433392D01*
X152337739Y-70424981D01*
X152337740Y-70424980D01*
X152337742Y-70424976D01*
X152429366Y-70252657D01*
X152453022Y-70195261D01*
X152477482Y-70138193D01*
X152480310Y-70129056D01*
X152536719Y-69942220D01*
X152548780Y-69881310D01*
X152561686Y-69820591D01*
X152562686Y-69811079D01*
X152581731Y-69616845D01*
X152581731Y-69616837D01*
X152585000Y-69583647D01*
X152585000Y-69235000D01*
X173215000Y-69235000D01*
X173215000Y-69583646D01*
X173217887Y-69612954D01*
X173217844Y-69619066D01*
X173218777Y-69628585D01*
X173239178Y-69822682D01*
X173251661Y-69883496D01*
X173263295Y-69944481D01*
X173266059Y-69953637D01*
X173323771Y-70140075D01*
X173347818Y-70197279D01*
X173371087Y-70254873D01*
X173375577Y-70263317D01*
X173468402Y-70434994D01*
X173503122Y-70486468D01*
X173537117Y-70538418D01*
X173543161Y-70545829D01*
X173667565Y-70696207D01*
X173711638Y-70739973D01*
X173755057Y-70784311D01*
X173762426Y-70790408D01*
X173913668Y-70913758D01*
X173965397Y-70948126D01*
X174016608Y-70983191D01*
X174025016Y-70987737D01*
X174025020Y-70987740D01*
X174025024Y-70987742D01*
X174197343Y-71079366D01*
X174254739Y-71103022D01*
X174311807Y-71127482D01*
X174320944Y-71130310D01*
X174507780Y-71186719D01*
X174568690Y-71198780D01*
X174629409Y-71211686D01*
X174638921Y-71212686D01*
X174833155Y-71231731D01*
X174833163Y-71231731D01*
X174866353Y-71235000D01*
X179933647Y-71235000D01*
X179962955Y-71232113D01*
X179969066Y-71232156D01*
X179978585Y-71231223D01*
X180172682Y-71210822D01*
X180233496Y-71198339D01*
X180294481Y-71186705D01*
X180303637Y-71183941D01*
X180490075Y-71126229D01*
X180547279Y-71102182D01*
X180604873Y-71078913D01*
X180613317Y-71074423D01*
X180784994Y-70981598D01*
X180836468Y-70946878D01*
X180888418Y-70912883D01*
X180895829Y-70906839D01*
X181046207Y-70782435D01*
X181089973Y-70738362D01*
X181134311Y-70694943D01*
X181140408Y-70687574D01*
X181263758Y-70536332D01*
X181298126Y-70484603D01*
X181333191Y-70433392D01*
X181337739Y-70424981D01*
X181337740Y-70424980D01*
X181337742Y-70424976D01*
X181429366Y-70252657D01*
X181453022Y-70195261D01*
X181477482Y-70138193D01*
X181480310Y-70129056D01*
X181536719Y-69942220D01*
X181548780Y-69881310D01*
X181561686Y-69820591D01*
X181562686Y-69811079D01*
X181581731Y-69616845D01*
X181581731Y-69616837D01*
X181585000Y-69583647D01*
X181585000Y-69235000D01*
X185200259Y-69235000D01*
X184554121Y-69666735D01*
X183866735Y-70354121D01*
X183326660Y-71162401D01*
X182954650Y-72060514D01*
X182765000Y-73013945D01*
X182765000Y-73986055D01*
X182954650Y-74939486D01*
X183326660Y-75837599D01*
X183866735Y-76645879D01*
X184554121Y-77333265D01*
X185362401Y-77873340D01*
X186260514Y-78245350D01*
X187213945Y-78435000D01*
X188186055Y-78435000D01*
X189139486Y-78245350D01*
X190037599Y-77873340D01*
X190845879Y-77333265D01*
X191533265Y-76645879D01*
X191715000Y-76373893D01*
X191715000Y-79883646D01*
X191717053Y-79904491D01*
X191772182Y-80805838D01*
X191773736Y-80817408D01*
X191774001Y-80829079D01*
X191783834Y-80896484D01*
X191993749Y-81961512D01*
X191997855Y-81976521D01*
X192000450Y-81991863D01*
X192019910Y-82057143D01*
X192381371Y-83080712D01*
X192387601Y-83094971D01*
X192392383Y-83109777D01*
X192421063Y-83171563D01*
X192926495Y-84132234D01*
X192934718Y-84145445D01*
X192941588Y-84159406D01*
X192978887Y-84216405D01*
X193617705Y-85094050D01*
X193627749Y-85105936D01*
X193636562Y-85118758D01*
X193681698Y-85169775D01*
X194440519Y-85946010D01*
X194452169Y-85956317D01*
X194462744Y-85967737D01*
X194514773Y-86011705D01*
X195377698Y-86670269D01*
X195390720Y-86678790D01*
X195402828Y-86688560D01*
X195460658Y-86724556D01*
X196409613Y-87251654D01*
X196423724Y-87258204D01*
X196437121Y-87266127D01*
X196499542Y-87293398D01*
X197514648Y-87677987D01*
X197529565Y-87682434D01*
X197543956Y-87688336D01*
X197609660Y-87706311D01*
X198669650Y-87940335D01*
X198685051Y-87942582D01*
X198700145Y-87946345D01*
X198767756Y-87954647D01*
X199841777Y-88032576D01*
X200251897Y-88072789D01*
X200590393Y-88174987D01*
X200902588Y-88340984D01*
X201176597Y-88564460D01*
X201401980Y-88836902D01*
X201570153Y-89147931D01*
X201674712Y-89485708D01*
X201715001Y-89869031D01*
X201715000Y-93065000D01*
X201366353Y-93065000D01*
X201337045Y-93067887D01*
X201330933Y-93067844D01*
X201321415Y-93068777D01*
X201127318Y-93089178D01*
X201066504Y-93101661D01*
X201005519Y-93113295D01*
X200996363Y-93116059D01*
X200809925Y-93173771D01*
X200752692Y-93197830D01*
X200695127Y-93221087D01*
X200686682Y-93225577D01*
X200515006Y-93318402D01*
X200463532Y-93353122D01*
X200411582Y-93387117D01*
X200404170Y-93393162D01*
X200253793Y-93517565D01*
X200210027Y-93561638D01*
X200165689Y-93605057D01*
X200159592Y-93612426D01*
X200036242Y-93763668D01*
X200001881Y-93815386D01*
X199966809Y-93866607D01*
X199962260Y-93875020D01*
X199870635Y-94047343D01*
X199846978Y-94104739D01*
X199822519Y-94161807D01*
X199819690Y-94170943D01*
X199763281Y-94357780D01*
X199751219Y-94418698D01*
X199738314Y-94479410D01*
X199737314Y-94488922D01*
X199718269Y-94683155D01*
X199718269Y-94683164D01*
X199715000Y-94716354D01*
X199715001Y-100283647D01*
X199717887Y-100312945D01*
X199717844Y-100319066D01*
X199718777Y-100328585D01*
X199739178Y-100522682D01*
X199751661Y-100583496D01*
X199763295Y-100644481D01*
X199766059Y-100653637D01*
X199823771Y-100840075D01*
X199847818Y-100897279D01*
X199871087Y-100954873D01*
X199875577Y-100963317D01*
X199968402Y-101134994D01*
X200003122Y-101186468D01*
X200037117Y-101238418D01*
X200043161Y-101245829D01*
X200167565Y-101396207D01*
X200211638Y-101439973D01*
X200255057Y-101484311D01*
X200262426Y-101490408D01*
X200413668Y-101613758D01*
X200465397Y-101648126D01*
X200516608Y-101683191D01*
X200525016Y-101687737D01*
X200525020Y-101687740D01*
X200525024Y-101687742D01*
X200697343Y-101779366D01*
X200754739Y-101803022D01*
X200811807Y-101827482D01*
X200820944Y-101830310D01*
X201007780Y-101886719D01*
X201068690Y-101898780D01*
X201129409Y-101911686D01*
X201138921Y-101912686D01*
X201333155Y-101931731D01*
X201333163Y-101931731D01*
X201366353Y-101935000D01*
X201715001Y-101935000D01*
X201715000Y-114016495D01*
X201677211Y-114401897D01*
X201575013Y-114740392D01*
X201409016Y-115052588D01*
X201185539Y-115326599D01*
X200913098Y-115551980D01*
X200602069Y-115720153D01*
X200264296Y-115824711D01*
X199870106Y-115866143D01*
X199858182Y-115866278D01*
X198944162Y-115922182D01*
X198932592Y-115923736D01*
X198920921Y-115924001D01*
X198853516Y-115933834D01*
X197788488Y-116143749D01*
X197773479Y-116147855D01*
X197758137Y-116150450D01*
X197692857Y-116169910D01*
X196669287Y-116531371D01*
X196655026Y-116537602D01*
X196640223Y-116542383D01*
X196578437Y-116571063D01*
X195617767Y-117076495D01*
X195604559Y-117084716D01*
X195590594Y-117091588D01*
X195533595Y-117128887D01*
X194655950Y-117767705D01*
X194644061Y-117777753D01*
X194631243Y-117786562D01*
X194580225Y-117831698D01*
X193803990Y-118590518D01*
X193793678Y-118602173D01*
X193782262Y-118612745D01*
X193738295Y-118664773D01*
X193079731Y-119527699D01*
X193071213Y-119540716D01*
X193061440Y-119552828D01*
X193025444Y-119610659D01*
X192498346Y-120559613D01*
X192491793Y-120573730D01*
X192483874Y-120587121D01*
X192456602Y-120649542D01*
X192316291Y-121019888D01*
X192145350Y-120160514D01*
X191773340Y-119262401D01*
X191233265Y-118454121D01*
X190545879Y-117766735D01*
X189737599Y-117226660D01*
X188839486Y-116854650D01*
X187886055Y-116665000D01*
X186913945Y-116665000D01*
X185960514Y-116854650D01*
X185062401Y-117226660D01*
X184254121Y-117766735D01*
X183566735Y-118454121D01*
X183026660Y-119262401D01*
X182654650Y-120160514D01*
X182465000Y-121113945D01*
X182465000Y-122086055D01*
X182654650Y-123039486D01*
X183026660Y-123937599D01*
X183566735Y-124745879D01*
X184254121Y-125433265D01*
X184900259Y-125865000D01*
X181585000Y-125865000D01*
X181585000Y-125516353D01*
X181582113Y-125487045D01*
X181582156Y-125480933D01*
X181581223Y-125471415D01*
X181560822Y-125277318D01*
X181548339Y-125216504D01*
X181536705Y-125155519D01*
X181533941Y-125146363D01*
X181476229Y-124959925D01*
X181452170Y-124902692D01*
X181428913Y-124845127D01*
X181424423Y-124836682D01*
X181331598Y-124665006D01*
X181296878Y-124613532D01*
X181262883Y-124561582D01*
X181256838Y-124554170D01*
X181132435Y-124403793D01*
X181088362Y-124360027D01*
X181044943Y-124315689D01*
X181037574Y-124309592D01*
X180886332Y-124186242D01*
X180834614Y-124151881D01*
X180783393Y-124116809D01*
X180774980Y-124112260D01*
X180602657Y-124020635D01*
X180545261Y-123996978D01*
X180488193Y-123972519D01*
X180479057Y-123969690D01*
X180292220Y-123913281D01*
X180231302Y-123901219D01*
X180170590Y-123888314D01*
X180161078Y-123887314D01*
X179966845Y-123868269D01*
X179966837Y-123868269D01*
X179933647Y-123865000D01*
X174866353Y-123865000D01*
X174837045Y-123867887D01*
X174830933Y-123867844D01*
X174821415Y-123868777D01*
X174627318Y-123889178D01*
X174566504Y-123901661D01*
X174505519Y-123913295D01*
X174496363Y-123916059D01*
X174309925Y-123973771D01*
X174252692Y-123997830D01*
X174195127Y-124021087D01*
X174186682Y-124025577D01*
X174015006Y-124118402D01*
X173963532Y-124153122D01*
X173911582Y-124187117D01*
X173904170Y-124193162D01*
X173753793Y-124317565D01*
X173710027Y-124361638D01*
X173665689Y-124405057D01*
X173659592Y-124412426D01*
X173536242Y-124563668D01*
X173501881Y-124615386D01*
X173466809Y-124666607D01*
X173462260Y-124675020D01*
X173370635Y-124847343D01*
X173346978Y-124904739D01*
X173322519Y-124961807D01*
X173319690Y-124970943D01*
X173263281Y-125157780D01*
X173251219Y-125218698D01*
X173238314Y-125279410D01*
X173237314Y-125288922D01*
X173218269Y-125483155D01*
X173218269Y-125483164D01*
X173215000Y-125516354D01*
X173215000Y-125865000D01*
X156127000Y-125865000D01*
X156127000Y-104228578D01*
X164107346Y-112208925D01*
X164121414Y-112242889D01*
X164223738Y-112396028D01*
X164353972Y-112526262D01*
X164507111Y-112628586D01*
X164677271Y-112699068D01*
X164857911Y-112735000D01*
X165042089Y-112735000D01*
X165222729Y-112699068D01*
X165392889Y-112628586D01*
X165546028Y-112526262D01*
X165676262Y-112396028D01*
X165778586Y-112242889D01*
X165849068Y-112072729D01*
X165885000Y-111892089D01*
X165885000Y-111707911D01*
X165849068Y-111527271D01*
X165778586Y-111357111D01*
X165676262Y-111203972D01*
X165546028Y-111073738D01*
X165392889Y-110971414D01*
X165358925Y-110957346D01*
X165066110Y-110664531D01*
X184615074Y-110664531D01*
X184725921Y-110941714D01*
X185036840Y-111095089D01*
X185371705Y-111184860D01*
X185717650Y-111207576D01*
X186061380Y-111162366D01*
X186389685Y-111050966D01*
X186594079Y-110941714D01*
X186704926Y-110664531D01*
X189695074Y-110664531D01*
X189805921Y-110941714D01*
X190116840Y-111095089D01*
X190451705Y-111184860D01*
X190797650Y-111207576D01*
X191141380Y-111162366D01*
X191469685Y-111050966D01*
X191674079Y-110941714D01*
X191784926Y-110664531D01*
X190740000Y-109619605D01*
X189695074Y-110664531D01*
X186704926Y-110664531D01*
X185660000Y-109619605D01*
X184615074Y-110664531D01*
X165066110Y-110664531D01*
X163899229Y-109497650D01*
X183892424Y-109497650D01*
X183937634Y-109841380D01*
X184049034Y-110169685D01*
X184158286Y-110374079D01*
X184435469Y-110484926D01*
X185480395Y-109440000D01*
X185839605Y-109440000D01*
X186884531Y-110484926D01*
X187161714Y-110374079D01*
X187315089Y-110063160D01*
X187404860Y-109728295D01*
X187420004Y-109497650D01*
X188972424Y-109497650D01*
X189017634Y-109841380D01*
X189129034Y-110169685D01*
X189238286Y-110374079D01*
X189515469Y-110484926D01*
X190560395Y-109440000D01*
X190919605Y-109440000D01*
X191964531Y-110484926D01*
X192241714Y-110374079D01*
X192395089Y-110063160D01*
X192484860Y-109728295D01*
X192507576Y-109382350D01*
X192462366Y-109038620D01*
X192350966Y-108710315D01*
X192241714Y-108505921D01*
X191964531Y-108395074D01*
X190919605Y-109440000D01*
X190560395Y-109440000D01*
X189515469Y-108395074D01*
X189238286Y-108505921D01*
X189084911Y-108816840D01*
X188995140Y-109151705D01*
X188972424Y-109497650D01*
X187420004Y-109497650D01*
X187427576Y-109382350D01*
X187382366Y-109038620D01*
X187270966Y-108710315D01*
X187161714Y-108505921D01*
X186884531Y-108395074D01*
X185839605Y-109440000D01*
X185480395Y-109440000D01*
X184435469Y-108395074D01*
X184158286Y-108505921D01*
X184004911Y-108816840D01*
X183915140Y-109151705D01*
X183892424Y-109497650D01*
X163899229Y-109497650D01*
X162617048Y-108215469D01*
X184615074Y-108215469D01*
X185660000Y-109260395D01*
X186704926Y-108215469D01*
X186594079Y-107938286D01*
X186283160Y-107784911D01*
X185948295Y-107695140D01*
X185602350Y-107672424D01*
X185258620Y-107717634D01*
X184930315Y-107829034D01*
X184725921Y-107938286D01*
X184615074Y-108215469D01*
X162617048Y-108215469D01*
X161138083Y-106736504D01*
X186540000Y-106736504D01*
X186540000Y-107063496D01*
X186603793Y-107384204D01*
X186728927Y-107686305D01*
X186910594Y-107958188D01*
X187141812Y-108189406D01*
X187413695Y-108371073D01*
X187715796Y-108496207D01*
X188036504Y-108560000D01*
X188363496Y-108560000D01*
X188684204Y-108496207D01*
X188986305Y-108371073D01*
X189219182Y-108215469D01*
X189695074Y-108215469D01*
X190740000Y-109260395D01*
X191784926Y-108215469D01*
X191674079Y-107938286D01*
X191363160Y-107784911D01*
X191028295Y-107695140D01*
X190682350Y-107672424D01*
X190338620Y-107717634D01*
X190010315Y-107829034D01*
X189805921Y-107938286D01*
X189695074Y-108215469D01*
X189219182Y-108215469D01*
X189258188Y-108189406D01*
X189489406Y-107958188D01*
X189671073Y-107686305D01*
X189796207Y-107384204D01*
X189860000Y-107063496D01*
X189860000Y-106736504D01*
X189796207Y-106415796D01*
X189671073Y-106113695D01*
X189489406Y-105841812D01*
X189258188Y-105610594D01*
X189219183Y-105584531D01*
X189695074Y-105584531D01*
X189805921Y-105861714D01*
X190116840Y-106015089D01*
X190451705Y-106104860D01*
X190797650Y-106127576D01*
X191141380Y-106082366D01*
X191469685Y-105970966D01*
X191674079Y-105861714D01*
X191784926Y-105584531D01*
X190740000Y-104539605D01*
X189695074Y-105584531D01*
X189219183Y-105584531D01*
X188986305Y-105428927D01*
X188684204Y-105303793D01*
X188363496Y-105240000D01*
X188036504Y-105240000D01*
X187715796Y-105303793D01*
X187413695Y-105428927D01*
X187141812Y-105610594D01*
X186910594Y-105841812D01*
X186728927Y-106113695D01*
X186603793Y-106415796D01*
X186540000Y-106736504D01*
X161138083Y-106736504D01*
X159986110Y-105584531D01*
X184615074Y-105584531D01*
X184725921Y-105861714D01*
X185036840Y-106015089D01*
X185371705Y-106104860D01*
X185717650Y-106127576D01*
X186061380Y-106082366D01*
X186389685Y-105970966D01*
X186594079Y-105861714D01*
X186704926Y-105584531D01*
X185660000Y-104539605D01*
X184615074Y-105584531D01*
X159986110Y-105584531D01*
X158819229Y-104417650D01*
X183892424Y-104417650D01*
X183937634Y-104761380D01*
X184049034Y-105089685D01*
X184158286Y-105294079D01*
X184435469Y-105404926D01*
X185480395Y-104360000D01*
X185839605Y-104360000D01*
X186884531Y-105404926D01*
X187161714Y-105294079D01*
X187315089Y-104983160D01*
X187404860Y-104648295D01*
X187420004Y-104417650D01*
X188972424Y-104417650D01*
X189017634Y-104761380D01*
X189129034Y-105089685D01*
X189238286Y-105294079D01*
X189515469Y-105404926D01*
X190560395Y-104360000D01*
X190919605Y-104360000D01*
X191964531Y-105404926D01*
X192241714Y-105294079D01*
X192395089Y-104983160D01*
X192484860Y-104648295D01*
X192507576Y-104302350D01*
X192462366Y-103958620D01*
X192350966Y-103630315D01*
X192241714Y-103425921D01*
X191964531Y-103315074D01*
X190919605Y-104360000D01*
X190560395Y-104360000D01*
X189515469Y-103315074D01*
X189238286Y-103425921D01*
X189084911Y-103736840D01*
X188995140Y-104071705D01*
X188972424Y-104417650D01*
X187420004Y-104417650D01*
X187427576Y-104302350D01*
X187382366Y-103958620D01*
X187270966Y-103630315D01*
X187161714Y-103425921D01*
X186884531Y-103315074D01*
X185839605Y-104360000D01*
X185480395Y-104360000D01*
X184435469Y-103315074D01*
X184158286Y-103425921D01*
X184004911Y-103736840D01*
X183915140Y-104071705D01*
X183892424Y-104417650D01*
X158819229Y-104417650D01*
X157537048Y-103135469D01*
X184615074Y-103135469D01*
X185660000Y-104180395D01*
X186704926Y-103135469D01*
X189695074Y-103135469D01*
X190740000Y-104180395D01*
X191784926Y-103135469D01*
X191674079Y-102858286D01*
X191363160Y-102704911D01*
X191028295Y-102615140D01*
X190682350Y-102592424D01*
X190338620Y-102637634D01*
X190010315Y-102749034D01*
X189805921Y-102858286D01*
X189695074Y-103135469D01*
X186704926Y-103135469D01*
X186594079Y-102858286D01*
X186283160Y-102704911D01*
X185948295Y-102615140D01*
X185602350Y-102592424D01*
X185258620Y-102637634D01*
X184930315Y-102749034D01*
X184725921Y-102858286D01*
X184615074Y-103135469D01*
X157537048Y-103135469D01*
X157085001Y-102683423D01*
X157085001Y-99957911D01*
X158915000Y-99957911D01*
X158915000Y-100142089D01*
X158950932Y-100322729D01*
X159021414Y-100492889D01*
X159123738Y-100646028D01*
X159253972Y-100776262D01*
X159407111Y-100878586D01*
X159577271Y-100949068D01*
X159757911Y-100985000D01*
X159942089Y-100985000D01*
X160122729Y-100949068D01*
X160292889Y-100878586D01*
X160446028Y-100776262D01*
X160576262Y-100646028D01*
X160678586Y-100492889D01*
X160749068Y-100322729D01*
X160785000Y-100142089D01*
X160785000Y-99957911D01*
X160749068Y-99777271D01*
X160678586Y-99607111D01*
X160610000Y-99504465D01*
X160610000Y-95564531D01*
X184615074Y-95564531D01*
X184725921Y-95841714D01*
X185036840Y-95995089D01*
X185371705Y-96084860D01*
X185717650Y-96107576D01*
X186061380Y-96062366D01*
X186389685Y-95950966D01*
X186594079Y-95841714D01*
X186704926Y-95564531D01*
X189695074Y-95564531D01*
X189805921Y-95841714D01*
X190116840Y-95995089D01*
X190451705Y-96084860D01*
X190797650Y-96107576D01*
X191141380Y-96062366D01*
X191469685Y-95950966D01*
X191674079Y-95841714D01*
X191784926Y-95564531D01*
X190740000Y-94519605D01*
X189695074Y-95564531D01*
X186704926Y-95564531D01*
X185660000Y-94519605D01*
X184615074Y-95564531D01*
X160610000Y-95564531D01*
X160610000Y-95112288D01*
X160626262Y-95096026D01*
X160728586Y-94942887D01*
X160799068Y-94772727D01*
X160835000Y-94592087D01*
X160835000Y-94407909D01*
X160832960Y-94397650D01*
X183892424Y-94397650D01*
X183937634Y-94741380D01*
X184049034Y-95069685D01*
X184158286Y-95274079D01*
X184435469Y-95384926D01*
X185480395Y-94340000D01*
X185839605Y-94340000D01*
X186884531Y-95384926D01*
X187161714Y-95274079D01*
X187315089Y-94963160D01*
X187404860Y-94628295D01*
X187420004Y-94397650D01*
X188972424Y-94397650D01*
X189017634Y-94741380D01*
X189129034Y-95069685D01*
X189238286Y-95274079D01*
X189515469Y-95384926D01*
X190560395Y-94340000D01*
X190919605Y-94340000D01*
X191964531Y-95384926D01*
X192241714Y-95274079D01*
X192395089Y-94963160D01*
X192484860Y-94628295D01*
X192507576Y-94282350D01*
X192462366Y-93938620D01*
X192350966Y-93610315D01*
X192241714Y-93405921D01*
X191964531Y-93295074D01*
X190919605Y-94340000D01*
X190560395Y-94340000D01*
X189515469Y-93295074D01*
X189238286Y-93405921D01*
X189084911Y-93716840D01*
X188995140Y-94051705D01*
X188972424Y-94397650D01*
X187420004Y-94397650D01*
X187427576Y-94282350D01*
X187382366Y-93938620D01*
X187270966Y-93610315D01*
X187161714Y-93405921D01*
X186884531Y-93295074D01*
X185839605Y-94340000D01*
X185480395Y-94340000D01*
X184435469Y-93295074D01*
X184158286Y-93405921D01*
X184004911Y-93716840D01*
X183915140Y-94051705D01*
X183892424Y-94397650D01*
X160832960Y-94397650D01*
X160799068Y-94227269D01*
X160728586Y-94057109D01*
X160626262Y-93903970D01*
X160496028Y-93773736D01*
X160342889Y-93671412D01*
X160172729Y-93600930D01*
X159992089Y-93564998D01*
X159807911Y-93564998D01*
X159627271Y-93600930D01*
X159457111Y-93671412D01*
X159303972Y-93773736D01*
X159173738Y-93903970D01*
X159071414Y-94057109D01*
X159000932Y-94227269D01*
X158965000Y-94407909D01*
X158965000Y-94592087D01*
X159000932Y-94772727D01*
X159071414Y-94942887D01*
X159090001Y-94970704D01*
X159090000Y-99504464D01*
X159021414Y-99607111D01*
X158950932Y-99777271D01*
X158915000Y-99957911D01*
X157085001Y-99957911D01*
X157085001Y-93115469D01*
X184615074Y-93115469D01*
X185660000Y-94160395D01*
X186704926Y-93115469D01*
X186594079Y-92838286D01*
X186283160Y-92684911D01*
X185948295Y-92595140D01*
X185602350Y-92572424D01*
X185258620Y-92617634D01*
X184930315Y-92729034D01*
X184725921Y-92838286D01*
X184615074Y-93115469D01*
X157085001Y-93115469D01*
X157085001Y-91636504D01*
X186540000Y-91636504D01*
X186540000Y-91963496D01*
X186603793Y-92284204D01*
X186728927Y-92586305D01*
X186910594Y-92858188D01*
X187141812Y-93089406D01*
X187413695Y-93271073D01*
X187715796Y-93396207D01*
X188036504Y-93460000D01*
X188363496Y-93460000D01*
X188684204Y-93396207D01*
X188986305Y-93271073D01*
X189219182Y-93115469D01*
X189695074Y-93115469D01*
X190740000Y-94160395D01*
X191784926Y-93115469D01*
X191674079Y-92838286D01*
X191363160Y-92684911D01*
X191028295Y-92595140D01*
X190682350Y-92572424D01*
X190338620Y-92617634D01*
X190010315Y-92729034D01*
X189805921Y-92838286D01*
X189695074Y-93115469D01*
X189219182Y-93115469D01*
X189258188Y-93089406D01*
X189489406Y-92858188D01*
X189671073Y-92586305D01*
X189796207Y-92284204D01*
X189860000Y-91963496D01*
X189860000Y-91636504D01*
X189796207Y-91315796D01*
X189671073Y-91013695D01*
X189489406Y-90741812D01*
X189258188Y-90510594D01*
X189219183Y-90484531D01*
X189695074Y-90484531D01*
X189805921Y-90761714D01*
X190116840Y-90915089D01*
X190451705Y-91004860D01*
X190797650Y-91027576D01*
X191141380Y-90982366D01*
X191469685Y-90870966D01*
X191674079Y-90761714D01*
X191784926Y-90484531D01*
X190740000Y-89439605D01*
X189695074Y-90484531D01*
X189219183Y-90484531D01*
X188986305Y-90328927D01*
X188684204Y-90203793D01*
X188363496Y-90140000D01*
X188036504Y-90140000D01*
X187715796Y-90203793D01*
X187413695Y-90328927D01*
X187141812Y-90510594D01*
X186910594Y-90741812D01*
X186728927Y-91013695D01*
X186603793Y-91315796D01*
X186540000Y-91636504D01*
X157085001Y-91636504D01*
X157085001Y-90484531D01*
X184615074Y-90484531D01*
X184725921Y-90761714D01*
X185036840Y-90915089D01*
X185371705Y-91004860D01*
X185717650Y-91027576D01*
X186061380Y-90982366D01*
X186389685Y-90870966D01*
X186594079Y-90761714D01*
X186704926Y-90484531D01*
X185660000Y-89439605D01*
X184615074Y-90484531D01*
X157085001Y-90484531D01*
X157085001Y-89317650D01*
X183892424Y-89317650D01*
X183937634Y-89661380D01*
X184049034Y-89989685D01*
X184158286Y-90194079D01*
X184435469Y-90304926D01*
X185480395Y-89260000D01*
X185839605Y-89260000D01*
X186884531Y-90304926D01*
X187161714Y-90194079D01*
X187315089Y-89883160D01*
X187404860Y-89548295D01*
X187420004Y-89317650D01*
X188972424Y-89317650D01*
X189017634Y-89661380D01*
X189129034Y-89989685D01*
X189238286Y-90194079D01*
X189515469Y-90304926D01*
X190560395Y-89260000D01*
X190919605Y-89260000D01*
X191964531Y-90304926D01*
X192241714Y-90194079D01*
X192395089Y-89883160D01*
X192484860Y-89548295D01*
X192507576Y-89202350D01*
X192462366Y-88858620D01*
X192350966Y-88530315D01*
X192241714Y-88325921D01*
X191964531Y-88215074D01*
X190919605Y-89260000D01*
X190560395Y-89260000D01*
X189515469Y-88215074D01*
X189238286Y-88325921D01*
X189084911Y-88636840D01*
X188995140Y-88971705D01*
X188972424Y-89317650D01*
X187420004Y-89317650D01*
X187427576Y-89202350D01*
X187382366Y-88858620D01*
X187270966Y-88530315D01*
X187161714Y-88325921D01*
X186884531Y-88215074D01*
X185839605Y-89260000D01*
X185480395Y-89260000D01*
X184435469Y-88215074D01*
X184158286Y-88325921D01*
X184004911Y-88636840D01*
X183915140Y-88971705D01*
X183892424Y-89317650D01*
X157085001Y-89317650D01*
X157085001Y-88035469D01*
X184615074Y-88035469D01*
X185660000Y-89080395D01*
X186704926Y-88035469D01*
X189695074Y-88035469D01*
X190740000Y-89080395D01*
X191784926Y-88035469D01*
X191674079Y-87758286D01*
X191363160Y-87604911D01*
X191028295Y-87515140D01*
X190682350Y-87492424D01*
X190338620Y-87537634D01*
X190010315Y-87649034D01*
X189805921Y-87758286D01*
X189695074Y-88035469D01*
X186704926Y-88035469D01*
X186594079Y-87758286D01*
X186283160Y-87604911D01*
X185948295Y-87515140D01*
X185602350Y-87492424D01*
X185258620Y-87537634D01*
X184930315Y-87649034D01*
X184725921Y-87758286D01*
X184615074Y-88035469D01*
X157085001Y-88035469D01*
X157085001Y-87733630D01*
X157096028Y-87726262D01*
X157226262Y-87596028D01*
X157328586Y-87442889D01*
X157399068Y-87272729D01*
X157435000Y-87092089D01*
X157435000Y-86907911D01*
X157399068Y-86727271D01*
X157328586Y-86557111D01*
X157226262Y-86403972D01*
X157096028Y-86273738D01*
X156942889Y-86171414D01*
X156772729Y-86100932D01*
X156592089Y-86065000D01*
X156407911Y-86065000D01*
X156227271Y-86100932D01*
X156127000Y-86142465D01*
X156127000Y-77000000D01*
X156124560Y-76975224D01*
X156117333Y-76951399D01*
X156105597Y-76929443D01*
X156089803Y-76910197D01*
X156070557Y-76894403D01*
X156048601Y-76882667D01*
X156024776Y-76875440D01*
X156000000Y-76873000D01*
X155000000Y-76873000D01*
X154975224Y-76875440D01*
X154951399Y-76882667D01*
X154929443Y-76894403D01*
X154910197Y-76910197D01*
X154894403Y-76929443D01*
X154882667Y-76951399D01*
X154875440Y-76975224D01*
X154873000Y-77000000D01*
X154873000Y-125865000D01*
X152885000Y-125865000D01*
X152885000Y-125516353D01*
X152882113Y-125487045D01*
X152882156Y-125480933D01*
X152881223Y-125471415D01*
X152860822Y-125277318D01*
X152848339Y-125216504D01*
X152836705Y-125155519D01*
X152833941Y-125146363D01*
X152776229Y-124959925D01*
X152752170Y-124902692D01*
X152728913Y-124845127D01*
X152724423Y-124836682D01*
X152631598Y-124665006D01*
X152596878Y-124613532D01*
X152562883Y-124561582D01*
X152556838Y-124554170D01*
X152432435Y-124403793D01*
X152388362Y-124360027D01*
X152344943Y-124315689D01*
X152337574Y-124309592D01*
X152186332Y-124186242D01*
X152134614Y-124151881D01*
X152083393Y-124116809D01*
X152074980Y-124112260D01*
X151902657Y-124020635D01*
X151845261Y-123996978D01*
X151788193Y-123972519D01*
X151779057Y-123969690D01*
X151592220Y-123913281D01*
X151531302Y-123901219D01*
X151470590Y-123888314D01*
X151461078Y-123887314D01*
X151266845Y-123868269D01*
X151266837Y-123868269D01*
X151233647Y-123865000D01*
X145666353Y-123865000D01*
X145637045Y-123867887D01*
X145630933Y-123867844D01*
X145621415Y-123868777D01*
X145427318Y-123889178D01*
X145366504Y-123901661D01*
X145305519Y-123913295D01*
X145296363Y-123916059D01*
X145109925Y-123973771D01*
X145052692Y-123997830D01*
X144995127Y-124021087D01*
X144986682Y-124025577D01*
X144815006Y-124118402D01*
X144763532Y-124153122D01*
X144711582Y-124187117D01*
X144704170Y-124193162D01*
X144553793Y-124317565D01*
X144510027Y-124361638D01*
X144465689Y-124405057D01*
X144459592Y-124412426D01*
X144336242Y-124563668D01*
X144301881Y-124615386D01*
X144266809Y-124666607D01*
X144262260Y-124675020D01*
X144170635Y-124847343D01*
X144146978Y-124904739D01*
X144122519Y-124961807D01*
X144119690Y-124970943D01*
X144063281Y-125157780D01*
X144051219Y-125218698D01*
X144038314Y-125279410D01*
X144037314Y-125288922D01*
X144018269Y-125483155D01*
X144018269Y-125483164D01*
X144015000Y-125516354D01*
X144015000Y-125865000D01*
X123935000Y-125865000D01*
X123935000Y-125516353D01*
X123932113Y-125487045D01*
X123932156Y-125480933D01*
X123931223Y-125471415D01*
X123910822Y-125277318D01*
X123898339Y-125216504D01*
X123886705Y-125155519D01*
X123883941Y-125146363D01*
X123826229Y-124959925D01*
X123802170Y-124902692D01*
X123778913Y-124845127D01*
X123774423Y-124836682D01*
X123681598Y-124665006D01*
X123646878Y-124613532D01*
X123612883Y-124561582D01*
X123606838Y-124554170D01*
X123482435Y-124403793D01*
X123438362Y-124360027D01*
X123394943Y-124315689D01*
X123387574Y-124309592D01*
X123236332Y-124186242D01*
X123184614Y-124151881D01*
X123133393Y-124116809D01*
X123124980Y-124112260D01*
X122952657Y-124020635D01*
X122895261Y-123996978D01*
X122838193Y-123972519D01*
X122829057Y-123969690D01*
X122642220Y-123913281D01*
X122581302Y-123901219D01*
X122520590Y-123888314D01*
X122511078Y-123887314D01*
X122316845Y-123868269D01*
X122316837Y-123868269D01*
X122283647Y-123865000D01*
X116716353Y-123865000D01*
X116687045Y-123867887D01*
X116680933Y-123867844D01*
X116671415Y-123868777D01*
X116477318Y-123889178D01*
X116416504Y-123901661D01*
X116355519Y-123913295D01*
X116346363Y-123916059D01*
X116159925Y-123973771D01*
X116102692Y-123997830D01*
X116045127Y-124021087D01*
X116036682Y-124025577D01*
X115865006Y-124118402D01*
X115813532Y-124153122D01*
X115761582Y-124187117D01*
X115754170Y-124193162D01*
X115603793Y-124317565D01*
X115560027Y-124361638D01*
X115515689Y-124405057D01*
X115509592Y-124412426D01*
X115386242Y-124563668D01*
X115351881Y-124615386D01*
X115316809Y-124666607D01*
X115312260Y-124675020D01*
X115220635Y-124847343D01*
X115196978Y-124904739D01*
X115172519Y-124961807D01*
X115169690Y-124970943D01*
X115113281Y-125157780D01*
X115101219Y-125218698D01*
X115088314Y-125279410D01*
X115087314Y-125288922D01*
X115068269Y-125483155D01*
X115068269Y-125483164D01*
X115065000Y-125516354D01*
X115065000Y-125865000D01*
X111750081Y-125865000D01*
X112545879Y-125333265D01*
X113233265Y-124645879D01*
X113773340Y-123837599D01*
X114145350Y-122939486D01*
X114335000Y-121986055D01*
X114335000Y-121013945D01*
X114292209Y-120798816D01*
X140715000Y-120798816D01*
X140715000Y-121101184D01*
X140773989Y-121397743D01*
X140889701Y-121677095D01*
X141057688Y-121928505D01*
X141271495Y-122142312D01*
X141522905Y-122310299D01*
X141802257Y-122426011D01*
X142098816Y-122485000D01*
X142401184Y-122485000D01*
X142697743Y-122426011D01*
X142977095Y-122310299D01*
X143228505Y-122142312D01*
X143442312Y-121928505D01*
X143610299Y-121677095D01*
X143726011Y-121397743D01*
X143785000Y-121101184D01*
X143785000Y-120798816D01*
X143726011Y-120502257D01*
X143610299Y-120222905D01*
X143442312Y-119971495D01*
X143228505Y-119757688D01*
X142977095Y-119589701D01*
X142697743Y-119473989D01*
X142401184Y-119415000D01*
X142098816Y-119415000D01*
X141802257Y-119473989D01*
X141522905Y-119589701D01*
X141271495Y-119757688D01*
X141057688Y-119971495D01*
X140889701Y-120222905D01*
X140773989Y-120502257D01*
X140715000Y-120798816D01*
X114292209Y-120798816D01*
X114145350Y-120060514D01*
X113773340Y-119162401D01*
X113233265Y-118354121D01*
X112545879Y-117666735D01*
X111737599Y-117126660D01*
X110839486Y-116754650D01*
X109886055Y-116565000D01*
X108913945Y-116565000D01*
X107960514Y-116754650D01*
X107062401Y-117126660D01*
X106254121Y-117666735D01*
X105566735Y-118354121D01*
X105085000Y-119075089D01*
X105085000Y-115718816D01*
X138175000Y-115718816D01*
X138175000Y-116021184D01*
X138233989Y-116317743D01*
X138349701Y-116597095D01*
X138517688Y-116848505D01*
X138731495Y-117062312D01*
X138982905Y-117230299D01*
X139262257Y-117346011D01*
X139558816Y-117405000D01*
X139861184Y-117405000D01*
X140157743Y-117346011D01*
X140437095Y-117230299D01*
X140688505Y-117062312D01*
X140902312Y-116848505D01*
X141070299Y-116597095D01*
X141186011Y-116317743D01*
X141245000Y-116021184D01*
X141245000Y-115718816D01*
X141186011Y-115422257D01*
X141070299Y-115142905D01*
X140902312Y-114891495D01*
X140688505Y-114677688D01*
X140437095Y-114509701D01*
X140157743Y-114393989D01*
X139861184Y-114335000D01*
X139558816Y-114335000D01*
X139262257Y-114393989D01*
X138982905Y-114509701D01*
X138731495Y-114677688D01*
X138517688Y-114891495D01*
X138349701Y-115142905D01*
X138233989Y-115422257D01*
X138175000Y-115718816D01*
X105085000Y-115718816D01*
X105085000Y-115116353D01*
X105082723Y-115093233D01*
X105028186Y-114289524D01*
X105026874Y-114280227D01*
X105026661Y-114270840D01*
X105016828Y-114203435D01*
X104806894Y-113138312D01*
X104802788Y-113123303D01*
X104800193Y-113107961D01*
X104780733Y-113042682D01*
X104684585Y-112770411D01*
X129202500Y-112770411D01*
X129202500Y-112954589D01*
X129238432Y-113135229D01*
X129308914Y-113305389D01*
X129411238Y-113458528D01*
X129541472Y-113588762D01*
X129694611Y-113691086D01*
X129864771Y-113761568D01*
X130045411Y-113797500D01*
X130229589Y-113797500D01*
X130410229Y-113761568D01*
X130580389Y-113691086D01*
X130683035Y-113622500D01*
X134275180Y-113622500D01*
X134312502Y-113626176D01*
X134349824Y-113622500D01*
X134349835Y-113622500D01*
X134461488Y-113611503D01*
X134604749Y-113568046D01*
X134736778Y-113497474D01*
X134852503Y-113402501D01*
X134876306Y-113373497D01*
X140150987Y-108098816D01*
X140715000Y-108098816D01*
X140715000Y-108401184D01*
X140773989Y-108697743D01*
X140889701Y-108977095D01*
X141057688Y-109228505D01*
X141271495Y-109442312D01*
X141522905Y-109610299D01*
X141802257Y-109726011D01*
X142098816Y-109785000D01*
X142401184Y-109785000D01*
X142697743Y-109726011D01*
X142977095Y-109610299D01*
X143228505Y-109442312D01*
X143442312Y-109228505D01*
X143610299Y-108977095D01*
X143726011Y-108697743D01*
X143785000Y-108401184D01*
X143785000Y-108098816D01*
X143726011Y-107802257D01*
X143610299Y-107522905D01*
X143442312Y-107271495D01*
X143228505Y-107057688D01*
X142977095Y-106889701D01*
X142697743Y-106773989D01*
X142401184Y-106715000D01*
X142098816Y-106715000D01*
X141802257Y-106773989D01*
X141522905Y-106889701D01*
X141271495Y-107057688D01*
X141057688Y-107271495D01*
X140889701Y-107522905D01*
X140773989Y-107802257D01*
X140715000Y-108098816D01*
X140150987Y-108098816D01*
X146591892Y-101657911D01*
X148315000Y-101657911D01*
X148315000Y-101842089D01*
X148350932Y-102022729D01*
X148421414Y-102192889D01*
X148523738Y-102346028D01*
X148653972Y-102476262D01*
X148807111Y-102578586D01*
X148977271Y-102649068D01*
X149157911Y-102685000D01*
X149342089Y-102685000D01*
X149522729Y-102649068D01*
X149692889Y-102578586D01*
X149846028Y-102476262D01*
X149976262Y-102346028D01*
X150078586Y-102192889D01*
X150149068Y-102022729D01*
X150173153Y-101901648D01*
X152761004Y-99313798D01*
X152790001Y-99290001D01*
X152884974Y-99174276D01*
X152955546Y-99042247D01*
X152999003Y-98898986D01*
X153009052Y-98796954D01*
X153078586Y-98692889D01*
X153149068Y-98522729D01*
X153185000Y-98342089D01*
X153185000Y-98157911D01*
X153149068Y-97977271D01*
X153078586Y-97807111D01*
X152976262Y-97653972D01*
X152846028Y-97523738D01*
X152692889Y-97421414D01*
X152522729Y-97350932D01*
X152342089Y-97315000D01*
X152157911Y-97315000D01*
X151977271Y-97350932D01*
X151807111Y-97421414D01*
X151653972Y-97523738D01*
X151523738Y-97653972D01*
X151421414Y-97807111D01*
X151350932Y-97977271D01*
X151315000Y-98157911D01*
X151315000Y-98342089D01*
X151350932Y-98522729D01*
X151366027Y-98559171D01*
X149098352Y-100826847D01*
X148977271Y-100850932D01*
X148807111Y-100921414D01*
X148653972Y-101023738D01*
X148523738Y-101153972D01*
X148421414Y-101307111D01*
X148350932Y-101477271D01*
X148315000Y-101657911D01*
X146591892Y-101657911D01*
X148623504Y-99626300D01*
X148652501Y-99602503D01*
X148747474Y-99486778D01*
X148818046Y-99354749D01*
X148861503Y-99211488D01*
X148862889Y-99197420D01*
X148941086Y-99080389D01*
X149011568Y-98910229D01*
X149047500Y-98729589D01*
X149047500Y-98545411D01*
X149011568Y-98364771D01*
X148941086Y-98194611D01*
X148838762Y-98041472D01*
X148708528Y-97911238D01*
X148555389Y-97808914D01*
X148385229Y-97738432D01*
X148204589Y-97702500D01*
X148020411Y-97702500D01*
X147839771Y-97738432D01*
X147669611Y-97808914D01*
X147516472Y-97911238D01*
X147386238Y-98041472D01*
X147283914Y-98194611D01*
X147213432Y-98364771D01*
X147177500Y-98545411D01*
X147177500Y-98729589D01*
X147209540Y-98890660D01*
X144647500Y-101452700D01*
X144647500Y-98674822D01*
X144651176Y-98637499D01*
X144647500Y-98600176D01*
X144647500Y-98600167D01*
X144636503Y-98488514D01*
X144593046Y-98345253D01*
X144522474Y-98213224D01*
X144427501Y-98097499D01*
X144398503Y-98073701D01*
X140563804Y-94239003D01*
X140540001Y-94209999D01*
X140424276Y-94115026D01*
X140292247Y-94044454D01*
X140148986Y-94000997D01*
X140037333Y-93990000D01*
X140037322Y-93990000D01*
X140000000Y-93986324D01*
X139962678Y-93990000D01*
X134045535Y-93990000D01*
X133942889Y-93921414D01*
X133772729Y-93850932D01*
X133592089Y-93815000D01*
X133407911Y-93815000D01*
X133227271Y-93850932D01*
X133057111Y-93921414D01*
X132903972Y-94023738D01*
X132773738Y-94153972D01*
X132671414Y-94307111D01*
X132600932Y-94477271D01*
X132565000Y-94657911D01*
X132565000Y-94842089D01*
X132600932Y-95022729D01*
X132671414Y-95192889D01*
X132773738Y-95346028D01*
X132903972Y-95476262D01*
X133057111Y-95578586D01*
X133227271Y-95649068D01*
X133407911Y-95685000D01*
X133592089Y-95685000D01*
X133772729Y-95649068D01*
X133942889Y-95578586D01*
X134045535Y-95510000D01*
X139685199Y-95510000D01*
X142778535Y-98603337D01*
X142772729Y-98600932D01*
X142592089Y-98565000D01*
X142407911Y-98565000D01*
X142227271Y-98600932D01*
X142057111Y-98671414D01*
X141954465Y-98740000D01*
X138564802Y-98740000D01*
X136423153Y-96598352D01*
X136399068Y-96477271D01*
X136328586Y-96307111D01*
X136226262Y-96153972D01*
X136096028Y-96023738D01*
X135942889Y-95921414D01*
X135772729Y-95850932D01*
X135592089Y-95815000D01*
X135407911Y-95815000D01*
X135227271Y-95850932D01*
X135057111Y-95921414D01*
X134903972Y-96023738D01*
X134773738Y-96153972D01*
X134671414Y-96307111D01*
X134600932Y-96477271D01*
X134565000Y-96657911D01*
X134565000Y-96842089D01*
X134600932Y-97022729D01*
X134671414Y-97192889D01*
X134773738Y-97346028D01*
X134903972Y-97476262D01*
X135057111Y-97578586D01*
X135227271Y-97649068D01*
X135348352Y-97673153D01*
X137686201Y-100011003D01*
X137709999Y-100040001D01*
X137825724Y-100134974D01*
X137957753Y-100205546D01*
X138101014Y-100249003D01*
X138212667Y-100260000D01*
X138212676Y-100260000D01*
X138249999Y-100263676D01*
X138287322Y-100260000D01*
X141954465Y-100260000D01*
X142057111Y-100328586D01*
X142227271Y-100399068D01*
X142407911Y-100435000D01*
X142592089Y-100435000D01*
X142772729Y-100399068D01*
X142942889Y-100328586D01*
X143096028Y-100226262D01*
X143127501Y-100194789D01*
X143127500Y-101816964D01*
X143058914Y-101919611D01*
X142988432Y-102089771D01*
X142952500Y-102270411D01*
X142952500Y-102454589D01*
X142988432Y-102635229D01*
X143058914Y-102805389D01*
X143153401Y-102946799D01*
X133997701Y-112102500D01*
X130683035Y-112102500D01*
X130580389Y-112033914D01*
X130410229Y-111963432D01*
X130229589Y-111927500D01*
X130045411Y-111927500D01*
X129864771Y-111963432D01*
X129694611Y-112033914D01*
X129541472Y-112136238D01*
X129411238Y-112266472D01*
X129308914Y-112419611D01*
X129238432Y-112589771D01*
X129202500Y-112770411D01*
X104684585Y-112770411D01*
X104419241Y-112019021D01*
X104413012Y-112004764D01*
X104408229Y-111989955D01*
X104379548Y-111928169D01*
X103874070Y-110967414D01*
X103865849Y-110954206D01*
X103858978Y-110940243D01*
X103821679Y-110883244D01*
X103662483Y-110664531D01*
X108215074Y-110664531D01*
X108325921Y-110941714D01*
X108636840Y-111095089D01*
X108971705Y-111184860D01*
X109317650Y-111207576D01*
X109661380Y-111162366D01*
X109989685Y-111050966D01*
X110194079Y-110941714D01*
X110304926Y-110664531D01*
X113295074Y-110664531D01*
X113405921Y-110941714D01*
X113716840Y-111095089D01*
X114051705Y-111184860D01*
X114397650Y-111207576D01*
X114741380Y-111162366D01*
X115069685Y-111050966D01*
X115274079Y-110941714D01*
X115384926Y-110664531D01*
X114340000Y-109619605D01*
X113295074Y-110664531D01*
X110304926Y-110664531D01*
X109260000Y-109619605D01*
X108215074Y-110664531D01*
X103662483Y-110664531D01*
X103182805Y-110005521D01*
X103172760Y-109993634D01*
X103163948Y-109980813D01*
X103118812Y-109929795D01*
X102696362Y-109497650D01*
X107492424Y-109497650D01*
X107537634Y-109841380D01*
X107649034Y-110169685D01*
X107758286Y-110374079D01*
X108035469Y-110484926D01*
X109080395Y-109440000D01*
X109439605Y-109440000D01*
X110484531Y-110484926D01*
X110761714Y-110374079D01*
X110915089Y-110063160D01*
X111004860Y-109728295D01*
X111020004Y-109497650D01*
X112572424Y-109497650D01*
X112617634Y-109841380D01*
X112729034Y-110169685D01*
X112838286Y-110374079D01*
X113115469Y-110484926D01*
X114160395Y-109440000D01*
X114519605Y-109440000D01*
X115564531Y-110484926D01*
X115841714Y-110374079D01*
X115995089Y-110063160D01*
X116084860Y-109728295D01*
X116107576Y-109382350D01*
X116062366Y-109038620D01*
X115950966Y-108710315D01*
X115841714Y-108505921D01*
X115564531Y-108395074D01*
X114519605Y-109440000D01*
X114160395Y-109440000D01*
X113115469Y-108395074D01*
X112838286Y-108505921D01*
X112684911Y-108816840D01*
X112595140Y-109151705D01*
X112572424Y-109497650D01*
X111020004Y-109497650D01*
X111027576Y-109382350D01*
X110982366Y-109038620D01*
X110870966Y-108710315D01*
X110761714Y-108505921D01*
X110484531Y-108395074D01*
X109439605Y-109440000D01*
X109080395Y-109440000D01*
X108035469Y-108395074D01*
X107758286Y-108505921D01*
X107604911Y-108816840D01*
X107515140Y-109151705D01*
X107492424Y-109497650D01*
X102696362Y-109497650D01*
X102359924Y-109153491D01*
X102348273Y-109143183D01*
X102337698Y-109131763D01*
X102285669Y-109087796D01*
X101422666Y-108429173D01*
X101409643Y-108420651D01*
X101397536Y-108410882D01*
X101339706Y-108374885D01*
X101052703Y-108215469D01*
X108215074Y-108215469D01*
X109260000Y-109260395D01*
X110304926Y-108215469D01*
X110194079Y-107938286D01*
X109883160Y-107784911D01*
X109548295Y-107695140D01*
X109202350Y-107672424D01*
X108858620Y-107717634D01*
X108530315Y-107829034D01*
X108325921Y-107938286D01*
X108215074Y-108215469D01*
X101052703Y-108215469D01*
X100390666Y-107847741D01*
X100376553Y-107841190D01*
X100363159Y-107833269D01*
X100300738Y-107805997D01*
X99285543Y-107421374D01*
X99270630Y-107416928D01*
X99256234Y-107411024D01*
X99190542Y-107393052D01*
X99190531Y-107393049D01*
X99190528Y-107393049D01*
X98130445Y-107159005D01*
X98115047Y-107156759D01*
X98099951Y-107152995D01*
X98032341Y-107144693D01*
X96949572Y-107066129D01*
X96945019Y-107066129D01*
X96548103Y-107027211D01*
X96209608Y-106925013D01*
X95897412Y-106759016D01*
X95869810Y-106736504D01*
X110140000Y-106736504D01*
X110140000Y-107063496D01*
X110203793Y-107384204D01*
X110328927Y-107686305D01*
X110510594Y-107958188D01*
X110741812Y-108189406D01*
X111013695Y-108371073D01*
X111315796Y-108496207D01*
X111636504Y-108560000D01*
X111963496Y-108560000D01*
X112284204Y-108496207D01*
X112586305Y-108371073D01*
X112819182Y-108215469D01*
X113295074Y-108215469D01*
X114340000Y-109260395D01*
X115384926Y-108215469D01*
X115274079Y-107938286D01*
X114963160Y-107784911D01*
X114628295Y-107695140D01*
X114282350Y-107672424D01*
X113938620Y-107717634D01*
X113610315Y-107829034D01*
X113405921Y-107938286D01*
X113295074Y-108215469D01*
X112819182Y-108215469D01*
X112858188Y-108189406D01*
X113089406Y-107958188D01*
X113271073Y-107686305D01*
X113396207Y-107384204D01*
X113460000Y-107063496D01*
X113460000Y-106736504D01*
X113396207Y-106415796D01*
X113271073Y-106113695D01*
X113089406Y-105841812D01*
X112858188Y-105610594D01*
X112819183Y-105584531D01*
X113295074Y-105584531D01*
X113405921Y-105861714D01*
X113716840Y-106015089D01*
X114051705Y-106104860D01*
X114397650Y-106127576D01*
X114741380Y-106082366D01*
X115069685Y-105970966D01*
X115274079Y-105861714D01*
X115384926Y-105584531D01*
X114340000Y-104539605D01*
X113295074Y-105584531D01*
X112819183Y-105584531D01*
X112586305Y-105428927D01*
X112284204Y-105303793D01*
X111963496Y-105240000D01*
X111636504Y-105240000D01*
X111315796Y-105303793D01*
X111013695Y-105428927D01*
X110741812Y-105610594D01*
X110510594Y-105841812D01*
X110328927Y-106113695D01*
X110203793Y-106415796D01*
X110140000Y-106736504D01*
X95869810Y-106736504D01*
X95623401Y-106535539D01*
X95398020Y-106263098D01*
X95229847Y-105952069D01*
X95125289Y-105614296D01*
X95122161Y-105584531D01*
X108215074Y-105584531D01*
X108325921Y-105861714D01*
X108636840Y-106015089D01*
X108971705Y-106104860D01*
X109317650Y-106127576D01*
X109661380Y-106082366D01*
X109989685Y-105970966D01*
X110194079Y-105861714D01*
X110304926Y-105584531D01*
X109260000Y-104539605D01*
X108215074Y-105584531D01*
X95122161Y-105584531D01*
X95085000Y-105230977D01*
X95085000Y-104417650D01*
X107492424Y-104417650D01*
X107537634Y-104761380D01*
X107649034Y-105089685D01*
X107758286Y-105294079D01*
X108035469Y-105404926D01*
X109080395Y-104360000D01*
X109439605Y-104360000D01*
X110484531Y-105404926D01*
X110761714Y-105294079D01*
X110915089Y-104983160D01*
X111004860Y-104648295D01*
X111020004Y-104417650D01*
X112572424Y-104417650D01*
X112617634Y-104761380D01*
X112729034Y-105089685D01*
X112838286Y-105294079D01*
X113115469Y-105404926D01*
X114160395Y-104360000D01*
X114519605Y-104360000D01*
X115564531Y-105404926D01*
X115841714Y-105294079D01*
X115995089Y-104983160D01*
X116084860Y-104648295D01*
X116107576Y-104302350D01*
X116062366Y-103958620D01*
X115950966Y-103630315D01*
X115841714Y-103425921D01*
X115564531Y-103315074D01*
X114519605Y-104360000D01*
X114160395Y-104360000D01*
X113115469Y-103315074D01*
X112838286Y-103425921D01*
X112684911Y-103736840D01*
X112595140Y-104071705D01*
X112572424Y-104417650D01*
X111020004Y-104417650D01*
X111027576Y-104302350D01*
X110982366Y-103958620D01*
X110870966Y-103630315D01*
X110761714Y-103425921D01*
X110484531Y-103315074D01*
X109439605Y-104360000D01*
X109080395Y-104360000D01*
X108035469Y-103315074D01*
X107758286Y-103425921D01*
X107604911Y-103736840D01*
X107515140Y-104071705D01*
X107492424Y-104417650D01*
X95085000Y-104417650D01*
X95085000Y-103135469D01*
X108215074Y-103135469D01*
X109260000Y-104180395D01*
X110304926Y-103135469D01*
X113295074Y-103135469D01*
X114340000Y-104180395D01*
X115384926Y-103135469D01*
X115274079Y-102858286D01*
X114963160Y-102704911D01*
X114628295Y-102615140D01*
X114282350Y-102592424D01*
X113938620Y-102637634D01*
X113610315Y-102749034D01*
X113405921Y-102858286D01*
X113295074Y-103135469D01*
X110304926Y-103135469D01*
X110194079Y-102858286D01*
X109883160Y-102704911D01*
X109548295Y-102615140D01*
X109202350Y-102592424D01*
X108858620Y-102637634D01*
X108530315Y-102749034D01*
X108325921Y-102858286D01*
X108215074Y-103135469D01*
X95085000Y-103135469D01*
X95085000Y-101985000D01*
X95433647Y-101985000D01*
X95462955Y-101982113D01*
X95469066Y-101982156D01*
X95478585Y-101981223D01*
X95672682Y-101960822D01*
X95733496Y-101948339D01*
X95794481Y-101936705D01*
X95803637Y-101933941D01*
X95990075Y-101876229D01*
X96047279Y-101852182D01*
X96104873Y-101828913D01*
X96113317Y-101824423D01*
X96284994Y-101731598D01*
X96336468Y-101696878D01*
X96388418Y-101662883D01*
X96395829Y-101656839D01*
X96546207Y-101532435D01*
X96589973Y-101488362D01*
X96634311Y-101444943D01*
X96640408Y-101437574D01*
X96763758Y-101286332D01*
X96798126Y-101234603D01*
X96833191Y-101183392D01*
X96837739Y-101174981D01*
X96837740Y-101174980D01*
X96837742Y-101174976D01*
X96929366Y-101002657D01*
X96953022Y-100945261D01*
X96977482Y-100888193D01*
X96980310Y-100879056D01*
X97036719Y-100692220D01*
X97048780Y-100631310D01*
X97061686Y-100570591D01*
X97062686Y-100561079D01*
X97081731Y-100366845D01*
X97081731Y-100366837D01*
X97085000Y-100333647D01*
X97085000Y-95564531D01*
X108165074Y-95564531D01*
X108275921Y-95841714D01*
X108586840Y-95995089D01*
X108921705Y-96084860D01*
X109267650Y-96107576D01*
X109611380Y-96062366D01*
X109939685Y-95950966D01*
X110144079Y-95841714D01*
X110254926Y-95564531D01*
X113245074Y-95564531D01*
X113355921Y-95841714D01*
X113666840Y-95995089D01*
X114001705Y-96084860D01*
X114347650Y-96107576D01*
X114691380Y-96062366D01*
X115019685Y-95950966D01*
X115224079Y-95841714D01*
X115334926Y-95564531D01*
X114290000Y-94519605D01*
X113245074Y-95564531D01*
X110254926Y-95564531D01*
X109210000Y-94519605D01*
X108165074Y-95564531D01*
X97085000Y-95564531D01*
X97085000Y-94766353D01*
X97082113Y-94737045D01*
X97082156Y-94730933D01*
X97081223Y-94721415D01*
X97060822Y-94527318D01*
X97048339Y-94466504D01*
X97036705Y-94405519D01*
X97034330Y-94397650D01*
X107442424Y-94397650D01*
X107487634Y-94741380D01*
X107599034Y-95069685D01*
X107708286Y-95274079D01*
X107985469Y-95384926D01*
X109030395Y-94340000D01*
X109389605Y-94340000D01*
X110434531Y-95384926D01*
X110711714Y-95274079D01*
X110865089Y-94963160D01*
X110954860Y-94628295D01*
X110970004Y-94397650D01*
X112522424Y-94397650D01*
X112567634Y-94741380D01*
X112679034Y-95069685D01*
X112788286Y-95274079D01*
X113065469Y-95384926D01*
X114110395Y-94340000D01*
X114469605Y-94340000D01*
X115514531Y-95384926D01*
X115791714Y-95274079D01*
X115945089Y-94963160D01*
X116034860Y-94628295D01*
X116057576Y-94282350D01*
X116012366Y-93938620D01*
X115900966Y-93610315D01*
X115791714Y-93405921D01*
X115514531Y-93295074D01*
X114469605Y-94340000D01*
X114110395Y-94340000D01*
X113065469Y-93295074D01*
X112788286Y-93405921D01*
X112634911Y-93716840D01*
X112545140Y-94051705D01*
X112522424Y-94397650D01*
X110970004Y-94397650D01*
X110977576Y-94282350D01*
X110932366Y-93938620D01*
X110820966Y-93610315D01*
X110711714Y-93405921D01*
X110434531Y-93295074D01*
X109389605Y-94340000D01*
X109030395Y-94340000D01*
X107985469Y-93295074D01*
X107708286Y-93405921D01*
X107554911Y-93716840D01*
X107465140Y-94051705D01*
X107442424Y-94397650D01*
X97034330Y-94397650D01*
X97033941Y-94396363D01*
X96976229Y-94209925D01*
X96952170Y-94152692D01*
X96928913Y-94095127D01*
X96924423Y-94086682D01*
X96831598Y-93915006D01*
X96796878Y-93863532D01*
X96762883Y-93811582D01*
X96756838Y-93804170D01*
X96632435Y-93653793D01*
X96588362Y-93610027D01*
X96544943Y-93565689D01*
X96537574Y-93559592D01*
X96386332Y-93436242D01*
X96334614Y-93401881D01*
X96283393Y-93366809D01*
X96274980Y-93362260D01*
X96102657Y-93270635D01*
X96045261Y-93246978D01*
X95988193Y-93222519D01*
X95979057Y-93219690D01*
X95792220Y-93163281D01*
X95731302Y-93151219D01*
X95670590Y-93138314D01*
X95661078Y-93137314D01*
X95466845Y-93118269D01*
X95466837Y-93118269D01*
X95438409Y-93115469D01*
X108165074Y-93115469D01*
X109210000Y-94160395D01*
X110254926Y-93115469D01*
X110144079Y-92838286D01*
X109833160Y-92684911D01*
X109498295Y-92595140D01*
X109152350Y-92572424D01*
X108808620Y-92617634D01*
X108480315Y-92729034D01*
X108275921Y-92838286D01*
X108165074Y-93115469D01*
X95438409Y-93115469D01*
X95433647Y-93115000D01*
X95085000Y-93115000D01*
X95085000Y-91636504D01*
X110090000Y-91636504D01*
X110090000Y-91963496D01*
X110153793Y-92284204D01*
X110278927Y-92586305D01*
X110460594Y-92858188D01*
X110691812Y-93089406D01*
X110963695Y-93271073D01*
X111265796Y-93396207D01*
X111586504Y-93460000D01*
X111913496Y-93460000D01*
X112234204Y-93396207D01*
X112536305Y-93271073D01*
X112769182Y-93115469D01*
X113245074Y-93115469D01*
X114290000Y-94160395D01*
X115334926Y-93115469D01*
X115224079Y-92838286D01*
X114913160Y-92684911D01*
X114578295Y-92595140D01*
X114232350Y-92572424D01*
X113888620Y-92617634D01*
X113560315Y-92729034D01*
X113355921Y-92838286D01*
X113245074Y-93115469D01*
X112769182Y-93115469D01*
X112808188Y-93089406D01*
X113039406Y-92858188D01*
X113221073Y-92586305D01*
X113346207Y-92284204D01*
X113410000Y-91963496D01*
X113410000Y-91636504D01*
X113346207Y-91315796D01*
X113221073Y-91013695D01*
X113039406Y-90741812D01*
X112808188Y-90510594D01*
X112769183Y-90484531D01*
X113245074Y-90484531D01*
X113355921Y-90761714D01*
X113666840Y-90915089D01*
X114001705Y-91004860D01*
X114347650Y-91027576D01*
X114691380Y-90982366D01*
X115019685Y-90870966D01*
X115224079Y-90761714D01*
X115334926Y-90484531D01*
X114290000Y-89439605D01*
X113245074Y-90484531D01*
X112769183Y-90484531D01*
X112536305Y-90328927D01*
X112234204Y-90203793D01*
X111913496Y-90140000D01*
X111586504Y-90140000D01*
X111265796Y-90203793D01*
X110963695Y-90328927D01*
X110691812Y-90510594D01*
X110460594Y-90741812D01*
X110278927Y-91013695D01*
X110153793Y-91315796D01*
X110090000Y-91636504D01*
X95085000Y-91636504D01*
X95085000Y-90484531D01*
X108165074Y-90484531D01*
X108275921Y-90761714D01*
X108586840Y-90915089D01*
X108921705Y-91004860D01*
X109267650Y-91027576D01*
X109611380Y-90982366D01*
X109939685Y-90870966D01*
X110144079Y-90761714D01*
X110254926Y-90484531D01*
X109210000Y-89439605D01*
X108165074Y-90484531D01*
X95085000Y-90484531D01*
X95085000Y-89317650D01*
X107442424Y-89317650D01*
X107487634Y-89661380D01*
X107599034Y-89989685D01*
X107708286Y-90194079D01*
X107985469Y-90304926D01*
X109030395Y-89260000D01*
X109389605Y-89260000D01*
X110434531Y-90304926D01*
X110711714Y-90194079D01*
X110865089Y-89883160D01*
X110954860Y-89548295D01*
X110970004Y-89317650D01*
X112522424Y-89317650D01*
X112567634Y-89661380D01*
X112679034Y-89989685D01*
X112788286Y-90194079D01*
X113065469Y-90304926D01*
X114110395Y-89260000D01*
X114469605Y-89260000D01*
X115514531Y-90304926D01*
X115791714Y-90194079D01*
X115945089Y-89883160D01*
X116034860Y-89548295D01*
X116057576Y-89202350D01*
X116012366Y-88858620D01*
X115900966Y-88530315D01*
X115791714Y-88325921D01*
X115514531Y-88215074D01*
X114469605Y-89260000D01*
X114110395Y-89260000D01*
X113065469Y-88215074D01*
X112788286Y-88325921D01*
X112634911Y-88636840D01*
X112545140Y-88971705D01*
X112522424Y-89317650D01*
X110970004Y-89317650D01*
X110977576Y-89202350D01*
X110932366Y-88858620D01*
X110820966Y-88530315D01*
X110711714Y-88325921D01*
X110434531Y-88215074D01*
X109389605Y-89260000D01*
X109030395Y-89260000D01*
X107985469Y-88215074D01*
X107708286Y-88325921D01*
X107554911Y-88636840D01*
X107465140Y-88971705D01*
X107442424Y-89317650D01*
X95085000Y-89317650D01*
X95085000Y-88035469D01*
X108165074Y-88035469D01*
X109210000Y-89080395D01*
X110254926Y-88035469D01*
X113245074Y-88035469D01*
X114290000Y-89080395D01*
X115334926Y-88035469D01*
X115224079Y-87758286D01*
X114913160Y-87604911D01*
X114578295Y-87515140D01*
X114232350Y-87492424D01*
X113888620Y-87537634D01*
X113560315Y-87649034D01*
X113355921Y-87758286D01*
X113245074Y-88035469D01*
X110254926Y-88035469D01*
X110144079Y-87758286D01*
X109833160Y-87604911D01*
X109498295Y-87515140D01*
X109152350Y-87492424D01*
X108808620Y-87537634D01*
X108480315Y-87649034D01*
X108275921Y-87758286D01*
X108165074Y-88035469D01*
X95085000Y-88035469D01*
X95085000Y-81083504D01*
X95122789Y-80698103D01*
X95224987Y-80359607D01*
X95390984Y-80047412D01*
X95614460Y-79773403D01*
X95886902Y-79548020D01*
X96197931Y-79379847D01*
X96535708Y-79275288D01*
X96929894Y-79233857D01*
X96941818Y-79233722D01*
X97855838Y-79177818D01*
X97867408Y-79176264D01*
X97879079Y-79175999D01*
X97946484Y-79166166D01*
X99011512Y-78956251D01*
X99026521Y-78952145D01*
X99041863Y-78949550D01*
X99107143Y-78930090D01*
X100130712Y-78568629D01*
X100144971Y-78562399D01*
X100159777Y-78557617D01*
X100221563Y-78528937D01*
X101182234Y-78023505D01*
X101195445Y-78015282D01*
X101209406Y-78008412D01*
X101266405Y-77971113D01*
X102144050Y-77332295D01*
X102155936Y-77322251D01*
X102168758Y-77313438D01*
X102219775Y-77268302D01*
X102511810Y-76982818D01*
X106096787Y-76982818D01*
X106588946Y-77585149D01*
X107439933Y-78055063D01*
X108366243Y-78349929D01*
X109332281Y-78458414D01*
X110300921Y-78376351D01*
X111234938Y-78106893D01*
X111925147Y-77750000D01*
X124365000Y-77750000D01*
X124365000Y-86000000D01*
X124377201Y-86123882D01*
X124413336Y-86243004D01*
X124472017Y-86352787D01*
X124550987Y-86449013D01*
X124647213Y-86527983D01*
X124756996Y-86586664D01*
X124876118Y-86622799D01*
X125000000Y-86635000D01*
X133000000Y-86635000D01*
X133123882Y-86622799D01*
X133243004Y-86586664D01*
X133352787Y-86527983D01*
X133449013Y-86449013D01*
X133527983Y-86352787D01*
X133586664Y-86243004D01*
X133622799Y-86123882D01*
X133635000Y-86000000D01*
X133635000Y-77750000D01*
X133622799Y-77626118D01*
X133586664Y-77506996D01*
X133527983Y-77397213D01*
X133449013Y-77300987D01*
X133352787Y-77222017D01*
X133243004Y-77163336D01*
X133123882Y-77127201D01*
X133000000Y-77115000D01*
X125000000Y-77115000D01*
X124876118Y-77127201D01*
X124756996Y-77163336D01*
X124647213Y-77222017D01*
X124550987Y-77300987D01*
X124472017Y-77397213D01*
X124413336Y-77506996D01*
X124377201Y-77626118D01*
X124365000Y-77750000D01*
X111925147Y-77750000D01*
X112098440Y-77660394D01*
X112211054Y-77585149D01*
X112703213Y-76982818D01*
X109400000Y-73679605D01*
X106096787Y-76982818D01*
X102511810Y-76982818D01*
X102996010Y-76509481D01*
X103006317Y-76497831D01*
X103017737Y-76487256D01*
X103061705Y-76435227D01*
X103720269Y-75572302D01*
X103728790Y-75559280D01*
X103738560Y-75547172D01*
X103774556Y-75489342D01*
X104301654Y-74540387D01*
X104308204Y-74526276D01*
X104316127Y-74512879D01*
X104343398Y-74450458D01*
X104494138Y-74052586D01*
X104523649Y-74400921D01*
X104793107Y-75334938D01*
X105239606Y-76198440D01*
X105314851Y-76311054D01*
X105917182Y-76803213D01*
X109220395Y-73500000D01*
X109579605Y-73500000D01*
X112882818Y-76803213D01*
X113485149Y-76311054D01*
X113955063Y-75460067D01*
X114212926Y-74650000D01*
X129731928Y-74650000D01*
X129731928Y-76350000D01*
X129744188Y-76474482D01*
X129780498Y-76594180D01*
X129839463Y-76704494D01*
X129918815Y-76801185D01*
X130015506Y-76880537D01*
X130125820Y-76939502D01*
X130245518Y-76975812D01*
X130370000Y-76988072D01*
X132070000Y-76988072D01*
X132194482Y-76975812D01*
X132314180Y-76939502D01*
X132424494Y-76880537D01*
X132521185Y-76801185D01*
X132600537Y-76704494D01*
X132659502Y-76594180D01*
X132683966Y-76513534D01*
X132759731Y-76597588D01*
X132993080Y-76771641D01*
X133255901Y-76896825D01*
X133403110Y-76941476D01*
X133633000Y-76820155D01*
X133633000Y-75627000D01*
X133613000Y-75627000D01*
X133613000Y-75373000D01*
X133633000Y-75373000D01*
X133633000Y-74179845D01*
X133887000Y-74179845D01*
X133887000Y-75373000D01*
X133907000Y-75373000D01*
X133907000Y-75627000D01*
X133887000Y-75627000D01*
X133887000Y-76820155D01*
X134116890Y-76941476D01*
X134264099Y-76896825D01*
X134526920Y-76771641D01*
X134760269Y-76597588D01*
X134955178Y-76381355D01*
X135024805Y-76264466D01*
X135146525Y-76446632D01*
X135353368Y-76653475D01*
X135596589Y-76815990D01*
X135866842Y-76927932D01*
X136153740Y-76985000D01*
X136446260Y-76985000D01*
X136733158Y-76927932D01*
X137003411Y-76815990D01*
X137246632Y-76653475D01*
X137453475Y-76446632D01*
X137615990Y-76203411D01*
X137727932Y-75933158D01*
X137785000Y-75646260D01*
X137785000Y-75353740D01*
X137727932Y-75066842D01*
X137615990Y-74796589D01*
X137453475Y-74553368D01*
X137246632Y-74346525D01*
X137003411Y-74184010D01*
X136733158Y-74072068D01*
X136446260Y-74015000D01*
X136153740Y-74015000D01*
X135866842Y-74072068D01*
X135596589Y-74184010D01*
X135353368Y-74346525D01*
X135146525Y-74553368D01*
X135024805Y-74735534D01*
X134955178Y-74618645D01*
X134760269Y-74402412D01*
X134526920Y-74228359D01*
X134264099Y-74103175D01*
X134116890Y-74058524D01*
X133887000Y-74179845D01*
X133633000Y-74179845D01*
X133403110Y-74058524D01*
X133255901Y-74103175D01*
X132993080Y-74228359D01*
X132759731Y-74402412D01*
X132683966Y-74486466D01*
X132659502Y-74405820D01*
X132600537Y-74295506D01*
X132521185Y-74198815D01*
X132424494Y-74119463D01*
X132314180Y-74060498D01*
X132194482Y-74024188D01*
X132070000Y-74011928D01*
X130370000Y-74011928D01*
X130245518Y-74024188D01*
X130125820Y-74060498D01*
X130015506Y-74119463D01*
X129918815Y-74198815D01*
X129839463Y-74295506D01*
X129780498Y-74405820D01*
X129744188Y-74525518D01*
X129731928Y-74650000D01*
X114212926Y-74650000D01*
X114249929Y-74533757D01*
X114358414Y-73567719D01*
X114276351Y-72599079D01*
X114006893Y-71665062D01*
X113560394Y-70801560D01*
X113485149Y-70688946D01*
X112882818Y-70196787D01*
X109579605Y-73500000D01*
X109220395Y-73500000D01*
X105917182Y-70196787D01*
X105314851Y-70688946D01*
X105082463Y-71109788D01*
X105082576Y-71108223D01*
X105122789Y-70698103D01*
X105224987Y-70359607D01*
X105390984Y-70047412D01*
X105614460Y-69773403D01*
X105886902Y-69548020D01*
X106197931Y-69379847D01*
X106535708Y-69275288D01*
X106899994Y-69237000D01*
X106701560Y-69339606D01*
X106588946Y-69414851D01*
X106096787Y-70017182D01*
X109400000Y-73320395D01*
X112703213Y-70017182D01*
X112211054Y-69414851D01*
X111885354Y-69235000D01*
X115215000Y-69235000D01*
X115215000Y-69583646D01*
M02*
