M48
; DRILL file {KiCad (6.0.1)} date Thu Jan 27 15:17:37 2022
; FORMAT={-:-/ absolute / metric / decimal}
; #@! TF.CreationDate,2022-01-27T15:17:37+01:00
; #@! TF.GenerationSoftware,Kicad,Pcbnew,(6.0.1)
; #@! TF.FileFunction,Plated,1,2,PTH
FMAT,2
METRIC
; #@! TA.AperFunction,Plated,PTH,ViaDrill
T1C0.300
; #@! TA.AperFunction,Plated,PTH,ComponentDrill
T2C0.750
; #@! TA.AperFunction,Plated,PTH,ComponentDrill
T3C0.800
; #@! TA.AperFunction,Plated,PTH,ComponentDrill
T4C0.890
; #@! TA.AperFunction,Plated,PTH,ComponentDrill
T5C1.000
; #@! TA.AperFunction,Plated,PTH,ComponentDrill
T6C1.100
; #@! TA.AperFunction,Plated,PTH,ComponentDrill
T7C2.010
%
G90
G05
T1
X85.0Y-67.4
X85.0Y-68.5
X85.0Y-69.6
X85.0Y-70.7
X85.0Y-71.6
X85.1Y-128.8
X85.1Y-130.0
X85.1Y-131.4
X85.1Y-133.0
X89.9Y-102.3
X92.5Y-66.4
X92.5Y-67.8
X92.5Y-69.1
X92.5Y-70.2
X92.5Y-71.3
X94.6Y-98.8
X97.7Y-137.6
X99.34Y-102.74
X99.5Y-143.0
X100.34Y-102.74
X100.4Y-108.7
X100.4Y-109.7
X100.4Y-110.7
X100.46Y-142.96
X101.5Y-143.0
X101.6Y-108.75
X101.6Y-109.7
X101.6Y-110.7
X101.9Y-102.7
X102.7Y-137.6
X103.5Y-112.9
X104.1Y-95.7
X104.3Y-90.6
X106.6Y-98.9
X106.6Y-99.9
X106.6Y-100.9
X106.7Y-104.8
X106.7Y-105.8
X106.7Y-106.8
X107.4Y-98.9
X107.4Y-99.9
X107.4Y-100.9
X107.5Y-104.8
X107.5Y-105.8
X107.5Y-106.8
X110.8Y-109.8
X111.0Y-106.2
X111.9Y-98.5
X113.6Y-109.0
X114.1Y-97.1
X145.6Y-95.7
X147.5Y-97.7
X162.85Y-66.1
X163.157Y-112.89
X163.157Y-130.162
X163.233Y-111.557
X163.85Y-74.1
X165.4Y-80.1
X166.0Y-83.0
X166.0Y-88.0
X166.0Y-94.0
X166.0Y-99.0
X166.0Y-104.0
X166.0Y-109.0
X166.0Y-117.0
X166.0Y-122.0
X166.5Y-70.6
X166.8Y-78.4
X167.742Y-76.772
X169.0Y-125.0
X169.1Y-78.232
X169.85Y-67.1
X170.0Y-83.0
X170.0Y-88.0
X170.0Y-94.0
X170.0Y-99.0
X170.0Y-104.0
X170.0Y-109.0
X170.0Y-117.0
X170.0Y-121.0
X170.85Y-74.85
X172.0Y-101.0
X172.0Y-107.0
X172.0Y-123.0
X173.85Y-67.35
X173.85Y-71.35
X173.99Y-112.878
X174.0Y-116.0
X174.0Y-120.0
X174.0Y-125.0
X174.028Y-111.557
X175.0Y-138.0
X175.5Y-91.2
X175.6Y-53.7
X175.6Y-55.1
X175.6Y-57.1
X175.6Y-59.1
X175.6Y-61.1
X175.6Y-63.1
X175.6Y-65.1
X175.6Y-67.1
X175.6Y-69.1
X175.6Y-71.1
X175.6Y-73.1
X175.6Y-74.6
X175.6Y-77.1
X175.6Y-79.1
X175.6Y-81.1
X175.6Y-83.1
X175.6Y-85.1
X175.6Y-86.9
X175.6Y-88.9
X175.6Y-93.2
X176.0Y-127.0
X176.0Y-132.0
X177.0Y-107.0
X177.0Y-116.0
X177.0Y-120.0
X177.0Y-141.0
X177.063Y-126.136
X177.1Y-53.7
X177.2Y-94.8
X178.0Y-138.0
X178.1Y-60.1
X178.6Y-53.7
X178.6Y-55.1
X178.6Y-57.1
X178.6Y-59.1
X178.6Y-61.1
X178.6Y-63.1
X178.6Y-65.1
X178.6Y-71.6
X178.6Y-72.85
X178.6Y-74.1
X178.6Y-81.1
X178.6Y-83.1
X178.6Y-85.1
X178.6Y-89.1
X178.6Y-96.1
X178.7Y-79.7
X178.7Y-87.0
X178.8Y-91.2
X179.6Y-71.6
X179.6Y-74.1
X179.6Y-92.3
X179.845Y-131.242
X180.0Y-116.0
X180.0Y-120.0
X180.0Y-135.0
X180.0Y-144.0
X180.1Y-69.4
X180.2Y-64.9
X180.6Y-71.6
X180.6Y-74.5
X180.6Y-76.3
X180.6Y-93.2
X180.6Y-96.1
X181.0Y-138.0
X181.45Y-73.15
X181.5Y-67.6
X181.6Y-74.5
X181.6Y-76.3
X182.5Y-71.1
X182.5Y-72.1
X182.6Y-76.3
X182.6Y-93.2
X182.6Y-96.1
X182.7Y-74.5
X183.0Y-107.0
X183.5Y-71.1
X183.5Y-72.1
X183.6Y-68.35
X184.0Y-116.0
X184.0Y-120.0
X184.0Y-133.0
X184.0Y-138.0
X184.0Y-141.0
X184.0Y-144.0
X184.5Y-71.1
X184.5Y-72.1
X184.6Y-68.35
X184.6Y-74.1
X184.6Y-93.2
X184.6Y-96.1
X185.5Y-71.1
X185.5Y-72.1
X185.6Y-68.35
X185.6Y-74.1
X185.7Y-76.2
X185.7Y-77.2
X186.5Y-72.1
X186.55Y-84.9
X186.6Y-74.1
X186.6Y-93.2
X186.6Y-96.1
X188.6Y-67.1
X188.6Y-68.1
X188.6Y-69.1
X188.6Y-76.1
X188.6Y-77.1
X188.6Y-93.2
X188.6Y-96.1
X189.0Y-107.0
X189.0Y-133.0
X189.6Y-67.1
X189.6Y-68.1
X189.6Y-69.1
X189.6Y-76.1
X189.6Y-77.1
X190.6Y-67.1
X190.6Y-68.1
X190.6Y-69.1
X190.6Y-70.1
X190.6Y-71.1
X190.6Y-75.1
X190.6Y-76.1
X190.6Y-77.1
X190.6Y-93.2
X190.6Y-96.1
X191.427Y-137.719
X191.6Y-67.1
X191.6Y-68.1
X191.6Y-69.1
X191.6Y-70.1
X191.6Y-71.1
X191.6Y-72.8
X191.6Y-75.1
X191.6Y-76.1
X191.6Y-77.1
X191.821Y-129.311
X192.6Y-67.1
X192.6Y-68.1
X192.6Y-69.1
X192.6Y-70.1
X192.6Y-71.1
X192.6Y-75.1
X192.6Y-76.1
X192.6Y-77.1
X192.6Y-93.2
X192.6Y-96.1
X193.0Y-134.0
X193.142Y-142.824
X193.6Y-67.1
X193.6Y-68.1
X193.6Y-69.1
X194.183Y-140.157
X194.6Y-93.2
X194.6Y-96.1
X194.742Y-127.444
X195.402Y-130.912
X195.6Y-75.1
X196.0Y-134.0
X196.0Y-139.0
X196.1Y-66.2
X196.5Y-72.0
X196.6Y-74.1
X196.6Y-76.1
X196.6Y-93.2
X196.6Y-96.1
X197.0Y-138.0
X197.282Y-145.809
X197.6Y-68.8
X197.6Y-71.1
X197.6Y-75.1
X197.6Y-77.1
X198.0Y-107.0
X198.158Y-123.634
X198.577Y-129.781
X198.6Y-67.8
X198.6Y-70.1
X198.6Y-76.1
X198.6Y-78.1
X198.6Y-93.2
X198.6Y-96.1
X199.0Y-134.0
X199.4Y-73.1
X199.6Y-66.8
X199.6Y-69.1
X199.6Y-77.1
X199.6Y-79.1
X199.72Y-126.213
X199.72Y-130.264
X199.9Y-61.0
X200.6Y-65.8
X200.6Y-68.1
X200.6Y-78.1
X200.6Y-80.1
X200.6Y-93.2
X200.6Y-96.1
X201.0Y-134.0
X201.0Y-137.0
X201.016Y-130.378
X201.4Y-81.0
X201.6Y-64.8
X201.6Y-67.1
X201.6Y-79.1
X201.943Y-123.609
X202.07Y-139.179
X202.3Y-82.0
X202.4Y-66.2
X202.5Y-80.0
X202.6Y-63.9
X202.6Y-93.2
X202.6Y-96.1
X203.2Y-65.3
X203.3Y-63.2
X203.3Y-82.9
X203.4Y-67.1
X203.4Y-68.6
X203.4Y-69.9
X203.5Y-80.9
X204.0Y-107.0
X204.038Y-145.072
X204.1Y-62.6
X204.1Y-64.8
X204.3Y-82.9
X204.4Y-69.9
X204.6Y-80.9
X204.6Y-93.2
X204.6Y-96.1
X204.813Y-130.188
X205.067Y-124.727
X205.1Y-62.6
X205.1Y-64.8
X205.2Y-83.1
X205.4Y-69.9
X205.7Y-80.9
X206.0Y-134.0
X206.0Y-139.6
X206.1Y-62.6
X206.3Y-83.1
X206.4Y-70.8
X206.6Y-93.2
X206.6Y-96.1
X206.7Y-80.9
X206.756Y-121.666
X206.934Y-118.237
X206.985Y-123.241
X207.1Y-62.6
X207.1Y-64.8
X207.1Y-65.8
X207.1Y-66.8
X207.1Y-67.8
X207.1Y-68.8
X207.3Y-83.1
X207.4Y-70.8
X207.4Y-143.0
X207.7Y-80.9
X207.9Y-69.2
X208.3Y-83.1
X208.4Y-70.8
X208.6Y-93.2
X208.6Y-96.1
X208.7Y-69.2
X208.7Y-80.9
X209.1Y-58.8
X209.1Y-66.2
X209.3Y-82.9
X209.4Y-70.8
X209.6Y-69.2
X209.7Y-56.7
X209.7Y-57.7
X209.7Y-80.9
X210.3Y-82.9
X210.4Y-66.2
X210.4Y-69.2
X210.4Y-70.8
X210.4Y-139.6
X210.6Y-93.2
X210.6Y-96.1
X210.7Y-56.7
X210.7Y-57.7
X210.7Y-58.7
X210.7Y-59.7
X210.7Y-80.9
X210.706Y-135.509
X211.023Y-121.666
X211.1Y-61.7
X211.1Y-64.4
X211.3Y-82.9
X211.4Y-66.2
X211.4Y-67.2
X211.4Y-68.2
X211.4Y-69.2
X211.4Y-70.8
X211.7Y-56.7
X211.7Y-57.7
X211.7Y-58.7
X211.7Y-59.7
X211.7Y-63.0
X211.7Y-80.9
X212.0Y-111.0
X212.3Y-61.8
X212.3Y-64.4
X212.3Y-82.9
X212.4Y-66.2
X212.4Y-67.2
X212.4Y-68.2
X212.4Y-69.2
X212.4Y-70.8
X212.6Y-93.2
X212.6Y-96.1
X212.7Y-56.7
X212.7Y-57.7
X212.7Y-58.7
X212.7Y-59.7
X212.7Y-80.9
X213.3Y-82.9
X213.4Y-66.2
X213.4Y-67.2
X213.4Y-68.2
X213.4Y-69.2
X213.4Y-70.8
X213.7Y-56.7
X213.7Y-57.7
X213.7Y-58.7
X213.7Y-59.7
X213.7Y-80.9
X214.3Y-82.9
X214.4Y-66.2
X214.4Y-67.2
X214.4Y-68.2
X214.4Y-69.2
X214.4Y-70.8
X214.6Y-93.2
X214.6Y-96.1
X214.7Y-56.7
X214.7Y-57.7
X214.7Y-58.7
X214.7Y-59.7
X214.7Y-80.9
X215.3Y-82.9
X215.4Y-68.2
X215.4Y-69.2
X215.4Y-70.8
X215.7Y-56.7
X215.7Y-57.7
X215.7Y-58.7
X215.7Y-59.7
X215.7Y-80.9
X215.8Y-139.4
X216.1Y-63.6
X216.1Y-66.0
X216.3Y-82.9
X216.4Y-68.2
X216.4Y-69.2
X216.4Y-70.8
X216.6Y-93.2
X216.6Y-96.1
X216.7Y-80.9
X217.3Y-82.9
X217.7Y-80.9
X217.8Y-63.6
X218.3Y-82.9
X218.6Y-93.2
X218.6Y-96.1
X218.7Y-80.9
X219.1Y-66.0
X219.3Y-82.9
X219.4Y-63.6
X219.7Y-80.9
X220.0Y-62.4
X220.3Y-82.9
X220.6Y-64.0
X220.6Y-65.8
X220.6Y-93.2
X220.6Y-96.1
X220.7Y-80.9
X221.0Y-140.0
X221.3Y-82.9
X221.7Y-80.9
X222.1Y-64.0
X222.1Y-65.8
X222.3Y-82.9
X222.6Y-93.2
X222.6Y-96.1
X222.7Y-80.9
X223.0Y-69.0
X223.0Y-72.0
X223.3Y-82.9
X223.5Y-58.5
X223.5Y-62.0
X223.5Y-75.5
X223.5Y-77.5
X223.5Y-85.5
X223.5Y-88.5
X223.6Y-64.0
X223.6Y-65.8
X223.7Y-80.9
X224.0Y-142.0
X224.6Y-93.2
X224.6Y-96.1
X225.5Y-63.0
X225.5Y-67.0
X225.5Y-75.5
X225.5Y-80.0
X225.5Y-84.5
X225.5Y-88.5
X226.0Y-58.5
X226.0Y-72.0
X226.6Y-93.2
X226.6Y-96.1
X227.5Y-84.5
X228.0Y-72.0
X228.0Y-75.5
X228.0Y-80.0
X228.0Y-88.5
X228.5Y-58.5
X228.5Y-63.0
X228.5Y-67.0
X228.6Y-93.2
X228.6Y-96.1
T2
X184.849Y-124.523
X184.849Y-126.523
X184.849Y-128.523
X184.849Y-130.523
T3
X92.5Y-61.1
X92.5Y-63.6
X92.8Y-138.2
X92.8Y-140.7
X108.1Y-138.3
X108.1Y-140.8
T4
X217.1Y-102.46
X217.1Y-105.0
X217.2Y-126.46
X217.2Y-129.0
T5
X75.4Y-60.63
X75.4Y-63.17
X75.4Y-65.71
X75.4Y-68.25
X75.4Y-70.79
X75.4Y-73.33
X75.4Y-75.87
X75.4Y-78.41
X75.4Y-80.95
X75.4Y-83.49
X75.4Y-86.03
X75.4Y-88.57
X75.4Y-91.11
X75.4Y-93.65
X75.4Y-96.19
X75.4Y-98.73
X75.4Y-101.27
X75.4Y-103.81
X75.4Y-106.35
X75.4Y-108.89
X75.4Y-111.43
X75.4Y-113.97
X75.4Y-116.51
X75.4Y-119.05
X75.4Y-121.59
X75.4Y-124.13
X75.4Y-126.67
X75.4Y-129.21
X75.4Y-131.75
X75.4Y-134.29
X75.4Y-136.83
X75.4Y-139.37
X80.48Y-60.63
X80.48Y-63.17
X80.48Y-65.71
X80.48Y-68.25
X80.48Y-70.79
X80.48Y-73.33
X80.48Y-75.87
X80.48Y-78.41
X80.48Y-80.95
X80.48Y-83.49
X80.48Y-86.03
X80.48Y-88.57
X80.48Y-91.11
X80.48Y-93.65
X80.48Y-96.19
X80.48Y-98.73
X80.48Y-101.27
X80.48Y-103.81
X80.48Y-106.35
X80.48Y-108.89
X80.48Y-111.43
X80.48Y-113.97
X80.48Y-116.51
X80.48Y-119.05
X80.48Y-121.59
X80.48Y-124.13
X80.48Y-126.67
X80.48Y-129.21
X80.48Y-131.75
X80.48Y-134.29
X80.48Y-136.83
X80.48Y-139.37
X215.58Y-143.16
X223.2Y-145.7
X228.28Y-143.16
T6
X97.92Y-145.5
X100.46Y-145.5
X103.0Y-145.5
T7
X222.18Y-99.92
X222.18Y-110.08
X222.28Y-123.92
X222.28Y-134.08
T0
M30
