G04 #@! TF.GenerationSoftware,KiCad,Pcbnew,(5.1.10)-1*
G04 #@! TF.CreationDate,2022-01-18T11:47:42+01:00*
G04 #@! TF.ProjectId,PFD_HMC439QS16G,5046445f-484d-4433-9433-395153313647,1.4*
G04 #@! TF.SameCoordinates,Original*
G04 #@! TF.FileFunction,Copper,L2,Bot*
G04 #@! TF.FilePolarity,Positive*
%FSLAX46Y46*%
G04 Gerber Fmt 4.6, Leading zero omitted, Abs format (unit mm)*
G04 Created by KiCad (PCBNEW (5.1.10)-1) date 2022-01-18 11:47:42*
%MOMM*%
%LPD*%
G01*
G04 APERTURE LIST*
G04 #@! TA.AperFunction,ComponentPad*
%ADD10C,1.800000*%
G04 #@! TD*
G04 #@! TA.AperFunction,ComponentPad*
%ADD11C,1.600000*%
G04 #@! TD*
G04 #@! TA.AperFunction,ComponentPad*
%ADD12R,1.600000X1.600000*%
G04 #@! TD*
G04 #@! TA.AperFunction,ComponentPad*
%ADD13R,1.905000X2.000000*%
G04 #@! TD*
G04 #@! TA.AperFunction,ComponentPad*
%ADD14O,1.905000X2.000000*%
G04 #@! TD*
G04 #@! TA.AperFunction,ComponentPad*
%ADD15O,2.500000X1.600000*%
G04 #@! TD*
G04 #@! TA.AperFunction,ComponentPad*
%ADD16O,7.000000X3.500000*%
G04 #@! TD*
G04 #@! TA.AperFunction,SMDPad,CuDef*
%ADD17R,5.080000X1.500000*%
G04 #@! TD*
G04 #@! TA.AperFunction,ComponentPad*
%ADD18O,1.750000X1.200000*%
G04 #@! TD*
G04 #@! TA.AperFunction,ViaPad*
%ADD19C,0.600000*%
G04 #@! TD*
G04 #@! TA.AperFunction,Conductor*
%ADD20C,0.250000*%
G04 #@! TD*
G04 #@! TA.AperFunction,Conductor*
%ADD21C,0.500000*%
G04 #@! TD*
G04 #@! TA.AperFunction,Conductor*
%ADD22C,1.000000*%
G04 #@! TD*
G04 #@! TA.AperFunction,Conductor*
%ADD23C,0.254000*%
G04 #@! TD*
G04 #@! TA.AperFunction,Conductor*
%ADD24C,0.100000*%
G04 #@! TD*
G04 APERTURE END LIST*
D10*
X215580000Y-143160000D03*
X223200000Y-145700000D03*
X228280000Y-143160000D03*
D11*
X108100000Y-138300000D03*
D12*
X108100000Y-140800000D03*
X92800000Y-140700000D03*
D11*
X92800000Y-138200000D03*
D10*
X80370000Y-60630000D03*
X80370000Y-63170000D03*
X80370000Y-65710000D03*
X80370000Y-68250000D03*
X80370000Y-70790000D03*
X80370000Y-73330000D03*
X80370000Y-75870000D03*
X80370000Y-78410000D03*
X80370000Y-80950000D03*
X80370000Y-83490000D03*
X80370000Y-86030000D03*
X80370000Y-88570000D03*
X80370000Y-91110000D03*
X80370000Y-93650000D03*
X80370000Y-96190000D03*
X80370000Y-98730000D03*
X80370000Y-101270000D03*
X80370000Y-103810000D03*
X80370000Y-106350000D03*
X80370000Y-108890000D03*
X80370000Y-111430000D03*
X80370000Y-113970000D03*
X80370000Y-116510000D03*
X80370000Y-119050000D03*
X80370000Y-121590000D03*
X80370000Y-124130000D03*
X80370000Y-126670000D03*
X80370000Y-129210000D03*
X80370000Y-134290000D03*
X80370000Y-131750000D03*
X80370000Y-136830000D03*
X80370000Y-139370000D03*
X75290000Y-60630000D03*
X75290000Y-63170000D03*
X75290000Y-65710000D03*
X75290000Y-68250000D03*
X75290000Y-70790000D03*
X75290000Y-73330000D03*
X75290000Y-75870000D03*
X75290000Y-78410000D03*
X75290000Y-80950000D03*
X75290000Y-83490000D03*
X75290000Y-86030000D03*
X75290000Y-88570000D03*
X75290000Y-91110000D03*
X75290000Y-93650000D03*
X75290000Y-96190000D03*
X75290000Y-98730000D03*
X75290000Y-101270000D03*
X75290000Y-103810000D03*
X75290000Y-106350000D03*
X75290000Y-108890000D03*
X75290000Y-111430000D03*
X75290000Y-113970000D03*
X75290000Y-116510000D03*
X75290000Y-119050000D03*
X75290000Y-121590000D03*
X75290000Y-124130000D03*
X75290000Y-126670000D03*
X75290000Y-129210000D03*
X75290000Y-134290000D03*
X75290000Y-131750000D03*
X75290000Y-136830000D03*
X75290000Y-139370000D03*
D13*
X103000000Y-145500000D03*
D14*
X100460000Y-145500000D03*
X97920000Y-145500000D03*
D15*
X217300000Y-102460000D03*
X217300000Y-105000000D03*
D16*
X222380000Y-110080000D03*
X222380000Y-99920000D03*
D12*
X92500000Y-63600000D03*
D11*
X92500000Y-61100000D03*
D16*
X222280000Y-123920000D03*
X222280000Y-134080000D03*
D15*
X217200000Y-129000000D03*
X217200000Y-126460000D03*
D17*
X227300000Y-86250000D03*
X227300000Y-77750000D03*
X227300000Y-60750000D03*
X227300000Y-69250000D03*
G04 #@! TA.AperFunction,ComponentPad*
G36*
G01*
X184223499Y-123923500D02*
X185473501Y-123923500D01*
G75*
G02*
X185723500Y-124173499I0J-249999D01*
G01*
X185723500Y-124873501D01*
G75*
G02*
X185473501Y-125123500I-249999J0D01*
G01*
X184223499Y-125123500D01*
G75*
G02*
X183973500Y-124873501I0J249999D01*
G01*
X183973500Y-124173499D01*
G75*
G02*
X184223499Y-123923500I249999J0D01*
G01*
G37*
G04 #@! TD.AperFunction*
D18*
X184848500Y-126523500D03*
X184848500Y-128523500D03*
X184848500Y-130523500D03*
D19*
X178700000Y-87000000D03*
X191600000Y-72800000D03*
X195600000Y-75100000D03*
X196600000Y-76100000D03*
X197600000Y-77100000D03*
X198600000Y-78100000D03*
X199600000Y-79100000D03*
X200600000Y-80100000D03*
X205200000Y-82900000D03*
X201600000Y-79100000D03*
X200600000Y-78100000D03*
X199600000Y-77100000D03*
X198600000Y-76100000D03*
X197600000Y-75100000D03*
X196600000Y-74100000D03*
X207100000Y-64800000D03*
X206100000Y-64800000D03*
X205100000Y-64800000D03*
X204100000Y-64800000D03*
X201600000Y-67100000D03*
X200600000Y-68100000D03*
X199600000Y-69100000D03*
X198600000Y-70100000D03*
X197600000Y-71100000D03*
X207100000Y-62600000D03*
X206100000Y-62600000D03*
X205100000Y-62600000D03*
X204100000Y-62600000D03*
X201600000Y-64800000D03*
X200600000Y-65800000D03*
X199600000Y-66800000D03*
X198600000Y-67800000D03*
X197600000Y-68800000D03*
X199400000Y-73100000D03*
X196100000Y-66200000D03*
X196500000Y-72000000D03*
X188600000Y-77100000D03*
X189600000Y-77100000D03*
X190600000Y-77100000D03*
X191600000Y-77100000D03*
X192600000Y-77100000D03*
X188600000Y-76100000D03*
X189600000Y-76100000D03*
X190600000Y-76100000D03*
X191600000Y-76100000D03*
X192600000Y-76100000D03*
X190600000Y-75100000D03*
X191600000Y-75100000D03*
X192600000Y-75100000D03*
X190600000Y-71100000D03*
X191600000Y-71100000D03*
X192600000Y-71100000D03*
X190600000Y-70100000D03*
X191600000Y-70100000D03*
X192600000Y-70100000D03*
X188600000Y-69100000D03*
X189600000Y-69100000D03*
X190600000Y-69100000D03*
X191600000Y-69100000D03*
X192600000Y-69100000D03*
X193600000Y-69100000D03*
X188600000Y-68100000D03*
X189600000Y-68100000D03*
X190600000Y-68100000D03*
X191600000Y-68100000D03*
X192600000Y-68100000D03*
X193600000Y-68100000D03*
X188600000Y-67100000D03*
X189600000Y-67100000D03*
X190600000Y-67100000D03*
X191600000Y-67100000D03*
X192600000Y-67100000D03*
X193600000Y-67100000D03*
X182500000Y-71100000D03*
X183500000Y-71100000D03*
X184500000Y-71100000D03*
X185500000Y-71100000D03*
X186500000Y-72100000D03*
X185500000Y-72100000D03*
X184500000Y-72100000D03*
X183500000Y-72100000D03*
X182500000Y-72100000D03*
X180200000Y-64900000D03*
X185700000Y-76200000D03*
X185700000Y-77200000D03*
X186600000Y-74100000D03*
X185600000Y-74100000D03*
X184600000Y-74100000D03*
X180600000Y-74500000D03*
X181600000Y-74500000D03*
X182700000Y-74500000D03*
X180600000Y-76300000D03*
X181600000Y-76300000D03*
X182600000Y-76300000D03*
X179600000Y-74100000D03*
X178600000Y-74100000D03*
X178600000Y-71600000D03*
X179600000Y-71600000D03*
X180600000Y-71600000D03*
X180100000Y-69400000D03*
X178700000Y-79700000D03*
X99340000Y-102740000D03*
X100340000Y-102740000D03*
X103500000Y-112900000D03*
X104100000Y-95700000D03*
X107400000Y-100900000D03*
X106600000Y-100900000D03*
X107400000Y-98900000D03*
X107400000Y-99900000D03*
X106600000Y-98900000D03*
X106600000Y-99900000D03*
X111900000Y-98500000D03*
X110800000Y-109800000D03*
X111000000Y-106200000D03*
X178600000Y-55100000D03*
X178600000Y-57100000D03*
X178600000Y-59100000D03*
X178600000Y-61100000D03*
X178600000Y-63100000D03*
X178600000Y-65100000D03*
X178600000Y-72850000D03*
X178600000Y-81100000D03*
X178600000Y-83100000D03*
X178600000Y-85100000D03*
X179600000Y-92300000D03*
X175600000Y-55100000D03*
X175600000Y-57100000D03*
X175600000Y-59100000D03*
X175600000Y-61100000D03*
X175600000Y-63100000D03*
X175600000Y-65100000D03*
X175600000Y-67100000D03*
X175600000Y-69100000D03*
X175600000Y-71100000D03*
X175600000Y-73100000D03*
X175600000Y-74600000D03*
X175600000Y-77100000D03*
X175600000Y-79100000D03*
X175600000Y-81100000D03*
X175600000Y-83100000D03*
X175600000Y-85100000D03*
X175600000Y-93200000D03*
X177200000Y-94800000D03*
X178600000Y-96100000D03*
X180600000Y-96100000D03*
X180600000Y-93200000D03*
X182600000Y-93200000D03*
X184600000Y-93200000D03*
X186600000Y-93200000D03*
X188600000Y-93200000D03*
X190600000Y-93200000D03*
X192600000Y-93200000D03*
X194600000Y-93200000D03*
X198600000Y-93200000D03*
X200600000Y-93200000D03*
X202600000Y-93200000D03*
X169850000Y-67100000D03*
X173850000Y-67350000D03*
X162350000Y-76600000D03*
X163850000Y-74100000D03*
X162850000Y-66100000D03*
X183600000Y-68350000D03*
X184600000Y-68350000D03*
X185600000Y-68350000D03*
X166500000Y-70600000D03*
X101500000Y-143000000D03*
X99500000Y-143000000D03*
X100460000Y-142959992D03*
X97700000Y-137600000D03*
X102700000Y-137600000D03*
X205700000Y-80900000D03*
X206700000Y-80900000D03*
X207700000Y-80900000D03*
X208700000Y-80900000D03*
X209700000Y-80900000D03*
X210700000Y-80900000D03*
X211700000Y-80900000D03*
X212700000Y-80900000D03*
X213700000Y-80900000D03*
X214700000Y-80900000D03*
X215700000Y-80900000D03*
X216700000Y-80900000D03*
X217700000Y-80900000D03*
X218700000Y-80900000D03*
X219700000Y-80900000D03*
X220700000Y-80900000D03*
X221700000Y-80900000D03*
X222700000Y-80900000D03*
X206300000Y-82900000D03*
X207300000Y-82900000D03*
X208300000Y-82900000D03*
X209300000Y-82900000D03*
X210300000Y-82900000D03*
X211300000Y-82900000D03*
X212300000Y-82900000D03*
X213300000Y-82900000D03*
X214300000Y-82900000D03*
X215300000Y-82900000D03*
X216300000Y-82900000D03*
X217300000Y-82900000D03*
X218300000Y-82900000D03*
X219300000Y-82900000D03*
X220300000Y-82900000D03*
X221300000Y-82900000D03*
X222300000Y-82900000D03*
X223300000Y-82900000D03*
X202600000Y-63900000D03*
X203300000Y-63200000D03*
X202400000Y-66200000D03*
X203200000Y-65300000D03*
X216100000Y-64000000D03*
X216100000Y-65800000D03*
X219100000Y-62400000D03*
X199900000Y-61000000D03*
X211700000Y-63000000D03*
X211100000Y-64400000D03*
X212300000Y-64400000D03*
X212300000Y-61800000D03*
X211100000Y-61700000D03*
X211700000Y-59700000D03*
X212700000Y-59700000D03*
X213700000Y-59700000D03*
X214700000Y-59700000D03*
X215700000Y-59700000D03*
X212700000Y-58700000D03*
X213700000Y-58700000D03*
X214700000Y-58700000D03*
X215700000Y-58700000D03*
X212700000Y-57700000D03*
X213700000Y-57700000D03*
X214700000Y-57700000D03*
X215700000Y-57700000D03*
X212700000Y-56700000D03*
X213700000Y-56700000D03*
X214700000Y-56700000D03*
X215700000Y-56700000D03*
X210700000Y-59700000D03*
X211700000Y-58700000D03*
X210700000Y-58700000D03*
X211700000Y-57700000D03*
X210700000Y-57700000D03*
X209700000Y-57700000D03*
X211700000Y-56700000D03*
X210700000Y-56700000D03*
X209700000Y-56700000D03*
X208700000Y-70800000D03*
X210400000Y-66200000D03*
X211400000Y-66200000D03*
X212400000Y-66200000D03*
X213400000Y-66200000D03*
X214400000Y-66200000D03*
X210400000Y-67200000D03*
X211400000Y-67200000D03*
X212400000Y-67200000D03*
X213400000Y-67200000D03*
X214400000Y-67200000D03*
X210400000Y-68200000D03*
X211400000Y-68200000D03*
X212400000Y-68200000D03*
X213400000Y-68200000D03*
X214400000Y-68200000D03*
X210400000Y-69200000D03*
X211400000Y-69200000D03*
X212400000Y-69200000D03*
X213400000Y-69200000D03*
X214400000Y-69200000D03*
X210400000Y-70200000D03*
X211400000Y-70200000D03*
X212400000Y-70200000D03*
X213400000Y-70200000D03*
X214400000Y-70200000D03*
X204600000Y-93200000D03*
X206600000Y-93200000D03*
X208600000Y-93200000D03*
X210600000Y-93200000D03*
X212600000Y-93200000D03*
X214600000Y-93200000D03*
X216600000Y-93200000D03*
X218600000Y-93200000D03*
X220600000Y-93200000D03*
X222600000Y-93200000D03*
X224600000Y-93200000D03*
X226600000Y-93200000D03*
X228600000Y-93200000D03*
X228600000Y-96100000D03*
X182600000Y-96100000D03*
X184600000Y-96100000D03*
X186600000Y-96100000D03*
X188600000Y-96100000D03*
X190600000Y-96100000D03*
X192600000Y-96100000D03*
X194600000Y-96100000D03*
X196600000Y-96100000D03*
X198600000Y-96100000D03*
X200600000Y-96100000D03*
X202600000Y-96100000D03*
X204600000Y-96100000D03*
X206600000Y-96100000D03*
X208600000Y-96100000D03*
X210600000Y-96100000D03*
X212600000Y-96100000D03*
X214600000Y-96100000D03*
X216600000Y-96100000D03*
X218600000Y-96100000D03*
X220600000Y-96100000D03*
X222600000Y-96100000D03*
X224600000Y-96100000D03*
X226600000Y-96100000D03*
X177100000Y-53700000D03*
X178600000Y-53700000D03*
X175600000Y-53700000D03*
X114100000Y-97100000D03*
X113600000Y-109000000D03*
X101900000Y-102700000D03*
X85100000Y-128800000D03*
X85100000Y-130000000D03*
X85100000Y-131400000D03*
X85100000Y-133000000D03*
X85000000Y-71600000D03*
X85000000Y-70700000D03*
X85000000Y-69600000D03*
X85000000Y-68500000D03*
X85000000Y-67400000D03*
X92500000Y-71300000D03*
X92500000Y-66400000D03*
X92500000Y-67800000D03*
X92500000Y-69100000D03*
X92500000Y-70200000D03*
X175600000Y-86900000D03*
X175600000Y-88900000D03*
X175500000Y-91200000D03*
X178600000Y-89100000D03*
X178800000Y-91200000D03*
X217600000Y-64000000D03*
X219100000Y-64000000D03*
X220600000Y-64000000D03*
X222100000Y-64000000D03*
X223600000Y-64000000D03*
X217600000Y-65800000D03*
X219100000Y-65800000D03*
X220600000Y-65800000D03*
X222100000Y-65800000D03*
X223600000Y-65800000D03*
X201400000Y-81000000D03*
X202300000Y-82000000D03*
X203300000Y-82900000D03*
X204300000Y-82900000D03*
X202500000Y-80000000D03*
X203500000Y-80900000D03*
X204600000Y-80900000D03*
X223700000Y-80900000D03*
X228000000Y-75500000D03*
X225500000Y-75500000D03*
X223500000Y-75500000D03*
X223500000Y-77500000D03*
X225500000Y-80000000D03*
X228000000Y-80000000D03*
X225500000Y-84500000D03*
X227500000Y-84500000D03*
X223500000Y-85500000D03*
X223500000Y-88500000D03*
X225500000Y-88500000D03*
X228000000Y-88500000D03*
X228000000Y-72000000D03*
X226000000Y-72000000D03*
X223000000Y-72000000D03*
X223000000Y-69000000D03*
X225500000Y-67000000D03*
X228500000Y-67000000D03*
X228500000Y-63000000D03*
X225500000Y-63000000D03*
X223500000Y-62000000D03*
X223500000Y-58500000D03*
X226000000Y-58500000D03*
X228500000Y-58500000D03*
X207400000Y-143000000D03*
X204038200Y-145072100D03*
X197281800Y-145808700D03*
X202069700Y-139179300D03*
X210705700Y-135509000D03*
X206984600Y-123240800D03*
X206933800Y-118237000D03*
X205066900Y-124726700D03*
X204812900Y-130187700D03*
X195402200Y-130911600D03*
X179844700Y-131241800D03*
X177063400Y-126136400D03*
X194183000Y-140157200D03*
X175000000Y-138000000D03*
X178000000Y-138000000D03*
X181000000Y-138000000D03*
X184000000Y-138000000D03*
X177000000Y-141000000D03*
X180000000Y-144000000D03*
X184000000Y-144000000D03*
X184000000Y-141000000D03*
X196000000Y-139000000D03*
X197000000Y-138000000D03*
X201000000Y-137000000D03*
X221000000Y-140000000D03*
X224000000Y-142000000D03*
X206000000Y-134000000D03*
X189000000Y-133000000D03*
X184000000Y-133000000D03*
X174000000Y-120000000D03*
X177000000Y-120000000D03*
X180000000Y-120000000D03*
X184000000Y-120000000D03*
X174000000Y-116000000D03*
X177000000Y-116000000D03*
X180000000Y-116000000D03*
X184000000Y-116000000D03*
X172000000Y-107000000D03*
X172000000Y-101000000D03*
X177000000Y-107000000D03*
X183000000Y-107000000D03*
X189000000Y-107000000D03*
X198000000Y-107000000D03*
X204000000Y-107000000D03*
X212000000Y-111000000D03*
X180000000Y-135000000D03*
X176000000Y-132000000D03*
X169000000Y-125000000D03*
X166000000Y-122000000D03*
X166000000Y-117000000D03*
X166000000Y-109000000D03*
X166000000Y-104000000D03*
X166000000Y-99000000D03*
X166000000Y-94000000D03*
X166000000Y-88000000D03*
X166000000Y-83000000D03*
X170000000Y-83000000D03*
X170000000Y-88000000D03*
X170000000Y-94000000D03*
X170000000Y-99000000D03*
X170000000Y-104000000D03*
X170000000Y-109000000D03*
X170000000Y-117000000D03*
X170000000Y-121000000D03*
X172000000Y-123000000D03*
X174000000Y-125000000D03*
X176000000Y-127000000D03*
X193000000Y-134000000D03*
X196000000Y-134000000D03*
X199000000Y-134000000D03*
X201000000Y-134000000D03*
X206000000Y-139600000D03*
X210400000Y-139600000D03*
X215800000Y-139400000D03*
X166800000Y-78400000D03*
X196600000Y-93200000D03*
X186550000Y-84900000D03*
X181450000Y-73150000D03*
X181500000Y-67599998D03*
X178100000Y-60100000D03*
X209100000Y-58800000D03*
X209100000Y-66200000D03*
X145600000Y-95700000D03*
X147500000Y-97700000D03*
X163156900Y-112890300D03*
X173990000Y-112877600D03*
X163156900Y-130162300D03*
X201942700Y-123609100D03*
X198158100Y-123634500D03*
X163233100Y-111556800D03*
X174028100Y-111556800D03*
X211023200Y-121666000D03*
X206756000Y-121666000D03*
X198577200Y-129781300D03*
X167741600Y-76771500D03*
X169100500Y-78232000D03*
X170850000Y-74850000D03*
X173850000Y-71350000D03*
X107500000Y-104800000D03*
X107500000Y-105800000D03*
X107500000Y-106800000D03*
X106700000Y-104800000D03*
X106700000Y-106800000D03*
X106700000Y-105800000D03*
X101600000Y-108750000D03*
X101600000Y-109700000D03*
X101600000Y-110700000D03*
X100400000Y-110700000D03*
X100400000Y-109700000D03*
X100400000Y-108700000D03*
X89900000Y-102300000D03*
X94600000Y-98800000D03*
X193141900Y-142823900D03*
X201015600Y-130378200D03*
X194741800Y-127444500D03*
X191820800Y-129311400D03*
X191427100Y-137718800D03*
X199720200Y-126212600D03*
X199720200Y-130263900D03*
D20*
X211100000Y-62400000D02*
X211700000Y-63000000D01*
X211100000Y-61700000D02*
X211100000Y-62400000D01*
X181450000Y-67649998D02*
X181500000Y-67599998D01*
X181450000Y-73150000D02*
X181450000Y-67649998D01*
D21*
X177800001Y-60399999D02*
X178100000Y-60100000D01*
X186550000Y-84900000D02*
X177800001Y-76150001D01*
X177800001Y-76150001D02*
X177800001Y-60399999D01*
X209100000Y-58800000D02*
X209100000Y-66200000D01*
X145600000Y-95800000D02*
X147500000Y-97700000D01*
X145600000Y-95700000D02*
X145600000Y-95800000D01*
X173977300Y-112890300D02*
X173990000Y-112877600D01*
X163156900Y-112890300D02*
X166109700Y-112890300D01*
X184848500Y-128523500D02*
X172476500Y-128523500D01*
X163156900Y-130136900D02*
X163156900Y-130162300D01*
X164770300Y-128523500D02*
X163156900Y-130136900D01*
X172476500Y-128523500D02*
X164770300Y-128523500D01*
X166109700Y-112890300D02*
X170109700Y-112890300D01*
X170109700Y-112890300D02*
X173977300Y-112890300D01*
D20*
X198183500Y-123609100D02*
X198158100Y-123634500D01*
X201942700Y-123609100D02*
X198183500Y-123609100D01*
D21*
X163233100Y-111556800D02*
X174028100Y-111556800D01*
X211023200Y-121666000D02*
X206756000Y-121666000D01*
D20*
X198577200Y-129781300D02*
X198577200Y-125044200D01*
X198158100Y-124625100D02*
X198158100Y-123634500D01*
X198577200Y-125044200D02*
X198158100Y-124625100D01*
X167741600Y-76873100D02*
X169100500Y-78232000D01*
X167741600Y-76771500D02*
X167741600Y-76873100D01*
X170850000Y-74850000D02*
X173850000Y-71850000D01*
X173850000Y-71850000D02*
X173850000Y-71350000D01*
D22*
X89900000Y-102300000D02*
X93400000Y-98800000D01*
X93400000Y-98800000D02*
X94600000Y-98800000D01*
D20*
X192621991Y-142303991D02*
X192621991Y-139241709D01*
X193141900Y-142823900D02*
X192621991Y-142303991D01*
X201015600Y-130848100D02*
X201015600Y-130378200D01*
X192621991Y-139241709D02*
X201015600Y-130848100D01*
X184867300Y-126504700D02*
X184848500Y-126523500D01*
X193802000Y-126504700D02*
X184867300Y-126504700D01*
X194741800Y-127444500D02*
X193802000Y-126504700D01*
X191820800Y-129311400D02*
X191820800Y-137325100D01*
X191820800Y-137325100D02*
X191427100Y-137718800D01*
X199720200Y-126212600D02*
X199720200Y-130263900D01*
D23*
X99067271Y-103639068D02*
X99247911Y-103675000D01*
X99432089Y-103675000D01*
X99612729Y-103639068D01*
X99641864Y-103627000D01*
X100038136Y-103627000D01*
X100067271Y-103639068D01*
X100247911Y-103675000D01*
X100432089Y-103675000D01*
X100612729Y-103639068D01*
X100641864Y-103627000D01*
X101767693Y-103627000D01*
X101807911Y-103635000D01*
X101992089Y-103635000D01*
X102032307Y-103627000D01*
X107547394Y-103627000D01*
X107973000Y-104052606D01*
X107973000Y-110947394D01*
X107547394Y-111373000D01*
X91052606Y-111373000D01*
X90627000Y-110947394D01*
X90627000Y-104052606D01*
X91052606Y-103627000D01*
X99038136Y-103627000D01*
X99067271Y-103639068D01*
G04 #@! TA.AperFunction,Conductor*
D24*
G36*
X99067271Y-103639068D02*
G01*
X99247911Y-103675000D01*
X99432089Y-103675000D01*
X99612729Y-103639068D01*
X99641864Y-103627000D01*
X100038136Y-103627000D01*
X100067271Y-103639068D01*
X100247911Y-103675000D01*
X100432089Y-103675000D01*
X100612729Y-103639068D01*
X100641864Y-103627000D01*
X101767693Y-103627000D01*
X101807911Y-103635000D01*
X101992089Y-103635000D01*
X102032307Y-103627000D01*
X107547394Y-103627000D01*
X107973000Y-104052606D01*
X107973000Y-110947394D01*
X107547394Y-111373000D01*
X91052606Y-111373000D01*
X90627000Y-110947394D01*
X90627000Y-104052606D01*
X91052606Y-103627000D01*
X99038136Y-103627000D01*
X99067271Y-103639068D01*
G37*
G04 #@! TD.AperFunction*
D23*
X229290001Y-59362678D02*
X227585750Y-59365000D01*
X227427000Y-59523750D01*
X227427000Y-60623000D01*
X227447000Y-60623000D01*
X227447000Y-60877000D01*
X227427000Y-60877000D01*
X227427000Y-61976250D01*
X227585750Y-62135000D01*
X229290001Y-62137322D01*
X229290001Y-67862678D01*
X227585750Y-67865000D01*
X227427000Y-68023750D01*
X227427000Y-69123000D01*
X227447000Y-69123000D01*
X227447000Y-69377000D01*
X227427000Y-69377000D01*
X227427000Y-70476250D01*
X227585750Y-70635000D01*
X229290001Y-70637322D01*
X229290001Y-76362678D01*
X227585750Y-76365000D01*
X227427000Y-76523750D01*
X227427000Y-77623000D01*
X227447000Y-77623000D01*
X227447000Y-77877000D01*
X227427000Y-77877000D01*
X227427000Y-78976250D01*
X227585750Y-79135000D01*
X229290001Y-79137322D01*
X229290001Y-84862678D01*
X227585750Y-84865000D01*
X227427000Y-85023750D01*
X227427000Y-86123000D01*
X227447000Y-86123000D01*
X227447000Y-86377000D01*
X227427000Y-86377000D01*
X227427000Y-87476250D01*
X227585750Y-87635000D01*
X229290001Y-87637322D01*
X229290001Y-93973000D01*
X179997013Y-93973000D01*
X177678270Y-92040714D01*
X177698347Y-87000000D01*
X224121928Y-87000000D01*
X224134188Y-87124482D01*
X224170498Y-87244180D01*
X224229463Y-87354494D01*
X224308815Y-87451185D01*
X224405506Y-87530537D01*
X224515820Y-87589502D01*
X224635518Y-87625812D01*
X224760000Y-87638072D01*
X227014250Y-87635000D01*
X227173000Y-87476250D01*
X227173000Y-86377000D01*
X224283750Y-86377000D01*
X224125000Y-86535750D01*
X224121928Y-87000000D01*
X177698347Y-87000000D01*
X177736830Y-77338409D01*
X185707346Y-85308925D01*
X185721414Y-85342889D01*
X185823738Y-85496028D01*
X185953972Y-85626262D01*
X186107111Y-85728586D01*
X186277271Y-85799068D01*
X186457911Y-85835000D01*
X186642089Y-85835000D01*
X186822729Y-85799068D01*
X186992889Y-85728586D01*
X187146028Y-85626262D01*
X187272290Y-85500000D01*
X224121928Y-85500000D01*
X224125000Y-85964250D01*
X224283750Y-86123000D01*
X227173000Y-86123000D01*
X227173000Y-85023750D01*
X227014250Y-84865000D01*
X224760000Y-84861928D01*
X224635518Y-84874188D01*
X224515820Y-84910498D01*
X224405506Y-84969463D01*
X224308815Y-85048815D01*
X224229463Y-85145506D01*
X224170498Y-85255820D01*
X224134188Y-85375518D01*
X224121928Y-85500000D01*
X187272290Y-85500000D01*
X187276262Y-85496028D01*
X187378586Y-85342889D01*
X187449068Y-85172729D01*
X187485000Y-84992089D01*
X187485000Y-84807911D01*
X187449068Y-84627271D01*
X187378586Y-84457111D01*
X187276262Y-84303972D01*
X187146028Y-84173738D01*
X186992889Y-84071414D01*
X186958925Y-84057346D01*
X181401579Y-78500000D01*
X224121928Y-78500000D01*
X224134188Y-78624482D01*
X224170498Y-78744180D01*
X224229463Y-78854494D01*
X224308815Y-78951185D01*
X224405506Y-79030537D01*
X224515820Y-79089502D01*
X224635518Y-79125812D01*
X224760000Y-79138072D01*
X227014250Y-79135000D01*
X227173000Y-78976250D01*
X227173000Y-77877000D01*
X224283750Y-77877000D01*
X224125000Y-78035750D01*
X224121928Y-78500000D01*
X181401579Y-78500000D01*
X179901579Y-77000000D01*
X224121928Y-77000000D01*
X224125000Y-77464250D01*
X224283750Y-77623000D01*
X227173000Y-77623000D01*
X227173000Y-76523750D01*
X227014250Y-76365000D01*
X224760000Y-76361928D01*
X224635518Y-76374188D01*
X224515820Y-76410498D01*
X224405506Y-76469463D01*
X224308815Y-76548815D01*
X224229463Y-76645506D01*
X224170498Y-76755820D01*
X224134188Y-76875518D01*
X224121928Y-77000000D01*
X179901579Y-77000000D01*
X178685001Y-75783423D01*
X178685001Y-73057911D01*
X180515000Y-73057911D01*
X180515000Y-73242089D01*
X180550932Y-73422729D01*
X180621414Y-73592889D01*
X180723738Y-73746028D01*
X180853972Y-73876262D01*
X181007111Y-73978586D01*
X181177271Y-74049068D01*
X181357911Y-74085000D01*
X181542089Y-74085000D01*
X181722729Y-74049068D01*
X181892889Y-73978586D01*
X182046028Y-73876262D01*
X182176262Y-73746028D01*
X182278586Y-73592889D01*
X182349068Y-73422729D01*
X182385000Y-73242089D01*
X182385000Y-73057911D01*
X182349068Y-72877271D01*
X182278586Y-72707111D01*
X182210000Y-72604465D01*
X182210000Y-70000000D01*
X224121928Y-70000000D01*
X224134188Y-70124482D01*
X224170498Y-70244180D01*
X224229463Y-70354494D01*
X224308815Y-70451185D01*
X224405506Y-70530537D01*
X224515820Y-70589502D01*
X224635518Y-70625812D01*
X224760000Y-70638072D01*
X227014250Y-70635000D01*
X227173000Y-70476250D01*
X227173000Y-69377000D01*
X224283750Y-69377000D01*
X224125000Y-69535750D01*
X224121928Y-70000000D01*
X182210000Y-70000000D01*
X182210000Y-68500000D01*
X224121928Y-68500000D01*
X224125000Y-68964250D01*
X224283750Y-69123000D01*
X227173000Y-69123000D01*
X227173000Y-68023750D01*
X227014250Y-67865000D01*
X224760000Y-67861928D01*
X224635518Y-67874188D01*
X224515820Y-67910498D01*
X224405506Y-67969463D01*
X224308815Y-68048815D01*
X224229463Y-68145506D01*
X224170498Y-68255820D01*
X224134188Y-68375518D01*
X224121928Y-68500000D01*
X182210000Y-68500000D01*
X182210000Y-68212288D01*
X182226262Y-68196026D01*
X182328586Y-68042887D01*
X182399068Y-67872727D01*
X182435000Y-67692087D01*
X182435000Y-67507909D01*
X182399068Y-67327269D01*
X182328586Y-67157109D01*
X182226262Y-67003970D01*
X182096028Y-66873736D01*
X181942889Y-66771412D01*
X181772729Y-66700930D01*
X181592089Y-66664998D01*
X181407911Y-66664998D01*
X181227271Y-66700930D01*
X181057111Y-66771412D01*
X180903972Y-66873736D01*
X180773738Y-67003970D01*
X180671414Y-67157109D01*
X180600932Y-67327269D01*
X180565000Y-67507909D01*
X180565000Y-67692087D01*
X180600932Y-67872727D01*
X180671414Y-68042887D01*
X180690001Y-68070704D01*
X180690000Y-72604464D01*
X180621414Y-72707111D01*
X180550932Y-72877271D01*
X180515000Y-73057911D01*
X178685001Y-73057911D01*
X178685001Y-60833630D01*
X178696028Y-60826262D01*
X178826262Y-60696028D01*
X178928586Y-60542889D01*
X178999068Y-60372729D01*
X179035000Y-60192089D01*
X179035000Y-60007911D01*
X178999068Y-59827271D01*
X178928586Y-59657111D01*
X178826262Y-59503972D01*
X178696028Y-59373738D01*
X178542889Y-59271414D01*
X178372729Y-59200932D01*
X178192089Y-59165000D01*
X178007911Y-59165000D01*
X177827271Y-59200932D01*
X177809043Y-59208482D01*
X177811036Y-58707911D01*
X208165000Y-58707911D01*
X208165000Y-58892089D01*
X208200932Y-59072729D01*
X208215000Y-59106693D01*
X208215001Y-65893305D01*
X208200932Y-65927271D01*
X208165000Y-66107911D01*
X208165000Y-66292089D01*
X208200932Y-66472729D01*
X208271414Y-66642889D01*
X208373738Y-66796028D01*
X208503972Y-66926262D01*
X208657111Y-67028586D01*
X208827271Y-67099068D01*
X209007911Y-67135000D01*
X209192089Y-67135000D01*
X209372729Y-67099068D01*
X209542889Y-67028586D01*
X209696028Y-66926262D01*
X209826262Y-66796028D01*
X209928586Y-66642889D01*
X209999068Y-66472729D01*
X210035000Y-66292089D01*
X210035000Y-66107911D01*
X209999068Y-65927271D01*
X209985000Y-65893308D01*
X209985000Y-61500000D01*
X224121928Y-61500000D01*
X224134188Y-61624482D01*
X224170498Y-61744180D01*
X224229463Y-61854494D01*
X224308815Y-61951185D01*
X224405506Y-62030537D01*
X224515820Y-62089502D01*
X224635518Y-62125812D01*
X224760000Y-62138072D01*
X227014250Y-62135000D01*
X227173000Y-61976250D01*
X227173000Y-60877000D01*
X224283750Y-60877000D01*
X224125000Y-61035750D01*
X224121928Y-61500000D01*
X209985000Y-61500000D01*
X209985000Y-60000000D01*
X224121928Y-60000000D01*
X224125000Y-60464250D01*
X224283750Y-60623000D01*
X227173000Y-60623000D01*
X227173000Y-59523750D01*
X227014250Y-59365000D01*
X224760000Y-59361928D01*
X224635518Y-59374188D01*
X224515820Y-59410498D01*
X224405506Y-59469463D01*
X224308815Y-59548815D01*
X224229463Y-59645506D01*
X224170498Y-59755820D01*
X224134188Y-59875518D01*
X224121928Y-60000000D01*
X209985000Y-60000000D01*
X209985000Y-59106692D01*
X209999068Y-59072729D01*
X210035000Y-58892089D01*
X210035000Y-58707911D01*
X209999068Y-58527271D01*
X209928586Y-58357111D01*
X209826262Y-58203972D01*
X209696028Y-58073738D01*
X209542889Y-57971414D01*
X209372729Y-57900932D01*
X209192089Y-57865000D01*
X209007911Y-57865000D01*
X208827271Y-57900932D01*
X208657111Y-57971414D01*
X208503972Y-58073738D01*
X208373738Y-58203972D01*
X208271414Y-58357111D01*
X208200932Y-58527271D01*
X208165000Y-58707911D01*
X177811036Y-58707911D01*
X177826999Y-54700506D01*
X177824560Y-54675224D01*
X177817333Y-54651399D01*
X177805597Y-54629443D01*
X177789803Y-54610197D01*
X177770557Y-54594403D01*
X177748601Y-54582667D01*
X177724776Y-54575440D01*
X177700000Y-54573000D01*
X176700000Y-54573000D01*
X176675707Y-54575345D01*
X176651855Y-54582480D01*
X176629853Y-54594130D01*
X176610546Y-54609850D01*
X176594678Y-54629033D01*
X176582857Y-54650944D01*
X176575537Y-54674741D01*
X176573001Y-54699507D01*
X176424034Y-93099507D01*
X176429228Y-93135952D01*
X176438582Y-93159024D01*
X176452258Y-93179828D01*
X176469730Y-93197564D01*
X178869730Y-95197564D01*
X178880476Y-95205597D01*
X178902432Y-95217333D01*
X178926257Y-95224560D01*
X178951033Y-95227000D01*
X229290001Y-95227000D01*
X229290000Y-141999183D01*
X229258505Y-141967688D01*
X229007095Y-141799701D01*
X228727743Y-141683989D01*
X228431184Y-141625000D01*
X228128816Y-141625000D01*
X227832257Y-141683989D01*
X227552905Y-141799701D01*
X227301495Y-141967688D01*
X227087688Y-142181495D01*
X226919701Y-142432905D01*
X226803989Y-142712257D01*
X226745000Y-143008816D01*
X226745000Y-143311184D01*
X226803989Y-143607743D01*
X226919701Y-143887095D01*
X227087688Y-144138505D01*
X227301495Y-144352312D01*
X227552905Y-144520299D01*
X227832257Y-144636011D01*
X228128816Y-144695000D01*
X228431184Y-144695000D01*
X228727743Y-144636011D01*
X229007095Y-144520299D01*
X229258505Y-144352312D01*
X229290000Y-144320817D01*
X229290000Y-149290000D01*
X70710000Y-149290000D01*
X70710000Y-144881583D01*
X70745126Y-145058172D01*
X70902297Y-145437618D01*
X71130475Y-145779110D01*
X71420890Y-146069525D01*
X71762382Y-146297703D01*
X72141828Y-146454874D01*
X72544645Y-146535000D01*
X72955355Y-146535000D01*
X73358172Y-146454874D01*
X73737618Y-146297703D01*
X74079110Y-146069525D01*
X74369525Y-145779110D01*
X74597703Y-145437618D01*
X74623841Y-145374514D01*
X96332500Y-145374514D01*
X96332500Y-145625485D01*
X96355470Y-145858703D01*
X96446245Y-146157948D01*
X96593655Y-146433734D01*
X96792037Y-146675463D01*
X97033765Y-146873845D01*
X97309551Y-147021255D01*
X97608796Y-147112030D01*
X97920000Y-147142681D01*
X98231203Y-147112030D01*
X98530448Y-147021255D01*
X98806234Y-146873845D01*
X99047963Y-146675463D01*
X99195163Y-146496101D01*
X99350563Y-146681315D01*
X99593077Y-146875969D01*
X99868906Y-147019571D01*
X100087020Y-147090563D01*
X100333000Y-146970594D01*
X100333000Y-145627000D01*
X100313000Y-145627000D01*
X100313000Y-145373000D01*
X100333000Y-145373000D01*
X100333000Y-144029406D01*
X100587000Y-144029406D01*
X100587000Y-145373000D01*
X100607000Y-145373000D01*
X100607000Y-145627000D01*
X100587000Y-145627000D01*
X100587000Y-146970594D01*
X100832980Y-147090563D01*
X101051094Y-147019571D01*
X101326923Y-146875969D01*
X101467941Y-146762781D01*
X101516963Y-146854494D01*
X101596315Y-146951185D01*
X101693006Y-147030537D01*
X101803320Y-147089502D01*
X101923018Y-147125812D01*
X102047500Y-147138072D01*
X103952500Y-147138072D01*
X104076982Y-147125812D01*
X104196680Y-147089502D01*
X104306994Y-147030537D01*
X104403685Y-146951185D01*
X104483037Y-146854494D01*
X104542002Y-146744180D01*
X104578312Y-146624482D01*
X104590572Y-146500000D01*
X104590572Y-145548816D01*
X221665000Y-145548816D01*
X221665000Y-145851184D01*
X221723989Y-146147743D01*
X221839701Y-146427095D01*
X222007688Y-146678505D01*
X222221495Y-146892312D01*
X222472905Y-147060299D01*
X222752257Y-147176011D01*
X223048816Y-147235000D01*
X223351184Y-147235000D01*
X223647743Y-147176011D01*
X223927095Y-147060299D01*
X224178505Y-146892312D01*
X224392312Y-146678505D01*
X224560299Y-146427095D01*
X224676011Y-146147743D01*
X224735000Y-145851184D01*
X224735000Y-145548816D01*
X224676011Y-145252257D01*
X224560299Y-144972905D01*
X224392312Y-144721495D01*
X224178505Y-144507688D01*
X223927095Y-144339701D01*
X223647743Y-144223989D01*
X223351184Y-144165000D01*
X223048816Y-144165000D01*
X222752257Y-144223989D01*
X222472905Y-144339701D01*
X222221495Y-144507688D01*
X222007688Y-144721495D01*
X221839701Y-144972905D01*
X221723989Y-145252257D01*
X221665000Y-145548816D01*
X104590572Y-145548816D01*
X104590572Y-144500000D01*
X104578312Y-144375518D01*
X104542002Y-144255820D01*
X104483037Y-144145506D01*
X104403685Y-144048815D01*
X104306994Y-143969463D01*
X104196680Y-143910498D01*
X104076982Y-143874188D01*
X103952500Y-143861928D01*
X102047500Y-143861928D01*
X101923018Y-143874188D01*
X101803320Y-143910498D01*
X101693006Y-143969463D01*
X101596315Y-144048815D01*
X101516963Y-144145506D01*
X101467941Y-144237219D01*
X101326923Y-144124031D01*
X101051094Y-143980429D01*
X100832980Y-143909437D01*
X100587000Y-144029406D01*
X100333000Y-144029406D01*
X100087020Y-143909437D01*
X99868906Y-143980429D01*
X99593077Y-144124031D01*
X99350563Y-144318685D01*
X99195162Y-144503900D01*
X99047963Y-144324537D01*
X98806235Y-144126155D01*
X98530449Y-143978745D01*
X98231204Y-143887970D01*
X97920000Y-143857319D01*
X97608797Y-143887970D01*
X97309552Y-143978745D01*
X97033766Y-144126155D01*
X96792037Y-144324537D01*
X96593655Y-144566265D01*
X96446245Y-144842051D01*
X96355470Y-145141296D01*
X96332500Y-145374514D01*
X74623841Y-145374514D01*
X74754874Y-145058172D01*
X74835000Y-144655355D01*
X74835000Y-144244645D01*
X74754874Y-143841828D01*
X74597703Y-143462382D01*
X74369525Y-143120890D01*
X74079110Y-142830475D01*
X73737618Y-142602297D01*
X73358172Y-142445126D01*
X72955355Y-142365000D01*
X72544645Y-142365000D01*
X72141828Y-142445126D01*
X71762382Y-142602297D01*
X71420890Y-142830475D01*
X71130475Y-143120890D01*
X70902297Y-143462382D01*
X70745126Y-143841828D01*
X70710000Y-144018417D01*
X70710000Y-106198816D01*
X73755000Y-106198816D01*
X73755000Y-106501184D01*
X73813989Y-106797743D01*
X73929701Y-107077095D01*
X74097688Y-107328505D01*
X74311495Y-107542312D01*
X74427763Y-107620000D01*
X74311495Y-107697688D01*
X74097688Y-107911495D01*
X73929701Y-108162905D01*
X73813989Y-108442257D01*
X73755000Y-108738816D01*
X73755000Y-109041184D01*
X73813989Y-109337743D01*
X73929701Y-109617095D01*
X74097688Y-109868505D01*
X74311495Y-110082312D01*
X74427763Y-110160000D01*
X74311495Y-110237688D01*
X74097688Y-110451495D01*
X73929701Y-110702905D01*
X73813989Y-110982257D01*
X73755000Y-111278816D01*
X73755000Y-111581184D01*
X73813989Y-111877743D01*
X73929701Y-112157095D01*
X74097688Y-112408505D01*
X74311495Y-112622312D01*
X74427763Y-112700000D01*
X74311495Y-112777688D01*
X74097688Y-112991495D01*
X73929701Y-113242905D01*
X73813989Y-113522257D01*
X73755000Y-113818816D01*
X73755000Y-114121184D01*
X73813989Y-114417743D01*
X73929701Y-114697095D01*
X74097688Y-114948505D01*
X74311495Y-115162312D01*
X74427763Y-115240000D01*
X74311495Y-115317688D01*
X74097688Y-115531495D01*
X73929701Y-115782905D01*
X73813989Y-116062257D01*
X73755000Y-116358816D01*
X73755000Y-116661184D01*
X73813989Y-116957743D01*
X73929701Y-117237095D01*
X74097688Y-117488505D01*
X74311495Y-117702312D01*
X74427763Y-117780000D01*
X74311495Y-117857688D01*
X74097688Y-118071495D01*
X73929701Y-118322905D01*
X73813989Y-118602257D01*
X73755000Y-118898816D01*
X73755000Y-119201184D01*
X73813989Y-119497743D01*
X73929701Y-119777095D01*
X74097688Y-120028505D01*
X74311495Y-120242312D01*
X74427763Y-120320000D01*
X74311495Y-120397688D01*
X74097688Y-120611495D01*
X73929701Y-120862905D01*
X73813989Y-121142257D01*
X73755000Y-121438816D01*
X73755000Y-121741184D01*
X73813989Y-122037743D01*
X73929701Y-122317095D01*
X74097688Y-122568505D01*
X74311495Y-122782312D01*
X74427763Y-122860000D01*
X74311495Y-122937688D01*
X74097688Y-123151495D01*
X73929701Y-123402905D01*
X73813989Y-123682257D01*
X73755000Y-123978816D01*
X73755000Y-124281184D01*
X73813989Y-124577743D01*
X73929701Y-124857095D01*
X74097688Y-125108505D01*
X74311495Y-125322312D01*
X74427763Y-125400000D01*
X74311495Y-125477688D01*
X74097688Y-125691495D01*
X73929701Y-125942905D01*
X73813989Y-126222257D01*
X73755000Y-126518816D01*
X73755000Y-126821184D01*
X73813989Y-127117743D01*
X73929701Y-127397095D01*
X74097688Y-127648505D01*
X74311495Y-127862312D01*
X74427763Y-127940000D01*
X74311495Y-128017688D01*
X74097688Y-128231495D01*
X73929701Y-128482905D01*
X73813989Y-128762257D01*
X73755000Y-129058816D01*
X73755000Y-129361184D01*
X73813989Y-129657743D01*
X73929701Y-129937095D01*
X74097688Y-130188505D01*
X74311495Y-130402312D01*
X74427763Y-130480000D01*
X74311495Y-130557688D01*
X74097688Y-130771495D01*
X73929701Y-131022905D01*
X73813989Y-131302257D01*
X73755000Y-131598816D01*
X73755000Y-131901184D01*
X73813989Y-132197743D01*
X73929701Y-132477095D01*
X74097688Y-132728505D01*
X74311495Y-132942312D01*
X74427763Y-133020000D01*
X74311495Y-133097688D01*
X74097688Y-133311495D01*
X73929701Y-133562905D01*
X73813989Y-133842257D01*
X73755000Y-134138816D01*
X73755000Y-134441184D01*
X73813989Y-134737743D01*
X73929701Y-135017095D01*
X74097688Y-135268505D01*
X74311495Y-135482312D01*
X74427763Y-135560000D01*
X74311495Y-135637688D01*
X74097688Y-135851495D01*
X73929701Y-136102905D01*
X73813989Y-136382257D01*
X73755000Y-136678816D01*
X73755000Y-136981184D01*
X73813989Y-137277743D01*
X73929701Y-137557095D01*
X74097688Y-137808505D01*
X74311495Y-138022312D01*
X74427763Y-138100000D01*
X74311495Y-138177688D01*
X74097688Y-138391495D01*
X73929701Y-138642905D01*
X73813989Y-138922257D01*
X73755000Y-139218816D01*
X73755000Y-139521184D01*
X73813989Y-139817743D01*
X73929701Y-140097095D01*
X74097688Y-140348505D01*
X74311495Y-140562312D01*
X74562905Y-140730299D01*
X74842257Y-140846011D01*
X75138816Y-140905000D01*
X75441184Y-140905000D01*
X75737743Y-140846011D01*
X76017095Y-140730299D01*
X76268505Y-140562312D01*
X76482312Y-140348505D01*
X76650299Y-140097095D01*
X76766011Y-139817743D01*
X76825000Y-139521184D01*
X76825000Y-139218816D01*
X76766011Y-138922257D01*
X76650299Y-138642905D01*
X76482312Y-138391495D01*
X76268505Y-138177688D01*
X76152237Y-138100000D01*
X76268505Y-138022312D01*
X76482312Y-137808505D01*
X76650299Y-137557095D01*
X76766011Y-137277743D01*
X76825000Y-136981184D01*
X76825000Y-136678816D01*
X76766011Y-136382257D01*
X76650299Y-136102905D01*
X76482312Y-135851495D01*
X76268505Y-135637688D01*
X76152237Y-135560000D01*
X76268505Y-135482312D01*
X76482312Y-135268505D01*
X76650299Y-135017095D01*
X76766011Y-134737743D01*
X76825000Y-134441184D01*
X76825000Y-134138816D01*
X76766011Y-133842257D01*
X76650299Y-133562905D01*
X76482312Y-133311495D01*
X76268505Y-133097688D01*
X76152237Y-133020000D01*
X76268505Y-132942312D01*
X76482312Y-132728505D01*
X76650299Y-132477095D01*
X76766011Y-132197743D01*
X76825000Y-131901184D01*
X76825000Y-131598816D01*
X76766011Y-131302257D01*
X76650299Y-131022905D01*
X76482312Y-130771495D01*
X76268505Y-130557688D01*
X76152237Y-130480000D01*
X76268505Y-130402312D01*
X76482312Y-130188505D01*
X76650299Y-129937095D01*
X76766011Y-129657743D01*
X76825000Y-129361184D01*
X76825000Y-129058816D01*
X76766011Y-128762257D01*
X76650299Y-128482905D01*
X76482312Y-128231495D01*
X76268505Y-128017688D01*
X76152237Y-127940000D01*
X76268505Y-127862312D01*
X76482312Y-127648505D01*
X76650299Y-127397095D01*
X76766011Y-127117743D01*
X76825000Y-126821184D01*
X76825000Y-126518816D01*
X76766011Y-126222257D01*
X76650299Y-125942905D01*
X76482312Y-125691495D01*
X76268505Y-125477688D01*
X76152237Y-125400000D01*
X76268505Y-125322312D01*
X76482312Y-125108505D01*
X76650299Y-124857095D01*
X76766011Y-124577743D01*
X76825000Y-124281184D01*
X76825000Y-123978816D01*
X76766011Y-123682257D01*
X76650299Y-123402905D01*
X76482312Y-123151495D01*
X76268505Y-122937688D01*
X76152237Y-122860000D01*
X76268505Y-122782312D01*
X76482312Y-122568505D01*
X76650299Y-122317095D01*
X76766011Y-122037743D01*
X76825000Y-121741184D01*
X76825000Y-121438816D01*
X76766011Y-121142257D01*
X76650299Y-120862905D01*
X76482312Y-120611495D01*
X76268505Y-120397688D01*
X76152237Y-120320000D01*
X76268505Y-120242312D01*
X76482312Y-120028505D01*
X76650299Y-119777095D01*
X76766011Y-119497743D01*
X76825000Y-119201184D01*
X76825000Y-118898816D01*
X76766011Y-118602257D01*
X76650299Y-118322905D01*
X76482312Y-118071495D01*
X76268505Y-117857688D01*
X76152237Y-117780000D01*
X76268505Y-117702312D01*
X76482312Y-117488505D01*
X76650299Y-117237095D01*
X76766011Y-116957743D01*
X76825000Y-116661184D01*
X76825000Y-116358816D01*
X76766011Y-116062257D01*
X76650299Y-115782905D01*
X76482312Y-115531495D01*
X76268505Y-115317688D01*
X76152237Y-115240000D01*
X76268505Y-115162312D01*
X76482312Y-114948505D01*
X76650299Y-114697095D01*
X76766011Y-114417743D01*
X76825000Y-114121184D01*
X76825000Y-113818816D01*
X76766011Y-113522257D01*
X76650299Y-113242905D01*
X76482312Y-112991495D01*
X76268505Y-112777688D01*
X76152237Y-112700000D01*
X76268505Y-112622312D01*
X76482312Y-112408505D01*
X76650299Y-112157095D01*
X76766011Y-111877743D01*
X76825000Y-111581184D01*
X76825000Y-111278816D01*
X76766011Y-110982257D01*
X76650299Y-110702905D01*
X76482312Y-110451495D01*
X76268505Y-110237688D01*
X76152237Y-110160000D01*
X76268505Y-110082312D01*
X76482312Y-109868505D01*
X76650299Y-109617095D01*
X76766011Y-109337743D01*
X76825000Y-109041184D01*
X76825000Y-108738816D01*
X76766011Y-108442257D01*
X76650299Y-108162905D01*
X76482312Y-107911495D01*
X76268505Y-107697688D01*
X76152237Y-107620000D01*
X76268505Y-107542312D01*
X76482312Y-107328505D01*
X76650299Y-107077095D01*
X76766011Y-106797743D01*
X76825000Y-106501184D01*
X76825000Y-106198816D01*
X78835000Y-106198816D01*
X78835000Y-106501184D01*
X78893989Y-106797743D01*
X79009701Y-107077095D01*
X79177688Y-107328505D01*
X79391495Y-107542312D01*
X79507763Y-107620000D01*
X79391495Y-107697688D01*
X79177688Y-107911495D01*
X79009701Y-108162905D01*
X78893989Y-108442257D01*
X78835000Y-108738816D01*
X78835000Y-109041184D01*
X78893989Y-109337743D01*
X79009701Y-109617095D01*
X79177688Y-109868505D01*
X79391495Y-110082312D01*
X79507763Y-110160000D01*
X79391495Y-110237688D01*
X79177688Y-110451495D01*
X79009701Y-110702905D01*
X78893989Y-110982257D01*
X78835000Y-111278816D01*
X78835000Y-111581184D01*
X78893989Y-111877743D01*
X79009701Y-112157095D01*
X79177688Y-112408505D01*
X79391495Y-112622312D01*
X79507763Y-112700000D01*
X79391495Y-112777688D01*
X79177688Y-112991495D01*
X79009701Y-113242905D01*
X78893989Y-113522257D01*
X78835000Y-113818816D01*
X78835000Y-114121184D01*
X78893989Y-114417743D01*
X79009701Y-114697095D01*
X79177688Y-114948505D01*
X79391495Y-115162312D01*
X79507763Y-115240000D01*
X79391495Y-115317688D01*
X79177688Y-115531495D01*
X79009701Y-115782905D01*
X78893989Y-116062257D01*
X78835000Y-116358816D01*
X78835000Y-116661184D01*
X78893989Y-116957743D01*
X79009701Y-117237095D01*
X79177688Y-117488505D01*
X79391495Y-117702312D01*
X79507763Y-117780000D01*
X79391495Y-117857688D01*
X79177688Y-118071495D01*
X79009701Y-118322905D01*
X78893989Y-118602257D01*
X78835000Y-118898816D01*
X78835000Y-119201184D01*
X78893989Y-119497743D01*
X79009701Y-119777095D01*
X79177688Y-120028505D01*
X79391495Y-120242312D01*
X79507763Y-120320000D01*
X79391495Y-120397688D01*
X79177688Y-120611495D01*
X79009701Y-120862905D01*
X78893989Y-121142257D01*
X78835000Y-121438816D01*
X78835000Y-121741184D01*
X78893989Y-122037743D01*
X79009701Y-122317095D01*
X79177688Y-122568505D01*
X79391495Y-122782312D01*
X79507763Y-122860000D01*
X79391495Y-122937688D01*
X79177688Y-123151495D01*
X79009701Y-123402905D01*
X78893989Y-123682257D01*
X78835000Y-123978816D01*
X78835000Y-124281184D01*
X78893989Y-124577743D01*
X79009701Y-124857095D01*
X79177688Y-125108505D01*
X79391495Y-125322312D01*
X79507763Y-125400000D01*
X79391495Y-125477688D01*
X79177688Y-125691495D01*
X79009701Y-125942905D01*
X78893989Y-126222257D01*
X78835000Y-126518816D01*
X78835000Y-126821184D01*
X78893989Y-127117743D01*
X79009701Y-127397095D01*
X79177688Y-127648505D01*
X79391495Y-127862312D01*
X79507763Y-127940000D01*
X79391495Y-128017688D01*
X79177688Y-128231495D01*
X79009701Y-128482905D01*
X78893989Y-128762257D01*
X78835000Y-129058816D01*
X78835000Y-129361184D01*
X78893989Y-129657743D01*
X79009701Y-129937095D01*
X79177688Y-130188505D01*
X79391495Y-130402312D01*
X79507763Y-130480000D01*
X79391495Y-130557688D01*
X79177688Y-130771495D01*
X79009701Y-131022905D01*
X78893989Y-131302257D01*
X78835000Y-131598816D01*
X78835000Y-131901184D01*
X78893989Y-132197743D01*
X79009701Y-132477095D01*
X79177688Y-132728505D01*
X79391495Y-132942312D01*
X79507763Y-133020000D01*
X79391495Y-133097688D01*
X79177688Y-133311495D01*
X79009701Y-133562905D01*
X78893989Y-133842257D01*
X78835000Y-134138816D01*
X78835000Y-134441184D01*
X78893989Y-134737743D01*
X79009701Y-135017095D01*
X79177688Y-135268505D01*
X79391495Y-135482312D01*
X79507763Y-135560000D01*
X79391495Y-135637688D01*
X79177688Y-135851495D01*
X79009701Y-136102905D01*
X78893989Y-136382257D01*
X78835000Y-136678816D01*
X78835000Y-136981184D01*
X78893989Y-137277743D01*
X79009701Y-137557095D01*
X79177688Y-137808505D01*
X79391495Y-138022312D01*
X79507763Y-138100000D01*
X79391495Y-138177688D01*
X79177688Y-138391495D01*
X79009701Y-138642905D01*
X78893989Y-138922257D01*
X78835000Y-139218816D01*
X78835000Y-139521184D01*
X78893989Y-139817743D01*
X79009701Y-140097095D01*
X79177688Y-140348505D01*
X79391495Y-140562312D01*
X79642905Y-140730299D01*
X79922257Y-140846011D01*
X80218816Y-140905000D01*
X80521184Y-140905000D01*
X80817743Y-140846011D01*
X81097095Y-140730299D01*
X81348505Y-140562312D01*
X81562312Y-140348505D01*
X81730299Y-140097095D01*
X81811938Y-139900000D01*
X91361928Y-139900000D01*
X91361928Y-141500000D01*
X91374188Y-141624482D01*
X91410498Y-141744180D01*
X91469463Y-141854494D01*
X91548815Y-141951185D01*
X91645506Y-142030537D01*
X91755820Y-142089502D01*
X91875518Y-142125812D01*
X92000000Y-142138072D01*
X93600000Y-142138072D01*
X93724482Y-142125812D01*
X93844180Y-142089502D01*
X93954494Y-142030537D01*
X94051185Y-141951185D01*
X94130537Y-141854494D01*
X94189502Y-141744180D01*
X94225812Y-141624482D01*
X94238072Y-141500000D01*
X94238072Y-140000000D01*
X106661928Y-140000000D01*
X106661928Y-141600000D01*
X106674188Y-141724482D01*
X106710498Y-141844180D01*
X106769463Y-141954494D01*
X106848815Y-142051185D01*
X106945506Y-142130537D01*
X107055820Y-142189502D01*
X107175518Y-142225812D01*
X107300000Y-142238072D01*
X108900000Y-142238072D01*
X109024482Y-142225812D01*
X109144180Y-142189502D01*
X109254494Y-142130537D01*
X109351185Y-142051185D01*
X109430537Y-141954494D01*
X109489502Y-141844180D01*
X109525812Y-141724482D01*
X109538072Y-141600000D01*
X109538072Y-140000000D01*
X109525812Y-139875518D01*
X109489502Y-139755820D01*
X109430537Y-139645506D01*
X109351185Y-139548815D01*
X109254494Y-139469463D01*
X109144180Y-139410498D01*
X109024482Y-139374188D01*
X108900000Y-139361928D01*
X108892785Y-139361928D01*
X108913097Y-139292702D01*
X108862104Y-139241709D01*
X191858315Y-139241709D01*
X191861992Y-139279041D01*
X191861991Y-142266668D01*
X191858315Y-142303991D01*
X191861991Y-142341313D01*
X191861991Y-142341323D01*
X191872988Y-142452976D01*
X191896854Y-142531653D01*
X191916445Y-142596237D01*
X191987017Y-142728267D01*
X191989926Y-142731811D01*
X192081990Y-142843992D01*
X192110993Y-142867794D01*
X192218747Y-142975549D01*
X192242832Y-143096629D01*
X192313314Y-143266789D01*
X192415638Y-143419928D01*
X192545872Y-143550162D01*
X192699011Y-143652486D01*
X192869171Y-143722968D01*
X193049811Y-143758900D01*
X193233989Y-143758900D01*
X193414629Y-143722968D01*
X193584789Y-143652486D01*
X193737928Y-143550162D01*
X193868162Y-143419928D01*
X193970486Y-143266789D01*
X194040968Y-143096629D01*
X194058435Y-143008816D01*
X214045000Y-143008816D01*
X214045000Y-143311184D01*
X214103989Y-143607743D01*
X214219701Y-143887095D01*
X214387688Y-144138505D01*
X214601495Y-144352312D01*
X214852905Y-144520299D01*
X215132257Y-144636011D01*
X215428816Y-144695000D01*
X215731184Y-144695000D01*
X216027743Y-144636011D01*
X216307095Y-144520299D01*
X216558505Y-144352312D01*
X216772312Y-144138505D01*
X216940299Y-143887095D01*
X217056011Y-143607743D01*
X217115000Y-143311184D01*
X217115000Y-143008816D01*
X217056011Y-142712257D01*
X216940299Y-142432905D01*
X216772312Y-142181495D01*
X216558505Y-141967688D01*
X216307095Y-141799701D01*
X216027743Y-141683989D01*
X215731184Y-141625000D01*
X215428816Y-141625000D01*
X215132257Y-141683989D01*
X214852905Y-141799701D01*
X214601495Y-141967688D01*
X214387688Y-142181495D01*
X214219701Y-142432905D01*
X214103989Y-142712257D01*
X214045000Y-143008816D01*
X194058435Y-143008816D01*
X194076900Y-142915989D01*
X194076900Y-142731811D01*
X194040968Y-142551171D01*
X193970486Y-142381011D01*
X193868162Y-142227872D01*
X193737928Y-142097638D01*
X193584789Y-141995314D01*
X193414629Y-141924832D01*
X193381991Y-141918340D01*
X193381991Y-139556510D01*
X198360498Y-134578003D01*
X218197573Y-134578003D01*
X218277947Y-134875368D01*
X218476388Y-135299439D01*
X218753748Y-135676648D01*
X219099369Y-135992498D01*
X219499968Y-136234852D01*
X219940150Y-136394396D01*
X220403000Y-136465000D01*
X222153000Y-136465000D01*
X222153000Y-134207000D01*
X222407000Y-134207000D01*
X222407000Y-136465000D01*
X224157000Y-136465000D01*
X224619850Y-136394396D01*
X225060032Y-136234852D01*
X225460631Y-135992498D01*
X225806252Y-135676648D01*
X226083612Y-135299439D01*
X226282053Y-134875368D01*
X226362427Y-134578003D01*
X226252625Y-134207000D01*
X222407000Y-134207000D01*
X222153000Y-134207000D01*
X218307375Y-134207000D01*
X218197573Y-134578003D01*
X198360498Y-134578003D01*
X199356504Y-133581997D01*
X218197573Y-133581997D01*
X218307375Y-133953000D01*
X222153000Y-133953000D01*
X222153000Y-131695000D01*
X222407000Y-131695000D01*
X222407000Y-133953000D01*
X226252625Y-133953000D01*
X226362427Y-133581997D01*
X226282053Y-133284632D01*
X226083612Y-132860561D01*
X225806252Y-132483352D01*
X225460631Y-132167502D01*
X225060032Y-131925148D01*
X224619850Y-131765604D01*
X224157000Y-131695000D01*
X222407000Y-131695000D01*
X222153000Y-131695000D01*
X220403000Y-131695000D01*
X219940150Y-131765604D01*
X219499968Y-131925148D01*
X219099369Y-132167502D01*
X218753748Y-132483352D01*
X218476388Y-132860561D01*
X218277947Y-133284632D01*
X218197573Y-133581997D01*
X199356504Y-133581997D01*
X201526604Y-131411898D01*
X201555601Y-131388101D01*
X201650574Y-131272376D01*
X201721146Y-131140347D01*
X201764603Y-130997086D01*
X201771175Y-130930358D01*
X201844186Y-130821089D01*
X201914668Y-130650929D01*
X201950600Y-130470289D01*
X201950600Y-130286111D01*
X201914668Y-130105471D01*
X201844186Y-129935311D01*
X201741862Y-129782172D01*
X201611628Y-129651938D01*
X201458489Y-129549614D01*
X201288329Y-129479132D01*
X201107689Y-129443200D01*
X200923511Y-129443200D01*
X200742871Y-129479132D01*
X200572711Y-129549614D01*
X200480200Y-129611428D01*
X200480200Y-129000000D01*
X215308057Y-129000000D01*
X215335764Y-129281309D01*
X215417818Y-129551808D01*
X215551068Y-129801101D01*
X215730392Y-130019608D01*
X215948899Y-130198932D01*
X216198192Y-130332182D01*
X216468691Y-130414236D01*
X216679508Y-130435000D01*
X217720492Y-130435000D01*
X217931309Y-130414236D01*
X218201808Y-130332182D01*
X218451101Y-130198932D01*
X218669608Y-130019608D01*
X218848932Y-129801101D01*
X218982182Y-129551808D01*
X219064236Y-129281309D01*
X219091943Y-129000000D01*
X219064236Y-128718691D01*
X218982182Y-128448192D01*
X218848932Y-128198899D01*
X218669608Y-127980392D01*
X218451101Y-127801068D01*
X218323259Y-127732735D01*
X218552839Y-127582601D01*
X218754500Y-127384895D01*
X218913715Y-127151646D01*
X219024367Y-126891818D01*
X219041904Y-126809039D01*
X218919915Y-126587000D01*
X217327000Y-126587000D01*
X217327000Y-126607000D01*
X217073000Y-126607000D01*
X217073000Y-126587000D01*
X215480085Y-126587000D01*
X215358096Y-126809039D01*
X215375633Y-126891818D01*
X215486285Y-127151646D01*
X215645500Y-127384895D01*
X215847161Y-127582601D01*
X216076741Y-127732735D01*
X215948899Y-127801068D01*
X215730392Y-127980392D01*
X215551068Y-128198899D01*
X215417818Y-128448192D01*
X215335764Y-128718691D01*
X215308057Y-129000000D01*
X200480200Y-129000000D01*
X200480200Y-126758135D01*
X200548786Y-126655489D01*
X200619268Y-126485329D01*
X200655200Y-126304689D01*
X200655200Y-126120511D01*
X200653301Y-126110961D01*
X215358096Y-126110961D01*
X215480085Y-126333000D01*
X217073000Y-126333000D01*
X217073000Y-125025000D01*
X217327000Y-125025000D01*
X217327000Y-126333000D01*
X218919915Y-126333000D01*
X219041904Y-126110961D01*
X219024367Y-126028182D01*
X218913715Y-125768354D01*
X218754500Y-125535105D01*
X218552839Y-125337399D01*
X218316483Y-125182834D01*
X218054514Y-125077350D01*
X217777000Y-125025000D01*
X217327000Y-125025000D01*
X217073000Y-125025000D01*
X216623000Y-125025000D01*
X216345486Y-125077350D01*
X216083517Y-125182834D01*
X215847161Y-125337399D01*
X215645500Y-125535105D01*
X215486285Y-125768354D01*
X215375633Y-126028182D01*
X215358096Y-126110961D01*
X200653301Y-126110961D01*
X200619268Y-125939871D01*
X200548786Y-125769711D01*
X200446462Y-125616572D01*
X200316228Y-125486338D01*
X200163089Y-125384014D01*
X199992929Y-125313532D01*
X199812289Y-125277600D01*
X199628111Y-125277600D01*
X199447471Y-125313532D01*
X199337200Y-125359207D01*
X199337200Y-125081523D01*
X199340876Y-125044200D01*
X199337200Y-125006877D01*
X199337200Y-125006867D01*
X199326203Y-124895214D01*
X199282746Y-124751953D01*
X199212174Y-124619924D01*
X199117201Y-124504199D01*
X199088197Y-124480396D01*
X198976901Y-124369100D01*
X201397165Y-124369100D01*
X201499811Y-124437686D01*
X201669971Y-124508168D01*
X201850611Y-124544100D01*
X202034789Y-124544100D01*
X202215429Y-124508168D01*
X202385589Y-124437686D01*
X202415046Y-124418003D01*
X218197573Y-124418003D01*
X218277947Y-124715368D01*
X218476388Y-125139439D01*
X218753748Y-125516648D01*
X219099369Y-125832498D01*
X219499968Y-126074852D01*
X219940150Y-126234396D01*
X220403000Y-126305000D01*
X222153000Y-126305000D01*
X222153000Y-124047000D01*
X222407000Y-124047000D01*
X222407000Y-126305000D01*
X224157000Y-126305000D01*
X224619850Y-126234396D01*
X225060032Y-126074852D01*
X225460631Y-125832498D01*
X225806252Y-125516648D01*
X226083612Y-125139439D01*
X226282053Y-124715368D01*
X226362427Y-124418003D01*
X226252625Y-124047000D01*
X222407000Y-124047000D01*
X222153000Y-124047000D01*
X218307375Y-124047000D01*
X218197573Y-124418003D01*
X202415046Y-124418003D01*
X202538728Y-124335362D01*
X202668962Y-124205128D01*
X202771286Y-124051989D01*
X202841768Y-123881829D01*
X202877700Y-123701189D01*
X202877700Y-123517011D01*
X202858801Y-123421997D01*
X218197573Y-123421997D01*
X218307375Y-123793000D01*
X222153000Y-123793000D01*
X222153000Y-121535000D01*
X222407000Y-121535000D01*
X222407000Y-123793000D01*
X226252625Y-123793000D01*
X226362427Y-123421997D01*
X226282053Y-123124632D01*
X226083612Y-122700561D01*
X225806252Y-122323352D01*
X225460631Y-122007502D01*
X225060032Y-121765148D01*
X224619850Y-121605604D01*
X224157000Y-121535000D01*
X222407000Y-121535000D01*
X222153000Y-121535000D01*
X220403000Y-121535000D01*
X219940150Y-121605604D01*
X219499968Y-121765148D01*
X219099369Y-122007502D01*
X218753748Y-122323352D01*
X218476388Y-122700561D01*
X218277947Y-123124632D01*
X218197573Y-123421997D01*
X202858801Y-123421997D01*
X202841768Y-123336371D01*
X202771286Y-123166211D01*
X202668962Y-123013072D01*
X202538728Y-122882838D01*
X202385589Y-122780514D01*
X202215429Y-122710032D01*
X202034789Y-122674100D01*
X201850611Y-122674100D01*
X201669971Y-122710032D01*
X201499811Y-122780514D01*
X201397165Y-122849100D01*
X198665622Y-122849100D01*
X198600989Y-122805914D01*
X198430829Y-122735432D01*
X198250189Y-122699500D01*
X198066011Y-122699500D01*
X197885371Y-122735432D01*
X197715211Y-122805914D01*
X197562072Y-122908238D01*
X197431838Y-123038472D01*
X197329514Y-123191611D01*
X197259032Y-123361771D01*
X197223100Y-123542411D01*
X197223100Y-123726589D01*
X197259032Y-123907229D01*
X197329514Y-124077389D01*
X197398100Y-124180036D01*
X197398100Y-124587777D01*
X197394424Y-124625100D01*
X197398100Y-124662422D01*
X197398100Y-124662432D01*
X197409097Y-124774085D01*
X197452554Y-124917346D01*
X197523126Y-125049376D01*
X197546084Y-125077350D01*
X197618099Y-125165101D01*
X197647103Y-125188904D01*
X197817201Y-125359002D01*
X197817200Y-129235764D01*
X197748614Y-129338411D01*
X197678132Y-129508571D01*
X197642200Y-129689211D01*
X197642200Y-129873389D01*
X197678132Y-130054029D01*
X197748614Y-130224189D01*
X197850938Y-130377328D01*
X197981172Y-130507562D01*
X198134311Y-130609886D01*
X198304471Y-130680368D01*
X198485111Y-130716300D01*
X198669289Y-130716300D01*
X198849929Y-130680368D01*
X198876168Y-130669499D01*
X198891614Y-130706789D01*
X198993938Y-130859928D01*
X199124172Y-130990162D01*
X199277311Y-131092486D01*
X199447471Y-131162968D01*
X199596322Y-131192577D01*
X192110989Y-138677910D01*
X192081991Y-138701708D01*
X192058193Y-138730706D01*
X192058192Y-138730707D01*
X191987017Y-138817433D01*
X191916445Y-138949463D01*
X191872989Y-139092724D01*
X191858315Y-139241709D01*
X108862104Y-139241709D01*
X108100000Y-138479605D01*
X107286903Y-139292702D01*
X107307215Y-139361928D01*
X107300000Y-139361928D01*
X107175518Y-139374188D01*
X107055820Y-139410498D01*
X106945506Y-139469463D01*
X106848815Y-139548815D01*
X106769463Y-139645506D01*
X106710498Y-139755820D01*
X106674188Y-139875518D01*
X106661928Y-140000000D01*
X94238072Y-140000000D01*
X94238072Y-139900000D01*
X94225812Y-139775518D01*
X94189502Y-139655820D01*
X94130537Y-139545506D01*
X94051185Y-139448815D01*
X93954494Y-139369463D01*
X93844180Y-139310498D01*
X93724482Y-139274188D01*
X93600000Y-139261928D01*
X93592785Y-139261928D01*
X93613097Y-139192702D01*
X92800000Y-138379605D01*
X91986903Y-139192702D01*
X92007215Y-139261928D01*
X92000000Y-139261928D01*
X91875518Y-139274188D01*
X91755820Y-139310498D01*
X91645506Y-139369463D01*
X91548815Y-139448815D01*
X91469463Y-139545506D01*
X91410498Y-139655820D01*
X91374188Y-139775518D01*
X91361928Y-139900000D01*
X81811938Y-139900000D01*
X81846011Y-139817743D01*
X81905000Y-139521184D01*
X81905000Y-139218816D01*
X81846011Y-138922257D01*
X81730299Y-138642905D01*
X81562312Y-138391495D01*
X81441329Y-138270512D01*
X91359783Y-138270512D01*
X91401213Y-138550130D01*
X91496397Y-138816292D01*
X91563329Y-138941514D01*
X91807298Y-139013097D01*
X92620395Y-138200000D01*
X92979605Y-138200000D01*
X93792702Y-139013097D01*
X94036671Y-138941514D01*
X94157571Y-138686004D01*
X94226300Y-138411816D01*
X94228336Y-138370512D01*
X106659783Y-138370512D01*
X106701213Y-138650130D01*
X106796397Y-138916292D01*
X106863329Y-139041514D01*
X107107298Y-139113097D01*
X107920395Y-138300000D01*
X108279605Y-138300000D01*
X109092702Y-139113097D01*
X109336671Y-139041514D01*
X109457571Y-138786004D01*
X109526300Y-138511816D01*
X109540217Y-138229488D01*
X109498787Y-137949870D01*
X109403603Y-137683708D01*
X109373138Y-137626711D01*
X190492100Y-137626711D01*
X190492100Y-137810889D01*
X190528032Y-137991529D01*
X190598514Y-138161689D01*
X190700838Y-138314828D01*
X190831072Y-138445062D01*
X190984211Y-138547386D01*
X191154371Y-138617868D01*
X191335011Y-138653800D01*
X191519189Y-138653800D01*
X191699829Y-138617868D01*
X191869989Y-138547386D01*
X192023128Y-138445062D01*
X192153362Y-138314828D01*
X192255686Y-138161689D01*
X192326168Y-137991529D01*
X192349466Y-137874403D01*
X192360801Y-137865101D01*
X192455774Y-137749376D01*
X192526346Y-137617347D01*
X192569803Y-137474086D01*
X192580800Y-137362433D01*
X192580800Y-137362423D01*
X192584476Y-137325100D01*
X192580800Y-137287777D01*
X192580800Y-129856935D01*
X192649386Y-129754289D01*
X192719868Y-129584129D01*
X192755800Y-129403489D01*
X192755800Y-129219311D01*
X192719868Y-129038671D01*
X192649386Y-128868511D01*
X192547062Y-128715372D01*
X192416828Y-128585138D01*
X192263689Y-128482814D01*
X192093529Y-128412332D01*
X191912889Y-128376400D01*
X191728711Y-128376400D01*
X191548071Y-128412332D01*
X191377911Y-128482814D01*
X191224772Y-128585138D01*
X191094538Y-128715372D01*
X190992214Y-128868511D01*
X190921732Y-129038671D01*
X190885800Y-129219311D01*
X190885800Y-129403489D01*
X190921732Y-129584129D01*
X190992214Y-129754289D01*
X191060800Y-129856936D01*
X191060801Y-136858490D01*
X190984211Y-136890214D01*
X190831072Y-136992538D01*
X190700838Y-137122772D01*
X190598514Y-137275911D01*
X190528032Y-137446071D01*
X190492100Y-137626711D01*
X109373138Y-137626711D01*
X109336671Y-137558486D01*
X109092702Y-137486903D01*
X108279605Y-138300000D01*
X107920395Y-138300000D01*
X107107298Y-137486903D01*
X106863329Y-137558486D01*
X106742429Y-137813996D01*
X106673700Y-138088184D01*
X106659783Y-138370512D01*
X94228336Y-138370512D01*
X94240217Y-138129488D01*
X94198787Y-137849870D01*
X94103603Y-137583708D01*
X94036671Y-137458486D01*
X93792702Y-137386903D01*
X92979605Y-138200000D01*
X92620395Y-138200000D01*
X91807298Y-137386903D01*
X91563329Y-137458486D01*
X91442429Y-137713996D01*
X91373700Y-137988184D01*
X91359783Y-138270512D01*
X81441329Y-138270512D01*
X81348505Y-138177688D01*
X81232237Y-138100000D01*
X81348505Y-138022312D01*
X81562312Y-137808505D01*
X81730299Y-137557095D01*
X81846011Y-137277743D01*
X81860023Y-137207298D01*
X91986903Y-137207298D01*
X92800000Y-138020395D01*
X93513097Y-137307298D01*
X107286903Y-137307298D01*
X108100000Y-138120395D01*
X108913097Y-137307298D01*
X108841514Y-137063329D01*
X108586004Y-136942429D01*
X108311816Y-136873700D01*
X108029488Y-136859783D01*
X107749870Y-136901213D01*
X107483708Y-136996397D01*
X107358486Y-137063329D01*
X107286903Y-137307298D01*
X93513097Y-137307298D01*
X93613097Y-137207298D01*
X93541514Y-136963329D01*
X93286004Y-136842429D01*
X93011816Y-136773700D01*
X92729488Y-136759783D01*
X92449870Y-136801213D01*
X92183708Y-136896397D01*
X92058486Y-136963329D01*
X91986903Y-137207298D01*
X81860023Y-137207298D01*
X81905000Y-136981184D01*
X81905000Y-136678816D01*
X81846011Y-136382257D01*
X81730299Y-136102905D01*
X81562312Y-135851495D01*
X81348505Y-135637688D01*
X81232237Y-135560000D01*
X81348505Y-135482312D01*
X81562312Y-135268505D01*
X81730299Y-135017095D01*
X81846011Y-134737743D01*
X81905000Y-134441184D01*
X81905000Y-134138816D01*
X81846011Y-133842257D01*
X81730299Y-133562905D01*
X81562312Y-133311495D01*
X81348505Y-133097688D01*
X81232237Y-133020000D01*
X81348505Y-132942312D01*
X81562312Y-132728505D01*
X81730299Y-132477095D01*
X81846011Y-132197743D01*
X81905000Y-131901184D01*
X81905000Y-131598816D01*
X81846011Y-131302257D01*
X81730299Y-131022905D01*
X81562312Y-130771495D01*
X81348505Y-130557688D01*
X81232237Y-130480000D01*
X81348505Y-130402312D01*
X81562312Y-130188505D01*
X81641353Y-130070211D01*
X162221900Y-130070211D01*
X162221900Y-130254389D01*
X162257832Y-130435029D01*
X162328314Y-130605189D01*
X162430638Y-130758328D01*
X162560872Y-130888562D01*
X162714011Y-130990886D01*
X162884171Y-131061368D01*
X163064811Y-131097300D01*
X163248989Y-131097300D01*
X163429629Y-131061368D01*
X163599789Y-130990886D01*
X163752928Y-130888562D01*
X163800381Y-130841109D01*
X183380038Y-130841109D01*
X183383909Y-130878782D01*
X183476079Y-131104033D01*
X183610422Y-131306974D01*
X183781775Y-131479807D01*
X183983554Y-131615890D01*
X184208004Y-131709993D01*
X184446500Y-131758500D01*
X184721500Y-131758500D01*
X184721500Y-130650500D01*
X184975500Y-130650500D01*
X184975500Y-131758500D01*
X185250500Y-131758500D01*
X185488996Y-131709993D01*
X185713446Y-131615890D01*
X185915225Y-131479807D01*
X186086578Y-131306974D01*
X186220921Y-131104033D01*
X186313091Y-130878782D01*
X186316962Y-130841109D01*
X186192231Y-130650500D01*
X184975500Y-130650500D01*
X184721500Y-130650500D01*
X183504769Y-130650500D01*
X183380038Y-130841109D01*
X163800381Y-130841109D01*
X163883162Y-130758328D01*
X163985486Y-130605189D01*
X164017515Y-130527863D01*
X165136879Y-129408500D01*
X183705134Y-129408500D01*
X183845848Y-129523981D01*
X183781775Y-129567193D01*
X183610422Y-129740026D01*
X183476079Y-129942967D01*
X183383909Y-130168218D01*
X183380038Y-130205891D01*
X183504769Y-130396500D01*
X184721500Y-130396500D01*
X184721500Y-130376500D01*
X184975500Y-130376500D01*
X184975500Y-130396500D01*
X186192231Y-130396500D01*
X186316962Y-130205891D01*
X186313091Y-130168218D01*
X186220921Y-129942967D01*
X186086578Y-129740026D01*
X185915225Y-129567193D01*
X185851152Y-129523981D01*
X186001002Y-129401002D01*
X186155333Y-129212949D01*
X186270011Y-128998401D01*
X186340630Y-128765602D01*
X186364475Y-128523500D01*
X186340630Y-128281398D01*
X186270011Y-128048599D01*
X186155333Y-127834051D01*
X186001002Y-127645998D01*
X185851738Y-127523500D01*
X186001002Y-127401002D01*
X186112862Y-127264700D01*
X193487199Y-127264700D01*
X193818647Y-127596149D01*
X193842732Y-127717229D01*
X193913214Y-127887389D01*
X194015538Y-128040528D01*
X194145772Y-128170762D01*
X194298911Y-128273086D01*
X194469071Y-128343568D01*
X194649711Y-128379500D01*
X194833889Y-128379500D01*
X195014529Y-128343568D01*
X195184689Y-128273086D01*
X195337828Y-128170762D01*
X195468062Y-128040528D01*
X195570386Y-127887389D01*
X195640868Y-127717229D01*
X195676800Y-127536589D01*
X195676800Y-127352411D01*
X195640868Y-127171771D01*
X195570386Y-127001611D01*
X195468062Y-126848472D01*
X195337828Y-126718238D01*
X195184689Y-126615914D01*
X195014529Y-126545432D01*
X194893449Y-126521347D01*
X194365804Y-125993702D01*
X194342001Y-125964699D01*
X194226276Y-125869726D01*
X194094247Y-125799154D01*
X193950986Y-125755697D01*
X193839333Y-125744700D01*
X193839322Y-125744700D01*
X193802000Y-125741024D01*
X193764678Y-125744700D01*
X186082005Y-125744700D01*
X186001002Y-125645998D01*
X185962389Y-125614309D01*
X185966887Y-125611905D01*
X186101462Y-125501462D01*
X186211905Y-125366887D01*
X186293972Y-125213351D01*
X186344508Y-125046755D01*
X186361572Y-124873501D01*
X186361572Y-124173499D01*
X186344508Y-124000245D01*
X186293972Y-123833649D01*
X186211905Y-123680113D01*
X186101462Y-123545538D01*
X185966887Y-123435095D01*
X185813351Y-123353028D01*
X185646755Y-123302492D01*
X185473501Y-123285428D01*
X184223499Y-123285428D01*
X184050245Y-123302492D01*
X183883649Y-123353028D01*
X183730113Y-123435095D01*
X183595538Y-123545538D01*
X183485095Y-123680113D01*
X183403028Y-123833649D01*
X183352492Y-124000245D01*
X183335428Y-124173499D01*
X183335428Y-124873501D01*
X183352492Y-125046755D01*
X183403028Y-125213351D01*
X183485095Y-125366887D01*
X183595538Y-125501462D01*
X183730113Y-125611905D01*
X183734611Y-125614309D01*
X183695998Y-125645998D01*
X183541667Y-125834051D01*
X183426989Y-126048599D01*
X183356370Y-126281398D01*
X183332525Y-126523500D01*
X183356370Y-126765602D01*
X183426989Y-126998401D01*
X183541667Y-127212949D01*
X183695998Y-127401002D01*
X183845262Y-127523500D01*
X183705134Y-127638500D01*
X164813765Y-127638500D01*
X164770299Y-127634219D01*
X164726833Y-127638500D01*
X164726823Y-127638500D01*
X164596810Y-127651305D01*
X164429987Y-127701911D01*
X164276241Y-127784089D01*
X164276239Y-127784090D01*
X164276240Y-127784090D01*
X164175253Y-127866968D01*
X164175251Y-127866970D01*
X164141483Y-127894683D01*
X164113770Y-127928451D01*
X162697426Y-129344795D01*
X162560872Y-129436038D01*
X162430638Y-129566272D01*
X162328314Y-129719411D01*
X162257832Y-129889571D01*
X162221900Y-130070211D01*
X81641353Y-130070211D01*
X81730299Y-129937095D01*
X81846011Y-129657743D01*
X81905000Y-129361184D01*
X81905000Y-129058816D01*
X81846011Y-128762257D01*
X81730299Y-128482905D01*
X81562312Y-128231495D01*
X81348505Y-128017688D01*
X81232237Y-127940000D01*
X81348505Y-127862312D01*
X81562312Y-127648505D01*
X81730299Y-127397095D01*
X81846011Y-127117743D01*
X81905000Y-126821184D01*
X81905000Y-126518816D01*
X81846011Y-126222257D01*
X81730299Y-125942905D01*
X81562312Y-125691495D01*
X81348505Y-125477688D01*
X81232237Y-125400000D01*
X81348505Y-125322312D01*
X81562312Y-125108505D01*
X81730299Y-124857095D01*
X81846011Y-124577743D01*
X81905000Y-124281184D01*
X81905000Y-123978816D01*
X81846011Y-123682257D01*
X81730299Y-123402905D01*
X81562312Y-123151495D01*
X81348505Y-122937688D01*
X81232237Y-122860000D01*
X81348505Y-122782312D01*
X81562312Y-122568505D01*
X81730299Y-122317095D01*
X81846011Y-122037743D01*
X81905000Y-121741184D01*
X81905000Y-121573911D01*
X205821000Y-121573911D01*
X205821000Y-121758089D01*
X205856932Y-121938729D01*
X205927414Y-122108889D01*
X206029738Y-122262028D01*
X206159972Y-122392262D01*
X206313111Y-122494586D01*
X206483271Y-122565068D01*
X206663911Y-122601000D01*
X206848089Y-122601000D01*
X207028729Y-122565068D01*
X207062692Y-122551000D01*
X210716508Y-122551000D01*
X210750471Y-122565068D01*
X210931111Y-122601000D01*
X211115289Y-122601000D01*
X211295929Y-122565068D01*
X211466089Y-122494586D01*
X211619228Y-122392262D01*
X211749462Y-122262028D01*
X211851786Y-122108889D01*
X211922268Y-121938729D01*
X211958200Y-121758089D01*
X211958200Y-121573911D01*
X211922268Y-121393271D01*
X211851786Y-121223111D01*
X211749462Y-121069972D01*
X211619228Y-120939738D01*
X211466089Y-120837414D01*
X211295929Y-120766932D01*
X211115289Y-120731000D01*
X210931111Y-120731000D01*
X210750471Y-120766932D01*
X210716508Y-120781000D01*
X207062692Y-120781000D01*
X207028729Y-120766932D01*
X206848089Y-120731000D01*
X206663911Y-120731000D01*
X206483271Y-120766932D01*
X206313111Y-120837414D01*
X206159972Y-120939738D01*
X206029738Y-121069972D01*
X205927414Y-121223111D01*
X205856932Y-121393271D01*
X205821000Y-121573911D01*
X81905000Y-121573911D01*
X81905000Y-121438816D01*
X81846011Y-121142257D01*
X81730299Y-120862905D01*
X81562312Y-120611495D01*
X81348505Y-120397688D01*
X81232237Y-120320000D01*
X81348505Y-120242312D01*
X81562312Y-120028505D01*
X81730299Y-119777095D01*
X81846011Y-119497743D01*
X81905000Y-119201184D01*
X81905000Y-118898816D01*
X81846011Y-118602257D01*
X81730299Y-118322905D01*
X81562312Y-118071495D01*
X81348505Y-117857688D01*
X81232237Y-117780000D01*
X81348505Y-117702312D01*
X81562312Y-117488505D01*
X81730299Y-117237095D01*
X81846011Y-116957743D01*
X81905000Y-116661184D01*
X81905000Y-116358816D01*
X81846011Y-116062257D01*
X81730299Y-115782905D01*
X81562312Y-115531495D01*
X81348505Y-115317688D01*
X81232237Y-115240000D01*
X81348505Y-115162312D01*
X81562312Y-114948505D01*
X81730299Y-114697095D01*
X81846011Y-114417743D01*
X81905000Y-114121184D01*
X81905000Y-113818816D01*
X81846011Y-113522257D01*
X81730299Y-113242905D01*
X81562312Y-112991495D01*
X81369028Y-112798211D01*
X162221900Y-112798211D01*
X162221900Y-112982389D01*
X162257832Y-113163029D01*
X162328314Y-113333189D01*
X162430638Y-113486328D01*
X162560872Y-113616562D01*
X162714011Y-113718886D01*
X162884171Y-113789368D01*
X163064811Y-113825300D01*
X163248989Y-113825300D01*
X163429629Y-113789368D01*
X163463592Y-113775300D01*
X173713968Y-113775300D01*
X173717271Y-113776668D01*
X173897911Y-113812600D01*
X174082089Y-113812600D01*
X174262729Y-113776668D01*
X174432889Y-113706186D01*
X174586028Y-113603862D01*
X174716262Y-113473628D01*
X174818586Y-113320489D01*
X174889068Y-113150329D01*
X174925000Y-112969689D01*
X174925000Y-112785511D01*
X174889068Y-112604871D01*
X174818586Y-112434711D01*
X174716262Y-112281572D01*
X174670940Y-112236250D01*
X174754362Y-112152828D01*
X174856686Y-111999689D01*
X174927168Y-111829529D01*
X174963100Y-111648889D01*
X174963100Y-111464711D01*
X174927168Y-111284071D01*
X174856686Y-111113911D01*
X174754362Y-110960772D01*
X174624128Y-110830538D01*
X174470989Y-110728214D01*
X174300829Y-110657732D01*
X174120189Y-110621800D01*
X173936011Y-110621800D01*
X173755371Y-110657732D01*
X173721408Y-110671800D01*
X163539792Y-110671800D01*
X163505829Y-110657732D01*
X163325189Y-110621800D01*
X163141011Y-110621800D01*
X162960371Y-110657732D01*
X162790211Y-110728214D01*
X162637072Y-110830538D01*
X162506838Y-110960772D01*
X162404514Y-111113911D01*
X162334032Y-111284071D01*
X162298100Y-111464711D01*
X162298100Y-111648889D01*
X162334032Y-111829529D01*
X162404514Y-111999689D01*
X162506838Y-112152828D01*
X162539460Y-112185450D01*
X162430638Y-112294272D01*
X162328314Y-112447411D01*
X162257832Y-112617571D01*
X162221900Y-112798211D01*
X81369028Y-112798211D01*
X81348505Y-112777688D01*
X81232237Y-112700000D01*
X81348505Y-112622312D01*
X81562312Y-112408505D01*
X81730299Y-112157095D01*
X81846011Y-111877743D01*
X81905000Y-111581184D01*
X81905000Y-111278816D01*
X81846011Y-110982257D01*
X81730299Y-110702905D01*
X81562312Y-110451495D01*
X81348505Y-110237688D01*
X81232237Y-110160000D01*
X81348505Y-110082312D01*
X81562312Y-109868505D01*
X81730299Y-109617095D01*
X81846011Y-109337743D01*
X81905000Y-109041184D01*
X81905000Y-108738816D01*
X81846011Y-108442257D01*
X81730299Y-108162905D01*
X81562312Y-107911495D01*
X81348505Y-107697688D01*
X81232237Y-107620000D01*
X81348505Y-107542312D01*
X81562312Y-107328505D01*
X81730299Y-107077095D01*
X81846011Y-106797743D01*
X81905000Y-106501184D01*
X81905000Y-106198816D01*
X81846011Y-105902257D01*
X81730299Y-105622905D01*
X81562312Y-105371495D01*
X81348505Y-105157688D01*
X81194895Y-105055049D01*
X81254475Y-104874080D01*
X80370000Y-103989605D01*
X79485525Y-104874080D01*
X79545105Y-105055049D01*
X79391495Y-105157688D01*
X79177688Y-105371495D01*
X79009701Y-105622905D01*
X78893989Y-105902257D01*
X78835000Y-106198816D01*
X76825000Y-106198816D01*
X76766011Y-105902257D01*
X76650299Y-105622905D01*
X76482312Y-105371495D01*
X76268505Y-105157688D01*
X76114895Y-105055049D01*
X76174475Y-104874080D01*
X75290000Y-103989605D01*
X74405525Y-104874080D01*
X74465105Y-105055049D01*
X74311495Y-105157688D01*
X74097688Y-105371495D01*
X73929701Y-105622905D01*
X73813989Y-105902257D01*
X73755000Y-106198816D01*
X70710000Y-106198816D01*
X70710000Y-103876553D01*
X73749009Y-103876553D01*
X73791603Y-104175907D01*
X73891778Y-104461199D01*
X73971739Y-104610792D01*
X74225920Y-104694475D01*
X75110395Y-103810000D01*
X75469605Y-103810000D01*
X76354080Y-104694475D01*
X76608261Y-104610792D01*
X76739158Y-104338225D01*
X76814365Y-104045358D01*
X76823660Y-103876553D01*
X78829009Y-103876553D01*
X78871603Y-104175907D01*
X78971778Y-104461199D01*
X79051739Y-104610792D01*
X79305920Y-104694475D01*
X80190395Y-103810000D01*
X80549605Y-103810000D01*
X81434080Y-104694475D01*
X81688261Y-104610792D01*
X81819158Y-104338225D01*
X81894365Y-104045358D01*
X81910991Y-103743447D01*
X81868397Y-103444093D01*
X81768222Y-103158801D01*
X81688261Y-103009208D01*
X81434080Y-102925525D01*
X80549605Y-103810000D01*
X80190395Y-103810000D01*
X79305920Y-102925525D01*
X79051739Y-103009208D01*
X78920842Y-103281775D01*
X78845635Y-103574642D01*
X78829009Y-103876553D01*
X76823660Y-103876553D01*
X76830991Y-103743447D01*
X76788397Y-103444093D01*
X76688222Y-103158801D01*
X76608261Y-103009208D01*
X76354080Y-102925525D01*
X75469605Y-103810000D01*
X75110395Y-103810000D01*
X74225920Y-102925525D01*
X73971739Y-103009208D01*
X73840842Y-103281775D01*
X73765635Y-103574642D01*
X73749009Y-103876553D01*
X70710000Y-103876553D01*
X70710000Y-102334080D01*
X74405525Y-102334080D01*
X74473319Y-102540000D01*
X74405525Y-102745920D01*
X75290000Y-103630395D01*
X76174475Y-102745920D01*
X76106681Y-102540000D01*
X76174475Y-102334080D01*
X79485525Y-102334080D01*
X79553319Y-102540000D01*
X79485525Y-102745920D01*
X80370000Y-103630395D01*
X81254475Y-102745920D01*
X81186681Y-102540000D01*
X81254475Y-102334080D01*
X81220395Y-102300000D01*
X88759509Y-102300000D01*
X88781423Y-102522498D01*
X88846324Y-102736446D01*
X88951717Y-102933622D01*
X89093552Y-103106448D01*
X89266378Y-103248283D01*
X89463554Y-103353676D01*
X89677502Y-103418577D01*
X89900000Y-103440491D01*
X90122498Y-103418577D01*
X90209915Y-103392059D01*
X90050987Y-103550987D01*
X89972017Y-103647213D01*
X89913336Y-103756996D01*
X89877201Y-103876118D01*
X89865000Y-104000000D01*
X89865000Y-111000000D01*
X89877201Y-111123882D01*
X89913336Y-111243004D01*
X89972017Y-111352787D01*
X90050987Y-111449013D01*
X90550987Y-111949013D01*
X90647213Y-112027983D01*
X90756996Y-112086664D01*
X90876118Y-112122799D01*
X91000000Y-112135000D01*
X107600000Y-112135000D01*
X107723882Y-112122799D01*
X107843004Y-112086664D01*
X107952787Y-112027983D01*
X108049013Y-111949013D01*
X108549013Y-111449013D01*
X108627983Y-111352787D01*
X108686664Y-111243004D01*
X108722799Y-111123882D01*
X108735000Y-111000000D01*
X108735000Y-110578003D01*
X218297573Y-110578003D01*
X218377947Y-110875368D01*
X218576388Y-111299439D01*
X218853748Y-111676648D01*
X219199369Y-111992498D01*
X219599968Y-112234852D01*
X220040150Y-112394396D01*
X220503000Y-112465000D01*
X222253000Y-112465000D01*
X222253000Y-110207000D01*
X222507000Y-110207000D01*
X222507000Y-112465000D01*
X224257000Y-112465000D01*
X224719850Y-112394396D01*
X225160032Y-112234852D01*
X225560631Y-111992498D01*
X225906252Y-111676648D01*
X226183612Y-111299439D01*
X226382053Y-110875368D01*
X226462427Y-110578003D01*
X226352625Y-110207000D01*
X222507000Y-110207000D01*
X222253000Y-110207000D01*
X218407375Y-110207000D01*
X218297573Y-110578003D01*
X108735000Y-110578003D01*
X108735000Y-109581997D01*
X218297573Y-109581997D01*
X218407375Y-109953000D01*
X222253000Y-109953000D01*
X222253000Y-107695000D01*
X222507000Y-107695000D01*
X222507000Y-109953000D01*
X226352625Y-109953000D01*
X226462427Y-109581997D01*
X226382053Y-109284632D01*
X226183612Y-108860561D01*
X225906252Y-108483352D01*
X225560631Y-108167502D01*
X225160032Y-107925148D01*
X224719850Y-107765604D01*
X224257000Y-107695000D01*
X222507000Y-107695000D01*
X222253000Y-107695000D01*
X220503000Y-107695000D01*
X220040150Y-107765604D01*
X219599968Y-107925148D01*
X219199369Y-108167502D01*
X218853748Y-108483352D01*
X218576388Y-108860561D01*
X218377947Y-109284632D01*
X218297573Y-109581997D01*
X108735000Y-109581997D01*
X108735000Y-105000000D01*
X215408057Y-105000000D01*
X215435764Y-105281309D01*
X215517818Y-105551808D01*
X215651068Y-105801101D01*
X215830392Y-106019608D01*
X216048899Y-106198932D01*
X216298192Y-106332182D01*
X216568691Y-106414236D01*
X216779508Y-106435000D01*
X217820492Y-106435000D01*
X218031309Y-106414236D01*
X218301808Y-106332182D01*
X218551101Y-106198932D01*
X218769608Y-106019608D01*
X218948932Y-105801101D01*
X219082182Y-105551808D01*
X219164236Y-105281309D01*
X219191943Y-105000000D01*
X219164236Y-104718691D01*
X219082182Y-104448192D01*
X218948932Y-104198899D01*
X218769608Y-103980392D01*
X218551101Y-103801068D01*
X218423259Y-103732735D01*
X218652839Y-103582601D01*
X218854500Y-103384895D01*
X219013715Y-103151646D01*
X219124367Y-102891818D01*
X219141904Y-102809039D01*
X219019915Y-102587000D01*
X217427000Y-102587000D01*
X217427000Y-102607000D01*
X217173000Y-102607000D01*
X217173000Y-102587000D01*
X215580085Y-102587000D01*
X215458096Y-102809039D01*
X215475633Y-102891818D01*
X215586285Y-103151646D01*
X215745500Y-103384895D01*
X215947161Y-103582601D01*
X216176741Y-103732735D01*
X216048899Y-103801068D01*
X215830392Y-103980392D01*
X215651068Y-104198899D01*
X215517818Y-104448192D01*
X215435764Y-104718691D01*
X215408057Y-105000000D01*
X108735000Y-105000000D01*
X108735000Y-104000000D01*
X108722799Y-103876118D01*
X108686664Y-103756996D01*
X108627983Y-103647213D01*
X108549013Y-103550987D01*
X108049013Y-103050987D01*
X107952787Y-102972017D01*
X107843004Y-102913336D01*
X107723882Y-102877201D01*
X107600000Y-102865000D01*
X91000000Y-102865000D01*
X90933590Y-102871541D01*
X91694170Y-102110961D01*
X215458096Y-102110961D01*
X215580085Y-102333000D01*
X217173000Y-102333000D01*
X217173000Y-101025000D01*
X217427000Y-101025000D01*
X217427000Y-102333000D01*
X219019915Y-102333000D01*
X219141904Y-102110961D01*
X219124367Y-102028182D01*
X219013715Y-101768354D01*
X218854500Y-101535105D01*
X218652839Y-101337399D01*
X218416483Y-101182834D01*
X218154514Y-101077350D01*
X217877000Y-101025000D01*
X217427000Y-101025000D01*
X217173000Y-101025000D01*
X216723000Y-101025000D01*
X216445486Y-101077350D01*
X216183517Y-101182834D01*
X215947161Y-101337399D01*
X215745500Y-101535105D01*
X215586285Y-101768354D01*
X215475633Y-102028182D01*
X215458096Y-102110961D01*
X91694170Y-102110961D01*
X93387128Y-100418003D01*
X218297573Y-100418003D01*
X218377947Y-100715368D01*
X218576388Y-101139439D01*
X218853748Y-101516648D01*
X219199369Y-101832498D01*
X219599968Y-102074852D01*
X220040150Y-102234396D01*
X220503000Y-102305000D01*
X222253000Y-102305000D01*
X222253000Y-100047000D01*
X222507000Y-100047000D01*
X222507000Y-102305000D01*
X224257000Y-102305000D01*
X224719850Y-102234396D01*
X225160032Y-102074852D01*
X225560631Y-101832498D01*
X225906252Y-101516648D01*
X226183612Y-101139439D01*
X226382053Y-100715368D01*
X226462427Y-100418003D01*
X226352625Y-100047000D01*
X222507000Y-100047000D01*
X222253000Y-100047000D01*
X218407375Y-100047000D01*
X218297573Y-100418003D01*
X93387128Y-100418003D01*
X93870132Y-99935000D01*
X94655752Y-99935000D01*
X94822499Y-99918577D01*
X95036447Y-99853676D01*
X95233623Y-99748284D01*
X95406449Y-99606449D01*
X95548284Y-99433623D01*
X95554498Y-99421997D01*
X218297573Y-99421997D01*
X218407375Y-99793000D01*
X222253000Y-99793000D01*
X222253000Y-97535000D01*
X222507000Y-97535000D01*
X222507000Y-99793000D01*
X226352625Y-99793000D01*
X226462427Y-99421997D01*
X226382053Y-99124632D01*
X226183612Y-98700561D01*
X225906252Y-98323352D01*
X225560631Y-98007502D01*
X225160032Y-97765148D01*
X224719850Y-97605604D01*
X224257000Y-97535000D01*
X222507000Y-97535000D01*
X222253000Y-97535000D01*
X220503000Y-97535000D01*
X220040150Y-97605604D01*
X219599968Y-97765148D01*
X219199369Y-98007502D01*
X218853748Y-98323352D01*
X218576388Y-98700561D01*
X218377947Y-99124632D01*
X218297573Y-99421997D01*
X95554498Y-99421997D01*
X95653676Y-99236447D01*
X95718577Y-99022499D01*
X95740491Y-98800000D01*
X95718577Y-98577501D01*
X95653676Y-98363553D01*
X95548284Y-98166377D01*
X95406449Y-97993551D01*
X95233623Y-97851716D01*
X95036447Y-97746324D01*
X94822499Y-97681423D01*
X94655752Y-97665000D01*
X93455741Y-97665000D01*
X93399999Y-97659510D01*
X93344257Y-97665000D01*
X93344248Y-97665000D01*
X93177501Y-97681423D01*
X92963553Y-97746324D01*
X92766377Y-97851716D01*
X92593551Y-97993551D01*
X92558009Y-98036859D01*
X89058012Y-101536857D01*
X88951717Y-101666378D01*
X88846324Y-101863554D01*
X88781423Y-102077502D01*
X88759509Y-102300000D01*
X81220395Y-102300000D01*
X80370000Y-101449605D01*
X79485525Y-102334080D01*
X76174475Y-102334080D01*
X75290000Y-101449605D01*
X74405525Y-102334080D01*
X70710000Y-102334080D01*
X70710000Y-101336553D01*
X73749009Y-101336553D01*
X73791603Y-101635907D01*
X73891778Y-101921199D01*
X73971739Y-102070792D01*
X74225920Y-102154475D01*
X75110395Y-101270000D01*
X75469605Y-101270000D01*
X76354080Y-102154475D01*
X76608261Y-102070792D01*
X76739158Y-101798225D01*
X76814365Y-101505358D01*
X76823660Y-101336553D01*
X78829009Y-101336553D01*
X78871603Y-101635907D01*
X78971778Y-101921199D01*
X79051739Y-102070792D01*
X79305920Y-102154475D01*
X80190395Y-101270000D01*
X80549605Y-101270000D01*
X81434080Y-102154475D01*
X81688261Y-102070792D01*
X81819158Y-101798225D01*
X81894365Y-101505358D01*
X81910991Y-101203447D01*
X81868397Y-100904093D01*
X81768222Y-100618801D01*
X81688261Y-100469208D01*
X81434080Y-100385525D01*
X80549605Y-101270000D01*
X80190395Y-101270000D01*
X79305920Y-100385525D01*
X79051739Y-100469208D01*
X78920842Y-100741775D01*
X78845635Y-101034642D01*
X78829009Y-101336553D01*
X76823660Y-101336553D01*
X76830991Y-101203447D01*
X76788397Y-100904093D01*
X76688222Y-100618801D01*
X76608261Y-100469208D01*
X76354080Y-100385525D01*
X75469605Y-101270000D01*
X75110395Y-101270000D01*
X74225920Y-100385525D01*
X73971739Y-100469208D01*
X73840842Y-100741775D01*
X73765635Y-101034642D01*
X73749009Y-101336553D01*
X70710000Y-101336553D01*
X70710000Y-99794080D01*
X74405525Y-99794080D01*
X74473319Y-100000000D01*
X74405525Y-100205920D01*
X75290000Y-101090395D01*
X76174475Y-100205920D01*
X76106681Y-100000000D01*
X76174475Y-99794080D01*
X79485525Y-99794080D01*
X79553319Y-100000000D01*
X79485525Y-100205920D01*
X80370000Y-101090395D01*
X81254475Y-100205920D01*
X81186681Y-100000000D01*
X81254475Y-99794080D01*
X80370000Y-98909605D01*
X79485525Y-99794080D01*
X76174475Y-99794080D01*
X75290000Y-98909605D01*
X74405525Y-99794080D01*
X70710000Y-99794080D01*
X70710000Y-98796553D01*
X73749009Y-98796553D01*
X73791603Y-99095907D01*
X73891778Y-99381199D01*
X73971739Y-99530792D01*
X74225920Y-99614475D01*
X75110395Y-98730000D01*
X75469605Y-98730000D01*
X76354080Y-99614475D01*
X76608261Y-99530792D01*
X76739158Y-99258225D01*
X76814365Y-98965358D01*
X76823660Y-98796553D01*
X78829009Y-98796553D01*
X78871603Y-99095907D01*
X78971778Y-99381199D01*
X79051739Y-99530792D01*
X79305920Y-99614475D01*
X80190395Y-98730000D01*
X80549605Y-98730000D01*
X81434080Y-99614475D01*
X81688261Y-99530792D01*
X81819158Y-99258225D01*
X81894365Y-98965358D01*
X81910991Y-98663447D01*
X81868397Y-98364093D01*
X81768222Y-98078801D01*
X81688261Y-97929208D01*
X81434080Y-97845525D01*
X80549605Y-98730000D01*
X80190395Y-98730000D01*
X79305920Y-97845525D01*
X79051739Y-97929208D01*
X78920842Y-98201775D01*
X78845635Y-98494642D01*
X78829009Y-98796553D01*
X76823660Y-98796553D01*
X76830991Y-98663447D01*
X76788397Y-98364093D01*
X76688222Y-98078801D01*
X76608261Y-97929208D01*
X76354080Y-97845525D01*
X75469605Y-98730000D01*
X75110395Y-98730000D01*
X74225920Y-97845525D01*
X73971739Y-97929208D01*
X73840842Y-98201775D01*
X73765635Y-98494642D01*
X73749009Y-98796553D01*
X70710000Y-98796553D01*
X70710000Y-97254080D01*
X74405525Y-97254080D01*
X74473319Y-97460000D01*
X74405525Y-97665920D01*
X75290000Y-98550395D01*
X76174475Y-97665920D01*
X76106681Y-97460000D01*
X76174475Y-97254080D01*
X79485525Y-97254080D01*
X79553319Y-97460000D01*
X79485525Y-97665920D01*
X80370000Y-98550395D01*
X81254475Y-97665920D01*
X81186681Y-97460000D01*
X81254475Y-97254080D01*
X80370000Y-96369605D01*
X79485525Y-97254080D01*
X76174475Y-97254080D01*
X75290000Y-96369605D01*
X74405525Y-97254080D01*
X70710000Y-97254080D01*
X70710000Y-96256553D01*
X73749009Y-96256553D01*
X73791603Y-96555907D01*
X73891778Y-96841199D01*
X73971739Y-96990792D01*
X74225920Y-97074475D01*
X75110395Y-96190000D01*
X75469605Y-96190000D01*
X76354080Y-97074475D01*
X76608261Y-96990792D01*
X76739158Y-96718225D01*
X76814365Y-96425358D01*
X76823660Y-96256553D01*
X78829009Y-96256553D01*
X78871603Y-96555907D01*
X78971778Y-96841199D01*
X79051739Y-96990792D01*
X79305920Y-97074475D01*
X80190395Y-96190000D01*
X80549605Y-96190000D01*
X81434080Y-97074475D01*
X81688261Y-96990792D01*
X81819158Y-96718225D01*
X81894365Y-96425358D01*
X81910991Y-96123447D01*
X81868397Y-95824093D01*
X81792489Y-95607911D01*
X144665000Y-95607911D01*
X144665000Y-95792089D01*
X144700932Y-95972729D01*
X144771414Y-96142889D01*
X144813272Y-96205534D01*
X144860589Y-96294059D01*
X144971183Y-96428817D01*
X145004955Y-96456533D01*
X146657346Y-98108924D01*
X146671414Y-98142889D01*
X146773738Y-98296028D01*
X146903972Y-98426262D01*
X147057111Y-98528586D01*
X147227271Y-98599068D01*
X147407911Y-98635000D01*
X147592089Y-98635000D01*
X147772729Y-98599068D01*
X147942889Y-98528586D01*
X148096028Y-98426262D01*
X148226262Y-98296028D01*
X148328586Y-98142889D01*
X148399068Y-97972729D01*
X148435000Y-97792089D01*
X148435000Y-97607911D01*
X148399068Y-97427271D01*
X148328586Y-97257111D01*
X148226262Y-97103972D01*
X148096028Y-96973738D01*
X147942889Y-96871414D01*
X147908924Y-96857346D01*
X146504088Y-95452510D01*
X146499068Y-95427271D01*
X146428586Y-95257111D01*
X146326262Y-95103972D01*
X146196028Y-94973738D01*
X146042889Y-94871414D01*
X145872729Y-94800932D01*
X145692089Y-94765000D01*
X145507911Y-94765000D01*
X145327271Y-94800932D01*
X145157111Y-94871414D01*
X145003972Y-94973738D01*
X144873738Y-95103972D01*
X144771414Y-95257111D01*
X144700932Y-95427271D01*
X144665000Y-95607911D01*
X81792489Y-95607911D01*
X81768222Y-95538801D01*
X81688261Y-95389208D01*
X81434080Y-95305525D01*
X80549605Y-96190000D01*
X80190395Y-96190000D01*
X79305920Y-95305525D01*
X79051739Y-95389208D01*
X78920842Y-95661775D01*
X78845635Y-95954642D01*
X78829009Y-96256553D01*
X76823660Y-96256553D01*
X76830991Y-96123447D01*
X76788397Y-95824093D01*
X76688222Y-95538801D01*
X76608261Y-95389208D01*
X76354080Y-95305525D01*
X75469605Y-96190000D01*
X75110395Y-96190000D01*
X74225920Y-95305525D01*
X73971739Y-95389208D01*
X73840842Y-95661775D01*
X73765635Y-95954642D01*
X73749009Y-96256553D01*
X70710000Y-96256553D01*
X70710000Y-60478816D01*
X73755000Y-60478816D01*
X73755000Y-60781184D01*
X73813989Y-61077743D01*
X73929701Y-61357095D01*
X74097688Y-61608505D01*
X74311495Y-61822312D01*
X74427763Y-61900000D01*
X74311495Y-61977688D01*
X74097688Y-62191495D01*
X73929701Y-62442905D01*
X73813989Y-62722257D01*
X73755000Y-63018816D01*
X73755000Y-63321184D01*
X73813989Y-63617743D01*
X73929701Y-63897095D01*
X74097688Y-64148505D01*
X74311495Y-64362312D01*
X74427763Y-64440000D01*
X74311495Y-64517688D01*
X74097688Y-64731495D01*
X73929701Y-64982905D01*
X73813989Y-65262257D01*
X73755000Y-65558816D01*
X73755000Y-65861184D01*
X73813989Y-66157743D01*
X73929701Y-66437095D01*
X74097688Y-66688505D01*
X74311495Y-66902312D01*
X74427763Y-66980000D01*
X74311495Y-67057688D01*
X74097688Y-67271495D01*
X73929701Y-67522905D01*
X73813989Y-67802257D01*
X73755000Y-68098816D01*
X73755000Y-68401184D01*
X73813989Y-68697743D01*
X73929701Y-68977095D01*
X74097688Y-69228505D01*
X74311495Y-69442312D01*
X74427763Y-69520000D01*
X74311495Y-69597688D01*
X74097688Y-69811495D01*
X73929701Y-70062905D01*
X73813989Y-70342257D01*
X73755000Y-70638816D01*
X73755000Y-70941184D01*
X73813989Y-71237743D01*
X73929701Y-71517095D01*
X74097688Y-71768505D01*
X74311495Y-71982312D01*
X74427763Y-72060000D01*
X74311495Y-72137688D01*
X74097688Y-72351495D01*
X73929701Y-72602905D01*
X73813989Y-72882257D01*
X73755000Y-73178816D01*
X73755000Y-73481184D01*
X73813989Y-73777743D01*
X73929701Y-74057095D01*
X74097688Y-74308505D01*
X74311495Y-74522312D01*
X74427763Y-74600000D01*
X74311495Y-74677688D01*
X74097688Y-74891495D01*
X73929701Y-75142905D01*
X73813989Y-75422257D01*
X73755000Y-75718816D01*
X73755000Y-76021184D01*
X73813989Y-76317743D01*
X73929701Y-76597095D01*
X74097688Y-76848505D01*
X74311495Y-77062312D01*
X74427763Y-77140000D01*
X74311495Y-77217688D01*
X74097688Y-77431495D01*
X73929701Y-77682905D01*
X73813989Y-77962257D01*
X73755000Y-78258816D01*
X73755000Y-78561184D01*
X73813989Y-78857743D01*
X73929701Y-79137095D01*
X74097688Y-79388505D01*
X74311495Y-79602312D01*
X74427763Y-79680000D01*
X74311495Y-79757688D01*
X74097688Y-79971495D01*
X73929701Y-80222905D01*
X73813989Y-80502257D01*
X73755000Y-80798816D01*
X73755000Y-81101184D01*
X73813989Y-81397743D01*
X73929701Y-81677095D01*
X74097688Y-81928505D01*
X74311495Y-82142312D01*
X74427763Y-82220000D01*
X74311495Y-82297688D01*
X74097688Y-82511495D01*
X73929701Y-82762905D01*
X73813989Y-83042257D01*
X73755000Y-83338816D01*
X73755000Y-83641184D01*
X73813989Y-83937743D01*
X73929701Y-84217095D01*
X74097688Y-84468505D01*
X74311495Y-84682312D01*
X74427763Y-84760000D01*
X74311495Y-84837688D01*
X74097688Y-85051495D01*
X73929701Y-85302905D01*
X73813989Y-85582257D01*
X73755000Y-85878816D01*
X73755000Y-86181184D01*
X73813989Y-86477743D01*
X73929701Y-86757095D01*
X74097688Y-87008505D01*
X74311495Y-87222312D01*
X74427763Y-87300000D01*
X74311495Y-87377688D01*
X74097688Y-87591495D01*
X73929701Y-87842905D01*
X73813989Y-88122257D01*
X73755000Y-88418816D01*
X73755000Y-88721184D01*
X73813989Y-89017743D01*
X73929701Y-89297095D01*
X74097688Y-89548505D01*
X74311495Y-89762312D01*
X74427763Y-89840000D01*
X74311495Y-89917688D01*
X74097688Y-90131495D01*
X73929701Y-90382905D01*
X73813989Y-90662257D01*
X73755000Y-90958816D01*
X73755000Y-91261184D01*
X73813989Y-91557743D01*
X73929701Y-91837095D01*
X74097688Y-92088505D01*
X74311495Y-92302312D01*
X74427763Y-92380000D01*
X74311495Y-92457688D01*
X74097688Y-92671495D01*
X73929701Y-92922905D01*
X73813989Y-93202257D01*
X73755000Y-93498816D01*
X73755000Y-93801184D01*
X73813989Y-94097743D01*
X73929701Y-94377095D01*
X74097688Y-94628505D01*
X74311495Y-94842312D01*
X74465105Y-94944951D01*
X74405525Y-95125920D01*
X75290000Y-96010395D01*
X76174475Y-95125920D01*
X76114895Y-94944951D01*
X76268505Y-94842312D01*
X76482312Y-94628505D01*
X76650299Y-94377095D01*
X76766011Y-94097743D01*
X76825000Y-93801184D01*
X76825000Y-93498816D01*
X76766011Y-93202257D01*
X76650299Y-92922905D01*
X76482312Y-92671495D01*
X76268505Y-92457688D01*
X76152237Y-92380000D01*
X76268505Y-92302312D01*
X76482312Y-92088505D01*
X76650299Y-91837095D01*
X76766011Y-91557743D01*
X76825000Y-91261184D01*
X76825000Y-90958816D01*
X76766011Y-90662257D01*
X76650299Y-90382905D01*
X76482312Y-90131495D01*
X76268505Y-89917688D01*
X76152237Y-89840000D01*
X76268505Y-89762312D01*
X76482312Y-89548505D01*
X76650299Y-89297095D01*
X76766011Y-89017743D01*
X76825000Y-88721184D01*
X76825000Y-88418816D01*
X76766011Y-88122257D01*
X76650299Y-87842905D01*
X76482312Y-87591495D01*
X76268505Y-87377688D01*
X76152237Y-87300000D01*
X76268505Y-87222312D01*
X76482312Y-87008505D01*
X76650299Y-86757095D01*
X76766011Y-86477743D01*
X76825000Y-86181184D01*
X76825000Y-85878816D01*
X76766011Y-85582257D01*
X76650299Y-85302905D01*
X76482312Y-85051495D01*
X76268505Y-84837688D01*
X76152237Y-84760000D01*
X76268505Y-84682312D01*
X76482312Y-84468505D01*
X76650299Y-84217095D01*
X76766011Y-83937743D01*
X76825000Y-83641184D01*
X76825000Y-83338816D01*
X76766011Y-83042257D01*
X76650299Y-82762905D01*
X76482312Y-82511495D01*
X76268505Y-82297688D01*
X76152237Y-82220000D01*
X76268505Y-82142312D01*
X76482312Y-81928505D01*
X76650299Y-81677095D01*
X76766011Y-81397743D01*
X76825000Y-81101184D01*
X76825000Y-80798816D01*
X76766011Y-80502257D01*
X76650299Y-80222905D01*
X76482312Y-79971495D01*
X76268505Y-79757688D01*
X76152237Y-79680000D01*
X76268505Y-79602312D01*
X76482312Y-79388505D01*
X76650299Y-79137095D01*
X76766011Y-78857743D01*
X76825000Y-78561184D01*
X76825000Y-78258816D01*
X76766011Y-77962257D01*
X76650299Y-77682905D01*
X76482312Y-77431495D01*
X76268505Y-77217688D01*
X76152237Y-77140000D01*
X76268505Y-77062312D01*
X76482312Y-76848505D01*
X76650299Y-76597095D01*
X76766011Y-76317743D01*
X76825000Y-76021184D01*
X76825000Y-75718816D01*
X76766011Y-75422257D01*
X76650299Y-75142905D01*
X76482312Y-74891495D01*
X76268505Y-74677688D01*
X76152237Y-74600000D01*
X76268505Y-74522312D01*
X76482312Y-74308505D01*
X76650299Y-74057095D01*
X76766011Y-73777743D01*
X76825000Y-73481184D01*
X76825000Y-73178816D01*
X76766011Y-72882257D01*
X76650299Y-72602905D01*
X76482312Y-72351495D01*
X76268505Y-72137688D01*
X76152237Y-72060000D01*
X76268505Y-71982312D01*
X76482312Y-71768505D01*
X76650299Y-71517095D01*
X76766011Y-71237743D01*
X76825000Y-70941184D01*
X76825000Y-70638816D01*
X76766011Y-70342257D01*
X76650299Y-70062905D01*
X76482312Y-69811495D01*
X76268505Y-69597688D01*
X76152237Y-69520000D01*
X76268505Y-69442312D01*
X76482312Y-69228505D01*
X76650299Y-68977095D01*
X76766011Y-68697743D01*
X76825000Y-68401184D01*
X76825000Y-68098816D01*
X76766011Y-67802257D01*
X76650299Y-67522905D01*
X76482312Y-67271495D01*
X76268505Y-67057688D01*
X76152237Y-66980000D01*
X76268505Y-66902312D01*
X76482312Y-66688505D01*
X76650299Y-66437095D01*
X76766011Y-66157743D01*
X76825000Y-65861184D01*
X76825000Y-65558816D01*
X76766011Y-65262257D01*
X76650299Y-64982905D01*
X76482312Y-64731495D01*
X76268505Y-64517688D01*
X76152237Y-64440000D01*
X76268505Y-64362312D01*
X76482312Y-64148505D01*
X76650299Y-63897095D01*
X76766011Y-63617743D01*
X76825000Y-63321184D01*
X76825000Y-63018816D01*
X76766011Y-62722257D01*
X76650299Y-62442905D01*
X76482312Y-62191495D01*
X76268505Y-61977688D01*
X76152237Y-61900000D01*
X76268505Y-61822312D01*
X76482312Y-61608505D01*
X76650299Y-61357095D01*
X76766011Y-61077743D01*
X76825000Y-60781184D01*
X76825000Y-60478816D01*
X78835000Y-60478816D01*
X78835000Y-60781184D01*
X78893989Y-61077743D01*
X79009701Y-61357095D01*
X79177688Y-61608505D01*
X79391495Y-61822312D01*
X79507763Y-61900000D01*
X79391495Y-61977688D01*
X79177688Y-62191495D01*
X79009701Y-62442905D01*
X78893989Y-62722257D01*
X78835000Y-63018816D01*
X78835000Y-63321184D01*
X78893989Y-63617743D01*
X79009701Y-63897095D01*
X79177688Y-64148505D01*
X79391495Y-64362312D01*
X79507763Y-64440000D01*
X79391495Y-64517688D01*
X79177688Y-64731495D01*
X79009701Y-64982905D01*
X78893989Y-65262257D01*
X78835000Y-65558816D01*
X78835000Y-65861184D01*
X78893989Y-66157743D01*
X79009701Y-66437095D01*
X79177688Y-66688505D01*
X79391495Y-66902312D01*
X79507763Y-66980000D01*
X79391495Y-67057688D01*
X79177688Y-67271495D01*
X79009701Y-67522905D01*
X78893989Y-67802257D01*
X78835000Y-68098816D01*
X78835000Y-68401184D01*
X78893989Y-68697743D01*
X79009701Y-68977095D01*
X79177688Y-69228505D01*
X79391495Y-69442312D01*
X79507763Y-69520000D01*
X79391495Y-69597688D01*
X79177688Y-69811495D01*
X79009701Y-70062905D01*
X78893989Y-70342257D01*
X78835000Y-70638816D01*
X78835000Y-70941184D01*
X78893989Y-71237743D01*
X79009701Y-71517095D01*
X79177688Y-71768505D01*
X79391495Y-71982312D01*
X79507763Y-72060000D01*
X79391495Y-72137688D01*
X79177688Y-72351495D01*
X79009701Y-72602905D01*
X78893989Y-72882257D01*
X78835000Y-73178816D01*
X78835000Y-73481184D01*
X78893989Y-73777743D01*
X79009701Y-74057095D01*
X79177688Y-74308505D01*
X79391495Y-74522312D01*
X79507763Y-74600000D01*
X79391495Y-74677688D01*
X79177688Y-74891495D01*
X79009701Y-75142905D01*
X78893989Y-75422257D01*
X78835000Y-75718816D01*
X78835000Y-76021184D01*
X78893989Y-76317743D01*
X79009701Y-76597095D01*
X79177688Y-76848505D01*
X79391495Y-77062312D01*
X79507763Y-77140000D01*
X79391495Y-77217688D01*
X79177688Y-77431495D01*
X79009701Y-77682905D01*
X78893989Y-77962257D01*
X78835000Y-78258816D01*
X78835000Y-78561184D01*
X78893989Y-78857743D01*
X79009701Y-79137095D01*
X79177688Y-79388505D01*
X79391495Y-79602312D01*
X79507763Y-79680000D01*
X79391495Y-79757688D01*
X79177688Y-79971495D01*
X79009701Y-80222905D01*
X78893989Y-80502257D01*
X78835000Y-80798816D01*
X78835000Y-81101184D01*
X78893989Y-81397743D01*
X79009701Y-81677095D01*
X79177688Y-81928505D01*
X79391495Y-82142312D01*
X79507763Y-82220000D01*
X79391495Y-82297688D01*
X79177688Y-82511495D01*
X79009701Y-82762905D01*
X78893989Y-83042257D01*
X78835000Y-83338816D01*
X78835000Y-83641184D01*
X78893989Y-83937743D01*
X79009701Y-84217095D01*
X79177688Y-84468505D01*
X79391495Y-84682312D01*
X79507763Y-84760000D01*
X79391495Y-84837688D01*
X79177688Y-85051495D01*
X79009701Y-85302905D01*
X78893989Y-85582257D01*
X78835000Y-85878816D01*
X78835000Y-86181184D01*
X78893989Y-86477743D01*
X79009701Y-86757095D01*
X79177688Y-87008505D01*
X79391495Y-87222312D01*
X79507763Y-87300000D01*
X79391495Y-87377688D01*
X79177688Y-87591495D01*
X79009701Y-87842905D01*
X78893989Y-88122257D01*
X78835000Y-88418816D01*
X78835000Y-88721184D01*
X78893989Y-89017743D01*
X79009701Y-89297095D01*
X79177688Y-89548505D01*
X79391495Y-89762312D01*
X79507763Y-89840000D01*
X79391495Y-89917688D01*
X79177688Y-90131495D01*
X79009701Y-90382905D01*
X78893989Y-90662257D01*
X78835000Y-90958816D01*
X78835000Y-91261184D01*
X78893989Y-91557743D01*
X79009701Y-91837095D01*
X79177688Y-92088505D01*
X79391495Y-92302312D01*
X79507763Y-92380000D01*
X79391495Y-92457688D01*
X79177688Y-92671495D01*
X79009701Y-92922905D01*
X78893989Y-93202257D01*
X78835000Y-93498816D01*
X78835000Y-93801184D01*
X78893989Y-94097743D01*
X79009701Y-94377095D01*
X79177688Y-94628505D01*
X79391495Y-94842312D01*
X79545105Y-94944951D01*
X79485525Y-95125920D01*
X80370000Y-96010395D01*
X81254475Y-95125920D01*
X81194895Y-94944951D01*
X81348505Y-94842312D01*
X81562312Y-94628505D01*
X81730299Y-94377095D01*
X81846011Y-94097743D01*
X81905000Y-93801184D01*
X81905000Y-93498816D01*
X81846011Y-93202257D01*
X81730299Y-92922905D01*
X81562312Y-92671495D01*
X81348505Y-92457688D01*
X81232237Y-92380000D01*
X81348505Y-92302312D01*
X81562312Y-92088505D01*
X81730299Y-91837095D01*
X81846011Y-91557743D01*
X81905000Y-91261184D01*
X81905000Y-90958816D01*
X81846011Y-90662257D01*
X81730299Y-90382905D01*
X81562312Y-90131495D01*
X81348505Y-89917688D01*
X81232237Y-89840000D01*
X81348505Y-89762312D01*
X81562312Y-89548505D01*
X81730299Y-89297095D01*
X81846011Y-89017743D01*
X81905000Y-88721184D01*
X81905000Y-88418816D01*
X81846011Y-88122257D01*
X81730299Y-87842905D01*
X81562312Y-87591495D01*
X81348505Y-87377688D01*
X81232237Y-87300000D01*
X81348505Y-87222312D01*
X81562312Y-87008505D01*
X81730299Y-86757095D01*
X81846011Y-86477743D01*
X81905000Y-86181184D01*
X81905000Y-85878816D01*
X81846011Y-85582257D01*
X81730299Y-85302905D01*
X81562312Y-85051495D01*
X81348505Y-84837688D01*
X81232237Y-84760000D01*
X81348505Y-84682312D01*
X81562312Y-84468505D01*
X81730299Y-84217095D01*
X81846011Y-83937743D01*
X81905000Y-83641184D01*
X81905000Y-83338816D01*
X81846011Y-83042257D01*
X81730299Y-82762905D01*
X81562312Y-82511495D01*
X81348505Y-82297688D01*
X81232237Y-82220000D01*
X81348505Y-82142312D01*
X81562312Y-81928505D01*
X81730299Y-81677095D01*
X81846011Y-81397743D01*
X81905000Y-81101184D01*
X81905000Y-80798816D01*
X81846011Y-80502257D01*
X81730299Y-80222905D01*
X81562312Y-79971495D01*
X81348505Y-79757688D01*
X81232237Y-79680000D01*
X81348505Y-79602312D01*
X81562312Y-79388505D01*
X81730299Y-79137095D01*
X81846011Y-78857743D01*
X81905000Y-78561184D01*
X81905000Y-78258816D01*
X81846011Y-77962257D01*
X81730299Y-77682905D01*
X81562312Y-77431495D01*
X81348505Y-77217688D01*
X81232237Y-77140000D01*
X81348505Y-77062312D01*
X81562312Y-76848505D01*
X81675297Y-76679411D01*
X166806600Y-76679411D01*
X166806600Y-76863589D01*
X166842532Y-77044229D01*
X166913014Y-77214389D01*
X167015338Y-77367528D01*
X167145572Y-77497762D01*
X167298711Y-77600086D01*
X167461011Y-77667312D01*
X168177347Y-78383649D01*
X168201432Y-78504729D01*
X168271914Y-78674889D01*
X168374238Y-78828028D01*
X168504472Y-78958262D01*
X168657611Y-79060586D01*
X168827771Y-79131068D01*
X169008411Y-79167000D01*
X169192589Y-79167000D01*
X169373229Y-79131068D01*
X169543389Y-79060586D01*
X169696528Y-78958262D01*
X169826762Y-78828028D01*
X169929086Y-78674889D01*
X169999568Y-78504729D01*
X170035500Y-78324089D01*
X170035500Y-78139911D01*
X169999568Y-77959271D01*
X169929086Y-77789111D01*
X169826762Y-77635972D01*
X169696528Y-77505738D01*
X169543389Y-77403414D01*
X169373229Y-77332932D01*
X169252149Y-77308847D01*
X168676600Y-76733299D01*
X168676600Y-76679411D01*
X168640668Y-76498771D01*
X168570186Y-76328611D01*
X168467862Y-76175472D01*
X168337628Y-76045238D01*
X168184489Y-75942914D01*
X168014329Y-75872432D01*
X167833689Y-75836500D01*
X167649511Y-75836500D01*
X167468871Y-75872432D01*
X167298711Y-75942914D01*
X167145572Y-76045238D01*
X167015338Y-76175472D01*
X166913014Y-76328611D01*
X166842532Y-76498771D01*
X166806600Y-76679411D01*
X81675297Y-76679411D01*
X81730299Y-76597095D01*
X81846011Y-76317743D01*
X81905000Y-76021184D01*
X81905000Y-75718816D01*
X81846011Y-75422257D01*
X81730299Y-75142905D01*
X81562312Y-74891495D01*
X81428728Y-74757911D01*
X169915000Y-74757911D01*
X169915000Y-74942089D01*
X169950932Y-75122729D01*
X170021414Y-75292889D01*
X170123738Y-75446028D01*
X170253972Y-75576262D01*
X170407111Y-75678586D01*
X170577271Y-75749068D01*
X170757911Y-75785000D01*
X170942089Y-75785000D01*
X171122729Y-75749068D01*
X171292889Y-75678586D01*
X171446028Y-75576262D01*
X171576262Y-75446028D01*
X171678586Y-75292889D01*
X171749068Y-75122729D01*
X171773153Y-75001648D01*
X174361004Y-72413798D01*
X174390001Y-72390001D01*
X174484974Y-72274276D01*
X174555546Y-72142247D01*
X174599003Y-71998986D01*
X174609052Y-71896954D01*
X174678586Y-71792889D01*
X174749068Y-71622729D01*
X174785000Y-71442089D01*
X174785000Y-71257911D01*
X174749068Y-71077271D01*
X174678586Y-70907111D01*
X174576262Y-70753972D01*
X174446028Y-70623738D01*
X174292889Y-70521414D01*
X174122729Y-70450932D01*
X173942089Y-70415000D01*
X173757911Y-70415000D01*
X173577271Y-70450932D01*
X173407111Y-70521414D01*
X173253972Y-70623738D01*
X173123738Y-70753972D01*
X173021414Y-70907111D01*
X172950932Y-71077271D01*
X172915000Y-71257911D01*
X172915000Y-71442089D01*
X172950932Y-71622729D01*
X172966027Y-71659171D01*
X170698352Y-73926847D01*
X170577271Y-73950932D01*
X170407111Y-74021414D01*
X170253972Y-74123738D01*
X170123738Y-74253972D01*
X170021414Y-74407111D01*
X169950932Y-74577271D01*
X169915000Y-74757911D01*
X81428728Y-74757911D01*
X81348505Y-74677688D01*
X81232237Y-74600000D01*
X81348505Y-74522312D01*
X81562312Y-74308505D01*
X81730299Y-74057095D01*
X81846011Y-73777743D01*
X81905000Y-73481184D01*
X81905000Y-73178816D01*
X81846011Y-72882257D01*
X81730299Y-72602905D01*
X81562312Y-72351495D01*
X81348505Y-72137688D01*
X81232237Y-72060000D01*
X81348505Y-71982312D01*
X81562312Y-71768505D01*
X81730299Y-71517095D01*
X81846011Y-71237743D01*
X81905000Y-70941184D01*
X81905000Y-70638816D01*
X81846011Y-70342257D01*
X81730299Y-70062905D01*
X81562312Y-69811495D01*
X81348505Y-69597688D01*
X81232237Y-69520000D01*
X81348505Y-69442312D01*
X81562312Y-69228505D01*
X81730299Y-68977095D01*
X81846011Y-68697743D01*
X81905000Y-68401184D01*
X81905000Y-68098816D01*
X81846011Y-67802257D01*
X81730299Y-67522905D01*
X81562312Y-67271495D01*
X81348505Y-67057688D01*
X81232237Y-66980000D01*
X81348505Y-66902312D01*
X81562312Y-66688505D01*
X81730299Y-66437095D01*
X81846011Y-66157743D01*
X81905000Y-65861184D01*
X81905000Y-65558816D01*
X81846011Y-65262257D01*
X81730299Y-64982905D01*
X81562312Y-64731495D01*
X81348505Y-64517688D01*
X81232237Y-64440000D01*
X81292101Y-64400000D01*
X91061928Y-64400000D01*
X91074188Y-64524482D01*
X91110498Y-64644180D01*
X91169463Y-64754494D01*
X91248815Y-64851185D01*
X91345506Y-64930537D01*
X91455820Y-64989502D01*
X91575518Y-65025812D01*
X91700000Y-65038072D01*
X92214250Y-65035000D01*
X92373000Y-64876250D01*
X92373000Y-63727000D01*
X92627000Y-63727000D01*
X92627000Y-64876250D01*
X92785750Y-65035000D01*
X93300000Y-65038072D01*
X93424482Y-65025812D01*
X93544180Y-64989502D01*
X93654494Y-64930537D01*
X93751185Y-64851185D01*
X93830537Y-64754494D01*
X93889502Y-64644180D01*
X93925812Y-64524482D01*
X93938072Y-64400000D01*
X93935000Y-63885750D01*
X93776250Y-63727000D01*
X92627000Y-63727000D01*
X92373000Y-63727000D01*
X91223750Y-63727000D01*
X91065000Y-63885750D01*
X91061928Y-64400000D01*
X81292101Y-64400000D01*
X81348505Y-64362312D01*
X81562312Y-64148505D01*
X81730299Y-63897095D01*
X81846011Y-63617743D01*
X81905000Y-63321184D01*
X81905000Y-63018816D01*
X81861475Y-62800000D01*
X91061928Y-62800000D01*
X91065000Y-63314250D01*
X91223750Y-63473000D01*
X92373000Y-63473000D01*
X92373000Y-63453000D01*
X92627000Y-63453000D01*
X92627000Y-63473000D01*
X93776250Y-63473000D01*
X93935000Y-63314250D01*
X93938072Y-62800000D01*
X93925812Y-62675518D01*
X93889502Y-62555820D01*
X93830537Y-62445506D01*
X93751185Y-62348815D01*
X93654494Y-62269463D01*
X93544180Y-62210498D01*
X93448057Y-62181339D01*
X93614637Y-62014759D01*
X93771680Y-61779727D01*
X93879853Y-61518574D01*
X93935000Y-61241335D01*
X93935000Y-60958665D01*
X93879853Y-60681426D01*
X93771680Y-60420273D01*
X93614637Y-60185241D01*
X93414759Y-59985363D01*
X93179727Y-59828320D01*
X92918574Y-59720147D01*
X92641335Y-59665000D01*
X92358665Y-59665000D01*
X92081426Y-59720147D01*
X91820273Y-59828320D01*
X91585241Y-59985363D01*
X91385363Y-60185241D01*
X91228320Y-60420273D01*
X91120147Y-60681426D01*
X91065000Y-60958665D01*
X91065000Y-61241335D01*
X91120147Y-61518574D01*
X91228320Y-61779727D01*
X91385363Y-62014759D01*
X91551943Y-62181339D01*
X91455820Y-62210498D01*
X91345506Y-62269463D01*
X91248815Y-62348815D01*
X91169463Y-62445506D01*
X91110498Y-62555820D01*
X91074188Y-62675518D01*
X91061928Y-62800000D01*
X81861475Y-62800000D01*
X81846011Y-62722257D01*
X81730299Y-62442905D01*
X81562312Y-62191495D01*
X81348505Y-61977688D01*
X81232237Y-61900000D01*
X81348505Y-61822312D01*
X81562312Y-61608505D01*
X81730299Y-61357095D01*
X81846011Y-61077743D01*
X81905000Y-60781184D01*
X81905000Y-60478816D01*
X81846011Y-60182257D01*
X81730299Y-59902905D01*
X81562312Y-59651495D01*
X81348505Y-59437688D01*
X81097095Y-59269701D01*
X80817743Y-59153989D01*
X80521184Y-59095000D01*
X80218816Y-59095000D01*
X79922257Y-59153989D01*
X79642905Y-59269701D01*
X79391495Y-59437688D01*
X79177688Y-59651495D01*
X79009701Y-59902905D01*
X78893989Y-60182257D01*
X78835000Y-60478816D01*
X76825000Y-60478816D01*
X76766011Y-60182257D01*
X76650299Y-59902905D01*
X76482312Y-59651495D01*
X76268505Y-59437688D01*
X76017095Y-59269701D01*
X75737743Y-59153989D01*
X75441184Y-59095000D01*
X75138816Y-59095000D01*
X74842257Y-59153989D01*
X74562905Y-59269701D01*
X74311495Y-59437688D01*
X74097688Y-59651495D01*
X73929701Y-59902905D01*
X73813989Y-60182257D01*
X73755000Y-60478816D01*
X70710000Y-60478816D01*
X70710000Y-55981583D01*
X70745126Y-56158172D01*
X70902297Y-56537618D01*
X71130475Y-56879110D01*
X71420890Y-57169525D01*
X71762382Y-57397703D01*
X72141828Y-57554874D01*
X72544645Y-57635000D01*
X72955355Y-57635000D01*
X73358172Y-57554874D01*
X73737618Y-57397703D01*
X74079110Y-57169525D01*
X74369525Y-56879110D01*
X74597703Y-56537618D01*
X74754874Y-56158172D01*
X74835000Y-55755355D01*
X74835000Y-55344645D01*
X74754874Y-54941828D01*
X74597703Y-54562382D01*
X74369525Y-54220890D01*
X74079110Y-53930475D01*
X73737618Y-53702297D01*
X73358172Y-53545126D01*
X72955355Y-53465000D01*
X72544645Y-53465000D01*
X72141828Y-53545126D01*
X71762382Y-53702297D01*
X71420890Y-53930475D01*
X71130475Y-54220890D01*
X70902297Y-54562382D01*
X70745126Y-54941828D01*
X70710000Y-55118417D01*
X70710000Y-50710000D01*
X229290001Y-50710000D01*
X229290001Y-59362678D01*
G04 #@! TA.AperFunction,Conductor*
D24*
G36*
X229290001Y-59362678D02*
G01*
X227585750Y-59365000D01*
X227427000Y-59523750D01*
X227427000Y-60623000D01*
X227447000Y-60623000D01*
X227447000Y-60877000D01*
X227427000Y-60877000D01*
X227427000Y-61976250D01*
X227585750Y-62135000D01*
X229290001Y-62137322D01*
X229290001Y-67862678D01*
X227585750Y-67865000D01*
X227427000Y-68023750D01*
X227427000Y-69123000D01*
X227447000Y-69123000D01*
X227447000Y-69377000D01*
X227427000Y-69377000D01*
X227427000Y-70476250D01*
X227585750Y-70635000D01*
X229290001Y-70637322D01*
X229290001Y-76362678D01*
X227585750Y-76365000D01*
X227427000Y-76523750D01*
X227427000Y-77623000D01*
X227447000Y-77623000D01*
X227447000Y-77877000D01*
X227427000Y-77877000D01*
X227427000Y-78976250D01*
X227585750Y-79135000D01*
X229290001Y-79137322D01*
X229290001Y-84862678D01*
X227585750Y-84865000D01*
X227427000Y-85023750D01*
X227427000Y-86123000D01*
X227447000Y-86123000D01*
X227447000Y-86377000D01*
X227427000Y-86377000D01*
X227427000Y-87476250D01*
X227585750Y-87635000D01*
X229290001Y-87637322D01*
X229290001Y-93973000D01*
X179997013Y-93973000D01*
X177678270Y-92040714D01*
X177698347Y-87000000D01*
X224121928Y-87000000D01*
X224134188Y-87124482D01*
X224170498Y-87244180D01*
X224229463Y-87354494D01*
X224308815Y-87451185D01*
X224405506Y-87530537D01*
X224515820Y-87589502D01*
X224635518Y-87625812D01*
X224760000Y-87638072D01*
X227014250Y-87635000D01*
X227173000Y-87476250D01*
X227173000Y-86377000D01*
X224283750Y-86377000D01*
X224125000Y-86535750D01*
X224121928Y-87000000D01*
X177698347Y-87000000D01*
X177736830Y-77338409D01*
X185707346Y-85308925D01*
X185721414Y-85342889D01*
X185823738Y-85496028D01*
X185953972Y-85626262D01*
X186107111Y-85728586D01*
X186277271Y-85799068D01*
X186457911Y-85835000D01*
X186642089Y-85835000D01*
X186822729Y-85799068D01*
X186992889Y-85728586D01*
X187146028Y-85626262D01*
X187272290Y-85500000D01*
X224121928Y-85500000D01*
X224125000Y-85964250D01*
X224283750Y-86123000D01*
X227173000Y-86123000D01*
X227173000Y-85023750D01*
X227014250Y-84865000D01*
X224760000Y-84861928D01*
X224635518Y-84874188D01*
X224515820Y-84910498D01*
X224405506Y-84969463D01*
X224308815Y-85048815D01*
X224229463Y-85145506D01*
X224170498Y-85255820D01*
X224134188Y-85375518D01*
X224121928Y-85500000D01*
X187272290Y-85500000D01*
X187276262Y-85496028D01*
X187378586Y-85342889D01*
X187449068Y-85172729D01*
X187485000Y-84992089D01*
X187485000Y-84807911D01*
X187449068Y-84627271D01*
X187378586Y-84457111D01*
X187276262Y-84303972D01*
X187146028Y-84173738D01*
X186992889Y-84071414D01*
X186958925Y-84057346D01*
X181401579Y-78500000D01*
X224121928Y-78500000D01*
X224134188Y-78624482D01*
X224170498Y-78744180D01*
X224229463Y-78854494D01*
X224308815Y-78951185D01*
X224405506Y-79030537D01*
X224515820Y-79089502D01*
X224635518Y-79125812D01*
X224760000Y-79138072D01*
X227014250Y-79135000D01*
X227173000Y-78976250D01*
X227173000Y-77877000D01*
X224283750Y-77877000D01*
X224125000Y-78035750D01*
X224121928Y-78500000D01*
X181401579Y-78500000D01*
X179901579Y-77000000D01*
X224121928Y-77000000D01*
X224125000Y-77464250D01*
X224283750Y-77623000D01*
X227173000Y-77623000D01*
X227173000Y-76523750D01*
X227014250Y-76365000D01*
X224760000Y-76361928D01*
X224635518Y-76374188D01*
X224515820Y-76410498D01*
X224405506Y-76469463D01*
X224308815Y-76548815D01*
X224229463Y-76645506D01*
X224170498Y-76755820D01*
X224134188Y-76875518D01*
X224121928Y-77000000D01*
X179901579Y-77000000D01*
X178685001Y-75783423D01*
X178685001Y-73057911D01*
X180515000Y-73057911D01*
X180515000Y-73242089D01*
X180550932Y-73422729D01*
X180621414Y-73592889D01*
X180723738Y-73746028D01*
X180853972Y-73876262D01*
X181007111Y-73978586D01*
X181177271Y-74049068D01*
X181357911Y-74085000D01*
X181542089Y-74085000D01*
X181722729Y-74049068D01*
X181892889Y-73978586D01*
X182046028Y-73876262D01*
X182176262Y-73746028D01*
X182278586Y-73592889D01*
X182349068Y-73422729D01*
X182385000Y-73242089D01*
X182385000Y-73057911D01*
X182349068Y-72877271D01*
X182278586Y-72707111D01*
X182210000Y-72604465D01*
X182210000Y-70000000D01*
X224121928Y-70000000D01*
X224134188Y-70124482D01*
X224170498Y-70244180D01*
X224229463Y-70354494D01*
X224308815Y-70451185D01*
X224405506Y-70530537D01*
X224515820Y-70589502D01*
X224635518Y-70625812D01*
X224760000Y-70638072D01*
X227014250Y-70635000D01*
X227173000Y-70476250D01*
X227173000Y-69377000D01*
X224283750Y-69377000D01*
X224125000Y-69535750D01*
X224121928Y-70000000D01*
X182210000Y-70000000D01*
X182210000Y-68500000D01*
X224121928Y-68500000D01*
X224125000Y-68964250D01*
X224283750Y-69123000D01*
X227173000Y-69123000D01*
X227173000Y-68023750D01*
X227014250Y-67865000D01*
X224760000Y-67861928D01*
X224635518Y-67874188D01*
X224515820Y-67910498D01*
X224405506Y-67969463D01*
X224308815Y-68048815D01*
X224229463Y-68145506D01*
X224170498Y-68255820D01*
X224134188Y-68375518D01*
X224121928Y-68500000D01*
X182210000Y-68500000D01*
X182210000Y-68212288D01*
X182226262Y-68196026D01*
X182328586Y-68042887D01*
X182399068Y-67872727D01*
X182435000Y-67692087D01*
X182435000Y-67507909D01*
X182399068Y-67327269D01*
X182328586Y-67157109D01*
X182226262Y-67003970D01*
X182096028Y-66873736D01*
X181942889Y-66771412D01*
X181772729Y-66700930D01*
X181592089Y-66664998D01*
X181407911Y-66664998D01*
X181227271Y-66700930D01*
X181057111Y-66771412D01*
X180903972Y-66873736D01*
X180773738Y-67003970D01*
X180671414Y-67157109D01*
X180600932Y-67327269D01*
X180565000Y-67507909D01*
X180565000Y-67692087D01*
X180600932Y-67872727D01*
X180671414Y-68042887D01*
X180690001Y-68070704D01*
X180690000Y-72604464D01*
X180621414Y-72707111D01*
X180550932Y-72877271D01*
X180515000Y-73057911D01*
X178685001Y-73057911D01*
X178685001Y-60833630D01*
X178696028Y-60826262D01*
X178826262Y-60696028D01*
X178928586Y-60542889D01*
X178999068Y-60372729D01*
X179035000Y-60192089D01*
X179035000Y-60007911D01*
X178999068Y-59827271D01*
X178928586Y-59657111D01*
X178826262Y-59503972D01*
X178696028Y-59373738D01*
X178542889Y-59271414D01*
X178372729Y-59200932D01*
X178192089Y-59165000D01*
X178007911Y-59165000D01*
X177827271Y-59200932D01*
X177809043Y-59208482D01*
X177811036Y-58707911D01*
X208165000Y-58707911D01*
X208165000Y-58892089D01*
X208200932Y-59072729D01*
X208215000Y-59106693D01*
X208215001Y-65893305D01*
X208200932Y-65927271D01*
X208165000Y-66107911D01*
X208165000Y-66292089D01*
X208200932Y-66472729D01*
X208271414Y-66642889D01*
X208373738Y-66796028D01*
X208503972Y-66926262D01*
X208657111Y-67028586D01*
X208827271Y-67099068D01*
X209007911Y-67135000D01*
X209192089Y-67135000D01*
X209372729Y-67099068D01*
X209542889Y-67028586D01*
X209696028Y-66926262D01*
X209826262Y-66796028D01*
X209928586Y-66642889D01*
X209999068Y-66472729D01*
X210035000Y-66292089D01*
X210035000Y-66107911D01*
X209999068Y-65927271D01*
X209985000Y-65893308D01*
X209985000Y-61500000D01*
X224121928Y-61500000D01*
X224134188Y-61624482D01*
X224170498Y-61744180D01*
X224229463Y-61854494D01*
X224308815Y-61951185D01*
X224405506Y-62030537D01*
X224515820Y-62089502D01*
X224635518Y-62125812D01*
X224760000Y-62138072D01*
X227014250Y-62135000D01*
X227173000Y-61976250D01*
X227173000Y-60877000D01*
X224283750Y-60877000D01*
X224125000Y-61035750D01*
X224121928Y-61500000D01*
X209985000Y-61500000D01*
X209985000Y-60000000D01*
X224121928Y-60000000D01*
X224125000Y-60464250D01*
X224283750Y-60623000D01*
X227173000Y-60623000D01*
X227173000Y-59523750D01*
X227014250Y-59365000D01*
X224760000Y-59361928D01*
X224635518Y-59374188D01*
X224515820Y-59410498D01*
X224405506Y-59469463D01*
X224308815Y-59548815D01*
X224229463Y-59645506D01*
X224170498Y-59755820D01*
X224134188Y-59875518D01*
X224121928Y-60000000D01*
X209985000Y-60000000D01*
X209985000Y-59106692D01*
X209999068Y-59072729D01*
X210035000Y-58892089D01*
X210035000Y-58707911D01*
X209999068Y-58527271D01*
X209928586Y-58357111D01*
X209826262Y-58203972D01*
X209696028Y-58073738D01*
X209542889Y-57971414D01*
X209372729Y-57900932D01*
X209192089Y-57865000D01*
X209007911Y-57865000D01*
X208827271Y-57900932D01*
X208657111Y-57971414D01*
X208503972Y-58073738D01*
X208373738Y-58203972D01*
X208271414Y-58357111D01*
X208200932Y-58527271D01*
X208165000Y-58707911D01*
X177811036Y-58707911D01*
X177826999Y-54700506D01*
X177824560Y-54675224D01*
X177817333Y-54651399D01*
X177805597Y-54629443D01*
X177789803Y-54610197D01*
X177770557Y-54594403D01*
X177748601Y-54582667D01*
X177724776Y-54575440D01*
X177700000Y-54573000D01*
X176700000Y-54573000D01*
X176675707Y-54575345D01*
X176651855Y-54582480D01*
X176629853Y-54594130D01*
X176610546Y-54609850D01*
X176594678Y-54629033D01*
X176582857Y-54650944D01*
X176575537Y-54674741D01*
X176573001Y-54699507D01*
X176424034Y-93099507D01*
X176429228Y-93135952D01*
X176438582Y-93159024D01*
X176452258Y-93179828D01*
X176469730Y-93197564D01*
X178869730Y-95197564D01*
X178880476Y-95205597D01*
X178902432Y-95217333D01*
X178926257Y-95224560D01*
X178951033Y-95227000D01*
X229290001Y-95227000D01*
X229290000Y-141999183D01*
X229258505Y-141967688D01*
X229007095Y-141799701D01*
X228727743Y-141683989D01*
X228431184Y-141625000D01*
X228128816Y-141625000D01*
X227832257Y-141683989D01*
X227552905Y-141799701D01*
X227301495Y-141967688D01*
X227087688Y-142181495D01*
X226919701Y-142432905D01*
X226803989Y-142712257D01*
X226745000Y-143008816D01*
X226745000Y-143311184D01*
X226803989Y-143607743D01*
X226919701Y-143887095D01*
X227087688Y-144138505D01*
X227301495Y-144352312D01*
X227552905Y-144520299D01*
X227832257Y-144636011D01*
X228128816Y-144695000D01*
X228431184Y-144695000D01*
X228727743Y-144636011D01*
X229007095Y-144520299D01*
X229258505Y-144352312D01*
X229290000Y-144320817D01*
X229290000Y-149290000D01*
X70710000Y-149290000D01*
X70710000Y-144881583D01*
X70745126Y-145058172D01*
X70902297Y-145437618D01*
X71130475Y-145779110D01*
X71420890Y-146069525D01*
X71762382Y-146297703D01*
X72141828Y-146454874D01*
X72544645Y-146535000D01*
X72955355Y-146535000D01*
X73358172Y-146454874D01*
X73737618Y-146297703D01*
X74079110Y-146069525D01*
X74369525Y-145779110D01*
X74597703Y-145437618D01*
X74623841Y-145374514D01*
X96332500Y-145374514D01*
X96332500Y-145625485D01*
X96355470Y-145858703D01*
X96446245Y-146157948D01*
X96593655Y-146433734D01*
X96792037Y-146675463D01*
X97033765Y-146873845D01*
X97309551Y-147021255D01*
X97608796Y-147112030D01*
X97920000Y-147142681D01*
X98231203Y-147112030D01*
X98530448Y-147021255D01*
X98806234Y-146873845D01*
X99047963Y-146675463D01*
X99195163Y-146496101D01*
X99350563Y-146681315D01*
X99593077Y-146875969D01*
X99868906Y-147019571D01*
X100087020Y-147090563D01*
X100333000Y-146970594D01*
X100333000Y-145627000D01*
X100313000Y-145627000D01*
X100313000Y-145373000D01*
X100333000Y-145373000D01*
X100333000Y-144029406D01*
X100587000Y-144029406D01*
X100587000Y-145373000D01*
X100607000Y-145373000D01*
X100607000Y-145627000D01*
X100587000Y-145627000D01*
X100587000Y-146970594D01*
X100832980Y-147090563D01*
X101051094Y-147019571D01*
X101326923Y-146875969D01*
X101467941Y-146762781D01*
X101516963Y-146854494D01*
X101596315Y-146951185D01*
X101693006Y-147030537D01*
X101803320Y-147089502D01*
X101923018Y-147125812D01*
X102047500Y-147138072D01*
X103952500Y-147138072D01*
X104076982Y-147125812D01*
X104196680Y-147089502D01*
X104306994Y-147030537D01*
X104403685Y-146951185D01*
X104483037Y-146854494D01*
X104542002Y-146744180D01*
X104578312Y-146624482D01*
X104590572Y-146500000D01*
X104590572Y-145548816D01*
X221665000Y-145548816D01*
X221665000Y-145851184D01*
X221723989Y-146147743D01*
X221839701Y-146427095D01*
X222007688Y-146678505D01*
X222221495Y-146892312D01*
X222472905Y-147060299D01*
X222752257Y-147176011D01*
X223048816Y-147235000D01*
X223351184Y-147235000D01*
X223647743Y-147176011D01*
X223927095Y-147060299D01*
X224178505Y-146892312D01*
X224392312Y-146678505D01*
X224560299Y-146427095D01*
X224676011Y-146147743D01*
X224735000Y-145851184D01*
X224735000Y-145548816D01*
X224676011Y-145252257D01*
X224560299Y-144972905D01*
X224392312Y-144721495D01*
X224178505Y-144507688D01*
X223927095Y-144339701D01*
X223647743Y-144223989D01*
X223351184Y-144165000D01*
X223048816Y-144165000D01*
X222752257Y-144223989D01*
X222472905Y-144339701D01*
X222221495Y-144507688D01*
X222007688Y-144721495D01*
X221839701Y-144972905D01*
X221723989Y-145252257D01*
X221665000Y-145548816D01*
X104590572Y-145548816D01*
X104590572Y-144500000D01*
X104578312Y-144375518D01*
X104542002Y-144255820D01*
X104483037Y-144145506D01*
X104403685Y-144048815D01*
X104306994Y-143969463D01*
X104196680Y-143910498D01*
X104076982Y-143874188D01*
X103952500Y-143861928D01*
X102047500Y-143861928D01*
X101923018Y-143874188D01*
X101803320Y-143910498D01*
X101693006Y-143969463D01*
X101596315Y-144048815D01*
X101516963Y-144145506D01*
X101467941Y-144237219D01*
X101326923Y-144124031D01*
X101051094Y-143980429D01*
X100832980Y-143909437D01*
X100587000Y-144029406D01*
X100333000Y-144029406D01*
X100087020Y-143909437D01*
X99868906Y-143980429D01*
X99593077Y-144124031D01*
X99350563Y-144318685D01*
X99195162Y-144503900D01*
X99047963Y-144324537D01*
X98806235Y-144126155D01*
X98530449Y-143978745D01*
X98231204Y-143887970D01*
X97920000Y-143857319D01*
X97608797Y-143887970D01*
X97309552Y-143978745D01*
X97033766Y-144126155D01*
X96792037Y-144324537D01*
X96593655Y-144566265D01*
X96446245Y-144842051D01*
X96355470Y-145141296D01*
X96332500Y-145374514D01*
X74623841Y-145374514D01*
X74754874Y-145058172D01*
X74835000Y-144655355D01*
X74835000Y-144244645D01*
X74754874Y-143841828D01*
X74597703Y-143462382D01*
X74369525Y-143120890D01*
X74079110Y-142830475D01*
X73737618Y-142602297D01*
X73358172Y-142445126D01*
X72955355Y-142365000D01*
X72544645Y-142365000D01*
X72141828Y-142445126D01*
X71762382Y-142602297D01*
X71420890Y-142830475D01*
X71130475Y-143120890D01*
X70902297Y-143462382D01*
X70745126Y-143841828D01*
X70710000Y-144018417D01*
X70710000Y-106198816D01*
X73755000Y-106198816D01*
X73755000Y-106501184D01*
X73813989Y-106797743D01*
X73929701Y-107077095D01*
X74097688Y-107328505D01*
X74311495Y-107542312D01*
X74427763Y-107620000D01*
X74311495Y-107697688D01*
X74097688Y-107911495D01*
X73929701Y-108162905D01*
X73813989Y-108442257D01*
X73755000Y-108738816D01*
X73755000Y-109041184D01*
X73813989Y-109337743D01*
X73929701Y-109617095D01*
X74097688Y-109868505D01*
X74311495Y-110082312D01*
X74427763Y-110160000D01*
X74311495Y-110237688D01*
X74097688Y-110451495D01*
X73929701Y-110702905D01*
X73813989Y-110982257D01*
X73755000Y-111278816D01*
X73755000Y-111581184D01*
X73813989Y-111877743D01*
X73929701Y-112157095D01*
X74097688Y-112408505D01*
X74311495Y-112622312D01*
X74427763Y-112700000D01*
X74311495Y-112777688D01*
X74097688Y-112991495D01*
X73929701Y-113242905D01*
X73813989Y-113522257D01*
X73755000Y-113818816D01*
X73755000Y-114121184D01*
X73813989Y-114417743D01*
X73929701Y-114697095D01*
X74097688Y-114948505D01*
X74311495Y-115162312D01*
X74427763Y-115240000D01*
X74311495Y-115317688D01*
X74097688Y-115531495D01*
X73929701Y-115782905D01*
X73813989Y-116062257D01*
X73755000Y-116358816D01*
X73755000Y-116661184D01*
X73813989Y-116957743D01*
X73929701Y-117237095D01*
X74097688Y-117488505D01*
X74311495Y-117702312D01*
X74427763Y-117780000D01*
X74311495Y-117857688D01*
X74097688Y-118071495D01*
X73929701Y-118322905D01*
X73813989Y-118602257D01*
X73755000Y-118898816D01*
X73755000Y-119201184D01*
X73813989Y-119497743D01*
X73929701Y-119777095D01*
X74097688Y-120028505D01*
X74311495Y-120242312D01*
X74427763Y-120320000D01*
X74311495Y-120397688D01*
X74097688Y-120611495D01*
X73929701Y-120862905D01*
X73813989Y-121142257D01*
X73755000Y-121438816D01*
X73755000Y-121741184D01*
X73813989Y-122037743D01*
X73929701Y-122317095D01*
X74097688Y-122568505D01*
X74311495Y-122782312D01*
X74427763Y-122860000D01*
X74311495Y-122937688D01*
X74097688Y-123151495D01*
X73929701Y-123402905D01*
X73813989Y-123682257D01*
X73755000Y-123978816D01*
X73755000Y-124281184D01*
X73813989Y-124577743D01*
X73929701Y-124857095D01*
X74097688Y-125108505D01*
X74311495Y-125322312D01*
X74427763Y-125400000D01*
X74311495Y-125477688D01*
X74097688Y-125691495D01*
X73929701Y-125942905D01*
X73813989Y-126222257D01*
X73755000Y-126518816D01*
X73755000Y-126821184D01*
X73813989Y-127117743D01*
X73929701Y-127397095D01*
X74097688Y-127648505D01*
X74311495Y-127862312D01*
X74427763Y-127940000D01*
X74311495Y-128017688D01*
X74097688Y-128231495D01*
X73929701Y-128482905D01*
X73813989Y-128762257D01*
X73755000Y-129058816D01*
X73755000Y-129361184D01*
X73813989Y-129657743D01*
X73929701Y-129937095D01*
X74097688Y-130188505D01*
X74311495Y-130402312D01*
X74427763Y-130480000D01*
X74311495Y-130557688D01*
X74097688Y-130771495D01*
X73929701Y-131022905D01*
X73813989Y-131302257D01*
X73755000Y-131598816D01*
X73755000Y-131901184D01*
X73813989Y-132197743D01*
X73929701Y-132477095D01*
X74097688Y-132728505D01*
X74311495Y-132942312D01*
X74427763Y-133020000D01*
X74311495Y-133097688D01*
X74097688Y-133311495D01*
X73929701Y-133562905D01*
X73813989Y-133842257D01*
X73755000Y-134138816D01*
X73755000Y-134441184D01*
X73813989Y-134737743D01*
X73929701Y-135017095D01*
X74097688Y-135268505D01*
X74311495Y-135482312D01*
X74427763Y-135560000D01*
X74311495Y-135637688D01*
X74097688Y-135851495D01*
X73929701Y-136102905D01*
X73813989Y-136382257D01*
X73755000Y-136678816D01*
X73755000Y-136981184D01*
X73813989Y-137277743D01*
X73929701Y-137557095D01*
X74097688Y-137808505D01*
X74311495Y-138022312D01*
X74427763Y-138100000D01*
X74311495Y-138177688D01*
X74097688Y-138391495D01*
X73929701Y-138642905D01*
X73813989Y-138922257D01*
X73755000Y-139218816D01*
X73755000Y-139521184D01*
X73813989Y-139817743D01*
X73929701Y-140097095D01*
X74097688Y-140348505D01*
X74311495Y-140562312D01*
X74562905Y-140730299D01*
X74842257Y-140846011D01*
X75138816Y-140905000D01*
X75441184Y-140905000D01*
X75737743Y-140846011D01*
X76017095Y-140730299D01*
X76268505Y-140562312D01*
X76482312Y-140348505D01*
X76650299Y-140097095D01*
X76766011Y-139817743D01*
X76825000Y-139521184D01*
X76825000Y-139218816D01*
X76766011Y-138922257D01*
X76650299Y-138642905D01*
X76482312Y-138391495D01*
X76268505Y-138177688D01*
X76152237Y-138100000D01*
X76268505Y-138022312D01*
X76482312Y-137808505D01*
X76650299Y-137557095D01*
X76766011Y-137277743D01*
X76825000Y-136981184D01*
X76825000Y-136678816D01*
X76766011Y-136382257D01*
X76650299Y-136102905D01*
X76482312Y-135851495D01*
X76268505Y-135637688D01*
X76152237Y-135560000D01*
X76268505Y-135482312D01*
X76482312Y-135268505D01*
X76650299Y-135017095D01*
X76766011Y-134737743D01*
X76825000Y-134441184D01*
X76825000Y-134138816D01*
X76766011Y-133842257D01*
X76650299Y-133562905D01*
X76482312Y-133311495D01*
X76268505Y-133097688D01*
X76152237Y-133020000D01*
X76268505Y-132942312D01*
X76482312Y-132728505D01*
X76650299Y-132477095D01*
X76766011Y-132197743D01*
X76825000Y-131901184D01*
X76825000Y-131598816D01*
X76766011Y-131302257D01*
X76650299Y-131022905D01*
X76482312Y-130771495D01*
X76268505Y-130557688D01*
X76152237Y-130480000D01*
X76268505Y-130402312D01*
X76482312Y-130188505D01*
X76650299Y-129937095D01*
X76766011Y-129657743D01*
X76825000Y-129361184D01*
X76825000Y-129058816D01*
X76766011Y-128762257D01*
X76650299Y-128482905D01*
X76482312Y-128231495D01*
X76268505Y-128017688D01*
X76152237Y-127940000D01*
X76268505Y-127862312D01*
X76482312Y-127648505D01*
X76650299Y-127397095D01*
X76766011Y-127117743D01*
X76825000Y-126821184D01*
X76825000Y-126518816D01*
X76766011Y-126222257D01*
X76650299Y-125942905D01*
X76482312Y-125691495D01*
X76268505Y-125477688D01*
X76152237Y-125400000D01*
X76268505Y-125322312D01*
X76482312Y-125108505D01*
X76650299Y-124857095D01*
X76766011Y-124577743D01*
X76825000Y-124281184D01*
X76825000Y-123978816D01*
X76766011Y-123682257D01*
X76650299Y-123402905D01*
X76482312Y-123151495D01*
X76268505Y-122937688D01*
X76152237Y-122860000D01*
X76268505Y-122782312D01*
X76482312Y-122568505D01*
X76650299Y-122317095D01*
X76766011Y-122037743D01*
X76825000Y-121741184D01*
X76825000Y-121438816D01*
X76766011Y-121142257D01*
X76650299Y-120862905D01*
X76482312Y-120611495D01*
X76268505Y-120397688D01*
X76152237Y-120320000D01*
X76268505Y-120242312D01*
X76482312Y-120028505D01*
X76650299Y-119777095D01*
X76766011Y-119497743D01*
X76825000Y-119201184D01*
X76825000Y-118898816D01*
X76766011Y-118602257D01*
X76650299Y-118322905D01*
X76482312Y-118071495D01*
X76268505Y-117857688D01*
X76152237Y-117780000D01*
X76268505Y-117702312D01*
X76482312Y-117488505D01*
X76650299Y-117237095D01*
X76766011Y-116957743D01*
X76825000Y-116661184D01*
X76825000Y-116358816D01*
X76766011Y-116062257D01*
X76650299Y-115782905D01*
X76482312Y-115531495D01*
X76268505Y-115317688D01*
X76152237Y-115240000D01*
X76268505Y-115162312D01*
X76482312Y-114948505D01*
X76650299Y-114697095D01*
X76766011Y-114417743D01*
X76825000Y-114121184D01*
X76825000Y-113818816D01*
X76766011Y-113522257D01*
X76650299Y-113242905D01*
X76482312Y-112991495D01*
X76268505Y-112777688D01*
X76152237Y-112700000D01*
X76268505Y-112622312D01*
X76482312Y-112408505D01*
X76650299Y-112157095D01*
X76766011Y-111877743D01*
X76825000Y-111581184D01*
X76825000Y-111278816D01*
X76766011Y-110982257D01*
X76650299Y-110702905D01*
X76482312Y-110451495D01*
X76268505Y-110237688D01*
X76152237Y-110160000D01*
X76268505Y-110082312D01*
X76482312Y-109868505D01*
X76650299Y-109617095D01*
X76766011Y-109337743D01*
X76825000Y-109041184D01*
X76825000Y-108738816D01*
X76766011Y-108442257D01*
X76650299Y-108162905D01*
X76482312Y-107911495D01*
X76268505Y-107697688D01*
X76152237Y-107620000D01*
X76268505Y-107542312D01*
X76482312Y-107328505D01*
X76650299Y-107077095D01*
X76766011Y-106797743D01*
X76825000Y-106501184D01*
X76825000Y-106198816D01*
X78835000Y-106198816D01*
X78835000Y-106501184D01*
X78893989Y-106797743D01*
X79009701Y-107077095D01*
X79177688Y-107328505D01*
X79391495Y-107542312D01*
X79507763Y-107620000D01*
X79391495Y-107697688D01*
X79177688Y-107911495D01*
X79009701Y-108162905D01*
X78893989Y-108442257D01*
X78835000Y-108738816D01*
X78835000Y-109041184D01*
X78893989Y-109337743D01*
X79009701Y-109617095D01*
X79177688Y-109868505D01*
X79391495Y-110082312D01*
X79507763Y-110160000D01*
X79391495Y-110237688D01*
X79177688Y-110451495D01*
X79009701Y-110702905D01*
X78893989Y-110982257D01*
X78835000Y-111278816D01*
X78835000Y-111581184D01*
X78893989Y-111877743D01*
X79009701Y-112157095D01*
X79177688Y-112408505D01*
X79391495Y-112622312D01*
X79507763Y-112700000D01*
X79391495Y-112777688D01*
X79177688Y-112991495D01*
X79009701Y-113242905D01*
X78893989Y-113522257D01*
X78835000Y-113818816D01*
X78835000Y-114121184D01*
X78893989Y-114417743D01*
X79009701Y-114697095D01*
X79177688Y-114948505D01*
X79391495Y-115162312D01*
X79507763Y-115240000D01*
X79391495Y-115317688D01*
X79177688Y-115531495D01*
X79009701Y-115782905D01*
X78893989Y-116062257D01*
X78835000Y-116358816D01*
X78835000Y-116661184D01*
X78893989Y-116957743D01*
X79009701Y-117237095D01*
X79177688Y-117488505D01*
X79391495Y-117702312D01*
X79507763Y-117780000D01*
X79391495Y-117857688D01*
X79177688Y-118071495D01*
X79009701Y-118322905D01*
X78893989Y-118602257D01*
X78835000Y-118898816D01*
X78835000Y-119201184D01*
X78893989Y-119497743D01*
X79009701Y-119777095D01*
X79177688Y-120028505D01*
X79391495Y-120242312D01*
X79507763Y-120320000D01*
X79391495Y-120397688D01*
X79177688Y-120611495D01*
X79009701Y-120862905D01*
X78893989Y-121142257D01*
X78835000Y-121438816D01*
X78835000Y-121741184D01*
X78893989Y-122037743D01*
X79009701Y-122317095D01*
X79177688Y-122568505D01*
X79391495Y-122782312D01*
X79507763Y-122860000D01*
X79391495Y-122937688D01*
X79177688Y-123151495D01*
X79009701Y-123402905D01*
X78893989Y-123682257D01*
X78835000Y-123978816D01*
X78835000Y-124281184D01*
X78893989Y-124577743D01*
X79009701Y-124857095D01*
X79177688Y-125108505D01*
X79391495Y-125322312D01*
X79507763Y-125400000D01*
X79391495Y-125477688D01*
X79177688Y-125691495D01*
X79009701Y-125942905D01*
X78893989Y-126222257D01*
X78835000Y-126518816D01*
X78835000Y-126821184D01*
X78893989Y-127117743D01*
X79009701Y-127397095D01*
X79177688Y-127648505D01*
X79391495Y-127862312D01*
X79507763Y-127940000D01*
X79391495Y-128017688D01*
X79177688Y-128231495D01*
X79009701Y-128482905D01*
X78893989Y-128762257D01*
X78835000Y-129058816D01*
X78835000Y-129361184D01*
X78893989Y-129657743D01*
X79009701Y-129937095D01*
X79177688Y-130188505D01*
X79391495Y-130402312D01*
X79507763Y-130480000D01*
X79391495Y-130557688D01*
X79177688Y-130771495D01*
X79009701Y-131022905D01*
X78893989Y-131302257D01*
X78835000Y-131598816D01*
X78835000Y-131901184D01*
X78893989Y-132197743D01*
X79009701Y-132477095D01*
X79177688Y-132728505D01*
X79391495Y-132942312D01*
X79507763Y-133020000D01*
X79391495Y-133097688D01*
X79177688Y-133311495D01*
X79009701Y-133562905D01*
X78893989Y-133842257D01*
X78835000Y-134138816D01*
X78835000Y-134441184D01*
X78893989Y-134737743D01*
X79009701Y-135017095D01*
X79177688Y-135268505D01*
X79391495Y-135482312D01*
X79507763Y-135560000D01*
X79391495Y-135637688D01*
X79177688Y-135851495D01*
X79009701Y-136102905D01*
X78893989Y-136382257D01*
X78835000Y-136678816D01*
X78835000Y-136981184D01*
X78893989Y-137277743D01*
X79009701Y-137557095D01*
X79177688Y-137808505D01*
X79391495Y-138022312D01*
X79507763Y-138100000D01*
X79391495Y-138177688D01*
X79177688Y-138391495D01*
X79009701Y-138642905D01*
X78893989Y-138922257D01*
X78835000Y-139218816D01*
X78835000Y-139521184D01*
X78893989Y-139817743D01*
X79009701Y-140097095D01*
X79177688Y-140348505D01*
X79391495Y-140562312D01*
X79642905Y-140730299D01*
X79922257Y-140846011D01*
X80218816Y-140905000D01*
X80521184Y-140905000D01*
X80817743Y-140846011D01*
X81097095Y-140730299D01*
X81348505Y-140562312D01*
X81562312Y-140348505D01*
X81730299Y-140097095D01*
X81811938Y-139900000D01*
X91361928Y-139900000D01*
X91361928Y-141500000D01*
X91374188Y-141624482D01*
X91410498Y-141744180D01*
X91469463Y-141854494D01*
X91548815Y-141951185D01*
X91645506Y-142030537D01*
X91755820Y-142089502D01*
X91875518Y-142125812D01*
X92000000Y-142138072D01*
X93600000Y-142138072D01*
X93724482Y-142125812D01*
X93844180Y-142089502D01*
X93954494Y-142030537D01*
X94051185Y-141951185D01*
X94130537Y-141854494D01*
X94189502Y-141744180D01*
X94225812Y-141624482D01*
X94238072Y-141500000D01*
X94238072Y-140000000D01*
X106661928Y-140000000D01*
X106661928Y-141600000D01*
X106674188Y-141724482D01*
X106710498Y-141844180D01*
X106769463Y-141954494D01*
X106848815Y-142051185D01*
X106945506Y-142130537D01*
X107055820Y-142189502D01*
X107175518Y-142225812D01*
X107300000Y-142238072D01*
X108900000Y-142238072D01*
X109024482Y-142225812D01*
X109144180Y-142189502D01*
X109254494Y-142130537D01*
X109351185Y-142051185D01*
X109430537Y-141954494D01*
X109489502Y-141844180D01*
X109525812Y-141724482D01*
X109538072Y-141600000D01*
X109538072Y-140000000D01*
X109525812Y-139875518D01*
X109489502Y-139755820D01*
X109430537Y-139645506D01*
X109351185Y-139548815D01*
X109254494Y-139469463D01*
X109144180Y-139410498D01*
X109024482Y-139374188D01*
X108900000Y-139361928D01*
X108892785Y-139361928D01*
X108913097Y-139292702D01*
X108862104Y-139241709D01*
X191858315Y-139241709D01*
X191861992Y-139279041D01*
X191861991Y-142266668D01*
X191858315Y-142303991D01*
X191861991Y-142341313D01*
X191861991Y-142341323D01*
X191872988Y-142452976D01*
X191896854Y-142531653D01*
X191916445Y-142596237D01*
X191987017Y-142728267D01*
X191989926Y-142731811D01*
X192081990Y-142843992D01*
X192110993Y-142867794D01*
X192218747Y-142975549D01*
X192242832Y-143096629D01*
X192313314Y-143266789D01*
X192415638Y-143419928D01*
X192545872Y-143550162D01*
X192699011Y-143652486D01*
X192869171Y-143722968D01*
X193049811Y-143758900D01*
X193233989Y-143758900D01*
X193414629Y-143722968D01*
X193584789Y-143652486D01*
X193737928Y-143550162D01*
X193868162Y-143419928D01*
X193970486Y-143266789D01*
X194040968Y-143096629D01*
X194058435Y-143008816D01*
X214045000Y-143008816D01*
X214045000Y-143311184D01*
X214103989Y-143607743D01*
X214219701Y-143887095D01*
X214387688Y-144138505D01*
X214601495Y-144352312D01*
X214852905Y-144520299D01*
X215132257Y-144636011D01*
X215428816Y-144695000D01*
X215731184Y-144695000D01*
X216027743Y-144636011D01*
X216307095Y-144520299D01*
X216558505Y-144352312D01*
X216772312Y-144138505D01*
X216940299Y-143887095D01*
X217056011Y-143607743D01*
X217115000Y-143311184D01*
X217115000Y-143008816D01*
X217056011Y-142712257D01*
X216940299Y-142432905D01*
X216772312Y-142181495D01*
X216558505Y-141967688D01*
X216307095Y-141799701D01*
X216027743Y-141683989D01*
X215731184Y-141625000D01*
X215428816Y-141625000D01*
X215132257Y-141683989D01*
X214852905Y-141799701D01*
X214601495Y-141967688D01*
X214387688Y-142181495D01*
X214219701Y-142432905D01*
X214103989Y-142712257D01*
X214045000Y-143008816D01*
X194058435Y-143008816D01*
X194076900Y-142915989D01*
X194076900Y-142731811D01*
X194040968Y-142551171D01*
X193970486Y-142381011D01*
X193868162Y-142227872D01*
X193737928Y-142097638D01*
X193584789Y-141995314D01*
X193414629Y-141924832D01*
X193381991Y-141918340D01*
X193381991Y-139556510D01*
X198360498Y-134578003D01*
X218197573Y-134578003D01*
X218277947Y-134875368D01*
X218476388Y-135299439D01*
X218753748Y-135676648D01*
X219099369Y-135992498D01*
X219499968Y-136234852D01*
X219940150Y-136394396D01*
X220403000Y-136465000D01*
X222153000Y-136465000D01*
X222153000Y-134207000D01*
X222407000Y-134207000D01*
X222407000Y-136465000D01*
X224157000Y-136465000D01*
X224619850Y-136394396D01*
X225060032Y-136234852D01*
X225460631Y-135992498D01*
X225806252Y-135676648D01*
X226083612Y-135299439D01*
X226282053Y-134875368D01*
X226362427Y-134578003D01*
X226252625Y-134207000D01*
X222407000Y-134207000D01*
X222153000Y-134207000D01*
X218307375Y-134207000D01*
X218197573Y-134578003D01*
X198360498Y-134578003D01*
X199356504Y-133581997D01*
X218197573Y-133581997D01*
X218307375Y-133953000D01*
X222153000Y-133953000D01*
X222153000Y-131695000D01*
X222407000Y-131695000D01*
X222407000Y-133953000D01*
X226252625Y-133953000D01*
X226362427Y-133581997D01*
X226282053Y-133284632D01*
X226083612Y-132860561D01*
X225806252Y-132483352D01*
X225460631Y-132167502D01*
X225060032Y-131925148D01*
X224619850Y-131765604D01*
X224157000Y-131695000D01*
X222407000Y-131695000D01*
X222153000Y-131695000D01*
X220403000Y-131695000D01*
X219940150Y-131765604D01*
X219499968Y-131925148D01*
X219099369Y-132167502D01*
X218753748Y-132483352D01*
X218476388Y-132860561D01*
X218277947Y-133284632D01*
X218197573Y-133581997D01*
X199356504Y-133581997D01*
X201526604Y-131411898D01*
X201555601Y-131388101D01*
X201650574Y-131272376D01*
X201721146Y-131140347D01*
X201764603Y-130997086D01*
X201771175Y-130930358D01*
X201844186Y-130821089D01*
X201914668Y-130650929D01*
X201950600Y-130470289D01*
X201950600Y-130286111D01*
X201914668Y-130105471D01*
X201844186Y-129935311D01*
X201741862Y-129782172D01*
X201611628Y-129651938D01*
X201458489Y-129549614D01*
X201288329Y-129479132D01*
X201107689Y-129443200D01*
X200923511Y-129443200D01*
X200742871Y-129479132D01*
X200572711Y-129549614D01*
X200480200Y-129611428D01*
X200480200Y-129000000D01*
X215308057Y-129000000D01*
X215335764Y-129281309D01*
X215417818Y-129551808D01*
X215551068Y-129801101D01*
X215730392Y-130019608D01*
X215948899Y-130198932D01*
X216198192Y-130332182D01*
X216468691Y-130414236D01*
X216679508Y-130435000D01*
X217720492Y-130435000D01*
X217931309Y-130414236D01*
X218201808Y-130332182D01*
X218451101Y-130198932D01*
X218669608Y-130019608D01*
X218848932Y-129801101D01*
X218982182Y-129551808D01*
X219064236Y-129281309D01*
X219091943Y-129000000D01*
X219064236Y-128718691D01*
X218982182Y-128448192D01*
X218848932Y-128198899D01*
X218669608Y-127980392D01*
X218451101Y-127801068D01*
X218323259Y-127732735D01*
X218552839Y-127582601D01*
X218754500Y-127384895D01*
X218913715Y-127151646D01*
X219024367Y-126891818D01*
X219041904Y-126809039D01*
X218919915Y-126587000D01*
X217327000Y-126587000D01*
X217327000Y-126607000D01*
X217073000Y-126607000D01*
X217073000Y-126587000D01*
X215480085Y-126587000D01*
X215358096Y-126809039D01*
X215375633Y-126891818D01*
X215486285Y-127151646D01*
X215645500Y-127384895D01*
X215847161Y-127582601D01*
X216076741Y-127732735D01*
X215948899Y-127801068D01*
X215730392Y-127980392D01*
X215551068Y-128198899D01*
X215417818Y-128448192D01*
X215335764Y-128718691D01*
X215308057Y-129000000D01*
X200480200Y-129000000D01*
X200480200Y-126758135D01*
X200548786Y-126655489D01*
X200619268Y-126485329D01*
X200655200Y-126304689D01*
X200655200Y-126120511D01*
X200653301Y-126110961D01*
X215358096Y-126110961D01*
X215480085Y-126333000D01*
X217073000Y-126333000D01*
X217073000Y-125025000D01*
X217327000Y-125025000D01*
X217327000Y-126333000D01*
X218919915Y-126333000D01*
X219041904Y-126110961D01*
X219024367Y-126028182D01*
X218913715Y-125768354D01*
X218754500Y-125535105D01*
X218552839Y-125337399D01*
X218316483Y-125182834D01*
X218054514Y-125077350D01*
X217777000Y-125025000D01*
X217327000Y-125025000D01*
X217073000Y-125025000D01*
X216623000Y-125025000D01*
X216345486Y-125077350D01*
X216083517Y-125182834D01*
X215847161Y-125337399D01*
X215645500Y-125535105D01*
X215486285Y-125768354D01*
X215375633Y-126028182D01*
X215358096Y-126110961D01*
X200653301Y-126110961D01*
X200619268Y-125939871D01*
X200548786Y-125769711D01*
X200446462Y-125616572D01*
X200316228Y-125486338D01*
X200163089Y-125384014D01*
X199992929Y-125313532D01*
X199812289Y-125277600D01*
X199628111Y-125277600D01*
X199447471Y-125313532D01*
X199337200Y-125359207D01*
X199337200Y-125081523D01*
X199340876Y-125044200D01*
X199337200Y-125006877D01*
X199337200Y-125006867D01*
X199326203Y-124895214D01*
X199282746Y-124751953D01*
X199212174Y-124619924D01*
X199117201Y-124504199D01*
X199088197Y-124480396D01*
X198976901Y-124369100D01*
X201397165Y-124369100D01*
X201499811Y-124437686D01*
X201669971Y-124508168D01*
X201850611Y-124544100D01*
X202034789Y-124544100D01*
X202215429Y-124508168D01*
X202385589Y-124437686D01*
X202415046Y-124418003D01*
X218197573Y-124418003D01*
X218277947Y-124715368D01*
X218476388Y-125139439D01*
X218753748Y-125516648D01*
X219099369Y-125832498D01*
X219499968Y-126074852D01*
X219940150Y-126234396D01*
X220403000Y-126305000D01*
X222153000Y-126305000D01*
X222153000Y-124047000D01*
X222407000Y-124047000D01*
X222407000Y-126305000D01*
X224157000Y-126305000D01*
X224619850Y-126234396D01*
X225060032Y-126074852D01*
X225460631Y-125832498D01*
X225806252Y-125516648D01*
X226083612Y-125139439D01*
X226282053Y-124715368D01*
X226362427Y-124418003D01*
X226252625Y-124047000D01*
X222407000Y-124047000D01*
X222153000Y-124047000D01*
X218307375Y-124047000D01*
X218197573Y-124418003D01*
X202415046Y-124418003D01*
X202538728Y-124335362D01*
X202668962Y-124205128D01*
X202771286Y-124051989D01*
X202841768Y-123881829D01*
X202877700Y-123701189D01*
X202877700Y-123517011D01*
X202858801Y-123421997D01*
X218197573Y-123421997D01*
X218307375Y-123793000D01*
X222153000Y-123793000D01*
X222153000Y-121535000D01*
X222407000Y-121535000D01*
X222407000Y-123793000D01*
X226252625Y-123793000D01*
X226362427Y-123421997D01*
X226282053Y-123124632D01*
X226083612Y-122700561D01*
X225806252Y-122323352D01*
X225460631Y-122007502D01*
X225060032Y-121765148D01*
X224619850Y-121605604D01*
X224157000Y-121535000D01*
X222407000Y-121535000D01*
X222153000Y-121535000D01*
X220403000Y-121535000D01*
X219940150Y-121605604D01*
X219499968Y-121765148D01*
X219099369Y-122007502D01*
X218753748Y-122323352D01*
X218476388Y-122700561D01*
X218277947Y-123124632D01*
X218197573Y-123421997D01*
X202858801Y-123421997D01*
X202841768Y-123336371D01*
X202771286Y-123166211D01*
X202668962Y-123013072D01*
X202538728Y-122882838D01*
X202385589Y-122780514D01*
X202215429Y-122710032D01*
X202034789Y-122674100D01*
X201850611Y-122674100D01*
X201669971Y-122710032D01*
X201499811Y-122780514D01*
X201397165Y-122849100D01*
X198665622Y-122849100D01*
X198600989Y-122805914D01*
X198430829Y-122735432D01*
X198250189Y-122699500D01*
X198066011Y-122699500D01*
X197885371Y-122735432D01*
X197715211Y-122805914D01*
X197562072Y-122908238D01*
X197431838Y-123038472D01*
X197329514Y-123191611D01*
X197259032Y-123361771D01*
X197223100Y-123542411D01*
X197223100Y-123726589D01*
X197259032Y-123907229D01*
X197329514Y-124077389D01*
X197398100Y-124180036D01*
X197398100Y-124587777D01*
X197394424Y-124625100D01*
X197398100Y-124662422D01*
X197398100Y-124662432D01*
X197409097Y-124774085D01*
X197452554Y-124917346D01*
X197523126Y-125049376D01*
X197546084Y-125077350D01*
X197618099Y-125165101D01*
X197647103Y-125188904D01*
X197817201Y-125359002D01*
X197817200Y-129235764D01*
X197748614Y-129338411D01*
X197678132Y-129508571D01*
X197642200Y-129689211D01*
X197642200Y-129873389D01*
X197678132Y-130054029D01*
X197748614Y-130224189D01*
X197850938Y-130377328D01*
X197981172Y-130507562D01*
X198134311Y-130609886D01*
X198304471Y-130680368D01*
X198485111Y-130716300D01*
X198669289Y-130716300D01*
X198849929Y-130680368D01*
X198876168Y-130669499D01*
X198891614Y-130706789D01*
X198993938Y-130859928D01*
X199124172Y-130990162D01*
X199277311Y-131092486D01*
X199447471Y-131162968D01*
X199596322Y-131192577D01*
X192110989Y-138677910D01*
X192081991Y-138701708D01*
X192058193Y-138730706D01*
X192058192Y-138730707D01*
X191987017Y-138817433D01*
X191916445Y-138949463D01*
X191872989Y-139092724D01*
X191858315Y-139241709D01*
X108862104Y-139241709D01*
X108100000Y-138479605D01*
X107286903Y-139292702D01*
X107307215Y-139361928D01*
X107300000Y-139361928D01*
X107175518Y-139374188D01*
X107055820Y-139410498D01*
X106945506Y-139469463D01*
X106848815Y-139548815D01*
X106769463Y-139645506D01*
X106710498Y-139755820D01*
X106674188Y-139875518D01*
X106661928Y-140000000D01*
X94238072Y-140000000D01*
X94238072Y-139900000D01*
X94225812Y-139775518D01*
X94189502Y-139655820D01*
X94130537Y-139545506D01*
X94051185Y-139448815D01*
X93954494Y-139369463D01*
X93844180Y-139310498D01*
X93724482Y-139274188D01*
X93600000Y-139261928D01*
X93592785Y-139261928D01*
X93613097Y-139192702D01*
X92800000Y-138379605D01*
X91986903Y-139192702D01*
X92007215Y-139261928D01*
X92000000Y-139261928D01*
X91875518Y-139274188D01*
X91755820Y-139310498D01*
X91645506Y-139369463D01*
X91548815Y-139448815D01*
X91469463Y-139545506D01*
X91410498Y-139655820D01*
X91374188Y-139775518D01*
X91361928Y-139900000D01*
X81811938Y-139900000D01*
X81846011Y-139817743D01*
X81905000Y-139521184D01*
X81905000Y-139218816D01*
X81846011Y-138922257D01*
X81730299Y-138642905D01*
X81562312Y-138391495D01*
X81441329Y-138270512D01*
X91359783Y-138270512D01*
X91401213Y-138550130D01*
X91496397Y-138816292D01*
X91563329Y-138941514D01*
X91807298Y-139013097D01*
X92620395Y-138200000D01*
X92979605Y-138200000D01*
X93792702Y-139013097D01*
X94036671Y-138941514D01*
X94157571Y-138686004D01*
X94226300Y-138411816D01*
X94228336Y-138370512D01*
X106659783Y-138370512D01*
X106701213Y-138650130D01*
X106796397Y-138916292D01*
X106863329Y-139041514D01*
X107107298Y-139113097D01*
X107920395Y-138300000D01*
X108279605Y-138300000D01*
X109092702Y-139113097D01*
X109336671Y-139041514D01*
X109457571Y-138786004D01*
X109526300Y-138511816D01*
X109540217Y-138229488D01*
X109498787Y-137949870D01*
X109403603Y-137683708D01*
X109373138Y-137626711D01*
X190492100Y-137626711D01*
X190492100Y-137810889D01*
X190528032Y-137991529D01*
X190598514Y-138161689D01*
X190700838Y-138314828D01*
X190831072Y-138445062D01*
X190984211Y-138547386D01*
X191154371Y-138617868D01*
X191335011Y-138653800D01*
X191519189Y-138653800D01*
X191699829Y-138617868D01*
X191869989Y-138547386D01*
X192023128Y-138445062D01*
X192153362Y-138314828D01*
X192255686Y-138161689D01*
X192326168Y-137991529D01*
X192349466Y-137874403D01*
X192360801Y-137865101D01*
X192455774Y-137749376D01*
X192526346Y-137617347D01*
X192569803Y-137474086D01*
X192580800Y-137362433D01*
X192580800Y-137362423D01*
X192584476Y-137325100D01*
X192580800Y-137287777D01*
X192580800Y-129856935D01*
X192649386Y-129754289D01*
X192719868Y-129584129D01*
X192755800Y-129403489D01*
X192755800Y-129219311D01*
X192719868Y-129038671D01*
X192649386Y-128868511D01*
X192547062Y-128715372D01*
X192416828Y-128585138D01*
X192263689Y-128482814D01*
X192093529Y-128412332D01*
X191912889Y-128376400D01*
X191728711Y-128376400D01*
X191548071Y-128412332D01*
X191377911Y-128482814D01*
X191224772Y-128585138D01*
X191094538Y-128715372D01*
X190992214Y-128868511D01*
X190921732Y-129038671D01*
X190885800Y-129219311D01*
X190885800Y-129403489D01*
X190921732Y-129584129D01*
X190992214Y-129754289D01*
X191060800Y-129856936D01*
X191060801Y-136858490D01*
X190984211Y-136890214D01*
X190831072Y-136992538D01*
X190700838Y-137122772D01*
X190598514Y-137275911D01*
X190528032Y-137446071D01*
X190492100Y-137626711D01*
X109373138Y-137626711D01*
X109336671Y-137558486D01*
X109092702Y-137486903D01*
X108279605Y-138300000D01*
X107920395Y-138300000D01*
X107107298Y-137486903D01*
X106863329Y-137558486D01*
X106742429Y-137813996D01*
X106673700Y-138088184D01*
X106659783Y-138370512D01*
X94228336Y-138370512D01*
X94240217Y-138129488D01*
X94198787Y-137849870D01*
X94103603Y-137583708D01*
X94036671Y-137458486D01*
X93792702Y-137386903D01*
X92979605Y-138200000D01*
X92620395Y-138200000D01*
X91807298Y-137386903D01*
X91563329Y-137458486D01*
X91442429Y-137713996D01*
X91373700Y-137988184D01*
X91359783Y-138270512D01*
X81441329Y-138270512D01*
X81348505Y-138177688D01*
X81232237Y-138100000D01*
X81348505Y-138022312D01*
X81562312Y-137808505D01*
X81730299Y-137557095D01*
X81846011Y-137277743D01*
X81860023Y-137207298D01*
X91986903Y-137207298D01*
X92800000Y-138020395D01*
X93513097Y-137307298D01*
X107286903Y-137307298D01*
X108100000Y-138120395D01*
X108913097Y-137307298D01*
X108841514Y-137063329D01*
X108586004Y-136942429D01*
X108311816Y-136873700D01*
X108029488Y-136859783D01*
X107749870Y-136901213D01*
X107483708Y-136996397D01*
X107358486Y-137063329D01*
X107286903Y-137307298D01*
X93513097Y-137307298D01*
X93613097Y-137207298D01*
X93541514Y-136963329D01*
X93286004Y-136842429D01*
X93011816Y-136773700D01*
X92729488Y-136759783D01*
X92449870Y-136801213D01*
X92183708Y-136896397D01*
X92058486Y-136963329D01*
X91986903Y-137207298D01*
X81860023Y-137207298D01*
X81905000Y-136981184D01*
X81905000Y-136678816D01*
X81846011Y-136382257D01*
X81730299Y-136102905D01*
X81562312Y-135851495D01*
X81348505Y-135637688D01*
X81232237Y-135560000D01*
X81348505Y-135482312D01*
X81562312Y-135268505D01*
X81730299Y-135017095D01*
X81846011Y-134737743D01*
X81905000Y-134441184D01*
X81905000Y-134138816D01*
X81846011Y-133842257D01*
X81730299Y-133562905D01*
X81562312Y-133311495D01*
X81348505Y-133097688D01*
X81232237Y-133020000D01*
X81348505Y-132942312D01*
X81562312Y-132728505D01*
X81730299Y-132477095D01*
X81846011Y-132197743D01*
X81905000Y-131901184D01*
X81905000Y-131598816D01*
X81846011Y-131302257D01*
X81730299Y-131022905D01*
X81562312Y-130771495D01*
X81348505Y-130557688D01*
X81232237Y-130480000D01*
X81348505Y-130402312D01*
X81562312Y-130188505D01*
X81641353Y-130070211D01*
X162221900Y-130070211D01*
X162221900Y-130254389D01*
X162257832Y-130435029D01*
X162328314Y-130605189D01*
X162430638Y-130758328D01*
X162560872Y-130888562D01*
X162714011Y-130990886D01*
X162884171Y-131061368D01*
X163064811Y-131097300D01*
X163248989Y-131097300D01*
X163429629Y-131061368D01*
X163599789Y-130990886D01*
X163752928Y-130888562D01*
X163800381Y-130841109D01*
X183380038Y-130841109D01*
X183383909Y-130878782D01*
X183476079Y-131104033D01*
X183610422Y-131306974D01*
X183781775Y-131479807D01*
X183983554Y-131615890D01*
X184208004Y-131709993D01*
X184446500Y-131758500D01*
X184721500Y-131758500D01*
X184721500Y-130650500D01*
X184975500Y-130650500D01*
X184975500Y-131758500D01*
X185250500Y-131758500D01*
X185488996Y-131709993D01*
X185713446Y-131615890D01*
X185915225Y-131479807D01*
X186086578Y-131306974D01*
X186220921Y-131104033D01*
X186313091Y-130878782D01*
X186316962Y-130841109D01*
X186192231Y-130650500D01*
X184975500Y-130650500D01*
X184721500Y-130650500D01*
X183504769Y-130650500D01*
X183380038Y-130841109D01*
X163800381Y-130841109D01*
X163883162Y-130758328D01*
X163985486Y-130605189D01*
X164017515Y-130527863D01*
X165136879Y-129408500D01*
X183705134Y-129408500D01*
X183845848Y-129523981D01*
X183781775Y-129567193D01*
X183610422Y-129740026D01*
X183476079Y-129942967D01*
X183383909Y-130168218D01*
X183380038Y-130205891D01*
X183504769Y-130396500D01*
X184721500Y-130396500D01*
X184721500Y-130376500D01*
X184975500Y-130376500D01*
X184975500Y-130396500D01*
X186192231Y-130396500D01*
X186316962Y-130205891D01*
X186313091Y-130168218D01*
X186220921Y-129942967D01*
X186086578Y-129740026D01*
X185915225Y-129567193D01*
X185851152Y-129523981D01*
X186001002Y-129401002D01*
X186155333Y-129212949D01*
X186270011Y-128998401D01*
X186340630Y-128765602D01*
X186364475Y-128523500D01*
X186340630Y-128281398D01*
X186270011Y-128048599D01*
X186155333Y-127834051D01*
X186001002Y-127645998D01*
X185851738Y-127523500D01*
X186001002Y-127401002D01*
X186112862Y-127264700D01*
X193487199Y-127264700D01*
X193818647Y-127596149D01*
X193842732Y-127717229D01*
X193913214Y-127887389D01*
X194015538Y-128040528D01*
X194145772Y-128170762D01*
X194298911Y-128273086D01*
X194469071Y-128343568D01*
X194649711Y-128379500D01*
X194833889Y-128379500D01*
X195014529Y-128343568D01*
X195184689Y-128273086D01*
X195337828Y-128170762D01*
X195468062Y-128040528D01*
X195570386Y-127887389D01*
X195640868Y-127717229D01*
X195676800Y-127536589D01*
X195676800Y-127352411D01*
X195640868Y-127171771D01*
X195570386Y-127001611D01*
X195468062Y-126848472D01*
X195337828Y-126718238D01*
X195184689Y-126615914D01*
X195014529Y-126545432D01*
X194893449Y-126521347D01*
X194365804Y-125993702D01*
X194342001Y-125964699D01*
X194226276Y-125869726D01*
X194094247Y-125799154D01*
X193950986Y-125755697D01*
X193839333Y-125744700D01*
X193839322Y-125744700D01*
X193802000Y-125741024D01*
X193764678Y-125744700D01*
X186082005Y-125744700D01*
X186001002Y-125645998D01*
X185962389Y-125614309D01*
X185966887Y-125611905D01*
X186101462Y-125501462D01*
X186211905Y-125366887D01*
X186293972Y-125213351D01*
X186344508Y-125046755D01*
X186361572Y-124873501D01*
X186361572Y-124173499D01*
X186344508Y-124000245D01*
X186293972Y-123833649D01*
X186211905Y-123680113D01*
X186101462Y-123545538D01*
X185966887Y-123435095D01*
X185813351Y-123353028D01*
X185646755Y-123302492D01*
X185473501Y-123285428D01*
X184223499Y-123285428D01*
X184050245Y-123302492D01*
X183883649Y-123353028D01*
X183730113Y-123435095D01*
X183595538Y-123545538D01*
X183485095Y-123680113D01*
X183403028Y-123833649D01*
X183352492Y-124000245D01*
X183335428Y-124173499D01*
X183335428Y-124873501D01*
X183352492Y-125046755D01*
X183403028Y-125213351D01*
X183485095Y-125366887D01*
X183595538Y-125501462D01*
X183730113Y-125611905D01*
X183734611Y-125614309D01*
X183695998Y-125645998D01*
X183541667Y-125834051D01*
X183426989Y-126048599D01*
X183356370Y-126281398D01*
X183332525Y-126523500D01*
X183356370Y-126765602D01*
X183426989Y-126998401D01*
X183541667Y-127212949D01*
X183695998Y-127401002D01*
X183845262Y-127523500D01*
X183705134Y-127638500D01*
X164813765Y-127638500D01*
X164770299Y-127634219D01*
X164726833Y-127638500D01*
X164726823Y-127638500D01*
X164596810Y-127651305D01*
X164429987Y-127701911D01*
X164276241Y-127784089D01*
X164276239Y-127784090D01*
X164276240Y-127784090D01*
X164175253Y-127866968D01*
X164175251Y-127866970D01*
X164141483Y-127894683D01*
X164113770Y-127928451D01*
X162697426Y-129344795D01*
X162560872Y-129436038D01*
X162430638Y-129566272D01*
X162328314Y-129719411D01*
X162257832Y-129889571D01*
X162221900Y-130070211D01*
X81641353Y-130070211D01*
X81730299Y-129937095D01*
X81846011Y-129657743D01*
X81905000Y-129361184D01*
X81905000Y-129058816D01*
X81846011Y-128762257D01*
X81730299Y-128482905D01*
X81562312Y-128231495D01*
X81348505Y-128017688D01*
X81232237Y-127940000D01*
X81348505Y-127862312D01*
X81562312Y-127648505D01*
X81730299Y-127397095D01*
X81846011Y-127117743D01*
X81905000Y-126821184D01*
X81905000Y-126518816D01*
X81846011Y-126222257D01*
X81730299Y-125942905D01*
X81562312Y-125691495D01*
X81348505Y-125477688D01*
X81232237Y-125400000D01*
X81348505Y-125322312D01*
X81562312Y-125108505D01*
X81730299Y-124857095D01*
X81846011Y-124577743D01*
X81905000Y-124281184D01*
X81905000Y-123978816D01*
X81846011Y-123682257D01*
X81730299Y-123402905D01*
X81562312Y-123151495D01*
X81348505Y-122937688D01*
X81232237Y-122860000D01*
X81348505Y-122782312D01*
X81562312Y-122568505D01*
X81730299Y-122317095D01*
X81846011Y-122037743D01*
X81905000Y-121741184D01*
X81905000Y-121573911D01*
X205821000Y-121573911D01*
X205821000Y-121758089D01*
X205856932Y-121938729D01*
X205927414Y-122108889D01*
X206029738Y-122262028D01*
X206159972Y-122392262D01*
X206313111Y-122494586D01*
X206483271Y-122565068D01*
X206663911Y-122601000D01*
X206848089Y-122601000D01*
X207028729Y-122565068D01*
X207062692Y-122551000D01*
X210716508Y-122551000D01*
X210750471Y-122565068D01*
X210931111Y-122601000D01*
X211115289Y-122601000D01*
X211295929Y-122565068D01*
X211466089Y-122494586D01*
X211619228Y-122392262D01*
X211749462Y-122262028D01*
X211851786Y-122108889D01*
X211922268Y-121938729D01*
X211958200Y-121758089D01*
X211958200Y-121573911D01*
X211922268Y-121393271D01*
X211851786Y-121223111D01*
X211749462Y-121069972D01*
X211619228Y-120939738D01*
X211466089Y-120837414D01*
X211295929Y-120766932D01*
X211115289Y-120731000D01*
X210931111Y-120731000D01*
X210750471Y-120766932D01*
X210716508Y-120781000D01*
X207062692Y-120781000D01*
X207028729Y-120766932D01*
X206848089Y-120731000D01*
X206663911Y-120731000D01*
X206483271Y-120766932D01*
X206313111Y-120837414D01*
X206159972Y-120939738D01*
X206029738Y-121069972D01*
X205927414Y-121223111D01*
X205856932Y-121393271D01*
X205821000Y-121573911D01*
X81905000Y-121573911D01*
X81905000Y-121438816D01*
X81846011Y-121142257D01*
X81730299Y-120862905D01*
X81562312Y-120611495D01*
X81348505Y-120397688D01*
X81232237Y-120320000D01*
X81348505Y-120242312D01*
X81562312Y-120028505D01*
X81730299Y-119777095D01*
X81846011Y-119497743D01*
X81905000Y-119201184D01*
X81905000Y-118898816D01*
X81846011Y-118602257D01*
X81730299Y-118322905D01*
X81562312Y-118071495D01*
X81348505Y-117857688D01*
X81232237Y-117780000D01*
X81348505Y-117702312D01*
X81562312Y-117488505D01*
X81730299Y-117237095D01*
X81846011Y-116957743D01*
X81905000Y-116661184D01*
X81905000Y-116358816D01*
X81846011Y-116062257D01*
X81730299Y-115782905D01*
X81562312Y-115531495D01*
X81348505Y-115317688D01*
X81232237Y-115240000D01*
X81348505Y-115162312D01*
X81562312Y-114948505D01*
X81730299Y-114697095D01*
X81846011Y-114417743D01*
X81905000Y-114121184D01*
X81905000Y-113818816D01*
X81846011Y-113522257D01*
X81730299Y-113242905D01*
X81562312Y-112991495D01*
X81369028Y-112798211D01*
X162221900Y-112798211D01*
X162221900Y-112982389D01*
X162257832Y-113163029D01*
X162328314Y-113333189D01*
X162430638Y-113486328D01*
X162560872Y-113616562D01*
X162714011Y-113718886D01*
X162884171Y-113789368D01*
X163064811Y-113825300D01*
X163248989Y-113825300D01*
X163429629Y-113789368D01*
X163463592Y-113775300D01*
X173713968Y-113775300D01*
X173717271Y-113776668D01*
X173897911Y-113812600D01*
X174082089Y-113812600D01*
X174262729Y-113776668D01*
X174432889Y-113706186D01*
X174586028Y-113603862D01*
X174716262Y-113473628D01*
X174818586Y-113320489D01*
X174889068Y-113150329D01*
X174925000Y-112969689D01*
X174925000Y-112785511D01*
X174889068Y-112604871D01*
X174818586Y-112434711D01*
X174716262Y-112281572D01*
X174670940Y-112236250D01*
X174754362Y-112152828D01*
X174856686Y-111999689D01*
X174927168Y-111829529D01*
X174963100Y-111648889D01*
X174963100Y-111464711D01*
X174927168Y-111284071D01*
X174856686Y-111113911D01*
X174754362Y-110960772D01*
X174624128Y-110830538D01*
X174470989Y-110728214D01*
X174300829Y-110657732D01*
X174120189Y-110621800D01*
X173936011Y-110621800D01*
X173755371Y-110657732D01*
X173721408Y-110671800D01*
X163539792Y-110671800D01*
X163505829Y-110657732D01*
X163325189Y-110621800D01*
X163141011Y-110621800D01*
X162960371Y-110657732D01*
X162790211Y-110728214D01*
X162637072Y-110830538D01*
X162506838Y-110960772D01*
X162404514Y-111113911D01*
X162334032Y-111284071D01*
X162298100Y-111464711D01*
X162298100Y-111648889D01*
X162334032Y-111829529D01*
X162404514Y-111999689D01*
X162506838Y-112152828D01*
X162539460Y-112185450D01*
X162430638Y-112294272D01*
X162328314Y-112447411D01*
X162257832Y-112617571D01*
X162221900Y-112798211D01*
X81369028Y-112798211D01*
X81348505Y-112777688D01*
X81232237Y-112700000D01*
X81348505Y-112622312D01*
X81562312Y-112408505D01*
X81730299Y-112157095D01*
X81846011Y-111877743D01*
X81905000Y-111581184D01*
X81905000Y-111278816D01*
X81846011Y-110982257D01*
X81730299Y-110702905D01*
X81562312Y-110451495D01*
X81348505Y-110237688D01*
X81232237Y-110160000D01*
X81348505Y-110082312D01*
X81562312Y-109868505D01*
X81730299Y-109617095D01*
X81846011Y-109337743D01*
X81905000Y-109041184D01*
X81905000Y-108738816D01*
X81846011Y-108442257D01*
X81730299Y-108162905D01*
X81562312Y-107911495D01*
X81348505Y-107697688D01*
X81232237Y-107620000D01*
X81348505Y-107542312D01*
X81562312Y-107328505D01*
X81730299Y-107077095D01*
X81846011Y-106797743D01*
X81905000Y-106501184D01*
X81905000Y-106198816D01*
X81846011Y-105902257D01*
X81730299Y-105622905D01*
X81562312Y-105371495D01*
X81348505Y-105157688D01*
X81194895Y-105055049D01*
X81254475Y-104874080D01*
X80370000Y-103989605D01*
X79485525Y-104874080D01*
X79545105Y-105055049D01*
X79391495Y-105157688D01*
X79177688Y-105371495D01*
X79009701Y-105622905D01*
X78893989Y-105902257D01*
X78835000Y-106198816D01*
X76825000Y-106198816D01*
X76766011Y-105902257D01*
X76650299Y-105622905D01*
X76482312Y-105371495D01*
X76268505Y-105157688D01*
X76114895Y-105055049D01*
X76174475Y-104874080D01*
X75290000Y-103989605D01*
X74405525Y-104874080D01*
X74465105Y-105055049D01*
X74311495Y-105157688D01*
X74097688Y-105371495D01*
X73929701Y-105622905D01*
X73813989Y-105902257D01*
X73755000Y-106198816D01*
X70710000Y-106198816D01*
X70710000Y-103876553D01*
X73749009Y-103876553D01*
X73791603Y-104175907D01*
X73891778Y-104461199D01*
X73971739Y-104610792D01*
X74225920Y-104694475D01*
X75110395Y-103810000D01*
X75469605Y-103810000D01*
X76354080Y-104694475D01*
X76608261Y-104610792D01*
X76739158Y-104338225D01*
X76814365Y-104045358D01*
X76823660Y-103876553D01*
X78829009Y-103876553D01*
X78871603Y-104175907D01*
X78971778Y-104461199D01*
X79051739Y-104610792D01*
X79305920Y-104694475D01*
X80190395Y-103810000D01*
X80549605Y-103810000D01*
X81434080Y-104694475D01*
X81688261Y-104610792D01*
X81819158Y-104338225D01*
X81894365Y-104045358D01*
X81910991Y-103743447D01*
X81868397Y-103444093D01*
X81768222Y-103158801D01*
X81688261Y-103009208D01*
X81434080Y-102925525D01*
X80549605Y-103810000D01*
X80190395Y-103810000D01*
X79305920Y-102925525D01*
X79051739Y-103009208D01*
X78920842Y-103281775D01*
X78845635Y-103574642D01*
X78829009Y-103876553D01*
X76823660Y-103876553D01*
X76830991Y-103743447D01*
X76788397Y-103444093D01*
X76688222Y-103158801D01*
X76608261Y-103009208D01*
X76354080Y-102925525D01*
X75469605Y-103810000D01*
X75110395Y-103810000D01*
X74225920Y-102925525D01*
X73971739Y-103009208D01*
X73840842Y-103281775D01*
X73765635Y-103574642D01*
X73749009Y-103876553D01*
X70710000Y-103876553D01*
X70710000Y-102334080D01*
X74405525Y-102334080D01*
X74473319Y-102540000D01*
X74405525Y-102745920D01*
X75290000Y-103630395D01*
X76174475Y-102745920D01*
X76106681Y-102540000D01*
X76174475Y-102334080D01*
X79485525Y-102334080D01*
X79553319Y-102540000D01*
X79485525Y-102745920D01*
X80370000Y-103630395D01*
X81254475Y-102745920D01*
X81186681Y-102540000D01*
X81254475Y-102334080D01*
X81220395Y-102300000D01*
X88759509Y-102300000D01*
X88781423Y-102522498D01*
X88846324Y-102736446D01*
X88951717Y-102933622D01*
X89093552Y-103106448D01*
X89266378Y-103248283D01*
X89463554Y-103353676D01*
X89677502Y-103418577D01*
X89900000Y-103440491D01*
X90122498Y-103418577D01*
X90209915Y-103392059D01*
X90050987Y-103550987D01*
X89972017Y-103647213D01*
X89913336Y-103756996D01*
X89877201Y-103876118D01*
X89865000Y-104000000D01*
X89865000Y-111000000D01*
X89877201Y-111123882D01*
X89913336Y-111243004D01*
X89972017Y-111352787D01*
X90050987Y-111449013D01*
X90550987Y-111949013D01*
X90647213Y-112027983D01*
X90756996Y-112086664D01*
X90876118Y-112122799D01*
X91000000Y-112135000D01*
X107600000Y-112135000D01*
X107723882Y-112122799D01*
X107843004Y-112086664D01*
X107952787Y-112027983D01*
X108049013Y-111949013D01*
X108549013Y-111449013D01*
X108627983Y-111352787D01*
X108686664Y-111243004D01*
X108722799Y-111123882D01*
X108735000Y-111000000D01*
X108735000Y-110578003D01*
X218297573Y-110578003D01*
X218377947Y-110875368D01*
X218576388Y-111299439D01*
X218853748Y-111676648D01*
X219199369Y-111992498D01*
X219599968Y-112234852D01*
X220040150Y-112394396D01*
X220503000Y-112465000D01*
X222253000Y-112465000D01*
X222253000Y-110207000D01*
X222507000Y-110207000D01*
X222507000Y-112465000D01*
X224257000Y-112465000D01*
X224719850Y-112394396D01*
X225160032Y-112234852D01*
X225560631Y-111992498D01*
X225906252Y-111676648D01*
X226183612Y-111299439D01*
X226382053Y-110875368D01*
X226462427Y-110578003D01*
X226352625Y-110207000D01*
X222507000Y-110207000D01*
X222253000Y-110207000D01*
X218407375Y-110207000D01*
X218297573Y-110578003D01*
X108735000Y-110578003D01*
X108735000Y-109581997D01*
X218297573Y-109581997D01*
X218407375Y-109953000D01*
X222253000Y-109953000D01*
X222253000Y-107695000D01*
X222507000Y-107695000D01*
X222507000Y-109953000D01*
X226352625Y-109953000D01*
X226462427Y-109581997D01*
X226382053Y-109284632D01*
X226183612Y-108860561D01*
X225906252Y-108483352D01*
X225560631Y-108167502D01*
X225160032Y-107925148D01*
X224719850Y-107765604D01*
X224257000Y-107695000D01*
X222507000Y-107695000D01*
X222253000Y-107695000D01*
X220503000Y-107695000D01*
X220040150Y-107765604D01*
X219599968Y-107925148D01*
X219199369Y-108167502D01*
X218853748Y-108483352D01*
X218576388Y-108860561D01*
X218377947Y-109284632D01*
X218297573Y-109581997D01*
X108735000Y-109581997D01*
X108735000Y-105000000D01*
X215408057Y-105000000D01*
X215435764Y-105281309D01*
X215517818Y-105551808D01*
X215651068Y-105801101D01*
X215830392Y-106019608D01*
X216048899Y-106198932D01*
X216298192Y-106332182D01*
X216568691Y-106414236D01*
X216779508Y-106435000D01*
X217820492Y-106435000D01*
X218031309Y-106414236D01*
X218301808Y-106332182D01*
X218551101Y-106198932D01*
X218769608Y-106019608D01*
X218948932Y-105801101D01*
X219082182Y-105551808D01*
X219164236Y-105281309D01*
X219191943Y-105000000D01*
X219164236Y-104718691D01*
X219082182Y-104448192D01*
X218948932Y-104198899D01*
X218769608Y-103980392D01*
X218551101Y-103801068D01*
X218423259Y-103732735D01*
X218652839Y-103582601D01*
X218854500Y-103384895D01*
X219013715Y-103151646D01*
X219124367Y-102891818D01*
X219141904Y-102809039D01*
X219019915Y-102587000D01*
X217427000Y-102587000D01*
X217427000Y-102607000D01*
X217173000Y-102607000D01*
X217173000Y-102587000D01*
X215580085Y-102587000D01*
X215458096Y-102809039D01*
X215475633Y-102891818D01*
X215586285Y-103151646D01*
X215745500Y-103384895D01*
X215947161Y-103582601D01*
X216176741Y-103732735D01*
X216048899Y-103801068D01*
X215830392Y-103980392D01*
X215651068Y-104198899D01*
X215517818Y-104448192D01*
X215435764Y-104718691D01*
X215408057Y-105000000D01*
X108735000Y-105000000D01*
X108735000Y-104000000D01*
X108722799Y-103876118D01*
X108686664Y-103756996D01*
X108627983Y-103647213D01*
X108549013Y-103550987D01*
X108049013Y-103050987D01*
X107952787Y-102972017D01*
X107843004Y-102913336D01*
X107723882Y-102877201D01*
X107600000Y-102865000D01*
X91000000Y-102865000D01*
X90933590Y-102871541D01*
X91694170Y-102110961D01*
X215458096Y-102110961D01*
X215580085Y-102333000D01*
X217173000Y-102333000D01*
X217173000Y-101025000D01*
X217427000Y-101025000D01*
X217427000Y-102333000D01*
X219019915Y-102333000D01*
X219141904Y-102110961D01*
X219124367Y-102028182D01*
X219013715Y-101768354D01*
X218854500Y-101535105D01*
X218652839Y-101337399D01*
X218416483Y-101182834D01*
X218154514Y-101077350D01*
X217877000Y-101025000D01*
X217427000Y-101025000D01*
X217173000Y-101025000D01*
X216723000Y-101025000D01*
X216445486Y-101077350D01*
X216183517Y-101182834D01*
X215947161Y-101337399D01*
X215745500Y-101535105D01*
X215586285Y-101768354D01*
X215475633Y-102028182D01*
X215458096Y-102110961D01*
X91694170Y-102110961D01*
X93387128Y-100418003D01*
X218297573Y-100418003D01*
X218377947Y-100715368D01*
X218576388Y-101139439D01*
X218853748Y-101516648D01*
X219199369Y-101832498D01*
X219599968Y-102074852D01*
X220040150Y-102234396D01*
X220503000Y-102305000D01*
X222253000Y-102305000D01*
X222253000Y-100047000D01*
X222507000Y-100047000D01*
X222507000Y-102305000D01*
X224257000Y-102305000D01*
X224719850Y-102234396D01*
X225160032Y-102074852D01*
X225560631Y-101832498D01*
X225906252Y-101516648D01*
X226183612Y-101139439D01*
X226382053Y-100715368D01*
X226462427Y-100418003D01*
X226352625Y-100047000D01*
X222507000Y-100047000D01*
X222253000Y-100047000D01*
X218407375Y-100047000D01*
X218297573Y-100418003D01*
X93387128Y-100418003D01*
X93870132Y-99935000D01*
X94655752Y-99935000D01*
X94822499Y-99918577D01*
X95036447Y-99853676D01*
X95233623Y-99748284D01*
X95406449Y-99606449D01*
X95548284Y-99433623D01*
X95554498Y-99421997D01*
X218297573Y-99421997D01*
X218407375Y-99793000D01*
X222253000Y-99793000D01*
X222253000Y-97535000D01*
X222507000Y-97535000D01*
X222507000Y-99793000D01*
X226352625Y-99793000D01*
X226462427Y-99421997D01*
X226382053Y-99124632D01*
X226183612Y-98700561D01*
X225906252Y-98323352D01*
X225560631Y-98007502D01*
X225160032Y-97765148D01*
X224719850Y-97605604D01*
X224257000Y-97535000D01*
X222507000Y-97535000D01*
X222253000Y-97535000D01*
X220503000Y-97535000D01*
X220040150Y-97605604D01*
X219599968Y-97765148D01*
X219199369Y-98007502D01*
X218853748Y-98323352D01*
X218576388Y-98700561D01*
X218377947Y-99124632D01*
X218297573Y-99421997D01*
X95554498Y-99421997D01*
X95653676Y-99236447D01*
X95718577Y-99022499D01*
X95740491Y-98800000D01*
X95718577Y-98577501D01*
X95653676Y-98363553D01*
X95548284Y-98166377D01*
X95406449Y-97993551D01*
X95233623Y-97851716D01*
X95036447Y-97746324D01*
X94822499Y-97681423D01*
X94655752Y-97665000D01*
X93455741Y-97665000D01*
X93399999Y-97659510D01*
X93344257Y-97665000D01*
X93344248Y-97665000D01*
X93177501Y-97681423D01*
X92963553Y-97746324D01*
X92766377Y-97851716D01*
X92593551Y-97993551D01*
X92558009Y-98036859D01*
X89058012Y-101536857D01*
X88951717Y-101666378D01*
X88846324Y-101863554D01*
X88781423Y-102077502D01*
X88759509Y-102300000D01*
X81220395Y-102300000D01*
X80370000Y-101449605D01*
X79485525Y-102334080D01*
X76174475Y-102334080D01*
X75290000Y-101449605D01*
X74405525Y-102334080D01*
X70710000Y-102334080D01*
X70710000Y-101336553D01*
X73749009Y-101336553D01*
X73791603Y-101635907D01*
X73891778Y-101921199D01*
X73971739Y-102070792D01*
X74225920Y-102154475D01*
X75110395Y-101270000D01*
X75469605Y-101270000D01*
X76354080Y-102154475D01*
X76608261Y-102070792D01*
X76739158Y-101798225D01*
X76814365Y-101505358D01*
X76823660Y-101336553D01*
X78829009Y-101336553D01*
X78871603Y-101635907D01*
X78971778Y-101921199D01*
X79051739Y-102070792D01*
X79305920Y-102154475D01*
X80190395Y-101270000D01*
X80549605Y-101270000D01*
X81434080Y-102154475D01*
X81688261Y-102070792D01*
X81819158Y-101798225D01*
X81894365Y-101505358D01*
X81910991Y-101203447D01*
X81868397Y-100904093D01*
X81768222Y-100618801D01*
X81688261Y-100469208D01*
X81434080Y-100385525D01*
X80549605Y-101270000D01*
X80190395Y-101270000D01*
X79305920Y-100385525D01*
X79051739Y-100469208D01*
X78920842Y-100741775D01*
X78845635Y-101034642D01*
X78829009Y-101336553D01*
X76823660Y-101336553D01*
X76830991Y-101203447D01*
X76788397Y-100904093D01*
X76688222Y-100618801D01*
X76608261Y-100469208D01*
X76354080Y-100385525D01*
X75469605Y-101270000D01*
X75110395Y-101270000D01*
X74225920Y-100385525D01*
X73971739Y-100469208D01*
X73840842Y-100741775D01*
X73765635Y-101034642D01*
X73749009Y-101336553D01*
X70710000Y-101336553D01*
X70710000Y-99794080D01*
X74405525Y-99794080D01*
X74473319Y-100000000D01*
X74405525Y-100205920D01*
X75290000Y-101090395D01*
X76174475Y-100205920D01*
X76106681Y-100000000D01*
X76174475Y-99794080D01*
X79485525Y-99794080D01*
X79553319Y-100000000D01*
X79485525Y-100205920D01*
X80370000Y-101090395D01*
X81254475Y-100205920D01*
X81186681Y-100000000D01*
X81254475Y-99794080D01*
X80370000Y-98909605D01*
X79485525Y-99794080D01*
X76174475Y-99794080D01*
X75290000Y-98909605D01*
X74405525Y-99794080D01*
X70710000Y-99794080D01*
X70710000Y-98796553D01*
X73749009Y-98796553D01*
X73791603Y-99095907D01*
X73891778Y-99381199D01*
X73971739Y-99530792D01*
X74225920Y-99614475D01*
X75110395Y-98730000D01*
X75469605Y-98730000D01*
X76354080Y-99614475D01*
X76608261Y-99530792D01*
X76739158Y-99258225D01*
X76814365Y-98965358D01*
X76823660Y-98796553D01*
X78829009Y-98796553D01*
X78871603Y-99095907D01*
X78971778Y-99381199D01*
X79051739Y-99530792D01*
X79305920Y-99614475D01*
X80190395Y-98730000D01*
X80549605Y-98730000D01*
X81434080Y-99614475D01*
X81688261Y-99530792D01*
X81819158Y-99258225D01*
X81894365Y-98965358D01*
X81910991Y-98663447D01*
X81868397Y-98364093D01*
X81768222Y-98078801D01*
X81688261Y-97929208D01*
X81434080Y-97845525D01*
X80549605Y-98730000D01*
X80190395Y-98730000D01*
X79305920Y-97845525D01*
X79051739Y-97929208D01*
X78920842Y-98201775D01*
X78845635Y-98494642D01*
X78829009Y-98796553D01*
X76823660Y-98796553D01*
X76830991Y-98663447D01*
X76788397Y-98364093D01*
X76688222Y-98078801D01*
X76608261Y-97929208D01*
X76354080Y-97845525D01*
X75469605Y-98730000D01*
X75110395Y-98730000D01*
X74225920Y-97845525D01*
X73971739Y-97929208D01*
X73840842Y-98201775D01*
X73765635Y-98494642D01*
X73749009Y-98796553D01*
X70710000Y-98796553D01*
X70710000Y-97254080D01*
X74405525Y-97254080D01*
X74473319Y-97460000D01*
X74405525Y-97665920D01*
X75290000Y-98550395D01*
X76174475Y-97665920D01*
X76106681Y-97460000D01*
X76174475Y-97254080D01*
X79485525Y-97254080D01*
X79553319Y-97460000D01*
X79485525Y-97665920D01*
X80370000Y-98550395D01*
X81254475Y-97665920D01*
X81186681Y-97460000D01*
X81254475Y-97254080D01*
X80370000Y-96369605D01*
X79485525Y-97254080D01*
X76174475Y-97254080D01*
X75290000Y-96369605D01*
X74405525Y-97254080D01*
X70710000Y-97254080D01*
X70710000Y-96256553D01*
X73749009Y-96256553D01*
X73791603Y-96555907D01*
X73891778Y-96841199D01*
X73971739Y-96990792D01*
X74225920Y-97074475D01*
X75110395Y-96190000D01*
X75469605Y-96190000D01*
X76354080Y-97074475D01*
X76608261Y-96990792D01*
X76739158Y-96718225D01*
X76814365Y-96425358D01*
X76823660Y-96256553D01*
X78829009Y-96256553D01*
X78871603Y-96555907D01*
X78971778Y-96841199D01*
X79051739Y-96990792D01*
X79305920Y-97074475D01*
X80190395Y-96190000D01*
X80549605Y-96190000D01*
X81434080Y-97074475D01*
X81688261Y-96990792D01*
X81819158Y-96718225D01*
X81894365Y-96425358D01*
X81910991Y-96123447D01*
X81868397Y-95824093D01*
X81792489Y-95607911D01*
X144665000Y-95607911D01*
X144665000Y-95792089D01*
X144700932Y-95972729D01*
X144771414Y-96142889D01*
X144813272Y-96205534D01*
X144860589Y-96294059D01*
X144971183Y-96428817D01*
X145004955Y-96456533D01*
X146657346Y-98108924D01*
X146671414Y-98142889D01*
X146773738Y-98296028D01*
X146903972Y-98426262D01*
X147057111Y-98528586D01*
X147227271Y-98599068D01*
X147407911Y-98635000D01*
X147592089Y-98635000D01*
X147772729Y-98599068D01*
X147942889Y-98528586D01*
X148096028Y-98426262D01*
X148226262Y-98296028D01*
X148328586Y-98142889D01*
X148399068Y-97972729D01*
X148435000Y-97792089D01*
X148435000Y-97607911D01*
X148399068Y-97427271D01*
X148328586Y-97257111D01*
X148226262Y-97103972D01*
X148096028Y-96973738D01*
X147942889Y-96871414D01*
X147908924Y-96857346D01*
X146504088Y-95452510D01*
X146499068Y-95427271D01*
X146428586Y-95257111D01*
X146326262Y-95103972D01*
X146196028Y-94973738D01*
X146042889Y-94871414D01*
X145872729Y-94800932D01*
X145692089Y-94765000D01*
X145507911Y-94765000D01*
X145327271Y-94800932D01*
X145157111Y-94871414D01*
X145003972Y-94973738D01*
X144873738Y-95103972D01*
X144771414Y-95257111D01*
X144700932Y-95427271D01*
X144665000Y-95607911D01*
X81792489Y-95607911D01*
X81768222Y-95538801D01*
X81688261Y-95389208D01*
X81434080Y-95305525D01*
X80549605Y-96190000D01*
X80190395Y-96190000D01*
X79305920Y-95305525D01*
X79051739Y-95389208D01*
X78920842Y-95661775D01*
X78845635Y-95954642D01*
X78829009Y-96256553D01*
X76823660Y-96256553D01*
X76830991Y-96123447D01*
X76788397Y-95824093D01*
X76688222Y-95538801D01*
X76608261Y-95389208D01*
X76354080Y-95305525D01*
X75469605Y-96190000D01*
X75110395Y-96190000D01*
X74225920Y-95305525D01*
X73971739Y-95389208D01*
X73840842Y-95661775D01*
X73765635Y-95954642D01*
X73749009Y-96256553D01*
X70710000Y-96256553D01*
X70710000Y-60478816D01*
X73755000Y-60478816D01*
X73755000Y-60781184D01*
X73813989Y-61077743D01*
X73929701Y-61357095D01*
X74097688Y-61608505D01*
X74311495Y-61822312D01*
X74427763Y-61900000D01*
X74311495Y-61977688D01*
X74097688Y-62191495D01*
X73929701Y-62442905D01*
X73813989Y-62722257D01*
X73755000Y-63018816D01*
X73755000Y-63321184D01*
X73813989Y-63617743D01*
X73929701Y-63897095D01*
X74097688Y-64148505D01*
X74311495Y-64362312D01*
X74427763Y-64440000D01*
X74311495Y-64517688D01*
X74097688Y-64731495D01*
X73929701Y-64982905D01*
X73813989Y-65262257D01*
X73755000Y-65558816D01*
X73755000Y-65861184D01*
X73813989Y-66157743D01*
X73929701Y-66437095D01*
X74097688Y-66688505D01*
X74311495Y-66902312D01*
X74427763Y-66980000D01*
X74311495Y-67057688D01*
X74097688Y-67271495D01*
X73929701Y-67522905D01*
X73813989Y-67802257D01*
X73755000Y-68098816D01*
X73755000Y-68401184D01*
X73813989Y-68697743D01*
X73929701Y-68977095D01*
X74097688Y-69228505D01*
X74311495Y-69442312D01*
X74427763Y-69520000D01*
X74311495Y-69597688D01*
X74097688Y-69811495D01*
X73929701Y-70062905D01*
X73813989Y-70342257D01*
X73755000Y-70638816D01*
X73755000Y-70941184D01*
X73813989Y-71237743D01*
X73929701Y-71517095D01*
X74097688Y-71768505D01*
X74311495Y-71982312D01*
X74427763Y-72060000D01*
X74311495Y-72137688D01*
X74097688Y-72351495D01*
X73929701Y-72602905D01*
X73813989Y-72882257D01*
X73755000Y-73178816D01*
X73755000Y-73481184D01*
X73813989Y-73777743D01*
X73929701Y-74057095D01*
X74097688Y-74308505D01*
X74311495Y-74522312D01*
X74427763Y-74600000D01*
X74311495Y-74677688D01*
X74097688Y-74891495D01*
X73929701Y-75142905D01*
X73813989Y-75422257D01*
X73755000Y-75718816D01*
X73755000Y-76021184D01*
X73813989Y-76317743D01*
X73929701Y-76597095D01*
X74097688Y-76848505D01*
X74311495Y-77062312D01*
X74427763Y-77140000D01*
X74311495Y-77217688D01*
X74097688Y-77431495D01*
X73929701Y-77682905D01*
X73813989Y-77962257D01*
X73755000Y-78258816D01*
X73755000Y-78561184D01*
X73813989Y-78857743D01*
X73929701Y-79137095D01*
X74097688Y-79388505D01*
X74311495Y-79602312D01*
X74427763Y-79680000D01*
X74311495Y-79757688D01*
X74097688Y-79971495D01*
X73929701Y-80222905D01*
X73813989Y-80502257D01*
X73755000Y-80798816D01*
X73755000Y-81101184D01*
X73813989Y-81397743D01*
X73929701Y-81677095D01*
X74097688Y-81928505D01*
X74311495Y-82142312D01*
X74427763Y-82220000D01*
X74311495Y-82297688D01*
X74097688Y-82511495D01*
X73929701Y-82762905D01*
X73813989Y-83042257D01*
X73755000Y-83338816D01*
X73755000Y-83641184D01*
X73813989Y-83937743D01*
X73929701Y-84217095D01*
X74097688Y-84468505D01*
X74311495Y-84682312D01*
X74427763Y-84760000D01*
X74311495Y-84837688D01*
X74097688Y-85051495D01*
X73929701Y-85302905D01*
X73813989Y-85582257D01*
X73755000Y-85878816D01*
X73755000Y-86181184D01*
X73813989Y-86477743D01*
X73929701Y-86757095D01*
X74097688Y-87008505D01*
X74311495Y-87222312D01*
X74427763Y-87300000D01*
X74311495Y-87377688D01*
X74097688Y-87591495D01*
X73929701Y-87842905D01*
X73813989Y-88122257D01*
X73755000Y-88418816D01*
X73755000Y-88721184D01*
X73813989Y-89017743D01*
X73929701Y-89297095D01*
X74097688Y-89548505D01*
X74311495Y-89762312D01*
X74427763Y-89840000D01*
X74311495Y-89917688D01*
X74097688Y-90131495D01*
X73929701Y-90382905D01*
X73813989Y-90662257D01*
X73755000Y-90958816D01*
X73755000Y-91261184D01*
X73813989Y-91557743D01*
X73929701Y-91837095D01*
X74097688Y-92088505D01*
X74311495Y-92302312D01*
X74427763Y-92380000D01*
X74311495Y-92457688D01*
X74097688Y-92671495D01*
X73929701Y-92922905D01*
X73813989Y-93202257D01*
X73755000Y-93498816D01*
X73755000Y-93801184D01*
X73813989Y-94097743D01*
X73929701Y-94377095D01*
X74097688Y-94628505D01*
X74311495Y-94842312D01*
X74465105Y-94944951D01*
X74405525Y-95125920D01*
X75290000Y-96010395D01*
X76174475Y-95125920D01*
X76114895Y-94944951D01*
X76268505Y-94842312D01*
X76482312Y-94628505D01*
X76650299Y-94377095D01*
X76766011Y-94097743D01*
X76825000Y-93801184D01*
X76825000Y-93498816D01*
X76766011Y-93202257D01*
X76650299Y-92922905D01*
X76482312Y-92671495D01*
X76268505Y-92457688D01*
X76152237Y-92380000D01*
X76268505Y-92302312D01*
X76482312Y-92088505D01*
X76650299Y-91837095D01*
X76766011Y-91557743D01*
X76825000Y-91261184D01*
X76825000Y-90958816D01*
X76766011Y-90662257D01*
X76650299Y-90382905D01*
X76482312Y-90131495D01*
X76268505Y-89917688D01*
X76152237Y-89840000D01*
X76268505Y-89762312D01*
X76482312Y-89548505D01*
X76650299Y-89297095D01*
X76766011Y-89017743D01*
X76825000Y-88721184D01*
X76825000Y-88418816D01*
X76766011Y-88122257D01*
X76650299Y-87842905D01*
X76482312Y-87591495D01*
X76268505Y-87377688D01*
X76152237Y-87300000D01*
X76268505Y-87222312D01*
X76482312Y-87008505D01*
X76650299Y-86757095D01*
X76766011Y-86477743D01*
X76825000Y-86181184D01*
X76825000Y-85878816D01*
X76766011Y-85582257D01*
X76650299Y-85302905D01*
X76482312Y-85051495D01*
X76268505Y-84837688D01*
X76152237Y-84760000D01*
X76268505Y-84682312D01*
X76482312Y-84468505D01*
X76650299Y-84217095D01*
X76766011Y-83937743D01*
X76825000Y-83641184D01*
X76825000Y-83338816D01*
X76766011Y-83042257D01*
X76650299Y-82762905D01*
X76482312Y-82511495D01*
X76268505Y-82297688D01*
X76152237Y-82220000D01*
X76268505Y-82142312D01*
X76482312Y-81928505D01*
X76650299Y-81677095D01*
X76766011Y-81397743D01*
X76825000Y-81101184D01*
X76825000Y-80798816D01*
X76766011Y-80502257D01*
X76650299Y-80222905D01*
X76482312Y-79971495D01*
X76268505Y-79757688D01*
X76152237Y-79680000D01*
X76268505Y-79602312D01*
X76482312Y-79388505D01*
X76650299Y-79137095D01*
X76766011Y-78857743D01*
X76825000Y-78561184D01*
X76825000Y-78258816D01*
X76766011Y-77962257D01*
X76650299Y-77682905D01*
X76482312Y-77431495D01*
X76268505Y-77217688D01*
X76152237Y-77140000D01*
X76268505Y-77062312D01*
X76482312Y-76848505D01*
X76650299Y-76597095D01*
X76766011Y-76317743D01*
X76825000Y-76021184D01*
X76825000Y-75718816D01*
X76766011Y-75422257D01*
X76650299Y-75142905D01*
X76482312Y-74891495D01*
X76268505Y-74677688D01*
X76152237Y-74600000D01*
X76268505Y-74522312D01*
X76482312Y-74308505D01*
X76650299Y-74057095D01*
X76766011Y-73777743D01*
X76825000Y-73481184D01*
X76825000Y-73178816D01*
X76766011Y-72882257D01*
X76650299Y-72602905D01*
X76482312Y-72351495D01*
X76268505Y-72137688D01*
X76152237Y-72060000D01*
X76268505Y-71982312D01*
X76482312Y-71768505D01*
X76650299Y-71517095D01*
X76766011Y-71237743D01*
X76825000Y-70941184D01*
X76825000Y-70638816D01*
X76766011Y-70342257D01*
X76650299Y-70062905D01*
X76482312Y-69811495D01*
X76268505Y-69597688D01*
X76152237Y-69520000D01*
X76268505Y-69442312D01*
X76482312Y-69228505D01*
X76650299Y-68977095D01*
X76766011Y-68697743D01*
X76825000Y-68401184D01*
X76825000Y-68098816D01*
X76766011Y-67802257D01*
X76650299Y-67522905D01*
X76482312Y-67271495D01*
X76268505Y-67057688D01*
X76152237Y-66980000D01*
X76268505Y-66902312D01*
X76482312Y-66688505D01*
X76650299Y-66437095D01*
X76766011Y-66157743D01*
X76825000Y-65861184D01*
X76825000Y-65558816D01*
X76766011Y-65262257D01*
X76650299Y-64982905D01*
X76482312Y-64731495D01*
X76268505Y-64517688D01*
X76152237Y-64440000D01*
X76268505Y-64362312D01*
X76482312Y-64148505D01*
X76650299Y-63897095D01*
X76766011Y-63617743D01*
X76825000Y-63321184D01*
X76825000Y-63018816D01*
X76766011Y-62722257D01*
X76650299Y-62442905D01*
X76482312Y-62191495D01*
X76268505Y-61977688D01*
X76152237Y-61900000D01*
X76268505Y-61822312D01*
X76482312Y-61608505D01*
X76650299Y-61357095D01*
X76766011Y-61077743D01*
X76825000Y-60781184D01*
X76825000Y-60478816D01*
X78835000Y-60478816D01*
X78835000Y-60781184D01*
X78893989Y-61077743D01*
X79009701Y-61357095D01*
X79177688Y-61608505D01*
X79391495Y-61822312D01*
X79507763Y-61900000D01*
X79391495Y-61977688D01*
X79177688Y-62191495D01*
X79009701Y-62442905D01*
X78893989Y-62722257D01*
X78835000Y-63018816D01*
X78835000Y-63321184D01*
X78893989Y-63617743D01*
X79009701Y-63897095D01*
X79177688Y-64148505D01*
X79391495Y-64362312D01*
X79507763Y-64440000D01*
X79391495Y-64517688D01*
X79177688Y-64731495D01*
X79009701Y-64982905D01*
X78893989Y-65262257D01*
X78835000Y-65558816D01*
X78835000Y-65861184D01*
X78893989Y-66157743D01*
X79009701Y-66437095D01*
X79177688Y-66688505D01*
X79391495Y-66902312D01*
X79507763Y-66980000D01*
X79391495Y-67057688D01*
X79177688Y-67271495D01*
X79009701Y-67522905D01*
X78893989Y-67802257D01*
X78835000Y-68098816D01*
X78835000Y-68401184D01*
X78893989Y-68697743D01*
X79009701Y-68977095D01*
X79177688Y-69228505D01*
X79391495Y-69442312D01*
X79507763Y-69520000D01*
X79391495Y-69597688D01*
X79177688Y-69811495D01*
X79009701Y-70062905D01*
X78893989Y-70342257D01*
X78835000Y-70638816D01*
X78835000Y-70941184D01*
X78893989Y-71237743D01*
X79009701Y-71517095D01*
X79177688Y-71768505D01*
X79391495Y-71982312D01*
X79507763Y-72060000D01*
X79391495Y-72137688D01*
X79177688Y-72351495D01*
X79009701Y-72602905D01*
X78893989Y-72882257D01*
X78835000Y-73178816D01*
X78835000Y-73481184D01*
X78893989Y-73777743D01*
X79009701Y-74057095D01*
X79177688Y-74308505D01*
X79391495Y-74522312D01*
X79507763Y-74600000D01*
X79391495Y-74677688D01*
X79177688Y-74891495D01*
X79009701Y-75142905D01*
X78893989Y-75422257D01*
X78835000Y-75718816D01*
X78835000Y-76021184D01*
X78893989Y-76317743D01*
X79009701Y-76597095D01*
X79177688Y-76848505D01*
X79391495Y-77062312D01*
X79507763Y-77140000D01*
X79391495Y-77217688D01*
X79177688Y-77431495D01*
X79009701Y-77682905D01*
X78893989Y-77962257D01*
X78835000Y-78258816D01*
X78835000Y-78561184D01*
X78893989Y-78857743D01*
X79009701Y-79137095D01*
X79177688Y-79388505D01*
X79391495Y-79602312D01*
X79507763Y-79680000D01*
X79391495Y-79757688D01*
X79177688Y-79971495D01*
X79009701Y-80222905D01*
X78893989Y-80502257D01*
X78835000Y-80798816D01*
X78835000Y-81101184D01*
X78893989Y-81397743D01*
X79009701Y-81677095D01*
X79177688Y-81928505D01*
X79391495Y-82142312D01*
X79507763Y-82220000D01*
X79391495Y-82297688D01*
X79177688Y-82511495D01*
X79009701Y-82762905D01*
X78893989Y-83042257D01*
X78835000Y-83338816D01*
X78835000Y-83641184D01*
X78893989Y-83937743D01*
X79009701Y-84217095D01*
X79177688Y-84468505D01*
X79391495Y-84682312D01*
X79507763Y-84760000D01*
X79391495Y-84837688D01*
X79177688Y-85051495D01*
X79009701Y-85302905D01*
X78893989Y-85582257D01*
X78835000Y-85878816D01*
X78835000Y-86181184D01*
X78893989Y-86477743D01*
X79009701Y-86757095D01*
X79177688Y-87008505D01*
X79391495Y-87222312D01*
X79507763Y-87300000D01*
X79391495Y-87377688D01*
X79177688Y-87591495D01*
X79009701Y-87842905D01*
X78893989Y-88122257D01*
X78835000Y-88418816D01*
X78835000Y-88721184D01*
X78893989Y-89017743D01*
X79009701Y-89297095D01*
X79177688Y-89548505D01*
X79391495Y-89762312D01*
X79507763Y-89840000D01*
X79391495Y-89917688D01*
X79177688Y-90131495D01*
X79009701Y-90382905D01*
X78893989Y-90662257D01*
X78835000Y-90958816D01*
X78835000Y-91261184D01*
X78893989Y-91557743D01*
X79009701Y-91837095D01*
X79177688Y-92088505D01*
X79391495Y-92302312D01*
X79507763Y-92380000D01*
X79391495Y-92457688D01*
X79177688Y-92671495D01*
X79009701Y-92922905D01*
X78893989Y-93202257D01*
X78835000Y-93498816D01*
X78835000Y-93801184D01*
X78893989Y-94097743D01*
X79009701Y-94377095D01*
X79177688Y-94628505D01*
X79391495Y-94842312D01*
X79545105Y-94944951D01*
X79485525Y-95125920D01*
X80370000Y-96010395D01*
X81254475Y-95125920D01*
X81194895Y-94944951D01*
X81348505Y-94842312D01*
X81562312Y-94628505D01*
X81730299Y-94377095D01*
X81846011Y-94097743D01*
X81905000Y-93801184D01*
X81905000Y-93498816D01*
X81846011Y-93202257D01*
X81730299Y-92922905D01*
X81562312Y-92671495D01*
X81348505Y-92457688D01*
X81232237Y-92380000D01*
X81348505Y-92302312D01*
X81562312Y-92088505D01*
X81730299Y-91837095D01*
X81846011Y-91557743D01*
X81905000Y-91261184D01*
X81905000Y-90958816D01*
X81846011Y-90662257D01*
X81730299Y-90382905D01*
X81562312Y-90131495D01*
X81348505Y-89917688D01*
X81232237Y-89840000D01*
X81348505Y-89762312D01*
X81562312Y-89548505D01*
X81730299Y-89297095D01*
X81846011Y-89017743D01*
X81905000Y-88721184D01*
X81905000Y-88418816D01*
X81846011Y-88122257D01*
X81730299Y-87842905D01*
X81562312Y-87591495D01*
X81348505Y-87377688D01*
X81232237Y-87300000D01*
X81348505Y-87222312D01*
X81562312Y-87008505D01*
X81730299Y-86757095D01*
X81846011Y-86477743D01*
X81905000Y-86181184D01*
X81905000Y-85878816D01*
X81846011Y-85582257D01*
X81730299Y-85302905D01*
X81562312Y-85051495D01*
X81348505Y-84837688D01*
X81232237Y-84760000D01*
X81348505Y-84682312D01*
X81562312Y-84468505D01*
X81730299Y-84217095D01*
X81846011Y-83937743D01*
X81905000Y-83641184D01*
X81905000Y-83338816D01*
X81846011Y-83042257D01*
X81730299Y-82762905D01*
X81562312Y-82511495D01*
X81348505Y-82297688D01*
X81232237Y-82220000D01*
X81348505Y-82142312D01*
X81562312Y-81928505D01*
X81730299Y-81677095D01*
X81846011Y-81397743D01*
X81905000Y-81101184D01*
X81905000Y-80798816D01*
X81846011Y-80502257D01*
X81730299Y-80222905D01*
X81562312Y-79971495D01*
X81348505Y-79757688D01*
X81232237Y-79680000D01*
X81348505Y-79602312D01*
X81562312Y-79388505D01*
X81730299Y-79137095D01*
X81846011Y-78857743D01*
X81905000Y-78561184D01*
X81905000Y-78258816D01*
X81846011Y-77962257D01*
X81730299Y-77682905D01*
X81562312Y-77431495D01*
X81348505Y-77217688D01*
X81232237Y-77140000D01*
X81348505Y-77062312D01*
X81562312Y-76848505D01*
X81675297Y-76679411D01*
X166806600Y-76679411D01*
X166806600Y-76863589D01*
X166842532Y-77044229D01*
X166913014Y-77214389D01*
X167015338Y-77367528D01*
X167145572Y-77497762D01*
X167298711Y-77600086D01*
X167461011Y-77667312D01*
X168177347Y-78383649D01*
X168201432Y-78504729D01*
X168271914Y-78674889D01*
X168374238Y-78828028D01*
X168504472Y-78958262D01*
X168657611Y-79060586D01*
X168827771Y-79131068D01*
X169008411Y-79167000D01*
X169192589Y-79167000D01*
X169373229Y-79131068D01*
X169543389Y-79060586D01*
X169696528Y-78958262D01*
X169826762Y-78828028D01*
X169929086Y-78674889D01*
X169999568Y-78504729D01*
X170035500Y-78324089D01*
X170035500Y-78139911D01*
X169999568Y-77959271D01*
X169929086Y-77789111D01*
X169826762Y-77635972D01*
X169696528Y-77505738D01*
X169543389Y-77403414D01*
X169373229Y-77332932D01*
X169252149Y-77308847D01*
X168676600Y-76733299D01*
X168676600Y-76679411D01*
X168640668Y-76498771D01*
X168570186Y-76328611D01*
X168467862Y-76175472D01*
X168337628Y-76045238D01*
X168184489Y-75942914D01*
X168014329Y-75872432D01*
X167833689Y-75836500D01*
X167649511Y-75836500D01*
X167468871Y-75872432D01*
X167298711Y-75942914D01*
X167145572Y-76045238D01*
X167015338Y-76175472D01*
X166913014Y-76328611D01*
X166842532Y-76498771D01*
X166806600Y-76679411D01*
X81675297Y-76679411D01*
X81730299Y-76597095D01*
X81846011Y-76317743D01*
X81905000Y-76021184D01*
X81905000Y-75718816D01*
X81846011Y-75422257D01*
X81730299Y-75142905D01*
X81562312Y-74891495D01*
X81428728Y-74757911D01*
X169915000Y-74757911D01*
X169915000Y-74942089D01*
X169950932Y-75122729D01*
X170021414Y-75292889D01*
X170123738Y-75446028D01*
X170253972Y-75576262D01*
X170407111Y-75678586D01*
X170577271Y-75749068D01*
X170757911Y-75785000D01*
X170942089Y-75785000D01*
X171122729Y-75749068D01*
X171292889Y-75678586D01*
X171446028Y-75576262D01*
X171576262Y-75446028D01*
X171678586Y-75292889D01*
X171749068Y-75122729D01*
X171773153Y-75001648D01*
X174361004Y-72413798D01*
X174390001Y-72390001D01*
X174484974Y-72274276D01*
X174555546Y-72142247D01*
X174599003Y-71998986D01*
X174609052Y-71896954D01*
X174678586Y-71792889D01*
X174749068Y-71622729D01*
X174785000Y-71442089D01*
X174785000Y-71257911D01*
X174749068Y-71077271D01*
X174678586Y-70907111D01*
X174576262Y-70753972D01*
X174446028Y-70623738D01*
X174292889Y-70521414D01*
X174122729Y-70450932D01*
X173942089Y-70415000D01*
X173757911Y-70415000D01*
X173577271Y-70450932D01*
X173407111Y-70521414D01*
X173253972Y-70623738D01*
X173123738Y-70753972D01*
X173021414Y-70907111D01*
X172950932Y-71077271D01*
X172915000Y-71257911D01*
X172915000Y-71442089D01*
X172950932Y-71622729D01*
X172966027Y-71659171D01*
X170698352Y-73926847D01*
X170577271Y-73950932D01*
X170407111Y-74021414D01*
X170253972Y-74123738D01*
X170123738Y-74253972D01*
X170021414Y-74407111D01*
X169950932Y-74577271D01*
X169915000Y-74757911D01*
X81428728Y-74757911D01*
X81348505Y-74677688D01*
X81232237Y-74600000D01*
X81348505Y-74522312D01*
X81562312Y-74308505D01*
X81730299Y-74057095D01*
X81846011Y-73777743D01*
X81905000Y-73481184D01*
X81905000Y-73178816D01*
X81846011Y-72882257D01*
X81730299Y-72602905D01*
X81562312Y-72351495D01*
X81348505Y-72137688D01*
X81232237Y-72060000D01*
X81348505Y-71982312D01*
X81562312Y-71768505D01*
X81730299Y-71517095D01*
X81846011Y-71237743D01*
X81905000Y-70941184D01*
X81905000Y-70638816D01*
X81846011Y-70342257D01*
X81730299Y-70062905D01*
X81562312Y-69811495D01*
X81348505Y-69597688D01*
X81232237Y-69520000D01*
X81348505Y-69442312D01*
X81562312Y-69228505D01*
X81730299Y-68977095D01*
X81846011Y-68697743D01*
X81905000Y-68401184D01*
X81905000Y-68098816D01*
X81846011Y-67802257D01*
X81730299Y-67522905D01*
X81562312Y-67271495D01*
X81348505Y-67057688D01*
X81232237Y-66980000D01*
X81348505Y-66902312D01*
X81562312Y-66688505D01*
X81730299Y-66437095D01*
X81846011Y-66157743D01*
X81905000Y-65861184D01*
X81905000Y-65558816D01*
X81846011Y-65262257D01*
X81730299Y-64982905D01*
X81562312Y-64731495D01*
X81348505Y-64517688D01*
X81232237Y-64440000D01*
X81292101Y-64400000D01*
X91061928Y-64400000D01*
X91074188Y-64524482D01*
X91110498Y-64644180D01*
X91169463Y-64754494D01*
X91248815Y-64851185D01*
X91345506Y-64930537D01*
X91455820Y-64989502D01*
X91575518Y-65025812D01*
X91700000Y-65038072D01*
X92214250Y-65035000D01*
X92373000Y-64876250D01*
X92373000Y-63727000D01*
X92627000Y-63727000D01*
X92627000Y-64876250D01*
X92785750Y-65035000D01*
X93300000Y-65038072D01*
X93424482Y-65025812D01*
X93544180Y-64989502D01*
X93654494Y-64930537D01*
X93751185Y-64851185D01*
X93830537Y-64754494D01*
X93889502Y-64644180D01*
X93925812Y-64524482D01*
X93938072Y-64400000D01*
X93935000Y-63885750D01*
X93776250Y-63727000D01*
X92627000Y-63727000D01*
X92373000Y-63727000D01*
X91223750Y-63727000D01*
X91065000Y-63885750D01*
X91061928Y-64400000D01*
X81292101Y-64400000D01*
X81348505Y-64362312D01*
X81562312Y-64148505D01*
X81730299Y-63897095D01*
X81846011Y-63617743D01*
X81905000Y-63321184D01*
X81905000Y-63018816D01*
X81861475Y-62800000D01*
X91061928Y-62800000D01*
X91065000Y-63314250D01*
X91223750Y-63473000D01*
X92373000Y-63473000D01*
X92373000Y-63453000D01*
X92627000Y-63453000D01*
X92627000Y-63473000D01*
X93776250Y-63473000D01*
X93935000Y-63314250D01*
X93938072Y-62800000D01*
X93925812Y-62675518D01*
X93889502Y-62555820D01*
X93830537Y-62445506D01*
X93751185Y-62348815D01*
X93654494Y-62269463D01*
X93544180Y-62210498D01*
X93448057Y-62181339D01*
X93614637Y-62014759D01*
X93771680Y-61779727D01*
X93879853Y-61518574D01*
X93935000Y-61241335D01*
X93935000Y-60958665D01*
X93879853Y-60681426D01*
X93771680Y-60420273D01*
X93614637Y-60185241D01*
X93414759Y-59985363D01*
X93179727Y-59828320D01*
X92918574Y-59720147D01*
X92641335Y-59665000D01*
X92358665Y-59665000D01*
X92081426Y-59720147D01*
X91820273Y-59828320D01*
X91585241Y-59985363D01*
X91385363Y-60185241D01*
X91228320Y-60420273D01*
X91120147Y-60681426D01*
X91065000Y-60958665D01*
X91065000Y-61241335D01*
X91120147Y-61518574D01*
X91228320Y-61779727D01*
X91385363Y-62014759D01*
X91551943Y-62181339D01*
X91455820Y-62210498D01*
X91345506Y-62269463D01*
X91248815Y-62348815D01*
X91169463Y-62445506D01*
X91110498Y-62555820D01*
X91074188Y-62675518D01*
X91061928Y-62800000D01*
X81861475Y-62800000D01*
X81846011Y-62722257D01*
X81730299Y-62442905D01*
X81562312Y-62191495D01*
X81348505Y-61977688D01*
X81232237Y-61900000D01*
X81348505Y-61822312D01*
X81562312Y-61608505D01*
X81730299Y-61357095D01*
X81846011Y-61077743D01*
X81905000Y-60781184D01*
X81905000Y-60478816D01*
X81846011Y-60182257D01*
X81730299Y-59902905D01*
X81562312Y-59651495D01*
X81348505Y-59437688D01*
X81097095Y-59269701D01*
X80817743Y-59153989D01*
X80521184Y-59095000D01*
X80218816Y-59095000D01*
X79922257Y-59153989D01*
X79642905Y-59269701D01*
X79391495Y-59437688D01*
X79177688Y-59651495D01*
X79009701Y-59902905D01*
X78893989Y-60182257D01*
X78835000Y-60478816D01*
X76825000Y-60478816D01*
X76766011Y-60182257D01*
X76650299Y-59902905D01*
X76482312Y-59651495D01*
X76268505Y-59437688D01*
X76017095Y-59269701D01*
X75737743Y-59153989D01*
X75441184Y-59095000D01*
X75138816Y-59095000D01*
X74842257Y-59153989D01*
X74562905Y-59269701D01*
X74311495Y-59437688D01*
X74097688Y-59651495D01*
X73929701Y-59902905D01*
X73813989Y-60182257D01*
X73755000Y-60478816D01*
X70710000Y-60478816D01*
X70710000Y-55981583D01*
X70745126Y-56158172D01*
X70902297Y-56537618D01*
X71130475Y-56879110D01*
X71420890Y-57169525D01*
X71762382Y-57397703D01*
X72141828Y-57554874D01*
X72544645Y-57635000D01*
X72955355Y-57635000D01*
X73358172Y-57554874D01*
X73737618Y-57397703D01*
X74079110Y-57169525D01*
X74369525Y-56879110D01*
X74597703Y-56537618D01*
X74754874Y-56158172D01*
X74835000Y-55755355D01*
X74835000Y-55344645D01*
X74754874Y-54941828D01*
X74597703Y-54562382D01*
X74369525Y-54220890D01*
X74079110Y-53930475D01*
X73737618Y-53702297D01*
X73358172Y-53545126D01*
X72955355Y-53465000D01*
X72544645Y-53465000D01*
X72141828Y-53545126D01*
X71762382Y-53702297D01*
X71420890Y-53930475D01*
X71130475Y-54220890D01*
X70902297Y-54562382D01*
X70745126Y-54941828D01*
X70710000Y-55118417D01*
X70710000Y-50710000D01*
X229290001Y-50710000D01*
X229290001Y-59362678D01*
G37*
G04 #@! TD.AperFunction*
M02*
