G04 #@! TF.GenerationSoftware,KiCad,Pcbnew,(5.1.9)-1*
G04 #@! TF.CreationDate,2021-03-18T22:18:02+01:00*
G04 #@! TF.ProjectId,PFD_HMC439QS16G,5046445f-484d-4433-9433-395153313647,1.2*
G04 #@! TF.SameCoordinates,Original*
G04 #@! TF.FileFunction,Other,Fab,Top*
%FSLAX46Y46*%
G04 Gerber Fmt 4.6, Leading zero omitted, Abs format (unit mm)*
G04 Created by KiCad (PCBNEW (5.1.9)-1) date 2021-03-18 22:18:02*
%MOMM*%
%LPD*%
G01*
G04 APERTURE LIST*
%ADD10C,0.100000*%
%ADD11C,0.150000*%
%ADD12C,0.040000*%
%ADD13C,0.120000*%
%ADD14C,0.060000*%
%ADD15C,0.110000*%
G04 APERTURE END LIST*
D10*
X203450000Y-80250000D02*
X203450000Y-79750000D01*
X203450000Y-79750000D02*
X204450000Y-79750000D01*
X204450000Y-79750000D02*
X204450000Y-80250000D01*
X204450000Y-80250000D02*
X203450000Y-80250000D01*
X206100000Y-63850000D02*
X205100000Y-63850000D01*
X206100000Y-63350000D02*
X206100000Y-63850000D01*
X205100000Y-63350000D02*
X206100000Y-63350000D01*
X205100000Y-63850000D02*
X205100000Y-63350000D01*
X100650000Y-101700000D02*
X100650000Y-98500000D01*
X103150000Y-101700000D02*
X100650000Y-101700000D01*
X103150000Y-98500000D02*
X103150000Y-101700000D01*
X100650000Y-98500000D02*
X103150000Y-98500000D01*
X103150000Y-103800000D02*
X103150000Y-107000000D01*
X100650000Y-103800000D02*
X103150000Y-103800000D01*
X100650000Y-107000000D02*
X100650000Y-103800000D01*
X103150000Y-107000000D02*
X100650000Y-107000000D01*
X196300000Y-73500000D02*
X196300000Y-72700000D01*
X196300000Y-72700000D02*
X197900000Y-72700000D01*
X197900000Y-72700000D02*
X197900000Y-73500000D01*
X197900000Y-73500000D02*
X196300000Y-73500000D01*
X196500000Y-67700000D02*
X196500000Y-69300000D01*
X195700000Y-67700000D02*
X196500000Y-67700000D01*
X195700000Y-69300000D02*
X195700000Y-67700000D01*
X196500000Y-69300000D02*
X195700000Y-69300000D01*
X114900000Y-98300000D02*
X114900000Y-101500000D01*
X113300000Y-98300000D02*
X114900000Y-98300000D01*
X113300000Y-101500000D02*
X113300000Y-98300000D01*
X114900000Y-101500000D02*
X113300000Y-101500000D01*
X106500000Y-108700000D02*
X106500000Y-110300000D01*
X106500000Y-110300000D02*
X103300000Y-110300000D01*
X103300000Y-110300000D02*
X103300000Y-108700000D01*
X103300000Y-108700000D02*
X106500000Y-108700000D01*
X193900000Y-78200000D02*
X193900000Y-76600000D01*
X194700000Y-78200000D02*
X193900000Y-78200000D01*
X194700000Y-76600000D02*
X194700000Y-78200000D01*
X193900000Y-76600000D02*
X194700000Y-76600000D01*
X181900000Y-66500000D02*
X181100000Y-66500000D01*
X181100000Y-66500000D02*
X181100000Y-64900000D01*
X181100000Y-64900000D02*
X181900000Y-64900000D01*
X181900000Y-64900000D02*
X181900000Y-66500000D01*
X108600000Y-94450000D02*
X108600000Y-96950000D01*
X108600000Y-96950000D02*
X105400000Y-96950000D01*
X105400000Y-96950000D02*
X105400000Y-94450000D01*
X105400000Y-94450000D02*
X108600000Y-94450000D01*
X112350000Y-104400000D02*
X114850000Y-104400000D01*
X114850000Y-104400000D02*
X114850000Y-107600000D01*
X114850000Y-107600000D02*
X112350000Y-107600000D01*
X112350000Y-107600000D02*
X112350000Y-104400000D01*
X179100000Y-78650000D02*
X178300000Y-78650000D01*
X178300000Y-78650000D02*
X178300000Y-77050000D01*
X178300000Y-77050000D02*
X179100000Y-77050000D01*
X179100000Y-77050000D02*
X179100000Y-78650000D01*
X179150000Y-66950000D02*
X179150000Y-68550000D01*
X178350000Y-66950000D02*
X179150000Y-66950000D01*
X178350000Y-68550000D02*
X178350000Y-66950000D01*
X179150000Y-68550000D02*
X178350000Y-68550000D01*
X163250000Y-69150000D02*
X162450000Y-69150000D01*
X162450000Y-69150000D02*
X162450000Y-67550000D01*
X162450000Y-67550000D02*
X163250000Y-67550000D01*
X163250000Y-67550000D02*
X163250000Y-69150000D01*
X160700000Y-72650000D02*
X160700000Y-71050000D01*
X161500000Y-72650000D02*
X160700000Y-72650000D01*
X161500000Y-71050000D02*
X161500000Y-72650000D01*
X160700000Y-71050000D02*
X161500000Y-71050000D01*
X163800000Y-76200000D02*
X165400000Y-76200000D01*
X163800000Y-77000000D02*
X163800000Y-76200000D01*
X165400000Y-77000000D02*
X163800000Y-77000000D01*
X165400000Y-76200000D02*
X165400000Y-77000000D01*
X170250000Y-70650000D02*
X169450000Y-70650000D01*
X169450000Y-70650000D02*
X169450000Y-69050000D01*
X169450000Y-69050000D02*
X170250000Y-69050000D01*
X170250000Y-69050000D02*
X170250000Y-70650000D01*
X183950000Y-78700000D02*
X184750000Y-78700000D01*
X184750000Y-78700000D02*
X184750000Y-80300000D01*
X184750000Y-80300000D02*
X183950000Y-80300000D01*
X183950000Y-80300000D02*
X183950000Y-78700000D01*
X173450000Y-73050000D02*
X174250000Y-73050000D01*
X174250000Y-73050000D02*
X174250000Y-74650000D01*
X174250000Y-74650000D02*
X173450000Y-74650000D01*
X173450000Y-74650000D02*
X173450000Y-73050000D01*
X206550000Y-108450000D02*
X205750000Y-108450000D01*
X205750000Y-108450000D02*
X205750000Y-106850000D01*
X205750000Y-106850000D02*
X206550000Y-106850000D01*
X206550000Y-106850000D02*
X206550000Y-108450000D01*
X198750000Y-114450000D02*
X198750000Y-112850000D01*
X199550000Y-114450000D02*
X198750000Y-114450000D01*
X199550000Y-112850000D02*
X199550000Y-114450000D01*
X198750000Y-112850000D02*
X199550000Y-112850000D01*
X195050000Y-108850000D02*
X195050000Y-110450000D01*
X194250000Y-108850000D02*
X195050000Y-108850000D01*
X194250000Y-110450000D02*
X194250000Y-108850000D01*
X195050000Y-110450000D02*
X194250000Y-110450000D01*
X211000000Y-113500000D02*
X211000000Y-111900000D01*
X211800000Y-113500000D02*
X211000000Y-113500000D01*
X211800000Y-111900000D02*
X211800000Y-113500000D01*
X211000000Y-111900000D02*
X211800000Y-111900000D01*
X227775000Y-76825000D02*
X227775000Y-83175000D01*
X221425000Y-83175000D02*
X227775000Y-83175000D01*
X221425000Y-76825000D02*
X221425000Y-83175000D01*
X221425000Y-76825000D02*
X227775000Y-76825000D01*
X227775000Y-80000000D02*
G75*
G03*
X227775000Y-80000000I-3175000J0D01*
G01*
X227775000Y-64900000D02*
G75*
G03*
X227775000Y-64900000I-3175000J0D01*
G01*
X221425000Y-61725000D02*
X227775000Y-61725000D01*
X221425000Y-61725000D02*
X221425000Y-68075000D01*
X221425000Y-68075000D02*
X227775000Y-68075000D01*
X227775000Y-61725000D02*
X227775000Y-68075000D01*
X112300000Y-99900000D02*
X112300000Y-101500000D01*
X111500000Y-99900000D02*
X112300000Y-99900000D01*
X111500000Y-101500000D02*
X111500000Y-99900000D01*
X112300000Y-101500000D02*
X111500000Y-101500000D01*
X109550000Y-110200000D02*
X107950000Y-110200000D01*
X109550000Y-109400000D02*
X109550000Y-110200000D01*
X107950000Y-109400000D02*
X109550000Y-109400000D01*
X107950000Y-110200000D02*
X107950000Y-109400000D01*
X186450000Y-66550000D02*
X187250000Y-66550000D01*
X187250000Y-66550000D02*
X187250000Y-68150000D01*
X187250000Y-68150000D02*
X186450000Y-68150000D01*
X186450000Y-68150000D02*
X186450000Y-66550000D01*
X184750000Y-75450000D02*
X184750000Y-77050000D01*
X183950000Y-75450000D02*
X184750000Y-75450000D01*
X183950000Y-77050000D02*
X183950000Y-75450000D01*
X184750000Y-77050000D02*
X183950000Y-77050000D01*
X181100000Y-68650000D02*
X181900000Y-68650000D01*
X181900000Y-68650000D02*
X181900000Y-70250000D01*
X181900000Y-70250000D02*
X181100000Y-70250000D01*
X181100000Y-70250000D02*
X181100000Y-68650000D01*
X187600000Y-76800000D02*
X187600000Y-78400000D01*
X186800000Y-76800000D02*
X187600000Y-76800000D01*
X186800000Y-78400000D02*
X186800000Y-76800000D01*
X187600000Y-78400000D02*
X186800000Y-78400000D01*
X181400000Y-73550000D02*
X181400000Y-72750000D01*
X181400000Y-72750000D02*
X183000000Y-72750000D01*
X183000000Y-72750000D02*
X183000000Y-73550000D01*
X183000000Y-73550000D02*
X181400000Y-73550000D01*
X177200000Y-75900000D02*
X177200000Y-75100000D01*
X177200000Y-75100000D02*
X178800000Y-75100000D01*
X178800000Y-75100000D02*
X178800000Y-75900000D01*
X178800000Y-75900000D02*
X177200000Y-75900000D01*
X178850000Y-70600000D02*
X177250000Y-70600000D01*
X178850000Y-69800000D02*
X178850000Y-70600000D01*
X177250000Y-69800000D02*
X178850000Y-69800000D01*
X177250000Y-70600000D02*
X177250000Y-69800000D01*
X174250000Y-70150000D02*
X173450000Y-70150000D01*
X173450000Y-70150000D02*
X173450000Y-68550000D01*
X173450000Y-68550000D02*
X174250000Y-68550000D01*
X174250000Y-68550000D02*
X174250000Y-70150000D01*
X171700000Y-74650000D02*
X171700000Y-73050000D01*
X172500000Y-74650000D02*
X171700000Y-74650000D01*
X172500000Y-73050000D02*
X172500000Y-74650000D01*
X171700000Y-73050000D02*
X172500000Y-73050000D01*
X166050000Y-69500000D02*
X166050000Y-68700000D01*
X166050000Y-68700000D02*
X167650000Y-68700000D01*
X167650000Y-68700000D02*
X167650000Y-69500000D01*
X167650000Y-69500000D02*
X166050000Y-69500000D01*
X162450000Y-71050000D02*
X163250000Y-71050000D01*
X163250000Y-71050000D02*
X163250000Y-72650000D01*
X163250000Y-72650000D02*
X162450000Y-72650000D01*
X162450000Y-72650000D02*
X162450000Y-71050000D01*
X159500000Y-71050000D02*
X159500000Y-72650000D01*
X158700000Y-71050000D02*
X159500000Y-71050000D01*
X158700000Y-72650000D02*
X158700000Y-71050000D01*
X159500000Y-72650000D02*
X158700000Y-72650000D01*
X209900000Y-133750000D02*
X213100000Y-133750000D01*
X209900000Y-136250000D02*
X209900000Y-133750000D01*
X213100000Y-136250000D02*
X209900000Y-136250000D01*
X213100000Y-133750000D02*
X213100000Y-136250000D01*
X209200000Y-93600000D02*
X207600000Y-93600000D01*
X209200000Y-92800000D02*
X209200000Y-93600000D01*
X207600000Y-92800000D02*
X209200000Y-92800000D01*
X207600000Y-93600000D02*
X207600000Y-92800000D01*
X204200000Y-112750000D02*
X204200000Y-113550000D01*
X204200000Y-113550000D02*
X202600000Y-113550000D01*
X202600000Y-113550000D02*
X202600000Y-112750000D01*
X202600000Y-112750000D02*
X204200000Y-112750000D01*
X196500000Y-108850000D02*
X197300000Y-108850000D01*
X197300000Y-108850000D02*
X197300000Y-110450000D01*
X197300000Y-110450000D02*
X196500000Y-110450000D01*
X196500000Y-110450000D02*
X196500000Y-108850000D01*
X209350000Y-106900000D02*
X211850000Y-106900000D01*
X211850000Y-106900000D02*
X211850000Y-110100000D01*
X211850000Y-110100000D02*
X209350000Y-110100000D01*
X209350000Y-110100000D02*
X209350000Y-106900000D01*
X201300000Y-60600000D02*
X202900000Y-60600000D01*
X201300000Y-61400000D02*
X201300000Y-60600000D01*
X202900000Y-61400000D02*
X201300000Y-61400000D01*
X202900000Y-60600000D02*
X202900000Y-61400000D01*
X231420000Y-94470000D02*
X230660000Y-94470000D01*
X229900000Y-95650000D02*
X231420000Y-95650000D01*
X229900000Y-93290000D02*
X229900000Y-95650000D01*
X231420000Y-93290000D02*
X229900000Y-93290000D01*
X231420000Y-95650000D02*
X231420000Y-93290000D01*
X210900000Y-96870000D02*
X229900000Y-96870000D01*
X210900000Y-92070000D02*
X210900000Y-96870000D01*
X229900000Y-92070000D02*
X210900000Y-92070000D01*
X229900000Y-96870000D02*
X229900000Y-92070000D01*
X105505000Y-98675000D02*
X106255000Y-97925000D01*
X105505000Y-101925000D02*
X105505000Y-98675000D01*
X108505000Y-101925000D02*
X105505000Y-101925000D01*
X108505000Y-97925000D02*
X108505000Y-101925000D01*
X106255000Y-97925000D02*
X108505000Y-97925000D01*
X106345000Y-103825000D02*
X108595000Y-103825000D01*
X108595000Y-103825000D02*
X108595000Y-107825000D01*
X108595000Y-107825000D02*
X105595000Y-107825000D01*
X105595000Y-107825000D02*
X105595000Y-104575000D01*
X105595000Y-104575000D02*
X106345000Y-103825000D01*
D11*
X193550000Y-74267500D02*
X192550000Y-75267500D01*
X193550000Y-70367500D02*
X193550000Y-74267500D01*
X189650000Y-70367500D02*
X193550000Y-70367500D01*
X189650000Y-75267500D02*
X189650000Y-70367500D01*
X192550000Y-75267500D02*
X189650000Y-75267500D01*
D10*
X166100000Y-72850000D02*
X166850000Y-72100000D01*
X166100000Y-75100000D02*
X166100000Y-72850000D01*
X169100000Y-75100000D02*
X166100000Y-75100000D01*
X169100000Y-72100000D02*
X169100000Y-75100000D01*
X166850000Y-72100000D02*
X169100000Y-72100000D01*
X202400000Y-111400000D02*
X200150000Y-111400000D01*
X200150000Y-111400000D02*
X200150000Y-108400000D01*
X200150000Y-108400000D02*
X203150000Y-108400000D01*
X203150000Y-108400000D02*
X203150000Y-110650000D01*
X203150000Y-110650000D02*
X202400000Y-111400000D01*
X218300000Y-62150000D02*
X218300000Y-62650000D01*
X218300000Y-62650000D02*
X217300000Y-62650000D01*
X217300000Y-62650000D02*
X217300000Y-62150000D01*
X217300000Y-62150000D02*
X218300000Y-62150000D01*
X218300000Y-65150000D02*
X217300000Y-65150000D01*
X218300000Y-64650000D02*
X218300000Y-65150000D01*
X217300000Y-64650000D02*
X218300000Y-64650000D01*
X217300000Y-65150000D02*
X217300000Y-64650000D01*
X204925000Y-61400000D02*
X204925000Y-60600000D01*
X204925000Y-60600000D02*
X206525000Y-60600000D01*
X206525000Y-60600000D02*
X206525000Y-61400000D01*
X206525000Y-61400000D02*
X204925000Y-61400000D01*
X209100000Y-67500000D02*
X209100000Y-69100000D01*
X208300000Y-67500000D02*
X209100000Y-67500000D01*
X208300000Y-69100000D02*
X208300000Y-67500000D01*
X209100000Y-69100000D02*
X208300000Y-69100000D01*
X110600000Y-139550000D02*
G75*
G03*
X110600000Y-139550000I-2500000J0D01*
G01*
X107012500Y-141683605D02*
X107012500Y-141183605D01*
X106762500Y-141433605D02*
X107262500Y-141433605D01*
X102300000Y-140400000D02*
X102300000Y-138800000D01*
X103100000Y-140400000D02*
X102300000Y-140400000D01*
X103100000Y-138800000D02*
X103100000Y-140400000D01*
X102300000Y-138800000D02*
X103100000Y-138800000D01*
X97300000Y-138900000D02*
X98100000Y-138900000D01*
X98100000Y-138900000D02*
X98100000Y-140500000D01*
X98100000Y-140500000D02*
X97300000Y-140500000D01*
X97300000Y-140500000D02*
X97300000Y-138900000D01*
X91462500Y-141333605D02*
X91962500Y-141333605D01*
X91712500Y-141583605D02*
X91712500Y-141083605D01*
X95300000Y-139450000D02*
G75*
G03*
X95300000Y-139450000I-2500000J0D01*
G01*
X206200000Y-114100000D02*
X207000000Y-114100000D01*
X207000000Y-114100000D02*
X207000000Y-115700000D01*
X207000000Y-115700000D02*
X206200000Y-115700000D01*
X206200000Y-115700000D02*
X206200000Y-114100000D01*
X207000000Y-110700000D02*
X207000000Y-112300000D01*
X206200000Y-110700000D02*
X207000000Y-110700000D01*
X206200000Y-112300000D02*
X206200000Y-110700000D01*
X207000000Y-112300000D02*
X206200000Y-112300000D01*
X98610000Y-148650000D02*
X98610000Y-147380000D01*
X102310000Y-148650000D02*
X102310000Y-147380000D01*
X105460000Y-147380000D02*
X95460000Y-147380000D01*
X95460000Y-148650000D02*
X105460000Y-148650000D01*
X95460000Y-144250000D02*
X95460000Y-148650000D01*
X105460000Y-144250000D02*
X95460000Y-144250000D01*
X105460000Y-148650000D02*
X105460000Y-144250000D01*
X237200000Y-130000000D02*
X238200000Y-140000000D01*
X236200000Y-130000000D02*
X237200000Y-140000000D01*
X235200000Y-130000000D02*
X236200000Y-140000000D01*
X234200000Y-130000000D02*
X235200000Y-140000000D01*
X233200000Y-130000000D02*
X234200000Y-140000000D01*
X232200000Y-130000000D02*
X233200000Y-140000000D01*
X246270000Y-135000000D02*
G75*
G03*
X246270000Y-135000000I-1000000J0D01*
G01*
X238600000Y-139800000D02*
X250500000Y-139800000D01*
X250500000Y-139800000D02*
X250500000Y-130200000D01*
X250500000Y-130200000D02*
X238600000Y-130200000D01*
X229900000Y-141350000D02*
X238600000Y-141350000D01*
X238600000Y-141350000D02*
X238600000Y-128650000D01*
X238600000Y-128650000D02*
X229900000Y-128650000D01*
X215000000Y-127650000D02*
X215000000Y-142350000D01*
X215000000Y-142350000D02*
X229900000Y-142350000D01*
X229900000Y-142350000D02*
X229900000Y-127650000D01*
X229900000Y-127650000D02*
X215000000Y-127650000D01*
X231200000Y-130000000D02*
X232200000Y-140000000D01*
X231100000Y-104900000D02*
X232100000Y-114900000D01*
X229800000Y-102550000D02*
X214900000Y-102550000D01*
X229800000Y-117250000D02*
X229800000Y-102550000D01*
X214900000Y-117250000D02*
X229800000Y-117250000D01*
X214900000Y-102550000D02*
X214900000Y-117250000D01*
X238500000Y-103550000D02*
X229800000Y-103550000D01*
X238500000Y-116250000D02*
X238500000Y-103550000D01*
X229800000Y-116250000D02*
X238500000Y-116250000D01*
X250400000Y-105100000D02*
X238500000Y-105100000D01*
X250400000Y-114700000D02*
X250400000Y-105100000D01*
X238500000Y-114700000D02*
X250400000Y-114700000D01*
X246170000Y-109900000D02*
G75*
G03*
X246170000Y-109900000I-1000000J0D01*
G01*
X232100000Y-104900000D02*
X233100000Y-114900000D01*
X233100000Y-104900000D02*
X234100000Y-114900000D01*
X234100000Y-104900000D02*
X235100000Y-114900000D01*
X235100000Y-104900000D02*
X236100000Y-114900000D01*
X236100000Y-104900000D02*
X237100000Y-114900000D01*
X237100000Y-104900000D02*
X238100000Y-114900000D01*
X209750000Y-61525000D02*
X210725000Y-60550000D01*
X209750000Y-65450000D02*
X209750000Y-61525000D01*
X213650000Y-65450000D02*
X209750000Y-65450000D01*
X213650000Y-60550000D02*
X213650000Y-65450000D01*
X210725000Y-60550000D02*
X213650000Y-60550000D01*
X203000000Y-99400000D02*
X200000000Y-99400000D01*
X200000000Y-99400000D02*
X200000000Y-106600000D01*
X200000000Y-106600000D02*
X203000000Y-106600000D01*
X203000000Y-106600000D02*
X203000000Y-99400000D01*
X191500000Y-112100000D02*
X191500000Y-104900000D01*
X188500000Y-112100000D02*
X191500000Y-112100000D01*
X188500000Y-104900000D02*
X188500000Y-112100000D01*
X191500000Y-104900000D02*
X188500000Y-104900000D01*
D11*
X202830952Y-81622380D02*
X202259523Y-81622380D01*
X202545238Y-81622380D02*
X202545238Y-80622380D01*
X202450000Y-80765238D01*
X202354761Y-80860476D01*
X202259523Y-80908095D01*
X203450000Y-80622380D02*
X203545238Y-80622380D01*
X203640476Y-80670000D01*
X203688095Y-80717619D01*
X203735714Y-80812857D01*
X203783333Y-81003333D01*
X203783333Y-81241428D01*
X203735714Y-81431904D01*
X203688095Y-81527142D01*
X203640476Y-81574761D01*
X203545238Y-81622380D01*
X203450000Y-81622380D01*
X203354761Y-81574761D01*
X203307142Y-81527142D01*
X203259523Y-81431904D01*
X203211904Y-81241428D01*
X203211904Y-81003333D01*
X203259523Y-80812857D01*
X203307142Y-80717619D01*
X203354761Y-80670000D01*
X203450000Y-80622380D01*
X204402380Y-80622380D02*
X204497619Y-80622380D01*
X204592857Y-80670000D01*
X204640476Y-80717619D01*
X204688095Y-80812857D01*
X204735714Y-81003333D01*
X204735714Y-81241428D01*
X204688095Y-81431904D01*
X204640476Y-81527142D01*
X204592857Y-81574761D01*
X204497619Y-81622380D01*
X204402380Y-81622380D01*
X204307142Y-81574761D01*
X204259523Y-81527142D01*
X204211904Y-81431904D01*
X204164285Y-81241428D01*
X204164285Y-81003333D01*
X204211904Y-80812857D01*
X204259523Y-80717619D01*
X204307142Y-80670000D01*
X204402380Y-80622380D01*
X205164285Y-80955714D02*
X205164285Y-81955714D01*
X205164285Y-81003333D02*
X205259523Y-80955714D01*
X205450000Y-80955714D01*
X205545238Y-81003333D01*
X205592857Y-81050952D01*
X205640476Y-81146190D01*
X205640476Y-81431904D01*
X205592857Y-81527142D01*
X205545238Y-81574761D01*
X205450000Y-81622380D01*
X205259523Y-81622380D01*
X205164285Y-81574761D01*
D12*
X203908333Y-80089285D02*
X203896428Y-80101190D01*
X203860714Y-80113095D01*
X203836904Y-80113095D01*
X203801190Y-80101190D01*
X203777380Y-80077380D01*
X203765476Y-80053571D01*
X203753571Y-80005952D01*
X203753571Y-79970238D01*
X203765476Y-79922619D01*
X203777380Y-79898809D01*
X203801190Y-79875000D01*
X203836904Y-79863095D01*
X203860714Y-79863095D01*
X203896428Y-79875000D01*
X203908333Y-79886904D01*
X204146428Y-80113095D02*
X204003571Y-80113095D01*
X204075000Y-80113095D02*
X204075000Y-79863095D01*
X204051190Y-79898809D01*
X204027380Y-79922619D01*
X204003571Y-79934523D01*
D11*
X204480952Y-65222380D02*
X203909523Y-65222380D01*
X204195238Y-65222380D02*
X204195238Y-64222380D01*
X204100000Y-64365238D01*
X204004761Y-64460476D01*
X203909523Y-64508095D01*
X205100000Y-64222380D02*
X205195238Y-64222380D01*
X205290476Y-64270000D01*
X205338095Y-64317619D01*
X205385714Y-64412857D01*
X205433333Y-64603333D01*
X205433333Y-64841428D01*
X205385714Y-65031904D01*
X205338095Y-65127142D01*
X205290476Y-65174761D01*
X205195238Y-65222380D01*
X205100000Y-65222380D01*
X205004761Y-65174761D01*
X204957142Y-65127142D01*
X204909523Y-65031904D01*
X204861904Y-64841428D01*
X204861904Y-64603333D01*
X204909523Y-64412857D01*
X204957142Y-64317619D01*
X205004761Y-64270000D01*
X205100000Y-64222380D01*
X206052380Y-64222380D02*
X206147619Y-64222380D01*
X206242857Y-64270000D01*
X206290476Y-64317619D01*
X206338095Y-64412857D01*
X206385714Y-64603333D01*
X206385714Y-64841428D01*
X206338095Y-65031904D01*
X206290476Y-65127142D01*
X206242857Y-65174761D01*
X206147619Y-65222380D01*
X206052380Y-65222380D01*
X205957142Y-65174761D01*
X205909523Y-65127142D01*
X205861904Y-65031904D01*
X205814285Y-64841428D01*
X205814285Y-64603333D01*
X205861904Y-64412857D01*
X205909523Y-64317619D01*
X205957142Y-64270000D01*
X206052380Y-64222380D01*
X206814285Y-64555714D02*
X206814285Y-65555714D01*
X206814285Y-64603333D02*
X206909523Y-64555714D01*
X207100000Y-64555714D01*
X207195238Y-64603333D01*
X207242857Y-64650952D01*
X207290476Y-64746190D01*
X207290476Y-65031904D01*
X207242857Y-65127142D01*
X207195238Y-65174761D01*
X207100000Y-65222380D01*
X206909523Y-65222380D01*
X206814285Y-65174761D01*
D12*
X205558333Y-63689285D02*
X205546428Y-63701190D01*
X205510714Y-63713095D01*
X205486904Y-63713095D01*
X205451190Y-63701190D01*
X205427380Y-63677380D01*
X205415476Y-63653571D01*
X205403571Y-63605952D01*
X205403571Y-63570238D01*
X205415476Y-63522619D01*
X205427380Y-63498809D01*
X205451190Y-63475000D01*
X205486904Y-63463095D01*
X205510714Y-63463095D01*
X205546428Y-63475000D01*
X205558333Y-63486904D01*
X205653571Y-63486904D02*
X205665476Y-63475000D01*
X205689285Y-63463095D01*
X205748809Y-63463095D01*
X205772619Y-63475000D01*
X205784523Y-63486904D01*
X205796428Y-63510714D01*
X205796428Y-63534523D01*
X205784523Y-63570238D01*
X205641666Y-63713095D01*
X205796428Y-63713095D01*
D11*
X100072380Y-100742857D02*
X100072380Y-101314285D01*
X100072380Y-101028571D02*
X99072380Y-101028571D01*
X99215238Y-101123809D01*
X99310476Y-101219047D01*
X99358095Y-101314285D01*
X99072380Y-100123809D02*
X99072380Y-100028571D01*
X99120000Y-99933333D01*
X99167619Y-99885714D01*
X99262857Y-99838095D01*
X99453333Y-99790476D01*
X99691428Y-99790476D01*
X99881904Y-99838095D01*
X99977142Y-99885714D01*
X100024761Y-99933333D01*
X100072380Y-100028571D01*
X100072380Y-100123809D01*
X100024761Y-100219047D01*
X99977142Y-100266666D01*
X99881904Y-100314285D01*
X99691428Y-100361904D01*
X99453333Y-100361904D01*
X99262857Y-100314285D01*
X99167619Y-100266666D01*
X99120000Y-100219047D01*
X99072380Y-100123809D01*
X99405714Y-98933333D02*
X100072380Y-98933333D01*
X99405714Y-99361904D02*
X99929523Y-99361904D01*
X100024761Y-99314285D01*
X100072380Y-99219047D01*
X100072380Y-99076190D01*
X100024761Y-98980952D01*
X99977142Y-98933333D01*
D13*
X102185714Y-100233333D02*
X102223809Y-100271428D01*
X102261904Y-100385714D01*
X102261904Y-100461904D01*
X102223809Y-100576190D01*
X102147619Y-100652380D01*
X102071428Y-100690476D01*
X101919047Y-100728571D01*
X101804761Y-100728571D01*
X101652380Y-100690476D01*
X101576190Y-100652380D01*
X101500000Y-100576190D01*
X101461904Y-100461904D01*
X101461904Y-100385714D01*
X101500000Y-100271428D01*
X101538095Y-100233333D01*
X101461904Y-99966666D02*
X101461904Y-99471428D01*
X101766666Y-99738095D01*
X101766666Y-99623809D01*
X101804761Y-99547619D01*
X101842857Y-99509523D01*
X101919047Y-99471428D01*
X102109523Y-99471428D01*
X102185714Y-99509523D01*
X102223809Y-99547619D01*
X102261904Y-99623809D01*
X102261904Y-99852380D01*
X102223809Y-99928571D01*
X102185714Y-99966666D01*
D11*
X104632380Y-106042857D02*
X104632380Y-106614285D01*
X104632380Y-106328571D02*
X103632380Y-106328571D01*
X103775238Y-106423809D01*
X103870476Y-106519047D01*
X103918095Y-106614285D01*
X103632380Y-105423809D02*
X103632380Y-105328571D01*
X103680000Y-105233333D01*
X103727619Y-105185714D01*
X103822857Y-105138095D01*
X104013333Y-105090476D01*
X104251428Y-105090476D01*
X104441904Y-105138095D01*
X104537142Y-105185714D01*
X104584761Y-105233333D01*
X104632380Y-105328571D01*
X104632380Y-105423809D01*
X104584761Y-105519047D01*
X104537142Y-105566666D01*
X104441904Y-105614285D01*
X104251428Y-105661904D01*
X104013333Y-105661904D01*
X103822857Y-105614285D01*
X103727619Y-105566666D01*
X103680000Y-105519047D01*
X103632380Y-105423809D01*
X103965714Y-104233333D02*
X104632380Y-104233333D01*
X103965714Y-104661904D02*
X104489523Y-104661904D01*
X104584761Y-104614285D01*
X104632380Y-104519047D01*
X104632380Y-104376190D01*
X104584761Y-104280952D01*
X104537142Y-104233333D01*
D13*
X102185714Y-105533333D02*
X102223809Y-105571428D01*
X102261904Y-105685714D01*
X102261904Y-105761904D01*
X102223809Y-105876190D01*
X102147619Y-105952380D01*
X102071428Y-105990476D01*
X101919047Y-106028571D01*
X101804761Y-106028571D01*
X101652380Y-105990476D01*
X101576190Y-105952380D01*
X101500000Y-105876190D01*
X101461904Y-105761904D01*
X101461904Y-105685714D01*
X101500000Y-105571428D01*
X101538095Y-105533333D01*
X101728571Y-104847619D02*
X102261904Y-104847619D01*
X101423809Y-105038095D02*
X101995238Y-105228571D01*
X101995238Y-104733333D01*
D11*
X196933333Y-74982380D02*
X196361904Y-74982380D01*
X196647619Y-74982380D02*
X196647619Y-73982380D01*
X196552380Y-74125238D01*
X196457142Y-74220476D01*
X196361904Y-74268095D01*
X197361904Y-74315714D02*
X197361904Y-74982380D01*
X197361904Y-74410952D02*
X197409523Y-74363333D01*
X197504761Y-74315714D01*
X197647619Y-74315714D01*
X197742857Y-74363333D01*
X197790476Y-74458571D01*
X197790476Y-74982380D01*
D14*
X197033333Y-73242857D02*
X197014285Y-73261904D01*
X196957142Y-73280952D01*
X196919047Y-73280952D01*
X196861904Y-73261904D01*
X196823809Y-73223809D01*
X196804761Y-73185714D01*
X196785714Y-73109523D01*
X196785714Y-73052380D01*
X196804761Y-72976190D01*
X196823809Y-72938095D01*
X196861904Y-72900000D01*
X196919047Y-72880952D01*
X196957142Y-72880952D01*
X197014285Y-72900000D01*
X197033333Y-72919047D01*
X197395238Y-72880952D02*
X197204761Y-72880952D01*
X197185714Y-73071428D01*
X197204761Y-73052380D01*
X197242857Y-73033333D01*
X197338095Y-73033333D01*
X197376190Y-73052380D01*
X197395238Y-73071428D01*
X197414285Y-73109523D01*
X197414285Y-73204761D01*
X197395238Y-73242857D01*
X197376190Y-73261904D01*
X197338095Y-73280952D01*
X197242857Y-73280952D01*
X197204761Y-73261904D01*
X197185714Y-73242857D01*
D11*
X197982380Y-68666666D02*
X197982380Y-69238095D01*
X197982380Y-68952380D02*
X196982380Y-68952380D01*
X197125238Y-69047619D01*
X197220476Y-69142857D01*
X197268095Y-69238095D01*
X197315714Y-68238095D02*
X197982380Y-68238095D01*
X197410952Y-68238095D02*
X197363333Y-68190476D01*
X197315714Y-68095238D01*
X197315714Y-67952380D01*
X197363333Y-67857142D01*
X197458571Y-67809523D01*
X197982380Y-67809523D01*
D14*
X196242857Y-68566666D02*
X196261904Y-68585714D01*
X196280952Y-68642857D01*
X196280952Y-68680952D01*
X196261904Y-68738095D01*
X196223809Y-68776190D01*
X196185714Y-68795238D01*
X196109523Y-68814285D01*
X196052380Y-68814285D01*
X195976190Y-68795238D01*
X195938095Y-68776190D01*
X195900000Y-68738095D01*
X195880952Y-68680952D01*
X195880952Y-68642857D01*
X195900000Y-68585714D01*
X195919047Y-68566666D01*
X195880952Y-68223809D02*
X195880952Y-68300000D01*
X195900000Y-68338095D01*
X195919047Y-68357142D01*
X195976190Y-68395238D01*
X196052380Y-68414285D01*
X196204761Y-68414285D01*
X196242857Y-68395238D01*
X196261904Y-68376190D01*
X196280952Y-68338095D01*
X196280952Y-68261904D01*
X196261904Y-68223809D01*
X196242857Y-68204761D01*
X196204761Y-68185714D01*
X196109523Y-68185714D01*
X196071428Y-68204761D01*
X196052380Y-68223809D01*
X196033333Y-68261904D01*
X196033333Y-68338095D01*
X196052380Y-68376190D01*
X196071428Y-68395238D01*
X196109523Y-68414285D01*
D11*
X115372380Y-101590476D02*
X115372380Y-101495238D01*
X115420000Y-101400000D01*
X115467619Y-101352380D01*
X115562857Y-101304761D01*
X115753333Y-101257142D01*
X115991428Y-101257142D01*
X116181904Y-101304761D01*
X116277142Y-101352380D01*
X116324761Y-101400000D01*
X116372380Y-101495238D01*
X116372380Y-101590476D01*
X116324761Y-101685714D01*
X116277142Y-101733333D01*
X116181904Y-101780952D01*
X115991428Y-101828571D01*
X115753333Y-101828571D01*
X115562857Y-101780952D01*
X115467619Y-101733333D01*
X115420000Y-101685714D01*
X115372380Y-101590476D01*
X116277142Y-100828571D02*
X116324761Y-100780952D01*
X116372380Y-100828571D01*
X116324761Y-100876190D01*
X116277142Y-100828571D01*
X116372380Y-100828571D01*
X115705714Y-99923809D02*
X116372380Y-99923809D01*
X115324761Y-100161904D02*
X116039047Y-100400000D01*
X116039047Y-99780952D01*
X115372380Y-99495238D02*
X115372380Y-98828571D01*
X116372380Y-99257142D01*
X115705714Y-98019047D02*
X116372380Y-98019047D01*
X115705714Y-98447619D02*
X116229523Y-98447619D01*
X116324761Y-98400000D01*
X116372380Y-98304761D01*
X116372380Y-98161904D01*
X116324761Y-98066666D01*
X116277142Y-98019047D01*
D13*
X114385714Y-100033333D02*
X114423809Y-100071428D01*
X114461904Y-100185714D01*
X114461904Y-100261904D01*
X114423809Y-100376190D01*
X114347619Y-100452380D01*
X114271428Y-100490476D01*
X114119047Y-100528571D01*
X114004761Y-100528571D01*
X113852380Y-100490476D01*
X113776190Y-100452380D01*
X113700000Y-100376190D01*
X113661904Y-100261904D01*
X113661904Y-100185714D01*
X113700000Y-100071428D01*
X113738095Y-100033333D01*
X113661904Y-99766666D02*
X113661904Y-99233333D01*
X114461904Y-99576190D01*
D11*
X103209523Y-107132380D02*
X103304761Y-107132380D01*
X103400000Y-107180000D01*
X103447619Y-107227619D01*
X103495238Y-107322857D01*
X103542857Y-107513333D01*
X103542857Y-107751428D01*
X103495238Y-107941904D01*
X103447619Y-108037142D01*
X103400000Y-108084761D01*
X103304761Y-108132380D01*
X103209523Y-108132380D01*
X103114285Y-108084761D01*
X103066666Y-108037142D01*
X103019047Y-107941904D01*
X102971428Y-107751428D01*
X102971428Y-107513333D01*
X103019047Y-107322857D01*
X103066666Y-107227619D01*
X103114285Y-107180000D01*
X103209523Y-107132380D01*
X103971428Y-108037142D02*
X104019047Y-108084761D01*
X103971428Y-108132380D01*
X103923809Y-108084761D01*
X103971428Y-108037142D01*
X103971428Y-108132380D01*
X104876190Y-107465714D02*
X104876190Y-108132380D01*
X104638095Y-107084761D02*
X104400000Y-107799047D01*
X105019047Y-107799047D01*
X105304761Y-107132380D02*
X105971428Y-107132380D01*
X105542857Y-108132380D01*
X106780952Y-107465714D02*
X106780952Y-108132380D01*
X106352380Y-107465714D02*
X106352380Y-107989523D01*
X106400000Y-108084761D01*
X106495238Y-108132380D01*
X106638095Y-108132380D01*
X106733333Y-108084761D01*
X106780952Y-108037142D01*
D13*
X104766666Y-109785714D02*
X104728571Y-109823809D01*
X104614285Y-109861904D01*
X104538095Y-109861904D01*
X104423809Y-109823809D01*
X104347619Y-109747619D01*
X104309523Y-109671428D01*
X104271428Y-109519047D01*
X104271428Y-109404761D01*
X104309523Y-109252380D01*
X104347619Y-109176190D01*
X104423809Y-109100000D01*
X104538095Y-109061904D01*
X104614285Y-109061904D01*
X104728571Y-109100000D01*
X104766666Y-109138095D01*
X105223809Y-109404761D02*
X105147619Y-109366666D01*
X105109523Y-109328571D01*
X105071428Y-109252380D01*
X105071428Y-109214285D01*
X105109523Y-109138095D01*
X105147619Y-109100000D01*
X105223809Y-109061904D01*
X105376190Y-109061904D01*
X105452380Y-109100000D01*
X105490476Y-109138095D01*
X105528571Y-109214285D01*
X105528571Y-109252380D01*
X105490476Y-109328571D01*
X105452380Y-109366666D01*
X105376190Y-109404761D01*
X105223809Y-109404761D01*
X105147619Y-109442857D01*
X105109523Y-109480952D01*
X105071428Y-109557142D01*
X105071428Y-109709523D01*
X105109523Y-109785714D01*
X105147619Y-109823809D01*
X105223809Y-109861904D01*
X105376190Y-109861904D01*
X105452380Y-109823809D01*
X105490476Y-109785714D01*
X105528571Y-109709523D01*
X105528571Y-109557142D01*
X105490476Y-109480952D01*
X105452380Y-109442857D01*
X105376190Y-109404761D01*
D11*
X193322380Y-78519047D02*
X193322380Y-79090476D01*
X193322380Y-78804761D02*
X192322380Y-78804761D01*
X192465238Y-78900000D01*
X192560476Y-78995238D01*
X192608095Y-79090476D01*
X192322380Y-77900000D02*
X192322380Y-77804761D01*
X192370000Y-77709523D01*
X192417619Y-77661904D01*
X192512857Y-77614285D01*
X192703333Y-77566666D01*
X192941428Y-77566666D01*
X193131904Y-77614285D01*
X193227142Y-77661904D01*
X193274761Y-77709523D01*
X193322380Y-77804761D01*
X193322380Y-77900000D01*
X193274761Y-77995238D01*
X193227142Y-78042857D01*
X193131904Y-78090476D01*
X192941428Y-78138095D01*
X192703333Y-78138095D01*
X192512857Y-78090476D01*
X192417619Y-78042857D01*
X192370000Y-77995238D01*
X192322380Y-77900000D01*
X192322380Y-76947619D02*
X192322380Y-76852380D01*
X192370000Y-76757142D01*
X192417619Y-76709523D01*
X192512857Y-76661904D01*
X192703333Y-76614285D01*
X192941428Y-76614285D01*
X193131904Y-76661904D01*
X193227142Y-76709523D01*
X193274761Y-76757142D01*
X193322380Y-76852380D01*
X193322380Y-76947619D01*
X193274761Y-77042857D01*
X193227142Y-77090476D01*
X193131904Y-77138095D01*
X192941428Y-77185714D01*
X192703333Y-77185714D01*
X192512857Y-77138095D01*
X192417619Y-77090476D01*
X192370000Y-77042857D01*
X192322380Y-76947619D01*
X192655714Y-76185714D02*
X193322380Y-76185714D01*
X192750952Y-76185714D02*
X192703333Y-76138095D01*
X192655714Y-76042857D01*
X192655714Y-75900000D01*
X192703333Y-75804761D01*
X192798571Y-75757142D01*
X193322380Y-75757142D01*
D14*
X194442857Y-77466666D02*
X194461904Y-77485714D01*
X194480952Y-77542857D01*
X194480952Y-77580952D01*
X194461904Y-77638095D01*
X194423809Y-77676190D01*
X194385714Y-77695238D01*
X194309523Y-77714285D01*
X194252380Y-77714285D01*
X194176190Y-77695238D01*
X194138095Y-77676190D01*
X194100000Y-77638095D01*
X194080952Y-77580952D01*
X194080952Y-77542857D01*
X194100000Y-77485714D01*
X194119047Y-77466666D01*
X194480952Y-77276190D02*
X194480952Y-77200000D01*
X194461904Y-77161904D01*
X194442857Y-77142857D01*
X194385714Y-77104761D01*
X194309523Y-77085714D01*
X194157142Y-77085714D01*
X194119047Y-77104761D01*
X194100000Y-77123809D01*
X194080952Y-77161904D01*
X194080952Y-77238095D01*
X194100000Y-77276190D01*
X194119047Y-77295238D01*
X194157142Y-77314285D01*
X194252380Y-77314285D01*
X194290476Y-77295238D01*
X194309523Y-77276190D01*
X194328571Y-77238095D01*
X194328571Y-77161904D01*
X194309523Y-77123809D01*
X194290476Y-77104761D01*
X194252380Y-77085714D01*
D11*
X183382380Y-65866666D02*
X183382380Y-66438095D01*
X183382380Y-66152380D02*
X182382380Y-66152380D01*
X182525238Y-66247619D01*
X182620476Y-66342857D01*
X182668095Y-66438095D01*
X182715714Y-65438095D02*
X183382380Y-65438095D01*
X182810952Y-65438095D02*
X182763333Y-65390476D01*
X182715714Y-65295238D01*
X182715714Y-65152380D01*
X182763333Y-65057142D01*
X182858571Y-65009523D01*
X183382380Y-65009523D01*
D14*
X181642857Y-65957142D02*
X181661904Y-65976190D01*
X181680952Y-66033333D01*
X181680952Y-66071428D01*
X181661904Y-66128571D01*
X181623809Y-66166666D01*
X181585714Y-66185714D01*
X181509523Y-66204761D01*
X181452380Y-66204761D01*
X181376190Y-66185714D01*
X181338095Y-66166666D01*
X181300000Y-66128571D01*
X181280952Y-66071428D01*
X181280952Y-66033333D01*
X181300000Y-65976190D01*
X181319047Y-65957142D01*
X181680952Y-65576190D02*
X181680952Y-65804761D01*
X181680952Y-65690476D02*
X181280952Y-65690476D01*
X181338095Y-65728571D01*
X181376190Y-65766666D01*
X181395238Y-65804761D01*
X181280952Y-65328571D02*
X181280952Y-65290476D01*
X181300000Y-65252380D01*
X181319047Y-65233333D01*
X181357142Y-65214285D01*
X181433333Y-65195238D01*
X181528571Y-65195238D01*
X181604761Y-65214285D01*
X181642857Y-65233333D01*
X181661904Y-65252380D01*
X181680952Y-65290476D01*
X181680952Y-65328571D01*
X181661904Y-65366666D01*
X181642857Y-65385714D01*
X181604761Y-65404761D01*
X181528571Y-65423809D01*
X181433333Y-65423809D01*
X181357142Y-65404761D01*
X181319047Y-65385714D01*
X181300000Y-65366666D01*
X181280952Y-65328571D01*
D11*
X106357142Y-93872380D02*
X105785714Y-93872380D01*
X106071428Y-93872380D02*
X106071428Y-92872380D01*
X105976190Y-93015238D01*
X105880952Y-93110476D01*
X105785714Y-93158095D01*
X106976190Y-92872380D02*
X107071428Y-92872380D01*
X107166666Y-92920000D01*
X107214285Y-92967619D01*
X107261904Y-93062857D01*
X107309523Y-93253333D01*
X107309523Y-93491428D01*
X107261904Y-93681904D01*
X107214285Y-93777142D01*
X107166666Y-93824761D01*
X107071428Y-93872380D01*
X106976190Y-93872380D01*
X106880952Y-93824761D01*
X106833333Y-93777142D01*
X106785714Y-93681904D01*
X106738095Y-93491428D01*
X106738095Y-93253333D01*
X106785714Y-93062857D01*
X106833333Y-92967619D01*
X106880952Y-92920000D01*
X106976190Y-92872380D01*
X108166666Y-93205714D02*
X108166666Y-93872380D01*
X107738095Y-93205714D02*
X107738095Y-93729523D01*
X107785714Y-93824761D01*
X107880952Y-93872380D01*
X108023809Y-93872380D01*
X108119047Y-93824761D01*
X108166666Y-93777142D01*
D13*
X106485714Y-95985714D02*
X106447619Y-96023809D01*
X106333333Y-96061904D01*
X106257142Y-96061904D01*
X106142857Y-96023809D01*
X106066666Y-95947619D01*
X106028571Y-95871428D01*
X105990476Y-95719047D01*
X105990476Y-95604761D01*
X106028571Y-95452380D01*
X106066666Y-95376190D01*
X106142857Y-95300000D01*
X106257142Y-95261904D01*
X106333333Y-95261904D01*
X106447619Y-95300000D01*
X106485714Y-95338095D01*
X107247619Y-96061904D02*
X106790476Y-96061904D01*
X107019047Y-96061904D02*
X107019047Y-95261904D01*
X106942857Y-95376190D01*
X106866666Y-95452380D01*
X106790476Y-95490476D01*
X108009523Y-96061904D02*
X107552380Y-96061904D01*
X107780952Y-96061904D02*
X107780952Y-95261904D01*
X107704761Y-95376190D01*
X107628571Y-95452380D01*
X107552380Y-95490476D01*
D11*
X111772380Y-106642857D02*
X111772380Y-107214285D01*
X111772380Y-106928571D02*
X110772380Y-106928571D01*
X110915238Y-107023809D01*
X111010476Y-107119047D01*
X111058095Y-107214285D01*
X110772380Y-106023809D02*
X110772380Y-105928571D01*
X110820000Y-105833333D01*
X110867619Y-105785714D01*
X110962857Y-105738095D01*
X111153333Y-105690476D01*
X111391428Y-105690476D01*
X111581904Y-105738095D01*
X111677142Y-105785714D01*
X111724761Y-105833333D01*
X111772380Y-105928571D01*
X111772380Y-106023809D01*
X111724761Y-106119047D01*
X111677142Y-106166666D01*
X111581904Y-106214285D01*
X111391428Y-106261904D01*
X111153333Y-106261904D01*
X110962857Y-106214285D01*
X110867619Y-106166666D01*
X110820000Y-106119047D01*
X110772380Y-106023809D01*
X111105714Y-104833333D02*
X111772380Y-104833333D01*
X111105714Y-105261904D02*
X111629523Y-105261904D01*
X111724761Y-105214285D01*
X111772380Y-105119047D01*
X111772380Y-104976190D01*
X111724761Y-104880952D01*
X111677142Y-104833333D01*
D13*
X113885714Y-106514285D02*
X113923809Y-106552380D01*
X113961904Y-106666666D01*
X113961904Y-106742857D01*
X113923809Y-106857142D01*
X113847619Y-106933333D01*
X113771428Y-106971428D01*
X113619047Y-107009523D01*
X113504761Y-107009523D01*
X113352380Y-106971428D01*
X113276190Y-106933333D01*
X113200000Y-106857142D01*
X113161904Y-106742857D01*
X113161904Y-106666666D01*
X113200000Y-106552380D01*
X113238095Y-106514285D01*
X113961904Y-105752380D02*
X113961904Y-106209523D01*
X113961904Y-105980952D02*
X113161904Y-105980952D01*
X113276190Y-106057142D01*
X113352380Y-106133333D01*
X113390476Y-106209523D01*
X113238095Y-105447619D02*
X113200000Y-105409523D01*
X113161904Y-105333333D01*
X113161904Y-105142857D01*
X113200000Y-105066666D01*
X113238095Y-105028571D01*
X113314285Y-104990476D01*
X113390476Y-104990476D01*
X113504761Y-105028571D01*
X113961904Y-105485714D01*
X113961904Y-104990476D01*
D11*
X179582380Y-79111904D02*
X179582380Y-78492857D01*
X179963333Y-78826190D01*
X179963333Y-78683333D01*
X180010952Y-78588095D01*
X180058571Y-78540476D01*
X180153809Y-78492857D01*
X180391904Y-78492857D01*
X180487142Y-78540476D01*
X180534761Y-78588095D01*
X180582380Y-78683333D01*
X180582380Y-78969047D01*
X180534761Y-79064285D01*
X180487142Y-79111904D01*
X179582380Y-78159523D02*
X179582380Y-77540476D01*
X179963333Y-77873809D01*
X179963333Y-77730952D01*
X180010952Y-77635714D01*
X180058571Y-77588095D01*
X180153809Y-77540476D01*
X180391904Y-77540476D01*
X180487142Y-77588095D01*
X180534761Y-77635714D01*
X180582380Y-77730952D01*
X180582380Y-78016666D01*
X180534761Y-78111904D01*
X180487142Y-78159523D01*
X179915714Y-77111904D02*
X180915714Y-77111904D01*
X179963333Y-77111904D02*
X179915714Y-77016666D01*
X179915714Y-76826190D01*
X179963333Y-76730952D01*
X180010952Y-76683333D01*
X180106190Y-76635714D01*
X180391904Y-76635714D01*
X180487142Y-76683333D01*
X180534761Y-76730952D01*
X180582380Y-76826190D01*
X180582380Y-77016666D01*
X180534761Y-77111904D01*
D14*
X178842857Y-78107142D02*
X178861904Y-78126190D01*
X178880952Y-78183333D01*
X178880952Y-78221428D01*
X178861904Y-78278571D01*
X178823809Y-78316666D01*
X178785714Y-78335714D01*
X178709523Y-78354761D01*
X178652380Y-78354761D01*
X178576190Y-78335714D01*
X178538095Y-78316666D01*
X178500000Y-78278571D01*
X178480952Y-78221428D01*
X178480952Y-78183333D01*
X178500000Y-78126190D01*
X178519047Y-78107142D01*
X178880952Y-77726190D02*
X178880952Y-77954761D01*
X178880952Y-77840476D02*
X178480952Y-77840476D01*
X178538095Y-77878571D01*
X178576190Y-77916666D01*
X178595238Y-77954761D01*
X178480952Y-77592857D02*
X178480952Y-77345238D01*
X178633333Y-77478571D01*
X178633333Y-77421428D01*
X178652380Y-77383333D01*
X178671428Y-77364285D01*
X178709523Y-77345238D01*
X178804761Y-77345238D01*
X178842857Y-77364285D01*
X178861904Y-77383333D01*
X178880952Y-77421428D01*
X178880952Y-77535714D01*
X178861904Y-77573809D01*
X178842857Y-77592857D01*
D11*
X179632380Y-69011904D02*
X179632380Y-68392857D01*
X180013333Y-68726190D01*
X180013333Y-68583333D01*
X180060952Y-68488095D01*
X180108571Y-68440476D01*
X180203809Y-68392857D01*
X180441904Y-68392857D01*
X180537142Y-68440476D01*
X180584761Y-68488095D01*
X180632380Y-68583333D01*
X180632380Y-68869047D01*
X180584761Y-68964285D01*
X180537142Y-69011904D01*
X179632380Y-68059523D02*
X179632380Y-67440476D01*
X180013333Y-67773809D01*
X180013333Y-67630952D01*
X180060952Y-67535714D01*
X180108571Y-67488095D01*
X180203809Y-67440476D01*
X180441904Y-67440476D01*
X180537142Y-67488095D01*
X180584761Y-67535714D01*
X180632380Y-67630952D01*
X180632380Y-67916666D01*
X180584761Y-68011904D01*
X180537142Y-68059523D01*
X179965714Y-67011904D02*
X180965714Y-67011904D01*
X180013333Y-67011904D02*
X179965714Y-66916666D01*
X179965714Y-66726190D01*
X180013333Y-66630952D01*
X180060952Y-66583333D01*
X180156190Y-66535714D01*
X180441904Y-66535714D01*
X180537142Y-66583333D01*
X180584761Y-66630952D01*
X180632380Y-66726190D01*
X180632380Y-66916666D01*
X180584761Y-67011904D01*
D14*
X178892857Y-68007142D02*
X178911904Y-68026190D01*
X178930952Y-68083333D01*
X178930952Y-68121428D01*
X178911904Y-68178571D01*
X178873809Y-68216666D01*
X178835714Y-68235714D01*
X178759523Y-68254761D01*
X178702380Y-68254761D01*
X178626190Y-68235714D01*
X178588095Y-68216666D01*
X178550000Y-68178571D01*
X178530952Y-68121428D01*
X178530952Y-68083333D01*
X178550000Y-68026190D01*
X178569047Y-68007142D01*
X178930952Y-67626190D02*
X178930952Y-67854761D01*
X178930952Y-67740476D02*
X178530952Y-67740476D01*
X178588095Y-67778571D01*
X178626190Y-67816666D01*
X178645238Y-67854761D01*
X178664285Y-67283333D02*
X178930952Y-67283333D01*
X178511904Y-67378571D02*
X178797619Y-67473809D01*
X178797619Y-67226190D01*
D11*
X163732380Y-69516666D02*
X163732380Y-69992857D01*
X164208571Y-70040476D01*
X164160952Y-69992857D01*
X164113333Y-69897619D01*
X164113333Y-69659523D01*
X164160952Y-69564285D01*
X164208571Y-69516666D01*
X164303809Y-69469047D01*
X164541904Y-69469047D01*
X164637142Y-69516666D01*
X164684761Y-69564285D01*
X164732380Y-69659523D01*
X164732380Y-69897619D01*
X164684761Y-69992857D01*
X164637142Y-70040476D01*
X163732380Y-68611904D02*
X163732380Y-68802380D01*
X163780000Y-68897619D01*
X163827619Y-68945238D01*
X163970476Y-69040476D01*
X164160952Y-69088095D01*
X164541904Y-69088095D01*
X164637142Y-69040476D01*
X164684761Y-68992857D01*
X164732380Y-68897619D01*
X164732380Y-68707142D01*
X164684761Y-68611904D01*
X164637142Y-68564285D01*
X164541904Y-68516666D01*
X164303809Y-68516666D01*
X164208571Y-68564285D01*
X164160952Y-68611904D01*
X164113333Y-68707142D01*
X164113333Y-68897619D01*
X164160952Y-68992857D01*
X164208571Y-69040476D01*
X164303809Y-69088095D01*
X163732380Y-67897619D02*
X163732380Y-67802380D01*
X163780000Y-67707142D01*
X163827619Y-67659523D01*
X163922857Y-67611904D01*
X164113333Y-67564285D01*
X164351428Y-67564285D01*
X164541904Y-67611904D01*
X164637142Y-67659523D01*
X164684761Y-67707142D01*
X164732380Y-67802380D01*
X164732380Y-67897619D01*
X164684761Y-67992857D01*
X164637142Y-68040476D01*
X164541904Y-68088095D01*
X164351428Y-68135714D01*
X164113333Y-68135714D01*
X163922857Y-68088095D01*
X163827619Y-68040476D01*
X163780000Y-67992857D01*
X163732380Y-67897619D01*
X164065714Y-67135714D02*
X165065714Y-67135714D01*
X164113333Y-67135714D02*
X164065714Y-67040476D01*
X164065714Y-66850000D01*
X164113333Y-66754761D01*
X164160952Y-66707142D01*
X164256190Y-66659523D01*
X164541904Y-66659523D01*
X164637142Y-66707142D01*
X164684761Y-66754761D01*
X164732380Y-66850000D01*
X164732380Y-67040476D01*
X164684761Y-67135714D01*
D14*
X162992857Y-68607142D02*
X163011904Y-68626190D01*
X163030952Y-68683333D01*
X163030952Y-68721428D01*
X163011904Y-68778571D01*
X162973809Y-68816666D01*
X162935714Y-68835714D01*
X162859523Y-68854761D01*
X162802380Y-68854761D01*
X162726190Y-68835714D01*
X162688095Y-68816666D01*
X162650000Y-68778571D01*
X162630952Y-68721428D01*
X162630952Y-68683333D01*
X162650000Y-68626190D01*
X162669047Y-68607142D01*
X163030952Y-68226190D02*
X163030952Y-68454761D01*
X163030952Y-68340476D02*
X162630952Y-68340476D01*
X162688095Y-68378571D01*
X162726190Y-68416666D01*
X162745238Y-68454761D01*
X162630952Y-67864285D02*
X162630952Y-68054761D01*
X162821428Y-68073809D01*
X162802380Y-68054761D01*
X162783333Y-68016666D01*
X162783333Y-67921428D01*
X162802380Y-67883333D01*
X162821428Y-67864285D01*
X162859523Y-67845238D01*
X162954761Y-67845238D01*
X162992857Y-67864285D01*
X163011904Y-67883333D01*
X163030952Y-67921428D01*
X163030952Y-68016666D01*
X163011904Y-68054761D01*
X162992857Y-68073809D01*
D11*
X160122380Y-72969047D02*
X160122380Y-73540476D01*
X160122380Y-73254761D02*
X159122380Y-73254761D01*
X159265238Y-73350000D01*
X159360476Y-73445238D01*
X159408095Y-73540476D01*
X159455714Y-72111904D02*
X160122380Y-72111904D01*
X159074761Y-72350000D02*
X159789047Y-72588095D01*
X159789047Y-71969047D01*
X159122380Y-71397619D02*
X159122380Y-71302380D01*
X159170000Y-71207142D01*
X159217619Y-71159523D01*
X159312857Y-71111904D01*
X159503333Y-71064285D01*
X159741428Y-71064285D01*
X159931904Y-71111904D01*
X160027142Y-71159523D01*
X160074761Y-71207142D01*
X160122380Y-71302380D01*
X160122380Y-71397619D01*
X160074761Y-71492857D01*
X160027142Y-71540476D01*
X159931904Y-71588095D01*
X159741428Y-71635714D01*
X159503333Y-71635714D01*
X159312857Y-71588095D01*
X159217619Y-71540476D01*
X159170000Y-71492857D01*
X159122380Y-71397619D01*
X159455714Y-70635714D02*
X160455714Y-70635714D01*
X159503333Y-70635714D02*
X159455714Y-70540476D01*
X159455714Y-70350000D01*
X159503333Y-70254761D01*
X159550952Y-70207142D01*
X159646190Y-70159523D01*
X159931904Y-70159523D01*
X160027142Y-70207142D01*
X160074761Y-70254761D01*
X160122380Y-70350000D01*
X160122380Y-70540476D01*
X160074761Y-70635714D01*
D14*
X161242857Y-72107142D02*
X161261904Y-72126190D01*
X161280952Y-72183333D01*
X161280952Y-72221428D01*
X161261904Y-72278571D01*
X161223809Y-72316666D01*
X161185714Y-72335714D01*
X161109523Y-72354761D01*
X161052380Y-72354761D01*
X160976190Y-72335714D01*
X160938095Y-72316666D01*
X160900000Y-72278571D01*
X160880952Y-72221428D01*
X160880952Y-72183333D01*
X160900000Y-72126190D01*
X160919047Y-72107142D01*
X161280952Y-71726190D02*
X161280952Y-71954761D01*
X161280952Y-71840476D02*
X160880952Y-71840476D01*
X160938095Y-71878571D01*
X160976190Y-71916666D01*
X160995238Y-71954761D01*
X160880952Y-71383333D02*
X160880952Y-71459523D01*
X160900000Y-71497619D01*
X160919047Y-71516666D01*
X160976190Y-71554761D01*
X161052380Y-71573809D01*
X161204761Y-71573809D01*
X161242857Y-71554761D01*
X161261904Y-71535714D01*
X161280952Y-71497619D01*
X161280952Y-71421428D01*
X161261904Y-71383333D01*
X161242857Y-71364285D01*
X161204761Y-71345238D01*
X161109523Y-71345238D01*
X161071428Y-71364285D01*
X161052380Y-71383333D01*
X161033333Y-71421428D01*
X161033333Y-71497619D01*
X161052380Y-71535714D01*
X161071428Y-71554761D01*
X161109523Y-71573809D01*
D11*
X163480952Y-75622380D02*
X162909523Y-75622380D01*
X163195238Y-75622380D02*
X163195238Y-74622380D01*
X163100000Y-74765238D01*
X163004761Y-74860476D01*
X162909523Y-74908095D01*
X164100000Y-74622380D02*
X164195238Y-74622380D01*
X164290476Y-74670000D01*
X164338095Y-74717619D01*
X164385714Y-74812857D01*
X164433333Y-75003333D01*
X164433333Y-75241428D01*
X164385714Y-75431904D01*
X164338095Y-75527142D01*
X164290476Y-75574761D01*
X164195238Y-75622380D01*
X164100000Y-75622380D01*
X164004761Y-75574761D01*
X163957142Y-75527142D01*
X163909523Y-75431904D01*
X163861904Y-75241428D01*
X163861904Y-75003333D01*
X163909523Y-74812857D01*
X163957142Y-74717619D01*
X164004761Y-74670000D01*
X164100000Y-74622380D01*
X165052380Y-74622380D02*
X165147619Y-74622380D01*
X165242857Y-74670000D01*
X165290476Y-74717619D01*
X165338095Y-74812857D01*
X165385714Y-75003333D01*
X165385714Y-75241428D01*
X165338095Y-75431904D01*
X165290476Y-75527142D01*
X165242857Y-75574761D01*
X165147619Y-75622380D01*
X165052380Y-75622380D01*
X164957142Y-75574761D01*
X164909523Y-75527142D01*
X164861904Y-75431904D01*
X164814285Y-75241428D01*
X164814285Y-75003333D01*
X164861904Y-74812857D01*
X164909523Y-74717619D01*
X164957142Y-74670000D01*
X165052380Y-74622380D01*
X165814285Y-74955714D02*
X165814285Y-75622380D01*
X165814285Y-75050952D02*
X165861904Y-75003333D01*
X165957142Y-74955714D01*
X166100000Y-74955714D01*
X166195238Y-75003333D01*
X166242857Y-75098571D01*
X166242857Y-75622380D01*
D14*
X164342857Y-76742857D02*
X164323809Y-76761904D01*
X164266666Y-76780952D01*
X164228571Y-76780952D01*
X164171428Y-76761904D01*
X164133333Y-76723809D01*
X164114285Y-76685714D01*
X164095238Y-76609523D01*
X164095238Y-76552380D01*
X164114285Y-76476190D01*
X164133333Y-76438095D01*
X164171428Y-76400000D01*
X164228571Y-76380952D01*
X164266666Y-76380952D01*
X164323809Y-76400000D01*
X164342857Y-76419047D01*
X164723809Y-76780952D02*
X164495238Y-76780952D01*
X164609523Y-76780952D02*
X164609523Y-76380952D01*
X164571428Y-76438095D01*
X164533333Y-76476190D01*
X164495238Y-76495238D01*
X164857142Y-76380952D02*
X165123809Y-76380952D01*
X164952380Y-76780952D01*
D11*
X171732380Y-70969047D02*
X171732380Y-71540476D01*
X171732380Y-71254761D02*
X170732380Y-71254761D01*
X170875238Y-71350000D01*
X170970476Y-71445238D01*
X171018095Y-71540476D01*
X170732380Y-70350000D02*
X170732380Y-70254761D01*
X170780000Y-70159523D01*
X170827619Y-70111904D01*
X170922857Y-70064285D01*
X171113333Y-70016666D01*
X171351428Y-70016666D01*
X171541904Y-70064285D01*
X171637142Y-70111904D01*
X171684761Y-70159523D01*
X171732380Y-70254761D01*
X171732380Y-70350000D01*
X171684761Y-70445238D01*
X171637142Y-70492857D01*
X171541904Y-70540476D01*
X171351428Y-70588095D01*
X171113333Y-70588095D01*
X170922857Y-70540476D01*
X170827619Y-70492857D01*
X170780000Y-70445238D01*
X170732380Y-70350000D01*
X170732380Y-69397619D02*
X170732380Y-69302380D01*
X170780000Y-69207142D01*
X170827619Y-69159523D01*
X170922857Y-69111904D01*
X171113333Y-69064285D01*
X171351428Y-69064285D01*
X171541904Y-69111904D01*
X171637142Y-69159523D01*
X171684761Y-69207142D01*
X171732380Y-69302380D01*
X171732380Y-69397619D01*
X171684761Y-69492857D01*
X171637142Y-69540476D01*
X171541904Y-69588095D01*
X171351428Y-69635714D01*
X171113333Y-69635714D01*
X170922857Y-69588095D01*
X170827619Y-69540476D01*
X170780000Y-69492857D01*
X170732380Y-69397619D01*
X171065714Y-68635714D02*
X171732380Y-68635714D01*
X171160952Y-68635714D02*
X171113333Y-68588095D01*
X171065714Y-68492857D01*
X171065714Y-68350000D01*
X171113333Y-68254761D01*
X171208571Y-68207142D01*
X171732380Y-68207142D01*
D14*
X169992857Y-70107142D02*
X170011904Y-70126190D01*
X170030952Y-70183333D01*
X170030952Y-70221428D01*
X170011904Y-70278571D01*
X169973809Y-70316666D01*
X169935714Y-70335714D01*
X169859523Y-70354761D01*
X169802380Y-70354761D01*
X169726190Y-70335714D01*
X169688095Y-70316666D01*
X169650000Y-70278571D01*
X169630952Y-70221428D01*
X169630952Y-70183333D01*
X169650000Y-70126190D01*
X169669047Y-70107142D01*
X170030952Y-69726190D02*
X170030952Y-69954761D01*
X170030952Y-69840476D02*
X169630952Y-69840476D01*
X169688095Y-69878571D01*
X169726190Y-69916666D01*
X169745238Y-69954761D01*
X169802380Y-69497619D02*
X169783333Y-69535714D01*
X169764285Y-69554761D01*
X169726190Y-69573809D01*
X169707142Y-69573809D01*
X169669047Y-69554761D01*
X169650000Y-69535714D01*
X169630952Y-69497619D01*
X169630952Y-69421428D01*
X169650000Y-69383333D01*
X169669047Y-69364285D01*
X169707142Y-69345238D01*
X169726190Y-69345238D01*
X169764285Y-69364285D01*
X169783333Y-69383333D01*
X169802380Y-69421428D01*
X169802380Y-69497619D01*
X169821428Y-69535714D01*
X169840476Y-69554761D01*
X169878571Y-69573809D01*
X169954761Y-69573809D01*
X169992857Y-69554761D01*
X170011904Y-69535714D01*
X170030952Y-69497619D01*
X170030952Y-69421428D01*
X170011904Y-69383333D01*
X169992857Y-69364285D01*
X169954761Y-69345238D01*
X169878571Y-69345238D01*
X169840476Y-69364285D01*
X169821428Y-69383333D01*
X169802380Y-69421428D01*
D11*
X183372380Y-79666666D02*
X183372380Y-80238095D01*
X183372380Y-79952380D02*
X182372380Y-79952380D01*
X182515238Y-80047619D01*
X182610476Y-80142857D01*
X182658095Y-80238095D01*
X182705714Y-79238095D02*
X183372380Y-79238095D01*
X182800952Y-79238095D02*
X182753333Y-79190476D01*
X182705714Y-79095238D01*
X182705714Y-78952380D01*
X182753333Y-78857142D01*
X182848571Y-78809523D01*
X183372380Y-78809523D01*
D14*
X184492857Y-79757142D02*
X184511904Y-79776190D01*
X184530952Y-79833333D01*
X184530952Y-79871428D01*
X184511904Y-79928571D01*
X184473809Y-79966666D01*
X184435714Y-79985714D01*
X184359523Y-80004761D01*
X184302380Y-80004761D01*
X184226190Y-79985714D01*
X184188095Y-79966666D01*
X184150000Y-79928571D01*
X184130952Y-79871428D01*
X184130952Y-79833333D01*
X184150000Y-79776190D01*
X184169047Y-79757142D01*
X184530952Y-79376190D02*
X184530952Y-79604761D01*
X184530952Y-79490476D02*
X184130952Y-79490476D01*
X184188095Y-79528571D01*
X184226190Y-79566666D01*
X184245238Y-79604761D01*
X184530952Y-79185714D02*
X184530952Y-79109523D01*
X184511904Y-79071428D01*
X184492857Y-79052380D01*
X184435714Y-79014285D01*
X184359523Y-78995238D01*
X184207142Y-78995238D01*
X184169047Y-79014285D01*
X184150000Y-79033333D01*
X184130952Y-79071428D01*
X184130952Y-79147619D01*
X184150000Y-79185714D01*
X184169047Y-79204761D01*
X184207142Y-79223809D01*
X184302380Y-79223809D01*
X184340476Y-79204761D01*
X184359523Y-79185714D01*
X184378571Y-79147619D01*
X184378571Y-79071428D01*
X184359523Y-79033333D01*
X184340476Y-79014285D01*
X184302380Y-78995238D01*
D11*
X171872380Y-75016666D02*
X171872380Y-75492857D01*
X172348571Y-75540476D01*
X172300952Y-75492857D01*
X172253333Y-75397619D01*
X172253333Y-75159523D01*
X172300952Y-75064285D01*
X172348571Y-75016666D01*
X172443809Y-74969047D01*
X172681904Y-74969047D01*
X172777142Y-75016666D01*
X172824761Y-75064285D01*
X172872380Y-75159523D01*
X172872380Y-75397619D01*
X172824761Y-75492857D01*
X172777142Y-75540476D01*
X171872380Y-74111904D02*
X171872380Y-74302380D01*
X171920000Y-74397619D01*
X171967619Y-74445238D01*
X172110476Y-74540476D01*
X172300952Y-74588095D01*
X172681904Y-74588095D01*
X172777142Y-74540476D01*
X172824761Y-74492857D01*
X172872380Y-74397619D01*
X172872380Y-74207142D01*
X172824761Y-74111904D01*
X172777142Y-74064285D01*
X172681904Y-74016666D01*
X172443809Y-74016666D01*
X172348571Y-74064285D01*
X172300952Y-74111904D01*
X172253333Y-74207142D01*
X172253333Y-74397619D01*
X172300952Y-74492857D01*
X172348571Y-74540476D01*
X172443809Y-74588095D01*
X171872380Y-73397619D02*
X171872380Y-73302380D01*
X171920000Y-73207142D01*
X171967619Y-73159523D01*
X172062857Y-73111904D01*
X172253333Y-73064285D01*
X172491428Y-73064285D01*
X172681904Y-73111904D01*
X172777142Y-73159523D01*
X172824761Y-73207142D01*
X172872380Y-73302380D01*
X172872380Y-73397619D01*
X172824761Y-73492857D01*
X172777142Y-73540476D01*
X172681904Y-73588095D01*
X172491428Y-73635714D01*
X172253333Y-73635714D01*
X172062857Y-73588095D01*
X171967619Y-73540476D01*
X171920000Y-73492857D01*
X171872380Y-73397619D01*
X172205714Y-72635714D02*
X173205714Y-72635714D01*
X172253333Y-72635714D02*
X172205714Y-72540476D01*
X172205714Y-72350000D01*
X172253333Y-72254761D01*
X172300952Y-72207142D01*
X172396190Y-72159523D01*
X172681904Y-72159523D01*
X172777142Y-72207142D01*
X172824761Y-72254761D01*
X172872380Y-72350000D01*
X172872380Y-72540476D01*
X172824761Y-72635714D01*
D14*
X173992857Y-74107142D02*
X174011904Y-74126190D01*
X174030952Y-74183333D01*
X174030952Y-74221428D01*
X174011904Y-74278571D01*
X173973809Y-74316666D01*
X173935714Y-74335714D01*
X173859523Y-74354761D01*
X173802380Y-74354761D01*
X173726190Y-74335714D01*
X173688095Y-74316666D01*
X173650000Y-74278571D01*
X173630952Y-74221428D01*
X173630952Y-74183333D01*
X173650000Y-74126190D01*
X173669047Y-74107142D01*
X173669047Y-73954761D02*
X173650000Y-73935714D01*
X173630952Y-73897619D01*
X173630952Y-73802380D01*
X173650000Y-73764285D01*
X173669047Y-73745238D01*
X173707142Y-73726190D01*
X173745238Y-73726190D01*
X173802380Y-73745238D01*
X174030952Y-73973809D01*
X174030952Y-73726190D01*
X173630952Y-73478571D02*
X173630952Y-73440476D01*
X173650000Y-73402380D01*
X173669047Y-73383333D01*
X173707142Y-73364285D01*
X173783333Y-73345238D01*
X173878571Y-73345238D01*
X173954761Y-73364285D01*
X173992857Y-73383333D01*
X174011904Y-73402380D01*
X174030952Y-73440476D01*
X174030952Y-73478571D01*
X174011904Y-73516666D01*
X173992857Y-73535714D01*
X173954761Y-73554761D01*
X173878571Y-73573809D01*
X173783333Y-73573809D01*
X173707142Y-73554761D01*
X173669047Y-73535714D01*
X173650000Y-73516666D01*
X173630952Y-73478571D01*
D11*
X208032380Y-108769047D02*
X208032380Y-109340476D01*
X208032380Y-109054761D02*
X207032380Y-109054761D01*
X207175238Y-109150000D01*
X207270476Y-109245238D01*
X207318095Y-109340476D01*
X207032380Y-108150000D02*
X207032380Y-108054761D01*
X207080000Y-107959523D01*
X207127619Y-107911904D01*
X207222857Y-107864285D01*
X207413333Y-107816666D01*
X207651428Y-107816666D01*
X207841904Y-107864285D01*
X207937142Y-107911904D01*
X207984761Y-107959523D01*
X208032380Y-108054761D01*
X208032380Y-108150000D01*
X207984761Y-108245238D01*
X207937142Y-108292857D01*
X207841904Y-108340476D01*
X207651428Y-108388095D01*
X207413333Y-108388095D01*
X207222857Y-108340476D01*
X207127619Y-108292857D01*
X207080000Y-108245238D01*
X207032380Y-108150000D01*
X207032380Y-107197619D02*
X207032380Y-107102380D01*
X207080000Y-107007142D01*
X207127619Y-106959523D01*
X207222857Y-106911904D01*
X207413333Y-106864285D01*
X207651428Y-106864285D01*
X207841904Y-106911904D01*
X207937142Y-106959523D01*
X207984761Y-107007142D01*
X208032380Y-107102380D01*
X208032380Y-107197619D01*
X207984761Y-107292857D01*
X207937142Y-107340476D01*
X207841904Y-107388095D01*
X207651428Y-107435714D01*
X207413333Y-107435714D01*
X207222857Y-107388095D01*
X207127619Y-107340476D01*
X207080000Y-107292857D01*
X207032380Y-107197619D01*
X207365714Y-106435714D02*
X208032380Y-106435714D01*
X207460952Y-106435714D02*
X207413333Y-106388095D01*
X207365714Y-106292857D01*
X207365714Y-106150000D01*
X207413333Y-106054761D01*
X207508571Y-106007142D01*
X208032380Y-106007142D01*
D14*
X206292857Y-107907142D02*
X206311904Y-107926190D01*
X206330952Y-107983333D01*
X206330952Y-108021428D01*
X206311904Y-108078571D01*
X206273809Y-108116666D01*
X206235714Y-108135714D01*
X206159523Y-108154761D01*
X206102380Y-108154761D01*
X206026190Y-108135714D01*
X205988095Y-108116666D01*
X205950000Y-108078571D01*
X205930952Y-108021428D01*
X205930952Y-107983333D01*
X205950000Y-107926190D01*
X205969047Y-107907142D01*
X205969047Y-107754761D02*
X205950000Y-107735714D01*
X205930952Y-107697619D01*
X205930952Y-107602380D01*
X205950000Y-107564285D01*
X205969047Y-107545238D01*
X206007142Y-107526190D01*
X206045238Y-107526190D01*
X206102380Y-107545238D01*
X206330952Y-107773809D01*
X206330952Y-107526190D01*
X206330952Y-107145238D02*
X206330952Y-107373809D01*
X206330952Y-107259523D02*
X205930952Y-107259523D01*
X205988095Y-107297619D01*
X206026190Y-107335714D01*
X206045238Y-107373809D01*
D11*
X198172380Y-114769047D02*
X198172380Y-115340476D01*
X198172380Y-115054761D02*
X197172380Y-115054761D01*
X197315238Y-115150000D01*
X197410476Y-115245238D01*
X197458095Y-115340476D01*
X197172380Y-114150000D02*
X197172380Y-114054761D01*
X197220000Y-113959523D01*
X197267619Y-113911904D01*
X197362857Y-113864285D01*
X197553333Y-113816666D01*
X197791428Y-113816666D01*
X197981904Y-113864285D01*
X198077142Y-113911904D01*
X198124761Y-113959523D01*
X198172380Y-114054761D01*
X198172380Y-114150000D01*
X198124761Y-114245238D01*
X198077142Y-114292857D01*
X197981904Y-114340476D01*
X197791428Y-114388095D01*
X197553333Y-114388095D01*
X197362857Y-114340476D01*
X197267619Y-114292857D01*
X197220000Y-114245238D01*
X197172380Y-114150000D01*
X197172380Y-113197619D02*
X197172380Y-113102380D01*
X197220000Y-113007142D01*
X197267619Y-112959523D01*
X197362857Y-112911904D01*
X197553333Y-112864285D01*
X197791428Y-112864285D01*
X197981904Y-112911904D01*
X198077142Y-112959523D01*
X198124761Y-113007142D01*
X198172380Y-113102380D01*
X198172380Y-113197619D01*
X198124761Y-113292857D01*
X198077142Y-113340476D01*
X197981904Y-113388095D01*
X197791428Y-113435714D01*
X197553333Y-113435714D01*
X197362857Y-113388095D01*
X197267619Y-113340476D01*
X197220000Y-113292857D01*
X197172380Y-113197619D01*
X197505714Y-112435714D02*
X198172380Y-112435714D01*
X197600952Y-112435714D02*
X197553333Y-112388095D01*
X197505714Y-112292857D01*
X197505714Y-112150000D01*
X197553333Y-112054761D01*
X197648571Y-112007142D01*
X198172380Y-112007142D01*
D14*
X199292857Y-113907142D02*
X199311904Y-113926190D01*
X199330952Y-113983333D01*
X199330952Y-114021428D01*
X199311904Y-114078571D01*
X199273809Y-114116666D01*
X199235714Y-114135714D01*
X199159523Y-114154761D01*
X199102380Y-114154761D01*
X199026190Y-114135714D01*
X198988095Y-114116666D01*
X198950000Y-114078571D01*
X198930952Y-114021428D01*
X198930952Y-113983333D01*
X198950000Y-113926190D01*
X198969047Y-113907142D01*
X198969047Y-113754761D02*
X198950000Y-113735714D01*
X198930952Y-113697619D01*
X198930952Y-113602380D01*
X198950000Y-113564285D01*
X198969047Y-113545238D01*
X199007142Y-113526190D01*
X199045238Y-113526190D01*
X199102380Y-113545238D01*
X199330952Y-113773809D01*
X199330952Y-113526190D01*
X198969047Y-113373809D02*
X198950000Y-113354761D01*
X198930952Y-113316666D01*
X198930952Y-113221428D01*
X198950000Y-113183333D01*
X198969047Y-113164285D01*
X199007142Y-113145238D01*
X199045238Y-113145238D01*
X199102380Y-113164285D01*
X199330952Y-113392857D01*
X199330952Y-113145238D01*
D11*
X195532380Y-110911904D02*
X195532380Y-110292857D01*
X195913333Y-110626190D01*
X195913333Y-110483333D01*
X195960952Y-110388095D01*
X196008571Y-110340476D01*
X196103809Y-110292857D01*
X196341904Y-110292857D01*
X196437142Y-110340476D01*
X196484761Y-110388095D01*
X196532380Y-110483333D01*
X196532380Y-110769047D01*
X196484761Y-110864285D01*
X196437142Y-110911904D01*
X195532380Y-109959523D02*
X195532380Y-109340476D01*
X195913333Y-109673809D01*
X195913333Y-109530952D01*
X195960952Y-109435714D01*
X196008571Y-109388095D01*
X196103809Y-109340476D01*
X196341904Y-109340476D01*
X196437142Y-109388095D01*
X196484761Y-109435714D01*
X196532380Y-109530952D01*
X196532380Y-109816666D01*
X196484761Y-109911904D01*
X196437142Y-109959523D01*
X195865714Y-108911904D02*
X196865714Y-108911904D01*
X195913333Y-108911904D02*
X195865714Y-108816666D01*
X195865714Y-108626190D01*
X195913333Y-108530952D01*
X195960952Y-108483333D01*
X196056190Y-108435714D01*
X196341904Y-108435714D01*
X196437142Y-108483333D01*
X196484761Y-108530952D01*
X196532380Y-108626190D01*
X196532380Y-108816666D01*
X196484761Y-108911904D01*
D14*
X194792857Y-109907142D02*
X194811904Y-109926190D01*
X194830952Y-109983333D01*
X194830952Y-110021428D01*
X194811904Y-110078571D01*
X194773809Y-110116666D01*
X194735714Y-110135714D01*
X194659523Y-110154761D01*
X194602380Y-110154761D01*
X194526190Y-110135714D01*
X194488095Y-110116666D01*
X194450000Y-110078571D01*
X194430952Y-110021428D01*
X194430952Y-109983333D01*
X194450000Y-109926190D01*
X194469047Y-109907142D01*
X194469047Y-109754761D02*
X194450000Y-109735714D01*
X194430952Y-109697619D01*
X194430952Y-109602380D01*
X194450000Y-109564285D01*
X194469047Y-109545238D01*
X194507142Y-109526190D01*
X194545238Y-109526190D01*
X194602380Y-109545238D01*
X194830952Y-109773809D01*
X194830952Y-109526190D01*
X194430952Y-109392857D02*
X194430952Y-109145238D01*
X194583333Y-109278571D01*
X194583333Y-109221428D01*
X194602380Y-109183333D01*
X194621428Y-109164285D01*
X194659523Y-109145238D01*
X194754761Y-109145238D01*
X194792857Y-109164285D01*
X194811904Y-109183333D01*
X194830952Y-109221428D01*
X194830952Y-109335714D01*
X194811904Y-109373809D01*
X194792857Y-109392857D01*
D11*
X210422380Y-113914285D02*
X209422380Y-113914285D01*
X209422380Y-113676190D01*
X209470000Y-113533333D01*
X209565238Y-113438095D01*
X209660476Y-113390476D01*
X209850952Y-113342857D01*
X209993809Y-113342857D01*
X210184285Y-113390476D01*
X210279523Y-113438095D01*
X210374761Y-113533333D01*
X210422380Y-113676190D01*
X210422380Y-113914285D01*
X210422380Y-112914285D02*
X209422380Y-112914285D01*
X210422380Y-112342857D01*
X209422380Y-112342857D01*
X209898571Y-111533333D02*
X209898571Y-111866666D01*
X210422380Y-111866666D02*
X209422380Y-111866666D01*
X209422380Y-111390476D01*
D14*
X211542857Y-112957142D02*
X211561904Y-112976190D01*
X211580952Y-113033333D01*
X211580952Y-113071428D01*
X211561904Y-113128571D01*
X211523809Y-113166666D01*
X211485714Y-113185714D01*
X211409523Y-113204761D01*
X211352380Y-113204761D01*
X211276190Y-113185714D01*
X211238095Y-113166666D01*
X211200000Y-113128571D01*
X211180952Y-113071428D01*
X211180952Y-113033333D01*
X211200000Y-112976190D01*
X211219047Y-112957142D01*
X211219047Y-112804761D02*
X211200000Y-112785714D01*
X211180952Y-112747619D01*
X211180952Y-112652380D01*
X211200000Y-112614285D01*
X211219047Y-112595238D01*
X211257142Y-112576190D01*
X211295238Y-112576190D01*
X211352380Y-112595238D01*
X211580952Y-112823809D01*
X211580952Y-112576190D01*
X211314285Y-112233333D02*
X211580952Y-112233333D01*
X211161904Y-112328571D02*
X211447619Y-112423809D01*
X211447619Y-112176190D01*
D11*
X224266666Y-79452380D02*
X224266666Y-80166666D01*
X224219047Y-80309523D01*
X224123809Y-80404761D01*
X223980952Y-80452380D01*
X223885714Y-80452380D01*
X225266666Y-80452380D02*
X224695238Y-80452380D01*
X224980952Y-80452380D02*
X224980952Y-79452380D01*
X224885714Y-79595238D01*
X224790476Y-79690476D01*
X224695238Y-79738095D01*
X224266666Y-64352380D02*
X224266666Y-65066666D01*
X224219047Y-65209523D01*
X224123809Y-65304761D01*
X223980952Y-65352380D01*
X223885714Y-65352380D01*
X224695238Y-64447619D02*
X224742857Y-64400000D01*
X224838095Y-64352380D01*
X225076190Y-64352380D01*
X225171428Y-64400000D01*
X225219047Y-64447619D01*
X225266666Y-64542857D01*
X225266666Y-64638095D01*
X225219047Y-64780952D01*
X224647619Y-65352380D01*
X225266666Y-65352380D01*
X199352380Y-107500000D02*
X198352380Y-107500000D01*
X198685714Y-107023809D02*
X199352380Y-107023809D01*
X198780952Y-107023809D02*
X198733333Y-106976190D01*
X198685714Y-106880952D01*
X198685714Y-106738095D01*
X198733333Y-106642857D01*
X198828571Y-106595238D01*
X199352380Y-106595238D01*
X198685714Y-106214285D02*
X199352380Y-105976190D01*
X198685714Y-105738095D01*
X199304761Y-104976190D02*
X199352380Y-105071428D01*
X199352380Y-105261904D01*
X199304761Y-105357142D01*
X199209523Y-105404761D01*
X198828571Y-105404761D01*
X198733333Y-105357142D01*
X198685714Y-105261904D01*
X198685714Y-105071428D01*
X198733333Y-104976190D01*
X198828571Y-104928571D01*
X198923809Y-104928571D01*
X199019047Y-105404761D01*
X199352380Y-104500000D02*
X198685714Y-104500000D01*
X198876190Y-104500000D02*
X198780952Y-104452380D01*
X198733333Y-104404761D01*
X198685714Y-104309523D01*
X198685714Y-104214285D01*
X198685714Y-104023809D02*
X198685714Y-103642857D01*
X198352380Y-103880952D02*
X199209523Y-103880952D01*
X199304761Y-103833333D01*
X199352380Y-103738095D01*
X199352380Y-103642857D01*
X199352380Y-103309523D02*
X198685714Y-103309523D01*
X198352380Y-103309523D02*
X198400000Y-103357142D01*
X198447619Y-103309523D01*
X198400000Y-103261904D01*
X198352380Y-103309523D01*
X198447619Y-103309523D01*
X198685714Y-102833333D02*
X199352380Y-102833333D01*
X198780952Y-102833333D02*
X198733333Y-102785714D01*
X198685714Y-102690476D01*
X198685714Y-102547619D01*
X198733333Y-102452380D01*
X198828571Y-102404761D01*
X199352380Y-102404761D01*
X198685714Y-101500000D02*
X199495238Y-101500000D01*
X199590476Y-101547619D01*
X199638095Y-101595238D01*
X199685714Y-101690476D01*
X199685714Y-101833333D01*
X199638095Y-101928571D01*
X199304761Y-101500000D02*
X199352380Y-101595238D01*
X199352380Y-101785714D01*
X199304761Y-101880952D01*
X199257142Y-101928571D01*
X199161904Y-101976190D01*
X198876190Y-101976190D01*
X198780952Y-101928571D01*
X198733333Y-101880952D01*
X198685714Y-101785714D01*
X198685714Y-101595238D01*
X198733333Y-101500000D01*
X86619047Y-58032380D02*
X86142857Y-58032380D01*
X86142857Y-57032380D01*
X87095238Y-58032380D02*
X87000000Y-57984761D01*
X86952380Y-57937142D01*
X86904761Y-57841904D01*
X86904761Y-57556190D01*
X86952380Y-57460952D01*
X87000000Y-57413333D01*
X87095238Y-57365714D01*
X87238095Y-57365714D01*
X87333333Y-57413333D01*
X87380952Y-57460952D01*
X87428571Y-57556190D01*
X87428571Y-57841904D01*
X87380952Y-57937142D01*
X87333333Y-57984761D01*
X87238095Y-58032380D01*
X87095238Y-58032380D01*
X88285714Y-57365714D02*
X88285714Y-58175238D01*
X88238095Y-58270476D01*
X88190476Y-58318095D01*
X88095238Y-58365714D01*
X87952380Y-58365714D01*
X87857142Y-58318095D01*
X88285714Y-57984761D02*
X88190476Y-58032380D01*
X88000000Y-58032380D01*
X87904761Y-57984761D01*
X87857142Y-57937142D01*
X87809523Y-57841904D01*
X87809523Y-57556190D01*
X87857142Y-57460952D01*
X87904761Y-57413333D01*
X88000000Y-57365714D01*
X88190476Y-57365714D01*
X88285714Y-57413333D01*
X88904761Y-58032380D02*
X88809523Y-57984761D01*
X88761904Y-57937142D01*
X88714285Y-57841904D01*
X88714285Y-57556190D01*
X88761904Y-57460952D01*
X88809523Y-57413333D01*
X88904761Y-57365714D01*
X89047619Y-57365714D01*
X89142857Y-57413333D01*
X89190476Y-57460952D01*
X89238095Y-57556190D01*
X89238095Y-57841904D01*
X89190476Y-57937142D01*
X89142857Y-57984761D01*
X89047619Y-58032380D01*
X88904761Y-58032380D01*
X89428571Y-58127619D02*
X90190476Y-58127619D01*
X90380952Y-57746666D02*
X90857142Y-57746666D01*
X90285714Y-58032380D02*
X90619047Y-57032380D01*
X90952380Y-58032380D01*
X91285714Y-58032380D02*
X91285714Y-57032380D01*
X91666666Y-57032380D01*
X91761904Y-57080000D01*
X91809523Y-57127619D01*
X91857142Y-57222857D01*
X91857142Y-57365714D01*
X91809523Y-57460952D01*
X91761904Y-57508571D01*
X91666666Y-57556190D01*
X91285714Y-57556190D01*
X92952380Y-58127619D02*
X92857142Y-58080000D01*
X92761904Y-57984761D01*
X92619047Y-57841904D01*
X92523809Y-57794285D01*
X92428571Y-57794285D01*
X92476190Y-58032380D02*
X92380952Y-57984761D01*
X92285714Y-57889523D01*
X92238095Y-57699047D01*
X92238095Y-57365714D01*
X92285714Y-57175238D01*
X92380952Y-57080000D01*
X92476190Y-57032380D01*
X92666666Y-57032380D01*
X92761904Y-57080000D01*
X92857142Y-57175238D01*
X92904761Y-57365714D01*
X92904761Y-57699047D01*
X92857142Y-57889523D01*
X92761904Y-57984761D01*
X92666666Y-58032380D01*
X92476190Y-58032380D01*
X113115714Y-102104761D02*
X113782380Y-102104761D01*
X112734761Y-102342857D02*
X113449047Y-102580952D01*
X113449047Y-101961904D01*
X113782380Y-101533333D02*
X113782380Y-101342857D01*
X113734761Y-101247619D01*
X113687142Y-101200000D01*
X113544285Y-101104761D01*
X113353809Y-101057142D01*
X112972857Y-101057142D01*
X112877619Y-101104761D01*
X112830000Y-101152380D01*
X112782380Y-101247619D01*
X112782380Y-101438095D01*
X112830000Y-101533333D01*
X112877619Y-101580952D01*
X112972857Y-101628571D01*
X113210952Y-101628571D01*
X113306190Y-101580952D01*
X113353809Y-101533333D01*
X113401428Y-101438095D01*
X113401428Y-101247619D01*
X113353809Y-101152380D01*
X113306190Y-101104761D01*
X113210952Y-101057142D01*
X113687142Y-100628571D02*
X113734761Y-100580952D01*
X113782380Y-100628571D01*
X113734761Y-100676190D01*
X113687142Y-100628571D01*
X113782380Y-100628571D01*
X113782380Y-100104761D02*
X113782380Y-99914285D01*
X113734761Y-99819047D01*
X113687142Y-99771428D01*
X113544285Y-99676190D01*
X113353809Y-99628571D01*
X112972857Y-99628571D01*
X112877619Y-99676190D01*
X112830000Y-99723809D01*
X112782380Y-99819047D01*
X112782380Y-100009523D01*
X112830000Y-100104761D01*
X112877619Y-100152380D01*
X112972857Y-100200000D01*
X113210952Y-100200000D01*
X113306190Y-100152380D01*
X113353809Y-100104761D01*
X113401428Y-100009523D01*
X113401428Y-99819047D01*
X113353809Y-99723809D01*
X113306190Y-99676190D01*
X113210952Y-99628571D01*
X113782380Y-99200000D02*
X112782380Y-99200000D01*
X113401428Y-99104761D02*
X113782380Y-98819047D01*
X113115714Y-98819047D02*
X113496666Y-99200000D01*
D14*
X112080952Y-100766666D02*
X111890476Y-100900000D01*
X112080952Y-100995238D02*
X111680952Y-100995238D01*
X111680952Y-100842857D01*
X111700000Y-100804761D01*
X111719047Y-100785714D01*
X111757142Y-100766666D01*
X111814285Y-100766666D01*
X111852380Y-100785714D01*
X111871428Y-100804761D01*
X111890476Y-100842857D01*
X111890476Y-100995238D01*
X112080952Y-100385714D02*
X112080952Y-100614285D01*
X112080952Y-100500000D02*
X111680952Y-100500000D01*
X111738095Y-100538095D01*
X111776190Y-100576190D01*
X111795238Y-100614285D01*
D11*
X107345238Y-111015714D02*
X107345238Y-111682380D01*
X107107142Y-110634761D02*
X106869047Y-111349047D01*
X107488095Y-111349047D01*
X107916666Y-111682380D02*
X108107142Y-111682380D01*
X108202380Y-111634761D01*
X108250000Y-111587142D01*
X108345238Y-111444285D01*
X108392857Y-111253809D01*
X108392857Y-110872857D01*
X108345238Y-110777619D01*
X108297619Y-110730000D01*
X108202380Y-110682380D01*
X108011904Y-110682380D01*
X107916666Y-110730000D01*
X107869047Y-110777619D01*
X107821428Y-110872857D01*
X107821428Y-111110952D01*
X107869047Y-111206190D01*
X107916666Y-111253809D01*
X108011904Y-111301428D01*
X108202380Y-111301428D01*
X108297619Y-111253809D01*
X108345238Y-111206190D01*
X108392857Y-111110952D01*
X108821428Y-111587142D02*
X108869047Y-111634761D01*
X108821428Y-111682380D01*
X108773809Y-111634761D01*
X108821428Y-111587142D01*
X108821428Y-111682380D01*
X109345238Y-111682380D02*
X109535714Y-111682380D01*
X109630952Y-111634761D01*
X109678571Y-111587142D01*
X109773809Y-111444285D01*
X109821428Y-111253809D01*
X109821428Y-110872857D01*
X109773809Y-110777619D01*
X109726190Y-110730000D01*
X109630952Y-110682380D01*
X109440476Y-110682380D01*
X109345238Y-110730000D01*
X109297619Y-110777619D01*
X109250000Y-110872857D01*
X109250000Y-111110952D01*
X109297619Y-111206190D01*
X109345238Y-111253809D01*
X109440476Y-111301428D01*
X109630952Y-111301428D01*
X109726190Y-111253809D01*
X109773809Y-111206190D01*
X109821428Y-111110952D01*
X110250000Y-111682380D02*
X110250000Y-110682380D01*
X110345238Y-111301428D02*
X110630952Y-111682380D01*
X110630952Y-111015714D02*
X110250000Y-111396666D01*
D14*
X108683333Y-109980952D02*
X108550000Y-109790476D01*
X108454761Y-109980952D02*
X108454761Y-109580952D01*
X108607142Y-109580952D01*
X108645238Y-109600000D01*
X108664285Y-109619047D01*
X108683333Y-109657142D01*
X108683333Y-109714285D01*
X108664285Y-109752380D01*
X108645238Y-109771428D01*
X108607142Y-109790476D01*
X108454761Y-109790476D01*
X108835714Y-109619047D02*
X108854761Y-109600000D01*
X108892857Y-109580952D01*
X108988095Y-109580952D01*
X109026190Y-109600000D01*
X109045238Y-109619047D01*
X109064285Y-109657142D01*
X109064285Y-109695238D01*
X109045238Y-109752380D01*
X108816666Y-109980952D01*
X109064285Y-109980952D01*
D11*
X184967619Y-68588095D02*
X184920000Y-68540476D01*
X184872380Y-68445238D01*
X184872380Y-68207142D01*
X184920000Y-68111904D01*
X184967619Y-68064285D01*
X185062857Y-68016666D01*
X185158095Y-68016666D01*
X185300952Y-68064285D01*
X185872380Y-68635714D01*
X185872380Y-68016666D01*
X184872380Y-67397619D02*
X184872380Y-67302380D01*
X184920000Y-67207142D01*
X184967619Y-67159523D01*
X185062857Y-67111904D01*
X185253333Y-67064285D01*
X185491428Y-67064285D01*
X185681904Y-67111904D01*
X185777142Y-67159523D01*
X185824761Y-67207142D01*
X185872380Y-67302380D01*
X185872380Y-67397619D01*
X185824761Y-67492857D01*
X185777142Y-67540476D01*
X185681904Y-67588095D01*
X185491428Y-67635714D01*
X185253333Y-67635714D01*
X185062857Y-67588095D01*
X184967619Y-67540476D01*
X184920000Y-67492857D01*
X184872380Y-67397619D01*
X184872380Y-66445238D02*
X184872380Y-66350000D01*
X184920000Y-66254761D01*
X184967619Y-66207142D01*
X185062857Y-66159523D01*
X185253333Y-66111904D01*
X185491428Y-66111904D01*
X185681904Y-66159523D01*
X185777142Y-66207142D01*
X185824761Y-66254761D01*
X185872380Y-66350000D01*
X185872380Y-66445238D01*
X185824761Y-66540476D01*
X185777142Y-66588095D01*
X185681904Y-66635714D01*
X185491428Y-66683333D01*
X185253333Y-66683333D01*
X185062857Y-66635714D01*
X184967619Y-66588095D01*
X184920000Y-66540476D01*
X184872380Y-66445238D01*
D14*
X187030952Y-67416666D02*
X186840476Y-67550000D01*
X187030952Y-67645238D02*
X186630952Y-67645238D01*
X186630952Y-67492857D01*
X186650000Y-67454761D01*
X186669047Y-67435714D01*
X186707142Y-67416666D01*
X186764285Y-67416666D01*
X186802380Y-67435714D01*
X186821428Y-67454761D01*
X186840476Y-67492857D01*
X186840476Y-67645238D01*
X186630952Y-67283333D02*
X186630952Y-67035714D01*
X186783333Y-67169047D01*
X186783333Y-67111904D01*
X186802380Y-67073809D01*
X186821428Y-67054761D01*
X186859523Y-67035714D01*
X186954761Y-67035714D01*
X186992857Y-67054761D01*
X187011904Y-67073809D01*
X187030952Y-67111904D01*
X187030952Y-67226190D01*
X187011904Y-67264285D01*
X186992857Y-67283333D01*
D11*
X185327619Y-77488095D02*
X185280000Y-77440476D01*
X185232380Y-77345238D01*
X185232380Y-77107142D01*
X185280000Y-77011904D01*
X185327619Y-76964285D01*
X185422857Y-76916666D01*
X185518095Y-76916666D01*
X185660952Y-76964285D01*
X186232380Y-77535714D01*
X186232380Y-76916666D01*
X185232380Y-76297619D02*
X185232380Y-76202380D01*
X185280000Y-76107142D01*
X185327619Y-76059523D01*
X185422857Y-76011904D01*
X185613333Y-75964285D01*
X185851428Y-75964285D01*
X186041904Y-76011904D01*
X186137142Y-76059523D01*
X186184761Y-76107142D01*
X186232380Y-76202380D01*
X186232380Y-76297619D01*
X186184761Y-76392857D01*
X186137142Y-76440476D01*
X186041904Y-76488095D01*
X185851428Y-76535714D01*
X185613333Y-76535714D01*
X185422857Y-76488095D01*
X185327619Y-76440476D01*
X185280000Y-76392857D01*
X185232380Y-76297619D01*
X185232380Y-75345238D02*
X185232380Y-75250000D01*
X185280000Y-75154761D01*
X185327619Y-75107142D01*
X185422857Y-75059523D01*
X185613333Y-75011904D01*
X185851428Y-75011904D01*
X186041904Y-75059523D01*
X186137142Y-75107142D01*
X186184761Y-75154761D01*
X186232380Y-75250000D01*
X186232380Y-75345238D01*
X186184761Y-75440476D01*
X186137142Y-75488095D01*
X186041904Y-75535714D01*
X185851428Y-75583333D01*
X185613333Y-75583333D01*
X185422857Y-75535714D01*
X185327619Y-75488095D01*
X185280000Y-75440476D01*
X185232380Y-75345238D01*
D14*
X184530952Y-76316666D02*
X184340476Y-76450000D01*
X184530952Y-76545238D02*
X184130952Y-76545238D01*
X184130952Y-76392857D01*
X184150000Y-76354761D01*
X184169047Y-76335714D01*
X184207142Y-76316666D01*
X184264285Y-76316666D01*
X184302380Y-76335714D01*
X184321428Y-76354761D01*
X184340476Y-76392857D01*
X184340476Y-76545238D01*
X184264285Y-75973809D02*
X184530952Y-75973809D01*
X184111904Y-76069047D02*
X184397619Y-76164285D01*
X184397619Y-75916666D01*
D11*
X179617619Y-70688095D02*
X179570000Y-70640476D01*
X179522380Y-70545238D01*
X179522380Y-70307142D01*
X179570000Y-70211904D01*
X179617619Y-70164285D01*
X179712857Y-70116666D01*
X179808095Y-70116666D01*
X179950952Y-70164285D01*
X180522380Y-70735714D01*
X180522380Y-70116666D01*
X179522380Y-69497619D02*
X179522380Y-69402380D01*
X179570000Y-69307142D01*
X179617619Y-69259523D01*
X179712857Y-69211904D01*
X179903333Y-69164285D01*
X180141428Y-69164285D01*
X180331904Y-69211904D01*
X180427142Y-69259523D01*
X180474761Y-69307142D01*
X180522380Y-69402380D01*
X180522380Y-69497619D01*
X180474761Y-69592857D01*
X180427142Y-69640476D01*
X180331904Y-69688095D01*
X180141428Y-69735714D01*
X179903333Y-69735714D01*
X179712857Y-69688095D01*
X179617619Y-69640476D01*
X179570000Y-69592857D01*
X179522380Y-69497619D01*
X179522380Y-68545238D02*
X179522380Y-68450000D01*
X179570000Y-68354761D01*
X179617619Y-68307142D01*
X179712857Y-68259523D01*
X179903333Y-68211904D01*
X180141428Y-68211904D01*
X180331904Y-68259523D01*
X180427142Y-68307142D01*
X180474761Y-68354761D01*
X180522380Y-68450000D01*
X180522380Y-68545238D01*
X180474761Y-68640476D01*
X180427142Y-68688095D01*
X180331904Y-68735714D01*
X180141428Y-68783333D01*
X179903333Y-68783333D01*
X179712857Y-68735714D01*
X179617619Y-68688095D01*
X179570000Y-68640476D01*
X179522380Y-68545238D01*
D14*
X181680952Y-69516666D02*
X181490476Y-69650000D01*
X181680952Y-69745238D02*
X181280952Y-69745238D01*
X181280952Y-69592857D01*
X181300000Y-69554761D01*
X181319047Y-69535714D01*
X181357142Y-69516666D01*
X181414285Y-69516666D01*
X181452380Y-69535714D01*
X181471428Y-69554761D01*
X181490476Y-69592857D01*
X181490476Y-69745238D01*
X181280952Y-69154761D02*
X181280952Y-69345238D01*
X181471428Y-69364285D01*
X181452380Y-69345238D01*
X181433333Y-69307142D01*
X181433333Y-69211904D01*
X181452380Y-69173809D01*
X181471428Y-69154761D01*
X181509523Y-69135714D01*
X181604761Y-69135714D01*
X181642857Y-69154761D01*
X181661904Y-69173809D01*
X181680952Y-69211904D01*
X181680952Y-69307142D01*
X181661904Y-69345238D01*
X181642857Y-69364285D01*
D11*
X188177619Y-78361904D02*
X188130000Y-78314285D01*
X188082380Y-78219047D01*
X188082380Y-77980952D01*
X188130000Y-77885714D01*
X188177619Y-77838095D01*
X188272857Y-77790476D01*
X188368095Y-77790476D01*
X188510952Y-77838095D01*
X189082380Y-78409523D01*
X189082380Y-77790476D01*
X188082380Y-77171428D02*
X188082380Y-77076190D01*
X188130000Y-76980952D01*
X188177619Y-76933333D01*
X188272857Y-76885714D01*
X188463333Y-76838095D01*
X188701428Y-76838095D01*
X188891904Y-76885714D01*
X188987142Y-76933333D01*
X189034761Y-76980952D01*
X189082380Y-77076190D01*
X189082380Y-77171428D01*
X189034761Y-77266666D01*
X188987142Y-77314285D01*
X188891904Y-77361904D01*
X188701428Y-77409523D01*
X188463333Y-77409523D01*
X188272857Y-77361904D01*
X188177619Y-77314285D01*
X188130000Y-77266666D01*
X188082380Y-77171428D01*
D14*
X187380952Y-77666666D02*
X187190476Y-77800000D01*
X187380952Y-77895238D02*
X186980952Y-77895238D01*
X186980952Y-77742857D01*
X187000000Y-77704761D01*
X187019047Y-77685714D01*
X187057142Y-77666666D01*
X187114285Y-77666666D01*
X187152380Y-77685714D01*
X187171428Y-77704761D01*
X187190476Y-77742857D01*
X187190476Y-77895238D01*
X186980952Y-77323809D02*
X186980952Y-77400000D01*
X187000000Y-77438095D01*
X187019047Y-77457142D01*
X187076190Y-77495238D01*
X187152380Y-77514285D01*
X187304761Y-77514285D01*
X187342857Y-77495238D01*
X187361904Y-77476190D01*
X187380952Y-77438095D01*
X187380952Y-77361904D01*
X187361904Y-77323809D01*
X187342857Y-77304761D01*
X187304761Y-77285714D01*
X187209523Y-77285714D01*
X187171428Y-77304761D01*
X187152380Y-77323809D01*
X187133333Y-77361904D01*
X187133333Y-77438095D01*
X187152380Y-77476190D01*
X187171428Y-77495238D01*
X187209523Y-77514285D01*
D11*
X181438095Y-74127619D02*
X181485714Y-74080000D01*
X181580952Y-74032380D01*
X181819047Y-74032380D01*
X181914285Y-74080000D01*
X181961904Y-74127619D01*
X182009523Y-74222857D01*
X182009523Y-74318095D01*
X181961904Y-74460952D01*
X181390476Y-75032380D01*
X182009523Y-75032380D01*
X182628571Y-74032380D02*
X182723809Y-74032380D01*
X182819047Y-74080000D01*
X182866666Y-74127619D01*
X182914285Y-74222857D01*
X182961904Y-74413333D01*
X182961904Y-74651428D01*
X182914285Y-74841904D01*
X182866666Y-74937142D01*
X182819047Y-74984761D01*
X182723809Y-75032380D01*
X182628571Y-75032380D01*
X182533333Y-74984761D01*
X182485714Y-74937142D01*
X182438095Y-74841904D01*
X182390476Y-74651428D01*
X182390476Y-74413333D01*
X182438095Y-74222857D01*
X182485714Y-74127619D01*
X182533333Y-74080000D01*
X182628571Y-74032380D01*
D14*
X182133333Y-73330952D02*
X182000000Y-73140476D01*
X181904761Y-73330952D02*
X181904761Y-72930952D01*
X182057142Y-72930952D01*
X182095238Y-72950000D01*
X182114285Y-72969047D01*
X182133333Y-73007142D01*
X182133333Y-73064285D01*
X182114285Y-73102380D01*
X182095238Y-73121428D01*
X182057142Y-73140476D01*
X181904761Y-73140476D01*
X182266666Y-72930952D02*
X182533333Y-72930952D01*
X182361904Y-73330952D01*
D11*
X176761904Y-76477619D02*
X176809523Y-76430000D01*
X176904761Y-76382380D01*
X177142857Y-76382380D01*
X177238095Y-76430000D01*
X177285714Y-76477619D01*
X177333333Y-76572857D01*
X177333333Y-76668095D01*
X177285714Y-76810952D01*
X176714285Y-77382380D01*
X177333333Y-77382380D01*
X177952380Y-76382380D02*
X178047619Y-76382380D01*
X178142857Y-76430000D01*
X178190476Y-76477619D01*
X178238095Y-76572857D01*
X178285714Y-76763333D01*
X178285714Y-77001428D01*
X178238095Y-77191904D01*
X178190476Y-77287142D01*
X178142857Y-77334761D01*
X178047619Y-77382380D01*
X177952380Y-77382380D01*
X177857142Y-77334761D01*
X177809523Y-77287142D01*
X177761904Y-77191904D01*
X177714285Y-77001428D01*
X177714285Y-76763333D01*
X177761904Y-76572857D01*
X177809523Y-76477619D01*
X177857142Y-76430000D01*
X177952380Y-76382380D01*
X178904761Y-76382380D02*
X179000000Y-76382380D01*
X179095238Y-76430000D01*
X179142857Y-76477619D01*
X179190476Y-76572857D01*
X179238095Y-76763333D01*
X179238095Y-77001428D01*
X179190476Y-77191904D01*
X179142857Y-77287142D01*
X179095238Y-77334761D01*
X179000000Y-77382380D01*
X178904761Y-77382380D01*
X178809523Y-77334761D01*
X178761904Y-77287142D01*
X178714285Y-77191904D01*
X178666666Y-77001428D01*
X178666666Y-76763333D01*
X178714285Y-76572857D01*
X178761904Y-76477619D01*
X178809523Y-76430000D01*
X178904761Y-76382380D01*
D14*
X177933333Y-75680952D02*
X177800000Y-75490476D01*
X177704761Y-75680952D02*
X177704761Y-75280952D01*
X177857142Y-75280952D01*
X177895238Y-75300000D01*
X177914285Y-75319047D01*
X177933333Y-75357142D01*
X177933333Y-75414285D01*
X177914285Y-75452380D01*
X177895238Y-75471428D01*
X177857142Y-75490476D01*
X177704761Y-75490476D01*
X178161904Y-75452380D02*
X178123809Y-75433333D01*
X178104761Y-75414285D01*
X178085714Y-75376190D01*
X178085714Y-75357142D01*
X178104761Y-75319047D01*
X178123809Y-75300000D01*
X178161904Y-75280952D01*
X178238095Y-75280952D01*
X178276190Y-75300000D01*
X178295238Y-75319047D01*
X178314285Y-75357142D01*
X178314285Y-75376190D01*
X178295238Y-75414285D01*
X178276190Y-75433333D01*
X178238095Y-75452380D01*
X178161904Y-75452380D01*
X178123809Y-75471428D01*
X178104761Y-75490476D01*
X178085714Y-75528571D01*
X178085714Y-75604761D01*
X178104761Y-75642857D01*
X178123809Y-75661904D01*
X178161904Y-75680952D01*
X178238095Y-75680952D01*
X178276190Y-75661904D01*
X178295238Y-75642857D01*
X178314285Y-75604761D01*
X178314285Y-75528571D01*
X178295238Y-75490476D01*
X178276190Y-75471428D01*
X178238095Y-75452380D01*
D11*
X176811904Y-71177619D02*
X176859523Y-71130000D01*
X176954761Y-71082380D01*
X177192857Y-71082380D01*
X177288095Y-71130000D01*
X177335714Y-71177619D01*
X177383333Y-71272857D01*
X177383333Y-71368095D01*
X177335714Y-71510952D01*
X176764285Y-72082380D01*
X177383333Y-72082380D01*
X178002380Y-71082380D02*
X178097619Y-71082380D01*
X178192857Y-71130000D01*
X178240476Y-71177619D01*
X178288095Y-71272857D01*
X178335714Y-71463333D01*
X178335714Y-71701428D01*
X178288095Y-71891904D01*
X178240476Y-71987142D01*
X178192857Y-72034761D01*
X178097619Y-72082380D01*
X178002380Y-72082380D01*
X177907142Y-72034761D01*
X177859523Y-71987142D01*
X177811904Y-71891904D01*
X177764285Y-71701428D01*
X177764285Y-71463333D01*
X177811904Y-71272857D01*
X177859523Y-71177619D01*
X177907142Y-71130000D01*
X178002380Y-71082380D01*
X178954761Y-71082380D02*
X179050000Y-71082380D01*
X179145238Y-71130000D01*
X179192857Y-71177619D01*
X179240476Y-71272857D01*
X179288095Y-71463333D01*
X179288095Y-71701428D01*
X179240476Y-71891904D01*
X179192857Y-71987142D01*
X179145238Y-72034761D01*
X179050000Y-72082380D01*
X178954761Y-72082380D01*
X178859523Y-72034761D01*
X178811904Y-71987142D01*
X178764285Y-71891904D01*
X178716666Y-71701428D01*
X178716666Y-71463333D01*
X178764285Y-71272857D01*
X178811904Y-71177619D01*
X178859523Y-71130000D01*
X178954761Y-71082380D01*
D14*
X177983333Y-70380952D02*
X177850000Y-70190476D01*
X177754761Y-70380952D02*
X177754761Y-69980952D01*
X177907142Y-69980952D01*
X177945238Y-70000000D01*
X177964285Y-70019047D01*
X177983333Y-70057142D01*
X177983333Y-70114285D01*
X177964285Y-70152380D01*
X177945238Y-70171428D01*
X177907142Y-70190476D01*
X177754761Y-70190476D01*
X178173809Y-70380952D02*
X178250000Y-70380952D01*
X178288095Y-70361904D01*
X178307142Y-70342857D01*
X178345238Y-70285714D01*
X178364285Y-70209523D01*
X178364285Y-70057142D01*
X178345238Y-70019047D01*
X178326190Y-70000000D01*
X178288095Y-69980952D01*
X178211904Y-69980952D01*
X178173809Y-70000000D01*
X178154761Y-70019047D01*
X178135714Y-70057142D01*
X178135714Y-70152380D01*
X178154761Y-70190476D01*
X178173809Y-70209523D01*
X178211904Y-70228571D01*
X178288095Y-70228571D01*
X178326190Y-70209523D01*
X178345238Y-70190476D01*
X178364285Y-70152380D01*
D11*
X174827619Y-70588095D02*
X174780000Y-70540476D01*
X174732380Y-70445238D01*
X174732380Y-70207142D01*
X174780000Y-70111904D01*
X174827619Y-70064285D01*
X174922857Y-70016666D01*
X175018095Y-70016666D01*
X175160952Y-70064285D01*
X175732380Y-70635714D01*
X175732380Y-70016666D01*
X174732380Y-69397619D02*
X174732380Y-69302380D01*
X174780000Y-69207142D01*
X174827619Y-69159523D01*
X174922857Y-69111904D01*
X175113333Y-69064285D01*
X175351428Y-69064285D01*
X175541904Y-69111904D01*
X175637142Y-69159523D01*
X175684761Y-69207142D01*
X175732380Y-69302380D01*
X175732380Y-69397619D01*
X175684761Y-69492857D01*
X175637142Y-69540476D01*
X175541904Y-69588095D01*
X175351428Y-69635714D01*
X175113333Y-69635714D01*
X174922857Y-69588095D01*
X174827619Y-69540476D01*
X174780000Y-69492857D01*
X174732380Y-69397619D01*
X174732380Y-68445238D02*
X174732380Y-68350000D01*
X174780000Y-68254761D01*
X174827619Y-68207142D01*
X174922857Y-68159523D01*
X175113333Y-68111904D01*
X175351428Y-68111904D01*
X175541904Y-68159523D01*
X175637142Y-68207142D01*
X175684761Y-68254761D01*
X175732380Y-68350000D01*
X175732380Y-68445238D01*
X175684761Y-68540476D01*
X175637142Y-68588095D01*
X175541904Y-68635714D01*
X175351428Y-68683333D01*
X175113333Y-68683333D01*
X174922857Y-68635714D01*
X174827619Y-68588095D01*
X174780000Y-68540476D01*
X174732380Y-68445238D01*
D14*
X174030952Y-69607142D02*
X173840476Y-69740476D01*
X174030952Y-69835714D02*
X173630952Y-69835714D01*
X173630952Y-69683333D01*
X173650000Y-69645238D01*
X173669047Y-69626190D01*
X173707142Y-69607142D01*
X173764285Y-69607142D01*
X173802380Y-69626190D01*
X173821428Y-69645238D01*
X173840476Y-69683333D01*
X173840476Y-69835714D01*
X174030952Y-69226190D02*
X174030952Y-69454761D01*
X174030952Y-69340476D02*
X173630952Y-69340476D01*
X173688095Y-69378571D01*
X173726190Y-69416666D01*
X173745238Y-69454761D01*
X173630952Y-68978571D02*
X173630952Y-68940476D01*
X173650000Y-68902380D01*
X173669047Y-68883333D01*
X173707142Y-68864285D01*
X173783333Y-68845238D01*
X173878571Y-68845238D01*
X173954761Y-68864285D01*
X173992857Y-68883333D01*
X174011904Y-68902380D01*
X174030952Y-68940476D01*
X174030952Y-68978571D01*
X174011904Y-69016666D01*
X173992857Y-69035714D01*
X173954761Y-69054761D01*
X173878571Y-69073809D01*
X173783333Y-69073809D01*
X173707142Y-69054761D01*
X173669047Y-69035714D01*
X173650000Y-69016666D01*
X173630952Y-68978571D01*
D11*
X170217619Y-75088095D02*
X170170000Y-75040476D01*
X170122380Y-74945238D01*
X170122380Y-74707142D01*
X170170000Y-74611904D01*
X170217619Y-74564285D01*
X170312857Y-74516666D01*
X170408095Y-74516666D01*
X170550952Y-74564285D01*
X171122380Y-75135714D01*
X171122380Y-74516666D01*
X170122380Y-73897619D02*
X170122380Y-73802380D01*
X170170000Y-73707142D01*
X170217619Y-73659523D01*
X170312857Y-73611904D01*
X170503333Y-73564285D01*
X170741428Y-73564285D01*
X170931904Y-73611904D01*
X171027142Y-73659523D01*
X171074761Y-73707142D01*
X171122380Y-73802380D01*
X171122380Y-73897619D01*
X171074761Y-73992857D01*
X171027142Y-74040476D01*
X170931904Y-74088095D01*
X170741428Y-74135714D01*
X170503333Y-74135714D01*
X170312857Y-74088095D01*
X170217619Y-74040476D01*
X170170000Y-73992857D01*
X170122380Y-73897619D01*
X170122380Y-72945238D02*
X170122380Y-72850000D01*
X170170000Y-72754761D01*
X170217619Y-72707142D01*
X170312857Y-72659523D01*
X170503333Y-72611904D01*
X170741428Y-72611904D01*
X170931904Y-72659523D01*
X171027142Y-72707142D01*
X171074761Y-72754761D01*
X171122380Y-72850000D01*
X171122380Y-72945238D01*
X171074761Y-73040476D01*
X171027142Y-73088095D01*
X170931904Y-73135714D01*
X170741428Y-73183333D01*
X170503333Y-73183333D01*
X170312857Y-73135714D01*
X170217619Y-73088095D01*
X170170000Y-73040476D01*
X170122380Y-72945238D01*
D14*
X172280952Y-74107142D02*
X172090476Y-74240476D01*
X172280952Y-74335714D02*
X171880952Y-74335714D01*
X171880952Y-74183333D01*
X171900000Y-74145238D01*
X171919047Y-74126190D01*
X171957142Y-74107142D01*
X172014285Y-74107142D01*
X172052380Y-74126190D01*
X172071428Y-74145238D01*
X172090476Y-74183333D01*
X172090476Y-74335714D01*
X172280952Y-73726190D02*
X172280952Y-73954761D01*
X172280952Y-73840476D02*
X171880952Y-73840476D01*
X171938095Y-73878571D01*
X171976190Y-73916666D01*
X171995238Y-73954761D01*
X172280952Y-73345238D02*
X172280952Y-73573809D01*
X172280952Y-73459523D02*
X171880952Y-73459523D01*
X171938095Y-73497619D01*
X171976190Y-73535714D01*
X171995238Y-73573809D01*
D11*
X165611904Y-70077619D02*
X165659523Y-70030000D01*
X165754761Y-69982380D01*
X165992857Y-69982380D01*
X166088095Y-70030000D01*
X166135714Y-70077619D01*
X166183333Y-70172857D01*
X166183333Y-70268095D01*
X166135714Y-70410952D01*
X165564285Y-70982380D01*
X166183333Y-70982380D01*
X166802380Y-69982380D02*
X166897619Y-69982380D01*
X166992857Y-70030000D01*
X167040476Y-70077619D01*
X167088095Y-70172857D01*
X167135714Y-70363333D01*
X167135714Y-70601428D01*
X167088095Y-70791904D01*
X167040476Y-70887142D01*
X166992857Y-70934761D01*
X166897619Y-70982380D01*
X166802380Y-70982380D01*
X166707142Y-70934761D01*
X166659523Y-70887142D01*
X166611904Y-70791904D01*
X166564285Y-70601428D01*
X166564285Y-70363333D01*
X166611904Y-70172857D01*
X166659523Y-70077619D01*
X166707142Y-70030000D01*
X166802380Y-69982380D01*
X167754761Y-69982380D02*
X167850000Y-69982380D01*
X167945238Y-70030000D01*
X167992857Y-70077619D01*
X168040476Y-70172857D01*
X168088095Y-70363333D01*
X168088095Y-70601428D01*
X168040476Y-70791904D01*
X167992857Y-70887142D01*
X167945238Y-70934761D01*
X167850000Y-70982380D01*
X167754761Y-70982380D01*
X167659523Y-70934761D01*
X167611904Y-70887142D01*
X167564285Y-70791904D01*
X167516666Y-70601428D01*
X167516666Y-70363333D01*
X167564285Y-70172857D01*
X167611904Y-70077619D01*
X167659523Y-70030000D01*
X167754761Y-69982380D01*
D14*
X166592857Y-69280952D02*
X166459523Y-69090476D01*
X166364285Y-69280952D02*
X166364285Y-68880952D01*
X166516666Y-68880952D01*
X166554761Y-68900000D01*
X166573809Y-68919047D01*
X166592857Y-68957142D01*
X166592857Y-69014285D01*
X166573809Y-69052380D01*
X166554761Y-69071428D01*
X166516666Y-69090476D01*
X166364285Y-69090476D01*
X166973809Y-69280952D02*
X166745238Y-69280952D01*
X166859523Y-69280952D02*
X166859523Y-68880952D01*
X166821428Y-68938095D01*
X166783333Y-68976190D01*
X166745238Y-68995238D01*
X167126190Y-68919047D02*
X167145238Y-68900000D01*
X167183333Y-68880952D01*
X167278571Y-68880952D01*
X167316666Y-68900000D01*
X167335714Y-68919047D01*
X167354761Y-68957142D01*
X167354761Y-68995238D01*
X167335714Y-69052380D01*
X167107142Y-69280952D01*
X167354761Y-69280952D01*
D11*
X160967619Y-73088095D02*
X160920000Y-73040476D01*
X160872380Y-72945238D01*
X160872380Y-72707142D01*
X160920000Y-72611904D01*
X160967619Y-72564285D01*
X161062857Y-72516666D01*
X161158095Y-72516666D01*
X161300952Y-72564285D01*
X161872380Y-73135714D01*
X161872380Y-72516666D01*
X160872380Y-71897619D02*
X160872380Y-71802380D01*
X160920000Y-71707142D01*
X160967619Y-71659523D01*
X161062857Y-71611904D01*
X161253333Y-71564285D01*
X161491428Y-71564285D01*
X161681904Y-71611904D01*
X161777142Y-71659523D01*
X161824761Y-71707142D01*
X161872380Y-71802380D01*
X161872380Y-71897619D01*
X161824761Y-71992857D01*
X161777142Y-72040476D01*
X161681904Y-72088095D01*
X161491428Y-72135714D01*
X161253333Y-72135714D01*
X161062857Y-72088095D01*
X160967619Y-72040476D01*
X160920000Y-71992857D01*
X160872380Y-71897619D01*
X160872380Y-70945238D02*
X160872380Y-70850000D01*
X160920000Y-70754761D01*
X160967619Y-70707142D01*
X161062857Y-70659523D01*
X161253333Y-70611904D01*
X161491428Y-70611904D01*
X161681904Y-70659523D01*
X161777142Y-70707142D01*
X161824761Y-70754761D01*
X161872380Y-70850000D01*
X161872380Y-70945238D01*
X161824761Y-71040476D01*
X161777142Y-71088095D01*
X161681904Y-71135714D01*
X161491428Y-71183333D01*
X161253333Y-71183333D01*
X161062857Y-71135714D01*
X160967619Y-71088095D01*
X160920000Y-71040476D01*
X160872380Y-70945238D01*
D14*
X163030952Y-72107142D02*
X162840476Y-72240476D01*
X163030952Y-72335714D02*
X162630952Y-72335714D01*
X162630952Y-72183333D01*
X162650000Y-72145238D01*
X162669047Y-72126190D01*
X162707142Y-72107142D01*
X162764285Y-72107142D01*
X162802380Y-72126190D01*
X162821428Y-72145238D01*
X162840476Y-72183333D01*
X162840476Y-72335714D01*
X163030952Y-71726190D02*
X163030952Y-71954761D01*
X163030952Y-71840476D02*
X162630952Y-71840476D01*
X162688095Y-71878571D01*
X162726190Y-71916666D01*
X162745238Y-71954761D01*
X162630952Y-71592857D02*
X162630952Y-71345238D01*
X162783333Y-71478571D01*
X162783333Y-71421428D01*
X162802380Y-71383333D01*
X162821428Y-71364285D01*
X162859523Y-71345238D01*
X162954761Y-71345238D01*
X162992857Y-71364285D01*
X163011904Y-71383333D01*
X163030952Y-71421428D01*
X163030952Y-71535714D01*
X163011904Y-71573809D01*
X162992857Y-71592857D01*
D11*
X160982380Y-72516666D02*
X160982380Y-73088095D01*
X160982380Y-72802380D02*
X159982380Y-72802380D01*
X160125238Y-72897619D01*
X160220476Y-72992857D01*
X160268095Y-73088095D01*
X159982380Y-71897619D02*
X159982380Y-71802380D01*
X160030000Y-71707142D01*
X160077619Y-71659523D01*
X160172857Y-71611904D01*
X160363333Y-71564285D01*
X160601428Y-71564285D01*
X160791904Y-71611904D01*
X160887142Y-71659523D01*
X160934761Y-71707142D01*
X160982380Y-71802380D01*
X160982380Y-71897619D01*
X160934761Y-71992857D01*
X160887142Y-72040476D01*
X160791904Y-72088095D01*
X160601428Y-72135714D01*
X160363333Y-72135714D01*
X160172857Y-72088095D01*
X160077619Y-72040476D01*
X160030000Y-71992857D01*
X159982380Y-71897619D01*
X159982380Y-70945238D02*
X159982380Y-70850000D01*
X160030000Y-70754761D01*
X160077619Y-70707142D01*
X160172857Y-70659523D01*
X160363333Y-70611904D01*
X160601428Y-70611904D01*
X160791904Y-70659523D01*
X160887142Y-70707142D01*
X160934761Y-70754761D01*
X160982380Y-70850000D01*
X160982380Y-70945238D01*
X160934761Y-71040476D01*
X160887142Y-71088095D01*
X160791904Y-71135714D01*
X160601428Y-71183333D01*
X160363333Y-71183333D01*
X160172857Y-71135714D01*
X160077619Y-71088095D01*
X160030000Y-71040476D01*
X159982380Y-70945238D01*
D14*
X159280952Y-72107142D02*
X159090476Y-72240476D01*
X159280952Y-72335714D02*
X158880952Y-72335714D01*
X158880952Y-72183333D01*
X158900000Y-72145238D01*
X158919047Y-72126190D01*
X158957142Y-72107142D01*
X159014285Y-72107142D01*
X159052380Y-72126190D01*
X159071428Y-72145238D01*
X159090476Y-72183333D01*
X159090476Y-72335714D01*
X159280952Y-71726190D02*
X159280952Y-71954761D01*
X159280952Y-71840476D02*
X158880952Y-71840476D01*
X158938095Y-71878571D01*
X158976190Y-71916666D01*
X158995238Y-71954761D01*
X159014285Y-71383333D02*
X159280952Y-71383333D01*
X158861904Y-71478571D02*
X159147619Y-71573809D01*
X159147619Y-71326190D01*
D11*
X210500000Y-132505714D02*
X210500000Y-133172380D01*
X210261904Y-132124761D02*
X210023809Y-132839047D01*
X210642857Y-132839047D01*
X211071428Y-133172380D02*
X211261904Y-133172380D01*
X211357142Y-133124761D01*
X211404761Y-133077142D01*
X211500000Y-132934285D01*
X211547619Y-132743809D01*
X211547619Y-132362857D01*
X211500000Y-132267619D01*
X211452380Y-132220000D01*
X211357142Y-132172380D01*
X211166666Y-132172380D01*
X211071428Y-132220000D01*
X211023809Y-132267619D01*
X210976190Y-132362857D01*
X210976190Y-132600952D01*
X211023809Y-132696190D01*
X211071428Y-132743809D01*
X211166666Y-132791428D01*
X211357142Y-132791428D01*
X211452380Y-132743809D01*
X211500000Y-132696190D01*
X211547619Y-132600952D01*
X211976190Y-133077142D02*
X212023809Y-133124761D01*
X211976190Y-133172380D01*
X211928571Y-133124761D01*
X211976190Y-133077142D01*
X211976190Y-133172380D01*
X212500000Y-133172380D02*
X212690476Y-133172380D01*
X212785714Y-133124761D01*
X212833333Y-133077142D01*
X212928571Y-132934285D01*
X212976190Y-132743809D01*
X212976190Y-132362857D01*
X212928571Y-132267619D01*
X212880952Y-132220000D01*
X212785714Y-132172380D01*
X212595238Y-132172380D01*
X212500000Y-132220000D01*
X212452380Y-132267619D01*
X212404761Y-132362857D01*
X212404761Y-132600952D01*
X212452380Y-132696190D01*
X212500000Y-132743809D01*
X212595238Y-132791428D01*
X212785714Y-132791428D01*
X212880952Y-132743809D01*
X212928571Y-132696190D01*
X212976190Y-132600952D01*
D13*
X210985714Y-135361904D02*
X210719047Y-134980952D01*
X210528571Y-135361904D02*
X210528571Y-134561904D01*
X210833333Y-134561904D01*
X210909523Y-134600000D01*
X210947619Y-134638095D01*
X210985714Y-134714285D01*
X210985714Y-134828571D01*
X210947619Y-134904761D01*
X210909523Y-134942857D01*
X210833333Y-134980952D01*
X210528571Y-134980952D01*
X211747619Y-135361904D02*
X211290476Y-135361904D01*
X211519047Y-135361904D02*
X211519047Y-134561904D01*
X211442857Y-134676190D01*
X211366666Y-134752380D01*
X211290476Y-134790476D01*
X212471428Y-134561904D02*
X212090476Y-134561904D01*
X212052380Y-134942857D01*
X212090476Y-134904761D01*
X212166666Y-134866666D01*
X212357142Y-134866666D01*
X212433333Y-134904761D01*
X212471428Y-134942857D01*
X212509523Y-135019047D01*
X212509523Y-135209523D01*
X212471428Y-135285714D01*
X212433333Y-135323809D01*
X212357142Y-135361904D01*
X212166666Y-135361904D01*
X212090476Y-135323809D01*
X212052380Y-135285714D01*
D11*
X207161904Y-94177619D02*
X207209523Y-94130000D01*
X207304761Y-94082380D01*
X207542857Y-94082380D01*
X207638095Y-94130000D01*
X207685714Y-94177619D01*
X207733333Y-94272857D01*
X207733333Y-94368095D01*
X207685714Y-94510952D01*
X207114285Y-95082380D01*
X207733333Y-95082380D01*
X208352380Y-94082380D02*
X208447619Y-94082380D01*
X208542857Y-94130000D01*
X208590476Y-94177619D01*
X208638095Y-94272857D01*
X208685714Y-94463333D01*
X208685714Y-94701428D01*
X208638095Y-94891904D01*
X208590476Y-94987142D01*
X208542857Y-95034761D01*
X208447619Y-95082380D01*
X208352380Y-95082380D01*
X208257142Y-95034761D01*
X208209523Y-94987142D01*
X208161904Y-94891904D01*
X208114285Y-94701428D01*
X208114285Y-94463333D01*
X208161904Y-94272857D01*
X208209523Y-94177619D01*
X208257142Y-94130000D01*
X208352380Y-94082380D01*
X209304761Y-94082380D02*
X209400000Y-94082380D01*
X209495238Y-94130000D01*
X209542857Y-94177619D01*
X209590476Y-94272857D01*
X209638095Y-94463333D01*
X209638095Y-94701428D01*
X209590476Y-94891904D01*
X209542857Y-94987142D01*
X209495238Y-95034761D01*
X209400000Y-95082380D01*
X209304761Y-95082380D01*
X209209523Y-95034761D01*
X209161904Y-94987142D01*
X209114285Y-94891904D01*
X209066666Y-94701428D01*
X209066666Y-94463333D01*
X209114285Y-94272857D01*
X209161904Y-94177619D01*
X209209523Y-94130000D01*
X209304761Y-94082380D01*
D14*
X208142857Y-93380952D02*
X208009523Y-93190476D01*
X207914285Y-93380952D02*
X207914285Y-92980952D01*
X208066666Y-92980952D01*
X208104761Y-93000000D01*
X208123809Y-93019047D01*
X208142857Y-93057142D01*
X208142857Y-93114285D01*
X208123809Y-93152380D01*
X208104761Y-93171428D01*
X208066666Y-93190476D01*
X207914285Y-93190476D01*
X208523809Y-93380952D02*
X208295238Y-93380952D01*
X208409523Y-93380952D02*
X208409523Y-92980952D01*
X208371428Y-93038095D01*
X208333333Y-93076190D01*
X208295238Y-93095238D01*
X208866666Y-92980952D02*
X208790476Y-92980952D01*
X208752380Y-93000000D01*
X208733333Y-93019047D01*
X208695238Y-93076190D01*
X208676190Y-93152380D01*
X208676190Y-93304761D01*
X208695238Y-93342857D01*
X208714285Y-93361904D01*
X208752380Y-93380952D01*
X208828571Y-93380952D01*
X208866666Y-93361904D01*
X208885714Y-93342857D01*
X208904761Y-93304761D01*
X208904761Y-93209523D01*
X208885714Y-93171428D01*
X208866666Y-93152380D01*
X208828571Y-93133333D01*
X208752380Y-93133333D01*
X208714285Y-93152380D01*
X208695238Y-93171428D01*
X208676190Y-93209523D01*
D11*
X202161904Y-111267619D02*
X202209523Y-111220000D01*
X202304761Y-111172380D01*
X202542857Y-111172380D01*
X202638095Y-111220000D01*
X202685714Y-111267619D01*
X202733333Y-111362857D01*
X202733333Y-111458095D01*
X202685714Y-111600952D01*
X202114285Y-112172380D01*
X202733333Y-112172380D01*
X203352380Y-111172380D02*
X203447619Y-111172380D01*
X203542857Y-111220000D01*
X203590476Y-111267619D01*
X203638095Y-111362857D01*
X203685714Y-111553333D01*
X203685714Y-111791428D01*
X203638095Y-111981904D01*
X203590476Y-112077142D01*
X203542857Y-112124761D01*
X203447619Y-112172380D01*
X203352380Y-112172380D01*
X203257142Y-112124761D01*
X203209523Y-112077142D01*
X203161904Y-111981904D01*
X203114285Y-111791428D01*
X203114285Y-111553333D01*
X203161904Y-111362857D01*
X203209523Y-111267619D01*
X203257142Y-111220000D01*
X203352380Y-111172380D01*
X204304761Y-111172380D02*
X204400000Y-111172380D01*
X204495238Y-111220000D01*
X204542857Y-111267619D01*
X204590476Y-111362857D01*
X204638095Y-111553333D01*
X204638095Y-111791428D01*
X204590476Y-111981904D01*
X204542857Y-112077142D01*
X204495238Y-112124761D01*
X204400000Y-112172380D01*
X204304761Y-112172380D01*
X204209523Y-112124761D01*
X204161904Y-112077142D01*
X204114285Y-111981904D01*
X204066666Y-111791428D01*
X204066666Y-111553333D01*
X204114285Y-111362857D01*
X204161904Y-111267619D01*
X204209523Y-111220000D01*
X204304761Y-111172380D01*
D14*
X203142857Y-113330952D02*
X203009523Y-113140476D01*
X202914285Y-113330952D02*
X202914285Y-112930952D01*
X203066666Y-112930952D01*
X203104761Y-112950000D01*
X203123809Y-112969047D01*
X203142857Y-113007142D01*
X203142857Y-113064285D01*
X203123809Y-113102380D01*
X203104761Y-113121428D01*
X203066666Y-113140476D01*
X202914285Y-113140476D01*
X203523809Y-113330952D02*
X203295238Y-113330952D01*
X203409523Y-113330952D02*
X203409523Y-112930952D01*
X203371428Y-112988095D01*
X203333333Y-113026190D01*
X203295238Y-113045238D01*
X203657142Y-112930952D02*
X203923809Y-112930952D01*
X203752380Y-113330952D01*
D11*
X195017619Y-110888095D02*
X194970000Y-110840476D01*
X194922380Y-110745238D01*
X194922380Y-110507142D01*
X194970000Y-110411904D01*
X195017619Y-110364285D01*
X195112857Y-110316666D01*
X195208095Y-110316666D01*
X195350952Y-110364285D01*
X195922380Y-110935714D01*
X195922380Y-110316666D01*
X194922380Y-109697619D02*
X194922380Y-109602380D01*
X194970000Y-109507142D01*
X195017619Y-109459523D01*
X195112857Y-109411904D01*
X195303333Y-109364285D01*
X195541428Y-109364285D01*
X195731904Y-109411904D01*
X195827142Y-109459523D01*
X195874761Y-109507142D01*
X195922380Y-109602380D01*
X195922380Y-109697619D01*
X195874761Y-109792857D01*
X195827142Y-109840476D01*
X195731904Y-109888095D01*
X195541428Y-109935714D01*
X195303333Y-109935714D01*
X195112857Y-109888095D01*
X195017619Y-109840476D01*
X194970000Y-109792857D01*
X194922380Y-109697619D01*
X194922380Y-108745238D02*
X194922380Y-108650000D01*
X194970000Y-108554761D01*
X195017619Y-108507142D01*
X195112857Y-108459523D01*
X195303333Y-108411904D01*
X195541428Y-108411904D01*
X195731904Y-108459523D01*
X195827142Y-108507142D01*
X195874761Y-108554761D01*
X195922380Y-108650000D01*
X195922380Y-108745238D01*
X195874761Y-108840476D01*
X195827142Y-108888095D01*
X195731904Y-108935714D01*
X195541428Y-108983333D01*
X195303333Y-108983333D01*
X195112857Y-108935714D01*
X195017619Y-108888095D01*
X194970000Y-108840476D01*
X194922380Y-108745238D01*
D14*
X197080952Y-109907142D02*
X196890476Y-110040476D01*
X197080952Y-110135714D02*
X196680952Y-110135714D01*
X196680952Y-109983333D01*
X196700000Y-109945238D01*
X196719047Y-109926190D01*
X196757142Y-109907142D01*
X196814285Y-109907142D01*
X196852380Y-109926190D01*
X196871428Y-109945238D01*
X196890476Y-109983333D01*
X196890476Y-110135714D01*
X197080952Y-109526190D02*
X197080952Y-109754761D01*
X197080952Y-109640476D02*
X196680952Y-109640476D01*
X196738095Y-109678571D01*
X196776190Y-109716666D01*
X196795238Y-109754761D01*
X196852380Y-109297619D02*
X196833333Y-109335714D01*
X196814285Y-109354761D01*
X196776190Y-109373809D01*
X196757142Y-109373809D01*
X196719047Y-109354761D01*
X196700000Y-109335714D01*
X196680952Y-109297619D01*
X196680952Y-109221428D01*
X196700000Y-109183333D01*
X196719047Y-109164285D01*
X196757142Y-109145238D01*
X196776190Y-109145238D01*
X196814285Y-109164285D01*
X196833333Y-109183333D01*
X196852380Y-109221428D01*
X196852380Y-109297619D01*
X196871428Y-109335714D01*
X196890476Y-109354761D01*
X196928571Y-109373809D01*
X197004761Y-109373809D01*
X197042857Y-109354761D01*
X197061904Y-109335714D01*
X197080952Y-109297619D01*
X197080952Y-109221428D01*
X197061904Y-109183333D01*
X197042857Y-109164285D01*
X197004761Y-109145238D01*
X196928571Y-109145238D01*
X196890476Y-109164285D01*
X196871428Y-109183333D01*
X196852380Y-109221428D01*
D11*
X208105714Y-109500000D02*
X208772380Y-109500000D01*
X207724761Y-109738095D02*
X208439047Y-109976190D01*
X208439047Y-109357142D01*
X208772380Y-108928571D02*
X208772380Y-108738095D01*
X208724761Y-108642857D01*
X208677142Y-108595238D01*
X208534285Y-108500000D01*
X208343809Y-108452380D01*
X207962857Y-108452380D01*
X207867619Y-108500000D01*
X207820000Y-108547619D01*
X207772380Y-108642857D01*
X207772380Y-108833333D01*
X207820000Y-108928571D01*
X207867619Y-108976190D01*
X207962857Y-109023809D01*
X208200952Y-109023809D01*
X208296190Y-108976190D01*
X208343809Y-108928571D01*
X208391428Y-108833333D01*
X208391428Y-108642857D01*
X208343809Y-108547619D01*
X208296190Y-108500000D01*
X208200952Y-108452380D01*
X208677142Y-108023809D02*
X208724761Y-107976190D01*
X208772380Y-108023809D01*
X208724761Y-108071428D01*
X208677142Y-108023809D01*
X208772380Y-108023809D01*
X208772380Y-107500000D02*
X208772380Y-107309523D01*
X208724761Y-107214285D01*
X208677142Y-107166666D01*
X208534285Y-107071428D01*
X208343809Y-107023809D01*
X207962857Y-107023809D01*
X207867619Y-107071428D01*
X207820000Y-107119047D01*
X207772380Y-107214285D01*
X207772380Y-107404761D01*
X207820000Y-107500000D01*
X207867619Y-107547619D01*
X207962857Y-107595238D01*
X208200952Y-107595238D01*
X208296190Y-107547619D01*
X208343809Y-107500000D01*
X208391428Y-107404761D01*
X208391428Y-107214285D01*
X208343809Y-107119047D01*
X208296190Y-107071428D01*
X208200952Y-107023809D01*
D13*
X210961904Y-109014285D02*
X210580952Y-109280952D01*
X210961904Y-109471428D02*
X210161904Y-109471428D01*
X210161904Y-109166666D01*
X210200000Y-109090476D01*
X210238095Y-109052380D01*
X210314285Y-109014285D01*
X210428571Y-109014285D01*
X210504761Y-109052380D01*
X210542857Y-109090476D01*
X210580952Y-109166666D01*
X210580952Y-109471428D01*
X210961904Y-108252380D02*
X210961904Y-108709523D01*
X210961904Y-108480952D02*
X210161904Y-108480952D01*
X210276190Y-108557142D01*
X210352380Y-108633333D01*
X210390476Y-108709523D01*
X210961904Y-107871428D02*
X210961904Y-107719047D01*
X210923809Y-107642857D01*
X210885714Y-107604761D01*
X210771428Y-107528571D01*
X210619047Y-107490476D01*
X210314285Y-107490476D01*
X210238095Y-107528571D01*
X210200000Y-107566666D01*
X210161904Y-107642857D01*
X210161904Y-107795238D01*
X210200000Y-107871428D01*
X210238095Y-107909523D01*
X210314285Y-107947619D01*
X210504761Y-107947619D01*
X210580952Y-107909523D01*
X210619047Y-107871428D01*
X210657142Y-107795238D01*
X210657142Y-107642857D01*
X210619047Y-107566666D01*
X210580952Y-107528571D01*
X210504761Y-107490476D01*
D11*
X201100000Y-59355714D02*
X201100000Y-60022380D01*
X200861904Y-58974761D02*
X200623809Y-59689047D01*
X201242857Y-59689047D01*
X201671428Y-60022380D02*
X201861904Y-60022380D01*
X201957142Y-59974761D01*
X202004761Y-59927142D01*
X202100000Y-59784285D01*
X202147619Y-59593809D01*
X202147619Y-59212857D01*
X202100000Y-59117619D01*
X202052380Y-59070000D01*
X201957142Y-59022380D01*
X201766666Y-59022380D01*
X201671428Y-59070000D01*
X201623809Y-59117619D01*
X201576190Y-59212857D01*
X201576190Y-59450952D01*
X201623809Y-59546190D01*
X201671428Y-59593809D01*
X201766666Y-59641428D01*
X201957142Y-59641428D01*
X202052380Y-59593809D01*
X202100000Y-59546190D01*
X202147619Y-59450952D01*
X202576190Y-59927142D02*
X202623809Y-59974761D01*
X202576190Y-60022380D01*
X202528571Y-59974761D01*
X202576190Y-59927142D01*
X202576190Y-60022380D01*
X203100000Y-60022380D02*
X203290476Y-60022380D01*
X203385714Y-59974761D01*
X203433333Y-59927142D01*
X203528571Y-59784285D01*
X203576190Y-59593809D01*
X203576190Y-59212857D01*
X203528571Y-59117619D01*
X203480952Y-59070000D01*
X203385714Y-59022380D01*
X203195238Y-59022380D01*
X203100000Y-59070000D01*
X203052380Y-59117619D01*
X203004761Y-59212857D01*
X203004761Y-59450952D01*
X203052380Y-59546190D01*
X203100000Y-59593809D01*
X203195238Y-59641428D01*
X203385714Y-59641428D01*
X203480952Y-59593809D01*
X203528571Y-59546190D01*
X203576190Y-59450952D01*
D14*
X201842857Y-61180952D02*
X201709523Y-60990476D01*
X201614285Y-61180952D02*
X201614285Y-60780952D01*
X201766666Y-60780952D01*
X201804761Y-60800000D01*
X201823809Y-60819047D01*
X201842857Y-60857142D01*
X201842857Y-60914285D01*
X201823809Y-60952380D01*
X201804761Y-60971428D01*
X201766666Y-60990476D01*
X201614285Y-60990476D01*
X201995238Y-60819047D02*
X202014285Y-60800000D01*
X202052380Y-60780952D01*
X202147619Y-60780952D01*
X202185714Y-60800000D01*
X202204761Y-60819047D01*
X202223809Y-60857142D01*
X202223809Y-60895238D01*
X202204761Y-60952380D01*
X201976190Y-61180952D01*
X202223809Y-61180952D01*
X202471428Y-60780952D02*
X202509523Y-60780952D01*
X202547619Y-60800000D01*
X202566666Y-60819047D01*
X202585714Y-60857142D01*
X202604761Y-60933333D01*
X202604761Y-61028571D01*
X202585714Y-61104761D01*
X202566666Y-61142857D01*
X202547619Y-61161904D01*
X202509523Y-61180952D01*
X202471428Y-61180952D01*
X202433333Y-61161904D01*
X202414285Y-61142857D01*
X202395238Y-61104761D01*
X202376190Y-61028571D01*
X202376190Y-60933333D01*
X202395238Y-60857142D01*
X202414285Y-60819047D01*
X202433333Y-60800000D01*
X202471428Y-60780952D01*
D11*
X221040952Y-91272380D02*
X220469523Y-91272380D01*
X220755238Y-91272380D02*
X220755238Y-90272380D01*
X220660000Y-90415238D01*
X220564761Y-90510476D01*
X220469523Y-90558095D01*
X221469523Y-91272380D02*
X221469523Y-90272380D01*
X221564761Y-90891428D02*
X221850476Y-91272380D01*
X221850476Y-90605714D02*
X221469523Y-90986666D01*
X219804761Y-94922380D02*
X219471428Y-94446190D01*
X219233333Y-94922380D02*
X219233333Y-93922380D01*
X219614285Y-93922380D01*
X219709523Y-93970000D01*
X219757142Y-94017619D01*
X219804761Y-94112857D01*
X219804761Y-94255714D01*
X219757142Y-94350952D01*
X219709523Y-94398571D01*
X219614285Y-94446190D01*
X219233333Y-94446190D01*
X220090476Y-93922380D02*
X220423809Y-94922380D01*
X220757142Y-93922380D01*
X221614285Y-94922380D02*
X221042857Y-94922380D01*
X221328571Y-94922380D02*
X221328571Y-93922380D01*
X221233333Y-94065238D01*
X221138095Y-94160476D01*
X221042857Y-94208095D01*
X103076428Y-103327380D02*
X102600238Y-103327380D01*
X102600238Y-102327380D01*
X103266904Y-102327380D02*
X103838333Y-102327380D01*
X103552619Y-103327380D02*
X103552619Y-102327380D01*
X104076428Y-102327380D02*
X104695476Y-102327380D01*
X104362142Y-102708333D01*
X104505000Y-102708333D01*
X104600238Y-102755952D01*
X104647857Y-102803571D01*
X104695476Y-102898809D01*
X104695476Y-103136904D01*
X104647857Y-103232142D01*
X104600238Y-103279761D01*
X104505000Y-103327380D01*
X104219285Y-103327380D01*
X104124047Y-103279761D01*
X104076428Y-103232142D01*
X105314523Y-102327380D02*
X105409761Y-102327380D01*
X105505000Y-102375000D01*
X105552619Y-102422619D01*
X105600238Y-102517857D01*
X105647857Y-102708333D01*
X105647857Y-102946428D01*
X105600238Y-103136904D01*
X105552619Y-103232142D01*
X105505000Y-103279761D01*
X105409761Y-103327380D01*
X105314523Y-103327380D01*
X105219285Y-103279761D01*
X105171666Y-103232142D01*
X105124047Y-103136904D01*
X105076428Y-102946428D01*
X105076428Y-102708333D01*
X105124047Y-102517857D01*
X105171666Y-102422619D01*
X105219285Y-102375000D01*
X105314523Y-102327380D01*
X106505000Y-102660714D02*
X106505000Y-103327380D01*
X106266904Y-102279761D02*
X106028809Y-102994047D01*
X106647857Y-102994047D01*
X107505000Y-102327380D02*
X107028809Y-102327380D01*
X106981190Y-102803571D01*
X107028809Y-102755952D01*
X107124047Y-102708333D01*
X107362142Y-102708333D01*
X107457380Y-102755952D01*
X107505000Y-102803571D01*
X107552619Y-102898809D01*
X107552619Y-103136904D01*
X107505000Y-103232142D01*
X107457380Y-103279761D01*
X107362142Y-103327380D01*
X107124047Y-103327380D01*
X107028809Y-103279761D01*
X106981190Y-103232142D01*
X107981190Y-102803571D02*
X108314523Y-102803571D01*
X108457380Y-103327380D02*
X107981190Y-103327380D01*
X107981190Y-102327380D01*
X108457380Y-102327380D01*
X108885952Y-103327380D02*
X108885952Y-102327380D01*
X109219285Y-103041666D01*
X109552619Y-102327380D01*
X109552619Y-103327380D01*
X109981190Y-103279761D02*
X110124047Y-103327380D01*
X110362142Y-103327380D01*
X110457380Y-103279761D01*
X110505000Y-103232142D01*
X110552619Y-103136904D01*
X110552619Y-103041666D01*
X110505000Y-102946428D01*
X110457380Y-102898809D01*
X110362142Y-102851190D01*
X110171666Y-102803571D01*
X110076428Y-102755952D01*
X110028809Y-102708333D01*
X109981190Y-102613095D01*
X109981190Y-102517857D01*
X110028809Y-102422619D01*
X110076428Y-102375000D01*
X110171666Y-102327380D01*
X110409761Y-102327380D01*
X110552619Y-102375000D01*
X110981190Y-102803571D02*
X111314523Y-102803571D01*
X111457380Y-103327380D02*
X110981190Y-103327380D01*
X110981190Y-102327380D01*
X111457380Y-102327380D01*
D15*
X106433571Y-99514285D02*
X106433571Y-100121428D01*
X106469285Y-100192857D01*
X106505000Y-100228571D01*
X106576428Y-100264285D01*
X106719285Y-100264285D01*
X106790714Y-100228571D01*
X106826428Y-100192857D01*
X106862142Y-100121428D01*
X106862142Y-99514285D01*
X107183571Y-99585714D02*
X107219285Y-99550000D01*
X107290714Y-99514285D01*
X107469285Y-99514285D01*
X107540714Y-99550000D01*
X107576428Y-99585714D01*
X107612142Y-99657142D01*
X107612142Y-99728571D01*
X107576428Y-99835714D01*
X107147857Y-100264285D01*
X107612142Y-100264285D01*
D11*
X103166428Y-109227380D02*
X102690238Y-109227380D01*
X102690238Y-108227380D01*
X103356904Y-108227380D02*
X103928333Y-108227380D01*
X103642619Y-109227380D02*
X103642619Y-108227380D01*
X104166428Y-108227380D02*
X104785476Y-108227380D01*
X104452142Y-108608333D01*
X104595000Y-108608333D01*
X104690238Y-108655952D01*
X104737857Y-108703571D01*
X104785476Y-108798809D01*
X104785476Y-109036904D01*
X104737857Y-109132142D01*
X104690238Y-109179761D01*
X104595000Y-109227380D01*
X104309285Y-109227380D01*
X104214047Y-109179761D01*
X104166428Y-109132142D01*
X105404523Y-108227380D02*
X105499761Y-108227380D01*
X105595000Y-108275000D01*
X105642619Y-108322619D01*
X105690238Y-108417857D01*
X105737857Y-108608333D01*
X105737857Y-108846428D01*
X105690238Y-109036904D01*
X105642619Y-109132142D01*
X105595000Y-109179761D01*
X105499761Y-109227380D01*
X105404523Y-109227380D01*
X105309285Y-109179761D01*
X105261666Y-109132142D01*
X105214047Y-109036904D01*
X105166428Y-108846428D01*
X105166428Y-108608333D01*
X105214047Y-108417857D01*
X105261666Y-108322619D01*
X105309285Y-108275000D01*
X105404523Y-108227380D01*
X106214047Y-109227380D02*
X106404523Y-109227380D01*
X106499761Y-109179761D01*
X106547380Y-109132142D01*
X106642619Y-108989285D01*
X106690238Y-108798809D01*
X106690238Y-108417857D01*
X106642619Y-108322619D01*
X106595000Y-108275000D01*
X106499761Y-108227380D01*
X106309285Y-108227380D01*
X106214047Y-108275000D01*
X106166428Y-108322619D01*
X106118809Y-108417857D01*
X106118809Y-108655952D01*
X106166428Y-108751190D01*
X106214047Y-108798809D01*
X106309285Y-108846428D01*
X106499761Y-108846428D01*
X106595000Y-108798809D01*
X106642619Y-108751190D01*
X106690238Y-108655952D01*
X107547380Y-108560714D02*
X107547380Y-109227380D01*
X107309285Y-108179761D02*
X107071190Y-108894047D01*
X107690238Y-108894047D01*
X108071190Y-108703571D02*
X108404523Y-108703571D01*
X108547380Y-109227380D02*
X108071190Y-109227380D01*
X108071190Y-108227380D01*
X108547380Y-108227380D01*
X108975952Y-109227380D02*
X108975952Y-108227380D01*
X109309285Y-108941666D01*
X109642619Y-108227380D01*
X109642619Y-109227380D01*
X110071190Y-109179761D02*
X110214047Y-109227380D01*
X110452142Y-109227380D01*
X110547380Y-109179761D01*
X110595000Y-109132142D01*
X110642619Y-109036904D01*
X110642619Y-108941666D01*
X110595000Y-108846428D01*
X110547380Y-108798809D01*
X110452142Y-108751190D01*
X110261666Y-108703571D01*
X110166428Y-108655952D01*
X110118809Y-108608333D01*
X110071190Y-108513095D01*
X110071190Y-108417857D01*
X110118809Y-108322619D01*
X110166428Y-108275000D01*
X110261666Y-108227380D01*
X110499761Y-108227380D01*
X110642619Y-108275000D01*
X111071190Y-108703571D02*
X111404523Y-108703571D01*
X111547380Y-109227380D02*
X111071190Y-109227380D01*
X111071190Y-108227380D01*
X111547380Y-108227380D01*
D15*
X106523571Y-105414285D02*
X106523571Y-106021428D01*
X106559285Y-106092857D01*
X106595000Y-106128571D01*
X106666428Y-106164285D01*
X106809285Y-106164285D01*
X106880714Y-106128571D01*
X106916428Y-106092857D01*
X106952142Y-106021428D01*
X106952142Y-105414285D01*
X107237857Y-105414285D02*
X107702142Y-105414285D01*
X107452142Y-105700000D01*
X107559285Y-105700000D01*
X107630714Y-105735714D01*
X107666428Y-105771428D01*
X107702142Y-105842857D01*
X107702142Y-106021428D01*
X107666428Y-106092857D01*
X107630714Y-106128571D01*
X107559285Y-106164285D01*
X107345000Y-106164285D01*
X107273571Y-106128571D01*
X107237857Y-106092857D01*
D11*
X186361904Y-69769880D02*
X186361904Y-68769880D01*
X186361904Y-69246071D02*
X186933333Y-69246071D01*
X186933333Y-69769880D02*
X186933333Y-68769880D01*
X187409523Y-69769880D02*
X187409523Y-68769880D01*
X187742857Y-69484166D01*
X188076190Y-68769880D01*
X188076190Y-69769880D01*
X189123809Y-69674642D02*
X189076190Y-69722261D01*
X188933333Y-69769880D01*
X188838095Y-69769880D01*
X188695238Y-69722261D01*
X188600000Y-69627023D01*
X188552380Y-69531785D01*
X188504761Y-69341309D01*
X188504761Y-69198452D01*
X188552380Y-69007976D01*
X188600000Y-68912738D01*
X188695238Y-68817500D01*
X188838095Y-68769880D01*
X188933333Y-68769880D01*
X189076190Y-68817500D01*
X189123809Y-68865119D01*
X189980952Y-69103214D02*
X189980952Y-69769880D01*
X189742857Y-68722261D02*
X189504761Y-69436547D01*
X190123809Y-69436547D01*
X190409523Y-68769880D02*
X191028571Y-68769880D01*
X190695238Y-69150833D01*
X190838095Y-69150833D01*
X190933333Y-69198452D01*
X190980952Y-69246071D01*
X191028571Y-69341309D01*
X191028571Y-69579404D01*
X190980952Y-69674642D01*
X190933333Y-69722261D01*
X190838095Y-69769880D01*
X190552380Y-69769880D01*
X190457142Y-69722261D01*
X190409523Y-69674642D01*
X191504761Y-69769880D02*
X191695238Y-69769880D01*
X191790476Y-69722261D01*
X191838095Y-69674642D01*
X191933333Y-69531785D01*
X191980952Y-69341309D01*
X191980952Y-68960357D01*
X191933333Y-68865119D01*
X191885714Y-68817500D01*
X191790476Y-68769880D01*
X191600000Y-68769880D01*
X191504761Y-68817500D01*
X191457142Y-68865119D01*
X191409523Y-68960357D01*
X191409523Y-69198452D01*
X191457142Y-69293690D01*
X191504761Y-69341309D01*
X191600000Y-69388928D01*
X191790476Y-69388928D01*
X191885714Y-69341309D01*
X191933333Y-69293690D01*
X191980952Y-69198452D01*
X193076190Y-69865119D02*
X192980952Y-69817500D01*
X192885714Y-69722261D01*
X192742857Y-69579404D01*
X192647619Y-69531785D01*
X192552380Y-69531785D01*
X192600000Y-69769880D02*
X192504761Y-69722261D01*
X192409523Y-69627023D01*
X192361904Y-69436547D01*
X192361904Y-69103214D01*
X192409523Y-68912738D01*
X192504761Y-68817500D01*
X192600000Y-68769880D01*
X192790476Y-68769880D01*
X192885714Y-68817500D01*
X192980952Y-68912738D01*
X193028571Y-69103214D01*
X193028571Y-69436547D01*
X192980952Y-69627023D01*
X192885714Y-69722261D01*
X192790476Y-69769880D01*
X192600000Y-69769880D01*
X193409523Y-69722261D02*
X193552380Y-69769880D01*
X193790476Y-69769880D01*
X193885714Y-69722261D01*
X193933333Y-69674642D01*
X193980952Y-69579404D01*
X193980952Y-69484166D01*
X193933333Y-69388928D01*
X193885714Y-69341309D01*
X193790476Y-69293690D01*
X193600000Y-69246071D01*
X193504761Y-69198452D01*
X193457142Y-69150833D01*
X193409523Y-69055595D01*
X193409523Y-68960357D01*
X193457142Y-68865119D01*
X193504761Y-68817500D01*
X193600000Y-68769880D01*
X193838095Y-68769880D01*
X193980952Y-68817500D01*
X194933333Y-69769880D02*
X194361904Y-69769880D01*
X194647619Y-69769880D02*
X194647619Y-68769880D01*
X194552380Y-68912738D01*
X194457142Y-69007976D01*
X194361904Y-69055595D01*
X195790476Y-68769880D02*
X195600000Y-68769880D01*
X195504761Y-68817500D01*
X195457142Y-68865119D01*
X195361904Y-69007976D01*
X195314285Y-69198452D01*
X195314285Y-69579404D01*
X195361904Y-69674642D01*
X195409523Y-69722261D01*
X195504761Y-69769880D01*
X195695238Y-69769880D01*
X195790476Y-69722261D01*
X195838095Y-69674642D01*
X195885714Y-69579404D01*
X195885714Y-69341309D01*
X195838095Y-69246071D01*
X195790476Y-69198452D01*
X195695238Y-69150833D01*
X195504761Y-69150833D01*
X195409523Y-69198452D01*
X195361904Y-69246071D01*
X195314285Y-69341309D01*
X196838095Y-68817500D02*
X196742857Y-68769880D01*
X196600000Y-68769880D01*
X196457142Y-68817500D01*
X196361904Y-68912738D01*
X196314285Y-69007976D01*
X196266666Y-69198452D01*
X196266666Y-69341309D01*
X196314285Y-69531785D01*
X196361904Y-69627023D01*
X196457142Y-69722261D01*
X196600000Y-69769880D01*
X196695238Y-69769880D01*
X196838095Y-69722261D01*
X196885714Y-69674642D01*
X196885714Y-69341309D01*
X196695238Y-69341309D01*
X191066666Y-72434166D02*
X191066666Y-73000833D01*
X191100000Y-73067500D01*
X191133333Y-73100833D01*
X191200000Y-73134166D01*
X191333333Y-73134166D01*
X191400000Y-73100833D01*
X191433333Y-73067500D01*
X191466666Y-73000833D01*
X191466666Y-72434166D01*
X192166666Y-73134166D02*
X191766666Y-73134166D01*
X191966666Y-73134166D02*
X191966666Y-72434166D01*
X191900000Y-72534166D01*
X191833333Y-72600833D01*
X191766666Y-72634166D01*
X161457142Y-76216666D02*
X161933333Y-76216666D01*
X161361904Y-76502380D02*
X161695238Y-75502380D01*
X162028571Y-76502380D01*
X162361904Y-76502380D02*
X162361904Y-75502380D01*
X162600000Y-75502380D01*
X162742857Y-75550000D01*
X162838095Y-75645238D01*
X162885714Y-75740476D01*
X162933333Y-75930952D01*
X162933333Y-76073809D01*
X162885714Y-76264285D01*
X162838095Y-76359523D01*
X162742857Y-76454761D01*
X162600000Y-76502380D01*
X162361904Y-76502380D01*
X163314285Y-76216666D02*
X163790476Y-76216666D01*
X163219047Y-76502380D02*
X163552380Y-75502380D01*
X163885714Y-76502380D01*
X164647619Y-75835714D02*
X164647619Y-76502380D01*
X164409523Y-75454761D02*
X164171428Y-76169047D01*
X164790476Y-76169047D01*
X165314285Y-75930952D02*
X165219047Y-75883333D01*
X165171428Y-75835714D01*
X165123809Y-75740476D01*
X165123809Y-75692857D01*
X165171428Y-75597619D01*
X165219047Y-75550000D01*
X165314285Y-75502380D01*
X165504761Y-75502380D01*
X165600000Y-75550000D01*
X165647619Y-75597619D01*
X165695238Y-75692857D01*
X165695238Y-75740476D01*
X165647619Y-75835714D01*
X165600000Y-75883333D01*
X165504761Y-75930952D01*
X165314285Y-75930952D01*
X165219047Y-75978571D01*
X165171428Y-76026190D01*
X165123809Y-76121428D01*
X165123809Y-76311904D01*
X165171428Y-76407142D01*
X165219047Y-76454761D01*
X165314285Y-76502380D01*
X165504761Y-76502380D01*
X165600000Y-76454761D01*
X165647619Y-76407142D01*
X165695238Y-76311904D01*
X165695238Y-76121428D01*
X165647619Y-76026190D01*
X165600000Y-75978571D01*
X165504761Y-75930952D01*
X166171428Y-76502380D02*
X166361904Y-76502380D01*
X166457142Y-76454761D01*
X166504761Y-76407142D01*
X166600000Y-76264285D01*
X166647619Y-76073809D01*
X166647619Y-75692857D01*
X166600000Y-75597619D01*
X166552380Y-75550000D01*
X166457142Y-75502380D01*
X166266666Y-75502380D01*
X166171428Y-75550000D01*
X166123809Y-75597619D01*
X166076190Y-75692857D01*
X166076190Y-75930952D01*
X166123809Y-76026190D01*
X166171428Y-76073809D01*
X166266666Y-76121428D01*
X166457142Y-76121428D01*
X166552380Y-76073809D01*
X166600000Y-76026190D01*
X166647619Y-75930952D01*
X167504761Y-75502380D02*
X167314285Y-75502380D01*
X167219047Y-75550000D01*
X167171428Y-75597619D01*
X167076190Y-75740476D01*
X167028571Y-75930952D01*
X167028571Y-76311904D01*
X167076190Y-76407142D01*
X167123809Y-76454761D01*
X167219047Y-76502380D01*
X167409523Y-76502380D01*
X167504761Y-76454761D01*
X167552380Y-76407142D01*
X167600000Y-76311904D01*
X167600000Y-76073809D01*
X167552380Y-75978571D01*
X167504761Y-75930952D01*
X167409523Y-75883333D01*
X167219047Y-75883333D01*
X167123809Y-75930952D01*
X167076190Y-75978571D01*
X167028571Y-76073809D01*
X168028571Y-76121428D02*
X168790476Y-76121428D01*
X169219047Y-75597619D02*
X169266666Y-75550000D01*
X169361904Y-75502380D01*
X169600000Y-75502380D01*
X169695238Y-75550000D01*
X169742857Y-75597619D01*
X169790476Y-75692857D01*
X169790476Y-75788095D01*
X169742857Y-75930952D01*
X169171428Y-76502380D01*
X169790476Y-76502380D01*
X170171428Y-76216666D02*
X170647619Y-76216666D01*
X170076190Y-76502380D02*
X170409523Y-75502380D01*
X170742857Y-76502380D01*
X171647619Y-76502380D02*
X171314285Y-76026190D01*
X171076190Y-76502380D02*
X171076190Y-75502380D01*
X171457142Y-75502380D01*
X171552380Y-75550000D01*
X171600000Y-75597619D01*
X171647619Y-75692857D01*
X171647619Y-75835714D01*
X171600000Y-75930952D01*
X171552380Y-75978571D01*
X171457142Y-76026190D01*
X171076190Y-76026190D01*
X172076190Y-76502380D02*
X172076190Y-75502380D01*
X172409523Y-76216666D01*
X172742857Y-75502380D01*
X172742857Y-76502380D01*
X173123809Y-75502380D02*
X173790476Y-75502380D01*
X173123809Y-76502380D01*
X173790476Y-76502380D01*
D15*
X167028571Y-73189285D02*
X167028571Y-73796428D01*
X167064285Y-73867857D01*
X167100000Y-73903571D01*
X167171428Y-73939285D01*
X167314285Y-73939285D01*
X167385714Y-73903571D01*
X167421428Y-73867857D01*
X167457142Y-73796428D01*
X167457142Y-73189285D01*
X168135714Y-73439285D02*
X168135714Y-73939285D01*
X167957142Y-73153571D02*
X167778571Y-73689285D01*
X168242857Y-73689285D01*
D11*
X195507142Y-107616666D02*
X195983333Y-107616666D01*
X195411904Y-107902380D02*
X195745238Y-106902380D01*
X196078571Y-107902380D01*
X196411904Y-107902380D02*
X196411904Y-106902380D01*
X196650000Y-106902380D01*
X196792857Y-106950000D01*
X196888095Y-107045238D01*
X196935714Y-107140476D01*
X196983333Y-107330952D01*
X196983333Y-107473809D01*
X196935714Y-107664285D01*
X196888095Y-107759523D01*
X196792857Y-107854761D01*
X196650000Y-107902380D01*
X196411904Y-107902380D01*
X197364285Y-107616666D02*
X197840476Y-107616666D01*
X197269047Y-107902380D02*
X197602380Y-106902380D01*
X197935714Y-107902380D01*
X198697619Y-107235714D02*
X198697619Y-107902380D01*
X198459523Y-106854761D02*
X198221428Y-107569047D01*
X198840476Y-107569047D01*
X199364285Y-107330952D02*
X199269047Y-107283333D01*
X199221428Y-107235714D01*
X199173809Y-107140476D01*
X199173809Y-107092857D01*
X199221428Y-106997619D01*
X199269047Y-106950000D01*
X199364285Y-106902380D01*
X199554761Y-106902380D01*
X199650000Y-106950000D01*
X199697619Y-106997619D01*
X199745238Y-107092857D01*
X199745238Y-107140476D01*
X199697619Y-107235714D01*
X199650000Y-107283333D01*
X199554761Y-107330952D01*
X199364285Y-107330952D01*
X199269047Y-107378571D01*
X199221428Y-107426190D01*
X199173809Y-107521428D01*
X199173809Y-107711904D01*
X199221428Y-107807142D01*
X199269047Y-107854761D01*
X199364285Y-107902380D01*
X199554761Y-107902380D01*
X199650000Y-107854761D01*
X199697619Y-107807142D01*
X199745238Y-107711904D01*
X199745238Y-107521428D01*
X199697619Y-107426190D01*
X199650000Y-107378571D01*
X199554761Y-107330952D01*
X200221428Y-107902380D02*
X200411904Y-107902380D01*
X200507142Y-107854761D01*
X200554761Y-107807142D01*
X200650000Y-107664285D01*
X200697619Y-107473809D01*
X200697619Y-107092857D01*
X200650000Y-106997619D01*
X200602380Y-106950000D01*
X200507142Y-106902380D01*
X200316666Y-106902380D01*
X200221428Y-106950000D01*
X200173809Y-106997619D01*
X200126190Y-107092857D01*
X200126190Y-107330952D01*
X200173809Y-107426190D01*
X200221428Y-107473809D01*
X200316666Y-107521428D01*
X200507142Y-107521428D01*
X200602380Y-107473809D01*
X200650000Y-107426190D01*
X200697619Y-107330952D01*
X201554761Y-106902380D02*
X201364285Y-106902380D01*
X201269047Y-106950000D01*
X201221428Y-106997619D01*
X201126190Y-107140476D01*
X201078571Y-107330952D01*
X201078571Y-107711904D01*
X201126190Y-107807142D01*
X201173809Y-107854761D01*
X201269047Y-107902380D01*
X201459523Y-107902380D01*
X201554761Y-107854761D01*
X201602380Y-107807142D01*
X201650000Y-107711904D01*
X201650000Y-107473809D01*
X201602380Y-107378571D01*
X201554761Y-107330952D01*
X201459523Y-107283333D01*
X201269047Y-107283333D01*
X201173809Y-107330952D01*
X201126190Y-107378571D01*
X201078571Y-107473809D01*
X202078571Y-107521428D02*
X202840476Y-107521428D01*
X203269047Y-106997619D02*
X203316666Y-106950000D01*
X203411904Y-106902380D01*
X203650000Y-106902380D01*
X203745238Y-106950000D01*
X203792857Y-106997619D01*
X203840476Y-107092857D01*
X203840476Y-107188095D01*
X203792857Y-107330952D01*
X203221428Y-107902380D01*
X203840476Y-107902380D01*
X204221428Y-107616666D02*
X204697619Y-107616666D01*
X204126190Y-107902380D02*
X204459523Y-106902380D01*
X204792857Y-107902380D01*
X205697619Y-107902380D02*
X205364285Y-107426190D01*
X205126190Y-107902380D02*
X205126190Y-106902380D01*
X205507142Y-106902380D01*
X205602380Y-106950000D01*
X205650000Y-106997619D01*
X205697619Y-107092857D01*
X205697619Y-107235714D01*
X205650000Y-107330952D01*
X205602380Y-107378571D01*
X205507142Y-107426190D01*
X205126190Y-107426190D01*
X206126190Y-107902380D02*
X206126190Y-106902380D01*
X206459523Y-107616666D01*
X206792857Y-106902380D01*
X206792857Y-107902380D01*
X207173809Y-106902380D02*
X207840476Y-106902380D01*
X207173809Y-107902380D01*
X207840476Y-107902380D01*
D15*
X201078571Y-109489285D02*
X201078571Y-110096428D01*
X201114285Y-110167857D01*
X201150000Y-110203571D01*
X201221428Y-110239285D01*
X201364285Y-110239285D01*
X201435714Y-110203571D01*
X201471428Y-110167857D01*
X201507142Y-110096428D01*
X201507142Y-109489285D01*
X202221428Y-109489285D02*
X201864285Y-109489285D01*
X201828571Y-109846428D01*
X201864285Y-109810714D01*
X201935714Y-109775000D01*
X202114285Y-109775000D01*
X202185714Y-109810714D01*
X202221428Y-109846428D01*
X202257142Y-109917857D01*
X202257142Y-110096428D01*
X202221428Y-110167857D01*
X202185714Y-110203571D01*
X202114285Y-110239285D01*
X201935714Y-110239285D01*
X201864285Y-110203571D01*
X201828571Y-110167857D01*
D11*
X192352380Y-113447619D02*
X191352380Y-113447619D01*
X192352380Y-112876190D01*
X191352380Y-112876190D01*
X192352380Y-112257142D02*
X192304761Y-112352380D01*
X192257142Y-112400000D01*
X192161904Y-112447619D01*
X191876190Y-112447619D01*
X191780952Y-112400000D01*
X191733333Y-112352380D01*
X191685714Y-112257142D01*
X191685714Y-112114285D01*
X191733333Y-112019047D01*
X191780952Y-111971428D01*
X191876190Y-111923809D01*
X192161904Y-111923809D01*
X192257142Y-111971428D01*
X192304761Y-112019047D01*
X192352380Y-112114285D01*
X192352380Y-112257142D01*
X191685714Y-111495238D02*
X192352380Y-111495238D01*
X191780952Y-111495238D02*
X191733333Y-111447619D01*
X191685714Y-111352380D01*
X191685714Y-111209523D01*
X191733333Y-111114285D01*
X191828571Y-111066666D01*
X192352380Y-111066666D01*
X191971428Y-110590476D02*
X191971428Y-109828571D01*
X192352380Y-109352380D02*
X191352380Y-109352380D01*
X191685714Y-108876190D02*
X192352380Y-108876190D01*
X191780952Y-108876190D02*
X191733333Y-108828571D01*
X191685714Y-108733333D01*
X191685714Y-108590476D01*
X191733333Y-108495238D01*
X191828571Y-108447619D01*
X192352380Y-108447619D01*
X191685714Y-108066666D02*
X192352380Y-107828571D01*
X191685714Y-107590476D01*
X192304761Y-106828571D02*
X192352380Y-106923809D01*
X192352380Y-107114285D01*
X192304761Y-107209523D01*
X192209523Y-107257142D01*
X191828571Y-107257142D01*
X191733333Y-107209523D01*
X191685714Y-107114285D01*
X191685714Y-106923809D01*
X191733333Y-106828571D01*
X191828571Y-106780952D01*
X191923809Y-106780952D01*
X192019047Y-107257142D01*
X192352380Y-106352380D02*
X191685714Y-106352380D01*
X191876190Y-106352380D02*
X191780952Y-106304761D01*
X191733333Y-106257142D01*
X191685714Y-106161904D01*
X191685714Y-106066666D01*
X191685714Y-105876190D02*
X191685714Y-105495238D01*
X191352380Y-105733333D02*
X192209523Y-105733333D01*
X192304761Y-105685714D01*
X192352380Y-105590476D01*
X192352380Y-105495238D01*
X192352380Y-105161904D02*
X191685714Y-105161904D01*
X191352380Y-105161904D02*
X191400000Y-105209523D01*
X191447619Y-105161904D01*
X191400000Y-105114285D01*
X191352380Y-105161904D01*
X191447619Y-105161904D01*
X191685714Y-104685714D02*
X192352380Y-104685714D01*
X191780952Y-104685714D02*
X191733333Y-104638095D01*
X191685714Y-104542857D01*
X191685714Y-104400000D01*
X191733333Y-104304761D01*
X191828571Y-104257142D01*
X192352380Y-104257142D01*
X191685714Y-103352380D02*
X192495238Y-103352380D01*
X192590476Y-103400000D01*
X192638095Y-103447619D01*
X192685714Y-103542857D01*
X192685714Y-103685714D01*
X192638095Y-103780952D01*
X192304761Y-103352380D02*
X192352380Y-103447619D01*
X192352380Y-103638095D01*
X192304761Y-103733333D01*
X192257142Y-103780952D01*
X192161904Y-103828571D01*
X191876190Y-103828571D01*
X191780952Y-103780952D01*
X191733333Y-103733333D01*
X191685714Y-103638095D01*
X191685714Y-103447619D01*
X191733333Y-103352380D01*
X216680952Y-61692380D02*
X216109523Y-61692380D01*
X216395238Y-61692380D02*
X216395238Y-60692380D01*
X216300000Y-60835238D01*
X216204761Y-60930476D01*
X216109523Y-60978095D01*
X217300000Y-60692380D02*
X217395238Y-60692380D01*
X217490476Y-60740000D01*
X217538095Y-60787619D01*
X217585714Y-60882857D01*
X217633333Y-61073333D01*
X217633333Y-61311428D01*
X217585714Y-61501904D01*
X217538095Y-61597142D01*
X217490476Y-61644761D01*
X217395238Y-61692380D01*
X217300000Y-61692380D01*
X217204761Y-61644761D01*
X217157142Y-61597142D01*
X217109523Y-61501904D01*
X217061904Y-61311428D01*
X217061904Y-61073333D01*
X217109523Y-60882857D01*
X217157142Y-60787619D01*
X217204761Y-60740000D01*
X217300000Y-60692380D01*
X218252380Y-60692380D02*
X218347619Y-60692380D01*
X218442857Y-60740000D01*
X218490476Y-60787619D01*
X218538095Y-60882857D01*
X218585714Y-61073333D01*
X218585714Y-61311428D01*
X218538095Y-61501904D01*
X218490476Y-61597142D01*
X218442857Y-61644761D01*
X218347619Y-61692380D01*
X218252380Y-61692380D01*
X218157142Y-61644761D01*
X218109523Y-61597142D01*
X218061904Y-61501904D01*
X218014285Y-61311428D01*
X218014285Y-61073333D01*
X218061904Y-60882857D01*
X218109523Y-60787619D01*
X218157142Y-60740000D01*
X218252380Y-60692380D01*
X219014285Y-61025714D02*
X219014285Y-62025714D01*
X219014285Y-61073333D02*
X219109523Y-61025714D01*
X219300000Y-61025714D01*
X219395238Y-61073333D01*
X219442857Y-61120952D01*
X219490476Y-61216190D01*
X219490476Y-61501904D01*
X219442857Y-61597142D01*
X219395238Y-61644761D01*
X219300000Y-61692380D01*
X219109523Y-61692380D01*
X219014285Y-61644761D01*
D12*
X217639285Y-62489285D02*
X217627380Y-62501190D01*
X217591666Y-62513095D01*
X217567857Y-62513095D01*
X217532142Y-62501190D01*
X217508333Y-62477380D01*
X217496428Y-62453571D01*
X217484523Y-62405952D01*
X217484523Y-62370238D01*
X217496428Y-62322619D01*
X217508333Y-62298809D01*
X217532142Y-62275000D01*
X217567857Y-62263095D01*
X217591666Y-62263095D01*
X217627380Y-62275000D01*
X217639285Y-62286904D01*
X217734523Y-62286904D02*
X217746428Y-62275000D01*
X217770238Y-62263095D01*
X217829761Y-62263095D01*
X217853571Y-62275000D01*
X217865476Y-62286904D01*
X217877380Y-62310714D01*
X217877380Y-62334523D01*
X217865476Y-62370238D01*
X217722619Y-62513095D01*
X217877380Y-62513095D01*
X218103571Y-62263095D02*
X217984523Y-62263095D01*
X217972619Y-62382142D01*
X217984523Y-62370238D01*
X218008333Y-62358333D01*
X218067857Y-62358333D01*
X218091666Y-62370238D01*
X218103571Y-62382142D01*
X218115476Y-62405952D01*
X218115476Y-62465476D01*
X218103571Y-62489285D01*
X218091666Y-62501190D01*
X218067857Y-62513095D01*
X218008333Y-62513095D01*
X217984523Y-62501190D01*
X217972619Y-62489285D01*
D11*
X216680952Y-66512380D02*
X216109523Y-66512380D01*
X216395238Y-66512380D02*
X216395238Y-65512380D01*
X216300000Y-65655238D01*
X216204761Y-65750476D01*
X216109523Y-65798095D01*
X217300000Y-65512380D02*
X217395238Y-65512380D01*
X217490476Y-65560000D01*
X217538095Y-65607619D01*
X217585714Y-65702857D01*
X217633333Y-65893333D01*
X217633333Y-66131428D01*
X217585714Y-66321904D01*
X217538095Y-66417142D01*
X217490476Y-66464761D01*
X217395238Y-66512380D01*
X217300000Y-66512380D01*
X217204761Y-66464761D01*
X217157142Y-66417142D01*
X217109523Y-66321904D01*
X217061904Y-66131428D01*
X217061904Y-65893333D01*
X217109523Y-65702857D01*
X217157142Y-65607619D01*
X217204761Y-65560000D01*
X217300000Y-65512380D01*
X218252380Y-65512380D02*
X218347619Y-65512380D01*
X218442857Y-65560000D01*
X218490476Y-65607619D01*
X218538095Y-65702857D01*
X218585714Y-65893333D01*
X218585714Y-66131428D01*
X218538095Y-66321904D01*
X218490476Y-66417142D01*
X218442857Y-66464761D01*
X218347619Y-66512380D01*
X218252380Y-66512380D01*
X218157142Y-66464761D01*
X218109523Y-66417142D01*
X218061904Y-66321904D01*
X218014285Y-66131428D01*
X218014285Y-65893333D01*
X218061904Y-65702857D01*
X218109523Y-65607619D01*
X218157142Y-65560000D01*
X218252380Y-65512380D01*
X219014285Y-65845714D02*
X219014285Y-66845714D01*
X219014285Y-65893333D02*
X219109523Y-65845714D01*
X219300000Y-65845714D01*
X219395238Y-65893333D01*
X219442857Y-65940952D01*
X219490476Y-66036190D01*
X219490476Y-66321904D01*
X219442857Y-66417142D01*
X219395238Y-66464761D01*
X219300000Y-66512380D01*
X219109523Y-66512380D01*
X219014285Y-66464761D01*
D12*
X217639285Y-64989285D02*
X217627380Y-65001190D01*
X217591666Y-65013095D01*
X217567857Y-65013095D01*
X217532142Y-65001190D01*
X217508333Y-64977380D01*
X217496428Y-64953571D01*
X217484523Y-64905952D01*
X217484523Y-64870238D01*
X217496428Y-64822619D01*
X217508333Y-64798809D01*
X217532142Y-64775000D01*
X217567857Y-64763095D01*
X217591666Y-64763095D01*
X217627380Y-64775000D01*
X217639285Y-64786904D01*
X217734523Y-64786904D02*
X217746428Y-64775000D01*
X217770238Y-64763095D01*
X217829761Y-64763095D01*
X217853571Y-64775000D01*
X217865476Y-64786904D01*
X217877380Y-64810714D01*
X217877380Y-64834523D01*
X217865476Y-64870238D01*
X217722619Y-65013095D01*
X217877380Y-65013095D01*
X218091666Y-64763095D02*
X218044047Y-64763095D01*
X218020238Y-64775000D01*
X218008333Y-64786904D01*
X217984523Y-64822619D01*
X217972619Y-64870238D01*
X217972619Y-64965476D01*
X217984523Y-64989285D01*
X217996428Y-65001190D01*
X218020238Y-65013095D01*
X218067857Y-65013095D01*
X218091666Y-65001190D01*
X218103571Y-64989285D01*
X218115476Y-64965476D01*
X218115476Y-64905952D01*
X218103571Y-64882142D01*
X218091666Y-64870238D01*
X218067857Y-64858333D01*
X218020238Y-64858333D01*
X217996428Y-64870238D01*
X217984523Y-64882142D01*
X217972619Y-64905952D01*
D11*
X205558333Y-62882380D02*
X204986904Y-62882380D01*
X205272619Y-62882380D02*
X205272619Y-61882380D01*
X205177380Y-62025238D01*
X205082142Y-62120476D01*
X204986904Y-62168095D01*
X205986904Y-62215714D02*
X205986904Y-62882380D01*
X205986904Y-62310952D02*
X206034523Y-62263333D01*
X206129761Y-62215714D01*
X206272619Y-62215714D01*
X206367857Y-62263333D01*
X206415476Y-62358571D01*
X206415476Y-62882380D01*
D14*
X205467857Y-61142857D02*
X205448809Y-61161904D01*
X205391666Y-61180952D01*
X205353571Y-61180952D01*
X205296428Y-61161904D01*
X205258333Y-61123809D01*
X205239285Y-61085714D01*
X205220238Y-61009523D01*
X205220238Y-60952380D01*
X205239285Y-60876190D01*
X205258333Y-60838095D01*
X205296428Y-60800000D01*
X205353571Y-60780952D01*
X205391666Y-60780952D01*
X205448809Y-60800000D01*
X205467857Y-60819047D01*
X205620238Y-60819047D02*
X205639285Y-60800000D01*
X205677380Y-60780952D01*
X205772619Y-60780952D01*
X205810714Y-60800000D01*
X205829761Y-60819047D01*
X205848809Y-60857142D01*
X205848809Y-60895238D01*
X205829761Y-60952380D01*
X205601190Y-61180952D01*
X205848809Y-61180952D01*
X205982142Y-60780952D02*
X206248809Y-60780952D01*
X206077380Y-61180952D01*
D11*
X210582380Y-69419047D02*
X210582380Y-69990476D01*
X210582380Y-69704761D02*
X209582380Y-69704761D01*
X209725238Y-69800000D01*
X209820476Y-69895238D01*
X209868095Y-69990476D01*
X209582380Y-68800000D02*
X209582380Y-68704761D01*
X209630000Y-68609523D01*
X209677619Y-68561904D01*
X209772857Y-68514285D01*
X209963333Y-68466666D01*
X210201428Y-68466666D01*
X210391904Y-68514285D01*
X210487142Y-68561904D01*
X210534761Y-68609523D01*
X210582380Y-68704761D01*
X210582380Y-68800000D01*
X210534761Y-68895238D01*
X210487142Y-68942857D01*
X210391904Y-68990476D01*
X210201428Y-69038095D01*
X209963333Y-69038095D01*
X209772857Y-68990476D01*
X209677619Y-68942857D01*
X209630000Y-68895238D01*
X209582380Y-68800000D01*
X209582380Y-67847619D02*
X209582380Y-67752380D01*
X209630000Y-67657142D01*
X209677619Y-67609523D01*
X209772857Y-67561904D01*
X209963333Y-67514285D01*
X210201428Y-67514285D01*
X210391904Y-67561904D01*
X210487142Y-67609523D01*
X210534761Y-67657142D01*
X210582380Y-67752380D01*
X210582380Y-67847619D01*
X210534761Y-67942857D01*
X210487142Y-67990476D01*
X210391904Y-68038095D01*
X210201428Y-68085714D01*
X209963333Y-68085714D01*
X209772857Y-68038095D01*
X209677619Y-67990476D01*
X209630000Y-67942857D01*
X209582380Y-67847619D01*
X209915714Y-67085714D02*
X210582380Y-67085714D01*
X210010952Y-67085714D02*
X209963333Y-67038095D01*
X209915714Y-66942857D01*
X209915714Y-66800000D01*
X209963333Y-66704761D01*
X210058571Y-66657142D01*
X210582380Y-66657142D01*
D14*
X208842857Y-68557142D02*
X208861904Y-68576190D01*
X208880952Y-68633333D01*
X208880952Y-68671428D01*
X208861904Y-68728571D01*
X208823809Y-68766666D01*
X208785714Y-68785714D01*
X208709523Y-68804761D01*
X208652380Y-68804761D01*
X208576190Y-68785714D01*
X208538095Y-68766666D01*
X208500000Y-68728571D01*
X208480952Y-68671428D01*
X208480952Y-68633333D01*
X208500000Y-68576190D01*
X208519047Y-68557142D01*
X208519047Y-68404761D02*
X208500000Y-68385714D01*
X208480952Y-68347619D01*
X208480952Y-68252380D01*
X208500000Y-68214285D01*
X208519047Y-68195238D01*
X208557142Y-68176190D01*
X208595238Y-68176190D01*
X208652380Y-68195238D01*
X208880952Y-68423809D01*
X208880952Y-68176190D01*
X208652380Y-67947619D02*
X208633333Y-67985714D01*
X208614285Y-68004761D01*
X208576190Y-68023809D01*
X208557142Y-68023809D01*
X208519047Y-68004761D01*
X208500000Y-67985714D01*
X208480952Y-67947619D01*
X208480952Y-67871428D01*
X208500000Y-67833333D01*
X208519047Y-67814285D01*
X208557142Y-67795238D01*
X208576190Y-67795238D01*
X208614285Y-67814285D01*
X208633333Y-67833333D01*
X208652380Y-67871428D01*
X208652380Y-67947619D01*
X208671428Y-67985714D01*
X208690476Y-68004761D01*
X208728571Y-68023809D01*
X208804761Y-68023809D01*
X208842857Y-68004761D01*
X208861904Y-67985714D01*
X208880952Y-67947619D01*
X208880952Y-67871428D01*
X208861904Y-67833333D01*
X208842857Y-67814285D01*
X208804761Y-67795238D01*
X208728571Y-67795238D01*
X208690476Y-67814285D01*
X208671428Y-67833333D01*
X208652380Y-67871428D01*
D11*
X112302380Y-140669047D02*
X112302380Y-141240476D01*
X112302380Y-140954761D02*
X111302380Y-140954761D01*
X111445238Y-141050000D01*
X111540476Y-141145238D01*
X111588095Y-141240476D01*
X111302380Y-140050000D02*
X111302380Y-139954761D01*
X111350000Y-139859523D01*
X111397619Y-139811904D01*
X111492857Y-139764285D01*
X111683333Y-139716666D01*
X111921428Y-139716666D01*
X112111904Y-139764285D01*
X112207142Y-139811904D01*
X112254761Y-139859523D01*
X112302380Y-139954761D01*
X112302380Y-140050000D01*
X112254761Y-140145238D01*
X112207142Y-140192857D01*
X112111904Y-140240476D01*
X111921428Y-140288095D01*
X111683333Y-140288095D01*
X111492857Y-140240476D01*
X111397619Y-140192857D01*
X111350000Y-140145238D01*
X111302380Y-140050000D01*
X111302380Y-139097619D02*
X111302380Y-139002380D01*
X111350000Y-138907142D01*
X111397619Y-138859523D01*
X111492857Y-138811904D01*
X111683333Y-138764285D01*
X111921428Y-138764285D01*
X112111904Y-138811904D01*
X112207142Y-138859523D01*
X112254761Y-138907142D01*
X112302380Y-139002380D01*
X112302380Y-139097619D01*
X112254761Y-139192857D01*
X112207142Y-139240476D01*
X112111904Y-139288095D01*
X111921428Y-139335714D01*
X111683333Y-139335714D01*
X111492857Y-139288095D01*
X111397619Y-139240476D01*
X111350000Y-139192857D01*
X111302380Y-139097619D01*
X111635714Y-137907142D02*
X112302380Y-137907142D01*
X111635714Y-138335714D02*
X112159523Y-138335714D01*
X112254761Y-138288095D01*
X112302380Y-138192857D01*
X112302380Y-138050000D01*
X112254761Y-137954761D01*
X112207142Y-137907142D01*
X108457142Y-140192857D02*
X108504761Y-140240476D01*
X108552380Y-140383333D01*
X108552380Y-140478571D01*
X108504761Y-140621428D01*
X108409523Y-140716666D01*
X108314285Y-140764285D01*
X108123809Y-140811904D01*
X107980952Y-140811904D01*
X107790476Y-140764285D01*
X107695238Y-140716666D01*
X107600000Y-140621428D01*
X107552380Y-140478571D01*
X107552380Y-140383333D01*
X107600000Y-140240476D01*
X107647619Y-140192857D01*
X107647619Y-139811904D02*
X107600000Y-139764285D01*
X107552380Y-139669047D01*
X107552380Y-139430952D01*
X107600000Y-139335714D01*
X107647619Y-139288095D01*
X107742857Y-139240476D01*
X107838095Y-139240476D01*
X107980952Y-139288095D01*
X108552380Y-139859523D01*
X108552380Y-139240476D01*
X108552380Y-138764285D02*
X108552380Y-138573809D01*
X108504761Y-138478571D01*
X108457142Y-138430952D01*
X108314285Y-138335714D01*
X108123809Y-138288095D01*
X107742857Y-138288095D01*
X107647619Y-138335714D01*
X107600000Y-138383333D01*
X107552380Y-138478571D01*
X107552380Y-138669047D01*
X107600000Y-138764285D01*
X107647619Y-138811904D01*
X107742857Y-138859523D01*
X107980952Y-138859523D01*
X108076190Y-138811904D01*
X108123809Y-138764285D01*
X108171428Y-138669047D01*
X108171428Y-138478571D01*
X108123809Y-138383333D01*
X108076190Y-138335714D01*
X107980952Y-138288095D01*
X101722380Y-140719047D02*
X101722380Y-141290476D01*
X101722380Y-141004761D02*
X100722380Y-141004761D01*
X100865238Y-141100000D01*
X100960476Y-141195238D01*
X101008095Y-141290476D01*
X100722380Y-140100000D02*
X100722380Y-140004761D01*
X100770000Y-139909523D01*
X100817619Y-139861904D01*
X100912857Y-139814285D01*
X101103333Y-139766666D01*
X101341428Y-139766666D01*
X101531904Y-139814285D01*
X101627142Y-139861904D01*
X101674761Y-139909523D01*
X101722380Y-140004761D01*
X101722380Y-140100000D01*
X101674761Y-140195238D01*
X101627142Y-140242857D01*
X101531904Y-140290476D01*
X101341428Y-140338095D01*
X101103333Y-140338095D01*
X100912857Y-140290476D01*
X100817619Y-140242857D01*
X100770000Y-140195238D01*
X100722380Y-140100000D01*
X100722380Y-139147619D02*
X100722380Y-139052380D01*
X100770000Y-138957142D01*
X100817619Y-138909523D01*
X100912857Y-138861904D01*
X101103333Y-138814285D01*
X101341428Y-138814285D01*
X101531904Y-138861904D01*
X101627142Y-138909523D01*
X101674761Y-138957142D01*
X101722380Y-139052380D01*
X101722380Y-139147619D01*
X101674761Y-139242857D01*
X101627142Y-139290476D01*
X101531904Y-139338095D01*
X101341428Y-139385714D01*
X101103333Y-139385714D01*
X100912857Y-139338095D01*
X100817619Y-139290476D01*
X100770000Y-139242857D01*
X100722380Y-139147619D01*
X101055714Y-138385714D02*
X101722380Y-138385714D01*
X101150952Y-138385714D02*
X101103333Y-138338095D01*
X101055714Y-138242857D01*
X101055714Y-138100000D01*
X101103333Y-138004761D01*
X101198571Y-137957142D01*
X101722380Y-137957142D01*
D14*
X102842857Y-139857142D02*
X102861904Y-139876190D01*
X102880952Y-139933333D01*
X102880952Y-139971428D01*
X102861904Y-140028571D01*
X102823809Y-140066666D01*
X102785714Y-140085714D01*
X102709523Y-140104761D01*
X102652380Y-140104761D01*
X102576190Y-140085714D01*
X102538095Y-140066666D01*
X102500000Y-140028571D01*
X102480952Y-139971428D01*
X102480952Y-139933333D01*
X102500000Y-139876190D01*
X102519047Y-139857142D01*
X102480952Y-139723809D02*
X102480952Y-139476190D01*
X102633333Y-139609523D01*
X102633333Y-139552380D01*
X102652380Y-139514285D01*
X102671428Y-139495238D01*
X102709523Y-139476190D01*
X102804761Y-139476190D01*
X102842857Y-139495238D01*
X102861904Y-139514285D01*
X102880952Y-139552380D01*
X102880952Y-139666666D01*
X102861904Y-139704761D01*
X102842857Y-139723809D01*
X102480952Y-139228571D02*
X102480952Y-139190476D01*
X102500000Y-139152380D01*
X102519047Y-139133333D01*
X102557142Y-139114285D01*
X102633333Y-139095238D01*
X102728571Y-139095238D01*
X102804761Y-139114285D01*
X102842857Y-139133333D01*
X102861904Y-139152380D01*
X102880952Y-139190476D01*
X102880952Y-139228571D01*
X102861904Y-139266666D01*
X102842857Y-139285714D01*
X102804761Y-139304761D01*
X102728571Y-139323809D01*
X102633333Y-139323809D01*
X102557142Y-139304761D01*
X102519047Y-139285714D01*
X102500000Y-139266666D01*
X102480952Y-139228571D01*
D11*
X96722380Y-140819047D02*
X96722380Y-141390476D01*
X96722380Y-141104761D02*
X95722380Y-141104761D01*
X95865238Y-141200000D01*
X95960476Y-141295238D01*
X96008095Y-141390476D01*
X95722380Y-140200000D02*
X95722380Y-140104761D01*
X95770000Y-140009523D01*
X95817619Y-139961904D01*
X95912857Y-139914285D01*
X96103333Y-139866666D01*
X96341428Y-139866666D01*
X96531904Y-139914285D01*
X96627142Y-139961904D01*
X96674761Y-140009523D01*
X96722380Y-140104761D01*
X96722380Y-140200000D01*
X96674761Y-140295238D01*
X96627142Y-140342857D01*
X96531904Y-140390476D01*
X96341428Y-140438095D01*
X96103333Y-140438095D01*
X95912857Y-140390476D01*
X95817619Y-140342857D01*
X95770000Y-140295238D01*
X95722380Y-140200000D01*
X95722380Y-139247619D02*
X95722380Y-139152380D01*
X95770000Y-139057142D01*
X95817619Y-139009523D01*
X95912857Y-138961904D01*
X96103333Y-138914285D01*
X96341428Y-138914285D01*
X96531904Y-138961904D01*
X96627142Y-139009523D01*
X96674761Y-139057142D01*
X96722380Y-139152380D01*
X96722380Y-139247619D01*
X96674761Y-139342857D01*
X96627142Y-139390476D01*
X96531904Y-139438095D01*
X96341428Y-139485714D01*
X96103333Y-139485714D01*
X95912857Y-139438095D01*
X95817619Y-139390476D01*
X95770000Y-139342857D01*
X95722380Y-139247619D01*
X96055714Y-138485714D02*
X96722380Y-138485714D01*
X96150952Y-138485714D02*
X96103333Y-138438095D01*
X96055714Y-138342857D01*
X96055714Y-138200000D01*
X96103333Y-138104761D01*
X96198571Y-138057142D01*
X96722380Y-138057142D01*
D14*
X97842857Y-139957142D02*
X97861904Y-139976190D01*
X97880952Y-140033333D01*
X97880952Y-140071428D01*
X97861904Y-140128571D01*
X97823809Y-140166666D01*
X97785714Y-140185714D01*
X97709523Y-140204761D01*
X97652380Y-140204761D01*
X97576190Y-140185714D01*
X97538095Y-140166666D01*
X97500000Y-140128571D01*
X97480952Y-140071428D01*
X97480952Y-140033333D01*
X97500000Y-139976190D01*
X97519047Y-139957142D01*
X97480952Y-139823809D02*
X97480952Y-139576190D01*
X97633333Y-139709523D01*
X97633333Y-139652380D01*
X97652380Y-139614285D01*
X97671428Y-139595238D01*
X97709523Y-139576190D01*
X97804761Y-139576190D01*
X97842857Y-139595238D01*
X97861904Y-139614285D01*
X97880952Y-139652380D01*
X97880952Y-139766666D01*
X97861904Y-139804761D01*
X97842857Y-139823809D01*
X97880952Y-139195238D02*
X97880952Y-139423809D01*
X97880952Y-139309523D02*
X97480952Y-139309523D01*
X97538095Y-139347619D01*
X97576190Y-139385714D01*
X97595238Y-139423809D01*
D11*
X97002380Y-140569047D02*
X97002380Y-141140476D01*
X97002380Y-140854761D02*
X96002380Y-140854761D01*
X96145238Y-140950000D01*
X96240476Y-141045238D01*
X96288095Y-141140476D01*
X96002380Y-139950000D02*
X96002380Y-139854761D01*
X96050000Y-139759523D01*
X96097619Y-139711904D01*
X96192857Y-139664285D01*
X96383333Y-139616666D01*
X96621428Y-139616666D01*
X96811904Y-139664285D01*
X96907142Y-139711904D01*
X96954761Y-139759523D01*
X97002380Y-139854761D01*
X97002380Y-139950000D01*
X96954761Y-140045238D01*
X96907142Y-140092857D01*
X96811904Y-140140476D01*
X96621428Y-140188095D01*
X96383333Y-140188095D01*
X96192857Y-140140476D01*
X96097619Y-140092857D01*
X96050000Y-140045238D01*
X96002380Y-139950000D01*
X96002380Y-138997619D02*
X96002380Y-138902380D01*
X96050000Y-138807142D01*
X96097619Y-138759523D01*
X96192857Y-138711904D01*
X96383333Y-138664285D01*
X96621428Y-138664285D01*
X96811904Y-138711904D01*
X96907142Y-138759523D01*
X96954761Y-138807142D01*
X97002380Y-138902380D01*
X97002380Y-138997619D01*
X96954761Y-139092857D01*
X96907142Y-139140476D01*
X96811904Y-139188095D01*
X96621428Y-139235714D01*
X96383333Y-139235714D01*
X96192857Y-139188095D01*
X96097619Y-139140476D01*
X96050000Y-139092857D01*
X96002380Y-138997619D01*
X96335714Y-137807142D02*
X97002380Y-137807142D01*
X96335714Y-138235714D02*
X96859523Y-138235714D01*
X96954761Y-138188095D01*
X97002380Y-138092857D01*
X97002380Y-137950000D01*
X96954761Y-137854761D01*
X96907142Y-137807142D01*
X93157142Y-140092857D02*
X93204761Y-140140476D01*
X93252380Y-140283333D01*
X93252380Y-140378571D01*
X93204761Y-140521428D01*
X93109523Y-140616666D01*
X93014285Y-140664285D01*
X92823809Y-140711904D01*
X92680952Y-140711904D01*
X92490476Y-140664285D01*
X92395238Y-140616666D01*
X92300000Y-140521428D01*
X92252380Y-140378571D01*
X92252380Y-140283333D01*
X92300000Y-140140476D01*
X92347619Y-140092857D01*
X92252380Y-139759523D02*
X92252380Y-139140476D01*
X92633333Y-139473809D01*
X92633333Y-139330952D01*
X92680952Y-139235714D01*
X92728571Y-139188095D01*
X92823809Y-139140476D01*
X93061904Y-139140476D01*
X93157142Y-139188095D01*
X93204761Y-139235714D01*
X93252380Y-139330952D01*
X93252380Y-139616666D01*
X93204761Y-139711904D01*
X93157142Y-139759523D01*
X92347619Y-138759523D02*
X92300000Y-138711904D01*
X92252380Y-138616666D01*
X92252380Y-138378571D01*
X92300000Y-138283333D01*
X92347619Y-138235714D01*
X92442857Y-138188095D01*
X92538095Y-138188095D01*
X92680952Y-138235714D01*
X93252380Y-138807142D01*
X93252380Y-138188095D01*
X65487142Y-101571428D02*
X65534761Y-101619047D01*
X65582380Y-101761904D01*
X65582380Y-101857142D01*
X65534761Y-102000000D01*
X65439523Y-102095238D01*
X65344285Y-102142857D01*
X65153809Y-102190476D01*
X65010952Y-102190476D01*
X64820476Y-102142857D01*
X64725238Y-102095238D01*
X64630000Y-102000000D01*
X64582380Y-101857142D01*
X64582380Y-101761904D01*
X64630000Y-101619047D01*
X64677619Y-101571428D01*
X64582380Y-100714285D02*
X64582380Y-100904761D01*
X64630000Y-101000000D01*
X64677619Y-101047619D01*
X64820476Y-101142857D01*
X65010952Y-101190476D01*
X65391904Y-101190476D01*
X65487142Y-101142857D01*
X65534761Y-101095238D01*
X65582380Y-101000000D01*
X65582380Y-100809523D01*
X65534761Y-100714285D01*
X65487142Y-100666666D01*
X65391904Y-100619047D01*
X65153809Y-100619047D01*
X65058571Y-100666666D01*
X65010952Y-100714285D01*
X64963333Y-100809523D01*
X64963333Y-101000000D01*
X65010952Y-101095238D01*
X65058571Y-101142857D01*
X65153809Y-101190476D01*
X64915714Y-99761904D02*
X65582380Y-99761904D01*
X64534761Y-100000000D02*
X65249047Y-100238095D01*
X65249047Y-99619047D01*
X65296666Y-99285714D02*
X65296666Y-98809523D01*
X65582380Y-99380952D02*
X64582380Y-99047619D01*
X65582380Y-98714285D01*
X65487142Y-97809523D02*
X65534761Y-97857142D01*
X65582380Y-98000000D01*
X65582380Y-98095238D01*
X65534761Y-98238095D01*
X65439523Y-98333333D01*
X65344285Y-98380952D01*
X65153809Y-98428571D01*
X65010952Y-98428571D01*
X64820476Y-98380952D01*
X64725238Y-98333333D01*
X64630000Y-98238095D01*
X64582380Y-98095238D01*
X64582380Y-98000000D01*
X64630000Y-97857142D01*
X64677619Y-97809523D01*
X205622380Y-116114285D02*
X204622380Y-116114285D01*
X204622380Y-115876190D01*
X204670000Y-115733333D01*
X204765238Y-115638095D01*
X204860476Y-115590476D01*
X205050952Y-115542857D01*
X205193809Y-115542857D01*
X205384285Y-115590476D01*
X205479523Y-115638095D01*
X205574761Y-115733333D01*
X205622380Y-115876190D01*
X205622380Y-116114285D01*
X205622380Y-115114285D02*
X204622380Y-115114285D01*
X205622380Y-114542857D01*
X204622380Y-114542857D01*
X205098571Y-113733333D02*
X205098571Y-114066666D01*
X205622380Y-114066666D02*
X204622380Y-114066666D01*
X204622380Y-113590476D01*
D14*
X206780952Y-115157142D02*
X206590476Y-115290476D01*
X206780952Y-115385714D02*
X206380952Y-115385714D01*
X206380952Y-115233333D01*
X206400000Y-115195238D01*
X206419047Y-115176190D01*
X206457142Y-115157142D01*
X206514285Y-115157142D01*
X206552380Y-115176190D01*
X206571428Y-115195238D01*
X206590476Y-115233333D01*
X206590476Y-115385714D01*
X206419047Y-115004761D02*
X206400000Y-114985714D01*
X206380952Y-114947619D01*
X206380952Y-114852380D01*
X206400000Y-114814285D01*
X206419047Y-114795238D01*
X206457142Y-114776190D01*
X206495238Y-114776190D01*
X206552380Y-114795238D01*
X206780952Y-115023809D01*
X206780952Y-114776190D01*
X206780952Y-114395238D02*
X206780952Y-114623809D01*
X206780952Y-114509523D02*
X206380952Y-114509523D01*
X206438095Y-114547619D01*
X206476190Y-114585714D01*
X206495238Y-114623809D01*
D11*
X207482380Y-111547619D02*
X207482380Y-111452380D01*
X207530000Y-111357142D01*
X207577619Y-111309523D01*
X207672857Y-111261904D01*
X207863333Y-111214285D01*
X208101428Y-111214285D01*
X208291904Y-111261904D01*
X208387142Y-111309523D01*
X208434761Y-111357142D01*
X208482380Y-111452380D01*
X208482380Y-111547619D01*
X208434761Y-111642857D01*
X208387142Y-111690476D01*
X208291904Y-111738095D01*
X208101428Y-111785714D01*
X207863333Y-111785714D01*
X207672857Y-111738095D01*
X207577619Y-111690476D01*
X207530000Y-111642857D01*
X207482380Y-111547619D01*
D14*
X206780952Y-111757142D02*
X206590476Y-111890476D01*
X206780952Y-111985714D02*
X206380952Y-111985714D01*
X206380952Y-111833333D01*
X206400000Y-111795238D01*
X206419047Y-111776190D01*
X206457142Y-111757142D01*
X206514285Y-111757142D01*
X206552380Y-111776190D01*
X206571428Y-111795238D01*
X206590476Y-111833333D01*
X206590476Y-111985714D01*
X206419047Y-111604761D02*
X206400000Y-111585714D01*
X206380952Y-111547619D01*
X206380952Y-111452380D01*
X206400000Y-111414285D01*
X206419047Y-111395238D01*
X206457142Y-111376190D01*
X206495238Y-111376190D01*
X206552380Y-111395238D01*
X206780952Y-111623809D01*
X206780952Y-111376190D01*
X206419047Y-111223809D02*
X206400000Y-111204761D01*
X206380952Y-111166666D01*
X206380952Y-111071428D01*
X206400000Y-111033333D01*
X206419047Y-111014285D01*
X206457142Y-110995238D01*
X206495238Y-110995238D01*
X206552380Y-111014285D01*
X206780952Y-111242857D01*
X206780952Y-110995238D01*
D11*
X98864761Y-143452380D02*
X98388571Y-143452380D01*
X98388571Y-142452380D01*
X99102857Y-142452380D02*
X99769523Y-142452380D01*
X99340952Y-143452380D01*
X100293333Y-142880952D02*
X100198095Y-142833333D01*
X100150476Y-142785714D01*
X100102857Y-142690476D01*
X100102857Y-142642857D01*
X100150476Y-142547619D01*
X100198095Y-142500000D01*
X100293333Y-142452380D01*
X100483809Y-142452380D01*
X100579047Y-142500000D01*
X100626666Y-142547619D01*
X100674285Y-142642857D01*
X100674285Y-142690476D01*
X100626666Y-142785714D01*
X100579047Y-142833333D01*
X100483809Y-142880952D01*
X100293333Y-142880952D01*
X100198095Y-142928571D01*
X100150476Y-142976190D01*
X100102857Y-143071428D01*
X100102857Y-143261904D01*
X100150476Y-143357142D01*
X100198095Y-143404761D01*
X100293333Y-143452380D01*
X100483809Y-143452380D01*
X100579047Y-143404761D01*
X100626666Y-143357142D01*
X100674285Y-143261904D01*
X100674285Y-143071428D01*
X100626666Y-142976190D01*
X100579047Y-142928571D01*
X100483809Y-142880952D01*
X101293333Y-142452380D02*
X101388571Y-142452380D01*
X101483809Y-142500000D01*
X101531428Y-142547619D01*
X101579047Y-142642857D01*
X101626666Y-142833333D01*
X101626666Y-143071428D01*
X101579047Y-143261904D01*
X101531428Y-143357142D01*
X101483809Y-143404761D01*
X101388571Y-143452380D01*
X101293333Y-143452380D01*
X101198095Y-143404761D01*
X101150476Y-143357142D01*
X101102857Y-143261904D01*
X101055238Y-143071428D01*
X101055238Y-142833333D01*
X101102857Y-142642857D01*
X101150476Y-142547619D01*
X101198095Y-142500000D01*
X101293333Y-142452380D01*
X102102857Y-143452380D02*
X102293333Y-143452380D01*
X102388571Y-143404761D01*
X102436190Y-143357142D01*
X102531428Y-143214285D01*
X102579047Y-143023809D01*
X102579047Y-142642857D01*
X102531428Y-142547619D01*
X102483809Y-142500000D01*
X102388571Y-142452380D01*
X102198095Y-142452380D01*
X102102857Y-142500000D01*
X102055238Y-142547619D01*
X102007619Y-142642857D01*
X102007619Y-142880952D01*
X102055238Y-142976190D01*
X102102857Y-143023809D01*
X102198095Y-143071428D01*
X102388571Y-143071428D01*
X102483809Y-143023809D01*
X102531428Y-142976190D01*
X102579047Y-142880952D01*
X99698095Y-149222380D02*
X99698095Y-150031904D01*
X99745714Y-150127142D01*
X99793333Y-150174761D01*
X99888571Y-150222380D01*
X100079047Y-150222380D01*
X100174285Y-150174761D01*
X100221904Y-150127142D01*
X100269523Y-150031904D01*
X100269523Y-149222380D01*
X100650476Y-149222380D02*
X101317142Y-149222380D01*
X100888571Y-150222380D01*
X216652380Y-135333333D02*
X217366666Y-135333333D01*
X217509523Y-135380952D01*
X217604761Y-135476190D01*
X217652380Y-135619047D01*
X217652380Y-135714285D01*
X216652380Y-134952380D02*
X216652380Y-134333333D01*
X217033333Y-134666666D01*
X217033333Y-134523809D01*
X217080952Y-134428571D01*
X217128571Y-134380952D01*
X217223809Y-134333333D01*
X217461904Y-134333333D01*
X217557142Y-134380952D01*
X217604761Y-134428571D01*
X217652380Y-134523809D01*
X217652380Y-134809523D01*
X217604761Y-134904761D01*
X217557142Y-134952380D01*
X216552380Y-110233333D02*
X217266666Y-110233333D01*
X217409523Y-110280952D01*
X217504761Y-110376190D01*
X217552380Y-110519047D01*
X217552380Y-110614285D01*
X216552380Y-109280952D02*
X216552380Y-109757142D01*
X217028571Y-109804761D01*
X216980952Y-109757142D01*
X216933333Y-109661904D01*
X216933333Y-109423809D01*
X216980952Y-109328571D01*
X217028571Y-109280952D01*
X217123809Y-109233333D01*
X217361904Y-109233333D01*
X217457142Y-109280952D01*
X217504761Y-109328571D01*
X217552380Y-109423809D01*
X217552380Y-109661904D01*
X217504761Y-109757142D01*
X217457142Y-109804761D01*
X207461904Y-66852380D02*
X207461904Y-65852380D01*
X207461904Y-66328571D02*
X208033333Y-66328571D01*
X208033333Y-66852380D02*
X208033333Y-65852380D01*
X208509523Y-66852380D02*
X208509523Y-65852380D01*
X208842857Y-66566666D01*
X209176190Y-65852380D01*
X209176190Y-66852380D01*
X210223809Y-66757142D02*
X210176190Y-66804761D01*
X210033333Y-66852380D01*
X209938095Y-66852380D01*
X209795238Y-66804761D01*
X209700000Y-66709523D01*
X209652380Y-66614285D01*
X209604761Y-66423809D01*
X209604761Y-66280952D01*
X209652380Y-66090476D01*
X209700000Y-65995238D01*
X209795238Y-65900000D01*
X209938095Y-65852380D01*
X210033333Y-65852380D01*
X210176190Y-65900000D01*
X210223809Y-65947619D01*
X210557142Y-65852380D02*
X211176190Y-65852380D01*
X210842857Y-66233333D01*
X210985714Y-66233333D01*
X211080952Y-66280952D01*
X211128571Y-66328571D01*
X211176190Y-66423809D01*
X211176190Y-66661904D01*
X211128571Y-66757142D01*
X211080952Y-66804761D01*
X210985714Y-66852380D01*
X210700000Y-66852380D01*
X210604761Y-66804761D01*
X210557142Y-66757142D01*
X212033333Y-65852380D02*
X211842857Y-65852380D01*
X211747619Y-65900000D01*
X211700000Y-65947619D01*
X211604761Y-66090476D01*
X211557142Y-66280952D01*
X211557142Y-66661904D01*
X211604761Y-66757142D01*
X211652380Y-66804761D01*
X211747619Y-66852380D01*
X211938095Y-66852380D01*
X212033333Y-66804761D01*
X212080952Y-66757142D01*
X212128571Y-66661904D01*
X212128571Y-66423809D01*
X212080952Y-66328571D01*
X212033333Y-66280952D01*
X211938095Y-66233333D01*
X211747619Y-66233333D01*
X211652380Y-66280952D01*
X211604761Y-66328571D01*
X211557142Y-66423809D01*
X213033333Y-65852380D02*
X212557142Y-65852380D01*
X212509523Y-66328571D01*
X212557142Y-66280952D01*
X212652380Y-66233333D01*
X212890476Y-66233333D01*
X212985714Y-66280952D01*
X213033333Y-66328571D01*
X213080952Y-66423809D01*
X213080952Y-66661904D01*
X213033333Y-66757142D01*
X212985714Y-66804761D01*
X212890476Y-66852380D01*
X212652380Y-66852380D01*
X212557142Y-66804761D01*
X212509523Y-66757142D01*
X213461904Y-66804761D02*
X213604761Y-66852380D01*
X213842857Y-66852380D01*
X213938095Y-66804761D01*
X213985714Y-66757142D01*
X214033333Y-66661904D01*
X214033333Y-66566666D01*
X213985714Y-66471428D01*
X213938095Y-66423809D01*
X213842857Y-66376190D01*
X213652380Y-66328571D01*
X213557142Y-66280952D01*
X213509523Y-66233333D01*
X213461904Y-66138095D01*
X213461904Y-66042857D01*
X213509523Y-65947619D01*
X213557142Y-65900000D01*
X213652380Y-65852380D01*
X213890476Y-65852380D01*
X214033333Y-65900000D01*
X214604761Y-66280952D02*
X214509523Y-66233333D01*
X214461904Y-66185714D01*
X214414285Y-66090476D01*
X214414285Y-66042857D01*
X214461904Y-65947619D01*
X214509523Y-65900000D01*
X214604761Y-65852380D01*
X214795238Y-65852380D01*
X214890476Y-65900000D01*
X214938095Y-65947619D01*
X214985714Y-66042857D01*
X214985714Y-66090476D01*
X214938095Y-66185714D01*
X214890476Y-66233333D01*
X214795238Y-66280952D01*
X214604761Y-66280952D01*
X214509523Y-66328571D01*
X214461904Y-66376190D01*
X214414285Y-66471428D01*
X214414285Y-66661904D01*
X214461904Y-66757142D01*
X214509523Y-66804761D01*
X214604761Y-66852380D01*
X214795238Y-66852380D01*
X214890476Y-66804761D01*
X214938095Y-66757142D01*
X214985714Y-66661904D01*
X214985714Y-66471428D01*
X214938095Y-66376190D01*
X214890476Y-66328571D01*
X214795238Y-66280952D01*
X215938095Y-65900000D02*
X215842857Y-65852380D01*
X215700000Y-65852380D01*
X215557142Y-65900000D01*
X215461904Y-65995238D01*
X215414285Y-66090476D01*
X215366666Y-66280952D01*
X215366666Y-66423809D01*
X215414285Y-66614285D01*
X215461904Y-66709523D01*
X215557142Y-66804761D01*
X215700000Y-66852380D01*
X215795238Y-66852380D01*
X215938095Y-66804761D01*
X215985714Y-66757142D01*
X215985714Y-66423809D01*
X215795238Y-66423809D01*
X210953333Y-62463333D02*
X210953333Y-63256666D01*
X211000000Y-63350000D01*
X211046666Y-63396666D01*
X211140000Y-63443333D01*
X211326666Y-63443333D01*
X211420000Y-63396666D01*
X211466666Y-63350000D01*
X211513333Y-63256666D01*
X211513333Y-62463333D01*
X212400000Y-62463333D02*
X212213333Y-62463333D01*
X212120000Y-62510000D01*
X212073333Y-62556666D01*
X211980000Y-62696666D01*
X211933333Y-62883333D01*
X211933333Y-63256666D01*
X211980000Y-63350000D01*
X212026666Y-63396666D01*
X212120000Y-63443333D01*
X212306666Y-63443333D01*
X212400000Y-63396666D01*
X212446666Y-63350000D01*
X212493333Y-63256666D01*
X212493333Y-63023333D01*
X212446666Y-62930000D01*
X212400000Y-62883333D01*
X212306666Y-62836666D01*
X212120000Y-62836666D01*
X212026666Y-62883333D01*
X211980000Y-62930000D01*
X211933333Y-63023333D01*
X199202380Y-104214285D02*
X198202380Y-104214285D01*
X198202380Y-103976190D01*
X198250000Y-103833333D01*
X198345238Y-103738095D01*
X198440476Y-103690476D01*
X198630952Y-103642857D01*
X198773809Y-103642857D01*
X198964285Y-103690476D01*
X199059523Y-103738095D01*
X199154761Y-103833333D01*
X199202380Y-103976190D01*
X199202380Y-104214285D01*
X199202380Y-103214285D02*
X198202380Y-103214285D01*
X199202380Y-102642857D01*
X198202380Y-102642857D01*
X198678571Y-101833333D02*
X198678571Y-102166666D01*
X199202380Y-102166666D02*
X198202380Y-102166666D01*
X198202380Y-101690476D01*
X201857142Y-103642857D02*
X201904761Y-103690476D01*
X201952380Y-103833333D01*
X201952380Y-103928571D01*
X201904761Y-104071428D01*
X201809523Y-104166666D01*
X201714285Y-104214285D01*
X201523809Y-104261904D01*
X201380952Y-104261904D01*
X201190476Y-104214285D01*
X201095238Y-104166666D01*
X201000000Y-104071428D01*
X200952380Y-103928571D01*
X200952380Y-103833333D01*
X201000000Y-103690476D01*
X201047619Y-103642857D01*
X200952380Y-103309523D02*
X200952380Y-102690476D01*
X201333333Y-103023809D01*
X201333333Y-102880952D01*
X201380952Y-102785714D01*
X201428571Y-102738095D01*
X201523809Y-102690476D01*
X201761904Y-102690476D01*
X201857142Y-102738095D01*
X201904761Y-102785714D01*
X201952380Y-102880952D01*
X201952380Y-103166666D01*
X201904761Y-103261904D01*
X201857142Y-103309523D01*
X200952380Y-102357142D02*
X200952380Y-101738095D01*
X201333333Y-102071428D01*
X201333333Y-101928571D01*
X201380952Y-101833333D01*
X201428571Y-101785714D01*
X201523809Y-101738095D01*
X201761904Y-101738095D01*
X201857142Y-101785714D01*
X201904761Y-101833333D01*
X201952380Y-101928571D01*
X201952380Y-102214285D01*
X201904761Y-102309523D01*
X201857142Y-102357142D01*
X187702380Y-109714285D02*
X186702380Y-109714285D01*
X186702380Y-109476190D01*
X186750000Y-109333333D01*
X186845238Y-109238095D01*
X186940476Y-109190476D01*
X187130952Y-109142857D01*
X187273809Y-109142857D01*
X187464285Y-109190476D01*
X187559523Y-109238095D01*
X187654761Y-109333333D01*
X187702380Y-109476190D01*
X187702380Y-109714285D01*
X187702380Y-108714285D02*
X186702380Y-108714285D01*
X187702380Y-108142857D01*
X186702380Y-108142857D01*
X187178571Y-107333333D02*
X187178571Y-107666666D01*
X187702380Y-107666666D02*
X186702380Y-107666666D01*
X186702380Y-107190476D01*
X190357142Y-109142857D02*
X190404761Y-109190476D01*
X190452380Y-109333333D01*
X190452380Y-109428571D01*
X190404761Y-109571428D01*
X190309523Y-109666666D01*
X190214285Y-109714285D01*
X190023809Y-109761904D01*
X189880952Y-109761904D01*
X189690476Y-109714285D01*
X189595238Y-109666666D01*
X189500000Y-109571428D01*
X189452380Y-109428571D01*
X189452380Y-109333333D01*
X189500000Y-109190476D01*
X189547619Y-109142857D01*
X189452380Y-108809523D02*
X189452380Y-108190476D01*
X189833333Y-108523809D01*
X189833333Y-108380952D01*
X189880952Y-108285714D01*
X189928571Y-108238095D01*
X190023809Y-108190476D01*
X190261904Y-108190476D01*
X190357142Y-108238095D01*
X190404761Y-108285714D01*
X190452380Y-108380952D01*
X190452380Y-108666666D01*
X190404761Y-108761904D01*
X190357142Y-108809523D01*
X189785714Y-107333333D02*
X190452380Y-107333333D01*
X189404761Y-107571428D02*
X190119047Y-107809523D01*
X190119047Y-107190476D01*
M02*
