G04 #@! TF.GenerationSoftware,KiCad,Pcbnew,(5.1.10)-1*
G04 #@! TF.CreationDate,2022-01-18T11:47:43+01:00*
G04 #@! TF.ProjectId,PFD_HMC439QS16G,5046445f-484d-4433-9433-395153313647,1.4*
G04 #@! TF.SameCoordinates,Original*
G04 #@! TF.FileFunction,Soldermask,Top*
G04 #@! TF.FilePolarity,Negative*
%FSLAX46Y46*%
G04 Gerber Fmt 4.6, Leading zero omitted, Abs format (unit mm)*
G04 Created by KiCad (PCBNEW (5.1.10)-1) date 2022-01-18 11:47:43*
%MOMM*%
%LPD*%
G01*
G04 APERTURE LIST*
%ADD10C,2.200000*%
%ADD11C,2.000000*%
%ADD12C,3.300000*%
%ADD13O,2.305000X2.400000*%
%ADD14O,2.900000X2.000000*%
%ADD15O,7.400000X3.900000*%
%ADD16O,2.150000X1.600000*%
G04 APERTURE END LIST*
G36*
G01*
X206540000Y-82272500D02*
X206540000Y-81727500D01*
G75*
G02*
X206787500Y-81480000I247500J0D01*
G01*
X207282500Y-81480000D01*
G75*
G02*
X207530000Y-81727500I0J-247500D01*
G01*
X207530000Y-82272500D01*
G75*
G02*
X207282500Y-82520000I-247500J0D01*
G01*
X206787500Y-82520000D01*
G75*
G02*
X206540000Y-82272500I0J247500D01*
G01*
G37*
G36*
G01*
X205570000Y-82272500D02*
X205570000Y-81727500D01*
G75*
G02*
X205817500Y-81480000I247500J0D01*
G01*
X206312500Y-81480000D01*
G75*
G02*
X206560000Y-81727500I0J-247500D01*
G01*
X206560000Y-82272500D01*
G75*
G02*
X206312500Y-82520000I-247500J0D01*
G01*
X205817500Y-82520000D01*
G75*
G02*
X205570000Y-82272500I0J247500D01*
G01*
G37*
G36*
G01*
X204620000Y-63872500D02*
X204620000Y-63327500D01*
G75*
G02*
X204867500Y-63080000I247500J0D01*
G01*
X205362500Y-63080000D01*
G75*
G02*
X205610000Y-63327500I0J-247500D01*
G01*
X205610000Y-63872500D01*
G75*
G02*
X205362500Y-64120000I-247500J0D01*
G01*
X204867500Y-64120000D01*
G75*
G02*
X204620000Y-63872500I0J247500D01*
G01*
G37*
G36*
G01*
X205590000Y-63872500D02*
X205590000Y-63327500D01*
G75*
G02*
X205837500Y-63080000I247500J0D01*
G01*
X206332500Y-63080000D01*
G75*
G02*
X206580000Y-63327500I0J-247500D01*
G01*
X206580000Y-63872500D01*
G75*
G02*
X206332500Y-64120000I-247500J0D01*
G01*
X205837500Y-64120000D01*
G75*
G02*
X205590000Y-63872500I0J247500D01*
G01*
G37*
G36*
G01*
X100705000Y-97875000D02*
X103095000Y-97875000D01*
G75*
G02*
X103425000Y-98205000I0J-330000D01*
G01*
X103425000Y-99195000D01*
G75*
G02*
X103095000Y-99525000I-330000J0D01*
G01*
X100705000Y-99525000D01*
G75*
G02*
X100375000Y-99195000I0J330000D01*
G01*
X100375000Y-98205000D01*
G75*
G02*
X100705000Y-97875000I330000J0D01*
G01*
G37*
G36*
G01*
X100705000Y-100675000D02*
X103095000Y-100675000D01*
G75*
G02*
X103425000Y-101005000I0J-330000D01*
G01*
X103425000Y-101995000D01*
G75*
G02*
X103095000Y-102325000I-330000J0D01*
G01*
X100705000Y-102325000D01*
G75*
G02*
X100375000Y-101995000I0J330000D01*
G01*
X100375000Y-101005000D01*
G75*
G02*
X100705000Y-100675000I330000J0D01*
G01*
G37*
G36*
G01*
X103095000Y-107625000D02*
X100705000Y-107625000D01*
G75*
G02*
X100375000Y-107295000I0J330000D01*
G01*
X100375000Y-106305000D01*
G75*
G02*
X100705000Y-105975000I330000J0D01*
G01*
X103095000Y-105975000D01*
G75*
G02*
X103425000Y-106305000I0J-330000D01*
G01*
X103425000Y-107295000D01*
G75*
G02*
X103095000Y-107625000I-330000J0D01*
G01*
G37*
G36*
G01*
X103095000Y-104825000D02*
X100705000Y-104825000D01*
G75*
G02*
X100375000Y-104495000I0J330000D01*
G01*
X100375000Y-103505000D01*
G75*
G02*
X100705000Y-103175000I330000J0D01*
G01*
X103095000Y-103175000D01*
G75*
G02*
X103425000Y-103505000I0J-330000D01*
G01*
X103425000Y-104495000D01*
G75*
G02*
X103095000Y-104825000I-330000J0D01*
G01*
G37*
G36*
G01*
X197250000Y-73456250D02*
X197250000Y-72743750D01*
G75*
G02*
X197568750Y-72425000I318750J0D01*
G01*
X198206250Y-72425000D01*
G75*
G02*
X198525000Y-72743750I0J-318750D01*
G01*
X198525000Y-73456250D01*
G75*
G02*
X198206250Y-73775000I-318750J0D01*
G01*
X197568750Y-73775000D01*
G75*
G02*
X197250000Y-73456250I0J318750D01*
G01*
G37*
G36*
G01*
X195675000Y-73456250D02*
X195675000Y-72743750D01*
G75*
G02*
X195993750Y-72425000I318750J0D01*
G01*
X196631250Y-72425000D01*
G75*
G02*
X196950000Y-72743750I0J-318750D01*
G01*
X196950000Y-73456250D01*
G75*
G02*
X196631250Y-73775000I-318750J0D01*
G01*
X195993750Y-73775000D01*
G75*
G02*
X195675000Y-73456250I0J318750D01*
G01*
G37*
G36*
G01*
X196456250Y-69925000D02*
X195743750Y-69925000D01*
G75*
G02*
X195425000Y-69606250I0J318750D01*
G01*
X195425000Y-68968750D01*
G75*
G02*
X195743750Y-68650000I318750J0D01*
G01*
X196456250Y-68650000D01*
G75*
G02*
X196775000Y-68968750I0J-318750D01*
G01*
X196775000Y-69606250D01*
G75*
G02*
X196456250Y-69925000I-318750J0D01*
G01*
G37*
G36*
G01*
X196456250Y-68350000D02*
X195743750Y-68350000D01*
G75*
G02*
X195425000Y-68031250I0J318750D01*
G01*
X195425000Y-67393750D01*
G75*
G02*
X195743750Y-67075000I318750J0D01*
G01*
X196456250Y-67075000D01*
G75*
G02*
X196775000Y-67393750I0J-318750D01*
G01*
X196775000Y-68031250D01*
G75*
G02*
X196456250Y-68350000I-318750J0D01*
G01*
G37*
G36*
G01*
X114845000Y-102125000D02*
X113355000Y-102125000D01*
G75*
G02*
X113025000Y-101795000I0J330000D01*
G01*
X113025000Y-100805000D01*
G75*
G02*
X113355000Y-100475000I330000J0D01*
G01*
X114845000Y-100475000D01*
G75*
G02*
X115175000Y-100805000I0J-330000D01*
G01*
X115175000Y-101795000D01*
G75*
G02*
X114845000Y-102125000I-330000J0D01*
G01*
G37*
G36*
G01*
X114845000Y-99325000D02*
X113355000Y-99325000D01*
G75*
G02*
X113025000Y-98995000I0J330000D01*
G01*
X113025000Y-98005000D01*
G75*
G02*
X113355000Y-97675000I330000J0D01*
G01*
X114845000Y-97675000D01*
G75*
G02*
X115175000Y-98005000I0J-330000D01*
G01*
X115175000Y-98995000D01*
G75*
G02*
X114845000Y-99325000I-330000J0D01*
G01*
G37*
G36*
G01*
X104325000Y-108755000D02*
X104325000Y-110245000D01*
G75*
G02*
X103995000Y-110575000I-330000J0D01*
G01*
X103005000Y-110575000D01*
G75*
G02*
X102675000Y-110245000I0J330000D01*
G01*
X102675000Y-108755000D01*
G75*
G02*
X103005000Y-108425000I330000J0D01*
G01*
X103995000Y-108425000D01*
G75*
G02*
X104325000Y-108755000I0J-330000D01*
G01*
G37*
G36*
G01*
X107125000Y-108755000D02*
X107125000Y-110245000D01*
G75*
G02*
X106795000Y-110575000I-330000J0D01*
G01*
X105805000Y-110575000D01*
G75*
G02*
X105475000Y-110245000I0J330000D01*
G01*
X105475000Y-108755000D01*
G75*
G02*
X105805000Y-108425000I330000J0D01*
G01*
X106795000Y-108425000D01*
G75*
G02*
X107125000Y-108755000I0J-330000D01*
G01*
G37*
G36*
G01*
X193943750Y-75975000D02*
X194656250Y-75975000D01*
G75*
G02*
X194975000Y-76293750I0J-318750D01*
G01*
X194975000Y-76931250D01*
G75*
G02*
X194656250Y-77250000I-318750J0D01*
G01*
X193943750Y-77250000D01*
G75*
G02*
X193625000Y-76931250I0J318750D01*
G01*
X193625000Y-76293750D01*
G75*
G02*
X193943750Y-75975000I318750J0D01*
G01*
G37*
G36*
G01*
X193943750Y-77550000D02*
X194656250Y-77550000D01*
G75*
G02*
X194975000Y-77868750I0J-318750D01*
G01*
X194975000Y-78506250D01*
G75*
G02*
X194656250Y-78825000I-318750J0D01*
G01*
X193943750Y-78825000D01*
G75*
G02*
X193625000Y-78506250I0J318750D01*
G01*
X193625000Y-77868750D01*
G75*
G02*
X193943750Y-77550000I318750J0D01*
G01*
G37*
G36*
G01*
X181856250Y-65550000D02*
X181143750Y-65550000D01*
G75*
G02*
X180825000Y-65231250I0J318750D01*
G01*
X180825000Y-64593750D01*
G75*
G02*
X181143750Y-64275000I318750J0D01*
G01*
X181856250Y-64275000D01*
G75*
G02*
X182175000Y-64593750I0J-318750D01*
G01*
X182175000Y-65231250D01*
G75*
G02*
X181856250Y-65550000I-318750J0D01*
G01*
G37*
G36*
G01*
X181856250Y-67125000D02*
X181143750Y-67125000D01*
G75*
G02*
X180825000Y-66806250I0J318750D01*
G01*
X180825000Y-66168750D01*
G75*
G02*
X181143750Y-65850000I318750J0D01*
G01*
X181856250Y-65850000D01*
G75*
G02*
X182175000Y-66168750I0J-318750D01*
G01*
X182175000Y-66806250D01*
G75*
G02*
X181856250Y-67125000I-318750J0D01*
G01*
G37*
G36*
G01*
X106425000Y-94505000D02*
X106425000Y-96895000D01*
G75*
G02*
X106095000Y-97225000I-330000J0D01*
G01*
X105105000Y-97225000D01*
G75*
G02*
X104775000Y-96895000I0J330000D01*
G01*
X104775000Y-94505000D01*
G75*
G02*
X105105000Y-94175000I330000J0D01*
G01*
X106095000Y-94175000D01*
G75*
G02*
X106425000Y-94505000I0J-330000D01*
G01*
G37*
G36*
G01*
X109225000Y-94505000D02*
X109225000Y-96895000D01*
G75*
G02*
X108895000Y-97225000I-330000J0D01*
G01*
X107905000Y-97225000D01*
G75*
G02*
X107575000Y-96895000I0J330000D01*
G01*
X107575000Y-94505000D01*
G75*
G02*
X107905000Y-94175000I330000J0D01*
G01*
X108895000Y-94175000D01*
G75*
G02*
X109225000Y-94505000I0J-330000D01*
G01*
G37*
G36*
G01*
X112405000Y-106575000D02*
X114795000Y-106575000D01*
G75*
G02*
X115125000Y-106905000I0J-330000D01*
G01*
X115125000Y-107895000D01*
G75*
G02*
X114795000Y-108225000I-330000J0D01*
G01*
X112405000Y-108225000D01*
G75*
G02*
X112075000Y-107895000I0J330000D01*
G01*
X112075000Y-106905000D01*
G75*
G02*
X112405000Y-106575000I330000J0D01*
G01*
G37*
G36*
G01*
X112405000Y-103775000D02*
X114795000Y-103775000D01*
G75*
G02*
X115125000Y-104105000I0J-330000D01*
G01*
X115125000Y-105095000D01*
G75*
G02*
X114795000Y-105425000I-330000J0D01*
G01*
X112405000Y-105425000D01*
G75*
G02*
X112075000Y-105095000I0J330000D01*
G01*
X112075000Y-104105000D01*
G75*
G02*
X112405000Y-103775000I330000J0D01*
G01*
G37*
G36*
G01*
X179056250Y-77700000D02*
X178343750Y-77700000D01*
G75*
G02*
X178025000Y-77381250I0J318750D01*
G01*
X178025000Y-76743750D01*
G75*
G02*
X178343750Y-76425000I318750J0D01*
G01*
X179056250Y-76425000D01*
G75*
G02*
X179375000Y-76743750I0J-318750D01*
G01*
X179375000Y-77381250D01*
G75*
G02*
X179056250Y-77700000I-318750J0D01*
G01*
G37*
G36*
G01*
X179056250Y-79275000D02*
X178343750Y-79275000D01*
G75*
G02*
X178025000Y-78956250I0J318750D01*
G01*
X178025000Y-78318750D01*
G75*
G02*
X178343750Y-78000000I318750J0D01*
G01*
X179056250Y-78000000D01*
G75*
G02*
X179375000Y-78318750I0J-318750D01*
G01*
X179375000Y-78956250D01*
G75*
G02*
X179056250Y-79275000I-318750J0D01*
G01*
G37*
G36*
G01*
X179106250Y-69175000D02*
X178393750Y-69175000D01*
G75*
G02*
X178075000Y-68856250I0J318750D01*
G01*
X178075000Y-68218750D01*
G75*
G02*
X178393750Y-67900000I318750J0D01*
G01*
X179106250Y-67900000D01*
G75*
G02*
X179425000Y-68218750I0J-318750D01*
G01*
X179425000Y-68856250D01*
G75*
G02*
X179106250Y-69175000I-318750J0D01*
G01*
G37*
G36*
G01*
X179106250Y-67600000D02*
X178393750Y-67600000D01*
G75*
G02*
X178075000Y-67281250I0J318750D01*
G01*
X178075000Y-66643750D01*
G75*
G02*
X178393750Y-66325000I318750J0D01*
G01*
X179106250Y-66325000D01*
G75*
G02*
X179425000Y-66643750I0J-318750D01*
G01*
X179425000Y-67281250D01*
G75*
G02*
X179106250Y-67600000I-318750J0D01*
G01*
G37*
G36*
G01*
X163206250Y-68200000D02*
X162493750Y-68200000D01*
G75*
G02*
X162175000Y-67881250I0J318750D01*
G01*
X162175000Y-67243750D01*
G75*
G02*
X162493750Y-66925000I318750J0D01*
G01*
X163206250Y-66925000D01*
G75*
G02*
X163525000Y-67243750I0J-318750D01*
G01*
X163525000Y-67881250D01*
G75*
G02*
X163206250Y-68200000I-318750J0D01*
G01*
G37*
G36*
G01*
X163206250Y-69775000D02*
X162493750Y-69775000D01*
G75*
G02*
X162175000Y-69456250I0J318750D01*
G01*
X162175000Y-68818750D01*
G75*
G02*
X162493750Y-68500000I318750J0D01*
G01*
X163206250Y-68500000D01*
G75*
G02*
X163525000Y-68818750I0J-318750D01*
G01*
X163525000Y-69456250D01*
G75*
G02*
X163206250Y-69775000I-318750J0D01*
G01*
G37*
G36*
G01*
X160743750Y-70425000D02*
X161456250Y-70425000D01*
G75*
G02*
X161775000Y-70743750I0J-318750D01*
G01*
X161775000Y-71381250D01*
G75*
G02*
X161456250Y-71700000I-318750J0D01*
G01*
X160743750Y-71700000D01*
G75*
G02*
X160425000Y-71381250I0J318750D01*
G01*
X160425000Y-70743750D01*
G75*
G02*
X160743750Y-70425000I318750J0D01*
G01*
G37*
G36*
G01*
X160743750Y-72000000D02*
X161456250Y-72000000D01*
G75*
G02*
X161775000Y-72318750I0J-318750D01*
G01*
X161775000Y-72956250D01*
G75*
G02*
X161456250Y-73275000I-318750J0D01*
G01*
X160743750Y-73275000D01*
G75*
G02*
X160425000Y-72956250I0J318750D01*
G01*
X160425000Y-72318750D01*
G75*
G02*
X160743750Y-72000000I318750J0D01*
G01*
G37*
G36*
G01*
X166025000Y-76243750D02*
X166025000Y-76956250D01*
G75*
G02*
X165706250Y-77275000I-318750J0D01*
G01*
X165068750Y-77275000D01*
G75*
G02*
X164750000Y-76956250I0J318750D01*
G01*
X164750000Y-76243750D01*
G75*
G02*
X165068750Y-75925000I318750J0D01*
G01*
X165706250Y-75925000D01*
G75*
G02*
X166025000Y-76243750I0J-318750D01*
G01*
G37*
G36*
G01*
X164450000Y-76243750D02*
X164450000Y-76956250D01*
G75*
G02*
X164131250Y-77275000I-318750J0D01*
G01*
X163493750Y-77275000D01*
G75*
G02*
X163175000Y-76956250I0J318750D01*
G01*
X163175000Y-76243750D01*
G75*
G02*
X163493750Y-75925000I318750J0D01*
G01*
X164131250Y-75925000D01*
G75*
G02*
X164450000Y-76243750I0J-318750D01*
G01*
G37*
G36*
G01*
X170206250Y-69700000D02*
X169493750Y-69700000D01*
G75*
G02*
X169175000Y-69381250I0J318750D01*
G01*
X169175000Y-68743750D01*
G75*
G02*
X169493750Y-68425000I318750J0D01*
G01*
X170206250Y-68425000D01*
G75*
G02*
X170525000Y-68743750I0J-318750D01*
G01*
X170525000Y-69381250D01*
G75*
G02*
X170206250Y-69700000I-318750J0D01*
G01*
G37*
G36*
G01*
X170206250Y-71275000D02*
X169493750Y-71275000D01*
G75*
G02*
X169175000Y-70956250I0J318750D01*
G01*
X169175000Y-70318750D01*
G75*
G02*
X169493750Y-70000000I318750J0D01*
G01*
X170206250Y-70000000D01*
G75*
G02*
X170525000Y-70318750I0J-318750D01*
G01*
X170525000Y-70956250D01*
G75*
G02*
X170206250Y-71275000I-318750J0D01*
G01*
G37*
G36*
G01*
X183993750Y-79650000D02*
X184706250Y-79650000D01*
G75*
G02*
X185025000Y-79968750I0J-318750D01*
G01*
X185025000Y-80606250D01*
G75*
G02*
X184706250Y-80925000I-318750J0D01*
G01*
X183993750Y-80925000D01*
G75*
G02*
X183675000Y-80606250I0J318750D01*
G01*
X183675000Y-79968750D01*
G75*
G02*
X183993750Y-79650000I318750J0D01*
G01*
G37*
G36*
G01*
X183993750Y-78075000D02*
X184706250Y-78075000D01*
G75*
G02*
X185025000Y-78393750I0J-318750D01*
G01*
X185025000Y-79031250D01*
G75*
G02*
X184706250Y-79350000I-318750J0D01*
G01*
X183993750Y-79350000D01*
G75*
G02*
X183675000Y-79031250I0J318750D01*
G01*
X183675000Y-78393750D01*
G75*
G02*
X183993750Y-78075000I318750J0D01*
G01*
G37*
G36*
G01*
X173493750Y-74000000D02*
X174206250Y-74000000D01*
G75*
G02*
X174525000Y-74318750I0J-318750D01*
G01*
X174525000Y-74956250D01*
G75*
G02*
X174206250Y-75275000I-318750J0D01*
G01*
X173493750Y-75275000D01*
G75*
G02*
X173175000Y-74956250I0J318750D01*
G01*
X173175000Y-74318750D01*
G75*
G02*
X173493750Y-74000000I318750J0D01*
G01*
G37*
G36*
G01*
X173493750Y-72425000D02*
X174206250Y-72425000D01*
G75*
G02*
X174525000Y-72743750I0J-318750D01*
G01*
X174525000Y-73381250D01*
G75*
G02*
X174206250Y-73700000I-318750J0D01*
G01*
X173493750Y-73700000D01*
G75*
G02*
X173175000Y-73381250I0J318750D01*
G01*
X173175000Y-72743750D01*
G75*
G02*
X173493750Y-72425000I318750J0D01*
G01*
G37*
G36*
G01*
X198409500Y-139548250D02*
X198409500Y-138835750D01*
G75*
G02*
X198728250Y-138517000I318750J0D01*
G01*
X199365750Y-138517000D01*
G75*
G02*
X199684500Y-138835750I0J-318750D01*
G01*
X199684500Y-139548250D01*
G75*
G02*
X199365750Y-139867000I-318750J0D01*
G01*
X198728250Y-139867000D01*
G75*
G02*
X198409500Y-139548250I0J318750D01*
G01*
G37*
G36*
G01*
X199984500Y-139548250D02*
X199984500Y-138835750D01*
G75*
G02*
X200303250Y-138517000I318750J0D01*
G01*
X200940750Y-138517000D01*
G75*
G02*
X201259500Y-138835750I0J-318750D01*
G01*
X201259500Y-139548250D01*
G75*
G02*
X200940750Y-139867000I-318750J0D01*
G01*
X200303250Y-139867000D01*
G75*
G02*
X199984500Y-139548250I0J318750D01*
G01*
G37*
G36*
G01*
X193824800Y-146139550D02*
X193824800Y-145427050D01*
G75*
G02*
X194143550Y-145108300I318750J0D01*
G01*
X194781050Y-145108300D01*
G75*
G02*
X195099800Y-145427050I0J-318750D01*
G01*
X195099800Y-146139550D01*
G75*
G02*
X194781050Y-146458300I-318750J0D01*
G01*
X194143550Y-146458300D01*
G75*
G02*
X193824800Y-146139550I0J318750D01*
G01*
G37*
G36*
G01*
X195399800Y-146139550D02*
X195399800Y-145427050D01*
G75*
G02*
X195718550Y-145108300I318750J0D01*
G01*
X196356050Y-145108300D01*
G75*
G02*
X196674800Y-145427050I0J-318750D01*
G01*
X196674800Y-146139550D01*
G75*
G02*
X196356050Y-146458300I-318750J0D01*
G01*
X195718550Y-146458300D01*
G75*
G02*
X195399800Y-146139550I0J318750D01*
G01*
G37*
G36*
G01*
X190094250Y-143623900D02*
X189381750Y-143623900D01*
G75*
G02*
X189063000Y-143305150I0J318750D01*
G01*
X189063000Y-142667650D01*
G75*
G02*
X189381750Y-142348900I318750J0D01*
G01*
X190094250Y-142348900D01*
G75*
G02*
X190413000Y-142667650I0J-318750D01*
G01*
X190413000Y-143305150D01*
G75*
G02*
X190094250Y-143623900I-318750J0D01*
G01*
G37*
G36*
G01*
X190094250Y-142048900D02*
X189381750Y-142048900D01*
G75*
G02*
X189063000Y-141730150I0J318750D01*
G01*
X189063000Y-141092650D01*
G75*
G02*
X189381750Y-140773900I318750J0D01*
G01*
X190094250Y-140773900D01*
G75*
G02*
X190413000Y-141092650I0J-318750D01*
G01*
X190413000Y-141730150D01*
G75*
G02*
X190094250Y-142048900I-318750J0D01*
G01*
G37*
G36*
G01*
X112256250Y-102125000D02*
X111543750Y-102125000D01*
G75*
G02*
X111225000Y-101806250I0J318750D01*
G01*
X111225000Y-101168750D01*
G75*
G02*
X111543750Y-100850000I318750J0D01*
G01*
X112256250Y-100850000D01*
G75*
G02*
X112575000Y-101168750I0J-318750D01*
G01*
X112575000Y-101806250D01*
G75*
G02*
X112256250Y-102125000I-318750J0D01*
G01*
G37*
G36*
G01*
X112256250Y-100550000D02*
X111543750Y-100550000D01*
G75*
G02*
X111225000Y-100231250I0J318750D01*
G01*
X111225000Y-99593750D01*
G75*
G02*
X111543750Y-99275000I318750J0D01*
G01*
X112256250Y-99275000D01*
G75*
G02*
X112575000Y-99593750I0J-318750D01*
G01*
X112575000Y-100231250D01*
G75*
G02*
X112256250Y-100550000I-318750J0D01*
G01*
G37*
G36*
G01*
X107325000Y-110156250D02*
X107325000Y-109443750D01*
G75*
G02*
X107643750Y-109125000I318750J0D01*
G01*
X108281250Y-109125000D01*
G75*
G02*
X108600000Y-109443750I0J-318750D01*
G01*
X108600000Y-110156250D01*
G75*
G02*
X108281250Y-110475000I-318750J0D01*
G01*
X107643750Y-110475000D01*
G75*
G02*
X107325000Y-110156250I0J318750D01*
G01*
G37*
G36*
G01*
X108900000Y-110156250D02*
X108900000Y-109443750D01*
G75*
G02*
X109218750Y-109125000I318750J0D01*
G01*
X109856250Y-109125000D01*
G75*
G02*
X110175000Y-109443750I0J-318750D01*
G01*
X110175000Y-110156250D01*
G75*
G02*
X109856250Y-110475000I-318750J0D01*
G01*
X109218750Y-110475000D01*
G75*
G02*
X108900000Y-110156250I0J318750D01*
G01*
G37*
G36*
G01*
X186493750Y-67500000D02*
X187206250Y-67500000D01*
G75*
G02*
X187525000Y-67818750I0J-318750D01*
G01*
X187525000Y-68456250D01*
G75*
G02*
X187206250Y-68775000I-318750J0D01*
G01*
X186493750Y-68775000D01*
G75*
G02*
X186175000Y-68456250I0J318750D01*
G01*
X186175000Y-67818750D01*
G75*
G02*
X186493750Y-67500000I318750J0D01*
G01*
G37*
G36*
G01*
X186493750Y-65925000D02*
X187206250Y-65925000D01*
G75*
G02*
X187525000Y-66243750I0J-318750D01*
G01*
X187525000Y-66881250D01*
G75*
G02*
X187206250Y-67200000I-318750J0D01*
G01*
X186493750Y-67200000D01*
G75*
G02*
X186175000Y-66881250I0J318750D01*
G01*
X186175000Y-66243750D01*
G75*
G02*
X186493750Y-65925000I318750J0D01*
G01*
G37*
G36*
G01*
X184706250Y-77675000D02*
X183993750Y-77675000D01*
G75*
G02*
X183675000Y-77356250I0J318750D01*
G01*
X183675000Y-76718750D01*
G75*
G02*
X183993750Y-76400000I318750J0D01*
G01*
X184706250Y-76400000D01*
G75*
G02*
X185025000Y-76718750I0J-318750D01*
G01*
X185025000Y-77356250D01*
G75*
G02*
X184706250Y-77675000I-318750J0D01*
G01*
G37*
G36*
G01*
X184706250Y-76100000D02*
X183993750Y-76100000D01*
G75*
G02*
X183675000Y-75781250I0J318750D01*
G01*
X183675000Y-75143750D01*
G75*
G02*
X183993750Y-74825000I318750J0D01*
G01*
X184706250Y-74825000D01*
G75*
G02*
X185025000Y-75143750I0J-318750D01*
G01*
X185025000Y-75781250D01*
G75*
G02*
X184706250Y-76100000I-318750J0D01*
G01*
G37*
G36*
G01*
X181143750Y-69600000D02*
X181856250Y-69600000D01*
G75*
G02*
X182175000Y-69918750I0J-318750D01*
G01*
X182175000Y-70556250D01*
G75*
G02*
X181856250Y-70875000I-318750J0D01*
G01*
X181143750Y-70875000D01*
G75*
G02*
X180825000Y-70556250I0J318750D01*
G01*
X180825000Y-69918750D01*
G75*
G02*
X181143750Y-69600000I318750J0D01*
G01*
G37*
G36*
G01*
X181143750Y-68025000D02*
X181856250Y-68025000D01*
G75*
G02*
X182175000Y-68343750I0J-318750D01*
G01*
X182175000Y-68981250D01*
G75*
G02*
X181856250Y-69300000I-318750J0D01*
G01*
X181143750Y-69300000D01*
G75*
G02*
X180825000Y-68981250I0J318750D01*
G01*
X180825000Y-68343750D01*
G75*
G02*
X181143750Y-68025000I318750J0D01*
G01*
G37*
G36*
G01*
X187556250Y-79025000D02*
X186843750Y-79025000D01*
G75*
G02*
X186525000Y-78706250I0J318750D01*
G01*
X186525000Y-78068750D01*
G75*
G02*
X186843750Y-77750000I318750J0D01*
G01*
X187556250Y-77750000D01*
G75*
G02*
X187875000Y-78068750I0J-318750D01*
G01*
X187875000Y-78706250D01*
G75*
G02*
X187556250Y-79025000I-318750J0D01*
G01*
G37*
G36*
G01*
X187556250Y-77450000D02*
X186843750Y-77450000D01*
G75*
G02*
X186525000Y-77131250I0J318750D01*
G01*
X186525000Y-76493750D01*
G75*
G02*
X186843750Y-76175000I318750J0D01*
G01*
X187556250Y-76175000D01*
G75*
G02*
X187875000Y-76493750I0J-318750D01*
G01*
X187875000Y-77131250D01*
G75*
G02*
X187556250Y-77450000I-318750J0D01*
G01*
G37*
G36*
G01*
X182350000Y-73506250D02*
X182350000Y-72793750D01*
G75*
G02*
X182668750Y-72475000I318750J0D01*
G01*
X183306250Y-72475000D01*
G75*
G02*
X183625000Y-72793750I0J-318750D01*
G01*
X183625000Y-73506250D01*
G75*
G02*
X183306250Y-73825000I-318750J0D01*
G01*
X182668750Y-73825000D01*
G75*
G02*
X182350000Y-73506250I0J318750D01*
G01*
G37*
G36*
G01*
X180775000Y-73506250D02*
X180775000Y-72793750D01*
G75*
G02*
X181093750Y-72475000I318750J0D01*
G01*
X181731250Y-72475000D01*
G75*
G02*
X182050000Y-72793750I0J-318750D01*
G01*
X182050000Y-73506250D01*
G75*
G02*
X181731250Y-73825000I-318750J0D01*
G01*
X181093750Y-73825000D01*
G75*
G02*
X180775000Y-73506250I0J318750D01*
G01*
G37*
G36*
G01*
X178150000Y-75856250D02*
X178150000Y-75143750D01*
G75*
G02*
X178468750Y-74825000I318750J0D01*
G01*
X179106250Y-74825000D01*
G75*
G02*
X179425000Y-75143750I0J-318750D01*
G01*
X179425000Y-75856250D01*
G75*
G02*
X179106250Y-76175000I-318750J0D01*
G01*
X178468750Y-76175000D01*
G75*
G02*
X178150000Y-75856250I0J318750D01*
G01*
G37*
G36*
G01*
X176575000Y-75856250D02*
X176575000Y-75143750D01*
G75*
G02*
X176893750Y-74825000I318750J0D01*
G01*
X177531250Y-74825000D01*
G75*
G02*
X177850000Y-75143750I0J-318750D01*
G01*
X177850000Y-75856250D01*
G75*
G02*
X177531250Y-76175000I-318750J0D01*
G01*
X176893750Y-76175000D01*
G75*
G02*
X176575000Y-75856250I0J318750D01*
G01*
G37*
G36*
G01*
X176625000Y-70556250D02*
X176625000Y-69843750D01*
G75*
G02*
X176943750Y-69525000I318750J0D01*
G01*
X177581250Y-69525000D01*
G75*
G02*
X177900000Y-69843750I0J-318750D01*
G01*
X177900000Y-70556250D01*
G75*
G02*
X177581250Y-70875000I-318750J0D01*
G01*
X176943750Y-70875000D01*
G75*
G02*
X176625000Y-70556250I0J318750D01*
G01*
G37*
G36*
G01*
X178200000Y-70556250D02*
X178200000Y-69843750D01*
G75*
G02*
X178518750Y-69525000I318750J0D01*
G01*
X179156250Y-69525000D01*
G75*
G02*
X179475000Y-69843750I0J-318750D01*
G01*
X179475000Y-70556250D01*
G75*
G02*
X179156250Y-70875000I-318750J0D01*
G01*
X178518750Y-70875000D01*
G75*
G02*
X178200000Y-70556250I0J318750D01*
G01*
G37*
G36*
G01*
X174206250Y-69200000D02*
X173493750Y-69200000D01*
G75*
G02*
X173175000Y-68881250I0J318750D01*
G01*
X173175000Y-68243750D01*
G75*
G02*
X173493750Y-67925000I318750J0D01*
G01*
X174206250Y-67925000D01*
G75*
G02*
X174525000Y-68243750I0J-318750D01*
G01*
X174525000Y-68881250D01*
G75*
G02*
X174206250Y-69200000I-318750J0D01*
G01*
G37*
G36*
G01*
X174206250Y-70775000D02*
X173493750Y-70775000D01*
G75*
G02*
X173175000Y-70456250I0J318750D01*
G01*
X173175000Y-69818750D01*
G75*
G02*
X173493750Y-69500000I318750J0D01*
G01*
X174206250Y-69500000D01*
G75*
G02*
X174525000Y-69818750I0J-318750D01*
G01*
X174525000Y-70456250D01*
G75*
G02*
X174206250Y-70775000I-318750J0D01*
G01*
G37*
G36*
G01*
X171743750Y-72425000D02*
X172456250Y-72425000D01*
G75*
G02*
X172775000Y-72743750I0J-318750D01*
G01*
X172775000Y-73381250D01*
G75*
G02*
X172456250Y-73700000I-318750J0D01*
G01*
X171743750Y-73700000D01*
G75*
G02*
X171425000Y-73381250I0J318750D01*
G01*
X171425000Y-72743750D01*
G75*
G02*
X171743750Y-72425000I318750J0D01*
G01*
G37*
G36*
G01*
X171743750Y-74000000D02*
X172456250Y-74000000D01*
G75*
G02*
X172775000Y-74318750I0J-318750D01*
G01*
X172775000Y-74956250D01*
G75*
G02*
X172456250Y-75275000I-318750J0D01*
G01*
X171743750Y-75275000D01*
G75*
G02*
X171425000Y-74956250I0J318750D01*
G01*
X171425000Y-74318750D01*
G75*
G02*
X171743750Y-74000000I318750J0D01*
G01*
G37*
G36*
G01*
X167000000Y-69456250D02*
X167000000Y-68743750D01*
G75*
G02*
X167318750Y-68425000I318750J0D01*
G01*
X167956250Y-68425000D01*
G75*
G02*
X168275000Y-68743750I0J-318750D01*
G01*
X168275000Y-69456250D01*
G75*
G02*
X167956250Y-69775000I-318750J0D01*
G01*
X167318750Y-69775000D01*
G75*
G02*
X167000000Y-69456250I0J318750D01*
G01*
G37*
G36*
G01*
X165425000Y-69456250D02*
X165425000Y-68743750D01*
G75*
G02*
X165743750Y-68425000I318750J0D01*
G01*
X166381250Y-68425000D01*
G75*
G02*
X166700000Y-68743750I0J-318750D01*
G01*
X166700000Y-69456250D01*
G75*
G02*
X166381250Y-69775000I-318750J0D01*
G01*
X165743750Y-69775000D01*
G75*
G02*
X165425000Y-69456250I0J318750D01*
G01*
G37*
G36*
G01*
X162493750Y-72000000D02*
X163206250Y-72000000D01*
G75*
G02*
X163525000Y-72318750I0J-318750D01*
G01*
X163525000Y-72956250D01*
G75*
G02*
X163206250Y-73275000I-318750J0D01*
G01*
X162493750Y-73275000D01*
G75*
G02*
X162175000Y-72956250I0J318750D01*
G01*
X162175000Y-72318750D01*
G75*
G02*
X162493750Y-72000000I318750J0D01*
G01*
G37*
G36*
G01*
X162493750Y-70425000D02*
X163206250Y-70425000D01*
G75*
G02*
X163525000Y-70743750I0J-318750D01*
G01*
X163525000Y-71381250D01*
G75*
G02*
X163206250Y-71700000I-318750J0D01*
G01*
X162493750Y-71700000D01*
G75*
G02*
X162175000Y-71381250I0J318750D01*
G01*
X162175000Y-70743750D01*
G75*
G02*
X162493750Y-70425000I318750J0D01*
G01*
G37*
G36*
G01*
X159456250Y-73275000D02*
X158743750Y-73275000D01*
G75*
G02*
X158425000Y-72956250I0J318750D01*
G01*
X158425000Y-72318750D01*
G75*
G02*
X158743750Y-72000000I318750J0D01*
G01*
X159456250Y-72000000D01*
G75*
G02*
X159775000Y-72318750I0J-318750D01*
G01*
X159775000Y-72956250D01*
G75*
G02*
X159456250Y-73275000I-318750J0D01*
G01*
G37*
G36*
G01*
X159456250Y-71700000D02*
X158743750Y-71700000D01*
G75*
G02*
X158425000Y-71381250I0J318750D01*
G01*
X158425000Y-70743750D01*
G75*
G02*
X158743750Y-70425000I318750J0D01*
G01*
X159456250Y-70425000D01*
G75*
G02*
X159775000Y-70743750I0J-318750D01*
G01*
X159775000Y-71381250D01*
G75*
G02*
X159456250Y-71700000I-318750J0D01*
G01*
G37*
G36*
G01*
X211925000Y-103705000D02*
X211925000Y-106095000D01*
G75*
G02*
X211595000Y-106425000I-330000J0D01*
G01*
X210605000Y-106425000D01*
G75*
G02*
X210275000Y-106095000I0J330000D01*
G01*
X210275000Y-103705000D01*
G75*
G02*
X210605000Y-103375000I330000J0D01*
G01*
X211595000Y-103375000D01*
G75*
G02*
X211925000Y-103705000I0J-330000D01*
G01*
G37*
G36*
G01*
X209125000Y-103705000D02*
X209125000Y-106095000D01*
G75*
G02*
X208795000Y-106425000I-330000J0D01*
G01*
X207805000Y-106425000D01*
G75*
G02*
X207475000Y-106095000I0J330000D01*
G01*
X207475000Y-103705000D01*
G75*
G02*
X207805000Y-103375000I330000J0D01*
G01*
X208795000Y-103375000D01*
G75*
G02*
X209125000Y-103705000I0J-330000D01*
G01*
G37*
G36*
G01*
X208575000Y-143356250D02*
X208575000Y-142643750D01*
G75*
G02*
X208893750Y-142325000I318750J0D01*
G01*
X209531250Y-142325000D01*
G75*
G02*
X209850000Y-142643750I0J-318750D01*
G01*
X209850000Y-143356250D01*
G75*
G02*
X209531250Y-143675000I-318750J0D01*
G01*
X208893750Y-143675000D01*
G75*
G02*
X208575000Y-143356250I0J318750D01*
G01*
G37*
G36*
G01*
X210150000Y-143356250D02*
X210150000Y-142643750D01*
G75*
G02*
X210468750Y-142325000I318750J0D01*
G01*
X211106250Y-142325000D01*
G75*
G02*
X211425000Y-142643750I0J-318750D01*
G01*
X211425000Y-143356250D01*
G75*
G02*
X211106250Y-143675000I-318750J0D01*
G01*
X210468750Y-143675000D01*
G75*
G02*
X210150000Y-143356250I0J318750D01*
G01*
G37*
G36*
G01*
X203525000Y-60643750D02*
X203525000Y-61356250D01*
G75*
G02*
X203206250Y-61675000I-318750J0D01*
G01*
X202568750Y-61675000D01*
G75*
G02*
X202250000Y-61356250I0J318750D01*
G01*
X202250000Y-60643750D01*
G75*
G02*
X202568750Y-60325000I318750J0D01*
G01*
X203206250Y-60325000D01*
G75*
G02*
X203525000Y-60643750I0J-318750D01*
G01*
G37*
G36*
G01*
X201950000Y-60643750D02*
X201950000Y-61356250D01*
G75*
G02*
X201631250Y-61675000I-318750J0D01*
G01*
X200993750Y-61675000D01*
G75*
G02*
X200675000Y-61356250I0J318750D01*
G01*
X200675000Y-60643750D01*
G75*
G02*
X200993750Y-60325000I318750J0D01*
G01*
X201631250Y-60325000D01*
G75*
G02*
X201950000Y-60643750I0J-318750D01*
G01*
G37*
D10*
X215580000Y-143160000D03*
X223200000Y-145700000D03*
X228280000Y-143160000D03*
G36*
G01*
X105980000Y-101239396D02*
X105980000Y-98610604D01*
G75*
G02*
X106290604Y-98300000I310604J0D01*
G01*
X107719396Y-98300000D01*
G75*
G02*
X108030000Y-98610604I0J-310604D01*
G01*
X108030000Y-101239396D01*
G75*
G02*
X107719396Y-101550000I-310604J0D01*
G01*
X106290604Y-101550000D01*
G75*
G02*
X105980000Y-101239396I0J310604D01*
G01*
G37*
G36*
G01*
X103930000Y-98500000D02*
X103930000Y-98100000D01*
G75*
G02*
X104130000Y-97900000I200000J0D01*
G01*
X105580000Y-97900000D01*
G75*
G02*
X105780000Y-98100000I0J-200000D01*
G01*
X105780000Y-98500000D01*
G75*
G02*
X105580000Y-98700000I-200000J0D01*
G01*
X104130000Y-98700000D01*
G75*
G02*
X103930000Y-98500000I0J200000D01*
G01*
G37*
G36*
G01*
X103930000Y-99150000D02*
X103930000Y-98750000D01*
G75*
G02*
X104130000Y-98550000I200000J0D01*
G01*
X105580000Y-98550000D01*
G75*
G02*
X105780000Y-98750000I0J-200000D01*
G01*
X105780000Y-99150000D01*
G75*
G02*
X105580000Y-99350000I-200000J0D01*
G01*
X104130000Y-99350000D01*
G75*
G02*
X103930000Y-99150000I0J200000D01*
G01*
G37*
G36*
G01*
X103930000Y-99800000D02*
X103930000Y-99400000D01*
G75*
G02*
X104130000Y-99200000I200000J0D01*
G01*
X105580000Y-99200000D01*
G75*
G02*
X105780000Y-99400000I0J-200000D01*
G01*
X105780000Y-99800000D01*
G75*
G02*
X105580000Y-100000000I-200000J0D01*
G01*
X104130000Y-100000000D01*
G75*
G02*
X103930000Y-99800000I0J200000D01*
G01*
G37*
G36*
G01*
X103930000Y-100450000D02*
X103930000Y-100050000D01*
G75*
G02*
X104130000Y-99850000I200000J0D01*
G01*
X105580000Y-99850000D01*
G75*
G02*
X105780000Y-100050000I0J-200000D01*
G01*
X105780000Y-100450000D01*
G75*
G02*
X105580000Y-100650000I-200000J0D01*
G01*
X104130000Y-100650000D01*
G75*
G02*
X103930000Y-100450000I0J200000D01*
G01*
G37*
G36*
G01*
X103930000Y-101100000D02*
X103930000Y-100700000D01*
G75*
G02*
X104130000Y-100500000I200000J0D01*
G01*
X105580000Y-100500000D01*
G75*
G02*
X105780000Y-100700000I0J-200000D01*
G01*
X105780000Y-101100000D01*
G75*
G02*
X105580000Y-101300000I-200000J0D01*
G01*
X104130000Y-101300000D01*
G75*
G02*
X103930000Y-101100000I0J200000D01*
G01*
G37*
G36*
G01*
X103930000Y-101750000D02*
X103930000Y-101350000D01*
G75*
G02*
X104130000Y-101150000I200000J0D01*
G01*
X105580000Y-101150000D01*
G75*
G02*
X105780000Y-101350000I0J-200000D01*
G01*
X105780000Y-101750000D01*
G75*
G02*
X105580000Y-101950000I-200000J0D01*
G01*
X104130000Y-101950000D01*
G75*
G02*
X103930000Y-101750000I0J200000D01*
G01*
G37*
G36*
G01*
X108230000Y-101750000D02*
X108230000Y-101350000D01*
G75*
G02*
X108430000Y-101150000I200000J0D01*
G01*
X109880000Y-101150000D01*
G75*
G02*
X110080000Y-101350000I0J-200000D01*
G01*
X110080000Y-101750000D01*
G75*
G02*
X109880000Y-101950000I-200000J0D01*
G01*
X108430000Y-101950000D01*
G75*
G02*
X108230000Y-101750000I0J200000D01*
G01*
G37*
G36*
G01*
X108230000Y-101100000D02*
X108230000Y-100700000D01*
G75*
G02*
X108430000Y-100500000I200000J0D01*
G01*
X109880000Y-100500000D01*
G75*
G02*
X110080000Y-100700000I0J-200000D01*
G01*
X110080000Y-101100000D01*
G75*
G02*
X109880000Y-101300000I-200000J0D01*
G01*
X108430000Y-101300000D01*
G75*
G02*
X108230000Y-101100000I0J200000D01*
G01*
G37*
G36*
G01*
X108230000Y-100450000D02*
X108230000Y-100050000D01*
G75*
G02*
X108430000Y-99850000I200000J0D01*
G01*
X109880000Y-99850000D01*
G75*
G02*
X110080000Y-100050000I0J-200000D01*
G01*
X110080000Y-100450000D01*
G75*
G02*
X109880000Y-100650000I-200000J0D01*
G01*
X108430000Y-100650000D01*
G75*
G02*
X108230000Y-100450000I0J200000D01*
G01*
G37*
G36*
G01*
X108230000Y-99800000D02*
X108230000Y-99400000D01*
G75*
G02*
X108430000Y-99200000I200000J0D01*
G01*
X109880000Y-99200000D01*
G75*
G02*
X110080000Y-99400000I0J-200000D01*
G01*
X110080000Y-99800000D01*
G75*
G02*
X109880000Y-100000000I-200000J0D01*
G01*
X108430000Y-100000000D01*
G75*
G02*
X108230000Y-99800000I0J200000D01*
G01*
G37*
G36*
G01*
X108230000Y-99150000D02*
X108230000Y-98750000D01*
G75*
G02*
X108430000Y-98550000I200000J0D01*
G01*
X109880000Y-98550000D01*
G75*
G02*
X110080000Y-98750000I0J-200000D01*
G01*
X110080000Y-99150000D01*
G75*
G02*
X109880000Y-99350000I-200000J0D01*
G01*
X108430000Y-99350000D01*
G75*
G02*
X108230000Y-99150000I0J200000D01*
G01*
G37*
G36*
G01*
X108230000Y-98500000D02*
X108230000Y-98100000D01*
G75*
G02*
X108430000Y-97900000I200000J0D01*
G01*
X109880000Y-97900000D01*
G75*
G02*
X110080000Y-98100000I0J-200000D01*
G01*
X110080000Y-98500000D01*
G75*
G02*
X109880000Y-98700000I-200000J0D01*
G01*
X108430000Y-98700000D01*
G75*
G02*
X108230000Y-98500000I0J200000D01*
G01*
G37*
G36*
G01*
X108320000Y-104400000D02*
X108320000Y-104000000D01*
G75*
G02*
X108520000Y-103800000I200000J0D01*
G01*
X109970000Y-103800000D01*
G75*
G02*
X110170000Y-104000000I0J-200000D01*
G01*
X110170000Y-104400000D01*
G75*
G02*
X109970000Y-104600000I-200000J0D01*
G01*
X108520000Y-104600000D01*
G75*
G02*
X108320000Y-104400000I0J200000D01*
G01*
G37*
G36*
G01*
X108320000Y-105050000D02*
X108320000Y-104650000D01*
G75*
G02*
X108520000Y-104450000I200000J0D01*
G01*
X109970000Y-104450000D01*
G75*
G02*
X110170000Y-104650000I0J-200000D01*
G01*
X110170000Y-105050000D01*
G75*
G02*
X109970000Y-105250000I-200000J0D01*
G01*
X108520000Y-105250000D01*
G75*
G02*
X108320000Y-105050000I0J200000D01*
G01*
G37*
G36*
G01*
X108320000Y-105700000D02*
X108320000Y-105300000D01*
G75*
G02*
X108520000Y-105100000I200000J0D01*
G01*
X109970000Y-105100000D01*
G75*
G02*
X110170000Y-105300000I0J-200000D01*
G01*
X110170000Y-105700000D01*
G75*
G02*
X109970000Y-105900000I-200000J0D01*
G01*
X108520000Y-105900000D01*
G75*
G02*
X108320000Y-105700000I0J200000D01*
G01*
G37*
G36*
G01*
X108320000Y-106350000D02*
X108320000Y-105950000D01*
G75*
G02*
X108520000Y-105750000I200000J0D01*
G01*
X109970000Y-105750000D01*
G75*
G02*
X110170000Y-105950000I0J-200000D01*
G01*
X110170000Y-106350000D01*
G75*
G02*
X109970000Y-106550000I-200000J0D01*
G01*
X108520000Y-106550000D01*
G75*
G02*
X108320000Y-106350000I0J200000D01*
G01*
G37*
G36*
G01*
X108320000Y-107000000D02*
X108320000Y-106600000D01*
G75*
G02*
X108520000Y-106400000I200000J0D01*
G01*
X109970000Y-106400000D01*
G75*
G02*
X110170000Y-106600000I0J-200000D01*
G01*
X110170000Y-107000000D01*
G75*
G02*
X109970000Y-107200000I-200000J0D01*
G01*
X108520000Y-107200000D01*
G75*
G02*
X108320000Y-107000000I0J200000D01*
G01*
G37*
G36*
G01*
X108320000Y-107650000D02*
X108320000Y-107250000D01*
G75*
G02*
X108520000Y-107050000I200000J0D01*
G01*
X109970000Y-107050000D01*
G75*
G02*
X110170000Y-107250000I0J-200000D01*
G01*
X110170000Y-107650000D01*
G75*
G02*
X109970000Y-107850000I-200000J0D01*
G01*
X108520000Y-107850000D01*
G75*
G02*
X108320000Y-107650000I0J200000D01*
G01*
G37*
G36*
G01*
X104020000Y-107650000D02*
X104020000Y-107250000D01*
G75*
G02*
X104220000Y-107050000I200000J0D01*
G01*
X105670000Y-107050000D01*
G75*
G02*
X105870000Y-107250000I0J-200000D01*
G01*
X105870000Y-107650000D01*
G75*
G02*
X105670000Y-107850000I-200000J0D01*
G01*
X104220000Y-107850000D01*
G75*
G02*
X104020000Y-107650000I0J200000D01*
G01*
G37*
G36*
G01*
X104020000Y-107000000D02*
X104020000Y-106600000D01*
G75*
G02*
X104220000Y-106400000I200000J0D01*
G01*
X105670000Y-106400000D01*
G75*
G02*
X105870000Y-106600000I0J-200000D01*
G01*
X105870000Y-107000000D01*
G75*
G02*
X105670000Y-107200000I-200000J0D01*
G01*
X104220000Y-107200000D01*
G75*
G02*
X104020000Y-107000000I0J200000D01*
G01*
G37*
G36*
G01*
X104020000Y-106350000D02*
X104020000Y-105950000D01*
G75*
G02*
X104220000Y-105750000I200000J0D01*
G01*
X105670000Y-105750000D01*
G75*
G02*
X105870000Y-105950000I0J-200000D01*
G01*
X105870000Y-106350000D01*
G75*
G02*
X105670000Y-106550000I-200000J0D01*
G01*
X104220000Y-106550000D01*
G75*
G02*
X104020000Y-106350000I0J200000D01*
G01*
G37*
G36*
G01*
X104020000Y-105700000D02*
X104020000Y-105300000D01*
G75*
G02*
X104220000Y-105100000I200000J0D01*
G01*
X105670000Y-105100000D01*
G75*
G02*
X105870000Y-105300000I0J-200000D01*
G01*
X105870000Y-105700000D01*
G75*
G02*
X105670000Y-105900000I-200000J0D01*
G01*
X104220000Y-105900000D01*
G75*
G02*
X104020000Y-105700000I0J200000D01*
G01*
G37*
G36*
G01*
X104020000Y-105050000D02*
X104020000Y-104650000D01*
G75*
G02*
X104220000Y-104450000I200000J0D01*
G01*
X105670000Y-104450000D01*
G75*
G02*
X105870000Y-104650000I0J-200000D01*
G01*
X105870000Y-105050000D01*
G75*
G02*
X105670000Y-105250000I-200000J0D01*
G01*
X104220000Y-105250000D01*
G75*
G02*
X104020000Y-105050000I0J200000D01*
G01*
G37*
G36*
G01*
X104020000Y-104400000D02*
X104020000Y-104000000D01*
G75*
G02*
X104220000Y-103800000I200000J0D01*
G01*
X105670000Y-103800000D01*
G75*
G02*
X105870000Y-104000000I0J-200000D01*
G01*
X105870000Y-104400000D01*
G75*
G02*
X105670000Y-104600000I-200000J0D01*
G01*
X104220000Y-104600000D01*
G75*
G02*
X104020000Y-104400000I0J200000D01*
G01*
G37*
G36*
G01*
X106070000Y-107139396D02*
X106070000Y-104510604D01*
G75*
G02*
X106380604Y-104200000I310604J0D01*
G01*
X107809396Y-104200000D01*
G75*
G02*
X108120000Y-104510604I0J-310604D01*
G01*
X108120000Y-107139396D01*
G75*
G02*
X107809396Y-107450000I-310604J0D01*
G01*
X106380604Y-107450000D01*
G75*
G02*
X106070000Y-107139396I0J310604D01*
G01*
G37*
G36*
G01*
X195254300Y-74835000D02*
X195254300Y-75245000D01*
G75*
G02*
X195054300Y-75445000I-200000J0D01*
G01*
X193454300Y-75445000D01*
G75*
G02*
X193254300Y-75245000I0J200000D01*
G01*
X193254300Y-74835000D01*
G75*
G02*
X193454300Y-74635000I200000J0D01*
G01*
X195054300Y-74635000D01*
G75*
G02*
X195254300Y-74835000I0J-200000D01*
G01*
G37*
G36*
G01*
X195254300Y-74200000D02*
X195254300Y-74610000D01*
G75*
G02*
X195054300Y-74810000I-200000J0D01*
G01*
X193454300Y-74810000D01*
G75*
G02*
X193254300Y-74610000I0J200000D01*
G01*
X193254300Y-74200000D01*
G75*
G02*
X193454300Y-74000000I200000J0D01*
G01*
X195054300Y-74000000D01*
G75*
G02*
X195254300Y-74200000I0J-200000D01*
G01*
G37*
G36*
G01*
X195254300Y-73565000D02*
X195254300Y-73975000D01*
G75*
G02*
X195054300Y-74175000I-200000J0D01*
G01*
X193454300Y-74175000D01*
G75*
G02*
X193254300Y-73975000I0J200000D01*
G01*
X193254300Y-73565000D01*
G75*
G02*
X193454300Y-73365000I200000J0D01*
G01*
X195054300Y-73365000D01*
G75*
G02*
X195254300Y-73565000I0J-200000D01*
G01*
G37*
G36*
G01*
X195254300Y-72930000D02*
X195254300Y-73340000D01*
G75*
G02*
X195054300Y-73540000I-200000J0D01*
G01*
X193454300Y-73540000D01*
G75*
G02*
X193254300Y-73340000I0J200000D01*
G01*
X193254300Y-72930000D01*
G75*
G02*
X193454300Y-72730000I200000J0D01*
G01*
X195054300Y-72730000D01*
G75*
G02*
X195254300Y-72930000I0J-200000D01*
G01*
G37*
G36*
G01*
X195254300Y-72295000D02*
X195254300Y-72705000D01*
G75*
G02*
X195054300Y-72905000I-200000J0D01*
G01*
X193454300Y-72905000D01*
G75*
G02*
X193254300Y-72705000I0J200000D01*
G01*
X193254300Y-72295000D01*
G75*
G02*
X193454300Y-72095000I200000J0D01*
G01*
X195054300Y-72095000D01*
G75*
G02*
X195254300Y-72295000I0J-200000D01*
G01*
G37*
G36*
G01*
X195254300Y-71660000D02*
X195254300Y-72070000D01*
G75*
G02*
X195054300Y-72270000I-200000J0D01*
G01*
X193454300Y-72270000D01*
G75*
G02*
X193254300Y-72070000I0J200000D01*
G01*
X193254300Y-71660000D01*
G75*
G02*
X193454300Y-71460000I200000J0D01*
G01*
X195054300Y-71460000D01*
G75*
G02*
X195254300Y-71660000I0J-200000D01*
G01*
G37*
G36*
G01*
X195254300Y-71025000D02*
X195254300Y-71435000D01*
G75*
G02*
X195054300Y-71635000I-200000J0D01*
G01*
X193454300Y-71635000D01*
G75*
G02*
X193254300Y-71435000I0J200000D01*
G01*
X193254300Y-71025000D01*
G75*
G02*
X193454300Y-70825000I200000J0D01*
G01*
X195054300Y-70825000D01*
G75*
G02*
X195254300Y-71025000I0J-200000D01*
G01*
G37*
G36*
G01*
X195254300Y-70390000D02*
X195254300Y-70800000D01*
G75*
G02*
X195054300Y-71000000I-200000J0D01*
G01*
X193454300Y-71000000D01*
G75*
G02*
X193254300Y-70800000I0J200000D01*
G01*
X193254300Y-70390000D01*
G75*
G02*
X193454300Y-70190000I200000J0D01*
G01*
X195054300Y-70190000D01*
G75*
G02*
X195254300Y-70390000I0J-200000D01*
G01*
G37*
G36*
G01*
X189945700Y-70390000D02*
X189945700Y-70800000D01*
G75*
G02*
X189745700Y-71000000I-200000J0D01*
G01*
X188145700Y-71000000D01*
G75*
G02*
X187945700Y-70800000I0J200000D01*
G01*
X187945700Y-70390000D01*
G75*
G02*
X188145700Y-70190000I200000J0D01*
G01*
X189745700Y-70190000D01*
G75*
G02*
X189945700Y-70390000I0J-200000D01*
G01*
G37*
G36*
G01*
X189945700Y-71025000D02*
X189945700Y-71435000D01*
G75*
G02*
X189745700Y-71635000I-200000J0D01*
G01*
X188145700Y-71635000D01*
G75*
G02*
X187945700Y-71435000I0J200000D01*
G01*
X187945700Y-71025000D01*
G75*
G02*
X188145700Y-70825000I200000J0D01*
G01*
X189745700Y-70825000D01*
G75*
G02*
X189945700Y-71025000I0J-200000D01*
G01*
G37*
G36*
G01*
X189945700Y-71660000D02*
X189945700Y-72070000D01*
G75*
G02*
X189745700Y-72270000I-200000J0D01*
G01*
X188145700Y-72270000D01*
G75*
G02*
X187945700Y-72070000I0J200000D01*
G01*
X187945700Y-71660000D01*
G75*
G02*
X188145700Y-71460000I200000J0D01*
G01*
X189745700Y-71460000D01*
G75*
G02*
X189945700Y-71660000I0J-200000D01*
G01*
G37*
G36*
G01*
X189945700Y-72295000D02*
X189945700Y-72705000D01*
G75*
G02*
X189745700Y-72905000I-200000J0D01*
G01*
X188145700Y-72905000D01*
G75*
G02*
X187945700Y-72705000I0J200000D01*
G01*
X187945700Y-72295000D01*
G75*
G02*
X188145700Y-72095000I200000J0D01*
G01*
X189745700Y-72095000D01*
G75*
G02*
X189945700Y-72295000I0J-200000D01*
G01*
G37*
G36*
G01*
X189945700Y-72930000D02*
X189945700Y-73340000D01*
G75*
G02*
X189745700Y-73540000I-200000J0D01*
G01*
X188145700Y-73540000D01*
G75*
G02*
X187945700Y-73340000I0J200000D01*
G01*
X187945700Y-72930000D01*
G75*
G02*
X188145700Y-72730000I200000J0D01*
G01*
X189745700Y-72730000D01*
G75*
G02*
X189945700Y-72930000I0J-200000D01*
G01*
G37*
G36*
G01*
X189945700Y-73565000D02*
X189945700Y-73975000D01*
G75*
G02*
X189745700Y-74175000I-200000J0D01*
G01*
X188145700Y-74175000D01*
G75*
G02*
X187945700Y-73975000I0J200000D01*
G01*
X187945700Y-73565000D01*
G75*
G02*
X188145700Y-73365000I200000J0D01*
G01*
X189745700Y-73365000D01*
G75*
G02*
X189945700Y-73565000I0J-200000D01*
G01*
G37*
G36*
G01*
X189945700Y-74200000D02*
X189945700Y-74610000D01*
G75*
G02*
X189745700Y-74810000I-200000J0D01*
G01*
X188145700Y-74810000D01*
G75*
G02*
X187945700Y-74610000I0J200000D01*
G01*
X187945700Y-74200000D01*
G75*
G02*
X188145700Y-74000000I200000J0D01*
G01*
X189745700Y-74000000D01*
G75*
G02*
X189945700Y-74200000I0J-200000D01*
G01*
G37*
G36*
G01*
X189945700Y-74835000D02*
X189945700Y-75245000D01*
G75*
G02*
X189745700Y-75445000I-200000J0D01*
G01*
X188145700Y-75445000D01*
G75*
G02*
X187945700Y-75245000I0J200000D01*
G01*
X187945700Y-74835000D01*
G75*
G02*
X188145700Y-74635000I200000J0D01*
G01*
X189745700Y-74635000D01*
G75*
G02*
X189945700Y-74835000I0J-200000D01*
G01*
G37*
G36*
G01*
X192675000Y-72005000D02*
X192675000Y-73630000D01*
G75*
G02*
X192137500Y-74167500I-537500J0D01*
G01*
X191062500Y-74167500D01*
G75*
G02*
X190525000Y-73630000I0J537500D01*
G01*
X190525000Y-72005000D01*
G75*
G02*
X191062500Y-71467500I537500J0D01*
G01*
X192137500Y-71467500D01*
G75*
G02*
X192675000Y-72005000I0J-537500D01*
G01*
G37*
G36*
G01*
X164475000Y-72825000D02*
X164475000Y-72425000D01*
G75*
G02*
X164675000Y-72225000I200000J0D01*
G01*
X166300000Y-72225000D01*
G75*
G02*
X166500000Y-72425000I0J-200000D01*
G01*
X166500000Y-72825000D01*
G75*
G02*
X166300000Y-73025000I-200000J0D01*
G01*
X164675000Y-73025000D01*
G75*
G02*
X164475000Y-72825000I0J200000D01*
G01*
G37*
G36*
G01*
X164475000Y-73475000D02*
X164475000Y-73075000D01*
G75*
G02*
X164675000Y-72875000I200000J0D01*
G01*
X166300000Y-72875000D01*
G75*
G02*
X166500000Y-73075000I0J-200000D01*
G01*
X166500000Y-73475000D01*
G75*
G02*
X166300000Y-73675000I-200000J0D01*
G01*
X164675000Y-73675000D01*
G75*
G02*
X164475000Y-73475000I0J200000D01*
G01*
G37*
G36*
G01*
X164475000Y-74125000D02*
X164475000Y-73725000D01*
G75*
G02*
X164675000Y-73525000I200000J0D01*
G01*
X166300000Y-73525000D01*
G75*
G02*
X166500000Y-73725000I0J-200000D01*
G01*
X166500000Y-74125000D01*
G75*
G02*
X166300000Y-74325000I-200000J0D01*
G01*
X164675000Y-74325000D01*
G75*
G02*
X164475000Y-74125000I0J200000D01*
G01*
G37*
G36*
G01*
X164475000Y-74775000D02*
X164475000Y-74375000D01*
G75*
G02*
X164675000Y-74175000I200000J0D01*
G01*
X166300000Y-74175000D01*
G75*
G02*
X166500000Y-74375000I0J-200000D01*
G01*
X166500000Y-74775000D01*
G75*
G02*
X166300000Y-74975000I-200000J0D01*
G01*
X164675000Y-74975000D01*
G75*
G02*
X164475000Y-74775000I0J200000D01*
G01*
G37*
G36*
G01*
X168700000Y-74775000D02*
X168700000Y-74375000D01*
G75*
G02*
X168900000Y-74175000I200000J0D01*
G01*
X170525000Y-74175000D01*
G75*
G02*
X170725000Y-74375000I0J-200000D01*
G01*
X170725000Y-74775000D01*
G75*
G02*
X170525000Y-74975000I-200000J0D01*
G01*
X168900000Y-74975000D01*
G75*
G02*
X168700000Y-74775000I0J200000D01*
G01*
G37*
G36*
G01*
X168700000Y-74125000D02*
X168700000Y-73725000D01*
G75*
G02*
X168900000Y-73525000I200000J0D01*
G01*
X170525000Y-73525000D01*
G75*
G02*
X170725000Y-73725000I0J-200000D01*
G01*
X170725000Y-74125000D01*
G75*
G02*
X170525000Y-74325000I-200000J0D01*
G01*
X168900000Y-74325000D01*
G75*
G02*
X168700000Y-74125000I0J200000D01*
G01*
G37*
G36*
G01*
X168700000Y-73475000D02*
X168700000Y-73075000D01*
G75*
G02*
X168900000Y-72875000I200000J0D01*
G01*
X170525000Y-72875000D01*
G75*
G02*
X170725000Y-73075000I0J-200000D01*
G01*
X170725000Y-73475000D01*
G75*
G02*
X170525000Y-73675000I-200000J0D01*
G01*
X168900000Y-73675000D01*
G75*
G02*
X168700000Y-73475000I0J200000D01*
G01*
G37*
G36*
G01*
X168700000Y-72825000D02*
X168700000Y-72425000D01*
G75*
G02*
X168900000Y-72225000I200000J0D01*
G01*
X170525000Y-72225000D01*
G75*
G02*
X170725000Y-72425000I0J-200000D01*
G01*
X170725000Y-72825000D01*
G75*
G02*
X170525000Y-73025000I-200000J0D01*
G01*
X168900000Y-73025000D01*
G75*
G02*
X168700000Y-72825000I0J200000D01*
G01*
G37*
G36*
G01*
X195838000Y-143273900D02*
X195838000Y-143673900D01*
G75*
G02*
X195638000Y-143873900I-200000J0D01*
G01*
X194013000Y-143873900D01*
G75*
G02*
X193813000Y-143673900I0J200000D01*
G01*
X193813000Y-143273900D01*
G75*
G02*
X194013000Y-143073900I200000J0D01*
G01*
X195638000Y-143073900D01*
G75*
G02*
X195838000Y-143273900I0J-200000D01*
G01*
G37*
G36*
G01*
X195838000Y-142623900D02*
X195838000Y-143023900D01*
G75*
G02*
X195638000Y-143223900I-200000J0D01*
G01*
X194013000Y-143223900D01*
G75*
G02*
X193813000Y-143023900I0J200000D01*
G01*
X193813000Y-142623900D01*
G75*
G02*
X194013000Y-142423900I200000J0D01*
G01*
X195638000Y-142423900D01*
G75*
G02*
X195838000Y-142623900I0J-200000D01*
G01*
G37*
G36*
G01*
X195838000Y-141973900D02*
X195838000Y-142373900D01*
G75*
G02*
X195638000Y-142573900I-200000J0D01*
G01*
X194013000Y-142573900D01*
G75*
G02*
X193813000Y-142373900I0J200000D01*
G01*
X193813000Y-141973900D01*
G75*
G02*
X194013000Y-141773900I200000J0D01*
G01*
X195638000Y-141773900D01*
G75*
G02*
X195838000Y-141973900I0J-200000D01*
G01*
G37*
G36*
G01*
X195838000Y-141323900D02*
X195838000Y-141723900D01*
G75*
G02*
X195638000Y-141923900I-200000J0D01*
G01*
X194013000Y-141923900D01*
G75*
G02*
X193813000Y-141723900I0J200000D01*
G01*
X193813000Y-141323900D01*
G75*
G02*
X194013000Y-141123900I200000J0D01*
G01*
X195638000Y-141123900D01*
G75*
G02*
X195838000Y-141323900I0J-200000D01*
G01*
G37*
G36*
G01*
X200063000Y-141323900D02*
X200063000Y-141723900D01*
G75*
G02*
X199863000Y-141923900I-200000J0D01*
G01*
X198238000Y-141923900D01*
G75*
G02*
X198038000Y-141723900I0J200000D01*
G01*
X198038000Y-141323900D01*
G75*
G02*
X198238000Y-141123900I200000J0D01*
G01*
X199863000Y-141123900D01*
G75*
G02*
X200063000Y-141323900I0J-200000D01*
G01*
G37*
G36*
G01*
X200063000Y-141973900D02*
X200063000Y-142373900D01*
G75*
G02*
X199863000Y-142573900I-200000J0D01*
G01*
X198238000Y-142573900D01*
G75*
G02*
X198038000Y-142373900I0J200000D01*
G01*
X198038000Y-141973900D01*
G75*
G02*
X198238000Y-141773900I200000J0D01*
G01*
X199863000Y-141773900D01*
G75*
G02*
X200063000Y-141973900I0J-200000D01*
G01*
G37*
G36*
G01*
X200063000Y-142623900D02*
X200063000Y-143023900D01*
G75*
G02*
X199863000Y-143223900I-200000J0D01*
G01*
X198238000Y-143223900D01*
G75*
G02*
X198038000Y-143023900I0J200000D01*
G01*
X198038000Y-142623900D01*
G75*
G02*
X198238000Y-142423900I200000J0D01*
G01*
X199863000Y-142423900D01*
G75*
G02*
X200063000Y-142623900I0J-200000D01*
G01*
G37*
G36*
G01*
X200063000Y-143273900D02*
X200063000Y-143673900D01*
G75*
G02*
X199863000Y-143873900I-200000J0D01*
G01*
X198238000Y-143873900D01*
G75*
G02*
X198038000Y-143673900I0J200000D01*
G01*
X198038000Y-143273900D01*
G75*
G02*
X198238000Y-143073900I200000J0D01*
G01*
X199863000Y-143073900D01*
G75*
G02*
X200063000Y-143273900I0J-200000D01*
G01*
G37*
G36*
G01*
X217800000Y-62130000D02*
X217800000Y-62670000D01*
G75*
G02*
X217560000Y-62910000I-240000J0D01*
G01*
X217080000Y-62910000D01*
G75*
G02*
X216840000Y-62670000I0J240000D01*
G01*
X216840000Y-62130000D01*
G75*
G02*
X217080000Y-61890000I240000J0D01*
G01*
X217560000Y-61890000D01*
G75*
G02*
X217800000Y-62130000I0J-240000D01*
G01*
G37*
G36*
G01*
X218760000Y-62130000D02*
X218760000Y-62670000D01*
G75*
G02*
X218520000Y-62910000I-240000J0D01*
G01*
X218040000Y-62910000D01*
G75*
G02*
X217800000Y-62670000I0J240000D01*
G01*
X217800000Y-62130000D01*
G75*
G02*
X218040000Y-61890000I240000J0D01*
G01*
X218520000Y-61890000D01*
G75*
G02*
X218760000Y-62130000I0J-240000D01*
G01*
G37*
G36*
G01*
X216840000Y-65170000D02*
X216840000Y-64630000D01*
G75*
G02*
X217080000Y-64390000I240000J0D01*
G01*
X217560000Y-64390000D01*
G75*
G02*
X217800000Y-64630000I0J-240000D01*
G01*
X217800000Y-65170000D01*
G75*
G02*
X217560000Y-65410000I-240000J0D01*
G01*
X217080000Y-65410000D01*
G75*
G02*
X216840000Y-65170000I0J240000D01*
G01*
G37*
G36*
G01*
X217800000Y-65170000D02*
X217800000Y-64630000D01*
G75*
G02*
X218040000Y-64390000I240000J0D01*
G01*
X218520000Y-64390000D01*
G75*
G02*
X218760000Y-64630000I0J-240000D01*
G01*
X218760000Y-65170000D01*
G75*
G02*
X218520000Y-65410000I-240000J0D01*
G01*
X218040000Y-65410000D01*
G75*
G02*
X217800000Y-65170000I0J240000D01*
G01*
G37*
G36*
G01*
X205850000Y-61350000D02*
X205850000Y-60650000D01*
G75*
G02*
X206175000Y-60325000I325000J0D01*
G01*
X206825000Y-60325000D01*
G75*
G02*
X207150000Y-60650000I0J-325000D01*
G01*
X207150000Y-61350000D01*
G75*
G02*
X206825000Y-61675000I-325000J0D01*
G01*
X206175000Y-61675000D01*
G75*
G02*
X205850000Y-61350000I0J325000D01*
G01*
G37*
G36*
G01*
X204300000Y-61350000D02*
X204300000Y-60650000D01*
G75*
G02*
X204625000Y-60325000I325000J0D01*
G01*
X205275000Y-60325000D01*
G75*
G02*
X205600000Y-60650000I0J-325000D01*
G01*
X205600000Y-61350000D01*
G75*
G02*
X205275000Y-61675000I-325000J0D01*
G01*
X204625000Y-61675000D01*
G75*
G02*
X204300000Y-61350000I0J325000D01*
G01*
G37*
G36*
G01*
X209050000Y-69725000D02*
X208350000Y-69725000D01*
G75*
G02*
X208025000Y-69400000I0J325000D01*
G01*
X208025000Y-68750000D01*
G75*
G02*
X208350000Y-68425000I325000J0D01*
G01*
X209050000Y-68425000D01*
G75*
G02*
X209375000Y-68750000I0J-325000D01*
G01*
X209375000Y-69400000D01*
G75*
G02*
X209050000Y-69725000I-325000J0D01*
G01*
G37*
G36*
G01*
X209050000Y-68175000D02*
X208350000Y-68175000D01*
G75*
G02*
X208025000Y-67850000I0J325000D01*
G01*
X208025000Y-67200000D01*
G75*
G02*
X208350000Y-66875000I325000J0D01*
G01*
X209050000Y-66875000D01*
G75*
G02*
X209375000Y-67200000I0J-325000D01*
G01*
X209375000Y-67850000D01*
G75*
G02*
X209050000Y-68175000I-325000J0D01*
G01*
G37*
D11*
X108100000Y-138300000D03*
G36*
G01*
X108900000Y-141800000D02*
X107300000Y-141800000D01*
G75*
G02*
X107100000Y-141600000I0J200000D01*
G01*
X107100000Y-140000000D01*
G75*
G02*
X107300000Y-139800000I200000J0D01*
G01*
X108900000Y-139800000D01*
G75*
G02*
X109100000Y-140000000I0J-200000D01*
G01*
X109100000Y-141600000D01*
G75*
G02*
X108900000Y-141800000I-200000J0D01*
G01*
G37*
G36*
G01*
X102350000Y-138175000D02*
X103050000Y-138175000D01*
G75*
G02*
X103375000Y-138500000I0J-325000D01*
G01*
X103375000Y-139150000D01*
G75*
G02*
X103050000Y-139475000I-325000J0D01*
G01*
X102350000Y-139475000D01*
G75*
G02*
X102025000Y-139150000I0J325000D01*
G01*
X102025000Y-138500000D01*
G75*
G02*
X102350000Y-138175000I325000J0D01*
G01*
G37*
G36*
G01*
X102350000Y-139725000D02*
X103050000Y-139725000D01*
G75*
G02*
X103375000Y-140050000I0J-325000D01*
G01*
X103375000Y-140700000D01*
G75*
G02*
X103050000Y-141025000I-325000J0D01*
G01*
X102350000Y-141025000D01*
G75*
G02*
X102025000Y-140700000I0J325000D01*
G01*
X102025000Y-140050000D01*
G75*
G02*
X102350000Y-139725000I325000J0D01*
G01*
G37*
G36*
G01*
X97350000Y-139825000D02*
X98050000Y-139825000D01*
G75*
G02*
X98375000Y-140150000I0J-325000D01*
G01*
X98375000Y-140800000D01*
G75*
G02*
X98050000Y-141125000I-325000J0D01*
G01*
X97350000Y-141125000D01*
G75*
G02*
X97025000Y-140800000I0J325000D01*
G01*
X97025000Y-140150000D01*
G75*
G02*
X97350000Y-139825000I325000J0D01*
G01*
G37*
G36*
G01*
X97350000Y-138275000D02*
X98050000Y-138275000D01*
G75*
G02*
X98375000Y-138600000I0J-325000D01*
G01*
X98375000Y-139250000D01*
G75*
G02*
X98050000Y-139575000I-325000J0D01*
G01*
X97350000Y-139575000D01*
G75*
G02*
X97025000Y-139250000I0J325000D01*
G01*
X97025000Y-138600000D01*
G75*
G02*
X97350000Y-138275000I325000J0D01*
G01*
G37*
G36*
G01*
X93600000Y-141700000D02*
X92000000Y-141700000D01*
G75*
G02*
X91800000Y-141500000I0J200000D01*
G01*
X91800000Y-139900000D01*
G75*
G02*
X92000000Y-139700000I200000J0D01*
G01*
X93600000Y-139700000D01*
G75*
G02*
X93800000Y-139900000I0J-200000D01*
G01*
X93800000Y-141500000D01*
G75*
G02*
X93600000Y-141700000I-200000J0D01*
G01*
G37*
X92800000Y-138200000D03*
D12*
X72750000Y-144450000D03*
X72750000Y-55550000D03*
D10*
X80370000Y-60630000D03*
X80370000Y-63170000D03*
X80370000Y-65710000D03*
X80370000Y-68250000D03*
X80370000Y-70790000D03*
X80370000Y-73330000D03*
X80370000Y-75870000D03*
X80370000Y-78410000D03*
X80370000Y-80950000D03*
X80370000Y-83490000D03*
X80370000Y-86030000D03*
X80370000Y-88570000D03*
X80370000Y-91110000D03*
X80370000Y-93650000D03*
X80370000Y-96190000D03*
X80370000Y-98730000D03*
X80370000Y-101270000D03*
X80370000Y-103810000D03*
X80370000Y-106350000D03*
X80370000Y-108890000D03*
X80370000Y-111430000D03*
X80370000Y-113970000D03*
X80370000Y-116510000D03*
X80370000Y-119050000D03*
X80370000Y-121590000D03*
X80370000Y-124130000D03*
X80370000Y-126670000D03*
X80370000Y-129210000D03*
X80370000Y-134290000D03*
X80370000Y-131750000D03*
X80370000Y-136830000D03*
X80370000Y-139370000D03*
X75290000Y-60630000D03*
X75290000Y-63170000D03*
X75290000Y-65710000D03*
X75290000Y-68250000D03*
X75290000Y-70790000D03*
X75290000Y-73330000D03*
X75290000Y-75870000D03*
X75290000Y-78410000D03*
X75290000Y-80950000D03*
X75290000Y-83490000D03*
X75290000Y-86030000D03*
X75290000Y-88570000D03*
X75290000Y-91110000D03*
X75290000Y-93650000D03*
X75290000Y-96190000D03*
X75290000Y-98730000D03*
X75290000Y-101270000D03*
X75290000Y-103810000D03*
X75290000Y-106350000D03*
X75290000Y-108890000D03*
X75290000Y-111430000D03*
X75290000Y-113970000D03*
X75290000Y-116510000D03*
X75290000Y-119050000D03*
X75290000Y-121590000D03*
X75290000Y-124130000D03*
X75290000Y-126670000D03*
X75290000Y-129210000D03*
X75290000Y-134290000D03*
X75290000Y-131750000D03*
X75290000Y-136830000D03*
X75290000Y-139370000D03*
G36*
G01*
X104152500Y-144500000D02*
X104152500Y-146500000D01*
G75*
G02*
X103952500Y-146700000I-200000J0D01*
G01*
X102047500Y-146700000D01*
G75*
G02*
X101847500Y-146500000I0J200000D01*
G01*
X101847500Y-144500000D01*
G75*
G02*
X102047500Y-144300000I200000J0D01*
G01*
X103952500Y-144300000D01*
G75*
G02*
X104152500Y-144500000I0J-200000D01*
G01*
G37*
D13*
X100460000Y-145500000D03*
X97920000Y-145500000D03*
D14*
X217300000Y-102460000D03*
X217300000Y-105000000D03*
D15*
X222380000Y-110080000D03*
X222380000Y-99920000D03*
G36*
G01*
X208050000Y-61345000D02*
X208050000Y-60845000D01*
G75*
G02*
X208300000Y-60595000I250000J0D01*
G01*
X210150000Y-60595000D01*
G75*
G02*
X210400000Y-60845000I0J-250000D01*
G01*
X210400000Y-61345000D01*
G75*
G02*
X210150000Y-61595000I-250000J0D01*
G01*
X208300000Y-61595000D01*
G75*
G02*
X208050000Y-61345000I0J250000D01*
G01*
G37*
G36*
G01*
X208050000Y-62615000D02*
X208050000Y-62115000D01*
G75*
G02*
X208300000Y-61865000I250000J0D01*
G01*
X210150000Y-61865000D01*
G75*
G02*
X210400000Y-62115000I0J-250000D01*
G01*
X210400000Y-62615000D01*
G75*
G02*
X210150000Y-62865000I-250000J0D01*
G01*
X208300000Y-62865000D01*
G75*
G02*
X208050000Y-62615000I0J250000D01*
G01*
G37*
G36*
G01*
X208050000Y-63885000D02*
X208050000Y-63385000D01*
G75*
G02*
X208300000Y-63135000I250000J0D01*
G01*
X210150000Y-63135000D01*
G75*
G02*
X210400000Y-63385000I0J-250000D01*
G01*
X210400000Y-63885000D01*
G75*
G02*
X210150000Y-64135000I-250000J0D01*
G01*
X208300000Y-64135000D01*
G75*
G02*
X208050000Y-63885000I0J250000D01*
G01*
G37*
G36*
G01*
X208050000Y-65155000D02*
X208050000Y-64655000D01*
G75*
G02*
X208300000Y-64405000I250000J0D01*
G01*
X210150000Y-64405000D01*
G75*
G02*
X210400000Y-64655000I0J-250000D01*
G01*
X210400000Y-65155000D01*
G75*
G02*
X210150000Y-65405000I-250000J0D01*
G01*
X208300000Y-65405000D01*
G75*
G02*
X208050000Y-65155000I0J250000D01*
G01*
G37*
G36*
G01*
X213000000Y-65155000D02*
X213000000Y-64655000D01*
G75*
G02*
X213250000Y-64405000I250000J0D01*
G01*
X215100000Y-64405000D01*
G75*
G02*
X215350000Y-64655000I0J-250000D01*
G01*
X215350000Y-65155000D01*
G75*
G02*
X215100000Y-65405000I-250000J0D01*
G01*
X213250000Y-65405000D01*
G75*
G02*
X213000000Y-65155000I0J250000D01*
G01*
G37*
G36*
G01*
X213000000Y-63885000D02*
X213000000Y-63385000D01*
G75*
G02*
X213250000Y-63135000I250000J0D01*
G01*
X215100000Y-63135000D01*
G75*
G02*
X215350000Y-63385000I0J-250000D01*
G01*
X215350000Y-63885000D01*
G75*
G02*
X215100000Y-64135000I-250000J0D01*
G01*
X213250000Y-64135000D01*
G75*
G02*
X213000000Y-63885000I0J250000D01*
G01*
G37*
G36*
G01*
X213000000Y-62615000D02*
X213000000Y-62115000D01*
G75*
G02*
X213250000Y-61865000I250000J0D01*
G01*
X215100000Y-61865000D01*
G75*
G02*
X215350000Y-62115000I0J-250000D01*
G01*
X215350000Y-62615000D01*
G75*
G02*
X215100000Y-62865000I-250000J0D01*
G01*
X213250000Y-62865000D01*
G75*
G02*
X213000000Y-62615000I0J250000D01*
G01*
G37*
G36*
G01*
X213000000Y-61345000D02*
X213000000Y-60845000D01*
G75*
G02*
X213250000Y-60595000I250000J0D01*
G01*
X215100000Y-60595000D01*
G75*
G02*
X215350000Y-60845000I0J-250000D01*
G01*
X215350000Y-61345000D01*
G75*
G02*
X215100000Y-61595000I-250000J0D01*
G01*
X213250000Y-61595000D01*
G75*
G02*
X213000000Y-61345000I0J250000D01*
G01*
G37*
G36*
G01*
X210295000Y-64905000D02*
X210295000Y-61095000D01*
G75*
G02*
X210495000Y-60895000I200000J0D01*
G01*
X212905000Y-60895000D01*
G75*
G02*
X213105000Y-61095000I0J-200000D01*
G01*
X213105000Y-64905000D01*
G75*
G02*
X212905000Y-65105000I-200000J0D01*
G01*
X210495000Y-65105000D01*
G75*
G02*
X210295000Y-64905000I0J200000D01*
G01*
G37*
G36*
G01*
X93300000Y-64600000D02*
X91700000Y-64600000D01*
G75*
G02*
X91500000Y-64400000I0J200000D01*
G01*
X91500000Y-62800000D01*
G75*
G02*
X91700000Y-62600000I200000J0D01*
G01*
X93300000Y-62600000D01*
G75*
G02*
X93500000Y-62800000I0J-200000D01*
G01*
X93500000Y-64400000D01*
G75*
G02*
X93300000Y-64600000I-200000J0D01*
G01*
G37*
D11*
X92500000Y-61100000D03*
G36*
G01*
X205404200Y-127129000D02*
X204704200Y-127129000D01*
G75*
G02*
X204379200Y-126804000I0J325000D01*
G01*
X204379200Y-126154000D01*
G75*
G02*
X204704200Y-125829000I325000J0D01*
G01*
X205404200Y-125829000D01*
G75*
G02*
X205729200Y-126154000I0J-325000D01*
G01*
X205729200Y-126804000D01*
G75*
G02*
X205404200Y-127129000I-325000J0D01*
G01*
G37*
G36*
G01*
X205404200Y-128679000D02*
X204704200Y-128679000D01*
G75*
G02*
X204379200Y-128354000I0J325000D01*
G01*
X204379200Y-127704000D01*
G75*
G02*
X204704200Y-127379000I325000J0D01*
G01*
X205404200Y-127379000D01*
G75*
G02*
X205729200Y-127704000I0J-325000D01*
G01*
X205729200Y-128354000D01*
G75*
G02*
X205404200Y-128679000I-325000J0D01*
G01*
G37*
G36*
G01*
X195315900Y-129659900D02*
X195315900Y-130359900D01*
G75*
G02*
X194990900Y-130684900I-325000J0D01*
G01*
X194340900Y-130684900D01*
G75*
G02*
X194015900Y-130359900I0J325000D01*
G01*
X194015900Y-129659900D01*
G75*
G02*
X194340900Y-129334900I325000J0D01*
G01*
X194990900Y-129334900D01*
G75*
G02*
X195315900Y-129659900I0J-325000D01*
G01*
G37*
G36*
G01*
X193765900Y-129659900D02*
X193765900Y-130359900D01*
G75*
G02*
X193440900Y-130684900I-325000J0D01*
G01*
X192790900Y-130684900D01*
G75*
G02*
X192465900Y-130359900I0J325000D01*
G01*
X192465900Y-129659900D01*
G75*
G02*
X192790900Y-129334900I325000J0D01*
G01*
X193440900Y-129334900D01*
G75*
G02*
X193765900Y-129659900I0J-325000D01*
G01*
G37*
G36*
G01*
X192537600Y-120952200D02*
X193237600Y-120952200D01*
G75*
G02*
X193562600Y-121277200I0J-325000D01*
G01*
X193562600Y-121927200D01*
G75*
G02*
X193237600Y-122252200I-325000J0D01*
G01*
X192537600Y-122252200D01*
G75*
G02*
X192212600Y-121927200I0J325000D01*
G01*
X192212600Y-121277200D01*
G75*
G02*
X192537600Y-120952200I325000J0D01*
G01*
G37*
G36*
G01*
X192537600Y-122502200D02*
X193237600Y-122502200D01*
G75*
G02*
X193562600Y-122827200I0J-325000D01*
G01*
X193562600Y-123477200D01*
G75*
G02*
X193237600Y-123802200I-325000J0D01*
G01*
X192537600Y-123802200D01*
G75*
G02*
X192212600Y-123477200I0J325000D01*
G01*
X192212600Y-122827200D01*
G75*
G02*
X192537600Y-122502200I325000J0D01*
G01*
G37*
G36*
G01*
X204755000Y-121028400D02*
X205455000Y-121028400D01*
G75*
G02*
X205780000Y-121353400I0J-325000D01*
G01*
X205780000Y-122003400D01*
G75*
G02*
X205455000Y-122328400I-325000J0D01*
G01*
X204755000Y-122328400D01*
G75*
G02*
X204430000Y-122003400I0J325000D01*
G01*
X204430000Y-121353400D01*
G75*
G02*
X204755000Y-121028400I325000J0D01*
G01*
G37*
G36*
G01*
X204755000Y-122578400D02*
X205455000Y-122578400D01*
G75*
G02*
X205780000Y-122903400I0J-325000D01*
G01*
X205780000Y-123553400D01*
G75*
G02*
X205455000Y-123878400I-325000J0D01*
G01*
X204755000Y-123878400D01*
G75*
G02*
X204430000Y-123553400I0J325000D01*
G01*
X204430000Y-122903400D01*
G75*
G02*
X204755000Y-122578400I325000J0D01*
G01*
G37*
G36*
G01*
X205429600Y-118848600D02*
X204729600Y-118848600D01*
G75*
G02*
X204404600Y-118523600I0J325000D01*
G01*
X204404600Y-117873600D01*
G75*
G02*
X204729600Y-117548600I325000J0D01*
G01*
X205429600Y-117548600D01*
G75*
G02*
X205754600Y-117873600I0J-325000D01*
G01*
X205754600Y-118523600D01*
G75*
G02*
X205429600Y-118848600I-325000J0D01*
G01*
G37*
G36*
G01*
X205429600Y-120398600D02*
X204729600Y-120398600D01*
G75*
G02*
X204404600Y-120073600I0J325000D01*
G01*
X204404600Y-119423600D01*
G75*
G02*
X204729600Y-119098600I325000J0D01*
G01*
X205429600Y-119098600D01*
G75*
G02*
X205754600Y-119423600I0J-325000D01*
G01*
X205754600Y-120073600D01*
G75*
G02*
X205429600Y-120398600I-325000J0D01*
G01*
G37*
G36*
G01*
X210355700Y-132814600D02*
X211055700Y-132814600D01*
G75*
G02*
X211380700Y-133139600I0J-325000D01*
G01*
X211380700Y-133789600D01*
G75*
G02*
X211055700Y-134114600I-325000J0D01*
G01*
X210355700Y-134114600D01*
G75*
G02*
X210030700Y-133789600I0J325000D01*
G01*
X210030700Y-133139600D01*
G75*
G02*
X210355700Y-132814600I325000J0D01*
G01*
G37*
G36*
G01*
X210355700Y-131264600D02*
X211055700Y-131264600D01*
G75*
G02*
X211380700Y-131589600I0J-325000D01*
G01*
X211380700Y-132239600D01*
G75*
G02*
X211055700Y-132564600I-325000J0D01*
G01*
X210355700Y-132564600D01*
G75*
G02*
X210030700Y-132239600I0J325000D01*
G01*
X210030700Y-131589600D01*
G75*
G02*
X210355700Y-131264600I325000J0D01*
G01*
G37*
G36*
G01*
X86250000Y-141300000D02*
X83950000Y-141300000D01*
G75*
G02*
X83750000Y-141100000I0J200000D01*
G01*
X83750000Y-138600000D01*
G75*
G02*
X83950000Y-138400000I200000J0D01*
G01*
X86250000Y-138400000D01*
G75*
G02*
X86450000Y-138600000I0J-200000D01*
G01*
X86450000Y-141100000D01*
G75*
G02*
X86250000Y-141300000I-200000J0D01*
G01*
G37*
G36*
G01*
X86250000Y-137000000D02*
X83950000Y-137000000D01*
G75*
G02*
X83750000Y-136800000I0J200000D01*
G01*
X83750000Y-134300000D01*
G75*
G02*
X83950000Y-134100000I200000J0D01*
G01*
X86250000Y-134100000D01*
G75*
G02*
X86450000Y-134300000I0J-200000D01*
G01*
X86450000Y-136800000D01*
G75*
G02*
X86250000Y-137000000I-200000J0D01*
G01*
G37*
G36*
G01*
X86150000Y-61600000D02*
X83850000Y-61600000D01*
G75*
G02*
X83650000Y-61400000I0J200000D01*
G01*
X83650000Y-58900000D01*
G75*
G02*
X83850000Y-58700000I200000J0D01*
G01*
X86150000Y-58700000D01*
G75*
G02*
X86350000Y-58900000I0J-200000D01*
G01*
X86350000Y-61400000D01*
G75*
G02*
X86150000Y-61600000I-200000J0D01*
G01*
G37*
G36*
G01*
X86150000Y-65900000D02*
X83850000Y-65900000D01*
G75*
G02*
X83650000Y-65700000I0J200000D01*
G01*
X83650000Y-63200000D01*
G75*
G02*
X83850000Y-63000000I200000J0D01*
G01*
X86150000Y-63000000D01*
G75*
G02*
X86350000Y-63200000I0J-200000D01*
G01*
X86350000Y-65700000D01*
G75*
G02*
X86150000Y-65900000I-200000J0D01*
G01*
G37*
D15*
X222280000Y-123920000D03*
X222280000Y-134080000D03*
D14*
X217200000Y-129000000D03*
X217200000Y-126460000D03*
G36*
G01*
X203688000Y-141573900D02*
X204388000Y-141573900D01*
G75*
G02*
X204713000Y-141898900I0J-325000D01*
G01*
X204713000Y-142548900D01*
G75*
G02*
X204388000Y-142873900I-325000J0D01*
G01*
X203688000Y-142873900D01*
G75*
G02*
X203363000Y-142548900I0J325000D01*
G01*
X203363000Y-141898900D01*
G75*
G02*
X203688000Y-141573900I325000J0D01*
G01*
G37*
G36*
G01*
X203688000Y-143123900D02*
X204388000Y-143123900D01*
G75*
G02*
X204713000Y-143448900I0J-325000D01*
G01*
X204713000Y-144098900D01*
G75*
G02*
X204388000Y-144423900I-325000J0D01*
G01*
X203688000Y-144423900D01*
G75*
G02*
X203363000Y-144098900I0J325000D01*
G01*
X203363000Y-143448900D01*
G75*
G02*
X203688000Y-143123900I325000J0D01*
G01*
G37*
G36*
G01*
X202288000Y-142773900D02*
X201588000Y-142773900D01*
G75*
G02*
X201263000Y-142448900I0J325000D01*
G01*
X201263000Y-141798900D01*
G75*
G02*
X201588000Y-141473900I325000J0D01*
G01*
X202288000Y-141473900D01*
G75*
G02*
X202613000Y-141798900I0J-325000D01*
G01*
X202613000Y-142448900D01*
G75*
G02*
X202288000Y-142773900I-325000J0D01*
G01*
G37*
G36*
G01*
X202288000Y-144323900D02*
X201588000Y-144323900D01*
G75*
G02*
X201263000Y-143998900I0J325000D01*
G01*
X201263000Y-143348900D01*
G75*
G02*
X201588000Y-143023900I325000J0D01*
G01*
X202288000Y-143023900D01*
G75*
G02*
X202613000Y-143348900I0J-325000D01*
G01*
X202613000Y-143998900D01*
G75*
G02*
X202288000Y-144323900I-325000J0D01*
G01*
G37*
G36*
G01*
X190363900Y-138778900D02*
X190363900Y-139528900D01*
G75*
G02*
X190063900Y-139828900I-300000J0D01*
G01*
X189463900Y-139828900D01*
G75*
G02*
X189163900Y-139528900I0J300000D01*
G01*
X189163900Y-138778900D01*
G75*
G02*
X189463900Y-138478900I300000J0D01*
G01*
X190063900Y-138478900D01*
G75*
G02*
X190363900Y-138778900I0J-300000D01*
G01*
G37*
G36*
G01*
X192013900Y-138778900D02*
X192013900Y-139528900D01*
G75*
G02*
X191713900Y-139828900I-300000J0D01*
G01*
X191113900Y-139828900D01*
G75*
G02*
X190813900Y-139528900I0J300000D01*
G01*
X190813900Y-138778900D01*
G75*
G02*
X191113900Y-138478900I300000J0D01*
G01*
X191713900Y-138478900D01*
G75*
G02*
X192013900Y-138778900I0J-300000D01*
G01*
G37*
G36*
G01*
X178326700Y-123911300D02*
X179076700Y-123911300D01*
G75*
G02*
X179376700Y-124211300I0J-300000D01*
G01*
X179376700Y-124811300D01*
G75*
G02*
X179076700Y-125111300I-300000J0D01*
G01*
X178326700Y-125111300D01*
G75*
G02*
X178026700Y-124811300I0J300000D01*
G01*
X178026700Y-124211300D01*
G75*
G02*
X178326700Y-123911300I300000J0D01*
G01*
G37*
G36*
G01*
X178326700Y-125561300D02*
X179076700Y-125561300D01*
G75*
G02*
X179376700Y-125861300I0J-300000D01*
G01*
X179376700Y-126461300D01*
G75*
G02*
X179076700Y-126761300I-300000J0D01*
G01*
X178326700Y-126761300D01*
G75*
G02*
X178026700Y-126461300I0J300000D01*
G01*
X178026700Y-125861300D01*
G75*
G02*
X178326700Y-125561300I300000J0D01*
G01*
G37*
G36*
G01*
X191263000Y-140773900D02*
X192013000Y-140773900D01*
G75*
G02*
X192313000Y-141073900I0J-300000D01*
G01*
X192313000Y-141673900D01*
G75*
G02*
X192013000Y-141973900I-300000J0D01*
G01*
X191263000Y-141973900D01*
G75*
G02*
X190963000Y-141673900I0J300000D01*
G01*
X190963000Y-141073900D01*
G75*
G02*
X191263000Y-140773900I300000J0D01*
G01*
G37*
G36*
G01*
X191263000Y-142423900D02*
X192013000Y-142423900D01*
G75*
G02*
X192313000Y-142723900I0J-300000D01*
G01*
X192313000Y-143323900D01*
G75*
G02*
X192013000Y-143623900I-300000J0D01*
G01*
X191263000Y-143623900D01*
G75*
G02*
X190963000Y-143323900I0J300000D01*
G01*
X190963000Y-142723900D01*
G75*
G02*
X191263000Y-142423900I300000J0D01*
G01*
G37*
G36*
G01*
X191370300Y-123814900D02*
X190620300Y-123814900D01*
G75*
G02*
X190320300Y-123514900I0J300000D01*
G01*
X190320300Y-122914900D01*
G75*
G02*
X190620300Y-122614900I300000J0D01*
G01*
X191370300Y-122614900D01*
G75*
G02*
X191670300Y-122914900I0J-300000D01*
G01*
X191670300Y-123514900D01*
G75*
G02*
X191370300Y-123814900I-300000J0D01*
G01*
G37*
G36*
G01*
X191370300Y-122164900D02*
X190620300Y-122164900D01*
G75*
G02*
X190320300Y-121864900I0J300000D01*
G01*
X190320300Y-121264900D01*
G75*
G02*
X190620300Y-120964900I300000J0D01*
G01*
X191370300Y-120964900D01*
G75*
G02*
X191670300Y-121264900I0J-300000D01*
G01*
X191670300Y-121864900D01*
G75*
G02*
X191370300Y-122164900I-300000J0D01*
G01*
G37*
G36*
G01*
X193249900Y-118824800D02*
X192499900Y-118824800D01*
G75*
G02*
X192199900Y-118524800I0J300000D01*
G01*
X192199900Y-117924800D01*
G75*
G02*
X192499900Y-117624800I300000J0D01*
G01*
X193249900Y-117624800D01*
G75*
G02*
X193549900Y-117924800I0J-300000D01*
G01*
X193549900Y-118524800D01*
G75*
G02*
X193249900Y-118824800I-300000J0D01*
G01*
G37*
G36*
G01*
X193249900Y-120474800D02*
X192499900Y-120474800D01*
G75*
G02*
X192199900Y-120174800I0J300000D01*
G01*
X192199900Y-119574800D01*
G75*
G02*
X192499900Y-119274800I300000J0D01*
G01*
X193249900Y-119274800D01*
G75*
G02*
X193549900Y-119574800I0J-300000D01*
G01*
X193549900Y-120174800D01*
G75*
G02*
X193249900Y-120474800I-300000J0D01*
G01*
G37*
G36*
G01*
X195091400Y-118812100D02*
X194341400Y-118812100D01*
G75*
G02*
X194041400Y-118512100I0J300000D01*
G01*
X194041400Y-117912100D01*
G75*
G02*
X194341400Y-117612100I300000J0D01*
G01*
X195091400Y-117612100D01*
G75*
G02*
X195391400Y-117912100I0J-300000D01*
G01*
X195391400Y-118512100D01*
G75*
G02*
X195091400Y-118812100I-300000J0D01*
G01*
G37*
G36*
G01*
X195091400Y-120462100D02*
X194341400Y-120462100D01*
G75*
G02*
X194041400Y-120162100I0J300000D01*
G01*
X194041400Y-119562100D01*
G75*
G02*
X194341400Y-119262100I300000J0D01*
G01*
X195091400Y-119262100D01*
G75*
G02*
X195391400Y-119562100I0J-300000D01*
G01*
X195391400Y-120162100D01*
G75*
G02*
X195091400Y-120462100I-300000J0D01*
G01*
G37*
G36*
G01*
X206982100Y-130192713D02*
X206982100Y-127820487D01*
G75*
G02*
X207320987Y-127481600I338887J0D01*
G01*
X208168213Y-127481600D01*
G75*
G02*
X208507100Y-127820487I0J-338887D01*
G01*
X208507100Y-130192713D01*
G75*
G02*
X208168213Y-130531600I-338887J0D01*
G01*
X207320987Y-130531600D01*
G75*
G02*
X206982100Y-130192713I0J338887D01*
G01*
G37*
G36*
G01*
X209907100Y-130192713D02*
X209907100Y-127820487D01*
G75*
G02*
X210245987Y-127481600I338887J0D01*
G01*
X211093213Y-127481600D01*
G75*
G02*
X211432100Y-127820487I0J-338887D01*
G01*
X211432100Y-130192713D01*
G75*
G02*
X211093213Y-130531600I-338887J0D01*
G01*
X210245987Y-130531600D01*
G75*
G02*
X209907100Y-130192713I0J338887D01*
G01*
G37*
G36*
G01*
X196186900Y-128074600D02*
X196186900Y-127674600D01*
G75*
G02*
X196386900Y-127474600I200000J0D01*
G01*
X197861900Y-127474600D01*
G75*
G02*
X198061900Y-127674600I0J-200000D01*
G01*
X198061900Y-128074600D01*
G75*
G02*
X197861900Y-128274600I-200000J0D01*
G01*
X196386900Y-128274600D01*
G75*
G02*
X196186900Y-128074600I0J200000D01*
G01*
G37*
G36*
G01*
X196186900Y-128724600D02*
X196186900Y-128324600D01*
G75*
G02*
X196386900Y-128124600I200000J0D01*
G01*
X197861900Y-128124600D01*
G75*
G02*
X198061900Y-128324600I0J-200000D01*
G01*
X198061900Y-128724600D01*
G75*
G02*
X197861900Y-128924600I-200000J0D01*
G01*
X196386900Y-128924600D01*
G75*
G02*
X196186900Y-128724600I0J200000D01*
G01*
G37*
G36*
G01*
X196186900Y-129374600D02*
X196186900Y-128974600D01*
G75*
G02*
X196386900Y-128774600I200000J0D01*
G01*
X197861900Y-128774600D01*
G75*
G02*
X198061900Y-128974600I0J-200000D01*
G01*
X198061900Y-129374600D01*
G75*
G02*
X197861900Y-129574600I-200000J0D01*
G01*
X196386900Y-129574600D01*
G75*
G02*
X196186900Y-129374600I0J200000D01*
G01*
G37*
G36*
G01*
X196186900Y-130024600D02*
X196186900Y-129624600D01*
G75*
G02*
X196386900Y-129424600I200000J0D01*
G01*
X197861900Y-129424600D01*
G75*
G02*
X198061900Y-129624600I0J-200000D01*
G01*
X198061900Y-130024600D01*
G75*
G02*
X197861900Y-130224600I-200000J0D01*
G01*
X196386900Y-130224600D01*
G75*
G02*
X196186900Y-130024600I0J200000D01*
G01*
G37*
G36*
G01*
X196186900Y-130674600D02*
X196186900Y-130274600D01*
G75*
G02*
X196386900Y-130074600I200000J0D01*
G01*
X197861900Y-130074600D01*
G75*
G02*
X198061900Y-130274600I0J-200000D01*
G01*
X198061900Y-130674600D01*
G75*
G02*
X197861900Y-130874600I-200000J0D01*
G01*
X196386900Y-130874600D01*
G75*
G02*
X196186900Y-130674600I0J200000D01*
G01*
G37*
G36*
G01*
X196186900Y-131324600D02*
X196186900Y-130924600D01*
G75*
G02*
X196386900Y-130724600I200000J0D01*
G01*
X197861900Y-130724600D01*
G75*
G02*
X198061900Y-130924600I0J-200000D01*
G01*
X198061900Y-131324600D01*
G75*
G02*
X197861900Y-131524600I-200000J0D01*
G01*
X196386900Y-131524600D01*
G75*
G02*
X196186900Y-131324600I0J200000D01*
G01*
G37*
G36*
G01*
X196186900Y-131974600D02*
X196186900Y-131574600D01*
G75*
G02*
X196386900Y-131374600I200000J0D01*
G01*
X197861900Y-131374600D01*
G75*
G02*
X198061900Y-131574600I0J-200000D01*
G01*
X198061900Y-131974600D01*
G75*
G02*
X197861900Y-132174600I-200000J0D01*
G01*
X196386900Y-132174600D01*
G75*
G02*
X196186900Y-131974600I0J200000D01*
G01*
G37*
G36*
G01*
X196186900Y-132624600D02*
X196186900Y-132224600D01*
G75*
G02*
X196386900Y-132024600I200000J0D01*
G01*
X197861900Y-132024600D01*
G75*
G02*
X198061900Y-132224600I0J-200000D01*
G01*
X198061900Y-132624600D01*
G75*
G02*
X197861900Y-132824600I-200000J0D01*
G01*
X196386900Y-132824600D01*
G75*
G02*
X196186900Y-132624600I0J200000D01*
G01*
G37*
G36*
G01*
X201911900Y-132624600D02*
X201911900Y-132224600D01*
G75*
G02*
X202111900Y-132024600I200000J0D01*
G01*
X203586900Y-132024600D01*
G75*
G02*
X203786900Y-132224600I0J-200000D01*
G01*
X203786900Y-132624600D01*
G75*
G02*
X203586900Y-132824600I-200000J0D01*
G01*
X202111900Y-132824600D01*
G75*
G02*
X201911900Y-132624600I0J200000D01*
G01*
G37*
G36*
G01*
X201911900Y-131974600D02*
X201911900Y-131574600D01*
G75*
G02*
X202111900Y-131374600I200000J0D01*
G01*
X203586900Y-131374600D01*
G75*
G02*
X203786900Y-131574600I0J-200000D01*
G01*
X203786900Y-131974600D01*
G75*
G02*
X203586900Y-132174600I-200000J0D01*
G01*
X202111900Y-132174600D01*
G75*
G02*
X201911900Y-131974600I0J200000D01*
G01*
G37*
G36*
G01*
X201911900Y-131324600D02*
X201911900Y-130924600D01*
G75*
G02*
X202111900Y-130724600I200000J0D01*
G01*
X203586900Y-130724600D01*
G75*
G02*
X203786900Y-130924600I0J-200000D01*
G01*
X203786900Y-131324600D01*
G75*
G02*
X203586900Y-131524600I-200000J0D01*
G01*
X202111900Y-131524600D01*
G75*
G02*
X201911900Y-131324600I0J200000D01*
G01*
G37*
G36*
G01*
X201911900Y-130674600D02*
X201911900Y-130274600D01*
G75*
G02*
X202111900Y-130074600I200000J0D01*
G01*
X203586900Y-130074600D01*
G75*
G02*
X203786900Y-130274600I0J-200000D01*
G01*
X203786900Y-130674600D01*
G75*
G02*
X203586900Y-130874600I-200000J0D01*
G01*
X202111900Y-130874600D01*
G75*
G02*
X201911900Y-130674600I0J200000D01*
G01*
G37*
G36*
G01*
X201911900Y-130024600D02*
X201911900Y-129624600D01*
G75*
G02*
X202111900Y-129424600I200000J0D01*
G01*
X203586900Y-129424600D01*
G75*
G02*
X203786900Y-129624600I0J-200000D01*
G01*
X203786900Y-130024600D01*
G75*
G02*
X203586900Y-130224600I-200000J0D01*
G01*
X202111900Y-130224600D01*
G75*
G02*
X201911900Y-130024600I0J200000D01*
G01*
G37*
G36*
G01*
X201911900Y-129374600D02*
X201911900Y-128974600D01*
G75*
G02*
X202111900Y-128774600I200000J0D01*
G01*
X203586900Y-128774600D01*
G75*
G02*
X203786900Y-128974600I0J-200000D01*
G01*
X203786900Y-129374600D01*
G75*
G02*
X203586900Y-129574600I-200000J0D01*
G01*
X202111900Y-129574600D01*
G75*
G02*
X201911900Y-129374600I0J200000D01*
G01*
G37*
G36*
G01*
X201911900Y-128724600D02*
X201911900Y-128324600D01*
G75*
G02*
X202111900Y-128124600I200000J0D01*
G01*
X203586900Y-128124600D01*
G75*
G02*
X203786900Y-128324600I0J-200000D01*
G01*
X203786900Y-128724600D01*
G75*
G02*
X203586900Y-128924600I-200000J0D01*
G01*
X202111900Y-128924600D01*
G75*
G02*
X201911900Y-128724600I0J200000D01*
G01*
G37*
G36*
G01*
X201911900Y-128074600D02*
X201911900Y-127674600D01*
G75*
G02*
X202111900Y-127474600I200000J0D01*
G01*
X203586900Y-127474600D01*
G75*
G02*
X203786900Y-127674600I0J-200000D01*
G01*
X203786900Y-128074600D01*
G75*
G02*
X203586900Y-128274600I-200000J0D01*
G01*
X202111900Y-128274600D01*
G75*
G02*
X201911900Y-128074600I0J200000D01*
G01*
G37*
G36*
G01*
X196400400Y-118626700D02*
X196400400Y-118126700D01*
G75*
G02*
X196650400Y-117876700I250000J0D01*
G01*
X198300400Y-117876700D01*
G75*
G02*
X198550400Y-118126700I0J-250000D01*
G01*
X198550400Y-118626700D01*
G75*
G02*
X198300400Y-118876700I-250000J0D01*
G01*
X196650400Y-118876700D01*
G75*
G02*
X196400400Y-118626700I0J250000D01*
G01*
G37*
G36*
G01*
X196400400Y-119896700D02*
X196400400Y-119396700D01*
G75*
G02*
X196650400Y-119146700I250000J0D01*
G01*
X198300400Y-119146700D01*
G75*
G02*
X198550400Y-119396700I0J-250000D01*
G01*
X198550400Y-119896700D01*
G75*
G02*
X198300400Y-120146700I-250000J0D01*
G01*
X196650400Y-120146700D01*
G75*
G02*
X196400400Y-119896700I0J250000D01*
G01*
G37*
G36*
G01*
X196400400Y-121166700D02*
X196400400Y-120666700D01*
G75*
G02*
X196650400Y-120416700I250000J0D01*
G01*
X198300400Y-120416700D01*
G75*
G02*
X198550400Y-120666700I0J-250000D01*
G01*
X198550400Y-121166700D01*
G75*
G02*
X198300400Y-121416700I-250000J0D01*
G01*
X196650400Y-121416700D01*
G75*
G02*
X196400400Y-121166700I0J250000D01*
G01*
G37*
G36*
G01*
X196400400Y-122436700D02*
X196400400Y-121936700D01*
G75*
G02*
X196650400Y-121686700I250000J0D01*
G01*
X198300400Y-121686700D01*
G75*
G02*
X198550400Y-121936700I0J-250000D01*
G01*
X198550400Y-122436700D01*
G75*
G02*
X198300400Y-122686700I-250000J0D01*
G01*
X196650400Y-122686700D01*
G75*
G02*
X196400400Y-122436700I0J250000D01*
G01*
G37*
G36*
G01*
X201550400Y-122436700D02*
X201550400Y-121936700D01*
G75*
G02*
X201800400Y-121686700I250000J0D01*
G01*
X203450400Y-121686700D01*
G75*
G02*
X203700400Y-121936700I0J-250000D01*
G01*
X203700400Y-122436700D01*
G75*
G02*
X203450400Y-122686700I-250000J0D01*
G01*
X201800400Y-122686700D01*
G75*
G02*
X201550400Y-122436700I0J250000D01*
G01*
G37*
G36*
G01*
X201550400Y-121166700D02*
X201550400Y-120666700D01*
G75*
G02*
X201800400Y-120416700I250000J0D01*
G01*
X203450400Y-120416700D01*
G75*
G02*
X203700400Y-120666700I0J-250000D01*
G01*
X203700400Y-121166700D01*
G75*
G02*
X203450400Y-121416700I-250000J0D01*
G01*
X201800400Y-121416700D01*
G75*
G02*
X201550400Y-121166700I0J250000D01*
G01*
G37*
G36*
G01*
X201550400Y-119896700D02*
X201550400Y-119396700D01*
G75*
G02*
X201800400Y-119146700I250000J0D01*
G01*
X203450400Y-119146700D01*
G75*
G02*
X203700400Y-119396700I0J-250000D01*
G01*
X203700400Y-119896700D01*
G75*
G02*
X203450400Y-120146700I-250000J0D01*
G01*
X201800400Y-120146700D01*
G75*
G02*
X201550400Y-119896700I0J250000D01*
G01*
G37*
G36*
G01*
X201550400Y-118626700D02*
X201550400Y-118126700D01*
G75*
G02*
X201800400Y-117876700I250000J0D01*
G01*
X203450400Y-117876700D01*
G75*
G02*
X203700400Y-118126700I0J-250000D01*
G01*
X203700400Y-118626700D01*
G75*
G02*
X203450400Y-118876700I-250000J0D01*
G01*
X201800400Y-118876700D01*
G75*
G02*
X201550400Y-118626700I0J250000D01*
G01*
G37*
G36*
G01*
X229840000Y-87200000D02*
X224760000Y-87200000D01*
G75*
G02*
X224560000Y-87000000I0J200000D01*
G01*
X224560000Y-85500000D01*
G75*
G02*
X224760000Y-85300000I200000J0D01*
G01*
X229840000Y-85300000D01*
G75*
G02*
X230040000Y-85500000I0J-200000D01*
G01*
X230040000Y-87000000D01*
G75*
G02*
X229840000Y-87200000I-200000J0D01*
G01*
G37*
G36*
G01*
X229840000Y-78700000D02*
X224760000Y-78700000D01*
G75*
G02*
X224560000Y-78500000I0J200000D01*
G01*
X224560000Y-77000000D01*
G75*
G02*
X224760000Y-76800000I200000J0D01*
G01*
X229840000Y-76800000D01*
G75*
G02*
X230040000Y-77000000I0J-200000D01*
G01*
X230040000Y-78500000D01*
G75*
G02*
X229840000Y-78700000I-200000J0D01*
G01*
G37*
G36*
G01*
X229840000Y-82950000D02*
X224760000Y-82950000D01*
G75*
G02*
X224560000Y-82750000I0J200000D01*
G01*
X224560000Y-81250000D01*
G75*
G02*
X224760000Y-81050000I200000J0D01*
G01*
X229840000Y-81050000D01*
G75*
G02*
X230040000Y-81250000I0J-200000D01*
G01*
X230040000Y-82750000D01*
G75*
G02*
X229840000Y-82950000I-200000J0D01*
G01*
G37*
G36*
G01*
X229840000Y-65950000D02*
X224760000Y-65950000D01*
G75*
G02*
X224560000Y-65750000I0J200000D01*
G01*
X224560000Y-64250000D01*
G75*
G02*
X224760000Y-64050000I200000J0D01*
G01*
X229840000Y-64050000D01*
G75*
G02*
X230040000Y-64250000I0J-200000D01*
G01*
X230040000Y-65750000D01*
G75*
G02*
X229840000Y-65950000I-200000J0D01*
G01*
G37*
G36*
G01*
X229840000Y-61700000D02*
X224760000Y-61700000D01*
G75*
G02*
X224560000Y-61500000I0J200000D01*
G01*
X224560000Y-60000000D01*
G75*
G02*
X224760000Y-59800000I200000J0D01*
G01*
X229840000Y-59800000D01*
G75*
G02*
X230040000Y-60000000I0J-200000D01*
G01*
X230040000Y-61500000D01*
G75*
G02*
X229840000Y-61700000I-200000J0D01*
G01*
G37*
G36*
G01*
X229840000Y-70200000D02*
X224760000Y-70200000D01*
G75*
G02*
X224560000Y-70000000I0J200000D01*
G01*
X224560000Y-68500000D01*
G75*
G02*
X224760000Y-68300000I200000J0D01*
G01*
X229840000Y-68300000D01*
G75*
G02*
X230040000Y-68500000I0J-200000D01*
G01*
X230040000Y-70000000D01*
G75*
G02*
X229840000Y-70200000I-200000J0D01*
G01*
G37*
G36*
G01*
X184106832Y-123723500D02*
X185590168Y-123723500D01*
G75*
G02*
X185923500Y-124056832I0J-333332D01*
G01*
X185923500Y-124990168D01*
G75*
G02*
X185590168Y-125323500I-333332J0D01*
G01*
X184106832Y-125323500D01*
G75*
G02*
X183773500Y-124990168I0J333332D01*
G01*
X183773500Y-124056832D01*
G75*
G02*
X184106832Y-123723500I333332J0D01*
G01*
G37*
D16*
X184848500Y-126523500D03*
X184848500Y-128523500D03*
X184848500Y-130523500D03*
G36*
G01*
X178326300Y-127632400D02*
X179026300Y-127632400D01*
G75*
G02*
X179351300Y-127957400I0J-325000D01*
G01*
X179351300Y-128607400D01*
G75*
G02*
X179026300Y-128932400I-325000J0D01*
G01*
X178326300Y-128932400D01*
G75*
G02*
X178001300Y-128607400I0J325000D01*
G01*
X178001300Y-127957400D01*
G75*
G02*
X178326300Y-127632400I325000J0D01*
G01*
G37*
G36*
G01*
X178326300Y-129182400D02*
X179026300Y-129182400D01*
G75*
G02*
X179351300Y-129507400I0J-325000D01*
G01*
X179351300Y-130157400D01*
G75*
G02*
X179026300Y-130482400I-325000J0D01*
G01*
X178326300Y-130482400D01*
G75*
G02*
X178001300Y-130157400I0J325000D01*
G01*
X178001300Y-129507400D01*
G75*
G02*
X178326300Y-129182400I325000J0D01*
G01*
G37*
M02*
