G04 #@! TF.GenerationSoftware,KiCad,Pcbnew,(5.1.5)-3*
G04 #@! TF.CreationDate,2020-12-04T17:06:53+01:00*
G04 #@! TF.ProjectId,PFD_HMC439QS16G,5046445f-484d-4433-9433-395153313647,1.1*
G04 #@! TF.SameCoordinates,Original*
G04 #@! TF.FileFunction,Profile,NP*
%FSLAX46Y46*%
G04 Gerber Fmt 4.6, Leading zero omitted, Abs format (unit mm)*
G04 Created by KiCad (PCBNEW (5.1.5)-3) date 2020-12-04 17:06:53*
%MOMM*%
%LPD*%
G04 APERTURE LIST*
%ADD10C,0.100000*%
G04 APERTURE END LIST*
D10*
X104400000Y-124050000D02*
X104400000Y-115150000D01*
X106900000Y-68550000D02*
X115900000Y-68550000D01*
X106900000Y-126550000D02*
G75*
G02X104400000Y-124050000I0J2500000D01*
G01*
X189900000Y-126550000D02*
X180900000Y-126550000D01*
X192400000Y-124050000D02*
G75*
G02X189900000Y-126550000I-2500000J0D01*
G01*
X104400000Y-71050000D02*
G75*
G02X106900000Y-68550000I2500000J0D01*
G01*
X173900000Y-125550000D02*
X173900000Y-126550000D01*
X122900000Y-68550000D02*
X144900000Y-68550000D01*
X145900000Y-70550000D02*
X150900000Y-70550000D01*
X189400000Y-68550000D02*
G75*
G02X192400000Y-71550000I0J-3000000D01*
G01*
X180900000Y-68550000D02*
X189400000Y-68550000D01*
X144700000Y-126550000D02*
X123250000Y-126550000D01*
X122250000Y-124550000D02*
X116750000Y-124550000D01*
X179900000Y-124550000D02*
X174900000Y-124550000D01*
X115750000Y-126550000D02*
X106900000Y-126550000D01*
X123250000Y-125550000D02*
X123250000Y-126550000D01*
X151200000Y-124550000D02*
G75*
G02X152200000Y-125550000I0J-1000000D01*
G01*
X144700000Y-125550000D02*
X144700000Y-126550000D01*
X173900000Y-126550000D02*
X152200000Y-126550000D01*
X151200000Y-124550000D02*
X145700000Y-124550000D01*
X144700000Y-125550000D02*
G75*
G02X145700000Y-124550000I1000000J0D01*
G01*
X115750000Y-125550000D02*
X115750000Y-126550000D01*
X179900000Y-124550000D02*
G75*
G02X180900000Y-125550000I0J-1000000D01*
G01*
X115750000Y-125550000D02*
G75*
G02X116750000Y-124550000I1000000J0D01*
G01*
X180900000Y-125550000D02*
X180900000Y-126550000D01*
X173900000Y-125550000D02*
G75*
G02X174900000Y-124550000I1000000J0D01*
G01*
X122250000Y-124550000D02*
G75*
G02X123250000Y-125550000I0J-1000000D01*
G01*
X152200000Y-125550000D02*
X152200000Y-126550000D01*
X96900000Y-107750000D02*
G75*
G02X94400000Y-105250000I0J2500000D01*
G01*
X104400000Y-71050000D02*
G75*
G02X96900000Y-78550000I-7500000J0D01*
G01*
X96900000Y-107749333D02*
G75*
G02X104400000Y-115150000I0J-7500667D01*
G01*
X151900000Y-69550000D02*
X151900000Y-68550000D01*
X145900000Y-70550000D02*
G75*
G02X144900000Y-69550000I0J1000000D01*
G01*
X174900000Y-70550000D02*
X179900000Y-70550000D01*
X116900000Y-70550000D02*
G75*
G02X115900000Y-69550000I0J1000000D01*
G01*
X115900000Y-69550000D02*
X115900000Y-68550000D01*
X122900000Y-69550000D02*
X122900000Y-68550000D01*
X151900000Y-68550000D02*
X173900000Y-68550000D01*
X151900000Y-69550000D02*
G75*
G02X150900000Y-70550000I-1000000J0D01*
G01*
X180900000Y-69550000D02*
X180900000Y-68550000D01*
X116900000Y-70550000D02*
X121900000Y-70550000D01*
X96400000Y-100300000D02*
G75*
G02X95400000Y-101300000I-1000000J0D01*
G01*
X174900000Y-70550000D02*
G75*
G02X173900000Y-69550000I0J1000000D01*
G01*
X94400000Y-81050000D02*
G75*
G02X96900000Y-78550000I2500000J0D01*
G01*
X180900000Y-69550000D02*
G75*
G02X179900000Y-70550000I-1000000J0D01*
G01*
X144900000Y-69550000D02*
X144900000Y-68550000D01*
X173900000Y-69550000D02*
X173900000Y-68550000D01*
X94400000Y-93800000D02*
X94400000Y-81050000D01*
X122900000Y-69550000D02*
G75*
G02X121900000Y-70550000I-1000000J0D01*
G01*
X95400000Y-93800000D02*
X94400000Y-93800000D01*
X95400000Y-93800000D02*
G75*
G02X96400000Y-94800000I0J-1000000D01*
G01*
X199900000Y-87350000D02*
G75*
G02X192400000Y-79850000I0J7500000D01*
G01*
X200400000Y-94750000D02*
G75*
G02X201400000Y-93750000I1000000J0D01*
G01*
X201400000Y-93750000D02*
X202400000Y-93750000D01*
X202400000Y-114050000D02*
G75*
G02X199900000Y-116550000I-2500000J0D01*
G01*
X202400000Y-114050000D02*
X202400000Y-101250000D01*
X202400000Y-93750000D02*
X202400000Y-89850000D01*
X201400000Y-101250000D02*
X202400000Y-101250000D01*
X192400000Y-79850000D02*
X192400000Y-71550000D01*
X95400000Y-101300000D02*
X94400000Y-101300000D01*
X200400000Y-94750000D02*
X200400000Y-100250000D01*
X94400000Y-101300000D02*
X94400000Y-105250000D01*
X201400000Y-101250000D02*
G75*
G02X200400000Y-100250000I0J1000000D01*
G01*
X96400000Y-100300000D02*
X96400000Y-94800000D01*
X199900000Y-87350000D02*
G75*
G02X202400000Y-89850000I0J-2500000D01*
G01*
X192400000Y-124050000D02*
G75*
G02X199900000Y-116550000I7500000J0D01*
G01*
M02*
