M48
; DRILL file {KiCad (5.1.5)-3} date 04.12.2020 17:06:56
; FORMAT={-:-/ absolute / metric / decimal}
; #@! TF.CreationDate,2020-12-04T17:06:56+01:00
; #@! TF.GenerationSoftware,Kicad,Pcbnew,(5.1.5)-3
; #@! TF.FileFunction,Plated,1,2,PTH
FMAT,2
METRIC
T1C0.300
T2C0.400
T3C0.600
T4C1.000
T5C1.500
T6C1.700
T7C4.300
%
G90
G05
T1
X117.5Y-103.5
X119.4Y-103.7
X123.6Y-81.4
X125.8Y-78.3
X125.8Y-79.5
X126.2Y-102.4
X126.7Y-88.7
X126.8Y-78.3
X126.8Y-79.5
X127.0Y-91.5
X127.75Y-79.5
X127.8Y-78.3
X129.7Y-84.6
X129.7Y-85.4
X129.75Y-116.75
X130.137Y-112.862
X130.2Y-108.9
X130.3Y-88.9
X130.7Y-84.6
X130.7Y-85.4
X131.7Y-84.6
X131.7Y-85.4
X133.5Y-94.75
X133.76Y-77.24
X133.76Y-78.24
X133.76Y-79.24
X135.5Y-96.75
X135.6Y-84.5
X135.6Y-85.3
X136.6Y-84.5
X136.6Y-85.3
X136.75Y-106.5
X137.6Y-84.5
X137.6Y-85.3
X138.0Y-89.8
X140.75Y-103.5
X140.8Y-82.0
X141.25Y-93.0
X142.25Y-101.0
X142.5Y-99.5
X143.887Y-102.362
X144.4Y-114.05
X148.112Y-98.637
X148.25Y-94.0
X149.25Y-101.75
X152.25Y-94.25
X152.25Y-98.25
X154.0Y-76.0
X154.0Y-78.0
X154.0Y-80.0
X154.0Y-82.0
X154.0Y-84.0
X154.0Y-86.0
X154.0Y-88.0
X154.0Y-90.0
X154.0Y-92.0
X154.0Y-94.0
X154.0Y-96.0
X154.0Y-98.0
X154.0Y-100.0
X154.0Y-101.5
X154.0Y-104.0
X154.0Y-106.0
X154.0Y-108.0
X154.0Y-110.0
X154.0Y-112.0
X154.0Y-114.0
X154.0Y-116.0
X154.0Y-118.0
X154.0Y-120.0
X154.0Y-122.0
X154.0Y-124.0
X155.5Y-76.0
X156.5Y-87.0
X157.0Y-76.0
X157.0Y-78.0
X157.0Y-80.0
X157.0Y-82.0
X157.0Y-84.0
X157.0Y-86.0
X157.0Y-88.0
X157.0Y-90.0
X157.0Y-92.0
X157.0Y-98.5
X157.0Y-99.75
X157.0Y-101.0
X157.0Y-108.0
X157.0Y-110.0
X157.0Y-112.0
X157.0Y-114.0
X157.0Y-116.0
X157.0Y-118.0
X157.0Y-120.0
X157.0Y-122.0
X157.0Y-124.0
X157.1Y-106.6
X158.0Y-98.5
X158.0Y-101.0
X158.5Y-96.3
X158.6Y-91.8
X159.0Y-86.0
X159.0Y-98.5
X159.0Y-101.4
X159.0Y-103.2
X159.0Y-114.0
X160.0Y-101.4
X160.0Y-103.2
X160.9Y-98.0
X160.9Y-99.0
X161.0Y-86.0
X161.0Y-103.2
X161.0Y-114.0
X161.1Y-101.4
X161.9Y-98.0
X161.9Y-99.0
X162.0Y-95.25
X162.9Y-98.0
X162.9Y-99.0
X163.0Y-86.0
X163.0Y-95.25
X163.0Y-101.0
X163.0Y-114.0
X163.9Y-98.0
X163.9Y-99.0
X164.0Y-95.25
X164.0Y-101.0
X164.1Y-103.1
X164.1Y-104.1
X164.9Y-99.0
X165.0Y-86.0
X165.0Y-101.0
X165.0Y-114.0
X167.0Y-86.0
X167.0Y-94.0
X167.0Y-95.0
X167.0Y-96.0
X167.0Y-103.0
X167.0Y-104.0
X167.0Y-114.0
X168.0Y-94.0
X168.0Y-95.0
X168.0Y-96.0
X168.0Y-103.0
X168.0Y-104.0
X169.0Y-86.0
X169.0Y-94.0
X169.0Y-95.0
X169.0Y-96.0
X169.0Y-97.0
X169.0Y-98.0
X169.0Y-102.0
X169.0Y-103.0
X169.0Y-104.0
X169.0Y-114.0
X170.0Y-94.0
X170.0Y-95.0
X170.0Y-96.0
X170.0Y-97.0
X170.0Y-98.0
X170.0Y-99.7
X170.0Y-102.0
X170.0Y-103.0
X170.0Y-104.0
X171.0Y-86.0
X171.0Y-94.0
X171.0Y-95.0
X171.0Y-96.0
X171.0Y-97.0
X171.0Y-98.0
X171.0Y-102.0
X171.0Y-103.0
X171.0Y-104.0
X171.0Y-114.0
X172.0Y-94.0
X172.0Y-95.0
X172.0Y-96.0
X173.0Y-86.0
X173.0Y-114.0
X174.0Y-102.0
X174.5Y-93.1
X174.8Y-98.8
X175.0Y-86.0
X175.0Y-101.0
X175.0Y-103.0
X175.0Y-114.0
X176.0Y-95.7
X176.0Y-98.0
X176.0Y-102.0
X176.0Y-104.0
X177.0Y-86.0
X177.0Y-94.7
X177.0Y-97.0
X177.0Y-103.0
X177.0Y-105.0
X177.0Y-114.0
X177.8Y-100.0
X178.0Y-93.7
X178.0Y-96.0
X178.0Y-104.0
X178.0Y-106.0
X179.0Y-86.0
X179.0Y-92.7
X179.0Y-95.0
X179.0Y-105.0
X179.0Y-107.0
X179.0Y-114.0
X180.0Y-91.7
X180.0Y-94.0
X180.0Y-106.0
X180.0Y-108.0
X181.0Y-86.0
X181.0Y-90.8
X181.0Y-93.0
X181.0Y-106.0
X181.0Y-108.0
X181.0Y-114.0
X182.0Y-90.8
X182.0Y-93.0
X182.0Y-106.0
X182.0Y-108.0
X183.0Y-86.0
X183.0Y-90.8
X183.0Y-93.0
X183.0Y-106.0
X183.0Y-108.0
X183.0Y-114.0
X184.0Y-90.8
X184.0Y-93.0
X184.0Y-106.0
X184.0Y-108.0
X185.0Y-86.0
X185.0Y-114.0
X187.0Y-86.0
X187.0Y-114.0
X189.0Y-86.0
X189.0Y-114.0
X191.0Y-86.0
X191.0Y-114.0
X193.0Y-86.0
X193.0Y-88.0
X193.0Y-90.0
X193.0Y-92.0
X193.0Y-94.0
X193.0Y-96.0
X193.0Y-98.0
X193.0Y-100.0
X193.0Y-102.0
X193.0Y-104.0
X193.0Y-106.0
X193.0Y-108.0
X193.0Y-110.0
X193.0Y-112.0
X193.0Y-114.0
T2
X143.1Y-106.3
X144.2Y-105.2
X144.9Y-97.5
X145.2Y-104.0
X145.5Y-99.5
X159.85Y-100.05
X159.9Y-94.5
X164.95Y-111.8
T3
X184.475Y-73.5
X185.42Y-71.22
X185.42Y-75.78
X187.7Y-70.275
X187.7Y-76.725
X189.98Y-71.22
X189.98Y-75.78
X190.925Y-73.5
X106.175Y-121.5
X107.12Y-119.22
X107.12Y-123.78
X109.4Y-118.275
X109.4Y-124.725
X111.68Y-119.22
X111.68Y-123.78
X112.625Y-121.5
X106.175Y-73.5
X107.12Y-71.22
X107.12Y-75.78
X109.4Y-70.275
X109.4Y-76.725
X111.68Y-71.22
X111.68Y-75.78
X112.625Y-73.5
X184.175Y-121.6
X185.12Y-119.32
X185.12Y-123.88
X187.4Y-118.375
X187.4Y-124.825
X189.68Y-119.32
X189.68Y-123.88
X190.625Y-121.6
T4
X139.71Y-115.87
X142.25Y-108.25
X142.25Y-120.95
X131.22Y-75.5
X133.76Y-75.5
X136.3Y-75.5
T5
X188.2Y-106.9
X111.8Y-106.9
X188.2Y-91.8
X111.75Y-91.8
T6
X185.66Y-104.36
X185.66Y-109.44
X190.74Y-104.36
X190.74Y-109.44
X109.26Y-104.36
X109.26Y-109.44
X114.34Y-104.36
X114.34Y-109.44
X185.66Y-89.26
X185.66Y-94.34
X190.74Y-89.26
X190.74Y-94.34
X109.21Y-89.26
X109.21Y-94.34
X114.29Y-89.26
X114.29Y-94.34
T7
X109.4Y-121.5
X109.4Y-73.5
X187.4Y-121.6
X187.7Y-73.5
T0
M30
