G04 #@! TF.GenerationSoftware,KiCad,Pcbnew,(6.0.1)*
G04 #@! TF.CreationDate,2022-01-25T10:24:49+01:00*
G04 #@! TF.ProjectId,PFD_HMC439QS16G,5046445f-484d-4433-9433-395153313647,1.4*
G04 #@! TF.SameCoordinates,Original*
G04 #@! TF.FileFunction,Legend,Bot*
G04 #@! TF.FilePolarity,Positive*
%FSLAX46Y46*%
G04 Gerber Fmt 4.6, Leading zero omitted, Abs format (unit mm)*
G04 Created by KiCad (PCBNEW (6.0.1)) date 2022-01-25 10:24:49*
%MOMM*%
%LPD*%
G01*
G04 APERTURE LIST*
%ADD10C,0.010000*%
G04 APERTURE END LIST*
D10*
X181922102Y-145006457D02*
X181889904Y-145014279D01*
X181889904Y-145014279D02*
X181828175Y-145042921D01*
X181828175Y-145042921D02*
X181775390Y-145086667D01*
X181775390Y-145086667D02*
X181738859Y-145139117D01*
X181738859Y-145139117D02*
X181733840Y-145150893D01*
X181733840Y-145150893D02*
X181726955Y-145181740D01*
X181726955Y-145181740D02*
X181722136Y-145227371D01*
X181722136Y-145227371D02*
X181720495Y-145273492D01*
X181720495Y-145273492D02*
X181720495Y-145360693D01*
X181720495Y-145360693D02*
X181902822Y-145360693D01*
X181902822Y-145360693D02*
X181978021Y-145360978D01*
X181978021Y-145360978D02*
X182030997Y-145362704D01*
X182030997Y-145362704D02*
X182064675Y-145367181D01*
X182064675Y-145367181D02*
X182081980Y-145375720D01*
X182081980Y-145375720D02*
X182085837Y-145389630D01*
X182085837Y-145389630D02*
X182079171Y-145410222D01*
X182079171Y-145410222D02*
X182067230Y-145434315D01*
X182067230Y-145434315D02*
X182033920Y-145474525D01*
X182033920Y-145474525D02*
X181987632Y-145494558D01*
X181987632Y-145494558D02*
X181931056Y-145493905D01*
X181931056Y-145493905D02*
X181866969Y-145472101D01*
X181866969Y-145472101D02*
X181811583Y-145445193D01*
X181811583Y-145445193D02*
X181765625Y-145481532D01*
X181765625Y-145481532D02*
X181719667Y-145517872D01*
X181719667Y-145517872D02*
X181762904Y-145557819D01*
X181762904Y-145557819D02*
X181820626Y-145595563D01*
X181820626Y-145595563D02*
X181891614Y-145618320D01*
X181891614Y-145618320D02*
X181967971Y-145624688D01*
X181967971Y-145624688D02*
X182041801Y-145613268D01*
X182041801Y-145613268D02*
X182053713Y-145609393D01*
X182053713Y-145609393D02*
X182118601Y-145575506D01*
X182118601Y-145575506D02*
X182166870Y-145524986D01*
X182166870Y-145524986D02*
X182199535Y-145456325D01*
X182199535Y-145456325D02*
X182217615Y-145368014D01*
X182217615Y-145368014D02*
X182217825Y-145366121D01*
X182217825Y-145366121D02*
X182219444Y-145269878D01*
X182219444Y-145269878D02*
X182212900Y-145235542D01*
X182212900Y-145235542D02*
X182085148Y-145235542D01*
X182085148Y-145235542D02*
X182073416Y-145240822D01*
X182073416Y-145240822D02*
X182041562Y-145244867D01*
X182041562Y-145244867D02*
X181994603Y-145247176D01*
X181994603Y-145247176D02*
X181964846Y-145247525D01*
X181964846Y-145247525D02*
X181909352Y-145247306D01*
X181909352Y-145247306D02*
X181874654Y-145245916D01*
X181874654Y-145245916D02*
X181856399Y-145242251D01*
X181856399Y-145242251D02*
X181850234Y-145235210D01*
X181850234Y-145235210D02*
X181851805Y-145223690D01*
X181851805Y-145223690D02*
X181853122Y-145219233D01*
X181853122Y-145219233D02*
X181875618Y-145177355D01*
X181875618Y-145177355D02*
X181910997Y-145143604D01*
X181910997Y-145143604D02*
X181942220Y-145128773D01*
X181942220Y-145128773D02*
X181983699Y-145129668D01*
X181983699Y-145129668D02*
X182025731Y-145148164D01*
X182025731Y-145148164D02*
X182060988Y-145178786D01*
X182060988Y-145178786D02*
X182082146Y-145216062D01*
X182082146Y-145216062D02*
X182085148Y-145235542D01*
X182085148Y-145235542D02*
X182212900Y-145235542D01*
X182212900Y-145235542D02*
X182203310Y-145185229D01*
X182203310Y-145185229D02*
X182171302Y-145114191D01*
X182171302Y-145114191D02*
X182125299Y-145058779D01*
X182125299Y-145058779D02*
X182067179Y-145021009D01*
X182067179Y-145021009D02*
X181998820Y-145002896D01*
X181998820Y-145002896D02*
X181922102Y-145006457D01*
X181922102Y-145006457D02*
X181922102Y-145006457D01*
G36*
X182217825Y-145366121D02*
G01*
X182217615Y-145368014D01*
X182199535Y-145456325D01*
X182166870Y-145524986D01*
X182118601Y-145575506D01*
X182053713Y-145609393D01*
X182041801Y-145613268D01*
X181967971Y-145624688D01*
X181891614Y-145618320D01*
X181820626Y-145595563D01*
X181762904Y-145557819D01*
X181719667Y-145517872D01*
X181765625Y-145481532D01*
X181811583Y-145445193D01*
X181866969Y-145472101D01*
X181931056Y-145493905D01*
X181987632Y-145494558D01*
X182033920Y-145474525D01*
X182067230Y-145434315D01*
X182079171Y-145410222D01*
X182085837Y-145389630D01*
X182081980Y-145375720D01*
X182064675Y-145367181D01*
X182030997Y-145362704D01*
X181978021Y-145360978D01*
X181902822Y-145360693D01*
X181720495Y-145360693D01*
X181720495Y-145273492D01*
X181721857Y-145235210D01*
X181850234Y-145235210D01*
X181856399Y-145242251D01*
X181874654Y-145245916D01*
X181909352Y-145247306D01*
X181964846Y-145247525D01*
X181994603Y-145247176D01*
X182041562Y-145244867D01*
X182073416Y-145240822D01*
X182085148Y-145235542D01*
X182082146Y-145216062D01*
X182060988Y-145178786D01*
X182025731Y-145148164D01*
X181983699Y-145129668D01*
X181942220Y-145128773D01*
X181910997Y-145143604D01*
X181875618Y-145177355D01*
X181853122Y-145219233D01*
X181851805Y-145223690D01*
X181850234Y-145235210D01*
X181721857Y-145235210D01*
X181722136Y-145227371D01*
X181726955Y-145181740D01*
X181733840Y-145150893D01*
X181738859Y-145139117D01*
X181775390Y-145086667D01*
X181828175Y-145042921D01*
X181889904Y-145014279D01*
X181922102Y-145006457D01*
X181998820Y-145002896D01*
X182067179Y-145021009D01*
X182125299Y-145058779D01*
X182171302Y-145114191D01*
X182203310Y-145185229D01*
X182212900Y-145235542D01*
X182219444Y-145269878D01*
X182217825Y-145366121D01*
G37*
X182217825Y-145366121D02*
X182217615Y-145368014D01*
X182199535Y-145456325D01*
X182166870Y-145524986D01*
X182118601Y-145575506D01*
X182053713Y-145609393D01*
X182041801Y-145613268D01*
X181967971Y-145624688D01*
X181891614Y-145618320D01*
X181820626Y-145595563D01*
X181762904Y-145557819D01*
X181719667Y-145517872D01*
X181765625Y-145481532D01*
X181811583Y-145445193D01*
X181866969Y-145472101D01*
X181931056Y-145493905D01*
X181987632Y-145494558D01*
X182033920Y-145474525D01*
X182067230Y-145434315D01*
X182079171Y-145410222D01*
X182085837Y-145389630D01*
X182081980Y-145375720D01*
X182064675Y-145367181D01*
X182030997Y-145362704D01*
X181978021Y-145360978D01*
X181902822Y-145360693D01*
X181720495Y-145360693D01*
X181720495Y-145273492D01*
X181721857Y-145235210D01*
X181850234Y-145235210D01*
X181856399Y-145242251D01*
X181874654Y-145245916D01*
X181909352Y-145247306D01*
X181964846Y-145247525D01*
X181994603Y-145247176D01*
X182041562Y-145244867D01*
X182073416Y-145240822D01*
X182085148Y-145235542D01*
X182082146Y-145216062D01*
X182060988Y-145178786D01*
X182025731Y-145148164D01*
X181983699Y-145129668D01*
X181942220Y-145128773D01*
X181910997Y-145143604D01*
X181875618Y-145177355D01*
X181853122Y-145219233D01*
X181851805Y-145223690D01*
X181850234Y-145235210D01*
X181721857Y-145235210D01*
X181722136Y-145227371D01*
X181726955Y-145181740D01*
X181733840Y-145150893D01*
X181738859Y-145139117D01*
X181775390Y-145086667D01*
X181828175Y-145042921D01*
X181889904Y-145014279D01*
X181922102Y-145006457D01*
X181998820Y-145002896D01*
X182067179Y-145021009D01*
X182125299Y-145058779D01*
X182171302Y-145114191D01*
X182203310Y-145185229D01*
X182212900Y-145235542D01*
X182219444Y-145269878D01*
X182217825Y-145366121D01*
X182382774Y-145013880D02*
X182309920Y-145044830D01*
X182309920Y-145044830D02*
X182286973Y-145059895D01*
X182286973Y-145059895D02*
X182257646Y-145083048D01*
X182257646Y-145083048D02*
X182239236Y-145101253D01*
X182239236Y-145101253D02*
X182236039Y-145107183D01*
X182236039Y-145107183D02*
X182245065Y-145120340D01*
X182245065Y-145120340D02*
X182268163Y-145142667D01*
X182268163Y-145142667D02*
X182286656Y-145158250D01*
X182286656Y-145158250D02*
X182337272Y-145198926D01*
X182337272Y-145198926D02*
X182377240Y-145165295D01*
X182377240Y-145165295D02*
X182408126Y-145143584D01*
X182408126Y-145143584D02*
X182438241Y-145136090D01*
X182438241Y-145136090D02*
X182472708Y-145137920D01*
X182472708Y-145137920D02*
X182527439Y-145151528D01*
X182527439Y-145151528D02*
X182565114Y-145179772D01*
X182565114Y-145179772D02*
X182588009Y-145225433D01*
X182588009Y-145225433D02*
X182598403Y-145291289D01*
X182598403Y-145291289D02*
X182598405Y-145291331D01*
X182598405Y-145291331D02*
X182597506Y-145364939D01*
X182597506Y-145364939D02*
X182583537Y-145418946D01*
X182583537Y-145418946D02*
X182555672Y-145455716D01*
X182555672Y-145455716D02*
X182536675Y-145468168D01*
X182536675Y-145468168D02*
X182486224Y-145483673D01*
X182486224Y-145483673D02*
X182432337Y-145483683D01*
X182432337Y-145483683D02*
X182385454Y-145468638D01*
X182385454Y-145468638D02*
X182374356Y-145461287D01*
X182374356Y-145461287D02*
X182346524Y-145442511D01*
X182346524Y-145442511D02*
X182324764Y-145439434D01*
X182324764Y-145439434D02*
X182301296Y-145453409D01*
X182301296Y-145453409D02*
X182275351Y-145478510D01*
X182275351Y-145478510D02*
X182234284Y-145520880D01*
X182234284Y-145520880D02*
X182279879Y-145558464D01*
X182279879Y-145558464D02*
X182350326Y-145600882D01*
X182350326Y-145600882D02*
X182429767Y-145621785D01*
X182429767Y-145621785D02*
X182512785Y-145620272D01*
X182512785Y-145620272D02*
X182567306Y-145606411D01*
X182567306Y-145606411D02*
X182631030Y-145572135D01*
X182631030Y-145572135D02*
X182681995Y-145518212D01*
X182681995Y-145518212D02*
X182705149Y-145480149D01*
X182705149Y-145480149D02*
X182723901Y-145425536D01*
X182723901Y-145425536D02*
X182733285Y-145356369D01*
X182733285Y-145356369D02*
X182733357Y-145281407D01*
X182733357Y-145281407D02*
X182724176Y-145209409D01*
X182724176Y-145209409D02*
X182705801Y-145149137D01*
X182705801Y-145149137D02*
X182702907Y-145142958D01*
X182702907Y-145142958D02*
X182660048Y-145082351D01*
X182660048Y-145082351D02*
X182602021Y-145038224D01*
X182602021Y-145038224D02*
X182533409Y-145011493D01*
X182533409Y-145011493D02*
X182458799Y-145003073D01*
X182458799Y-145003073D02*
X182382774Y-145013880D01*
X182382774Y-145013880D02*
X182382774Y-145013880D01*
G36*
X182533409Y-145011493D02*
G01*
X182602021Y-145038224D01*
X182660048Y-145082351D01*
X182702907Y-145142958D01*
X182705801Y-145149137D01*
X182724176Y-145209409D01*
X182733357Y-145281407D01*
X182733285Y-145356369D01*
X182723901Y-145425536D01*
X182705149Y-145480149D01*
X182681995Y-145518212D01*
X182631030Y-145572135D01*
X182567306Y-145606411D01*
X182512785Y-145620272D01*
X182429767Y-145621785D01*
X182350326Y-145600882D01*
X182279879Y-145558464D01*
X182234284Y-145520880D01*
X182275351Y-145478510D01*
X182301296Y-145453409D01*
X182324764Y-145439434D01*
X182346524Y-145442511D01*
X182374356Y-145461287D01*
X182385454Y-145468638D01*
X182432337Y-145483683D01*
X182486224Y-145483673D01*
X182536675Y-145468168D01*
X182555672Y-145455716D01*
X182583537Y-145418946D01*
X182597506Y-145364939D01*
X182598405Y-145291331D01*
X182598403Y-145291289D01*
X182588009Y-145225433D01*
X182565114Y-145179772D01*
X182527439Y-145151528D01*
X182472708Y-145137920D01*
X182438241Y-145136090D01*
X182408126Y-145143584D01*
X182377240Y-145165295D01*
X182337272Y-145198926D01*
X182286656Y-145158250D01*
X182268163Y-145142667D01*
X182245065Y-145120340D01*
X182236039Y-145107183D01*
X182239236Y-145101253D01*
X182257646Y-145083048D01*
X182286973Y-145059895D01*
X182309920Y-145044830D01*
X182382774Y-145013880D01*
X182458799Y-145003073D01*
X182533409Y-145011493D01*
G37*
X182533409Y-145011493D02*
X182602021Y-145038224D01*
X182660048Y-145082351D01*
X182702907Y-145142958D01*
X182705801Y-145149137D01*
X182724176Y-145209409D01*
X182733357Y-145281407D01*
X182733285Y-145356369D01*
X182723901Y-145425536D01*
X182705149Y-145480149D01*
X182681995Y-145518212D01*
X182631030Y-145572135D01*
X182567306Y-145606411D01*
X182512785Y-145620272D01*
X182429767Y-145621785D01*
X182350326Y-145600882D01*
X182279879Y-145558464D01*
X182234284Y-145520880D01*
X182275351Y-145478510D01*
X182301296Y-145453409D01*
X182324764Y-145439434D01*
X182346524Y-145442511D01*
X182374356Y-145461287D01*
X182385454Y-145468638D01*
X182432337Y-145483683D01*
X182486224Y-145483673D01*
X182536675Y-145468168D01*
X182555672Y-145455716D01*
X182583537Y-145418946D01*
X182597506Y-145364939D01*
X182598405Y-145291331D01*
X182598403Y-145291289D01*
X182588009Y-145225433D01*
X182565114Y-145179772D01*
X182527439Y-145151528D01*
X182472708Y-145137920D01*
X182438241Y-145136090D01*
X182408126Y-145143584D01*
X182377240Y-145165295D01*
X182337272Y-145198926D01*
X182286656Y-145158250D01*
X182268163Y-145142667D01*
X182245065Y-145120340D01*
X182236039Y-145107183D01*
X182239236Y-145101253D01*
X182257646Y-145083048D01*
X182286973Y-145059895D01*
X182309920Y-145044830D01*
X182382774Y-145013880D01*
X182458799Y-145003073D01*
X182533409Y-145011493D01*
X184223036Y-140840018D02*
X184166188Y-141141570D01*
X184166188Y-141141570D02*
X183746662Y-141314512D01*
X183746662Y-141314512D02*
X183495016Y-141143395D01*
X183495016Y-141143395D02*
X183424542Y-141095750D01*
X183424542Y-141095750D02*
X183360837Y-141053210D01*
X183360837Y-141053210D02*
X183306874Y-141017715D01*
X183306874Y-141017715D02*
X183265627Y-140991210D01*
X183265627Y-140991210D02*
X183240066Y-140975636D01*
X183240066Y-140975636D02*
X183233105Y-140972278D01*
X183233105Y-140972278D02*
X183220565Y-140980914D01*
X183220565Y-140980914D02*
X183193769Y-141004792D01*
X183193769Y-141004792D02*
X183155720Y-141040859D01*
X183155720Y-141040859D02*
X183109421Y-141086067D01*
X183109421Y-141086067D02*
X183057877Y-141137364D01*
X183057877Y-141137364D02*
X183004091Y-141191701D01*
X183004091Y-141191701D02*
X182951065Y-141246028D01*
X182951065Y-141246028D02*
X182901805Y-141297295D01*
X182901805Y-141297295D02*
X182859313Y-141342451D01*
X182859313Y-141342451D02*
X182826593Y-141378446D01*
X182826593Y-141378446D02*
X182806649Y-141402230D01*
X182806649Y-141402230D02*
X182801881Y-141410190D01*
X182801881Y-141410190D02*
X182808743Y-141424865D01*
X182808743Y-141424865D02*
X182827980Y-141457014D01*
X182827980Y-141457014D02*
X182857570Y-141503492D01*
X182857570Y-141503492D02*
X182895490Y-141561156D01*
X182895490Y-141561156D02*
X182939718Y-141626860D01*
X182939718Y-141626860D02*
X182965346Y-141664336D01*
X182965346Y-141664336D02*
X183012059Y-141732768D01*
X183012059Y-141732768D02*
X183053568Y-141794520D01*
X183053568Y-141794520D02*
X183087860Y-141846519D01*
X183087860Y-141846519D02*
X183112920Y-141885692D01*
X183112920Y-141885692D02*
X183126736Y-141908965D01*
X183126736Y-141908965D02*
X183128812Y-141913855D01*
X183128812Y-141913855D02*
X183124105Y-141927755D01*
X183124105Y-141927755D02*
X183111277Y-141960150D01*
X183111277Y-141960150D02*
X183092262Y-142006485D01*
X183092262Y-142006485D02*
X183068997Y-142062206D01*
X183068997Y-142062206D02*
X183043416Y-142122758D01*
X183043416Y-142122758D02*
X183017455Y-142183586D01*
X183017455Y-142183586D02*
X182993050Y-142240136D01*
X182993050Y-142240136D02*
X182972137Y-142287852D01*
X182972137Y-142287852D02*
X182956651Y-142322181D01*
X182956651Y-142322181D02*
X182948528Y-142338568D01*
X182948528Y-142338568D02*
X182948048Y-142339212D01*
X182948048Y-142339212D02*
X182935293Y-142342341D01*
X182935293Y-142342341D02*
X182901323Y-142349321D01*
X182901323Y-142349321D02*
X182849660Y-142359467D01*
X182849660Y-142359467D02*
X182783824Y-142372092D01*
X182783824Y-142372092D02*
X182707336Y-142386509D01*
X182707336Y-142386509D02*
X182662710Y-142394823D01*
X182662710Y-142394823D02*
X182580979Y-142410384D01*
X182580979Y-142410384D02*
X182507157Y-142425192D01*
X182507157Y-142425192D02*
X182444979Y-142438436D01*
X182444979Y-142438436D02*
X182398178Y-142449305D01*
X182398178Y-142449305D02*
X182370491Y-142456989D01*
X182370491Y-142456989D02*
X182364926Y-142459427D01*
X182364926Y-142459427D02*
X182359474Y-142475930D01*
X182359474Y-142475930D02*
X182355076Y-142513200D01*
X182355076Y-142513200D02*
X182351728Y-142566880D01*
X182351728Y-142566880D02*
X182349426Y-142632612D01*
X182349426Y-142632612D02*
X182348168Y-142706037D01*
X182348168Y-142706037D02*
X182347952Y-142782796D01*
X182347952Y-142782796D02*
X182348773Y-142858532D01*
X182348773Y-142858532D02*
X182350629Y-142928886D01*
X182350629Y-142928886D02*
X182353518Y-142989500D01*
X182353518Y-142989500D02*
X182357435Y-143036016D01*
X182357435Y-143036016D02*
X182362378Y-143064075D01*
X182362378Y-143064075D02*
X182365343Y-143069916D01*
X182365343Y-143069916D02*
X182383066Y-143076917D01*
X182383066Y-143076917D02*
X182420619Y-143086927D01*
X182420619Y-143086927D02*
X182473036Y-143098769D01*
X182473036Y-143098769D02*
X182535348Y-143111267D01*
X182535348Y-143111267D02*
X182557100Y-143115310D01*
X182557100Y-143115310D02*
X182661976Y-143134520D01*
X182661976Y-143134520D02*
X182744820Y-143149991D01*
X182744820Y-143149991D02*
X182808370Y-143162337D01*
X182808370Y-143162337D02*
X182855363Y-143172173D01*
X182855363Y-143172173D02*
X182888537Y-143180114D01*
X182888537Y-143180114D02*
X182910629Y-143186776D01*
X182910629Y-143186776D02*
X182924376Y-143192773D01*
X182924376Y-143192773D02*
X182932516Y-143198719D01*
X182932516Y-143198719D02*
X182933655Y-143199894D01*
X182933655Y-143199894D02*
X182945023Y-143218826D01*
X182945023Y-143218826D02*
X182962365Y-143255669D01*
X182962365Y-143255669D02*
X182983950Y-143305913D01*
X182983950Y-143305913D02*
X183008046Y-143365046D01*
X183008046Y-143365046D02*
X183032921Y-143428556D01*
X183032921Y-143428556D02*
X183056843Y-143491932D01*
X183056843Y-143491932D02*
X183078081Y-143550662D01*
X183078081Y-143550662D02*
X183094903Y-143600235D01*
X183094903Y-143600235D02*
X183105578Y-143636139D01*
X183105578Y-143636139D02*
X183108373Y-143653862D01*
X183108373Y-143653862D02*
X183108140Y-143654483D01*
X183108140Y-143654483D02*
X183098669Y-143668970D01*
X183098669Y-143668970D02*
X183077182Y-143700844D01*
X183077182Y-143700844D02*
X183045937Y-143746789D01*
X183045937Y-143746789D02*
X183007193Y-143803485D01*
X183007193Y-143803485D02*
X182963207Y-143867617D01*
X182963207Y-143867617D02*
X182950681Y-143885842D01*
X182950681Y-143885842D02*
X182906016Y-143951914D01*
X182906016Y-143951914D02*
X182866712Y-144012200D01*
X182866712Y-144012200D02*
X182834912Y-144063235D01*
X182834912Y-144063235D02*
X182812755Y-144101560D01*
X182812755Y-144101560D02*
X182802383Y-144123711D01*
X182802383Y-144123711D02*
X182801881Y-144126432D01*
X182801881Y-144126432D02*
X182810595Y-144140736D01*
X182810595Y-144140736D02*
X182834675Y-144169072D01*
X182834675Y-144169072D02*
X182871024Y-144208396D01*
X182871024Y-144208396D02*
X182916547Y-144255661D01*
X182916547Y-144255661D02*
X182968148Y-144307823D01*
X182968148Y-144307823D02*
X183022733Y-144361835D01*
X183022733Y-144361835D02*
X183077206Y-144414653D01*
X183077206Y-144414653D02*
X183128471Y-144463231D01*
X183128471Y-144463231D02*
X183173433Y-144504523D01*
X183173433Y-144504523D02*
X183208996Y-144535485D01*
X183208996Y-144535485D02*
X183232065Y-144553070D01*
X183232065Y-144553070D02*
X183238446Y-144555941D01*
X183238446Y-144555941D02*
X183253301Y-144549178D01*
X183253301Y-144549178D02*
X183283714Y-144530939D01*
X183283714Y-144530939D02*
X183324732Y-144504297D01*
X183324732Y-144504297D02*
X183356291Y-144482852D01*
X183356291Y-144482852D02*
X183413475Y-144443503D01*
X183413475Y-144443503D02*
X183481194Y-144397171D01*
X183481194Y-144397171D02*
X183549120Y-144350913D01*
X183549120Y-144350913D02*
X183585639Y-144326155D01*
X183585639Y-144326155D02*
X183709248Y-144242547D01*
X183709248Y-144242547D02*
X183813009Y-144298650D01*
X183813009Y-144298650D02*
X183860280Y-144323228D01*
X183860280Y-144323228D02*
X183900477Y-144342331D01*
X183900477Y-144342331D02*
X183927674Y-144353227D01*
X183927674Y-144353227D02*
X183934598Y-144354743D01*
X183934598Y-144354743D02*
X183942923Y-144343549D01*
X183942923Y-144343549D02*
X183959346Y-144311917D01*
X183959346Y-144311917D02*
X183982643Y-144262765D01*
X183982643Y-144262765D02*
X184011586Y-144199010D01*
X184011586Y-144199010D02*
X184044950Y-144123571D01*
X184044950Y-144123571D02*
X184081509Y-144039364D01*
X184081509Y-144039364D02*
X184120036Y-143949308D01*
X184120036Y-143949308D02*
X184159306Y-143856321D01*
X184159306Y-143856321D02*
X184198092Y-143763320D01*
X184198092Y-143763320D02*
X184235170Y-143673223D01*
X184235170Y-143673223D02*
X184269311Y-143588948D01*
X184269311Y-143588948D02*
X184299292Y-143513413D01*
X184299292Y-143513413D02*
X184323884Y-143449534D01*
X184323884Y-143449534D02*
X184341864Y-143400231D01*
X184341864Y-143400231D02*
X184352003Y-143368421D01*
X184352003Y-143368421D02*
X184353634Y-143357496D01*
X184353634Y-143357496D02*
X184340709Y-143343561D01*
X184340709Y-143343561D02*
X184312411Y-143320940D01*
X184312411Y-143320940D02*
X184274654Y-143294333D01*
X184274654Y-143294333D02*
X184271485Y-143292228D01*
X184271485Y-143292228D02*
X184173900Y-143214114D01*
X184173900Y-143214114D02*
X184095214Y-143122982D01*
X184095214Y-143122982D02*
X184036109Y-143021745D01*
X184036109Y-143021745D02*
X183997268Y-142913318D01*
X183997268Y-142913318D02*
X183979372Y-142800614D01*
X183979372Y-142800614D02*
X183983103Y-142686548D01*
X183983103Y-142686548D02*
X184009143Y-142574034D01*
X184009143Y-142574034D02*
X184058175Y-142465985D01*
X184058175Y-142465985D02*
X184072600Y-142442345D01*
X184072600Y-142442345D02*
X184147631Y-142346887D01*
X184147631Y-142346887D02*
X184236270Y-142270232D01*
X184236270Y-142270232D02*
X184335451Y-142212780D01*
X184335451Y-142212780D02*
X184442105Y-142174929D01*
X184442105Y-142174929D02*
X184553164Y-142157078D01*
X184553164Y-142157078D02*
X184665561Y-142159625D01*
X184665561Y-142159625D02*
X184776227Y-142182970D01*
X184776227Y-142182970D02*
X184882094Y-142227510D01*
X184882094Y-142227510D02*
X184980095Y-142293645D01*
X184980095Y-142293645D02*
X185010410Y-142320487D01*
X185010410Y-142320487D02*
X185087562Y-142404512D01*
X185087562Y-142404512D02*
X185143782Y-142492966D01*
X185143782Y-142492966D02*
X185182347Y-142592115D01*
X185182347Y-142592115D02*
X185203826Y-142690303D01*
X185203826Y-142690303D02*
X185209128Y-142800697D01*
X185209128Y-142800697D02*
X185191448Y-142911640D01*
X185191448Y-142911640D02*
X185152581Y-143019381D01*
X185152581Y-143019381D02*
X185094323Y-143120169D01*
X185094323Y-143120169D02*
X185018469Y-143210256D01*
X185018469Y-143210256D02*
X184926817Y-143285892D01*
X184926817Y-143285892D02*
X184914772Y-143293864D01*
X184914772Y-143293864D02*
X184876611Y-143319974D01*
X184876611Y-143319974D02*
X184847601Y-143342595D01*
X184847601Y-143342595D02*
X184833732Y-143357039D01*
X184833732Y-143357039D02*
X184833531Y-143357496D01*
X184833531Y-143357496D02*
X184836508Y-143373121D01*
X184836508Y-143373121D02*
X184848311Y-143408582D01*
X184848311Y-143408582D02*
X184867714Y-143460962D01*
X184867714Y-143460962D02*
X184893488Y-143527345D01*
X184893488Y-143527345D02*
X184924409Y-143604814D01*
X184924409Y-143604814D02*
X184959249Y-143690450D01*
X184959249Y-143690450D02*
X184996783Y-143781337D01*
X184996783Y-143781337D02*
X185035783Y-143874559D01*
X185035783Y-143874559D02*
X185075023Y-143967197D01*
X185075023Y-143967197D02*
X185113276Y-144056335D01*
X185113276Y-144056335D02*
X185149317Y-144139055D01*
X185149317Y-144139055D02*
X185181917Y-144212441D01*
X185181917Y-144212441D02*
X185209852Y-144273575D01*
X185209852Y-144273575D02*
X185231895Y-144319541D01*
X185231895Y-144319541D02*
X185246818Y-144347421D01*
X185246818Y-144347421D02*
X185252828Y-144354743D01*
X185252828Y-144354743D02*
X185271191Y-144349041D01*
X185271191Y-144349041D02*
X185305552Y-144333749D01*
X185305552Y-144333749D02*
X185349984Y-144311599D01*
X185349984Y-144311599D02*
X185374417Y-144298650D01*
X185374417Y-144298650D02*
X185478178Y-144242547D01*
X185478178Y-144242547D02*
X185601787Y-144326155D01*
X185601787Y-144326155D02*
X185664886Y-144368987D01*
X185664886Y-144368987D02*
X185733970Y-144416122D01*
X185733970Y-144416122D02*
X185798707Y-144460503D01*
X185798707Y-144460503D02*
X185831134Y-144482852D01*
X185831134Y-144482852D02*
X185876741Y-144513477D01*
X185876741Y-144513477D02*
X185915360Y-144537747D01*
X185915360Y-144537747D02*
X185941952Y-144552587D01*
X185941952Y-144552587D02*
X185950590Y-144555724D01*
X185950590Y-144555724D02*
X185963161Y-144547261D01*
X185963161Y-144547261D02*
X185990984Y-144523636D01*
X185990984Y-144523636D02*
X186031361Y-144487302D01*
X186031361Y-144487302D02*
X186081595Y-144440711D01*
X186081595Y-144440711D02*
X186138988Y-144386317D01*
X186138988Y-144386317D02*
X186175286Y-144351392D01*
X186175286Y-144351392D02*
X186238790Y-144288996D01*
X186238790Y-144288996D02*
X186293673Y-144233188D01*
X186293673Y-144233188D02*
X186337714Y-144186354D01*
X186337714Y-144186354D02*
X186368695Y-144150882D01*
X186368695Y-144150882D02*
X186384398Y-144129161D01*
X186384398Y-144129161D02*
X186385905Y-144124752D01*
X186385905Y-144124752D02*
X186378914Y-144107985D01*
X186378914Y-144107985D02*
X186359594Y-144074082D01*
X186359594Y-144074082D02*
X186330091Y-144026476D01*
X186330091Y-144026476D02*
X186292545Y-143968599D01*
X186292545Y-143968599D02*
X186249100Y-143903884D01*
X186249100Y-143903884D02*
X186236745Y-143885842D01*
X186236745Y-143885842D02*
X186191727Y-143820267D01*
X186191727Y-143820267D02*
X186151340Y-143761228D01*
X186151340Y-143761228D02*
X186117840Y-143712042D01*
X186117840Y-143712042D02*
X186093486Y-143676028D01*
X186093486Y-143676028D02*
X186080536Y-143656502D01*
X186080536Y-143656502D02*
X186079285Y-143654483D01*
X186079285Y-143654483D02*
X186081156Y-143638922D01*
X186081156Y-143638922D02*
X186091087Y-143604709D01*
X186091087Y-143604709D02*
X186107347Y-143556355D01*
X186107347Y-143556355D02*
X186128205Y-143498371D01*
X186128205Y-143498371D02*
X186151927Y-143435270D01*
X186151927Y-143435270D02*
X186176784Y-143371563D01*
X186176784Y-143371563D02*
X186201042Y-143311761D01*
X186201042Y-143311761D02*
X186222971Y-143260376D01*
X186222971Y-143260376D02*
X186240838Y-143221919D01*
X186240838Y-143221919D02*
X186252913Y-143200902D01*
X186252913Y-143200902D02*
X186253771Y-143199894D01*
X186253771Y-143199894D02*
X186261154Y-143193888D01*
X186261154Y-143193888D02*
X186273625Y-143187948D01*
X186273625Y-143187948D02*
X186293920Y-143181460D01*
X186293920Y-143181460D02*
X186324778Y-143173809D01*
X186324778Y-143173809D02*
X186368934Y-143164380D01*
X186368934Y-143164380D02*
X186429126Y-143152559D01*
X186429126Y-143152559D02*
X186508093Y-143137729D01*
X186508093Y-143137729D02*
X186608570Y-143119277D01*
X186608570Y-143119277D02*
X186630325Y-143115310D01*
X186630325Y-143115310D02*
X186694802Y-143102853D01*
X186694802Y-143102853D02*
X186751011Y-143090666D01*
X186751011Y-143090666D02*
X186793987Y-143079926D01*
X186793987Y-143079926D02*
X186818760Y-143071809D01*
X186818760Y-143071809D02*
X186822082Y-143069916D01*
X186822082Y-143069916D02*
X186827556Y-143053138D01*
X186827556Y-143053138D02*
X186832006Y-143015645D01*
X186832006Y-143015645D02*
X186835428Y-142961794D01*
X186835428Y-142961794D02*
X186837819Y-142895944D01*
X186837819Y-142895944D02*
X186839177Y-142822453D01*
X186839177Y-142822453D02*
X186839499Y-142745680D01*
X186839499Y-142745680D02*
X186838781Y-142669983D01*
X186838781Y-142669983D02*
X186837021Y-142599720D01*
X186837021Y-142599720D02*
X186834216Y-142539250D01*
X186834216Y-142539250D02*
X186830362Y-142492930D01*
X186830362Y-142492930D02*
X186825457Y-142465119D01*
X186825457Y-142465119D02*
X186822500Y-142459427D01*
X186822500Y-142459427D02*
X186806037Y-142453686D01*
X186806037Y-142453686D02*
X186768551Y-142444345D01*
X186768551Y-142444345D02*
X186713775Y-142432215D01*
X186713775Y-142432215D02*
X186645445Y-142418107D01*
X186645445Y-142418107D02*
X186567294Y-142402830D01*
X186567294Y-142402830D02*
X186524716Y-142394823D01*
X186524716Y-142394823D02*
X186443929Y-142379721D01*
X186443929Y-142379721D02*
X186371887Y-142366040D01*
X186371887Y-142366040D02*
X186312111Y-142354467D01*
X186312111Y-142354467D02*
X186268121Y-142345687D01*
X186268121Y-142345687D02*
X186243439Y-142340387D01*
X186243439Y-142340387D02*
X186239377Y-142339212D01*
X186239377Y-142339212D02*
X186232511Y-142325965D01*
X186232511Y-142325965D02*
X186217998Y-142294057D01*
X186217998Y-142294057D02*
X186197771Y-142248047D01*
X186197771Y-142248047D02*
X186173766Y-142192492D01*
X186173766Y-142192492D02*
X186147918Y-142131953D01*
X186147918Y-142131953D02*
X186122160Y-142070986D01*
X186122160Y-142070986D02*
X186098427Y-142014151D01*
X186098427Y-142014151D02*
X186078654Y-141966006D01*
X186078654Y-141966006D02*
X186064776Y-141931110D01*
X186064776Y-141931110D02*
X186058726Y-141914021D01*
X186058726Y-141914021D02*
X186058614Y-141913274D01*
X186058614Y-141913274D02*
X186065472Y-141899793D01*
X186065472Y-141899793D02*
X186084698Y-141868770D01*
X186084698Y-141868770D02*
X186114272Y-141823289D01*
X186114272Y-141823289D02*
X186152173Y-141766432D01*
X186152173Y-141766432D02*
X186196380Y-141701283D01*
X186196380Y-141701283D02*
X186222079Y-141663862D01*
X186222079Y-141663862D02*
X186268907Y-141595247D01*
X186268907Y-141595247D02*
X186310499Y-141532952D01*
X186310499Y-141532952D02*
X186344825Y-141480129D01*
X186344825Y-141480129D02*
X186369857Y-141439927D01*
X186369857Y-141439927D02*
X186383565Y-141415500D01*
X186383565Y-141415500D02*
X186385544Y-141410024D01*
X186385544Y-141410024D02*
X186377034Y-141397278D01*
X186377034Y-141397278D02*
X186353507Y-141370063D01*
X186353507Y-141370063D02*
X186317968Y-141331428D01*
X186317968Y-141331428D02*
X186273423Y-141284423D01*
X186273423Y-141284423D02*
X186222877Y-141232095D01*
X186222877Y-141232095D02*
X186169336Y-141177495D01*
X186169336Y-141177495D02*
X186115805Y-141123670D01*
X186115805Y-141123670D02*
X186065289Y-141073670D01*
X186065289Y-141073670D02*
X186020794Y-141030543D01*
X186020794Y-141030543D02*
X185985325Y-140997339D01*
X185985325Y-140997339D02*
X185961887Y-140977106D01*
X185961887Y-140977106D02*
X185954046Y-140972278D01*
X185954046Y-140972278D02*
X185941280Y-140979067D01*
X185941280Y-140979067D02*
X185910744Y-140998142D01*
X185910744Y-140998142D02*
X185865410Y-141027561D01*
X185865410Y-141027561D02*
X185808244Y-141065381D01*
X185808244Y-141065381D02*
X185742216Y-141109661D01*
X185742216Y-141109661D02*
X185692410Y-141143395D01*
X185692410Y-141143395D02*
X185440764Y-141314512D01*
X185440764Y-141314512D02*
X185231001Y-141228041D01*
X185231001Y-141228041D02*
X185021237Y-141141570D01*
X185021237Y-141141570D02*
X184964389Y-140840018D01*
X184964389Y-140840018D02*
X184907540Y-140538466D01*
X184907540Y-140538466D02*
X184279885Y-140538466D01*
X184279885Y-140538466D02*
X184223036Y-140840018D01*
X184223036Y-140840018D02*
X184223036Y-140840018D01*
G36*
X184964389Y-140840018D02*
G01*
X185021237Y-141141570D01*
X185231001Y-141228041D01*
X185440764Y-141314512D01*
X185692410Y-141143395D01*
X185742216Y-141109661D01*
X185808244Y-141065381D01*
X185865410Y-141027561D01*
X185910744Y-140998142D01*
X185941280Y-140979067D01*
X185954046Y-140972278D01*
X185961887Y-140977106D01*
X185985325Y-140997339D01*
X186020794Y-141030543D01*
X186065289Y-141073670D01*
X186115805Y-141123670D01*
X186169336Y-141177495D01*
X186222877Y-141232095D01*
X186273423Y-141284423D01*
X186317968Y-141331428D01*
X186353507Y-141370063D01*
X186377034Y-141397278D01*
X186385544Y-141410024D01*
X186383565Y-141415500D01*
X186369857Y-141439927D01*
X186344825Y-141480129D01*
X186310499Y-141532952D01*
X186268907Y-141595247D01*
X186222079Y-141663862D01*
X186196380Y-141701283D01*
X186152173Y-141766432D01*
X186114272Y-141823289D01*
X186084698Y-141868770D01*
X186065472Y-141899793D01*
X186058614Y-141913274D01*
X186058726Y-141914021D01*
X186064776Y-141931110D01*
X186078654Y-141966006D01*
X186098427Y-142014151D01*
X186122160Y-142070986D01*
X186147918Y-142131953D01*
X186173766Y-142192492D01*
X186197771Y-142248047D01*
X186217998Y-142294057D01*
X186232511Y-142325965D01*
X186239377Y-142339212D01*
X186243439Y-142340387D01*
X186268121Y-142345687D01*
X186312111Y-142354467D01*
X186371887Y-142366040D01*
X186443929Y-142379721D01*
X186524716Y-142394823D01*
X186567294Y-142402830D01*
X186645445Y-142418107D01*
X186713775Y-142432215D01*
X186768551Y-142444345D01*
X186806037Y-142453686D01*
X186822500Y-142459427D01*
X186825457Y-142465119D01*
X186830362Y-142492930D01*
X186834216Y-142539250D01*
X186837021Y-142599720D01*
X186838781Y-142669983D01*
X186839499Y-142745680D01*
X186839177Y-142822453D01*
X186837819Y-142895944D01*
X186835428Y-142961794D01*
X186832006Y-143015645D01*
X186827556Y-143053138D01*
X186822082Y-143069916D01*
X186818760Y-143071809D01*
X186793987Y-143079926D01*
X186751011Y-143090666D01*
X186694802Y-143102853D01*
X186630325Y-143115310D01*
X186608570Y-143119277D01*
X186508093Y-143137729D01*
X186429126Y-143152559D01*
X186368934Y-143164380D01*
X186324778Y-143173809D01*
X186293920Y-143181460D01*
X186273625Y-143187948D01*
X186261154Y-143193888D01*
X186253771Y-143199894D01*
X186252913Y-143200902D01*
X186240838Y-143221919D01*
X186222971Y-143260376D01*
X186201042Y-143311761D01*
X186176784Y-143371563D01*
X186151927Y-143435270D01*
X186128205Y-143498371D01*
X186107347Y-143556355D01*
X186091087Y-143604709D01*
X186081156Y-143638922D01*
X186079285Y-143654483D01*
X186080536Y-143656502D01*
X186093486Y-143676028D01*
X186117840Y-143712042D01*
X186151340Y-143761228D01*
X186191727Y-143820267D01*
X186236745Y-143885842D01*
X186249100Y-143903884D01*
X186292545Y-143968599D01*
X186330091Y-144026476D01*
X186359594Y-144074082D01*
X186378914Y-144107985D01*
X186385905Y-144124752D01*
X186384398Y-144129161D01*
X186368695Y-144150882D01*
X186337714Y-144186354D01*
X186293673Y-144233188D01*
X186238790Y-144288996D01*
X186175286Y-144351392D01*
X186138988Y-144386317D01*
X186081595Y-144440711D01*
X186031361Y-144487302D01*
X185990984Y-144523636D01*
X185963161Y-144547261D01*
X185950590Y-144555724D01*
X185941952Y-144552587D01*
X185915360Y-144537747D01*
X185876741Y-144513477D01*
X185831134Y-144482852D01*
X185798707Y-144460503D01*
X185733970Y-144416122D01*
X185664886Y-144368987D01*
X185601787Y-144326155D01*
X185478178Y-144242547D01*
X185374417Y-144298650D01*
X185349984Y-144311599D01*
X185305552Y-144333749D01*
X185271191Y-144349041D01*
X185252828Y-144354743D01*
X185246818Y-144347421D01*
X185231895Y-144319541D01*
X185209852Y-144273575D01*
X185181917Y-144212441D01*
X185149317Y-144139055D01*
X185113276Y-144056335D01*
X185075023Y-143967197D01*
X185035783Y-143874559D01*
X184996783Y-143781337D01*
X184959249Y-143690450D01*
X184924409Y-143604814D01*
X184893488Y-143527345D01*
X184867714Y-143460962D01*
X184848311Y-143408582D01*
X184836508Y-143373121D01*
X184833531Y-143357496D01*
X184833732Y-143357039D01*
X184847601Y-143342595D01*
X184876611Y-143319974D01*
X184914772Y-143293864D01*
X184926817Y-143285892D01*
X185018469Y-143210256D01*
X185094323Y-143120169D01*
X185152581Y-143019381D01*
X185191448Y-142911640D01*
X185209128Y-142800697D01*
X185203826Y-142690303D01*
X185182347Y-142592115D01*
X185143782Y-142492966D01*
X185087562Y-142404512D01*
X185010410Y-142320487D01*
X184980095Y-142293645D01*
X184882094Y-142227510D01*
X184776227Y-142182970D01*
X184665561Y-142159625D01*
X184553164Y-142157078D01*
X184442105Y-142174929D01*
X184335451Y-142212780D01*
X184236270Y-142270232D01*
X184147631Y-142346887D01*
X184072600Y-142442345D01*
X184058175Y-142465985D01*
X184009143Y-142574034D01*
X183983103Y-142686548D01*
X183979372Y-142800614D01*
X183997268Y-142913318D01*
X184036109Y-143021745D01*
X184095214Y-143122982D01*
X184173900Y-143214114D01*
X184271485Y-143292228D01*
X184274654Y-143294333D01*
X184312411Y-143320940D01*
X184340709Y-143343561D01*
X184353634Y-143357496D01*
X184352003Y-143368421D01*
X184341864Y-143400231D01*
X184323884Y-143449534D01*
X184299292Y-143513413D01*
X184269311Y-143588948D01*
X184235170Y-143673223D01*
X184198092Y-143763320D01*
X184159306Y-143856321D01*
X184120036Y-143949308D01*
X184081509Y-144039364D01*
X184044950Y-144123571D01*
X184011586Y-144199010D01*
X183982643Y-144262765D01*
X183959346Y-144311917D01*
X183942923Y-144343549D01*
X183934598Y-144354743D01*
X183927674Y-144353227D01*
X183900477Y-144342331D01*
X183860280Y-144323228D01*
X183813009Y-144298650D01*
X183709248Y-144242547D01*
X183585639Y-144326155D01*
X183549120Y-144350913D01*
X183481194Y-144397171D01*
X183413475Y-144443503D01*
X183356291Y-144482852D01*
X183324732Y-144504297D01*
X183283714Y-144530939D01*
X183253301Y-144549178D01*
X183238446Y-144555941D01*
X183232065Y-144553070D01*
X183208996Y-144535485D01*
X183173433Y-144504523D01*
X183128471Y-144463231D01*
X183077206Y-144414653D01*
X183022733Y-144361835D01*
X182968148Y-144307823D01*
X182916547Y-144255661D01*
X182871024Y-144208396D01*
X182834675Y-144169072D01*
X182810595Y-144140736D01*
X182801881Y-144126432D01*
X182802383Y-144123711D01*
X182812755Y-144101560D01*
X182834912Y-144063235D01*
X182866712Y-144012200D01*
X182906016Y-143951914D01*
X182950681Y-143885842D01*
X182963207Y-143867617D01*
X183007193Y-143803485D01*
X183045937Y-143746789D01*
X183077182Y-143700844D01*
X183098669Y-143668970D01*
X183108140Y-143654483D01*
X183108373Y-143653862D01*
X183105578Y-143636139D01*
X183094903Y-143600235D01*
X183078081Y-143550662D01*
X183056843Y-143491932D01*
X183032921Y-143428556D01*
X183008046Y-143365046D01*
X182983950Y-143305913D01*
X182962365Y-143255669D01*
X182945023Y-143218826D01*
X182933655Y-143199894D01*
X182932516Y-143198719D01*
X182924376Y-143192773D01*
X182910629Y-143186776D01*
X182888537Y-143180114D01*
X182855363Y-143172173D01*
X182808370Y-143162337D01*
X182744820Y-143149991D01*
X182661976Y-143134520D01*
X182557100Y-143115310D01*
X182535348Y-143111267D01*
X182473036Y-143098769D01*
X182420619Y-143086927D01*
X182383066Y-143076917D01*
X182365343Y-143069916D01*
X182362378Y-143064075D01*
X182357435Y-143036016D01*
X182353518Y-142989500D01*
X182350629Y-142928886D01*
X182348773Y-142858532D01*
X182347952Y-142782796D01*
X182348168Y-142706037D01*
X182349426Y-142632612D01*
X182351728Y-142566880D01*
X182355076Y-142513200D01*
X182359474Y-142475930D01*
X182364926Y-142459427D01*
X182370491Y-142456989D01*
X182398178Y-142449305D01*
X182444979Y-142438436D01*
X182507157Y-142425192D01*
X182580979Y-142410384D01*
X182662710Y-142394823D01*
X182707336Y-142386509D01*
X182783824Y-142372092D01*
X182849660Y-142359467D01*
X182901323Y-142349321D01*
X182935293Y-142342341D01*
X182948048Y-142339212D01*
X182948528Y-142338568D01*
X182956651Y-142322181D01*
X182972137Y-142287852D01*
X182993050Y-142240136D01*
X183017455Y-142183586D01*
X183043416Y-142122758D01*
X183068997Y-142062206D01*
X183092262Y-142006485D01*
X183111277Y-141960150D01*
X183124105Y-141927755D01*
X183128812Y-141913855D01*
X183126736Y-141908965D01*
X183112920Y-141885692D01*
X183087860Y-141846519D01*
X183053568Y-141794520D01*
X183012059Y-141732768D01*
X182965346Y-141664336D01*
X182939718Y-141626860D01*
X182895490Y-141561156D01*
X182857570Y-141503492D01*
X182827980Y-141457014D01*
X182808743Y-141424865D01*
X182801881Y-141410190D01*
X182806649Y-141402230D01*
X182826593Y-141378446D01*
X182859313Y-141342451D01*
X182901805Y-141297295D01*
X182951065Y-141246028D01*
X183004091Y-141191701D01*
X183057877Y-141137364D01*
X183109421Y-141086067D01*
X183155720Y-141040859D01*
X183193769Y-141004792D01*
X183220565Y-140980914D01*
X183233105Y-140972278D01*
X183240066Y-140975636D01*
X183265627Y-140991210D01*
X183306874Y-141017715D01*
X183360837Y-141053210D01*
X183424542Y-141095750D01*
X183495016Y-141143395D01*
X183746662Y-141314512D01*
X184166188Y-141141570D01*
X184223036Y-140840018D01*
X184279885Y-140538466D01*
X184907540Y-140538466D01*
X184964389Y-140840018D01*
G37*
X184964389Y-140840018D02*
X185021237Y-141141570D01*
X185231001Y-141228041D01*
X185440764Y-141314512D01*
X185692410Y-141143395D01*
X185742216Y-141109661D01*
X185808244Y-141065381D01*
X185865410Y-141027561D01*
X185910744Y-140998142D01*
X185941280Y-140979067D01*
X185954046Y-140972278D01*
X185961887Y-140977106D01*
X185985325Y-140997339D01*
X186020794Y-141030543D01*
X186065289Y-141073670D01*
X186115805Y-141123670D01*
X186169336Y-141177495D01*
X186222877Y-141232095D01*
X186273423Y-141284423D01*
X186317968Y-141331428D01*
X186353507Y-141370063D01*
X186377034Y-141397278D01*
X186385544Y-141410024D01*
X186383565Y-141415500D01*
X186369857Y-141439927D01*
X186344825Y-141480129D01*
X186310499Y-141532952D01*
X186268907Y-141595247D01*
X186222079Y-141663862D01*
X186196380Y-141701283D01*
X186152173Y-141766432D01*
X186114272Y-141823289D01*
X186084698Y-141868770D01*
X186065472Y-141899793D01*
X186058614Y-141913274D01*
X186058726Y-141914021D01*
X186064776Y-141931110D01*
X186078654Y-141966006D01*
X186098427Y-142014151D01*
X186122160Y-142070986D01*
X186147918Y-142131953D01*
X186173766Y-142192492D01*
X186197771Y-142248047D01*
X186217998Y-142294057D01*
X186232511Y-142325965D01*
X186239377Y-142339212D01*
X186243439Y-142340387D01*
X186268121Y-142345687D01*
X186312111Y-142354467D01*
X186371887Y-142366040D01*
X186443929Y-142379721D01*
X186524716Y-142394823D01*
X186567294Y-142402830D01*
X186645445Y-142418107D01*
X186713775Y-142432215D01*
X186768551Y-142444345D01*
X186806037Y-142453686D01*
X186822500Y-142459427D01*
X186825457Y-142465119D01*
X186830362Y-142492930D01*
X186834216Y-142539250D01*
X186837021Y-142599720D01*
X186838781Y-142669983D01*
X186839499Y-142745680D01*
X186839177Y-142822453D01*
X186837819Y-142895944D01*
X186835428Y-142961794D01*
X186832006Y-143015645D01*
X186827556Y-143053138D01*
X186822082Y-143069916D01*
X186818760Y-143071809D01*
X186793987Y-143079926D01*
X186751011Y-143090666D01*
X186694802Y-143102853D01*
X186630325Y-143115310D01*
X186608570Y-143119277D01*
X186508093Y-143137729D01*
X186429126Y-143152559D01*
X186368934Y-143164380D01*
X186324778Y-143173809D01*
X186293920Y-143181460D01*
X186273625Y-143187948D01*
X186261154Y-143193888D01*
X186253771Y-143199894D01*
X186252913Y-143200902D01*
X186240838Y-143221919D01*
X186222971Y-143260376D01*
X186201042Y-143311761D01*
X186176784Y-143371563D01*
X186151927Y-143435270D01*
X186128205Y-143498371D01*
X186107347Y-143556355D01*
X186091087Y-143604709D01*
X186081156Y-143638922D01*
X186079285Y-143654483D01*
X186080536Y-143656502D01*
X186093486Y-143676028D01*
X186117840Y-143712042D01*
X186151340Y-143761228D01*
X186191727Y-143820267D01*
X186236745Y-143885842D01*
X186249100Y-143903884D01*
X186292545Y-143968599D01*
X186330091Y-144026476D01*
X186359594Y-144074082D01*
X186378914Y-144107985D01*
X186385905Y-144124752D01*
X186384398Y-144129161D01*
X186368695Y-144150882D01*
X186337714Y-144186354D01*
X186293673Y-144233188D01*
X186238790Y-144288996D01*
X186175286Y-144351392D01*
X186138988Y-144386317D01*
X186081595Y-144440711D01*
X186031361Y-144487302D01*
X185990984Y-144523636D01*
X185963161Y-144547261D01*
X185950590Y-144555724D01*
X185941952Y-144552587D01*
X185915360Y-144537747D01*
X185876741Y-144513477D01*
X185831134Y-144482852D01*
X185798707Y-144460503D01*
X185733970Y-144416122D01*
X185664886Y-144368987D01*
X185601787Y-144326155D01*
X185478178Y-144242547D01*
X185374417Y-144298650D01*
X185349984Y-144311599D01*
X185305552Y-144333749D01*
X185271191Y-144349041D01*
X185252828Y-144354743D01*
X185246818Y-144347421D01*
X185231895Y-144319541D01*
X185209852Y-144273575D01*
X185181917Y-144212441D01*
X185149317Y-144139055D01*
X185113276Y-144056335D01*
X185075023Y-143967197D01*
X185035783Y-143874559D01*
X184996783Y-143781337D01*
X184959249Y-143690450D01*
X184924409Y-143604814D01*
X184893488Y-143527345D01*
X184867714Y-143460962D01*
X184848311Y-143408582D01*
X184836508Y-143373121D01*
X184833531Y-143357496D01*
X184833732Y-143357039D01*
X184847601Y-143342595D01*
X184876611Y-143319974D01*
X184914772Y-143293864D01*
X184926817Y-143285892D01*
X185018469Y-143210256D01*
X185094323Y-143120169D01*
X185152581Y-143019381D01*
X185191448Y-142911640D01*
X185209128Y-142800697D01*
X185203826Y-142690303D01*
X185182347Y-142592115D01*
X185143782Y-142492966D01*
X185087562Y-142404512D01*
X185010410Y-142320487D01*
X184980095Y-142293645D01*
X184882094Y-142227510D01*
X184776227Y-142182970D01*
X184665561Y-142159625D01*
X184553164Y-142157078D01*
X184442105Y-142174929D01*
X184335451Y-142212780D01*
X184236270Y-142270232D01*
X184147631Y-142346887D01*
X184072600Y-142442345D01*
X184058175Y-142465985D01*
X184009143Y-142574034D01*
X183983103Y-142686548D01*
X183979372Y-142800614D01*
X183997268Y-142913318D01*
X184036109Y-143021745D01*
X184095214Y-143122982D01*
X184173900Y-143214114D01*
X184271485Y-143292228D01*
X184274654Y-143294333D01*
X184312411Y-143320940D01*
X184340709Y-143343561D01*
X184353634Y-143357496D01*
X184352003Y-143368421D01*
X184341864Y-143400231D01*
X184323884Y-143449534D01*
X184299292Y-143513413D01*
X184269311Y-143588948D01*
X184235170Y-143673223D01*
X184198092Y-143763320D01*
X184159306Y-143856321D01*
X184120036Y-143949308D01*
X184081509Y-144039364D01*
X184044950Y-144123571D01*
X184011586Y-144199010D01*
X183982643Y-144262765D01*
X183959346Y-144311917D01*
X183942923Y-144343549D01*
X183934598Y-144354743D01*
X183927674Y-144353227D01*
X183900477Y-144342331D01*
X183860280Y-144323228D01*
X183813009Y-144298650D01*
X183709248Y-144242547D01*
X183585639Y-144326155D01*
X183549120Y-144350913D01*
X183481194Y-144397171D01*
X183413475Y-144443503D01*
X183356291Y-144482852D01*
X183324732Y-144504297D01*
X183283714Y-144530939D01*
X183253301Y-144549178D01*
X183238446Y-144555941D01*
X183232065Y-144553070D01*
X183208996Y-144535485D01*
X183173433Y-144504523D01*
X183128471Y-144463231D01*
X183077206Y-144414653D01*
X183022733Y-144361835D01*
X182968148Y-144307823D01*
X182916547Y-144255661D01*
X182871024Y-144208396D01*
X182834675Y-144169072D01*
X182810595Y-144140736D01*
X182801881Y-144126432D01*
X182802383Y-144123711D01*
X182812755Y-144101560D01*
X182834912Y-144063235D01*
X182866712Y-144012200D01*
X182906016Y-143951914D01*
X182950681Y-143885842D01*
X182963207Y-143867617D01*
X183007193Y-143803485D01*
X183045937Y-143746789D01*
X183077182Y-143700844D01*
X183098669Y-143668970D01*
X183108140Y-143654483D01*
X183108373Y-143653862D01*
X183105578Y-143636139D01*
X183094903Y-143600235D01*
X183078081Y-143550662D01*
X183056843Y-143491932D01*
X183032921Y-143428556D01*
X183008046Y-143365046D01*
X182983950Y-143305913D01*
X182962365Y-143255669D01*
X182945023Y-143218826D01*
X182933655Y-143199894D01*
X182932516Y-143198719D01*
X182924376Y-143192773D01*
X182910629Y-143186776D01*
X182888537Y-143180114D01*
X182855363Y-143172173D01*
X182808370Y-143162337D01*
X182744820Y-143149991D01*
X182661976Y-143134520D01*
X182557100Y-143115310D01*
X182535348Y-143111267D01*
X182473036Y-143098769D01*
X182420619Y-143086927D01*
X182383066Y-143076917D01*
X182365343Y-143069916D01*
X182362378Y-143064075D01*
X182357435Y-143036016D01*
X182353518Y-142989500D01*
X182350629Y-142928886D01*
X182348773Y-142858532D01*
X182347952Y-142782796D01*
X182348168Y-142706037D01*
X182349426Y-142632612D01*
X182351728Y-142566880D01*
X182355076Y-142513200D01*
X182359474Y-142475930D01*
X182364926Y-142459427D01*
X182370491Y-142456989D01*
X182398178Y-142449305D01*
X182444979Y-142438436D01*
X182507157Y-142425192D01*
X182580979Y-142410384D01*
X182662710Y-142394823D01*
X182707336Y-142386509D01*
X182783824Y-142372092D01*
X182849660Y-142359467D01*
X182901323Y-142349321D01*
X182935293Y-142342341D01*
X182948048Y-142339212D01*
X182948528Y-142338568D01*
X182956651Y-142322181D01*
X182972137Y-142287852D01*
X182993050Y-142240136D01*
X183017455Y-142183586D01*
X183043416Y-142122758D01*
X183068997Y-142062206D01*
X183092262Y-142006485D01*
X183111277Y-141960150D01*
X183124105Y-141927755D01*
X183128812Y-141913855D01*
X183126736Y-141908965D01*
X183112920Y-141885692D01*
X183087860Y-141846519D01*
X183053568Y-141794520D01*
X183012059Y-141732768D01*
X182965346Y-141664336D01*
X182939718Y-141626860D01*
X182895490Y-141561156D01*
X182857570Y-141503492D01*
X182827980Y-141457014D01*
X182808743Y-141424865D01*
X182801881Y-141410190D01*
X182806649Y-141402230D01*
X182826593Y-141378446D01*
X182859313Y-141342451D01*
X182901805Y-141297295D01*
X182951065Y-141246028D01*
X183004091Y-141191701D01*
X183057877Y-141137364D01*
X183109421Y-141086067D01*
X183155720Y-141040859D01*
X183193769Y-141004792D01*
X183220565Y-140980914D01*
X183233105Y-140972278D01*
X183240066Y-140975636D01*
X183265627Y-140991210D01*
X183306874Y-141017715D01*
X183360837Y-141053210D01*
X183424542Y-141095750D01*
X183495016Y-141143395D01*
X183746662Y-141314512D01*
X184166188Y-141141570D01*
X184223036Y-140840018D01*
X184279885Y-140538466D01*
X184907540Y-140538466D01*
X184964389Y-140840018D01*
X182964745Y-145951486D02*
X182916405Y-145961015D01*
X182916405Y-145961015D02*
X182888886Y-145975125D01*
X182888886Y-145975125D02*
X182859936Y-145998568D01*
X182859936Y-145998568D02*
X182901124Y-146050571D01*
X182901124Y-146050571D02*
X182926518Y-146082064D01*
X182926518Y-146082064D02*
X182943762Y-146097428D01*
X182943762Y-146097428D02*
X182960898Y-146099776D01*
X182960898Y-146099776D02*
X182985973Y-146092217D01*
X182985973Y-146092217D02*
X182997743Y-146087941D01*
X182997743Y-146087941D02*
X183045730Y-146081631D01*
X183045730Y-146081631D02*
X183089676Y-146095156D01*
X183089676Y-146095156D02*
X183121940Y-146125710D01*
X183121940Y-146125710D02*
X183127181Y-146135452D01*
X183127181Y-146135452D02*
X183132888Y-146161258D01*
X183132888Y-146161258D02*
X183137294Y-146208817D01*
X183137294Y-146208817D02*
X183140189Y-146274758D01*
X183140189Y-146274758D02*
X183141369Y-146355710D01*
X183141369Y-146355710D02*
X183141386Y-146367226D01*
X183141386Y-146367226D02*
X183141386Y-146567822D01*
X183141386Y-146567822D02*
X183279703Y-146567822D01*
X183279703Y-146567822D02*
X183279703Y-145951683D01*
X183279703Y-145951683D02*
X183210544Y-145951683D01*
X183210544Y-145951683D02*
X183170667Y-145952725D01*
X183170667Y-145952725D02*
X183149893Y-145957358D01*
X183149893Y-145957358D02*
X183142211Y-145967849D01*
X183142211Y-145967849D02*
X183141386Y-145977745D01*
X183141386Y-145977745D02*
X183141386Y-146003806D01*
X183141386Y-146003806D02*
X183108255Y-145977745D01*
X183108255Y-145977745D02*
X183070265Y-145959965D01*
X183070265Y-145959965D02*
X183019230Y-145951174D01*
X183019230Y-145951174D02*
X182964745Y-145951486D01*
X182964745Y-145951486D02*
X182964745Y-145951486D01*
G36*
X183070265Y-145959965D02*
G01*
X183108255Y-145977745D01*
X183141386Y-146003806D01*
X183141386Y-145977745D01*
X183142211Y-145967849D01*
X183149893Y-145957358D01*
X183170667Y-145952725D01*
X183210544Y-145951683D01*
X183279703Y-145951683D01*
X183279703Y-146567822D01*
X183141386Y-146567822D01*
X183141386Y-146367226D01*
X183141369Y-146355710D01*
X183140189Y-146274758D01*
X183137294Y-146208817D01*
X183132888Y-146161258D01*
X183127181Y-146135452D01*
X183121940Y-146125710D01*
X183089676Y-146095156D01*
X183045730Y-146081631D01*
X182997743Y-146087941D01*
X182985973Y-146092217D01*
X182960898Y-146099776D01*
X182943762Y-146097428D01*
X182926518Y-146082064D01*
X182901124Y-146050571D01*
X182859936Y-145998568D01*
X182888886Y-145975125D01*
X182916405Y-145961015D01*
X182964745Y-145951486D01*
X183019230Y-145951174D01*
X183070265Y-145959965D01*
G37*
X183070265Y-145959965D02*
X183108255Y-145977745D01*
X183141386Y-146003806D01*
X183141386Y-145977745D01*
X183142211Y-145967849D01*
X183149893Y-145957358D01*
X183170667Y-145952725D01*
X183210544Y-145951683D01*
X183279703Y-145951683D01*
X183279703Y-146567822D01*
X183141386Y-146567822D01*
X183141386Y-146367226D01*
X183141369Y-146355710D01*
X183140189Y-146274758D01*
X183137294Y-146208817D01*
X183132888Y-146161258D01*
X183127181Y-146135452D01*
X183121940Y-146125710D01*
X183089676Y-146095156D01*
X183045730Y-146081631D01*
X182997743Y-146087941D01*
X182985973Y-146092217D01*
X182960898Y-146099776D01*
X182943762Y-146097428D01*
X182926518Y-146082064D01*
X182901124Y-146050571D01*
X182859936Y-145998568D01*
X182888886Y-145975125D01*
X182916405Y-145961015D01*
X182964745Y-145951486D01*
X183019230Y-145951174D01*
X183070265Y-145959965D01*
X183606633Y-145204342D02*
X183605445Y-145296563D01*
X183605445Y-145296563D02*
X183601103Y-145366610D01*
X183601103Y-145366610D02*
X183592442Y-145417381D01*
X183592442Y-145417381D02*
X183578296Y-145451772D01*
X183578296Y-145451772D02*
X183557500Y-145472679D01*
X183557500Y-145472679D02*
X183528890Y-145483000D01*
X183528890Y-145483000D02*
X183493465Y-145485636D01*
X183493465Y-145485636D02*
X183456364Y-145482682D01*
X183456364Y-145482682D02*
X183428182Y-145471889D01*
X183428182Y-145471889D02*
X183407757Y-145450360D01*
X183407757Y-145450360D02*
X183393921Y-145415199D01*
X183393921Y-145415199D02*
X183385509Y-145363510D01*
X183385509Y-145363510D02*
X183381357Y-145292394D01*
X183381357Y-145292394D02*
X183380297Y-145204342D01*
X183380297Y-145204342D02*
X183380297Y-145008614D01*
X183380297Y-145008614D02*
X183241980Y-145008614D01*
X183241980Y-145008614D02*
X183241980Y-145612179D01*
X183241980Y-145612179D02*
X183311138Y-145612179D01*
X183311138Y-145612179D02*
X183352830Y-145610489D01*
X183352830Y-145610489D02*
X183374299Y-145604556D01*
X183374299Y-145604556D02*
X183380297Y-145593293D01*
X183380297Y-145593293D02*
X183383909Y-145583261D01*
X183383909Y-145583261D02*
X183398286Y-145585383D01*
X183398286Y-145585383D02*
X183427264Y-145599580D01*
X183427264Y-145599580D02*
X183493681Y-145621480D01*
X183493681Y-145621480D02*
X183564125Y-145619928D01*
X183564125Y-145619928D02*
X183631623Y-145596147D01*
X183631623Y-145596147D02*
X183663767Y-145577362D01*
X183663767Y-145577362D02*
X183688285Y-145557022D01*
X183688285Y-145557022D02*
X183706196Y-145531573D01*
X183706196Y-145531573D02*
X183718521Y-145497458D01*
X183718521Y-145497458D02*
X183726277Y-145451121D01*
X183726277Y-145451121D02*
X183730484Y-145389007D01*
X183730484Y-145389007D02*
X183732160Y-145307561D01*
X183732160Y-145307561D02*
X183732376Y-145244578D01*
X183732376Y-145244578D02*
X183732376Y-145008614D01*
X183732376Y-145008614D02*
X183606633Y-145008614D01*
X183606633Y-145008614D02*
X183606633Y-145204342D01*
X183606633Y-145204342D02*
X183606633Y-145204342D01*
G36*
X183380297Y-145204342D02*
G01*
X183381357Y-145292394D01*
X183385509Y-145363510D01*
X183393921Y-145415199D01*
X183407757Y-145450360D01*
X183428182Y-145471889D01*
X183456364Y-145482682D01*
X183493465Y-145485636D01*
X183528890Y-145483000D01*
X183557500Y-145472679D01*
X183578296Y-145451772D01*
X183592442Y-145417381D01*
X183601103Y-145366610D01*
X183605445Y-145296563D01*
X183606633Y-145204342D01*
X183606633Y-145008614D01*
X183732376Y-145008614D01*
X183732376Y-145244578D01*
X183732160Y-145307561D01*
X183730484Y-145389007D01*
X183726277Y-145451121D01*
X183718521Y-145497458D01*
X183706196Y-145531573D01*
X183688285Y-145557022D01*
X183663767Y-145577362D01*
X183631623Y-145596147D01*
X183564125Y-145619928D01*
X183493681Y-145621480D01*
X183427264Y-145599580D01*
X183398286Y-145585383D01*
X183383909Y-145583261D01*
X183380297Y-145593293D01*
X183374299Y-145604556D01*
X183352830Y-145610489D01*
X183311138Y-145612179D01*
X183241980Y-145612179D01*
X183241980Y-145008614D01*
X183380297Y-145008614D01*
X183380297Y-145204342D01*
G37*
X183380297Y-145204342D02*
X183381357Y-145292394D01*
X183385509Y-145363510D01*
X183393921Y-145415199D01*
X183407757Y-145450360D01*
X183428182Y-145471889D01*
X183456364Y-145482682D01*
X183493465Y-145485636D01*
X183528890Y-145483000D01*
X183557500Y-145472679D01*
X183578296Y-145451772D01*
X183592442Y-145417381D01*
X183601103Y-145366610D01*
X183605445Y-145296563D01*
X183606633Y-145204342D01*
X183606633Y-145008614D01*
X183732376Y-145008614D01*
X183732376Y-145244578D01*
X183732160Y-145307561D01*
X183730484Y-145389007D01*
X183726277Y-145451121D01*
X183718521Y-145497458D01*
X183706196Y-145531573D01*
X183688285Y-145557022D01*
X183663767Y-145577362D01*
X183631623Y-145596147D01*
X183564125Y-145619928D01*
X183493681Y-145621480D01*
X183427264Y-145599580D01*
X183398286Y-145585383D01*
X183383909Y-145583261D01*
X183380297Y-145593293D01*
X183374299Y-145604556D01*
X183352830Y-145610489D01*
X183311138Y-145612179D01*
X183241980Y-145612179D01*
X183241980Y-145008614D01*
X183380297Y-145008614D01*
X183380297Y-145204342D01*
X186508759Y-145019184D02*
X186482247Y-145032282D01*
X186482247Y-145032282D02*
X186449553Y-145055106D01*
X186449553Y-145055106D02*
X186425725Y-145079996D01*
X186425725Y-145079996D02*
X186409406Y-145111249D01*
X186409406Y-145111249D02*
X186399240Y-145153166D01*
X186399240Y-145153166D02*
X186393872Y-145210044D01*
X186393872Y-145210044D02*
X186391944Y-145286184D01*
X186391944Y-145286184D02*
X186391831Y-145318917D01*
X186391831Y-145318917D02*
X186392161Y-145390656D01*
X186392161Y-145390656D02*
X186393527Y-145441927D01*
X186393527Y-145441927D02*
X186396500Y-145477404D01*
X186396500Y-145477404D02*
X186401649Y-145501763D01*
X186401649Y-145501763D02*
X186409543Y-145519680D01*
X186409543Y-145519680D02*
X186417757Y-145531902D01*
X186417757Y-145531902D02*
X186470187Y-145583905D01*
X186470187Y-145583905D02*
X186531930Y-145615184D01*
X186531930Y-145615184D02*
X186598536Y-145624592D01*
X186598536Y-145624592D02*
X186665558Y-145610980D01*
X186665558Y-145610980D02*
X186686792Y-145601354D01*
X186686792Y-145601354D02*
X186737624Y-145574859D01*
X186737624Y-145574859D02*
X186737624Y-145990052D01*
X186737624Y-145990052D02*
X186700525Y-145970868D01*
X186700525Y-145970868D02*
X186651643Y-145956025D01*
X186651643Y-145956025D02*
X186591561Y-145952222D01*
X186591561Y-145952222D02*
X186531564Y-145959243D01*
X186531564Y-145959243D02*
X186486256Y-145975013D01*
X186486256Y-145975013D02*
X186448675Y-146005047D01*
X186448675Y-146005047D02*
X186416564Y-146048024D01*
X186416564Y-146048024D02*
X186414150Y-146052436D01*
X186414150Y-146052436D02*
X186403967Y-146073221D01*
X186403967Y-146073221D02*
X186396530Y-146094170D01*
X186396530Y-146094170D02*
X186391411Y-146119548D01*
X186391411Y-146119548D02*
X186388181Y-146153618D01*
X186388181Y-146153618D02*
X186386413Y-146200641D01*
X186386413Y-146200641D02*
X186385677Y-146264882D01*
X186385677Y-146264882D02*
X186385544Y-146337176D01*
X186385544Y-146337176D02*
X186385544Y-146567822D01*
X186385544Y-146567822D02*
X186523861Y-146567822D01*
X186523861Y-146567822D02*
X186523861Y-146142533D01*
X186523861Y-146142533D02*
X186562549Y-146109979D01*
X186562549Y-146109979D02*
X186602738Y-146083940D01*
X186602738Y-146083940D02*
X186640797Y-146079205D01*
X186640797Y-146079205D02*
X186679066Y-146091389D01*
X186679066Y-146091389D02*
X186699462Y-146103320D01*
X186699462Y-146103320D02*
X186714642Y-146120313D01*
X186714642Y-146120313D02*
X186725438Y-146145995D01*
X186725438Y-146145995D02*
X186732683Y-146183991D01*
X186732683Y-146183991D02*
X186737208Y-146237926D01*
X186737208Y-146237926D02*
X186739844Y-146311425D01*
X186739844Y-146311425D02*
X186740772Y-146360347D01*
X186740772Y-146360347D02*
X186743911Y-146561535D01*
X186743911Y-146561535D02*
X186809926Y-146565336D01*
X186809926Y-146565336D02*
X186875940Y-146569136D01*
X186875940Y-146569136D02*
X186875940Y-145320650D01*
X186875940Y-145320650D02*
X186737624Y-145320650D01*
X186737624Y-145320650D02*
X186734097Y-145390254D01*
X186734097Y-145390254D02*
X186722215Y-145438569D01*
X186722215Y-145438569D02*
X186700020Y-145468631D01*
X186700020Y-145468631D02*
X186665559Y-145483471D01*
X186665559Y-145483471D02*
X186630742Y-145486436D01*
X186630742Y-145486436D02*
X186591329Y-145483028D01*
X186591329Y-145483028D02*
X186565171Y-145469617D01*
X186565171Y-145469617D02*
X186548814Y-145451896D01*
X186548814Y-145451896D02*
X186535937Y-145432835D01*
X186535937Y-145432835D02*
X186528272Y-145411601D01*
X186528272Y-145411601D02*
X186524861Y-145381849D01*
X186524861Y-145381849D02*
X186524749Y-145337236D01*
X186524749Y-145337236D02*
X186525897Y-145299880D01*
X186525897Y-145299880D02*
X186528532Y-145243604D01*
X186528532Y-145243604D02*
X186532456Y-145206658D01*
X186532456Y-145206658D02*
X186539063Y-145183223D01*
X186539063Y-145183223D02*
X186549749Y-145167480D01*
X186549749Y-145167480D02*
X186559833Y-145158380D01*
X186559833Y-145158380D02*
X186601970Y-145138537D01*
X186601970Y-145138537D02*
X186651840Y-145135332D01*
X186651840Y-145135332D02*
X186680476Y-145142168D01*
X186680476Y-145142168D02*
X186708828Y-145166464D01*
X186708828Y-145166464D02*
X186727609Y-145213728D01*
X186727609Y-145213728D02*
X186736712Y-145283624D01*
X186736712Y-145283624D02*
X186737624Y-145320650D01*
X186737624Y-145320650D02*
X186875940Y-145320650D01*
X186875940Y-145320650D02*
X186875940Y-145008614D01*
X186875940Y-145008614D02*
X186806782Y-145008614D01*
X186806782Y-145008614D02*
X186765260Y-145010256D01*
X186765260Y-145010256D02*
X186743838Y-145016087D01*
X186743838Y-145016087D02*
X186737626Y-145027461D01*
X186737626Y-145027461D02*
X186737624Y-145027798D01*
X186737624Y-145027798D02*
X186734742Y-145038938D01*
X186734742Y-145038938D02*
X186722030Y-145037673D01*
X186722030Y-145037673D02*
X186696757Y-145025433D01*
X186696757Y-145025433D02*
X186637869Y-145006707D01*
X186637869Y-145006707D02*
X186571615Y-145004739D01*
X186571615Y-145004739D02*
X186508759Y-145019184D01*
X186508759Y-145019184D02*
X186508759Y-145019184D01*
G36*
X186809926Y-146565336D02*
G01*
X186743911Y-146561535D01*
X186740772Y-146360347D01*
X186739844Y-146311425D01*
X186737208Y-146237926D01*
X186732683Y-146183991D01*
X186725438Y-146145995D01*
X186714642Y-146120313D01*
X186699462Y-146103320D01*
X186679066Y-146091389D01*
X186640797Y-146079205D01*
X186602738Y-146083940D01*
X186562549Y-146109979D01*
X186523861Y-146142533D01*
X186523861Y-146567822D01*
X186385544Y-146567822D01*
X186385544Y-146337176D01*
X186385677Y-146264882D01*
X186386413Y-146200641D01*
X186388181Y-146153618D01*
X186391411Y-146119548D01*
X186396530Y-146094170D01*
X186403967Y-146073221D01*
X186414150Y-146052436D01*
X186416564Y-146048024D01*
X186448675Y-146005047D01*
X186486256Y-145975013D01*
X186531564Y-145959243D01*
X186591561Y-145952222D01*
X186651643Y-145956025D01*
X186700525Y-145970868D01*
X186737624Y-145990052D01*
X186737624Y-145574859D01*
X186686792Y-145601354D01*
X186665558Y-145610980D01*
X186598536Y-145624592D01*
X186531930Y-145615184D01*
X186470187Y-145583905D01*
X186417757Y-145531902D01*
X186409543Y-145519680D01*
X186401649Y-145501763D01*
X186396500Y-145477404D01*
X186393527Y-145441927D01*
X186392161Y-145390656D01*
X186391915Y-145337236D01*
X186524749Y-145337236D01*
X186524861Y-145381849D01*
X186528272Y-145411601D01*
X186535937Y-145432835D01*
X186548814Y-145451896D01*
X186565171Y-145469617D01*
X186591329Y-145483028D01*
X186630742Y-145486436D01*
X186665559Y-145483471D01*
X186700020Y-145468631D01*
X186722215Y-145438569D01*
X186734097Y-145390254D01*
X186737624Y-145320650D01*
X186736712Y-145283624D01*
X186727609Y-145213728D01*
X186708828Y-145166464D01*
X186680476Y-145142168D01*
X186651840Y-145135332D01*
X186601970Y-145138537D01*
X186559833Y-145158380D01*
X186549749Y-145167480D01*
X186539063Y-145183223D01*
X186532456Y-145206658D01*
X186528532Y-145243604D01*
X186525897Y-145299880D01*
X186524749Y-145337236D01*
X186391915Y-145337236D01*
X186391831Y-145318917D01*
X186391944Y-145286184D01*
X186393872Y-145210044D01*
X186399240Y-145153166D01*
X186409406Y-145111249D01*
X186425725Y-145079996D01*
X186449553Y-145055106D01*
X186482247Y-145032282D01*
X186508759Y-145019184D01*
X186571615Y-145004739D01*
X186637869Y-145006707D01*
X186696757Y-145025433D01*
X186722030Y-145037673D01*
X186734742Y-145038938D01*
X186737624Y-145027798D01*
X186737626Y-145027461D01*
X186743838Y-145016087D01*
X186765260Y-145010256D01*
X186806782Y-145008614D01*
X186875940Y-145008614D01*
X186875940Y-146569136D01*
X186809926Y-146565336D01*
G37*
X186809926Y-146565336D02*
X186743911Y-146561535D01*
X186740772Y-146360347D01*
X186739844Y-146311425D01*
X186737208Y-146237926D01*
X186732683Y-146183991D01*
X186725438Y-146145995D01*
X186714642Y-146120313D01*
X186699462Y-146103320D01*
X186679066Y-146091389D01*
X186640797Y-146079205D01*
X186602738Y-146083940D01*
X186562549Y-146109979D01*
X186523861Y-146142533D01*
X186523861Y-146567822D01*
X186385544Y-146567822D01*
X186385544Y-146337176D01*
X186385677Y-146264882D01*
X186386413Y-146200641D01*
X186388181Y-146153618D01*
X186391411Y-146119548D01*
X186396530Y-146094170D01*
X186403967Y-146073221D01*
X186414150Y-146052436D01*
X186416564Y-146048024D01*
X186448675Y-146005047D01*
X186486256Y-145975013D01*
X186531564Y-145959243D01*
X186591561Y-145952222D01*
X186651643Y-145956025D01*
X186700525Y-145970868D01*
X186737624Y-145990052D01*
X186737624Y-145574859D01*
X186686792Y-145601354D01*
X186665558Y-145610980D01*
X186598536Y-145624592D01*
X186531930Y-145615184D01*
X186470187Y-145583905D01*
X186417757Y-145531902D01*
X186409543Y-145519680D01*
X186401649Y-145501763D01*
X186396500Y-145477404D01*
X186393527Y-145441927D01*
X186392161Y-145390656D01*
X186391915Y-145337236D01*
X186524749Y-145337236D01*
X186524861Y-145381849D01*
X186528272Y-145411601D01*
X186535937Y-145432835D01*
X186548814Y-145451896D01*
X186565171Y-145469617D01*
X186591329Y-145483028D01*
X186630742Y-145486436D01*
X186665559Y-145483471D01*
X186700020Y-145468631D01*
X186722215Y-145438569D01*
X186734097Y-145390254D01*
X186737624Y-145320650D01*
X186736712Y-145283624D01*
X186727609Y-145213728D01*
X186708828Y-145166464D01*
X186680476Y-145142168D01*
X186651840Y-145135332D01*
X186601970Y-145138537D01*
X186559833Y-145158380D01*
X186549749Y-145167480D01*
X186539063Y-145183223D01*
X186532456Y-145206658D01*
X186528532Y-145243604D01*
X186525897Y-145299880D01*
X186524749Y-145337236D01*
X186391915Y-145337236D01*
X186391831Y-145318917D01*
X186391944Y-145286184D01*
X186393872Y-145210044D01*
X186399240Y-145153166D01*
X186409406Y-145111249D01*
X186425725Y-145079996D01*
X186449553Y-145055106D01*
X186482247Y-145032282D01*
X186508759Y-145019184D01*
X186571615Y-145004739D01*
X186637869Y-145006707D01*
X186696757Y-145025433D01*
X186722030Y-145037673D01*
X186734742Y-145038938D01*
X186737624Y-145027798D01*
X186737626Y-145027461D01*
X186743838Y-145016087D01*
X186765260Y-145010256D01*
X186806782Y-145008614D01*
X186875940Y-145008614D01*
X186875940Y-146569136D01*
X186809926Y-146565336D01*
X182800540Y-145008030D02*
X182757289Y-145021245D01*
X182757289Y-145021245D02*
X182729442Y-145037941D01*
X182729442Y-145037941D02*
X182720371Y-145051145D01*
X182720371Y-145051145D02*
X182722868Y-145066797D01*
X182722868Y-145066797D02*
X182739069Y-145091385D01*
X182739069Y-145091385D02*
X182752768Y-145108800D01*
X182752768Y-145108800D02*
X182781008Y-145140283D01*
X182781008Y-145140283D02*
X182802225Y-145153529D01*
X182802225Y-145153529D02*
X182820312Y-145152664D01*
X182820312Y-145152664D02*
X182873965Y-145139010D01*
X182873965Y-145139010D02*
X182913370Y-145139630D01*
X182913370Y-145139630D02*
X182945368Y-145155104D01*
X182945368Y-145155104D02*
X182956110Y-145164161D01*
X182956110Y-145164161D02*
X182990495Y-145196027D01*
X182990495Y-145196027D02*
X182990495Y-145612179D01*
X182990495Y-145612179D02*
X183128812Y-145612179D01*
X183128812Y-145612179D02*
X183128812Y-145008614D01*
X183128812Y-145008614D02*
X183059653Y-145008614D01*
X183059653Y-145008614D02*
X183018131Y-145010256D01*
X183018131Y-145010256D02*
X182996709Y-145016087D01*
X182996709Y-145016087D02*
X182990498Y-145027461D01*
X182990498Y-145027461D02*
X182990495Y-145027798D01*
X182990495Y-145027798D02*
X182987561Y-145039713D01*
X182987561Y-145039713D02*
X182974296Y-145038159D01*
X182974296Y-145038159D02*
X182955916Y-145029563D01*
X182955916Y-145029563D02*
X182917954Y-145013568D01*
X182917954Y-145013568D02*
X182887128Y-145003945D01*
X182887128Y-145003945D02*
X182847464Y-145001478D01*
X182847464Y-145001478D02*
X182800540Y-145008030D01*
X182800540Y-145008030D02*
X182800540Y-145008030D01*
G36*
X182887128Y-145003945D02*
G01*
X182917954Y-145013568D01*
X182955916Y-145029563D01*
X182974296Y-145038159D01*
X182987561Y-145039713D01*
X182990495Y-145027798D01*
X182990498Y-145027461D01*
X182996709Y-145016087D01*
X183018131Y-145010256D01*
X183059653Y-145008614D01*
X183128812Y-145008614D01*
X183128812Y-145612179D01*
X182990495Y-145612179D01*
X182990495Y-145196027D01*
X182956110Y-145164161D01*
X182945368Y-145155104D01*
X182913370Y-145139630D01*
X182873965Y-145139010D01*
X182820312Y-145152664D01*
X182802225Y-145153529D01*
X182781008Y-145140283D01*
X182752768Y-145108800D01*
X182739069Y-145091385D01*
X182722868Y-145066797D01*
X182720371Y-145051145D01*
X182729442Y-145037941D01*
X182757289Y-145021245D01*
X182800540Y-145008030D01*
X182847464Y-145001478D01*
X182887128Y-145003945D01*
G37*
X182887128Y-145003945D02*
X182917954Y-145013568D01*
X182955916Y-145029563D01*
X182974296Y-145038159D01*
X182987561Y-145039713D01*
X182990495Y-145027798D01*
X182990498Y-145027461D01*
X182996709Y-145016087D01*
X183018131Y-145010256D01*
X183059653Y-145008614D01*
X183128812Y-145008614D01*
X183128812Y-145612179D01*
X182990495Y-145612179D01*
X182990495Y-145196027D01*
X182956110Y-145164161D01*
X182945368Y-145155104D01*
X182913370Y-145139630D01*
X182873965Y-145139010D01*
X182820312Y-145152664D01*
X182802225Y-145153529D01*
X182781008Y-145140283D01*
X182752768Y-145108800D01*
X182739069Y-145091385D01*
X182722868Y-145066797D01*
X182720371Y-145051145D01*
X182729442Y-145037941D01*
X182757289Y-145021245D01*
X182800540Y-145008030D01*
X182847464Y-145001478D01*
X182887128Y-145003945D01*
X185354012Y-145019002D02*
X185322717Y-145033950D01*
X185322717Y-145033950D02*
X185292409Y-145055541D01*
X185292409Y-145055541D02*
X185269318Y-145080391D01*
X185269318Y-145080391D02*
X185252500Y-145112087D01*
X185252500Y-145112087D02*
X185241006Y-145154214D01*
X185241006Y-145154214D02*
X185233891Y-145210358D01*
X185233891Y-145210358D02*
X185230207Y-145284106D01*
X185230207Y-145284106D02*
X185229008Y-145379044D01*
X185229008Y-145379044D02*
X185228989Y-145388985D01*
X185228989Y-145388985D02*
X185228713Y-145612179D01*
X185228713Y-145612179D02*
X185367030Y-145612179D01*
X185367030Y-145612179D02*
X185367030Y-145406418D01*
X185367030Y-145406418D02*
X185367128Y-145330189D01*
X185367128Y-145330189D02*
X185367809Y-145274939D01*
X185367809Y-145274939D02*
X185369651Y-145236501D01*
X185369651Y-145236501D02*
X185373233Y-145210706D01*
X185373233Y-145210706D02*
X185379132Y-145193384D01*
X185379132Y-145193384D02*
X185387927Y-145180368D01*
X185387927Y-145180368D02*
X185400180Y-145167507D01*
X185400180Y-145167507D02*
X185443047Y-145139873D01*
X185443047Y-145139873D02*
X185489843Y-145134745D01*
X185489843Y-145134745D02*
X185534424Y-145152217D01*
X185534424Y-145152217D02*
X185549928Y-145165221D01*
X185549928Y-145165221D02*
X185561310Y-145177447D01*
X185561310Y-145177447D02*
X185569481Y-145190540D01*
X185569481Y-145190540D02*
X185574974Y-145208615D01*
X185574974Y-145208615D02*
X185578320Y-145235787D01*
X185578320Y-145235787D02*
X185580051Y-145276170D01*
X185580051Y-145276170D02*
X185580697Y-145333879D01*
X185580697Y-145333879D02*
X185580792Y-145404132D01*
X185580792Y-145404132D02*
X185580792Y-145612179D01*
X185580792Y-145612179D02*
X185719109Y-145612179D01*
X185719109Y-145612179D02*
X185719109Y-145008614D01*
X185719109Y-145008614D02*
X185649950Y-145008614D01*
X185649950Y-145008614D02*
X185608428Y-145010256D01*
X185608428Y-145010256D02*
X185587006Y-145016087D01*
X185587006Y-145016087D02*
X185580795Y-145027461D01*
X185580795Y-145027461D02*
X185580792Y-145027798D01*
X185580792Y-145027798D02*
X185577910Y-145038938D01*
X185577910Y-145038938D02*
X185565199Y-145037674D01*
X185565199Y-145037674D02*
X185539926Y-145025434D01*
X185539926Y-145025434D02*
X185482605Y-145007424D01*
X185482605Y-145007424D02*
X185417037Y-145005421D01*
X185417037Y-145005421D02*
X185354012Y-145019002D01*
X185354012Y-145019002D02*
X185354012Y-145019002D01*
G36*
X185482605Y-145007424D02*
G01*
X185539926Y-145025434D01*
X185565199Y-145037674D01*
X185577910Y-145038938D01*
X185580792Y-145027798D01*
X185580795Y-145027461D01*
X185587006Y-145016087D01*
X185608428Y-145010256D01*
X185649950Y-145008614D01*
X185719109Y-145008614D01*
X185719109Y-145612179D01*
X185580792Y-145612179D01*
X185580792Y-145404132D01*
X185580697Y-145333879D01*
X185580051Y-145276170D01*
X185578320Y-145235787D01*
X185574974Y-145208615D01*
X185569481Y-145190540D01*
X185561310Y-145177447D01*
X185549928Y-145165221D01*
X185534424Y-145152217D01*
X185489843Y-145134745D01*
X185443047Y-145139873D01*
X185400180Y-145167507D01*
X185387927Y-145180368D01*
X185379132Y-145193384D01*
X185373233Y-145210706D01*
X185369651Y-145236501D01*
X185367809Y-145274939D01*
X185367128Y-145330189D01*
X185367030Y-145406418D01*
X185367030Y-145612179D01*
X185228713Y-145612179D01*
X185228989Y-145388985D01*
X185229008Y-145379044D01*
X185230207Y-145284106D01*
X185233891Y-145210358D01*
X185241006Y-145154214D01*
X185252500Y-145112087D01*
X185269318Y-145080391D01*
X185292409Y-145055541D01*
X185322717Y-145033950D01*
X185354012Y-145019002D01*
X185417037Y-145005421D01*
X185482605Y-145007424D01*
G37*
X185482605Y-145007424D02*
X185539926Y-145025434D01*
X185565199Y-145037674D01*
X185577910Y-145038938D01*
X185580792Y-145027798D01*
X185580795Y-145027461D01*
X185587006Y-145016087D01*
X185608428Y-145010256D01*
X185649950Y-145008614D01*
X185719109Y-145008614D01*
X185719109Y-145612179D01*
X185580792Y-145612179D01*
X185580792Y-145404132D01*
X185580697Y-145333879D01*
X185580051Y-145276170D01*
X185578320Y-145235787D01*
X185574974Y-145208615D01*
X185569481Y-145190540D01*
X185561310Y-145177447D01*
X185549928Y-145165221D01*
X185534424Y-145152217D01*
X185489843Y-145134745D01*
X185443047Y-145139873D01*
X185400180Y-145167507D01*
X185387927Y-145180368D01*
X185379132Y-145193384D01*
X185373233Y-145210706D01*
X185369651Y-145236501D01*
X185367809Y-145274939D01*
X185367128Y-145330189D01*
X185367030Y-145406418D01*
X185367030Y-145612179D01*
X185228713Y-145612179D01*
X185228989Y-145388985D01*
X185229008Y-145379044D01*
X185230207Y-145284106D01*
X185233891Y-145210358D01*
X185241006Y-145154214D01*
X185252500Y-145112087D01*
X185269318Y-145080391D01*
X185292409Y-145055541D01*
X185322717Y-145033950D01*
X185354012Y-145019002D01*
X185417037Y-145005421D01*
X185482605Y-145007424D01*
X184801188Y-146567822D02*
X184870346Y-146567822D01*
X184870346Y-146567822D02*
X184910488Y-146566645D01*
X184910488Y-146566645D02*
X184931394Y-146561772D01*
X184931394Y-146561772D02*
X184938922Y-146551186D01*
X184938922Y-146551186D02*
X184939505Y-146544029D01*
X184939505Y-146544029D02*
X184940774Y-146529676D01*
X184940774Y-146529676D02*
X184948779Y-146526923D01*
X184948779Y-146526923D02*
X184969815Y-146535771D01*
X184969815Y-146535771D02*
X184986173Y-146544029D01*
X184986173Y-146544029D02*
X185048977Y-146563597D01*
X185048977Y-146563597D02*
X185117248Y-146564729D01*
X185117248Y-146564729D02*
X185172752Y-146550135D01*
X185172752Y-146550135D02*
X185224438Y-146514877D01*
X185224438Y-146514877D02*
X185263838Y-146462835D01*
X185263838Y-146462835D02*
X185285413Y-146401450D01*
X185285413Y-146401450D02*
X185285962Y-146398018D01*
X185285962Y-146398018D02*
X185289167Y-146360571D01*
X185289167Y-146360571D02*
X185290761Y-146306813D01*
X185290761Y-146306813D02*
X185290633Y-146266155D01*
X185290633Y-146266155D02*
X185153279Y-146266155D01*
X185153279Y-146266155D02*
X185150097Y-146320194D01*
X185150097Y-146320194D02*
X185142859Y-146364735D01*
X185142859Y-146364735D02*
X185133060Y-146389888D01*
X185133060Y-146389888D02*
X185095989Y-146424260D01*
X185095989Y-146424260D02*
X185051974Y-146436582D01*
X185051974Y-146436582D02*
X185006584Y-146426618D01*
X185006584Y-146426618D02*
X184967797Y-146396895D01*
X184967797Y-146396895D02*
X184953108Y-146376905D01*
X184953108Y-146376905D02*
X184944519Y-146353050D01*
X184944519Y-146353050D02*
X184940496Y-146318230D01*
X184940496Y-146318230D02*
X184939505Y-146265930D01*
X184939505Y-146265930D02*
X184941278Y-146214139D01*
X184941278Y-146214139D02*
X184945963Y-146168634D01*
X184945963Y-146168634D02*
X184952603Y-146138181D01*
X184952603Y-146138181D02*
X184953710Y-146135452D01*
X184953710Y-146135452D02*
X184980491Y-146103000D01*
X184980491Y-146103000D02*
X185019579Y-146085183D01*
X185019579Y-146085183D02*
X185063315Y-146082306D01*
X185063315Y-146082306D02*
X185104038Y-146094674D01*
X185104038Y-146094674D02*
X185134087Y-146122593D01*
X185134087Y-146122593D02*
X185137204Y-146128148D01*
X185137204Y-146128148D02*
X185146961Y-146162022D01*
X185146961Y-146162022D02*
X185152277Y-146210728D01*
X185152277Y-146210728D02*
X185153279Y-146266155D01*
X185153279Y-146266155D02*
X185290633Y-146266155D01*
X185290633Y-146266155D02*
X185290568Y-146245540D01*
X185290568Y-146245540D02*
X185289664Y-146212563D01*
X185289664Y-146212563D02*
X185283514Y-146130981D01*
X185283514Y-146130981D02*
X185270733Y-146069730D01*
X185270733Y-146069730D02*
X185249471Y-146024449D01*
X185249471Y-146024449D02*
X185217878Y-145990779D01*
X185217878Y-145990779D02*
X185187207Y-145971014D01*
X185187207Y-145971014D02*
X185144354Y-145957120D01*
X185144354Y-145957120D02*
X185091056Y-145952354D01*
X185091056Y-145952354D02*
X185036480Y-145956236D01*
X185036480Y-145956236D02*
X184989792Y-145968282D01*
X184989792Y-145968282D02*
X184965124Y-145982693D01*
X184965124Y-145982693D02*
X184939505Y-146005878D01*
X184939505Y-146005878D02*
X184939505Y-145712773D01*
X184939505Y-145712773D02*
X184801188Y-145712773D01*
X184801188Y-145712773D02*
X184801188Y-146567822D01*
X184801188Y-146567822D02*
X184801188Y-146567822D01*
G36*
X185289167Y-146360571D02*
G01*
X185285962Y-146398018D01*
X185285413Y-146401450D01*
X185263838Y-146462835D01*
X185224438Y-146514877D01*
X185172752Y-146550135D01*
X185117248Y-146564729D01*
X185048977Y-146563597D01*
X184986173Y-146544029D01*
X184969815Y-146535771D01*
X184948779Y-146526923D01*
X184940774Y-146529676D01*
X184939505Y-146544029D01*
X184938922Y-146551186D01*
X184931394Y-146561772D01*
X184910488Y-146566645D01*
X184870346Y-146567822D01*
X184801188Y-146567822D01*
X184801188Y-146265930D01*
X184939505Y-146265930D01*
X184940496Y-146318230D01*
X184944519Y-146353050D01*
X184953108Y-146376905D01*
X184967797Y-146396895D01*
X185006584Y-146426618D01*
X185051974Y-146436582D01*
X185095989Y-146424260D01*
X185133060Y-146389888D01*
X185142859Y-146364735D01*
X185150097Y-146320194D01*
X185153279Y-146266155D01*
X185152277Y-146210728D01*
X185146961Y-146162022D01*
X185137204Y-146128148D01*
X185134087Y-146122593D01*
X185104038Y-146094674D01*
X185063315Y-146082306D01*
X185019579Y-146085183D01*
X184980491Y-146103000D01*
X184953710Y-146135452D01*
X184952603Y-146138181D01*
X184945963Y-146168634D01*
X184941278Y-146214139D01*
X184939505Y-146265930D01*
X184801188Y-146265930D01*
X184801188Y-145712773D01*
X184939505Y-145712773D01*
X184939505Y-146005878D01*
X184965124Y-145982693D01*
X184989792Y-145968282D01*
X185036480Y-145956236D01*
X185091056Y-145952354D01*
X185144354Y-145957120D01*
X185187207Y-145971014D01*
X185217878Y-145990779D01*
X185249471Y-146024449D01*
X185270733Y-146069730D01*
X185283514Y-146130981D01*
X185289664Y-146212563D01*
X185290568Y-146245540D01*
X185290633Y-146266155D01*
X185290761Y-146306813D01*
X185289167Y-146360571D01*
G37*
X185289167Y-146360571D02*
X185285962Y-146398018D01*
X185285413Y-146401450D01*
X185263838Y-146462835D01*
X185224438Y-146514877D01*
X185172752Y-146550135D01*
X185117248Y-146564729D01*
X185048977Y-146563597D01*
X184986173Y-146544029D01*
X184969815Y-146535771D01*
X184948779Y-146526923D01*
X184940774Y-146529676D01*
X184939505Y-146544029D01*
X184938922Y-146551186D01*
X184931394Y-146561772D01*
X184910488Y-146566645D01*
X184870346Y-146567822D01*
X184801188Y-146567822D01*
X184801188Y-146265930D01*
X184939505Y-146265930D01*
X184940496Y-146318230D01*
X184944519Y-146353050D01*
X184953108Y-146376905D01*
X184967797Y-146396895D01*
X185006584Y-146426618D01*
X185051974Y-146436582D01*
X185095989Y-146424260D01*
X185133060Y-146389888D01*
X185142859Y-146364735D01*
X185150097Y-146320194D01*
X185153279Y-146266155D01*
X185152277Y-146210728D01*
X185146961Y-146162022D01*
X185137204Y-146128148D01*
X185134087Y-146122593D01*
X185104038Y-146094674D01*
X185063315Y-146082306D01*
X185019579Y-146085183D01*
X184980491Y-146103000D01*
X184953710Y-146135452D01*
X184952603Y-146138181D01*
X184945963Y-146168634D01*
X184941278Y-146214139D01*
X184939505Y-146265930D01*
X184801188Y-146265930D01*
X184801188Y-145712773D01*
X184939505Y-145712773D01*
X184939505Y-146005878D01*
X184965124Y-145982693D01*
X184989792Y-145968282D01*
X185036480Y-145956236D01*
X185091056Y-145952354D01*
X185144354Y-145957120D01*
X185187207Y-145971014D01*
X185217878Y-145990779D01*
X185249471Y-146024449D01*
X185270733Y-146069730D01*
X185283514Y-146130981D01*
X185289664Y-146212563D01*
X185290568Y-146245540D01*
X185290633Y-146266155D01*
X185290761Y-146306813D01*
X185289167Y-146360571D01*
X185984210Y-145956555D02*
X185925055Y-145972339D01*
X185925055Y-145972339D02*
X185880023Y-146000948D01*
X185880023Y-146000948D02*
X185848246Y-146038419D01*
X185848246Y-146038419D02*
X185838366Y-146054411D01*
X185838366Y-146054411D02*
X185831073Y-146071163D01*
X185831073Y-146071163D02*
X185825974Y-146092592D01*
X185825974Y-146092592D02*
X185822679Y-146122616D01*
X185822679Y-146122616D02*
X185820797Y-146165154D01*
X185820797Y-146165154D02*
X185819937Y-146224122D01*
X185819937Y-146224122D02*
X185819707Y-146303440D01*
X185819707Y-146303440D02*
X185819703Y-146324484D01*
X185819703Y-146324484D02*
X185819703Y-146567822D01*
X185819703Y-146567822D02*
X185880059Y-146567822D01*
X185880059Y-146567822D02*
X185918557Y-146565126D01*
X185918557Y-146565126D02*
X185947023Y-146558295D01*
X185947023Y-146558295D02*
X185954155Y-146554083D01*
X185954155Y-146554083D02*
X185973652Y-146546813D01*
X185973652Y-146546813D02*
X185993566Y-146554083D01*
X185993566Y-146554083D02*
X186026353Y-146563160D01*
X186026353Y-146563160D02*
X186073978Y-146566813D01*
X186073978Y-146566813D02*
X186126764Y-146565228D01*
X186126764Y-146565228D02*
X186175036Y-146558589D01*
X186175036Y-146558589D02*
X186203218Y-146550072D01*
X186203218Y-146550072D02*
X186257753Y-146515063D01*
X186257753Y-146515063D02*
X186291835Y-146466479D01*
X186291835Y-146466479D02*
X186307157Y-146401882D01*
X186307157Y-146401882D02*
X186307299Y-146400223D01*
X186307299Y-146400223D02*
X186305955Y-146371566D01*
X186305955Y-146371566D02*
X186184356Y-146371566D01*
X186184356Y-146371566D02*
X186173726Y-146404161D01*
X186173726Y-146404161D02*
X186156410Y-146422505D01*
X186156410Y-146422505D02*
X186121652Y-146436379D01*
X186121652Y-146436379D02*
X186075773Y-146441917D01*
X186075773Y-146441917D02*
X186028988Y-146439191D01*
X186028988Y-146439191D02*
X185991514Y-146428274D01*
X185991514Y-146428274D02*
X185981015Y-146421269D01*
X185981015Y-146421269D02*
X185962668Y-146388904D01*
X185962668Y-146388904D02*
X185958020Y-146352111D01*
X185958020Y-146352111D02*
X185958020Y-146303763D01*
X185958020Y-146303763D02*
X186027582Y-146303763D01*
X186027582Y-146303763D02*
X186093667Y-146308850D01*
X186093667Y-146308850D02*
X186143764Y-146323263D01*
X186143764Y-146323263D02*
X186174929Y-146345729D01*
X186174929Y-146345729D02*
X186184356Y-146371566D01*
X186184356Y-146371566D02*
X186305955Y-146371566D01*
X186305955Y-146371566D02*
X186303987Y-146329647D01*
X186303987Y-146329647D02*
X186280710Y-146273845D01*
X186280710Y-146273845D02*
X186236948Y-146231647D01*
X186236948Y-146231647D02*
X186230899Y-146227808D01*
X186230899Y-146227808D02*
X186204907Y-146215309D01*
X186204907Y-146215309D02*
X186172735Y-146207740D01*
X186172735Y-146207740D02*
X186127760Y-146204061D01*
X186127760Y-146204061D02*
X186074331Y-146203216D01*
X186074331Y-146203216D02*
X185958020Y-146203169D01*
X185958020Y-146203169D02*
X185958020Y-146154411D01*
X185958020Y-146154411D02*
X185962953Y-146116581D01*
X185962953Y-146116581D02*
X185975543Y-146091236D01*
X185975543Y-146091236D02*
X185977017Y-146089887D01*
X185977017Y-146089887D02*
X186005034Y-146078800D01*
X186005034Y-146078800D02*
X186047326Y-146074503D01*
X186047326Y-146074503D02*
X186094064Y-146076615D01*
X186094064Y-146076615D02*
X186135418Y-146084756D01*
X186135418Y-146084756D02*
X186159957Y-146096965D01*
X186159957Y-146096965D02*
X186173253Y-146106746D01*
X186173253Y-146106746D02*
X186187294Y-146108613D01*
X186187294Y-146108613D02*
X186206671Y-146100600D01*
X186206671Y-146100600D02*
X186235976Y-146080739D01*
X186235976Y-146080739D02*
X186279803Y-146047063D01*
X186279803Y-146047063D02*
X186283825Y-146043909D01*
X186283825Y-146043909D02*
X186281764Y-146032236D01*
X186281764Y-146032236D02*
X186264568Y-146012822D01*
X186264568Y-146012822D02*
X186238433Y-145991248D01*
X186238433Y-145991248D02*
X186209552Y-145973096D01*
X186209552Y-145973096D02*
X186200478Y-145968809D01*
X186200478Y-145968809D02*
X186167380Y-145960256D01*
X186167380Y-145960256D02*
X186118880Y-145954155D01*
X186118880Y-145954155D02*
X186064695Y-145951708D01*
X186064695Y-145951708D02*
X186062161Y-145951703D01*
X186062161Y-145951703D02*
X185984210Y-145956555D01*
X185984210Y-145956555D02*
X185984210Y-145956555D01*
G36*
X186307157Y-146401882D02*
G01*
X186291835Y-146466479D01*
X186257753Y-146515063D01*
X186203218Y-146550072D01*
X186175036Y-146558589D01*
X186126764Y-146565228D01*
X186073978Y-146566813D01*
X186026353Y-146563160D01*
X185993566Y-146554083D01*
X185973652Y-146546813D01*
X185954155Y-146554083D01*
X185947023Y-146558295D01*
X185918557Y-146565126D01*
X185880059Y-146567822D01*
X185819703Y-146567822D01*
X185819703Y-146352111D01*
X185958020Y-146352111D01*
X185962668Y-146388904D01*
X185981015Y-146421269D01*
X185991514Y-146428274D01*
X186028988Y-146439191D01*
X186075773Y-146441917D01*
X186121652Y-146436379D01*
X186156410Y-146422505D01*
X186173726Y-146404161D01*
X186184356Y-146371566D01*
X186174929Y-146345729D01*
X186143764Y-146323263D01*
X186093667Y-146308850D01*
X186027582Y-146303763D01*
X185958020Y-146303763D01*
X185958020Y-146352111D01*
X185819703Y-146352111D01*
X185819703Y-146324484D01*
X185819707Y-146303440D01*
X185819937Y-146224122D01*
X185820797Y-146165154D01*
X185822679Y-146122616D01*
X185825974Y-146092592D01*
X185831073Y-146071163D01*
X185838366Y-146054411D01*
X185848246Y-146038419D01*
X185880023Y-146000948D01*
X185925055Y-145972339D01*
X185984210Y-145956555D01*
X186062161Y-145951703D01*
X186064695Y-145951708D01*
X186118880Y-145954155D01*
X186167380Y-145960256D01*
X186200478Y-145968809D01*
X186209552Y-145973096D01*
X186238433Y-145991248D01*
X186264568Y-146012822D01*
X186281764Y-146032236D01*
X186283825Y-146043909D01*
X186279803Y-146047063D01*
X186235976Y-146080739D01*
X186206671Y-146100600D01*
X186187294Y-146108613D01*
X186173253Y-146106746D01*
X186159957Y-146096965D01*
X186135418Y-146084756D01*
X186094064Y-146076615D01*
X186047326Y-146074503D01*
X186005034Y-146078800D01*
X185977017Y-146089887D01*
X185975543Y-146091236D01*
X185962953Y-146116581D01*
X185958020Y-146154411D01*
X185958020Y-146203169D01*
X186074331Y-146203216D01*
X186127760Y-146204061D01*
X186172735Y-146207740D01*
X186204907Y-146215309D01*
X186230899Y-146227808D01*
X186236948Y-146231647D01*
X186280710Y-146273845D01*
X186303987Y-146329647D01*
X186305955Y-146371566D01*
X186307299Y-146400223D01*
X186307157Y-146401882D01*
G37*
X186307157Y-146401882D02*
X186291835Y-146466479D01*
X186257753Y-146515063D01*
X186203218Y-146550072D01*
X186175036Y-146558589D01*
X186126764Y-146565228D01*
X186073978Y-146566813D01*
X186026353Y-146563160D01*
X185993566Y-146554083D01*
X185973652Y-146546813D01*
X185954155Y-146554083D01*
X185947023Y-146558295D01*
X185918557Y-146565126D01*
X185880059Y-146567822D01*
X185819703Y-146567822D01*
X185819703Y-146352111D01*
X185958020Y-146352111D01*
X185962668Y-146388904D01*
X185981015Y-146421269D01*
X185991514Y-146428274D01*
X186028988Y-146439191D01*
X186075773Y-146441917D01*
X186121652Y-146436379D01*
X186156410Y-146422505D01*
X186173726Y-146404161D01*
X186184356Y-146371566D01*
X186174929Y-146345729D01*
X186143764Y-146323263D01*
X186093667Y-146308850D01*
X186027582Y-146303763D01*
X185958020Y-146303763D01*
X185958020Y-146352111D01*
X185819703Y-146352111D01*
X185819703Y-146324484D01*
X185819707Y-146303440D01*
X185819937Y-146224122D01*
X185820797Y-146165154D01*
X185822679Y-146122616D01*
X185825974Y-146092592D01*
X185831073Y-146071163D01*
X185838366Y-146054411D01*
X185848246Y-146038419D01*
X185880023Y-146000948D01*
X185925055Y-145972339D01*
X185984210Y-145956555D01*
X186062161Y-145951703D01*
X186064695Y-145951708D01*
X186118880Y-145954155D01*
X186167380Y-145960256D01*
X186200478Y-145968809D01*
X186209552Y-145973096D01*
X186238433Y-145991248D01*
X186264568Y-146012822D01*
X186281764Y-146032236D01*
X186283825Y-146043909D01*
X186279803Y-146047063D01*
X186235976Y-146080739D01*
X186206671Y-146100600D01*
X186187294Y-146108613D01*
X186173253Y-146106746D01*
X186159957Y-146096965D01*
X186135418Y-146084756D01*
X186094064Y-146076615D01*
X186047326Y-146074503D01*
X186005034Y-146078800D01*
X185977017Y-146089887D01*
X185975543Y-146091236D01*
X185962953Y-146116581D01*
X185958020Y-146154411D01*
X185958020Y-146203169D01*
X186074331Y-146203216D01*
X186127760Y-146204061D01*
X186172735Y-146207740D01*
X186204907Y-146215309D01*
X186230899Y-146227808D01*
X186236948Y-146231647D01*
X186280710Y-146273845D01*
X186303987Y-146329647D01*
X186305955Y-146371566D01*
X186307299Y-146400223D01*
X186307157Y-146401882D01*
X185956699Y-145022614D02*
X185944168Y-145028514D01*
X185944168Y-145028514D02*
X185900799Y-145060283D01*
X185900799Y-145060283D02*
X185859790Y-145106646D01*
X185859790Y-145106646D02*
X185829168Y-145157696D01*
X185829168Y-145157696D02*
X185820459Y-145181166D01*
X185820459Y-145181166D02*
X185812512Y-145223091D01*
X185812512Y-145223091D02*
X185807774Y-145273757D01*
X185807774Y-145273757D02*
X185807199Y-145294679D01*
X185807199Y-145294679D02*
X185807129Y-145360693D01*
X185807129Y-145360693D02*
X186187083Y-145360693D01*
X186187083Y-145360693D02*
X186178983Y-145395273D01*
X186178983Y-145395273D02*
X186159104Y-145436170D01*
X186159104Y-145436170D02*
X186124347Y-145471514D01*
X186124347Y-145471514D02*
X186082998Y-145494282D01*
X186082998Y-145494282D02*
X186056649Y-145499010D01*
X186056649Y-145499010D02*
X186020916Y-145493273D01*
X186020916Y-145493273D02*
X185978282Y-145478882D01*
X185978282Y-145478882D02*
X185963799Y-145472262D01*
X185963799Y-145472262D02*
X185910240Y-145445513D01*
X185910240Y-145445513D02*
X185864533Y-145480376D01*
X185864533Y-145480376D02*
X185838158Y-145503955D01*
X185838158Y-145503955D02*
X185824124Y-145523417D01*
X185824124Y-145523417D02*
X185823414Y-145529129D01*
X185823414Y-145529129D02*
X185835951Y-145542973D01*
X185835951Y-145542973D02*
X185863428Y-145564012D01*
X185863428Y-145564012D02*
X185888366Y-145580425D01*
X185888366Y-145580425D02*
X185955664Y-145609930D01*
X185955664Y-145609930D02*
X186031110Y-145623284D01*
X186031110Y-145623284D02*
X186105888Y-145619812D01*
X186105888Y-145619812D02*
X186165495Y-145601663D01*
X186165495Y-145601663D02*
X186226941Y-145562784D01*
X186226941Y-145562784D02*
X186270608Y-145511595D01*
X186270608Y-145511595D02*
X186297926Y-145445367D01*
X186297926Y-145445367D02*
X186310322Y-145361371D01*
X186310322Y-145361371D02*
X186311421Y-145322936D01*
X186311421Y-145322936D02*
X186307022Y-145234861D01*
X186307022Y-145234861D02*
X186306482Y-145232299D01*
X186306482Y-145232299D02*
X186180582Y-145232299D01*
X186180582Y-145232299D02*
X186177115Y-145240558D01*
X186177115Y-145240558D02*
X186162863Y-145245113D01*
X186162863Y-145245113D02*
X186133470Y-145247065D01*
X186133470Y-145247065D02*
X186084575Y-145247517D01*
X186084575Y-145247517D02*
X186065748Y-145247525D01*
X186065748Y-145247525D02*
X186008467Y-145246843D01*
X186008467Y-145246843D02*
X185972141Y-145244364D01*
X185972141Y-145244364D02*
X185952604Y-145239443D01*
X185952604Y-145239443D02*
X185945690Y-145231434D01*
X185945690Y-145231434D02*
X185945445Y-145228862D01*
X185945445Y-145228862D02*
X185953336Y-145208423D01*
X185953336Y-145208423D02*
X185973085Y-145179789D01*
X185973085Y-145179789D02*
X185981575Y-145169763D01*
X185981575Y-145169763D02*
X186013094Y-145141408D01*
X186013094Y-145141408D02*
X186045949Y-145130259D01*
X186045949Y-145130259D02*
X186063651Y-145129327D01*
X186063651Y-145129327D02*
X186111539Y-145140981D01*
X186111539Y-145140981D02*
X186151699Y-145172285D01*
X186151699Y-145172285D02*
X186177173Y-145217752D01*
X186177173Y-145217752D02*
X186177625Y-145219233D01*
X186177625Y-145219233D02*
X186180582Y-145232299D01*
X186180582Y-145232299D02*
X186306482Y-145232299D01*
X186306482Y-145232299D02*
X186292392Y-145165510D01*
X186292392Y-145165510D02*
X186266038Y-145110025D01*
X186266038Y-145110025D02*
X186233807Y-145070639D01*
X186233807Y-145070639D02*
X186174217Y-145027931D01*
X186174217Y-145027931D02*
X186104168Y-145005109D01*
X186104168Y-145005109D02*
X186029661Y-145003046D01*
X186029661Y-145003046D02*
X185956699Y-145022614D01*
X185956699Y-145022614D02*
X185956699Y-145022614D01*
G36*
X186311421Y-145322936D02*
G01*
X186310322Y-145361371D01*
X186297926Y-145445367D01*
X186270608Y-145511595D01*
X186226941Y-145562784D01*
X186165495Y-145601663D01*
X186105888Y-145619812D01*
X186031110Y-145623284D01*
X185955664Y-145609930D01*
X185888366Y-145580425D01*
X185863428Y-145564012D01*
X185835951Y-145542973D01*
X185823414Y-145529129D01*
X185824124Y-145523417D01*
X185838158Y-145503955D01*
X185864533Y-145480376D01*
X185910240Y-145445513D01*
X185963799Y-145472262D01*
X185978282Y-145478882D01*
X186020916Y-145493273D01*
X186056649Y-145499010D01*
X186082998Y-145494282D01*
X186124347Y-145471514D01*
X186159104Y-145436170D01*
X186178983Y-145395273D01*
X186187083Y-145360693D01*
X185807129Y-145360693D01*
X185807199Y-145294679D01*
X185807774Y-145273757D01*
X185811972Y-145228862D01*
X185945445Y-145228862D01*
X185945690Y-145231434D01*
X185952604Y-145239443D01*
X185972141Y-145244364D01*
X186008467Y-145246843D01*
X186065748Y-145247525D01*
X186084575Y-145247517D01*
X186133470Y-145247065D01*
X186162863Y-145245113D01*
X186177115Y-145240558D01*
X186180582Y-145232299D01*
X186177625Y-145219233D01*
X186177173Y-145217752D01*
X186151699Y-145172285D01*
X186111539Y-145140981D01*
X186063651Y-145129327D01*
X186045949Y-145130259D01*
X186013094Y-145141408D01*
X185981575Y-145169763D01*
X185973085Y-145179789D01*
X185953336Y-145208423D01*
X185945445Y-145228862D01*
X185811972Y-145228862D01*
X185812512Y-145223091D01*
X185820459Y-145181166D01*
X185829168Y-145157696D01*
X185859790Y-145106646D01*
X185900799Y-145060283D01*
X185944168Y-145028514D01*
X185956699Y-145022614D01*
X186029661Y-145003046D01*
X186104168Y-145005109D01*
X186174217Y-145027931D01*
X186233807Y-145070639D01*
X186266038Y-145110025D01*
X186292392Y-145165510D01*
X186306482Y-145232299D01*
X186307022Y-145234861D01*
X186311421Y-145322936D01*
G37*
X186311421Y-145322936D02*
X186310322Y-145361371D01*
X186297926Y-145445367D01*
X186270608Y-145511595D01*
X186226941Y-145562784D01*
X186165495Y-145601663D01*
X186105888Y-145619812D01*
X186031110Y-145623284D01*
X185955664Y-145609930D01*
X185888366Y-145580425D01*
X185863428Y-145564012D01*
X185835951Y-145542973D01*
X185823414Y-145529129D01*
X185824124Y-145523417D01*
X185838158Y-145503955D01*
X185864533Y-145480376D01*
X185910240Y-145445513D01*
X185963799Y-145472262D01*
X185978282Y-145478882D01*
X186020916Y-145493273D01*
X186056649Y-145499010D01*
X186082998Y-145494282D01*
X186124347Y-145471514D01*
X186159104Y-145436170D01*
X186178983Y-145395273D01*
X186187083Y-145360693D01*
X185807129Y-145360693D01*
X185807199Y-145294679D01*
X185807774Y-145273757D01*
X185811972Y-145228862D01*
X185945445Y-145228862D01*
X185945690Y-145231434D01*
X185952604Y-145239443D01*
X185972141Y-145244364D01*
X186008467Y-145246843D01*
X186065748Y-145247525D01*
X186084575Y-145247517D01*
X186133470Y-145247065D01*
X186162863Y-145245113D01*
X186177115Y-145240558D01*
X186180582Y-145232299D01*
X186177625Y-145219233D01*
X186177173Y-145217752D01*
X186151699Y-145172285D01*
X186111539Y-145140981D01*
X186063651Y-145129327D01*
X186045949Y-145130259D01*
X186013094Y-145141408D01*
X185981575Y-145169763D01*
X185973085Y-145179789D01*
X185953336Y-145208423D01*
X185945445Y-145228862D01*
X185811972Y-145228862D01*
X185812512Y-145223091D01*
X185820459Y-145181166D01*
X185829168Y-145157696D01*
X185859790Y-145106646D01*
X185900799Y-145060283D01*
X185944168Y-145028514D01*
X185956699Y-145022614D01*
X186029661Y-145003046D01*
X186104168Y-145005109D01*
X186174217Y-145027931D01*
X186233807Y-145070639D01*
X186266038Y-145110025D01*
X186292392Y-145165510D01*
X186306482Y-145232299D01*
X186307022Y-145234861D01*
X186311421Y-145322936D01*
X187138261Y-145015148D02*
X187072479Y-145044231D01*
X187072479Y-145044231D02*
X187022540Y-145092793D01*
X187022540Y-145092793D02*
X186988374Y-145160908D01*
X186988374Y-145160908D02*
X186969907Y-145248651D01*
X186969907Y-145248651D02*
X186968583Y-145262351D01*
X186968583Y-145262351D02*
X186967546Y-145358939D01*
X186967546Y-145358939D02*
X186980993Y-145443602D01*
X186980993Y-145443602D02*
X187008108Y-145512221D01*
X187008108Y-145512221D02*
X187022627Y-145534294D01*
X187022627Y-145534294D02*
X187073201Y-145581011D01*
X187073201Y-145581011D02*
X187137609Y-145611268D01*
X187137609Y-145611268D02*
X187209666Y-145623824D01*
X187209666Y-145623824D02*
X187283185Y-145617439D01*
X187283185Y-145617439D02*
X187339072Y-145597772D01*
X187339072Y-145597772D02*
X187387132Y-145564629D01*
X187387132Y-145564629D02*
X187426412Y-145521175D01*
X187426412Y-145521175D02*
X187427092Y-145520158D01*
X187427092Y-145520158D02*
X187443044Y-145493338D01*
X187443044Y-145493338D02*
X187453410Y-145466368D01*
X187453410Y-145466368D02*
X187459688Y-145432332D01*
X187459688Y-145432332D02*
X187463373Y-145384310D01*
X187463373Y-145384310D02*
X187464997Y-145344931D01*
X187464997Y-145344931D02*
X187465672Y-145309219D01*
X187465672Y-145309219D02*
X187339955Y-145309219D01*
X187339955Y-145309219D02*
X187338726Y-145344770D01*
X187338726Y-145344770D02*
X187334266Y-145392094D01*
X187334266Y-145392094D02*
X187326397Y-145422465D01*
X187326397Y-145422465D02*
X187312207Y-145444072D01*
X187312207Y-145444072D02*
X187298917Y-145456694D01*
X187298917Y-145456694D02*
X187251802Y-145483122D01*
X187251802Y-145483122D02*
X187202505Y-145486653D01*
X187202505Y-145486653D02*
X187156593Y-145467639D01*
X187156593Y-145467639D02*
X187133638Y-145446331D01*
X187133638Y-145446331D02*
X187117096Y-145424859D01*
X187117096Y-145424859D02*
X187107421Y-145404313D01*
X187107421Y-145404313D02*
X187103174Y-145377574D01*
X187103174Y-145377574D02*
X187102920Y-145337523D01*
X187102920Y-145337523D02*
X187104228Y-145300638D01*
X187104228Y-145300638D02*
X187107043Y-145247947D01*
X187107043Y-145247947D02*
X187111505Y-145213772D01*
X187111505Y-145213772D02*
X187119548Y-145191480D01*
X187119548Y-145191480D02*
X187133103Y-145174442D01*
X187133103Y-145174442D02*
X187143845Y-145164703D01*
X187143845Y-145164703D02*
X187188777Y-145139123D01*
X187188777Y-145139123D02*
X187237249Y-145137847D01*
X187237249Y-145137847D02*
X187277894Y-145152999D01*
X187277894Y-145152999D02*
X187312567Y-145184642D01*
X187312567Y-145184642D02*
X187333224Y-145236620D01*
X187333224Y-145236620D02*
X187339955Y-145309219D01*
X187339955Y-145309219D02*
X187465672Y-145309219D01*
X187465672Y-145309219D02*
X187466479Y-145266621D01*
X187466479Y-145266621D02*
X187463948Y-145208056D01*
X187463948Y-145208056D02*
X187456362Y-145164007D01*
X187456362Y-145164007D02*
X187442681Y-145129248D01*
X187442681Y-145129248D02*
X187421865Y-145098551D01*
X187421865Y-145098551D02*
X187414147Y-145089436D01*
X187414147Y-145089436D02*
X187365889Y-145044021D01*
X187365889Y-145044021D02*
X187314128Y-145017493D01*
X187314128Y-145017493D02*
X187250828Y-145006379D01*
X187250828Y-145006379D02*
X187219961Y-145005471D01*
X187219961Y-145005471D02*
X187138261Y-145015148D01*
X187138261Y-145015148D02*
X187138261Y-145015148D01*
G36*
X187463373Y-145384310D02*
G01*
X187459688Y-145432332D01*
X187453410Y-145466368D01*
X187443044Y-145493338D01*
X187427092Y-145520158D01*
X187426412Y-145521175D01*
X187387132Y-145564629D01*
X187339072Y-145597772D01*
X187283185Y-145617439D01*
X187209666Y-145623824D01*
X187137609Y-145611268D01*
X187073201Y-145581011D01*
X187022627Y-145534294D01*
X187008108Y-145512221D01*
X186980993Y-145443602D01*
X186967546Y-145358939D01*
X186967776Y-145337523D01*
X187102920Y-145337523D01*
X187103174Y-145377574D01*
X187107421Y-145404313D01*
X187117096Y-145424859D01*
X187133638Y-145446331D01*
X187156593Y-145467639D01*
X187202505Y-145486653D01*
X187251802Y-145483122D01*
X187298917Y-145456694D01*
X187312207Y-145444072D01*
X187326397Y-145422465D01*
X187334266Y-145392094D01*
X187338726Y-145344770D01*
X187339955Y-145309219D01*
X187333224Y-145236620D01*
X187312567Y-145184642D01*
X187277894Y-145152999D01*
X187237249Y-145137847D01*
X187188777Y-145139123D01*
X187143845Y-145164703D01*
X187133103Y-145174442D01*
X187119548Y-145191480D01*
X187111505Y-145213772D01*
X187107043Y-145247947D01*
X187104228Y-145300638D01*
X187102920Y-145337523D01*
X186967776Y-145337523D01*
X186968583Y-145262351D01*
X186969907Y-145248651D01*
X186988374Y-145160908D01*
X187022540Y-145092793D01*
X187072479Y-145044231D01*
X187138261Y-145015148D01*
X187219961Y-145005471D01*
X187250828Y-145006379D01*
X187314128Y-145017493D01*
X187365889Y-145044021D01*
X187414147Y-145089436D01*
X187421865Y-145098551D01*
X187442681Y-145129248D01*
X187456362Y-145164007D01*
X187463948Y-145208056D01*
X187466479Y-145266621D01*
X187465672Y-145309219D01*
X187464997Y-145344931D01*
X187463373Y-145384310D01*
G37*
X187463373Y-145384310D02*
X187459688Y-145432332D01*
X187453410Y-145466368D01*
X187443044Y-145493338D01*
X187427092Y-145520158D01*
X187426412Y-145521175D01*
X187387132Y-145564629D01*
X187339072Y-145597772D01*
X187283185Y-145617439D01*
X187209666Y-145623824D01*
X187137609Y-145611268D01*
X187073201Y-145581011D01*
X187022627Y-145534294D01*
X187008108Y-145512221D01*
X186980993Y-145443602D01*
X186967546Y-145358939D01*
X186967776Y-145337523D01*
X187102920Y-145337523D01*
X187103174Y-145377574D01*
X187107421Y-145404313D01*
X187117096Y-145424859D01*
X187133638Y-145446331D01*
X187156593Y-145467639D01*
X187202505Y-145486653D01*
X187251802Y-145483122D01*
X187298917Y-145456694D01*
X187312207Y-145444072D01*
X187326397Y-145422465D01*
X187334266Y-145392094D01*
X187338726Y-145344770D01*
X187339955Y-145309219D01*
X187333224Y-145236620D01*
X187312567Y-145184642D01*
X187277894Y-145152999D01*
X187237249Y-145137847D01*
X187188777Y-145139123D01*
X187143845Y-145164703D01*
X187133103Y-145174442D01*
X187119548Y-145191480D01*
X187111505Y-145213772D01*
X187107043Y-145247947D01*
X187104228Y-145300638D01*
X187102920Y-145337523D01*
X186967776Y-145337523D01*
X186968583Y-145262351D01*
X186969907Y-145248651D01*
X186988374Y-145160908D01*
X187022540Y-145092793D01*
X187072479Y-145044231D01*
X187138261Y-145015148D01*
X187219961Y-145005471D01*
X187250828Y-145006379D01*
X187314128Y-145017493D01*
X187365889Y-145044021D01*
X187414147Y-145089436D01*
X187421865Y-145098551D01*
X187442681Y-145129248D01*
X187456362Y-145164007D01*
X187463948Y-145208056D01*
X187466479Y-145266621D01*
X187465672Y-145309219D01*
X187464997Y-145344931D01*
X187463373Y-145384310D01*
X184585983Y-145006452D02*
X184538366Y-145015482D01*
X184538366Y-145015482D02*
X184488966Y-145034370D01*
X184488966Y-145034370D02*
X184483688Y-145036777D01*
X184483688Y-145036777D02*
X184446226Y-145056476D01*
X184446226Y-145056476D02*
X184420283Y-145074781D01*
X184420283Y-145074781D02*
X184411897Y-145086508D01*
X184411897Y-145086508D02*
X184419883Y-145105632D01*
X184419883Y-145105632D02*
X184439280Y-145133850D01*
X184439280Y-145133850D02*
X184447890Y-145144384D01*
X184447890Y-145144384D02*
X184483372Y-145185847D01*
X184483372Y-145185847D02*
X184529115Y-145158858D01*
X184529115Y-145158858D02*
X184572650Y-145140878D01*
X184572650Y-145140878D02*
X184622950Y-145131267D01*
X184622950Y-145131267D02*
X184671188Y-145130660D01*
X184671188Y-145130660D02*
X184708533Y-145139691D01*
X184708533Y-145139691D02*
X184717495Y-145145327D01*
X184717495Y-145145327D02*
X184734563Y-145171171D01*
X184734563Y-145171171D02*
X184736637Y-145200941D01*
X184736637Y-145200941D02*
X184723866Y-145224197D01*
X184723866Y-145224197D02*
X184716312Y-145228708D01*
X184716312Y-145228708D02*
X184693675Y-145234309D01*
X184693675Y-145234309D02*
X184653885Y-145240892D01*
X184653885Y-145240892D02*
X184604834Y-145247183D01*
X184604834Y-145247183D02*
X184595785Y-145248170D01*
X184595785Y-145248170D02*
X184517004Y-145261798D01*
X184517004Y-145261798D02*
X184459864Y-145284946D01*
X184459864Y-145284946D02*
X184421970Y-145319752D01*
X184421970Y-145319752D02*
X184400921Y-145368354D01*
X184400921Y-145368354D02*
X184394365Y-145427718D01*
X184394365Y-145427718D02*
X184403423Y-145495198D01*
X184403423Y-145495198D02*
X184432836Y-145548188D01*
X184432836Y-145548188D02*
X184482722Y-145586783D01*
X184482722Y-145586783D02*
X184553200Y-145611081D01*
X184553200Y-145611081D02*
X184631435Y-145620667D01*
X184631435Y-145620667D02*
X184695234Y-145620552D01*
X184695234Y-145620552D02*
X184746984Y-145611845D01*
X184746984Y-145611845D02*
X184782327Y-145599825D01*
X184782327Y-145599825D02*
X184826983Y-145578880D01*
X184826983Y-145578880D02*
X184868253Y-145554574D01*
X184868253Y-145554574D02*
X184882921Y-145543876D01*
X184882921Y-145543876D02*
X184920643Y-145513084D01*
X184920643Y-145513084D02*
X184875148Y-145467049D01*
X184875148Y-145467049D02*
X184829653Y-145421013D01*
X184829653Y-145421013D02*
X184777928Y-145455243D01*
X184777928Y-145455243D02*
X184726048Y-145480952D01*
X184726048Y-145480952D02*
X184670649Y-145494399D01*
X184670649Y-145494399D02*
X184617395Y-145495818D01*
X184617395Y-145495818D02*
X184571951Y-145485443D01*
X184571951Y-145485443D02*
X184539984Y-145463507D01*
X184539984Y-145463507D02*
X184529662Y-145444998D01*
X184529662Y-145444998D02*
X184531211Y-145415314D01*
X184531211Y-145415314D02*
X184556860Y-145392615D01*
X184556860Y-145392615D02*
X184606540Y-145376940D01*
X184606540Y-145376940D02*
X184660969Y-145369695D01*
X184660969Y-145369695D02*
X184744736Y-145355873D01*
X184744736Y-145355873D02*
X184806967Y-145329796D01*
X184806967Y-145329796D02*
X184848493Y-145290699D01*
X184848493Y-145290699D02*
X184870147Y-145237820D01*
X184870147Y-145237820D02*
X184873147Y-145175126D01*
X184873147Y-145175126D02*
X184858329Y-145109642D01*
X184858329Y-145109642D02*
X184824546Y-145060144D01*
X184824546Y-145060144D02*
X184771495Y-145026408D01*
X184771495Y-145026408D02*
X184698874Y-145008207D01*
X184698874Y-145008207D02*
X184645072Y-145004639D01*
X184645072Y-145004639D02*
X184585983Y-145006452D01*
X184585983Y-145006452D02*
X184585983Y-145006452D01*
G36*
X184698874Y-145008207D02*
G01*
X184771495Y-145026408D01*
X184824546Y-145060144D01*
X184858329Y-145109642D01*
X184873147Y-145175126D01*
X184870147Y-145237820D01*
X184848493Y-145290699D01*
X184806967Y-145329796D01*
X184744736Y-145355873D01*
X184660969Y-145369695D01*
X184606540Y-145376940D01*
X184556860Y-145392615D01*
X184531211Y-145415314D01*
X184529662Y-145444998D01*
X184539984Y-145463507D01*
X184571951Y-145485443D01*
X184617395Y-145495818D01*
X184670649Y-145494399D01*
X184726048Y-145480952D01*
X184777928Y-145455243D01*
X184829653Y-145421013D01*
X184875148Y-145467049D01*
X184920643Y-145513084D01*
X184882921Y-145543876D01*
X184868253Y-145554574D01*
X184826983Y-145578880D01*
X184782327Y-145599825D01*
X184746984Y-145611845D01*
X184695234Y-145620552D01*
X184631435Y-145620667D01*
X184553200Y-145611081D01*
X184482722Y-145586783D01*
X184432836Y-145548188D01*
X184403423Y-145495198D01*
X184394365Y-145427718D01*
X184400921Y-145368354D01*
X184421970Y-145319752D01*
X184459864Y-145284946D01*
X184517004Y-145261798D01*
X184595785Y-145248170D01*
X184604834Y-145247183D01*
X184653885Y-145240892D01*
X184693675Y-145234309D01*
X184716312Y-145228708D01*
X184723866Y-145224197D01*
X184736637Y-145200941D01*
X184734563Y-145171171D01*
X184717495Y-145145327D01*
X184708533Y-145139691D01*
X184671188Y-145130660D01*
X184622950Y-145131267D01*
X184572650Y-145140878D01*
X184529115Y-145158858D01*
X184483372Y-145185847D01*
X184447890Y-145144384D01*
X184439280Y-145133850D01*
X184419883Y-145105632D01*
X184411897Y-145086508D01*
X184420283Y-145074781D01*
X184446226Y-145056476D01*
X184483688Y-145036777D01*
X184488966Y-145034370D01*
X184538366Y-145015482D01*
X184585983Y-145006452D01*
X184645072Y-145004639D01*
X184698874Y-145008207D01*
G37*
X184698874Y-145008207D02*
X184771495Y-145026408D01*
X184824546Y-145060144D01*
X184858329Y-145109642D01*
X184873147Y-145175126D01*
X184870147Y-145237820D01*
X184848493Y-145290699D01*
X184806967Y-145329796D01*
X184744736Y-145355873D01*
X184660969Y-145369695D01*
X184606540Y-145376940D01*
X184556860Y-145392615D01*
X184531211Y-145415314D01*
X184529662Y-145444998D01*
X184539984Y-145463507D01*
X184571951Y-145485443D01*
X184617395Y-145495818D01*
X184670649Y-145494399D01*
X184726048Y-145480952D01*
X184777928Y-145455243D01*
X184829653Y-145421013D01*
X184875148Y-145467049D01*
X184920643Y-145513084D01*
X184882921Y-145543876D01*
X184868253Y-145554574D01*
X184826983Y-145578880D01*
X184782327Y-145599825D01*
X184746984Y-145611845D01*
X184695234Y-145620552D01*
X184631435Y-145620667D01*
X184553200Y-145611081D01*
X184482722Y-145586783D01*
X184432836Y-145548188D01*
X184403423Y-145495198D01*
X184394365Y-145427718D01*
X184400921Y-145368354D01*
X184421970Y-145319752D01*
X184459864Y-145284946D01*
X184517004Y-145261798D01*
X184595785Y-145248170D01*
X184604834Y-145247183D01*
X184653885Y-145240892D01*
X184693675Y-145234309D01*
X184716312Y-145228708D01*
X184723866Y-145224197D01*
X184736637Y-145200941D01*
X184734563Y-145171171D01*
X184717495Y-145145327D01*
X184708533Y-145139691D01*
X184671188Y-145130660D01*
X184622950Y-145131267D01*
X184572650Y-145140878D01*
X184529115Y-145158858D01*
X184483372Y-145185847D01*
X184447890Y-145144384D01*
X184439280Y-145133850D01*
X184419883Y-145105632D01*
X184411897Y-145086508D01*
X184420283Y-145074781D01*
X184446226Y-145056476D01*
X184483688Y-145036777D01*
X184488966Y-145034370D01*
X184538366Y-145015482D01*
X184585983Y-145006452D01*
X184645072Y-145004639D01*
X184698874Y-145008207D01*
X184318476Y-145954237D02*
X184268745Y-145957971D01*
X184268745Y-145957971D02*
X184138709Y-146347773D01*
X184138709Y-146347773D02*
X184118322Y-146278614D01*
X184118322Y-146278614D02*
X184106054Y-146235874D01*
X184106054Y-146235874D02*
X184089915Y-146178115D01*
X184089915Y-146178115D02*
X184072488Y-146114625D01*
X184072488Y-146114625D02*
X184063274Y-146080570D01*
X184063274Y-146080570D02*
X184028612Y-145951683D01*
X184028612Y-145951683D02*
X183885609Y-145951683D01*
X183885609Y-145951683D02*
X183928354Y-146086857D01*
X183928354Y-146086857D02*
X183949404Y-146153342D01*
X183949404Y-146153342D02*
X183974833Y-146233539D01*
X183974833Y-146233539D02*
X184001390Y-146317193D01*
X184001390Y-146317193D02*
X184025098Y-146391782D01*
X184025098Y-146391782D02*
X184079098Y-146561535D01*
X184079098Y-146561535D02*
X184137402Y-146565328D01*
X184137402Y-146565328D02*
X184195705Y-146569122D01*
X184195705Y-146569122D02*
X184227321Y-146464734D01*
X184227321Y-146464734D02*
X184246818Y-146399889D01*
X184246818Y-146399889D02*
X184268096Y-146328400D01*
X184268096Y-146328400D02*
X184286692Y-146265263D01*
X184286692Y-146265263D02*
X184287426Y-146262750D01*
X184287426Y-146262750D02*
X184301316Y-146219969D01*
X184301316Y-146219969D02*
X184313571Y-146190779D01*
X184313571Y-146190779D02*
X184322154Y-146179741D01*
X184322154Y-146179741D02*
X184323918Y-146181018D01*
X184323918Y-146181018D02*
X184330109Y-146198130D01*
X184330109Y-146198130D02*
X184341872Y-146234787D01*
X184341872Y-146234787D02*
X184357775Y-146286378D01*
X184357775Y-146286378D02*
X184376386Y-146348294D01*
X184376386Y-146348294D02*
X184386457Y-146382352D01*
X184386457Y-146382352D02*
X184440993Y-146567822D01*
X184440993Y-146567822D02*
X184556736Y-146567822D01*
X184556736Y-146567822D02*
X184649263Y-146275471D01*
X184649263Y-146275471D02*
X184675256Y-146193462D01*
X184675256Y-146193462D02*
X184698934Y-146118987D01*
X184698934Y-146118987D02*
X184719180Y-146055544D01*
X184719180Y-146055544D02*
X184734874Y-146006632D01*
X184734874Y-146006632D02*
X184744898Y-145975749D01*
X184744898Y-145975749D02*
X184747945Y-145966726D01*
X184747945Y-145966726D02*
X184745533Y-145957487D01*
X184745533Y-145957487D02*
X184726592Y-145953441D01*
X184726592Y-145953441D02*
X184687177Y-145953846D01*
X184687177Y-145953846D02*
X184681007Y-145954152D01*
X184681007Y-145954152D02*
X184607914Y-145957971D01*
X184607914Y-145957971D02*
X184560043Y-146134010D01*
X184560043Y-146134010D02*
X184542447Y-146198211D01*
X184542447Y-146198211D02*
X184526723Y-146254649D01*
X184526723Y-146254649D02*
X184514254Y-146298422D01*
X184514254Y-146298422D02*
X184506426Y-146324630D01*
X184506426Y-146324630D02*
X184504980Y-146328903D01*
X184504980Y-146328903D02*
X184498986Y-146323990D01*
X184498986Y-146323990D02*
X184486899Y-146298532D01*
X184486899Y-146298532D02*
X184470107Y-146255997D01*
X184470107Y-146255997D02*
X184449997Y-146199850D01*
X184449997Y-146199850D02*
X184432997Y-146149130D01*
X184432997Y-146149130D02*
X184368206Y-145950504D01*
X184368206Y-145950504D02*
X184318476Y-145954237D01*
X184318476Y-145954237D02*
X184318476Y-145954237D01*
G36*
X184432997Y-146149130D02*
G01*
X184449997Y-146199850D01*
X184470107Y-146255997D01*
X184486899Y-146298532D01*
X184498986Y-146323990D01*
X184504980Y-146328903D01*
X184506426Y-146324630D01*
X184514254Y-146298422D01*
X184526723Y-146254649D01*
X184542447Y-146198211D01*
X184560043Y-146134010D01*
X184607914Y-145957971D01*
X184681007Y-145954152D01*
X184687177Y-145953846D01*
X184726592Y-145953441D01*
X184745533Y-145957487D01*
X184747945Y-145966726D01*
X184744898Y-145975749D01*
X184734874Y-146006632D01*
X184719180Y-146055544D01*
X184698934Y-146118987D01*
X184675256Y-146193462D01*
X184649263Y-146275471D01*
X184556736Y-146567822D01*
X184440993Y-146567822D01*
X184386457Y-146382352D01*
X184376386Y-146348294D01*
X184357775Y-146286378D01*
X184341872Y-146234787D01*
X184330109Y-146198130D01*
X184323918Y-146181018D01*
X184322154Y-146179741D01*
X184313571Y-146190779D01*
X184301316Y-146219969D01*
X184287426Y-146262750D01*
X184286692Y-146265263D01*
X184268096Y-146328400D01*
X184246818Y-146399889D01*
X184227321Y-146464734D01*
X184195705Y-146569122D01*
X184137402Y-146565328D01*
X184079098Y-146561535D01*
X184025098Y-146391782D01*
X184001390Y-146317193D01*
X183974833Y-146233539D01*
X183949404Y-146153342D01*
X183928354Y-146086857D01*
X183885609Y-145951683D01*
X184028612Y-145951683D01*
X184063274Y-146080570D01*
X184072488Y-146114625D01*
X184089915Y-146178115D01*
X184106054Y-146235874D01*
X184118322Y-146278614D01*
X184138709Y-146347773D01*
X184268745Y-145957971D01*
X184318476Y-145954237D01*
X184368206Y-145950504D01*
X184432997Y-146149130D01*
G37*
X184432997Y-146149130D02*
X184449997Y-146199850D01*
X184470107Y-146255997D01*
X184486899Y-146298532D01*
X184498986Y-146323990D01*
X184504980Y-146328903D01*
X184506426Y-146324630D01*
X184514254Y-146298422D01*
X184526723Y-146254649D01*
X184542447Y-146198211D01*
X184560043Y-146134010D01*
X184607914Y-145957971D01*
X184681007Y-145954152D01*
X184687177Y-145953846D01*
X184726592Y-145953441D01*
X184745533Y-145957487D01*
X184747945Y-145966726D01*
X184744898Y-145975749D01*
X184734874Y-146006632D01*
X184719180Y-146055544D01*
X184698934Y-146118987D01*
X184675256Y-146193462D01*
X184649263Y-146275471D01*
X184556736Y-146567822D01*
X184440993Y-146567822D01*
X184386457Y-146382352D01*
X184376386Y-146348294D01*
X184357775Y-146286378D01*
X184341872Y-146234787D01*
X184330109Y-146198130D01*
X184323918Y-146181018D01*
X184322154Y-146179741D01*
X184313571Y-146190779D01*
X184301316Y-146219969D01*
X184287426Y-146262750D01*
X184286692Y-146265263D01*
X184268096Y-146328400D01*
X184246818Y-146399889D01*
X184227321Y-146464734D01*
X184195705Y-146569122D01*
X184137402Y-146565328D01*
X184079098Y-146561535D01*
X184025098Y-146391782D01*
X184001390Y-146317193D01*
X183974833Y-146233539D01*
X183949404Y-146153342D01*
X183928354Y-146086857D01*
X183885609Y-145951683D01*
X184028612Y-145951683D01*
X184063274Y-146080570D01*
X184072488Y-146114625D01*
X184089915Y-146178115D01*
X184106054Y-146235874D01*
X184118322Y-146278614D01*
X184138709Y-146347773D01*
X184268745Y-145957971D01*
X184318476Y-145954237D01*
X184368206Y-145950504D01*
X184432997Y-146149130D01*
X182567419Y-145954970D02*
X182507315Y-145970597D01*
X182507315Y-145970597D02*
X182456979Y-146002848D01*
X182456979Y-146002848D02*
X182432607Y-146026940D01*
X182432607Y-146026940D02*
X182392655Y-146083895D01*
X182392655Y-146083895D02*
X182369758Y-146149965D01*
X182369758Y-146149965D02*
X182361892Y-146231182D01*
X182361892Y-146231182D02*
X182361852Y-146237748D01*
X182361852Y-146237748D02*
X182361782Y-146303763D01*
X182361782Y-146303763D02*
X182741736Y-146303763D01*
X182741736Y-146303763D02*
X182733637Y-146338342D01*
X182733637Y-146338342D02*
X182719013Y-146369659D01*
X182719013Y-146369659D02*
X182693419Y-146402291D01*
X182693419Y-146402291D02*
X182688065Y-146407500D01*
X182688065Y-146407500D02*
X182642057Y-146435694D01*
X182642057Y-146435694D02*
X182589590Y-146440475D01*
X182589590Y-146440475D02*
X182529197Y-146421926D01*
X182529197Y-146421926D02*
X182518960Y-146416931D01*
X182518960Y-146416931D02*
X182487561Y-146401745D01*
X182487561Y-146401745D02*
X182466530Y-146393094D01*
X182466530Y-146393094D02*
X182462861Y-146392293D01*
X182462861Y-146392293D02*
X182450052Y-146400063D01*
X182450052Y-146400063D02*
X182425622Y-146419072D01*
X182425622Y-146419072D02*
X182413221Y-146429460D01*
X182413221Y-146429460D02*
X182387524Y-146453321D01*
X182387524Y-146453321D02*
X182379085Y-146469077D01*
X182379085Y-146469077D02*
X182384942Y-146483571D01*
X182384942Y-146483571D02*
X182388072Y-146487534D01*
X182388072Y-146487534D02*
X182409275Y-146504879D01*
X182409275Y-146504879D02*
X182444262Y-146525959D01*
X182444262Y-146525959D02*
X182468663Y-146538265D01*
X182468663Y-146538265D02*
X182537928Y-146559946D01*
X182537928Y-146559946D02*
X182614612Y-146566971D01*
X182614612Y-146566971D02*
X182687235Y-146558647D01*
X182687235Y-146558647D02*
X182707574Y-146552686D01*
X182707574Y-146552686D02*
X182770524Y-146518952D01*
X182770524Y-146518952D02*
X182817185Y-146467045D01*
X182817185Y-146467045D02*
X182847827Y-146396459D01*
X182847827Y-146396459D02*
X182862718Y-146306692D01*
X182862718Y-146306692D02*
X182864353Y-146259753D01*
X182864353Y-146259753D02*
X182859579Y-146191413D01*
X182859579Y-146191413D02*
X182739010Y-146191413D01*
X182739010Y-146191413D02*
X182727348Y-146196465D01*
X182727348Y-146196465D02*
X182696002Y-146200429D01*
X182696002Y-146200429D02*
X182650429Y-146202768D01*
X182650429Y-146202768D02*
X182619554Y-146203169D01*
X182619554Y-146203169D02*
X182564019Y-146202783D01*
X182564019Y-146202783D02*
X182528967Y-146200975D01*
X182528967Y-146200975D02*
X182509738Y-146196773D01*
X182509738Y-146196773D02*
X182501670Y-146189203D01*
X182501670Y-146189203D02*
X182500099Y-146178218D01*
X182500099Y-146178218D02*
X182510879Y-146144381D01*
X182510879Y-146144381D02*
X182538020Y-146110940D01*
X182538020Y-146110940D02*
X182573723Y-146085272D01*
X182573723Y-146085272D02*
X182609440Y-146074772D01*
X182609440Y-146074772D02*
X182657952Y-146084086D01*
X182657952Y-146084086D02*
X182699947Y-146111013D01*
X182699947Y-146111013D02*
X182729064Y-146149827D01*
X182729064Y-146149827D02*
X182739010Y-146191413D01*
X182739010Y-146191413D02*
X182859579Y-146191413D01*
X182859579Y-146191413D02*
X182857401Y-146160236D01*
X182857401Y-146160236D02*
X182835945Y-146080949D01*
X182835945Y-146080949D02*
X182799530Y-146021263D01*
X182799530Y-146021263D02*
X182747703Y-145980549D01*
X182747703Y-145980549D02*
X182680010Y-145958179D01*
X182680010Y-145958179D02*
X182643338Y-145953871D01*
X182643338Y-145953871D02*
X182567419Y-145954970D01*
X182567419Y-145954970D02*
X182567419Y-145954970D01*
G36*
X182862718Y-146306692D02*
G01*
X182847827Y-146396459D01*
X182817185Y-146467045D01*
X182770524Y-146518952D01*
X182707574Y-146552686D01*
X182687235Y-146558647D01*
X182614612Y-146566971D01*
X182537928Y-146559946D01*
X182468663Y-146538265D01*
X182444262Y-146525959D01*
X182409275Y-146504879D01*
X182388072Y-146487534D01*
X182384942Y-146483571D01*
X182379085Y-146469077D01*
X182387524Y-146453321D01*
X182413221Y-146429460D01*
X182425622Y-146419072D01*
X182450052Y-146400063D01*
X182462861Y-146392293D01*
X182466530Y-146393094D01*
X182487561Y-146401745D01*
X182518960Y-146416931D01*
X182529197Y-146421926D01*
X182589590Y-146440475D01*
X182642057Y-146435694D01*
X182688065Y-146407500D01*
X182693419Y-146402291D01*
X182719013Y-146369659D01*
X182733637Y-146338342D01*
X182741736Y-146303763D01*
X182361782Y-146303763D01*
X182361852Y-146237748D01*
X182361892Y-146231182D01*
X182367022Y-146178218D01*
X182500099Y-146178218D01*
X182501670Y-146189203D01*
X182509738Y-146196773D01*
X182528967Y-146200975D01*
X182564019Y-146202783D01*
X182619554Y-146203169D01*
X182650429Y-146202768D01*
X182696002Y-146200429D01*
X182727348Y-146196465D01*
X182739010Y-146191413D01*
X182729064Y-146149827D01*
X182699947Y-146111013D01*
X182657952Y-146084086D01*
X182609440Y-146074772D01*
X182573723Y-146085272D01*
X182538020Y-146110940D01*
X182510879Y-146144381D01*
X182500099Y-146178218D01*
X182367022Y-146178218D01*
X182369758Y-146149965D01*
X182392655Y-146083895D01*
X182432607Y-146026940D01*
X182456979Y-146002848D01*
X182507315Y-145970597D01*
X182567419Y-145954970D01*
X182643338Y-145953871D01*
X182680010Y-145958179D01*
X182747703Y-145980549D01*
X182799530Y-146021263D01*
X182835945Y-146080949D01*
X182857401Y-146160236D01*
X182859579Y-146191413D01*
X182864353Y-146259753D01*
X182862718Y-146306692D01*
G37*
X182862718Y-146306692D02*
X182847827Y-146396459D01*
X182817185Y-146467045D01*
X182770524Y-146518952D01*
X182707574Y-146552686D01*
X182687235Y-146558647D01*
X182614612Y-146566971D01*
X182537928Y-146559946D01*
X182468663Y-146538265D01*
X182444262Y-146525959D01*
X182409275Y-146504879D01*
X182388072Y-146487534D01*
X182384942Y-146483571D01*
X182379085Y-146469077D01*
X182387524Y-146453321D01*
X182413221Y-146429460D01*
X182425622Y-146419072D01*
X182450052Y-146400063D01*
X182462861Y-146392293D01*
X182466530Y-146393094D01*
X182487561Y-146401745D01*
X182518960Y-146416931D01*
X182529197Y-146421926D01*
X182589590Y-146440475D01*
X182642057Y-146435694D01*
X182688065Y-146407500D01*
X182693419Y-146402291D01*
X182719013Y-146369659D01*
X182733637Y-146338342D01*
X182741736Y-146303763D01*
X182361782Y-146303763D01*
X182361852Y-146237748D01*
X182361892Y-146231182D01*
X182367022Y-146178218D01*
X182500099Y-146178218D01*
X182501670Y-146189203D01*
X182509738Y-146196773D01*
X182528967Y-146200975D01*
X182564019Y-146202783D01*
X182619554Y-146203169D01*
X182650429Y-146202768D01*
X182696002Y-146200429D01*
X182727348Y-146196465D01*
X182739010Y-146191413D01*
X182729064Y-146149827D01*
X182699947Y-146111013D01*
X182657952Y-146084086D01*
X182609440Y-146074772D01*
X182573723Y-146085272D01*
X182538020Y-146110940D01*
X182510879Y-146144381D01*
X182500099Y-146178218D01*
X182367022Y-146178218D01*
X182369758Y-146149965D01*
X182392655Y-146083895D01*
X182432607Y-146026940D01*
X182456979Y-146002848D01*
X182507315Y-145970597D01*
X182567419Y-145954970D01*
X182643338Y-145953871D01*
X182680010Y-145958179D01*
X182747703Y-145980549D01*
X182799530Y-146021263D01*
X182835945Y-146080949D01*
X182857401Y-146160236D01*
X182859579Y-146191413D01*
X182864353Y-146259753D01*
X182862718Y-146306692D01*
X183561589Y-145955417D02*
X183508589Y-145968290D01*
X183508589Y-145968290D02*
X183493269Y-145975110D01*
X183493269Y-145975110D02*
X183463572Y-145992974D01*
X183463572Y-145992974D02*
X183440780Y-146013093D01*
X183440780Y-146013093D02*
X183423917Y-146038962D01*
X183423917Y-146038962D02*
X183412002Y-146074073D01*
X183412002Y-146074073D02*
X183404058Y-146121920D01*
X183404058Y-146121920D02*
X183399106Y-146185996D01*
X183399106Y-146185996D02*
X183396169Y-146269794D01*
X183396169Y-146269794D02*
X183395053Y-146325768D01*
X183395053Y-146325768D02*
X183390948Y-146567822D01*
X183390948Y-146567822D02*
X183461068Y-146567822D01*
X183461068Y-146567822D02*
X183503607Y-146566038D01*
X183503607Y-146566038D02*
X183525524Y-146559942D01*
X183525524Y-146559942D02*
X183531188Y-146549706D01*
X183531188Y-146549706D02*
X183534179Y-146538637D01*
X183534179Y-146538637D02*
X183547549Y-146540754D01*
X183547549Y-146540754D02*
X183565767Y-146549629D01*
X183565767Y-146549629D02*
X183611376Y-146563233D01*
X183611376Y-146563233D02*
X183669993Y-146566899D01*
X183669993Y-146566899D02*
X183731646Y-146560903D01*
X183731646Y-146560903D02*
X183786362Y-146545521D01*
X183786362Y-146545521D02*
X183791270Y-146543386D01*
X183791270Y-146543386D02*
X183841277Y-146508255D01*
X183841277Y-146508255D02*
X183874244Y-146459419D01*
X183874244Y-146459419D02*
X183889413Y-146402333D01*
X183889413Y-146402333D02*
X183888254Y-146381824D01*
X183888254Y-146381824D02*
X183764492Y-146381824D01*
X183764492Y-146381824D02*
X183753587Y-146409425D01*
X183753587Y-146409425D02*
X183721255Y-146429204D01*
X183721255Y-146429204D02*
X183669090Y-146439819D01*
X183669090Y-146439819D02*
X183641213Y-146441228D01*
X183641213Y-146441228D02*
X183594753Y-146437620D01*
X183594753Y-146437620D02*
X183563871Y-146423597D01*
X183563871Y-146423597D02*
X183556336Y-146416931D01*
X183556336Y-146416931D02*
X183535924Y-146380666D01*
X183535924Y-146380666D02*
X183531188Y-146347773D01*
X183531188Y-146347773D02*
X183531188Y-146303763D01*
X183531188Y-146303763D02*
X183592487Y-146303763D01*
X183592487Y-146303763D02*
X183663744Y-146307395D01*
X183663744Y-146307395D02*
X183713724Y-146318818D01*
X183713724Y-146318818D02*
X183745304Y-146338824D01*
X183745304Y-146338824D02*
X183752374Y-146347743D01*
X183752374Y-146347743D02*
X183764492Y-146381824D01*
X183764492Y-146381824D02*
X183888254Y-146381824D01*
X183888254Y-146381824D02*
X183886029Y-146342456D01*
X183886029Y-146342456D02*
X183863337Y-146285244D01*
X183863337Y-146285244D02*
X183832376Y-146246580D01*
X183832376Y-146246580D02*
X183813624Y-146229864D01*
X183813624Y-146229864D02*
X183795267Y-146218878D01*
X183795267Y-146218878D02*
X183771381Y-146212180D01*
X183771381Y-146212180D02*
X183736043Y-146208326D01*
X183736043Y-146208326D02*
X183683331Y-146205873D01*
X183683331Y-146205873D02*
X183662423Y-146205168D01*
X183662423Y-146205168D02*
X183531188Y-146200879D01*
X183531188Y-146200879D02*
X183531380Y-146161158D01*
X183531380Y-146161158D02*
X183536463Y-146119405D01*
X183536463Y-146119405D02*
X183554838Y-146094158D01*
X183554838Y-146094158D02*
X183591961Y-146078030D01*
X183591961Y-146078030D02*
X183592957Y-146077742D01*
X183592957Y-146077742D02*
X183645590Y-146071400D01*
X183645590Y-146071400D02*
X183697094Y-146079684D01*
X183697094Y-146079684D02*
X183735370Y-146099827D01*
X183735370Y-146099827D02*
X183750728Y-146109773D01*
X183750728Y-146109773D02*
X183767270Y-146108397D01*
X183767270Y-146108397D02*
X183792725Y-146093987D01*
X183792725Y-146093987D02*
X183807672Y-146083817D01*
X183807672Y-146083817D02*
X183836909Y-146062088D01*
X183836909Y-146062088D02*
X183855020Y-146045800D01*
X183855020Y-146045800D02*
X183857926Y-146041137D01*
X183857926Y-146041137D02*
X183845960Y-146017005D01*
X183845960Y-146017005D02*
X183810604Y-145988185D01*
X183810604Y-145988185D02*
X183795247Y-145978461D01*
X183795247Y-145978461D02*
X183751099Y-145961714D01*
X183751099Y-145961714D02*
X183691602Y-145952227D01*
X183691602Y-145952227D02*
X183625513Y-145950095D01*
X183625513Y-145950095D02*
X183561589Y-145955417D01*
X183561589Y-145955417D02*
X183561589Y-145955417D01*
G36*
X183874244Y-146459419D02*
G01*
X183841277Y-146508255D01*
X183791270Y-146543386D01*
X183786362Y-146545521D01*
X183731646Y-146560903D01*
X183669993Y-146566899D01*
X183611376Y-146563233D01*
X183565767Y-146549629D01*
X183547549Y-146540754D01*
X183534179Y-146538637D01*
X183531188Y-146549706D01*
X183525524Y-146559942D01*
X183503607Y-146566038D01*
X183461068Y-146567822D01*
X183390948Y-146567822D01*
X183394680Y-146347773D01*
X183531188Y-146347773D01*
X183535924Y-146380666D01*
X183556336Y-146416931D01*
X183563871Y-146423597D01*
X183594753Y-146437620D01*
X183641213Y-146441228D01*
X183669090Y-146439819D01*
X183721255Y-146429204D01*
X183753587Y-146409425D01*
X183764492Y-146381824D01*
X183752374Y-146347743D01*
X183745304Y-146338824D01*
X183713724Y-146318818D01*
X183663744Y-146307395D01*
X183592487Y-146303763D01*
X183531188Y-146303763D01*
X183531188Y-146347773D01*
X183394680Y-146347773D01*
X183395053Y-146325768D01*
X183396169Y-146269794D01*
X183399106Y-146185996D01*
X183404058Y-146121920D01*
X183412002Y-146074073D01*
X183423917Y-146038962D01*
X183440780Y-146013093D01*
X183463572Y-145992974D01*
X183493269Y-145975110D01*
X183508589Y-145968290D01*
X183561589Y-145955417D01*
X183625513Y-145950095D01*
X183691602Y-145952227D01*
X183751099Y-145961714D01*
X183795247Y-145978461D01*
X183810604Y-145988185D01*
X183845960Y-146017005D01*
X183857926Y-146041137D01*
X183855020Y-146045800D01*
X183836909Y-146062088D01*
X183807672Y-146083817D01*
X183792725Y-146093987D01*
X183767270Y-146108397D01*
X183750728Y-146109773D01*
X183735370Y-146099827D01*
X183697094Y-146079684D01*
X183645590Y-146071400D01*
X183592957Y-146077742D01*
X183591961Y-146078030D01*
X183554838Y-146094158D01*
X183536463Y-146119405D01*
X183531380Y-146161158D01*
X183531188Y-146200879D01*
X183662423Y-146205168D01*
X183683331Y-146205873D01*
X183736043Y-146208326D01*
X183771381Y-146212180D01*
X183795267Y-146218878D01*
X183813624Y-146229864D01*
X183832376Y-146246580D01*
X183863337Y-146285244D01*
X183886029Y-146342456D01*
X183888254Y-146381824D01*
X183889413Y-146402333D01*
X183874244Y-146459419D01*
G37*
X183874244Y-146459419D02*
X183841277Y-146508255D01*
X183791270Y-146543386D01*
X183786362Y-146545521D01*
X183731646Y-146560903D01*
X183669993Y-146566899D01*
X183611376Y-146563233D01*
X183565767Y-146549629D01*
X183547549Y-146540754D01*
X183534179Y-146538637D01*
X183531188Y-146549706D01*
X183525524Y-146559942D01*
X183503607Y-146566038D01*
X183461068Y-146567822D01*
X183390948Y-146567822D01*
X183394680Y-146347773D01*
X183531188Y-146347773D01*
X183535924Y-146380666D01*
X183556336Y-146416931D01*
X183563871Y-146423597D01*
X183594753Y-146437620D01*
X183641213Y-146441228D01*
X183669090Y-146439819D01*
X183721255Y-146429204D01*
X183753587Y-146409425D01*
X183764492Y-146381824D01*
X183752374Y-146347743D01*
X183745304Y-146338824D01*
X183713724Y-146318818D01*
X183663744Y-146307395D01*
X183592487Y-146303763D01*
X183531188Y-146303763D01*
X183531188Y-146347773D01*
X183394680Y-146347773D01*
X183395053Y-146325768D01*
X183396169Y-146269794D01*
X183399106Y-146185996D01*
X183404058Y-146121920D01*
X183412002Y-146074073D01*
X183423917Y-146038962D01*
X183440780Y-146013093D01*
X183463572Y-145992974D01*
X183493269Y-145975110D01*
X183508589Y-145968290D01*
X183561589Y-145955417D01*
X183625513Y-145950095D01*
X183691602Y-145952227D01*
X183751099Y-145961714D01*
X183795247Y-145978461D01*
X183810604Y-145988185D01*
X183845960Y-146017005D01*
X183857926Y-146041137D01*
X183855020Y-146045800D01*
X183836909Y-146062088D01*
X183807672Y-146083817D01*
X183792725Y-146093987D01*
X183767270Y-146108397D01*
X183750728Y-146109773D01*
X183735370Y-146099827D01*
X183697094Y-146079684D01*
X183645590Y-146071400D01*
X183592957Y-146077742D01*
X183591961Y-146078030D01*
X183554838Y-146094158D01*
X183536463Y-146119405D01*
X183531380Y-146161158D01*
X183531188Y-146200879D01*
X183662423Y-146205168D01*
X183683331Y-146205873D01*
X183736043Y-146208326D01*
X183771381Y-146212180D01*
X183795267Y-146218878D01*
X183813624Y-146229864D01*
X183832376Y-146246580D01*
X183863337Y-146285244D01*
X183886029Y-146342456D01*
X183888254Y-146381824D01*
X183889413Y-146402333D01*
X183874244Y-146459419D01*
X183989238Y-145016055D02*
X183925637Y-145050692D01*
X183925637Y-145050692D02*
X183875877Y-145105372D01*
X183875877Y-145105372D02*
X183852432Y-145149842D01*
X183852432Y-145149842D02*
X183842366Y-145189121D01*
X183842366Y-145189121D02*
X183835844Y-145245116D01*
X183835844Y-145245116D02*
X183833049Y-145309621D01*
X183833049Y-145309621D02*
X183834164Y-145374429D01*
X183834164Y-145374429D02*
X183839374Y-145431334D01*
X183839374Y-145431334D02*
X183845459Y-145461727D01*
X183845459Y-145461727D02*
X183865986Y-145503306D01*
X183865986Y-145503306D02*
X183901537Y-145547468D01*
X183901537Y-145547468D02*
X183944381Y-145586087D01*
X183944381Y-145586087D02*
X183986789Y-145611034D01*
X183986789Y-145611034D02*
X183987823Y-145611430D01*
X183987823Y-145611430D02*
X184040447Y-145622331D01*
X184040447Y-145622331D02*
X184102812Y-145622601D01*
X184102812Y-145622601D02*
X184162076Y-145612676D01*
X184162076Y-145612676D02*
X184184960Y-145604722D01*
X184184960Y-145604722D02*
X184243898Y-145571300D01*
X184243898Y-145571300D02*
X184286110Y-145527511D01*
X184286110Y-145527511D02*
X184313844Y-145469538D01*
X184313844Y-145469538D02*
X184329349Y-145393565D01*
X184329349Y-145393565D02*
X184332857Y-145353771D01*
X184332857Y-145353771D02*
X184332410Y-145303766D01*
X184332410Y-145303766D02*
X184197624Y-145303766D01*
X184197624Y-145303766D02*
X184193083Y-145376732D01*
X184193083Y-145376732D02*
X184180014Y-145432334D01*
X184180014Y-145432334D02*
X184159244Y-145467861D01*
X184159244Y-145467861D02*
X184144448Y-145478020D01*
X184144448Y-145478020D02*
X184106536Y-145485104D01*
X184106536Y-145485104D02*
X184061473Y-145483007D01*
X184061473Y-145483007D02*
X184022513Y-145472812D01*
X184022513Y-145472812D02*
X184012296Y-145467204D01*
X184012296Y-145467204D02*
X183985341Y-145434538D01*
X183985341Y-145434538D02*
X183967549Y-145384545D01*
X183967549Y-145384545D02*
X183959976Y-145323705D01*
X183959976Y-145323705D02*
X183963675Y-145258497D01*
X183963675Y-145258497D02*
X183971943Y-145219253D01*
X183971943Y-145219253D02*
X183995680Y-145173805D01*
X183995680Y-145173805D02*
X184033151Y-145145396D01*
X184033151Y-145145396D02*
X184078280Y-145135573D01*
X184078280Y-145135573D02*
X184124989Y-145145887D01*
X184124989Y-145145887D02*
X184160868Y-145171112D01*
X184160868Y-145171112D02*
X184179723Y-145191925D01*
X184179723Y-145191925D02*
X184190728Y-145212439D01*
X184190728Y-145212439D02*
X184195974Y-145240203D01*
X184195974Y-145240203D02*
X184197551Y-145282762D01*
X184197551Y-145282762D02*
X184197624Y-145303766D01*
X184197624Y-145303766D02*
X184332410Y-145303766D01*
X184332410Y-145303766D02*
X184331906Y-145247580D01*
X184331906Y-145247580D02*
X184314612Y-145160501D01*
X184314612Y-145160501D02*
X184280971Y-145092530D01*
X184280971Y-145092530D02*
X184230982Y-145043664D01*
X184230982Y-145043664D02*
X184164644Y-145013899D01*
X184164644Y-145013899D02*
X184150399Y-145010448D01*
X184150399Y-145010448D02*
X184064790Y-145002345D01*
X184064790Y-145002345D02*
X183989238Y-145016055D01*
X183989238Y-145016055D02*
X183989238Y-145016055D01*
G36*
X184329349Y-145393565D02*
G01*
X184313844Y-145469538D01*
X184286110Y-145527511D01*
X184243898Y-145571300D01*
X184184960Y-145604722D01*
X184162076Y-145612676D01*
X184102812Y-145622601D01*
X184040447Y-145622331D01*
X183987823Y-145611430D01*
X183986789Y-145611034D01*
X183944381Y-145586087D01*
X183901537Y-145547468D01*
X183865986Y-145503306D01*
X183845459Y-145461727D01*
X183839374Y-145431334D01*
X183834164Y-145374429D01*
X183833291Y-145323705D01*
X183959976Y-145323705D01*
X183967549Y-145384545D01*
X183985341Y-145434538D01*
X184012296Y-145467204D01*
X184022513Y-145472812D01*
X184061473Y-145483007D01*
X184106536Y-145485104D01*
X184144448Y-145478020D01*
X184159244Y-145467861D01*
X184180014Y-145432334D01*
X184193083Y-145376732D01*
X184197624Y-145303766D01*
X184197551Y-145282762D01*
X184195974Y-145240203D01*
X184190728Y-145212439D01*
X184179723Y-145191925D01*
X184160868Y-145171112D01*
X184124989Y-145145887D01*
X184078280Y-145135573D01*
X184033151Y-145145396D01*
X183995680Y-145173805D01*
X183971943Y-145219253D01*
X183963675Y-145258497D01*
X183959976Y-145323705D01*
X183833291Y-145323705D01*
X183833049Y-145309621D01*
X183835844Y-145245116D01*
X183842366Y-145189121D01*
X183852432Y-145149842D01*
X183875877Y-145105372D01*
X183925637Y-145050692D01*
X183989238Y-145016055D01*
X184064790Y-145002345D01*
X184150399Y-145010448D01*
X184164644Y-145013899D01*
X184230982Y-145043664D01*
X184280971Y-145092530D01*
X184314612Y-145160501D01*
X184331906Y-145247580D01*
X184332410Y-145303766D01*
X184332857Y-145353771D01*
X184329349Y-145393565D01*
G37*
X184329349Y-145393565D02*
X184313844Y-145469538D01*
X184286110Y-145527511D01*
X184243898Y-145571300D01*
X184184960Y-145604722D01*
X184162076Y-145612676D01*
X184102812Y-145622601D01*
X184040447Y-145622331D01*
X183987823Y-145611430D01*
X183986789Y-145611034D01*
X183944381Y-145586087D01*
X183901537Y-145547468D01*
X183865986Y-145503306D01*
X183845459Y-145461727D01*
X183839374Y-145431334D01*
X183834164Y-145374429D01*
X183833291Y-145323705D01*
X183959976Y-145323705D01*
X183967549Y-145384545D01*
X183985341Y-145434538D01*
X184012296Y-145467204D01*
X184022513Y-145472812D01*
X184061473Y-145483007D01*
X184106536Y-145485104D01*
X184144448Y-145478020D01*
X184159244Y-145467861D01*
X184180014Y-145432334D01*
X184193083Y-145376732D01*
X184197624Y-145303766D01*
X184197551Y-145282762D01*
X184195974Y-145240203D01*
X184190728Y-145212439D01*
X184179723Y-145191925D01*
X184160868Y-145171112D01*
X184124989Y-145145887D01*
X184078280Y-145135573D01*
X184033151Y-145145396D01*
X183995680Y-145173805D01*
X183971943Y-145219253D01*
X183963675Y-145258497D01*
X183959976Y-145323705D01*
X183833291Y-145323705D01*
X183833049Y-145309621D01*
X183835844Y-145245116D01*
X183842366Y-145189121D01*
X183852432Y-145149842D01*
X183875877Y-145105372D01*
X183925637Y-145050692D01*
X183989238Y-145016055D01*
X184064790Y-145002345D01*
X184150399Y-145010448D01*
X184164644Y-145013899D01*
X184230982Y-145043664D01*
X184280971Y-145092530D01*
X184314612Y-145160501D01*
X184331906Y-145247580D01*
X184332410Y-145303766D01*
X184332857Y-145353771D01*
X184329349Y-145393565D01*
X185593356Y-145953020D02*
X185574539Y-145958660D01*
X185574539Y-145958660D02*
X185568473Y-145971053D01*
X185568473Y-145971053D02*
X185568218Y-145976647D01*
X185568218Y-145976647D02*
X185567129Y-145992230D01*
X185567129Y-145992230D02*
X185559632Y-145994676D01*
X185559632Y-145994676D02*
X185539381Y-145983993D01*
X185539381Y-145983993D02*
X185527351Y-145976694D01*
X185527351Y-145976694D02*
X185489400Y-145961063D01*
X185489400Y-145961063D02*
X185444072Y-145953334D01*
X185444072Y-145953334D02*
X185396544Y-145952740D01*
X185396544Y-145952740D02*
X185351995Y-145958513D01*
X185351995Y-145958513D02*
X185315602Y-145969884D01*
X185315602Y-145969884D02*
X185292543Y-145986088D01*
X185292543Y-145986088D02*
X185287996Y-146006355D01*
X185287996Y-146006355D02*
X185290291Y-146011843D01*
X185290291Y-146011843D02*
X185307020Y-146034626D01*
X185307020Y-146034626D02*
X185332963Y-146062647D01*
X185332963Y-146062647D02*
X185337655Y-146067177D01*
X185337655Y-146067177D02*
X185362383Y-146088005D01*
X185362383Y-146088005D02*
X185383718Y-146094735D01*
X185383718Y-146094735D02*
X185413555Y-146090038D01*
X185413555Y-146090038D02*
X185425508Y-146086917D01*
X185425508Y-146086917D02*
X185462705Y-146079421D01*
X185462705Y-146079421D02*
X185488859Y-146082792D01*
X185488859Y-146082792D02*
X185510946Y-146094681D01*
X185510946Y-146094681D02*
X185531178Y-146110635D01*
X185531178Y-146110635D02*
X185546079Y-146130700D01*
X185546079Y-146130700D02*
X185556434Y-146158702D01*
X185556434Y-146158702D02*
X185563029Y-146198467D01*
X185563029Y-146198467D02*
X185566649Y-146253823D01*
X185566649Y-146253823D02*
X185568078Y-146328594D01*
X185568078Y-146328594D02*
X185568218Y-146373740D01*
X185568218Y-146373740D02*
X185568218Y-146567822D01*
X185568218Y-146567822D02*
X185693960Y-146567822D01*
X185693960Y-146567822D02*
X185693960Y-145951683D01*
X185693960Y-145951683D02*
X185631089Y-145951683D01*
X185631089Y-145951683D02*
X185593356Y-145953020D01*
X185593356Y-145953020D02*
X185593356Y-145953020D01*
G36*
X185693960Y-146567822D02*
G01*
X185568218Y-146567822D01*
X185568218Y-146373740D01*
X185568078Y-146328594D01*
X185566649Y-146253823D01*
X185563029Y-146198467D01*
X185556434Y-146158702D01*
X185546079Y-146130700D01*
X185531178Y-146110635D01*
X185510946Y-146094681D01*
X185488859Y-146082792D01*
X185462705Y-146079421D01*
X185425508Y-146086917D01*
X185413555Y-146090038D01*
X185383718Y-146094735D01*
X185362383Y-146088005D01*
X185337655Y-146067177D01*
X185332963Y-146062647D01*
X185307020Y-146034626D01*
X185290291Y-146011843D01*
X185287996Y-146006355D01*
X185292543Y-145986088D01*
X185315602Y-145969884D01*
X185351995Y-145958513D01*
X185396544Y-145952740D01*
X185444072Y-145953334D01*
X185489400Y-145961063D01*
X185527351Y-145976694D01*
X185539381Y-145983993D01*
X185559632Y-145994676D01*
X185567129Y-145992230D01*
X185568218Y-145976647D01*
X185568473Y-145971053D01*
X185574539Y-145958660D01*
X185593356Y-145953020D01*
X185631089Y-145951683D01*
X185693960Y-145951683D01*
X185693960Y-146567822D01*
G37*
X185693960Y-146567822D02*
X185568218Y-146567822D01*
X185568218Y-146373740D01*
X185568078Y-146328594D01*
X185566649Y-146253823D01*
X185563029Y-146198467D01*
X185556434Y-146158702D01*
X185546079Y-146130700D01*
X185531178Y-146110635D01*
X185510946Y-146094681D01*
X185488859Y-146082792D01*
X185462705Y-146079421D01*
X185425508Y-146086917D01*
X185413555Y-146090038D01*
X185383718Y-146094735D01*
X185362383Y-146088005D01*
X185337655Y-146067177D01*
X185332963Y-146062647D01*
X185307020Y-146034626D01*
X185290291Y-146011843D01*
X185287996Y-146006355D01*
X185292543Y-145986088D01*
X185315602Y-145969884D01*
X185351995Y-145958513D01*
X185396544Y-145952740D01*
X185444072Y-145953334D01*
X185489400Y-145961063D01*
X185527351Y-145976694D01*
X185539381Y-145983993D01*
X185559632Y-145994676D01*
X185567129Y-145992230D01*
X185568218Y-145976647D01*
X185568473Y-145971053D01*
X185574539Y-145958660D01*
X185593356Y-145953020D01*
X185631089Y-145951683D01*
X185693960Y-145951683D01*
X185693960Y-146567822D01*
X204366786Y-142680139D02*
X204215368Y-142681181D01*
X204215368Y-142681181D02*
X204098683Y-142684145D01*
X204098683Y-142684145D02*
X204006119Y-142690060D01*
X204006119Y-142690060D02*
X203927062Y-142699951D01*
X203927062Y-142699951D02*
X203850896Y-142714847D01*
X203850896Y-142714847D02*
X203767008Y-142735772D01*
X203767008Y-142735772D02*
X203753023Y-142739516D01*
X203753023Y-142739516D02*
X203462869Y-142840250D01*
X203462869Y-142840250D02*
X203195309Y-142978979D01*
X203195309Y-142978979D02*
X202953326Y-143153213D01*
X202953326Y-143153213D02*
X202739905Y-143360467D01*
X202739905Y-143360467D02*
X202558029Y-143598253D01*
X202558029Y-143598253D02*
X202415064Y-143854678D01*
X202415064Y-143854678D02*
X202331969Y-144058601D01*
X202331969Y-144058601D02*
X202273332Y-144267963D01*
X202273332Y-144267963D02*
X202236252Y-144495596D01*
X202236252Y-144495596D02*
X202219143Y-144721394D01*
X202219143Y-144721394D02*
X202222054Y-145055223D01*
X202222054Y-145055223D02*
X202261734Y-145363691D01*
X202261734Y-145363691D02*
X202339026Y-145649125D01*
X202339026Y-145649125D02*
X202454774Y-145913849D01*
X202454774Y-145913849D02*
X202609819Y-146160189D01*
X202609819Y-146160189D02*
X202805004Y-146390472D01*
X202805004Y-146390472D02*
X202834956Y-146420937D01*
X202834956Y-146420937D02*
X203056295Y-146616500D01*
X203056295Y-146616500D02*
X203290889Y-146771647D01*
X203290889Y-146771647D02*
X203546531Y-146890986D01*
X203546531Y-146890986D02*
X203735724Y-146953854D01*
X203735724Y-146953854D02*
X203853995Y-146979662D01*
X203853995Y-146979662D02*
X204003738Y-147000474D01*
X204003738Y-147000474D02*
X204171249Y-147015339D01*
X204171249Y-147015339D02*
X204342822Y-147023310D01*
X204342822Y-147023310D02*
X204504753Y-147023438D01*
X204504753Y-147023438D02*
X204632462Y-147015912D01*
X204632462Y-147015912D02*
X204869147Y-146976899D01*
X204869147Y-146976899D02*
X205113177Y-146908784D01*
X205113177Y-146908784D02*
X205352483Y-146816426D01*
X205352483Y-146816426D02*
X205574996Y-146704685D01*
X205574996Y-146704685D02*
X205768647Y-146578419D01*
X205768647Y-146578419D02*
X205820137Y-146537747D01*
X205820137Y-146537747D02*
X206013802Y-146347838D01*
X206013802Y-146347838D02*
X206178561Y-146125038D01*
X206178561Y-146125038D02*
X206312694Y-145872762D01*
X206312694Y-145872762D02*
X206414481Y-145594424D01*
X206414481Y-145594424D02*
X206482203Y-145293440D01*
X206482203Y-145293440D02*
X206496110Y-145195268D01*
X206496110Y-145195268D02*
X206518669Y-144851926D01*
X206518669Y-144851926D02*
X206518221Y-144843750D01*
X206518221Y-144843750D02*
X205369799Y-144843750D01*
X205369799Y-144843750D02*
X205356071Y-145113973D01*
X205356071Y-145113973D02*
X205312314Y-145351240D01*
X205312314Y-145351240D02*
X205237779Y-145557234D01*
X205237779Y-145557234D02*
X205131718Y-145733638D01*
X205131718Y-145733638D02*
X204993384Y-145882135D01*
X204993384Y-145882135D02*
X204865689Y-145977695D01*
X204865689Y-145977695D02*
X204759493Y-146039022D01*
X204759493Y-146039022D02*
X204659603Y-146078883D01*
X204659603Y-146078883D02*
X204551801Y-146100725D01*
X204551801Y-146100725D02*
X204421871Y-146107998D01*
X204421871Y-146107998D02*
X204332768Y-146106954D01*
X204332768Y-146106954D02*
X204216089Y-146101720D01*
X204216089Y-146101720D02*
X204129679Y-146091662D01*
X204129679Y-146091662D02*
X204058495Y-146073986D01*
X204058495Y-146073986D02*
X203987495Y-146045903D01*
X203987495Y-146045903D02*
X203976305Y-146040793D01*
X203976305Y-146040793D02*
X203842011Y-145960974D01*
X203842011Y-145960974D02*
X203710281Y-145851219D01*
X203710281Y-145851219D02*
X203596385Y-145725136D01*
X203596385Y-145725136D02*
X203553045Y-145663617D01*
X203553045Y-145663617D02*
X203476705Y-145511827D01*
X203476705Y-145511827D02*
X203417553Y-145328326D01*
X203417553Y-145328326D02*
X203377588Y-145124143D01*
X203377588Y-145124143D02*
X203358812Y-144910304D01*
X203358812Y-144910304D02*
X203363223Y-144697838D01*
X203363223Y-144697838D02*
X203368312Y-144645092D01*
X203368312Y-144645092D02*
X203405330Y-144415291D01*
X203405330Y-144415291D02*
X203461592Y-144221242D01*
X203461592Y-144221242D02*
X203539812Y-144056456D01*
X203539812Y-144056456D02*
X203642709Y-143914446D01*
X203642709Y-143914446D02*
X203699103Y-143854955D01*
X203699103Y-143854955D02*
X203859903Y-143727246D01*
X203859903Y-143727246D02*
X204036653Y-143638650D01*
X204036653Y-143638650D02*
X204223394Y-143589164D01*
X204223394Y-143589164D02*
X204414166Y-143578788D01*
X204414166Y-143578788D02*
X204603009Y-143607520D01*
X204603009Y-143607520D02*
X204783965Y-143675358D01*
X204783965Y-143675358D02*
X204951073Y-143782300D01*
X204951073Y-143782300D02*
X205032435Y-143855282D01*
X205032435Y-143855282D02*
X205156616Y-144002991D01*
X205156616Y-144002991D02*
X205250672Y-144168858D01*
X205250672Y-144168858D02*
X205316363Y-144358039D01*
X205316363Y-144358039D02*
X205355450Y-144575694D01*
X205355450Y-144575694D02*
X205369694Y-144826980D01*
X205369694Y-144826980D02*
X205369799Y-144843750D01*
X205369799Y-144843750D02*
X206518221Y-144843750D01*
X206518221Y-144843750D02*
X206500706Y-144524671D01*
X206500706Y-144524671D02*
X206442751Y-144215131D01*
X206442751Y-144215131D02*
X206345329Y-143924933D01*
X206345329Y-143924933D02*
X206208969Y-143655704D01*
X206208969Y-143655704D02*
X206034197Y-143409073D01*
X206034197Y-143409073D02*
X205855358Y-143217967D01*
X205855358Y-143217967D02*
X205638311Y-143042640D01*
X205638311Y-143042640D02*
X205390274Y-142895890D01*
X205390274Y-142895890D02*
X205118293Y-142781595D01*
X205118293Y-142781595D02*
X204988479Y-142741370D01*
X204988479Y-142741370D02*
X204901869Y-142718368D01*
X204901869Y-142718368D02*
X204827258Y-142701863D01*
X204827258Y-142701863D02*
X204754117Y-142690815D01*
X204754117Y-142690815D02*
X204671918Y-142684189D01*
X204671918Y-142684189D02*
X204570132Y-142680947D01*
X204570132Y-142680947D02*
X204438229Y-142680053D01*
X204438229Y-142680053D02*
X204366786Y-142680139D01*
X204366786Y-142680139D02*
X204366786Y-142680139D01*
G36*
X206496110Y-145195268D02*
G01*
X206482203Y-145293440D01*
X206414481Y-145594424D01*
X206312694Y-145872762D01*
X206178561Y-146125038D01*
X206013802Y-146347838D01*
X205820137Y-146537747D01*
X205768647Y-146578419D01*
X205574996Y-146704685D01*
X205352483Y-146816426D01*
X205113177Y-146908784D01*
X204869147Y-146976899D01*
X204632462Y-147015912D01*
X204504753Y-147023438D01*
X204342822Y-147023310D01*
X204171249Y-147015339D01*
X204003738Y-147000474D01*
X203853995Y-146979662D01*
X203735724Y-146953854D01*
X203546531Y-146890986D01*
X203290889Y-146771647D01*
X203056295Y-146616500D01*
X202834956Y-146420937D01*
X202805004Y-146390472D01*
X202609819Y-146160189D01*
X202454774Y-145913849D01*
X202339026Y-145649125D01*
X202261734Y-145363691D01*
X202222054Y-145055223D01*
X202220790Y-144910304D01*
X203358812Y-144910304D01*
X203377588Y-145124143D01*
X203417553Y-145328326D01*
X203476705Y-145511827D01*
X203553045Y-145663617D01*
X203596385Y-145725136D01*
X203710281Y-145851219D01*
X203842011Y-145960974D01*
X203976305Y-146040793D01*
X203987495Y-146045903D01*
X204058495Y-146073986D01*
X204129679Y-146091662D01*
X204216089Y-146101720D01*
X204332768Y-146106954D01*
X204421871Y-146107998D01*
X204551801Y-146100725D01*
X204659603Y-146078883D01*
X204759493Y-146039022D01*
X204865689Y-145977695D01*
X204993384Y-145882135D01*
X205131718Y-145733638D01*
X205237779Y-145557234D01*
X205312314Y-145351240D01*
X205356071Y-145113973D01*
X205369799Y-144843750D01*
X205369694Y-144826980D01*
X205355450Y-144575694D01*
X205316363Y-144358039D01*
X205250672Y-144168858D01*
X205156616Y-144002991D01*
X205032435Y-143855282D01*
X204951073Y-143782300D01*
X204783965Y-143675358D01*
X204603009Y-143607520D01*
X204414166Y-143578788D01*
X204223394Y-143589164D01*
X204036653Y-143638650D01*
X203859903Y-143727246D01*
X203699103Y-143854955D01*
X203642709Y-143914446D01*
X203539812Y-144056456D01*
X203461592Y-144221242D01*
X203405330Y-144415291D01*
X203368312Y-144645092D01*
X203363223Y-144697838D01*
X203358812Y-144910304D01*
X202220790Y-144910304D01*
X202219143Y-144721394D01*
X202236252Y-144495596D01*
X202273332Y-144267963D01*
X202331969Y-144058601D01*
X202415064Y-143854678D01*
X202558029Y-143598253D01*
X202739905Y-143360467D01*
X202953326Y-143153213D01*
X203195309Y-142978979D01*
X203462869Y-142840250D01*
X203753023Y-142739516D01*
X203767008Y-142735772D01*
X203850896Y-142714847D01*
X203927062Y-142699951D01*
X204006119Y-142690060D01*
X204098683Y-142684145D01*
X204215368Y-142681181D01*
X204366786Y-142680139D01*
X204438229Y-142680053D01*
X204570132Y-142680947D01*
X204671918Y-142684189D01*
X204754117Y-142690815D01*
X204827258Y-142701863D01*
X204901869Y-142718368D01*
X204988479Y-142741370D01*
X205118293Y-142781595D01*
X205390274Y-142895890D01*
X205638311Y-143042640D01*
X205855358Y-143217967D01*
X206034197Y-143409073D01*
X206208969Y-143655704D01*
X206345329Y-143924933D01*
X206442751Y-144215131D01*
X206500706Y-144524671D01*
X206518221Y-144843750D01*
X206518669Y-144851926D01*
X206496110Y-145195268D01*
G37*
X206496110Y-145195268D02*
X206482203Y-145293440D01*
X206414481Y-145594424D01*
X206312694Y-145872762D01*
X206178561Y-146125038D01*
X206013802Y-146347838D01*
X205820137Y-146537747D01*
X205768647Y-146578419D01*
X205574996Y-146704685D01*
X205352483Y-146816426D01*
X205113177Y-146908784D01*
X204869147Y-146976899D01*
X204632462Y-147015912D01*
X204504753Y-147023438D01*
X204342822Y-147023310D01*
X204171249Y-147015339D01*
X204003738Y-147000474D01*
X203853995Y-146979662D01*
X203735724Y-146953854D01*
X203546531Y-146890986D01*
X203290889Y-146771647D01*
X203056295Y-146616500D01*
X202834956Y-146420937D01*
X202805004Y-146390472D01*
X202609819Y-146160189D01*
X202454774Y-145913849D01*
X202339026Y-145649125D01*
X202261734Y-145363691D01*
X202222054Y-145055223D01*
X202220790Y-144910304D01*
X203358812Y-144910304D01*
X203377588Y-145124143D01*
X203417553Y-145328326D01*
X203476705Y-145511827D01*
X203553045Y-145663617D01*
X203596385Y-145725136D01*
X203710281Y-145851219D01*
X203842011Y-145960974D01*
X203976305Y-146040793D01*
X203987495Y-146045903D01*
X204058495Y-146073986D01*
X204129679Y-146091662D01*
X204216089Y-146101720D01*
X204332768Y-146106954D01*
X204421871Y-146107998D01*
X204551801Y-146100725D01*
X204659603Y-146078883D01*
X204759493Y-146039022D01*
X204865689Y-145977695D01*
X204993384Y-145882135D01*
X205131718Y-145733638D01*
X205237779Y-145557234D01*
X205312314Y-145351240D01*
X205356071Y-145113973D01*
X205369799Y-144843750D01*
X205369694Y-144826980D01*
X205355450Y-144575694D01*
X205316363Y-144358039D01*
X205250672Y-144168858D01*
X205156616Y-144002991D01*
X205032435Y-143855282D01*
X204951073Y-143782300D01*
X204783965Y-143675358D01*
X204603009Y-143607520D01*
X204414166Y-143578788D01*
X204223394Y-143589164D01*
X204036653Y-143638650D01*
X203859903Y-143727246D01*
X203699103Y-143854955D01*
X203642709Y-143914446D01*
X203539812Y-144056456D01*
X203461592Y-144221242D01*
X203405330Y-144415291D01*
X203368312Y-144645092D01*
X203363223Y-144697838D01*
X203358812Y-144910304D01*
X202220790Y-144910304D01*
X202219143Y-144721394D01*
X202236252Y-144495596D01*
X202273332Y-144267963D01*
X202331969Y-144058601D01*
X202415064Y-143854678D01*
X202558029Y-143598253D01*
X202739905Y-143360467D01*
X202953326Y-143153213D01*
X203195309Y-142978979D01*
X203462869Y-142840250D01*
X203753023Y-142739516D01*
X203767008Y-142735772D01*
X203850896Y-142714847D01*
X203927062Y-142699951D01*
X204006119Y-142690060D01*
X204098683Y-142684145D01*
X204215368Y-142681181D01*
X204366786Y-142680139D01*
X204438229Y-142680053D01*
X204570132Y-142680947D01*
X204671918Y-142684189D01*
X204754117Y-142690815D01*
X204827258Y-142701863D01*
X204901869Y-142718368D01*
X204988479Y-142741370D01*
X205118293Y-142781595D01*
X205390274Y-142895890D01*
X205638311Y-143042640D01*
X205855358Y-143217967D01*
X206034197Y-143409073D01*
X206208969Y-143655704D01*
X206345329Y-143924933D01*
X206442751Y-144215131D01*
X206500706Y-144524671D01*
X206518221Y-144843750D01*
X206518669Y-144851926D01*
X206496110Y-145195268D01*
X193113368Y-141094987D02*
X192884044Y-141122497D01*
X192884044Y-141122497D02*
X192674005Y-141166937D01*
X192674005Y-141166937D02*
X192475167Y-141229711D01*
X192475167Y-141229711D02*
X192279443Y-141312226D01*
X192279443Y-141312226D02*
X192236294Y-141333023D01*
X192236294Y-141333023D02*
X192002692Y-141471313D01*
X192002692Y-141471313D02*
X191802626Y-141639953D01*
X191802626Y-141639953D02*
X191635669Y-141839436D01*
X191635669Y-141839436D02*
X191501395Y-142070254D01*
X191501395Y-142070254D02*
X191414673Y-142285363D01*
X191414673Y-142285363D02*
X191378002Y-142413355D01*
X191378002Y-142413355D02*
X191349305Y-142548596D01*
X191349305Y-142548596D02*
X191334333Y-142660670D01*
X191334333Y-142660670D02*
X191320759Y-142836696D01*
X191320759Y-142836696D02*
X191386050Y-142837926D01*
X191386050Y-142837926D02*
X191427078Y-142839067D01*
X191427078Y-142839067D02*
X191506009Y-142841586D01*
X191506009Y-142841586D02*
X191615421Y-142845232D01*
X191615421Y-142845232D02*
X191747888Y-142849758D01*
X191747888Y-142849758D02*
X191895986Y-142854914D01*
X191895986Y-142854914D02*
X191972947Y-142857628D01*
X191972947Y-142857628D02*
X192494554Y-142876101D01*
X192494554Y-142876101D02*
X192535818Y-142715734D01*
X192535818Y-142715734D02*
X192605413Y-142522995D01*
X192605413Y-142522995D02*
X192706259Y-142361979D01*
X192706259Y-142361979D02*
X192837130Y-142234046D01*
X192837130Y-142234046D02*
X192996796Y-142140559D01*
X192996796Y-142140559D02*
X193084197Y-142108041D01*
X193084197Y-142108041D02*
X193189178Y-142084995D01*
X193189178Y-142084995D02*
X193325136Y-142069055D01*
X193325136Y-142069055D02*
X193478193Y-142060596D01*
X193478193Y-142060596D02*
X193634471Y-142059994D01*
X193634471Y-142059994D02*
X193780091Y-142067626D01*
X193780091Y-142067626D02*
X193901176Y-142083866D01*
X193901176Y-142083866D02*
X193909975Y-142085673D01*
X193909975Y-142085673D02*
X194086166Y-142136343D01*
X194086166Y-142136343D02*
X194239669Y-142206861D01*
X194239669Y-142206861D02*
X194363745Y-142293180D01*
X194363745Y-142293180D02*
X194451654Y-142391252D01*
X194451654Y-142391252D02*
X194469614Y-142421686D01*
X194469614Y-142421686D02*
X194492546Y-142498025D01*
X194492546Y-142498025D02*
X194500469Y-142597458D01*
X194500469Y-142597458D02*
X194493310Y-142700256D01*
X194493310Y-142700256D02*
X194470996Y-142786685D01*
X194470996Y-142786685D02*
X194470968Y-142786752D01*
X194470968Y-142786752D02*
X194435033Y-142846107D01*
X194435033Y-142846107D02*
X194379638Y-142911327D01*
X194379638Y-142911327D02*
X194352593Y-142937116D01*
X194352593Y-142937116D02*
X194293127Y-142984232D01*
X194293127Y-142984232D02*
X194223786Y-143028289D01*
X194223786Y-143028289D02*
X194140107Y-143070901D01*
X194140107Y-143070901D02*
X194037623Y-143113682D01*
X194037623Y-143113682D02*
X193911870Y-143158248D01*
X193911870Y-143158248D02*
X193758382Y-143206213D01*
X193758382Y-143206213D02*
X193572695Y-143259192D01*
X193572695Y-143259192D02*
X193350343Y-143318799D01*
X193350343Y-143318799D02*
X193163572Y-143367103D01*
X193163572Y-143367103D02*
X192849726Y-143451297D01*
X192849726Y-143451297D02*
X192576822Y-143533583D01*
X192576822Y-143533583D02*
X192340622Y-143616098D01*
X192340622Y-143616098D02*
X192136893Y-143700977D01*
X192136893Y-143700977D02*
X191961399Y-143790357D01*
X191961399Y-143790357D02*
X191809904Y-143886375D01*
X191809904Y-143886375D02*
X191678172Y-143991167D01*
X191678172Y-143991167D02*
X191561969Y-144106868D01*
X191561969Y-144106868D02*
X191466353Y-144223166D01*
X191466353Y-144223166D02*
X191357493Y-144395468D01*
X191357493Y-144395468D02*
X191267480Y-144592798D01*
X191267480Y-144592798D02*
X191204603Y-144796074D01*
X191204603Y-144796074D02*
X191192595Y-144853585D01*
X191192595Y-144853585D02*
X191174948Y-144995109D01*
X191174948Y-144995109D02*
X191167452Y-145160686D01*
X191167452Y-145160686D02*
X191169737Y-145334673D01*
X191169737Y-145334673D02*
X191181431Y-145501429D01*
X191181431Y-145501429D02*
X191202161Y-145645314D01*
X191202161Y-145645314D02*
X191212500Y-145691401D01*
X191212500Y-145691401D02*
X191276921Y-145882721D01*
X191276921Y-145882721D02*
X191370890Y-146080214D01*
X191370890Y-146080214D02*
X191485367Y-146266207D01*
X191485367Y-146266207D02*
X191551697Y-146354613D01*
X191551697Y-146354613D02*
X191726931Y-146535408D01*
X191726931Y-146535408D02*
X191937869Y-146690166D01*
X191937869Y-146690166D02*
X192182406Y-146817908D01*
X192182406Y-146817908D02*
X192458439Y-146917654D01*
X192458439Y-146917654D02*
X192763864Y-146988424D01*
X192763864Y-146988424D02*
X192977363Y-147018445D01*
X192977363Y-147018445D02*
X193153568Y-147032327D01*
X193153568Y-147032327D02*
X193349978Y-147039306D01*
X193349978Y-147039306D02*
X193552388Y-147039504D01*
X193552388Y-147039504D02*
X193746591Y-147033046D01*
X193746591Y-147033046D02*
X193918384Y-147020055D01*
X193918384Y-147020055D02*
X194002679Y-147009498D01*
X194002679Y-147009498D02*
X194312659Y-146948740D01*
X194312659Y-146948740D02*
X194587119Y-146864451D01*
X194587119Y-146864451D02*
X194830539Y-146754486D01*
X194830539Y-146754486D02*
X195047396Y-146616698D01*
X195047396Y-146616698D02*
X195242171Y-146448942D01*
X195242171Y-146448942D02*
X195301960Y-146387078D01*
X195301960Y-146387078D02*
X195448421Y-146201526D01*
X195448421Y-146201526D02*
X195578431Y-145982745D01*
X195578431Y-145982745D02*
X195687371Y-145741292D01*
X195687371Y-145741292D02*
X195770625Y-145487725D01*
X195770625Y-145487725D02*
X195823577Y-145232601D01*
X195823577Y-145232601D02*
X195830594Y-145178259D01*
X195830594Y-145178259D02*
X195837909Y-145105101D01*
X195837909Y-145105101D02*
X195836244Y-145066161D01*
X195836244Y-145066161D02*
X195822374Y-145050666D01*
X195822374Y-145050666D02*
X195793072Y-145047842D01*
X195793072Y-145047842D02*
X195791546Y-145047840D01*
X195791546Y-145047840D02*
X195753163Y-145045702D01*
X195753163Y-145045702D02*
X195677371Y-145039746D01*
X195677371Y-145039746D02*
X195571897Y-145030644D01*
X195571897Y-145030644D02*
X195444467Y-145019066D01*
X195444467Y-145019066D02*
X195302807Y-145005683D01*
X195302807Y-145005683D02*
X195272679Y-145002775D01*
X195272679Y-145002775D02*
X195098704Y-144985879D01*
X195098704Y-144985879D02*
X194964576Y-144973213D01*
X194964576Y-144973213D02*
X194864970Y-144964932D01*
X194864970Y-144964932D02*
X194794558Y-144961190D01*
X194794558Y-144961190D02*
X194748015Y-144962139D01*
X194748015Y-144962139D02*
X194720014Y-144967934D01*
X194720014Y-144967934D02*
X194705229Y-144978728D01*
X194705229Y-144978728D02*
X194698334Y-144994676D01*
X194698334Y-144994676D02*
X194694003Y-145015932D01*
X194694003Y-145015932D02*
X194693262Y-145019509D01*
X194693262Y-145019509D02*
X194662098Y-145134752D01*
X194662098Y-145134752D02*
X194616167Y-145267631D01*
X194616167Y-145267631D02*
X194562504Y-145400014D01*
X194562504Y-145400014D02*
X194508146Y-145513769D01*
X194508146Y-145513769D02*
X194486757Y-145551702D01*
X194486757Y-145551702D02*
X194363119Y-145713918D01*
X194363119Y-145713918D02*
X194207584Y-145844475D01*
X194207584Y-145844475D02*
X194021213Y-145942873D01*
X194021213Y-145942873D02*
X193805069Y-146008616D01*
X193805069Y-146008616D02*
X193560211Y-146041205D01*
X193560211Y-146041205D02*
X193435715Y-146044927D01*
X193435715Y-146044927D02*
X193182819Y-146030309D01*
X193182819Y-146030309D02*
X192962672Y-145985989D01*
X192962672Y-145985989D02*
X192773151Y-145911266D01*
X192773151Y-145911266D02*
X192612132Y-145805440D01*
X192612132Y-145805440D02*
X192555691Y-145754697D01*
X192555691Y-145754697D02*
X192443104Y-145619232D01*
X192443104Y-145619232D02*
X192369341Y-145474532D01*
X192369341Y-145474532D02*
X192334985Y-145326086D01*
X192334985Y-145326086D02*
X192340618Y-145179380D01*
X192340618Y-145179380D02*
X192386822Y-145039904D01*
X192386822Y-145039904D02*
X192467211Y-144920925D01*
X192467211Y-144920925D02*
X192517783Y-144869365D01*
X192517783Y-144869365D02*
X192576781Y-144822122D01*
X192576781Y-144822122D02*
X192648371Y-144777619D01*
X192648371Y-144777619D02*
X192736716Y-144734280D01*
X192736716Y-144734280D02*
X192845981Y-144690527D01*
X192845981Y-144690527D02*
X192980331Y-144644785D01*
X192980331Y-144644785D02*
X193143931Y-144595477D01*
X193143931Y-144595477D02*
X193340944Y-144541026D01*
X193340944Y-144541026D02*
X193575535Y-144479856D01*
X193575535Y-144479856D02*
X193746333Y-144436699D01*
X193746333Y-144436699D02*
X194098527Y-144339589D01*
X194098527Y-144339589D02*
X194407895Y-144235409D01*
X194407895Y-144235409D02*
X194673885Y-144124386D01*
X194673885Y-144124386D02*
X194895941Y-144006745D01*
X194895941Y-144006745D02*
X195041813Y-143907843D01*
X195041813Y-143907843D02*
X195230422Y-143735709D01*
X195230422Y-143735709D02*
X195384216Y-143538385D01*
X195384216Y-143538385D02*
X195502167Y-143320946D01*
X195502167Y-143320946D02*
X195583243Y-143088465D01*
X195583243Y-143088465D02*
X195626416Y-142846017D01*
X195626416Y-142846017D02*
X195630654Y-142598677D01*
X195630654Y-142598677D02*
X195594927Y-142351518D01*
X195594927Y-142351518D02*
X195518206Y-142109616D01*
X195518206Y-142109616D02*
X195439930Y-141946799D01*
X195439930Y-141946799D02*
X195315116Y-141763077D01*
X195315116Y-141763077D02*
X195154471Y-141591503D01*
X195154471Y-141591503D02*
X194967341Y-141440164D01*
X194967341Y-141440164D02*
X194763070Y-141317145D01*
X194763070Y-141317145D02*
X194655279Y-141267905D01*
X194655279Y-141267905D02*
X194488646Y-141205619D01*
X194488646Y-141205619D02*
X194328098Y-141158682D01*
X194328098Y-141158682D02*
X194162149Y-141124980D01*
X194162149Y-141124980D02*
X193979311Y-141102400D01*
X193979311Y-141102400D02*
X193768097Y-141088826D01*
X193768097Y-141088826D02*
X193662209Y-141085134D01*
X193662209Y-141085134D02*
X193370061Y-141083001D01*
X193370061Y-141083001D02*
X193113368Y-141094987D01*
X193113368Y-141094987D02*
X193113368Y-141094987D01*
G36*
X193662209Y-141085134D02*
G01*
X193768097Y-141088826D01*
X193979311Y-141102400D01*
X194162149Y-141124980D01*
X194328098Y-141158682D01*
X194488646Y-141205619D01*
X194655279Y-141267905D01*
X194763070Y-141317145D01*
X194967341Y-141440164D01*
X195154471Y-141591503D01*
X195315116Y-141763077D01*
X195439930Y-141946799D01*
X195518206Y-142109616D01*
X195594927Y-142351518D01*
X195630654Y-142598677D01*
X195626416Y-142846017D01*
X195583243Y-143088465D01*
X195502167Y-143320946D01*
X195384216Y-143538385D01*
X195230422Y-143735709D01*
X195041813Y-143907843D01*
X194895941Y-144006745D01*
X194673885Y-144124386D01*
X194407895Y-144235409D01*
X194098527Y-144339589D01*
X193746333Y-144436699D01*
X193575535Y-144479856D01*
X193340944Y-144541026D01*
X193143931Y-144595477D01*
X192980331Y-144644785D01*
X192845981Y-144690527D01*
X192736716Y-144734280D01*
X192648371Y-144777619D01*
X192576781Y-144822122D01*
X192517783Y-144869365D01*
X192467211Y-144920925D01*
X192386822Y-145039904D01*
X192340618Y-145179380D01*
X192334985Y-145326086D01*
X192369341Y-145474532D01*
X192443104Y-145619232D01*
X192555691Y-145754697D01*
X192612132Y-145805440D01*
X192773151Y-145911266D01*
X192962672Y-145985989D01*
X193182819Y-146030309D01*
X193435715Y-146044927D01*
X193560211Y-146041205D01*
X193805069Y-146008616D01*
X194021213Y-145942873D01*
X194207584Y-145844475D01*
X194363119Y-145713918D01*
X194486757Y-145551702D01*
X194508146Y-145513769D01*
X194562504Y-145400014D01*
X194616167Y-145267631D01*
X194662098Y-145134752D01*
X194693262Y-145019509D01*
X194694003Y-145015932D01*
X194698334Y-144994676D01*
X194705229Y-144978728D01*
X194720014Y-144967934D01*
X194748015Y-144962139D01*
X194794558Y-144961190D01*
X194864970Y-144964932D01*
X194964576Y-144973213D01*
X195098704Y-144985879D01*
X195272679Y-145002775D01*
X195302807Y-145005683D01*
X195444467Y-145019066D01*
X195571897Y-145030644D01*
X195677371Y-145039746D01*
X195753163Y-145045702D01*
X195791546Y-145047840D01*
X195793072Y-145047842D01*
X195822374Y-145050666D01*
X195836244Y-145066161D01*
X195837909Y-145105101D01*
X195830594Y-145178259D01*
X195823577Y-145232601D01*
X195770625Y-145487725D01*
X195687371Y-145741292D01*
X195578431Y-145982745D01*
X195448421Y-146201526D01*
X195301960Y-146387078D01*
X195242171Y-146448942D01*
X195047396Y-146616698D01*
X194830539Y-146754486D01*
X194587119Y-146864451D01*
X194312659Y-146948740D01*
X194002679Y-147009498D01*
X193918384Y-147020055D01*
X193746591Y-147033046D01*
X193552388Y-147039504D01*
X193349978Y-147039306D01*
X193153568Y-147032327D01*
X192977363Y-147018445D01*
X192763864Y-146988424D01*
X192458439Y-146917654D01*
X192182406Y-146817908D01*
X191937869Y-146690166D01*
X191726931Y-146535408D01*
X191551697Y-146354613D01*
X191485367Y-146266207D01*
X191370890Y-146080214D01*
X191276921Y-145882721D01*
X191212500Y-145691401D01*
X191202161Y-145645314D01*
X191181431Y-145501429D01*
X191169737Y-145334673D01*
X191167452Y-145160686D01*
X191174948Y-144995109D01*
X191192595Y-144853585D01*
X191204603Y-144796074D01*
X191267480Y-144592798D01*
X191357493Y-144395468D01*
X191466353Y-144223166D01*
X191561969Y-144106868D01*
X191678172Y-143991167D01*
X191809904Y-143886375D01*
X191961399Y-143790357D01*
X192136893Y-143700977D01*
X192340622Y-143616098D01*
X192576822Y-143533583D01*
X192849726Y-143451297D01*
X193163572Y-143367103D01*
X193350343Y-143318799D01*
X193572695Y-143259192D01*
X193758382Y-143206213D01*
X193911870Y-143158248D01*
X194037623Y-143113682D01*
X194140107Y-143070901D01*
X194223786Y-143028289D01*
X194293127Y-142984232D01*
X194352593Y-142937116D01*
X194379638Y-142911327D01*
X194435033Y-142846107D01*
X194470968Y-142786752D01*
X194470996Y-142786685D01*
X194493310Y-142700256D01*
X194500469Y-142597458D01*
X194492546Y-142498025D01*
X194469614Y-142421686D01*
X194451654Y-142391252D01*
X194363745Y-142293180D01*
X194239669Y-142206861D01*
X194086166Y-142136343D01*
X193909975Y-142085673D01*
X193901176Y-142083866D01*
X193780091Y-142067626D01*
X193634471Y-142059994D01*
X193478193Y-142060596D01*
X193325136Y-142069055D01*
X193189178Y-142084995D01*
X193084197Y-142108041D01*
X192996796Y-142140559D01*
X192837130Y-142234046D01*
X192706259Y-142361979D01*
X192605413Y-142522995D01*
X192535818Y-142715734D01*
X192494554Y-142876101D01*
X191972947Y-142857628D01*
X191895986Y-142854914D01*
X191747888Y-142849758D01*
X191615421Y-142845232D01*
X191506009Y-142841586D01*
X191427078Y-142839067D01*
X191386050Y-142837926D01*
X191320759Y-142836696D01*
X191334333Y-142660670D01*
X191349305Y-142548596D01*
X191378002Y-142413355D01*
X191414673Y-142285363D01*
X191501395Y-142070254D01*
X191635669Y-141839436D01*
X191802626Y-141639953D01*
X192002692Y-141471313D01*
X192236294Y-141333023D01*
X192279443Y-141312226D01*
X192475167Y-141229711D01*
X192674005Y-141166937D01*
X192884044Y-141122497D01*
X193113368Y-141094987D01*
X193370061Y-141083001D01*
X193662209Y-141085134D01*
G37*
X193662209Y-141085134D02*
X193768097Y-141088826D01*
X193979311Y-141102400D01*
X194162149Y-141124980D01*
X194328098Y-141158682D01*
X194488646Y-141205619D01*
X194655279Y-141267905D01*
X194763070Y-141317145D01*
X194967341Y-141440164D01*
X195154471Y-141591503D01*
X195315116Y-141763077D01*
X195439930Y-141946799D01*
X195518206Y-142109616D01*
X195594927Y-142351518D01*
X195630654Y-142598677D01*
X195626416Y-142846017D01*
X195583243Y-143088465D01*
X195502167Y-143320946D01*
X195384216Y-143538385D01*
X195230422Y-143735709D01*
X195041813Y-143907843D01*
X194895941Y-144006745D01*
X194673885Y-144124386D01*
X194407895Y-144235409D01*
X194098527Y-144339589D01*
X193746333Y-144436699D01*
X193575535Y-144479856D01*
X193340944Y-144541026D01*
X193143931Y-144595477D01*
X192980331Y-144644785D01*
X192845981Y-144690527D01*
X192736716Y-144734280D01*
X192648371Y-144777619D01*
X192576781Y-144822122D01*
X192517783Y-144869365D01*
X192467211Y-144920925D01*
X192386822Y-145039904D01*
X192340618Y-145179380D01*
X192334985Y-145326086D01*
X192369341Y-145474532D01*
X192443104Y-145619232D01*
X192555691Y-145754697D01*
X192612132Y-145805440D01*
X192773151Y-145911266D01*
X192962672Y-145985989D01*
X193182819Y-146030309D01*
X193435715Y-146044927D01*
X193560211Y-146041205D01*
X193805069Y-146008616D01*
X194021213Y-145942873D01*
X194207584Y-145844475D01*
X194363119Y-145713918D01*
X194486757Y-145551702D01*
X194508146Y-145513769D01*
X194562504Y-145400014D01*
X194616167Y-145267631D01*
X194662098Y-145134752D01*
X194693262Y-145019509D01*
X194694003Y-145015932D01*
X194698334Y-144994676D01*
X194705229Y-144978728D01*
X194720014Y-144967934D01*
X194748015Y-144962139D01*
X194794558Y-144961190D01*
X194864970Y-144964932D01*
X194964576Y-144973213D01*
X195098704Y-144985879D01*
X195272679Y-145002775D01*
X195302807Y-145005683D01*
X195444467Y-145019066D01*
X195571897Y-145030644D01*
X195677371Y-145039746D01*
X195753163Y-145045702D01*
X195791546Y-145047840D01*
X195793072Y-145047842D01*
X195822374Y-145050666D01*
X195836244Y-145066161D01*
X195837909Y-145105101D01*
X195830594Y-145178259D01*
X195823577Y-145232601D01*
X195770625Y-145487725D01*
X195687371Y-145741292D01*
X195578431Y-145982745D01*
X195448421Y-146201526D01*
X195301960Y-146387078D01*
X195242171Y-146448942D01*
X195047396Y-146616698D01*
X194830539Y-146754486D01*
X194587119Y-146864451D01*
X194312659Y-146948740D01*
X194002679Y-147009498D01*
X193918384Y-147020055D01*
X193746591Y-147033046D01*
X193552388Y-147039504D01*
X193349978Y-147039306D01*
X193153568Y-147032327D01*
X192977363Y-147018445D01*
X192763864Y-146988424D01*
X192458439Y-146917654D01*
X192182406Y-146817908D01*
X191937869Y-146690166D01*
X191726931Y-146535408D01*
X191551697Y-146354613D01*
X191485367Y-146266207D01*
X191370890Y-146080214D01*
X191276921Y-145882721D01*
X191212500Y-145691401D01*
X191202161Y-145645314D01*
X191181431Y-145501429D01*
X191169737Y-145334673D01*
X191167452Y-145160686D01*
X191174948Y-144995109D01*
X191192595Y-144853585D01*
X191204603Y-144796074D01*
X191267480Y-144592798D01*
X191357493Y-144395468D01*
X191466353Y-144223166D01*
X191561969Y-144106868D01*
X191678172Y-143991167D01*
X191809904Y-143886375D01*
X191961399Y-143790357D01*
X192136893Y-143700977D01*
X192340622Y-143616098D01*
X192576822Y-143533583D01*
X192849726Y-143451297D01*
X193163572Y-143367103D01*
X193350343Y-143318799D01*
X193572695Y-143259192D01*
X193758382Y-143206213D01*
X193911870Y-143158248D01*
X194037623Y-143113682D01*
X194140107Y-143070901D01*
X194223786Y-143028289D01*
X194293127Y-142984232D01*
X194352593Y-142937116D01*
X194379638Y-142911327D01*
X194435033Y-142846107D01*
X194470968Y-142786752D01*
X194470996Y-142786685D01*
X194493310Y-142700256D01*
X194500469Y-142597458D01*
X194492546Y-142498025D01*
X194469614Y-142421686D01*
X194451654Y-142391252D01*
X194363745Y-142293180D01*
X194239669Y-142206861D01*
X194086166Y-142136343D01*
X193909975Y-142085673D01*
X193901176Y-142083866D01*
X193780091Y-142067626D01*
X193634471Y-142059994D01*
X193478193Y-142060596D01*
X193325136Y-142069055D01*
X193189178Y-142084995D01*
X193084197Y-142108041D01*
X192996796Y-142140559D01*
X192837130Y-142234046D01*
X192706259Y-142361979D01*
X192605413Y-142522995D01*
X192535818Y-142715734D01*
X192494554Y-142876101D01*
X191972947Y-142857628D01*
X191895986Y-142854914D01*
X191747888Y-142849758D01*
X191615421Y-142845232D01*
X191506009Y-142841586D01*
X191427078Y-142839067D01*
X191386050Y-142837926D01*
X191320759Y-142836696D01*
X191334333Y-142660670D01*
X191349305Y-142548596D01*
X191378002Y-142413355D01*
X191414673Y-142285363D01*
X191501395Y-142070254D01*
X191635669Y-141839436D01*
X191802626Y-141639953D01*
X192002692Y-141471313D01*
X192236294Y-141333023D01*
X192279443Y-141312226D01*
X192475167Y-141229711D01*
X192674005Y-141166937D01*
X192884044Y-141122497D01*
X193113368Y-141094987D01*
X193370061Y-141083001D01*
X193662209Y-141085134D01*
X200171250Y-143437679D02*
X197926072Y-143437679D01*
X197926072Y-143437679D02*
X197926072Y-141169821D01*
X197926072Y-141169821D02*
X196746786Y-141169821D01*
X196746786Y-141169821D02*
X196746786Y-146930179D01*
X196746786Y-146930179D02*
X197926072Y-146930179D01*
X197926072Y-146930179D02*
X197926072Y-144412430D01*
X197926072Y-144412430D02*
X199042992Y-144418313D01*
X199042992Y-144418313D02*
X200159911Y-144424196D01*
X200159911Y-144424196D02*
X200165773Y-145677187D01*
X200165773Y-145677187D02*
X200171635Y-146930179D01*
X200171635Y-146930179D02*
X201350536Y-146930179D01*
X201350536Y-146930179D02*
X201350536Y-141169821D01*
X201350536Y-141169821D02*
X200171250Y-141169821D01*
X200171250Y-141169821D02*
X200171250Y-143437679D01*
X200171250Y-143437679D02*
X200171250Y-143437679D01*
G36*
X197926072Y-143437679D02*
G01*
X200171250Y-143437679D01*
X200171250Y-141169821D01*
X201350536Y-141169821D01*
X201350536Y-146930179D01*
X200171635Y-146930179D01*
X200165773Y-145677187D01*
X200159911Y-144424196D01*
X199042992Y-144418313D01*
X197926072Y-144412430D01*
X197926072Y-146930179D01*
X196746786Y-146930179D01*
X196746786Y-141169821D01*
X197926072Y-141169821D01*
X197926072Y-143437679D01*
G37*
X197926072Y-143437679D02*
X200171250Y-143437679D01*
X200171250Y-141169821D01*
X201350536Y-141169821D01*
X201350536Y-146930179D01*
X200171635Y-146930179D01*
X200165773Y-145677187D01*
X200159911Y-144424196D01*
X199042992Y-144418313D01*
X197926072Y-144412430D01*
X197926072Y-146930179D01*
X196746786Y-146930179D01*
X196746786Y-141169821D01*
X197926072Y-141169821D01*
X197926072Y-143437679D01*
X210461652Y-141177046D02*
X210105405Y-141179765D01*
X210105405Y-141179765D02*
X209787134Y-141182980D01*
X209787134Y-141182980D02*
X209507855Y-141186670D01*
X209507855Y-141186670D02*
X209268584Y-141190814D01*
X209268584Y-141190814D02*
X209070337Y-141195391D01*
X209070337Y-141195391D02*
X208914129Y-141200380D01*
X208914129Y-141200380D02*
X208800976Y-141205760D01*
X208800976Y-141205760D02*
X208731893Y-141211511D01*
X208731893Y-141211511D02*
X208721072Y-141213099D01*
X208721072Y-141213099D02*
X208510570Y-141254224D01*
X208510570Y-141254224D02*
X208336407Y-141299936D01*
X208336407Y-141299936D02*
X208189567Y-141354363D01*
X208189567Y-141354363D02*
X208061035Y-141421632D01*
X208061035Y-141421632D02*
X207941796Y-141505868D01*
X207941796Y-141505868D02*
X207822832Y-141611200D01*
X207822832Y-141611200D02*
X207797601Y-141635833D01*
X207797601Y-141635833D02*
X207702109Y-141734505D01*
X207702109Y-141734505D02*
X207631593Y-141819383D01*
X207631593Y-141819383D02*
X207575450Y-141904807D01*
X207575450Y-141904807D02*
X207523081Y-142005117D01*
X207523081Y-142005117D02*
X207520266Y-142011002D01*
X207520266Y-142011002D02*
X207451130Y-142166744D01*
X207451130Y-142166744D02*
X207402871Y-142305619D01*
X207402871Y-142305619D02*
X207372223Y-142442648D01*
X207372223Y-142442648D02*
X207355921Y-142592856D01*
X207355921Y-142592856D02*
X207350700Y-142771265D01*
X207350700Y-142771265D02*
X207350662Y-142791339D01*
X207350662Y-142791339D02*
X207362560Y-143045293D01*
X207362560Y-143045293D02*
X207400139Y-143267428D01*
X207400139Y-143267428D02*
X207466225Y-143465104D01*
X207466225Y-143465104D02*
X207563644Y-143645679D01*
X207563644Y-143645679D02*
X207695221Y-143816513D01*
X207695221Y-143816513D02*
X207777789Y-143903652D01*
X207777789Y-143903652D02*
X207888577Y-144006558D01*
X207888577Y-144006558D02*
X207999505Y-144092462D01*
X207999505Y-144092462D02*
X208118579Y-144165341D01*
X208118579Y-144165341D02*
X208253806Y-144229170D01*
X208253806Y-144229170D02*
X208413190Y-144287928D01*
X208413190Y-144287928D02*
X208604739Y-144345590D01*
X208604739Y-144345590D02*
X208740572Y-144381866D01*
X208740572Y-144381866D02*
X208816769Y-144401518D01*
X208816769Y-144401518D02*
X208649858Y-144514581D01*
X208649858Y-144514581D02*
X208480055Y-144645003D01*
X208480055Y-144645003D02*
X208305000Y-144807436D01*
X208305000Y-144807436D02*
X208135086Y-144991314D01*
X208135086Y-144991314D02*
X207980705Y-145186076D01*
X207980705Y-145186076D02*
X207957854Y-145217946D01*
X207957854Y-145217946D02*
X207918862Y-145275149D01*
X207918862Y-145275149D02*
X207862238Y-145360945D01*
X207862238Y-145360945D02*
X207790977Y-145470589D01*
X207790977Y-145470589D02*
X207708073Y-145599336D01*
X207708073Y-145599336D02*
X207616522Y-145742441D01*
X207616522Y-145742441D02*
X207519316Y-145895156D01*
X207519316Y-145895156D02*
X207419452Y-146052738D01*
X207419452Y-146052738D02*
X207319923Y-146210440D01*
X207319923Y-146210440D02*
X207223725Y-146363517D01*
X207223725Y-146363517D02*
X207133851Y-146507224D01*
X207133851Y-146507224D02*
X207053297Y-146636814D01*
X207053297Y-146636814D02*
X206985057Y-146747542D01*
X206985057Y-146747542D02*
X206932125Y-146834663D01*
X206932125Y-146834663D02*
X206897497Y-146893431D01*
X206897497Y-146893431D02*
X206884166Y-146919101D01*
X206884166Y-146919101D02*
X206884108Y-146919531D01*
X206884108Y-146919531D02*
X206905875Y-146922164D01*
X206905875Y-146922164D02*
X206967530Y-146924560D01*
X206967530Y-146924560D02*
X207063605Y-146926635D01*
X207063605Y-146926635D02*
X207188631Y-146928308D01*
X207188631Y-146928308D02*
X207337140Y-146929494D01*
X207337140Y-146929494D02*
X207503662Y-146930110D01*
X207503662Y-146930110D02*
X207583188Y-146930179D01*
X207583188Y-146930179D02*
X208282268Y-146930179D01*
X208282268Y-146930179D02*
X208861583Y-146062723D01*
X208861583Y-146062723D02*
X208986485Y-145876423D01*
X208986485Y-145876423D02*
X209109316Y-145694574D01*
X209109316Y-145694574D02*
X209226628Y-145522186D01*
X209226628Y-145522186D02*
X209334972Y-145364272D01*
X209334972Y-145364272D02*
X209430901Y-145225840D01*
X209430901Y-145225840D02*
X209510965Y-145111902D01*
X209510965Y-145111902D02*
X209571718Y-145027469D01*
X209571718Y-145027469D02*
X209599559Y-144990342D01*
X209599559Y-144990342D02*
X209719728Y-144847055D01*
X209719728Y-144847055D02*
X209836606Y-144736516D01*
X209836606Y-144736516D02*
X209958570Y-144654885D01*
X209958570Y-144654885D02*
X210093996Y-144598317D01*
X210093996Y-144598317D02*
X210251261Y-144562969D01*
X210251261Y-144562969D02*
X210438742Y-144545000D01*
X210438742Y-144545000D02*
X210579396Y-144540833D01*
X210579396Y-144540833D02*
X210864197Y-144537589D01*
X210864197Y-144537589D02*
X210875937Y-146930179D01*
X210875937Y-146930179D02*
X212054822Y-146930179D01*
X212054822Y-146930179D02*
X212054822Y-142167679D01*
X212054822Y-142167679D02*
X210875536Y-142167679D01*
X210875536Y-142167679D02*
X210875536Y-143596429D01*
X210875536Y-143596429D02*
X210166831Y-143596242D01*
X210166831Y-143596242D02*
X209980818Y-143595453D01*
X209980818Y-143595453D02*
X209799682Y-143593309D01*
X209799682Y-143593309D02*
X209631074Y-143590006D01*
X209631074Y-143590006D02*
X209482647Y-143585736D01*
X209482647Y-143585736D02*
X209362052Y-143580691D01*
X209362052Y-143580691D02*
X209276939Y-143575066D01*
X209276939Y-143575066D02*
X209259973Y-143573352D01*
X209259973Y-143573352D02*
X209081380Y-143545016D01*
X209081380Y-143545016D02*
X208939586Y-143503701D01*
X208939586Y-143503701D02*
X208827140Y-143446377D01*
X208827140Y-143446377D02*
X208736588Y-143370017D01*
X208736588Y-143370017D02*
X208723031Y-143355147D01*
X208723031Y-143355147D02*
X208630162Y-143217636D01*
X208630162Y-143217636D02*
X208574813Y-143057632D01*
X208574813Y-143057632D02*
X208556080Y-142872452D01*
X208556080Y-142872452D02*
X208556109Y-142859375D01*
X208556109Y-142859375D02*
X208575450Y-142674068D01*
X208575450Y-142674068D02*
X208630341Y-142516920D01*
X208630341Y-142516920D02*
X208720889Y-142387785D01*
X208720889Y-142387785D02*
X208847199Y-142286518D01*
X208847199Y-142286518D02*
X209009381Y-142212974D01*
X209009381Y-142212974D02*
X209039209Y-142203608D01*
X209039209Y-142203608D02*
X209077810Y-142194059D01*
X209077810Y-142194059D02*
X209126016Y-142186305D01*
X209126016Y-142186305D02*
X209188547Y-142180172D01*
X209188547Y-142180172D02*
X209270123Y-142175487D01*
X209270123Y-142175487D02*
X209375465Y-142172077D01*
X209375465Y-142172077D02*
X209509292Y-142169768D01*
X209509292Y-142169768D02*
X209676324Y-142168388D01*
X209676324Y-142168388D02*
X209881282Y-142167763D01*
X209881282Y-142167763D02*
X210017867Y-142167679D01*
X210017867Y-142167679D02*
X210875536Y-142167679D01*
X210875536Y-142167679D02*
X212054822Y-142167679D01*
X212054822Y-142167679D02*
X212054822Y-141166576D01*
X212054822Y-141166576D02*
X210461652Y-141177046D01*
X210461652Y-141177046D02*
X210461652Y-141177046D01*
G36*
X210875937Y-146930179D02*
G01*
X210864197Y-144537589D01*
X210579396Y-144540833D01*
X210438742Y-144545000D01*
X210251261Y-144562969D01*
X210093996Y-144598317D01*
X209958570Y-144654885D01*
X209836606Y-144736516D01*
X209719728Y-144847055D01*
X209599559Y-144990342D01*
X209571718Y-145027469D01*
X209510965Y-145111902D01*
X209430901Y-145225840D01*
X209334972Y-145364272D01*
X209226628Y-145522186D01*
X209109316Y-145694574D01*
X208986485Y-145876423D01*
X208861583Y-146062723D01*
X208282268Y-146930179D01*
X207583188Y-146930179D01*
X207503662Y-146930110D01*
X207337140Y-146929494D01*
X207188631Y-146928308D01*
X207063605Y-146926635D01*
X206967530Y-146924560D01*
X206905875Y-146922164D01*
X206884108Y-146919531D01*
X206884166Y-146919101D01*
X206897497Y-146893431D01*
X206932125Y-146834663D01*
X206985057Y-146747542D01*
X207053297Y-146636814D01*
X207133851Y-146507224D01*
X207223725Y-146363517D01*
X207319923Y-146210440D01*
X207419452Y-146052738D01*
X207519316Y-145895156D01*
X207616522Y-145742441D01*
X207708073Y-145599336D01*
X207790977Y-145470589D01*
X207862238Y-145360945D01*
X207918862Y-145275149D01*
X207957854Y-145217946D01*
X207980705Y-145186076D01*
X208135086Y-144991314D01*
X208305000Y-144807436D01*
X208480055Y-144645003D01*
X208649858Y-144514581D01*
X208816769Y-144401518D01*
X208740572Y-144381866D01*
X208604739Y-144345590D01*
X208413190Y-144287928D01*
X208253806Y-144229170D01*
X208118579Y-144165341D01*
X207999505Y-144092462D01*
X207888577Y-144006558D01*
X207777789Y-143903652D01*
X207695221Y-143816513D01*
X207563644Y-143645679D01*
X207466225Y-143465104D01*
X207400139Y-143267428D01*
X207362560Y-143045293D01*
X207354462Y-142872452D01*
X208556080Y-142872452D01*
X208574813Y-143057632D01*
X208630162Y-143217636D01*
X208723031Y-143355147D01*
X208736588Y-143370017D01*
X208827140Y-143446377D01*
X208939586Y-143503701D01*
X209081380Y-143545016D01*
X209259973Y-143573352D01*
X209276939Y-143575066D01*
X209362052Y-143580691D01*
X209482647Y-143585736D01*
X209631074Y-143590006D01*
X209799682Y-143593309D01*
X209980818Y-143595453D01*
X210166831Y-143596242D01*
X210875536Y-143596429D01*
X210875536Y-142167679D01*
X210017867Y-142167679D01*
X209881282Y-142167763D01*
X209676324Y-142168388D01*
X209509292Y-142169768D01*
X209375465Y-142172077D01*
X209270123Y-142175487D01*
X209188547Y-142180172D01*
X209126016Y-142186305D01*
X209077810Y-142194059D01*
X209039209Y-142203608D01*
X209009381Y-142212974D01*
X208847199Y-142286518D01*
X208720889Y-142387785D01*
X208630341Y-142516920D01*
X208575450Y-142674068D01*
X208556109Y-142859375D01*
X208556080Y-142872452D01*
X207354462Y-142872452D01*
X207350662Y-142791339D01*
X207350700Y-142771265D01*
X207355921Y-142592856D01*
X207372223Y-142442648D01*
X207402871Y-142305619D01*
X207451130Y-142166744D01*
X207520266Y-142011002D01*
X207523081Y-142005117D01*
X207575450Y-141904807D01*
X207631593Y-141819383D01*
X207702109Y-141734505D01*
X207797601Y-141635833D01*
X207822832Y-141611200D01*
X207941796Y-141505868D01*
X208061035Y-141421632D01*
X208189567Y-141354363D01*
X208336407Y-141299936D01*
X208510570Y-141254224D01*
X208721072Y-141213099D01*
X208731893Y-141211511D01*
X208800976Y-141205760D01*
X208914129Y-141200380D01*
X209070337Y-141195391D01*
X209268584Y-141190814D01*
X209507855Y-141186670D01*
X209787134Y-141182980D01*
X210105405Y-141179765D01*
X210461652Y-141177046D01*
X212054822Y-141166576D01*
X212054822Y-146930179D01*
X210875937Y-146930179D01*
G37*
X210875937Y-146930179D02*
X210864197Y-144537589D01*
X210579396Y-144540833D01*
X210438742Y-144545000D01*
X210251261Y-144562969D01*
X210093996Y-144598317D01*
X209958570Y-144654885D01*
X209836606Y-144736516D01*
X209719728Y-144847055D01*
X209599559Y-144990342D01*
X209571718Y-145027469D01*
X209510965Y-145111902D01*
X209430901Y-145225840D01*
X209334972Y-145364272D01*
X209226628Y-145522186D01*
X209109316Y-145694574D01*
X208986485Y-145876423D01*
X208861583Y-146062723D01*
X208282268Y-146930179D01*
X207583188Y-146930179D01*
X207503662Y-146930110D01*
X207337140Y-146929494D01*
X207188631Y-146928308D01*
X207063605Y-146926635D01*
X206967530Y-146924560D01*
X206905875Y-146922164D01*
X206884108Y-146919531D01*
X206884166Y-146919101D01*
X206897497Y-146893431D01*
X206932125Y-146834663D01*
X206985057Y-146747542D01*
X207053297Y-146636814D01*
X207133851Y-146507224D01*
X207223725Y-146363517D01*
X207319923Y-146210440D01*
X207419452Y-146052738D01*
X207519316Y-145895156D01*
X207616522Y-145742441D01*
X207708073Y-145599336D01*
X207790977Y-145470589D01*
X207862238Y-145360945D01*
X207918862Y-145275149D01*
X207957854Y-145217946D01*
X207980705Y-145186076D01*
X208135086Y-144991314D01*
X208305000Y-144807436D01*
X208480055Y-144645003D01*
X208649858Y-144514581D01*
X208816769Y-144401518D01*
X208740572Y-144381866D01*
X208604739Y-144345590D01*
X208413190Y-144287928D01*
X208253806Y-144229170D01*
X208118579Y-144165341D01*
X207999505Y-144092462D01*
X207888577Y-144006558D01*
X207777789Y-143903652D01*
X207695221Y-143816513D01*
X207563644Y-143645679D01*
X207466225Y-143465104D01*
X207400139Y-143267428D01*
X207362560Y-143045293D01*
X207354462Y-142872452D01*
X208556080Y-142872452D01*
X208574813Y-143057632D01*
X208630162Y-143217636D01*
X208723031Y-143355147D01*
X208736588Y-143370017D01*
X208827140Y-143446377D01*
X208939586Y-143503701D01*
X209081380Y-143545016D01*
X209259973Y-143573352D01*
X209276939Y-143575066D01*
X209362052Y-143580691D01*
X209482647Y-143585736D01*
X209631074Y-143590006D01*
X209799682Y-143593309D01*
X209980818Y-143595453D01*
X210166831Y-143596242D01*
X210875536Y-143596429D01*
X210875536Y-142167679D01*
X210017867Y-142167679D01*
X209881282Y-142167763D01*
X209676324Y-142168388D01*
X209509292Y-142169768D01*
X209375465Y-142172077D01*
X209270123Y-142175487D01*
X209188547Y-142180172D01*
X209126016Y-142186305D01*
X209077810Y-142194059D01*
X209039209Y-142203608D01*
X209009381Y-142212974D01*
X208847199Y-142286518D01*
X208720889Y-142387785D01*
X208630341Y-142516920D01*
X208575450Y-142674068D01*
X208556109Y-142859375D01*
X208556080Y-142872452D01*
X207354462Y-142872452D01*
X207350662Y-142791339D01*
X207350700Y-142771265D01*
X207355921Y-142592856D01*
X207372223Y-142442648D01*
X207402871Y-142305619D01*
X207451130Y-142166744D01*
X207520266Y-142011002D01*
X207523081Y-142005117D01*
X207575450Y-141904807D01*
X207631593Y-141819383D01*
X207702109Y-141734505D01*
X207797601Y-141635833D01*
X207822832Y-141611200D01*
X207941796Y-141505868D01*
X208061035Y-141421632D01*
X208189567Y-141354363D01*
X208336407Y-141299936D01*
X208510570Y-141254224D01*
X208721072Y-141213099D01*
X208731893Y-141211511D01*
X208800976Y-141205760D01*
X208914129Y-141200380D01*
X209070337Y-141195391D01*
X209268584Y-141190814D01*
X209507855Y-141186670D01*
X209787134Y-141182980D01*
X210105405Y-141179765D01*
X210461652Y-141177046D01*
X212054822Y-141166576D01*
X212054822Y-146930179D01*
X210875937Y-146930179D01*
M02*
