M48
; DRILL file {KiCad (5.1.9)-1} date 08/22/21 23:33:04
; FORMAT={-:-/ absolute / metric / decimal}
; #@! TF.CreationDate,2021-08-22T23:33:04+02:00
; #@! TF.GenerationSoftware,Kicad,Pcbnew,(5.1.9)-1
; #@! TF.FileFunction,Plated,1,2,PTH
FMAT,2
METRIC
T1C0.300
T2C0.400
T3C0.800
T4C0.890
T5C1.000
T6C1.100
T7C1.500
T8C1.700
T9C2.010
%
G90
G05
T1
X89.9Y-102.3
X94.6Y-98.8
X97.7Y-137.6
X99.34Y-102.74
X99.5Y-143.0
X100.34Y-102.74
X100.4Y-108.7
X100.4Y-109.7
X100.4Y-110.7
X100.46Y-142.96
X101.5Y-143.0
X101.6Y-108.75
X101.6Y-109.7
X101.6Y-110.7
X101.9Y-102.7
X102.7Y-137.6
X103.5Y-112.9
X104.1Y-95.7
X106.6Y-98.9
X106.6Y-99.9
X106.6Y-100.9
X106.7Y-104.8
X106.7Y-105.8
X106.7Y-106.8
X107.4Y-98.9
X107.4Y-99.9
X107.4Y-100.9
X107.5Y-104.8
X107.5Y-105.8
X107.5Y-106.8
X110.8Y-109.8
X111.0Y-106.2
X111.9Y-98.5
X113.6Y-109.0
X114.1Y-97.1
X145.6Y-95.7
X147.5Y-97.7
X162.35Y-76.6
X162.85Y-66.1
X163.85Y-74.1
X164.7Y-79.4
X165.8Y-78.3
X166.5Y-70.6
X166.8Y-77.1
X169.85Y-67.1
X170.85Y-74.85
X173.85Y-67.35
X173.85Y-71.35
X175.6Y-53.7
X175.6Y-55.1
X175.6Y-57.1
X175.6Y-59.1
X175.6Y-61.1
X175.6Y-63.1
X175.6Y-65.1
X175.6Y-67.1
X175.6Y-69.1
X175.6Y-71.1
X175.6Y-73.1
X175.6Y-74.6
X175.6Y-77.1
X175.6Y-79.1
X175.6Y-81.1
X175.6Y-83.1
X175.6Y-85.1
X175.6Y-87.1
X176.2Y-104.1
X177.1Y-53.7
X177.2Y-88.7
X178.1Y-60.1
X178.6Y-53.7
X178.6Y-55.1
X178.6Y-57.1
X178.6Y-59.1
X178.6Y-61.1
X178.6Y-63.1
X178.6Y-65.1
X178.6Y-71.6
X178.6Y-72.85
X178.6Y-74.1
X178.6Y-81.1
X178.6Y-83.1
X178.6Y-85.1
X178.6Y-90.0
X178.7Y-79.7
X179.6Y-71.6
X179.6Y-74.1
X179.6Y-86.2
X180.1Y-69.4
X180.2Y-64.9
X180.6Y-71.6
X180.6Y-74.5
X180.6Y-76.3
X180.6Y-87.1
X180.6Y-90.0
X181.3Y-112.9
X181.45Y-73.15
X181.5Y-67.6
X181.6Y-74.5
X181.6Y-76.3
X182.5Y-71.1
X182.5Y-72.1
X182.6Y-76.3
X182.6Y-87.1
X182.6Y-90.0
X182.7Y-74.5
X183.5Y-71.1
X183.5Y-72.1
X183.6Y-68.35
X184.5Y-71.1
X184.5Y-72.1
X184.6Y-68.35
X184.6Y-74.1
X184.6Y-87.1
X184.6Y-90.0
X185.5Y-71.1
X185.5Y-72.1
X185.6Y-68.35
X185.6Y-74.1
X185.7Y-76.2
X185.7Y-77.2
X186.5Y-72.1
X186.6Y-74.1
X186.6Y-87.1
X186.6Y-90.0
X188.6Y-67.1
X188.6Y-68.1
X188.6Y-69.1
X188.6Y-76.1
X188.6Y-77.1
X188.6Y-87.1
X188.6Y-90.0
X189.6Y-67.1
X189.6Y-68.1
X189.6Y-69.1
X189.6Y-76.1
X189.6Y-77.1
X190.6Y-67.1
X190.6Y-68.1
X190.6Y-69.1
X190.6Y-70.1
X190.6Y-71.1
X190.6Y-75.1
X190.6Y-76.1
X190.6Y-77.1
X190.6Y-87.1
X190.6Y-90.0
X191.6Y-67.1
X191.6Y-68.1
X191.6Y-69.1
X191.6Y-70.1
X191.6Y-71.1
X191.6Y-72.8
X191.6Y-75.1
X191.6Y-76.1
X191.6Y-77.1
X192.6Y-67.1
X192.6Y-68.1
X192.6Y-69.1
X192.6Y-70.1
X192.6Y-71.1
X192.6Y-75.1
X192.6Y-76.1
X192.6Y-77.1
X192.6Y-87.1
X192.6Y-90.0
X192.9Y-112.9
X193.6Y-67.1
X193.6Y-68.1
X193.6Y-69.1
X194.6Y-87.1
X194.6Y-90.0
X195.0Y-107.0
X195.6Y-75.1
X196.1Y-66.2
X196.5Y-72.0
X196.6Y-74.1
X196.6Y-76.1
X196.6Y-90.0
X197.0Y-107.0
X197.6Y-68.8
X197.6Y-71.1
X197.6Y-75.1
X197.6Y-77.1
X198.6Y-67.8
X198.6Y-70.1
X198.6Y-76.1
X198.6Y-78.1
X198.6Y-87.1
X198.6Y-90.0
X199.0Y-107.0
X199.15Y-115.65
X199.4Y-73.1
X199.6Y-66.8
X199.6Y-69.1
X199.6Y-77.1
X199.6Y-79.1
X199.6Y-107.8
X200.6Y-65.8
X200.6Y-68.1
X200.6Y-78.1
X200.6Y-80.1
X200.6Y-87.1
X200.6Y-90.0
X201.4Y-64.95
X201.6Y-67.1
X201.6Y-79.1
X201.6Y-80.9
X202.1Y-64.0
X202.35Y-66.4
X202.6Y-79.1
X202.6Y-80.9
X202.6Y-87.1
X202.6Y-90.0
X203.1Y-64.0
X203.1Y-65.8
X203.7Y-79.1
X203.7Y-80.9
X204.1Y-64.0
X204.1Y-65.8
X204.3Y-107.7
X204.6Y-87.1
X204.6Y-90.0
X204.7Y-79.1
X204.7Y-80.9
X205.1Y-64.0
X205.1Y-65.8
X205.7Y-79.1
X205.7Y-80.9
X205.8Y-93.2
X206.1Y-64.0
X206.1Y-65.8
X206.1Y-105.4
X206.6Y-87.1
X206.6Y-90.0
X206.6Y-117.3
X206.7Y-79.1
X206.7Y-80.9
X207.1Y-64.0
X207.1Y-65.8
X207.7Y-79.1
X207.7Y-80.9
X208.0Y-106.0
X208.0Y-107.0
X208.1Y-64.0
X208.1Y-65.8
X208.6Y-87.1
X208.6Y-90.0
X208.7Y-79.1
X208.7Y-80.9
X209.1Y-64.0
X209.1Y-65.8
X209.7Y-79.1
X209.7Y-80.9
X210.1Y-64.0
X210.1Y-65.8
X210.6Y-87.1
X210.6Y-90.0
X210.7Y-79.1
X210.7Y-80.9
X211.1Y-64.0
X211.1Y-65.8
X211.4Y-115.3
X211.7Y-79.1
X211.7Y-80.9
X212.1Y-64.0
X212.1Y-65.8
X212.6Y-87.1
X212.6Y-90.0
X212.7Y-79.1
X212.7Y-80.9
X213.1Y-64.0
X213.1Y-65.8
X213.7Y-79.1
X213.7Y-80.9
X214.1Y-64.0
X214.1Y-65.8
X214.6Y-87.1
X214.6Y-90.0
X214.7Y-79.1
X214.7Y-80.9
X215.1Y-64.0
X215.1Y-65.8
X215.7Y-79.1
X215.7Y-80.9
X216.1Y-64.0
X216.1Y-65.8
X216.6Y-87.1
X216.6Y-90.0
X216.7Y-79.1
X216.7Y-80.9
X217.1Y-64.0
X217.1Y-65.8
X217.7Y-79.1
X217.7Y-80.9
X218.1Y-64.0
X218.1Y-65.8
X218.6Y-87.1
X218.6Y-90.0
X218.7Y-79.1
X218.7Y-80.9
X219.1Y-64.0
X219.1Y-65.8
X219.7Y-79.1
X219.7Y-80.9
X220.1Y-64.0
X220.1Y-65.8
X220.6Y-87.1
X220.6Y-90.0
X220.7Y-79.1
X220.7Y-80.9
X221.1Y-64.0
X221.1Y-65.8
X222.6Y-87.1
X222.6Y-90.0
X224.6Y-87.1
X224.6Y-90.0
X226.6Y-87.1
X226.6Y-90.0
X228.6Y-87.1
X228.6Y-90.0
T2
X186.55Y-84.9
T3
X92.8Y-138.2
X92.8Y-140.7
X108.1Y-138.3
X108.1Y-140.8
X190.0Y-106.0
X190.0Y-111.0
X201.5Y-100.5
X201.5Y-105.5
T4
X217.1Y-107.36
X217.1Y-109.9
X217.2Y-132.46
X217.2Y-135.0
T5
X75.29Y-60.63
X75.29Y-63.17
X75.29Y-65.71
X75.29Y-68.25
X75.29Y-70.79
X75.29Y-73.33
X75.29Y-75.87
X75.29Y-78.41
X75.29Y-80.95
X75.29Y-83.49
X75.29Y-86.03
X75.29Y-88.57
X75.29Y-91.11
X75.29Y-93.65
X75.29Y-96.19
X75.29Y-98.73
X75.29Y-101.27
X75.29Y-103.81
X75.29Y-106.35
X75.29Y-108.89
X75.29Y-111.43
X75.29Y-113.97
X75.29Y-116.51
X75.29Y-119.05
X75.29Y-121.59
X75.29Y-124.13
X75.29Y-126.67
X75.29Y-129.21
X75.29Y-131.75
X75.29Y-134.29
X75.29Y-136.83
X75.29Y-139.37
X80.37Y-60.63
X80.37Y-63.17
X80.37Y-65.71
X80.37Y-68.25
X80.37Y-70.79
X80.37Y-73.33
X80.37Y-75.87
X80.37Y-78.41
X80.37Y-80.95
X80.37Y-83.49
X80.37Y-86.03
X80.37Y-88.57
X80.37Y-91.11
X80.37Y-93.65
X80.37Y-96.19
X80.37Y-98.73
X80.37Y-101.27
X80.37Y-103.81
X80.37Y-106.35
X80.37Y-108.89
X80.37Y-111.43
X80.37Y-113.97
X80.37Y-116.51
X80.37Y-119.05
X80.37Y-121.59
X80.37Y-124.13
X80.37Y-126.67
X80.37Y-129.21
X80.37Y-131.75
X80.37Y-134.29
X80.37Y-136.83
X80.37Y-139.37
X213.9Y-93.2
X221.52Y-95.74
X226.6Y-93.2
T6
X97.92Y-145.5
X100.46Y-145.5
X103.0Y-145.5
T7
X224.6Y-64.9
X224.6Y-80.0
T8
X222.06Y-62.36
X222.06Y-67.44
X222.06Y-77.46
X222.06Y-82.54
X227.14Y-62.36
X227.14Y-67.44
X227.14Y-77.46
X227.14Y-82.54
T9
X222.18Y-104.82
X222.18Y-114.98
X222.28Y-129.92
X222.28Y-140.08
T0
M30
