G04 #@! TF.GenerationSoftware,KiCad,Pcbnew,(5.1.9)-1*
G04 #@! TF.CreationDate,2021-08-22T23:33:01+02:00*
G04 #@! TF.ProjectId,PFD_HMC439QS16G,5046445f-484d-4433-9433-395153313647,1.2*
G04 #@! TF.SameCoordinates,Original*
G04 #@! TF.FileFunction,Copper,L2,Bot*
G04 #@! TF.FilePolarity,Positive*
%FSLAX46Y46*%
G04 Gerber Fmt 4.6, Leading zero omitted, Abs format (unit mm)*
G04 Created by KiCad (PCBNEW (5.1.9)-1) date 2021-08-22 23:33:01*
%MOMM*%
%LPD*%
G01*
G04 APERTURE LIST*
G04 #@! TA.AperFunction,ComponentPad*
%ADD10C,2.050000*%
G04 #@! TD*
G04 #@! TA.AperFunction,ComponentPad*
%ADD11C,2.250000*%
G04 #@! TD*
G04 #@! TA.AperFunction,ComponentPad*
%ADD12C,1.800000*%
G04 #@! TD*
G04 #@! TA.AperFunction,ComponentPad*
%ADD13C,1.600000*%
G04 #@! TD*
G04 #@! TA.AperFunction,ComponentPad*
%ADD14R,1.600000X1.600000*%
G04 #@! TD*
G04 #@! TA.AperFunction,ComponentPad*
%ADD15R,1.905000X2.000000*%
G04 #@! TD*
G04 #@! TA.AperFunction,ComponentPad*
%ADD16O,1.905000X2.000000*%
G04 #@! TD*
G04 #@! TA.AperFunction,ComponentPad*
%ADD17O,2.500000X1.600000*%
G04 #@! TD*
G04 #@! TA.AperFunction,ComponentPad*
%ADD18O,7.000000X3.500000*%
G04 #@! TD*
G04 #@! TA.AperFunction,ViaPad*
%ADD19C,0.600000*%
G04 #@! TD*
G04 #@! TA.AperFunction,Conductor*
%ADD20C,0.250000*%
G04 #@! TD*
G04 #@! TA.AperFunction,Conductor*
%ADD21C,0.500000*%
G04 #@! TD*
G04 #@! TA.AperFunction,Conductor*
%ADD22C,1.000000*%
G04 #@! TD*
G04 #@! TA.AperFunction,Conductor*
%ADD23C,0.254000*%
G04 #@! TD*
G04 #@! TA.AperFunction,Conductor*
%ADD24C,0.100000*%
G04 #@! TD*
G04 APERTURE END LIST*
D10*
X224600000Y-80000000D03*
D11*
X227140000Y-82540000D03*
X227140000Y-77460000D03*
X222060000Y-77460000D03*
X222060000Y-82540000D03*
X222060000Y-67440000D03*
X222060000Y-62360000D03*
X227140000Y-62360000D03*
X227140000Y-67440000D03*
D10*
X224600000Y-64900000D03*
D12*
X213900000Y-93200000D03*
X221520000Y-95740000D03*
X226600000Y-93200000D03*
D13*
X108100000Y-138300000D03*
D14*
X108100000Y-140800000D03*
X92800000Y-140700000D03*
D13*
X92800000Y-138200000D03*
D12*
X80370000Y-60630000D03*
X80370000Y-63170000D03*
X80370000Y-65710000D03*
X80370000Y-68250000D03*
X80370000Y-70790000D03*
X80370000Y-73330000D03*
X80370000Y-75870000D03*
X80370000Y-78410000D03*
X80370000Y-80950000D03*
X80370000Y-83490000D03*
X80370000Y-86030000D03*
X80370000Y-88570000D03*
X80370000Y-91110000D03*
X80370000Y-93650000D03*
X80370000Y-96190000D03*
X80370000Y-98730000D03*
X80370000Y-101270000D03*
X80370000Y-103810000D03*
X80370000Y-106350000D03*
X80370000Y-108890000D03*
X80370000Y-111430000D03*
X80370000Y-113970000D03*
X80370000Y-116510000D03*
X80370000Y-119050000D03*
X80370000Y-121590000D03*
X80370000Y-124130000D03*
X80370000Y-126670000D03*
X80370000Y-129210000D03*
X80370000Y-134290000D03*
X80370000Y-131750000D03*
X80370000Y-136830000D03*
X80370000Y-139370000D03*
X75290000Y-60630000D03*
X75290000Y-63170000D03*
X75290000Y-65710000D03*
X75290000Y-68250000D03*
X75290000Y-70790000D03*
X75290000Y-73330000D03*
X75290000Y-75870000D03*
X75290000Y-78410000D03*
X75290000Y-80950000D03*
X75290000Y-83490000D03*
X75290000Y-86030000D03*
X75290000Y-88570000D03*
X75290000Y-91110000D03*
X75290000Y-93650000D03*
X75290000Y-96190000D03*
X75290000Y-98730000D03*
X75290000Y-101270000D03*
X75290000Y-103810000D03*
X75290000Y-106350000D03*
X75290000Y-108890000D03*
X75290000Y-111430000D03*
X75290000Y-113970000D03*
X75290000Y-116510000D03*
X75290000Y-119050000D03*
X75290000Y-121590000D03*
X75290000Y-124130000D03*
X75290000Y-126670000D03*
X75290000Y-129210000D03*
X75290000Y-134290000D03*
X75290000Y-131750000D03*
X75290000Y-136830000D03*
X75290000Y-139370000D03*
D15*
X103000000Y-145500000D03*
D16*
X100460000Y-145500000D03*
X97920000Y-145500000D03*
D17*
X217200000Y-132460000D03*
X217200000Y-135000000D03*
D18*
X222280000Y-140080000D03*
X222280000Y-129920000D03*
X222180000Y-104820000D03*
X222180000Y-114980000D03*
D17*
X217100000Y-109900000D03*
X217100000Y-107360000D03*
D13*
X201500000Y-105500000D03*
X201500000Y-100500000D03*
X190000000Y-106000000D03*
X190000000Y-111000000D03*
D19*
X191600000Y-72800000D03*
X195600000Y-75100000D03*
X196600000Y-76100000D03*
X197600000Y-77100000D03*
X198600000Y-78100000D03*
X199600000Y-79100000D03*
X200600000Y-80100000D03*
X201600000Y-80900000D03*
X202600000Y-80900000D03*
X202600000Y-79100000D03*
X201600000Y-79100000D03*
X200600000Y-78100000D03*
X199600000Y-77100000D03*
X198600000Y-76100000D03*
X197600000Y-75100000D03*
X196600000Y-74100000D03*
X201600000Y-67100000D03*
X200600000Y-68100000D03*
X199600000Y-69100000D03*
X198600000Y-70100000D03*
X197600000Y-71100000D03*
X201400000Y-64950000D03*
X200600000Y-65800000D03*
X199600000Y-66800000D03*
X198600000Y-67800000D03*
X197600000Y-68800000D03*
X199400000Y-73100000D03*
X196100000Y-66200000D03*
X196500000Y-72000000D03*
X188600000Y-77100000D03*
X189600000Y-77100000D03*
X190600000Y-77100000D03*
X191600000Y-77100000D03*
X192600000Y-77100000D03*
X188600000Y-76100000D03*
X189600000Y-76100000D03*
X190600000Y-76100000D03*
X191600000Y-76100000D03*
X192600000Y-76100000D03*
X190600000Y-75100000D03*
X191600000Y-75100000D03*
X192600000Y-75100000D03*
X190600000Y-71100000D03*
X191600000Y-71100000D03*
X192600000Y-71100000D03*
X190600000Y-70100000D03*
X191600000Y-70100000D03*
X192600000Y-70100000D03*
X188600000Y-69100000D03*
X189600000Y-69100000D03*
X190600000Y-69100000D03*
X191600000Y-69100000D03*
X192600000Y-69100000D03*
X193600000Y-69100000D03*
X188600000Y-68100000D03*
X189600000Y-68100000D03*
X190600000Y-68100000D03*
X191600000Y-68100000D03*
X192600000Y-68100000D03*
X193600000Y-68100000D03*
X188600000Y-67100000D03*
X189600000Y-67100000D03*
X190600000Y-67100000D03*
X191600000Y-67100000D03*
X192600000Y-67100000D03*
X193600000Y-67100000D03*
X182500000Y-71100000D03*
X183500000Y-71100000D03*
X184500000Y-71100000D03*
X185500000Y-71100000D03*
X186500000Y-72100000D03*
X185500000Y-72100000D03*
X184500000Y-72100000D03*
X183500000Y-72100000D03*
X182500000Y-72100000D03*
X180200000Y-64900000D03*
X185700000Y-76200000D03*
X185700000Y-77200000D03*
X186600000Y-74100000D03*
X185600000Y-74100000D03*
X184600000Y-74100000D03*
X180600000Y-74500000D03*
X181600000Y-74500000D03*
X182700000Y-74500000D03*
X180600000Y-76300000D03*
X181600000Y-76300000D03*
X182600000Y-76300000D03*
X179600000Y-74100000D03*
X178600000Y-74100000D03*
X178600000Y-71600000D03*
X179600000Y-71600000D03*
X180600000Y-71600000D03*
X180100000Y-69400000D03*
X178700000Y-79700000D03*
X99340000Y-102740000D03*
X100340000Y-102740000D03*
X103500000Y-112900000D03*
X104100000Y-95700000D03*
X107400000Y-100900000D03*
X106600000Y-100900000D03*
X107400000Y-98900000D03*
X107400000Y-99900000D03*
X106600000Y-98900000D03*
X106600000Y-99900000D03*
X111900000Y-98500000D03*
X110800000Y-109800000D03*
X111000000Y-106200000D03*
X178600000Y-55100000D03*
X178600000Y-57100000D03*
X178600000Y-59100000D03*
X178600000Y-61100000D03*
X178600000Y-63100000D03*
X178600000Y-65100000D03*
X178600000Y-72850000D03*
X178600000Y-81100000D03*
X178600000Y-83100000D03*
X178600000Y-85100000D03*
X179600000Y-86200000D03*
X175600000Y-55100000D03*
X175600000Y-57100000D03*
X175600000Y-59100000D03*
X175600000Y-61100000D03*
X175600000Y-63100000D03*
X175600000Y-65100000D03*
X175600000Y-67100000D03*
X175600000Y-69100000D03*
X175600000Y-71100000D03*
X175600000Y-73100000D03*
X175600000Y-74600000D03*
X175600000Y-77100000D03*
X175600000Y-79100000D03*
X175600000Y-81100000D03*
X175600000Y-83100000D03*
X175600000Y-85100000D03*
X175600000Y-87100000D03*
X177200000Y-88700000D03*
X178600000Y-90000000D03*
X180600000Y-90000000D03*
X180600000Y-87100000D03*
X182600000Y-87100000D03*
X184600000Y-87100000D03*
X186600000Y-87100000D03*
X188600000Y-87100000D03*
X190600000Y-87100000D03*
X192600000Y-87100000D03*
X194600000Y-87100000D03*
X198600000Y-87100000D03*
X200600000Y-87100000D03*
X202600000Y-87100000D03*
X169850000Y-67100000D03*
X173850000Y-67350000D03*
X162350000Y-76600000D03*
X163850000Y-74100000D03*
X162850000Y-66100000D03*
X199150000Y-115650000D03*
X183600000Y-68350000D03*
X184600000Y-68350000D03*
X185600000Y-68350000D03*
X199600000Y-107800000D03*
X164700000Y-79400000D03*
X165800000Y-78300000D03*
X166800000Y-77100000D03*
X166500000Y-70600000D03*
X101500000Y-143000000D03*
X99500000Y-143000000D03*
X100460000Y-142959992D03*
X97700000Y-137600000D03*
X102700000Y-137600000D03*
X203700000Y-79100000D03*
X204700000Y-79100000D03*
X205700000Y-79100000D03*
X206700000Y-79100000D03*
X207700000Y-79100000D03*
X208700000Y-79100000D03*
X209700000Y-79100000D03*
X210700000Y-79100000D03*
X211700000Y-79100000D03*
X212700000Y-79100000D03*
X213700000Y-79100000D03*
X214700000Y-79100000D03*
X215700000Y-79100000D03*
X216700000Y-79100000D03*
X217700000Y-79100000D03*
X218700000Y-79100000D03*
X219700000Y-79100000D03*
X220700000Y-79100000D03*
X203700000Y-80900000D03*
X204700000Y-80900000D03*
X205700000Y-80900000D03*
X206700000Y-80900000D03*
X207700000Y-80900000D03*
X208700000Y-80900000D03*
X209700000Y-80900000D03*
X210700000Y-80900000D03*
X211700000Y-80900000D03*
X212700000Y-80900000D03*
X213700000Y-80900000D03*
X214700000Y-80900000D03*
X215700000Y-80900000D03*
X216700000Y-80900000D03*
X217700000Y-80900000D03*
X218700000Y-80900000D03*
X219700000Y-80900000D03*
X220700000Y-80900000D03*
X202350000Y-66400000D03*
X216100000Y-64000000D03*
X216100000Y-65800000D03*
X217100000Y-64000000D03*
X218100000Y-64000000D03*
X219100000Y-64000000D03*
X220100000Y-64000000D03*
X221100000Y-64000000D03*
X217100000Y-65800000D03*
X218100000Y-65800000D03*
X219100000Y-65800000D03*
X220100000Y-65800000D03*
X221100000Y-65800000D03*
X204600000Y-87100000D03*
X206600000Y-87100000D03*
X208600000Y-87100000D03*
X210600000Y-87100000D03*
X212600000Y-87100000D03*
X214600000Y-87100000D03*
X216600000Y-87100000D03*
X218600000Y-87100000D03*
X220600000Y-87100000D03*
X222600000Y-87100000D03*
X224600000Y-87100000D03*
X226600000Y-87100000D03*
X228600000Y-87100000D03*
X228600000Y-90000000D03*
X182600000Y-90000000D03*
X184600000Y-90000000D03*
X186600000Y-90000000D03*
X188600000Y-90000000D03*
X190600000Y-90000000D03*
X192600000Y-90000000D03*
X194600000Y-90000000D03*
X196600000Y-90000000D03*
X198600000Y-90000000D03*
X200600000Y-90000000D03*
X202600000Y-90000000D03*
X204600000Y-90000000D03*
X206600000Y-90000000D03*
X208600000Y-90000000D03*
X210600000Y-90000000D03*
X212600000Y-90000000D03*
X214600000Y-90000000D03*
X216600000Y-90000000D03*
X218600000Y-90000000D03*
X220600000Y-90000000D03*
X222600000Y-90000000D03*
X224600000Y-90000000D03*
X226600000Y-90000000D03*
X177100000Y-53700000D03*
X178600000Y-53700000D03*
X175600000Y-53700000D03*
X114100000Y-97100000D03*
X113600000Y-109000000D03*
X205800000Y-93200000D03*
X206600000Y-117300000D03*
X211400000Y-115300000D03*
X206100000Y-105400000D03*
X101900000Y-102700000D03*
X195000000Y-107000000D03*
X197000000Y-107000000D03*
X199000000Y-107000000D03*
X208000000Y-106000000D03*
X208000000Y-107000000D03*
X215100000Y-65800000D03*
X214100000Y-65800000D03*
X213100000Y-65800000D03*
X212100000Y-65800000D03*
X211100000Y-65800000D03*
X210100000Y-65800000D03*
X209100000Y-65800000D03*
X208100000Y-65800000D03*
X207100000Y-65800000D03*
X206100000Y-65800000D03*
X205100000Y-65800000D03*
X204100000Y-65800000D03*
X203100000Y-65800000D03*
X215100000Y-64000000D03*
X214100000Y-64000000D03*
X213100000Y-64000000D03*
X212100000Y-64000000D03*
X211100000Y-64000000D03*
X210100000Y-64000000D03*
X209100000Y-64000000D03*
X208100000Y-64000000D03*
X207100000Y-64000000D03*
X206100000Y-64000000D03*
X205100000Y-64000000D03*
X204100000Y-64000000D03*
X203100000Y-64000000D03*
X202100000Y-64000000D03*
X186550000Y-84900000D03*
X181450000Y-73150000D03*
X181500000Y-67599998D03*
X178100000Y-60100000D03*
X145600000Y-95700000D03*
X147500000Y-97700000D03*
X181300000Y-112900000D03*
X192900000Y-112900000D03*
X204300000Y-107700000D03*
X176200000Y-104100000D03*
X170850000Y-74850000D03*
X173850000Y-71350000D03*
X107500000Y-104800000D03*
X107500000Y-105800000D03*
X107500000Y-106800000D03*
X106700000Y-104800000D03*
X106700000Y-106800000D03*
X106700000Y-105800000D03*
X101600000Y-108750000D03*
X101600000Y-109700000D03*
X101600000Y-110700000D03*
X100400000Y-110700000D03*
X100400000Y-109700000D03*
X100400000Y-108700000D03*
X89900000Y-102300000D03*
X94600000Y-98800000D03*
D20*
X181450000Y-67649998D02*
X181500000Y-67599998D01*
X181450000Y-73150000D02*
X181450000Y-67649998D01*
D21*
X177800001Y-60399999D02*
X178100000Y-60100000D01*
X186550000Y-84900000D02*
X177800001Y-76150001D01*
X177800001Y-76150001D02*
X177800001Y-60399999D01*
X145600000Y-95800000D02*
X147500000Y-97700000D01*
X145600000Y-95700000D02*
X145600000Y-95800000D01*
X181300000Y-112900000D02*
X192900000Y-112900000D01*
X176200000Y-104100000D02*
X203300000Y-104100000D01*
X204300000Y-105100000D02*
X204300000Y-107700000D01*
X203300000Y-104100000D02*
X204300000Y-105100000D01*
D20*
X170850000Y-74850000D02*
X173850000Y-71850000D01*
X173850000Y-71850000D02*
X173850000Y-71350000D01*
D22*
X89900000Y-102300000D02*
X93400000Y-98800000D01*
X93400000Y-98800000D02*
X94600000Y-98800000D01*
D23*
X99067271Y-103639068D02*
X99247911Y-103675000D01*
X99432089Y-103675000D01*
X99612729Y-103639068D01*
X99641864Y-103627000D01*
X100038136Y-103627000D01*
X100067271Y-103639068D01*
X100247911Y-103675000D01*
X100432089Y-103675000D01*
X100612729Y-103639068D01*
X100641864Y-103627000D01*
X101767693Y-103627000D01*
X101807911Y-103635000D01*
X101992089Y-103635000D01*
X102032307Y-103627000D01*
X107547394Y-103627000D01*
X107973000Y-104052606D01*
X107973000Y-110947394D01*
X107547394Y-111373000D01*
X91052606Y-111373000D01*
X90627000Y-110947394D01*
X90627000Y-104052606D01*
X91052606Y-103627000D01*
X99038136Y-103627000D01*
X99067271Y-103639068D01*
G04 #@! TA.AperFunction,Conductor*
D24*
G36*
X99067271Y-103639068D02*
G01*
X99247911Y-103675000D01*
X99432089Y-103675000D01*
X99612729Y-103639068D01*
X99641864Y-103627000D01*
X100038136Y-103627000D01*
X100067271Y-103639068D01*
X100247911Y-103675000D01*
X100432089Y-103675000D01*
X100612729Y-103639068D01*
X100641864Y-103627000D01*
X101767693Y-103627000D01*
X101807911Y-103635000D01*
X101992089Y-103635000D01*
X102032307Y-103627000D01*
X107547394Y-103627000D01*
X107973000Y-104052606D01*
X107973000Y-110947394D01*
X107547394Y-111373000D01*
X91052606Y-111373000D01*
X90627000Y-110947394D01*
X90627000Y-104052606D01*
X91052606Y-103627000D01*
X99038136Y-103627000D01*
X99067271Y-103639068D01*
G37*
G04 #@! TD.AperFunction*
D23*
X229290001Y-87873000D02*
X180045980Y-87873000D01*
X177727000Y-85940517D01*
X177727000Y-77328578D01*
X185707346Y-85308925D01*
X185721414Y-85342889D01*
X185823738Y-85496028D01*
X185953972Y-85626262D01*
X186107111Y-85728586D01*
X186277271Y-85799068D01*
X186457911Y-85835000D01*
X186642089Y-85835000D01*
X186822729Y-85799068D01*
X186992889Y-85728586D01*
X187146028Y-85626262D01*
X187276262Y-85496028D01*
X187378586Y-85342889D01*
X187449068Y-85172729D01*
X187485000Y-84992089D01*
X187485000Y-84807911D01*
X187449068Y-84627271D01*
X187378586Y-84457111D01*
X187276262Y-84303972D01*
X187146028Y-84173738D01*
X186992889Y-84071414D01*
X186958925Y-84057346D01*
X186666110Y-83764531D01*
X221015074Y-83764531D01*
X221125921Y-84041714D01*
X221436840Y-84195089D01*
X221771705Y-84284860D01*
X222117650Y-84307576D01*
X222461380Y-84262366D01*
X222789685Y-84150966D01*
X222994079Y-84041714D01*
X223104926Y-83764531D01*
X226095074Y-83764531D01*
X226205921Y-84041714D01*
X226516840Y-84195089D01*
X226851705Y-84284860D01*
X227197650Y-84307576D01*
X227541380Y-84262366D01*
X227869685Y-84150966D01*
X228074079Y-84041714D01*
X228184926Y-83764531D01*
X227140000Y-82719605D01*
X226095074Y-83764531D01*
X223104926Y-83764531D01*
X222060000Y-82719605D01*
X221015074Y-83764531D01*
X186666110Y-83764531D01*
X185499229Y-82597650D01*
X220292424Y-82597650D01*
X220337634Y-82941380D01*
X220449034Y-83269685D01*
X220558286Y-83474079D01*
X220835469Y-83584926D01*
X221880395Y-82540000D01*
X222239605Y-82540000D01*
X223284531Y-83584926D01*
X223561714Y-83474079D01*
X223715089Y-83163160D01*
X223804860Y-82828295D01*
X223820004Y-82597650D01*
X225372424Y-82597650D01*
X225417634Y-82941380D01*
X225529034Y-83269685D01*
X225638286Y-83474079D01*
X225915469Y-83584926D01*
X226960395Y-82540000D01*
X227319605Y-82540000D01*
X228364531Y-83584926D01*
X228641714Y-83474079D01*
X228795089Y-83163160D01*
X228884860Y-82828295D01*
X228907576Y-82482350D01*
X228862366Y-82138620D01*
X228750966Y-81810315D01*
X228641714Y-81605921D01*
X228364531Y-81495074D01*
X227319605Y-82540000D01*
X226960395Y-82540000D01*
X225915469Y-81495074D01*
X225638286Y-81605921D01*
X225484911Y-81916840D01*
X225395140Y-82251705D01*
X225372424Y-82597650D01*
X223820004Y-82597650D01*
X223827576Y-82482350D01*
X223782366Y-82138620D01*
X223670966Y-81810315D01*
X223561714Y-81605921D01*
X223284531Y-81495074D01*
X222239605Y-82540000D01*
X221880395Y-82540000D01*
X220835469Y-81495074D01*
X220558286Y-81605921D01*
X220404911Y-81916840D01*
X220315140Y-82251705D01*
X220292424Y-82597650D01*
X185499229Y-82597650D01*
X184217048Y-81315469D01*
X221015074Y-81315469D01*
X222060000Y-82360395D01*
X223104926Y-81315469D01*
X222994079Y-81038286D01*
X222683160Y-80884911D01*
X222348295Y-80795140D01*
X222002350Y-80772424D01*
X221658620Y-80817634D01*
X221330315Y-80929034D01*
X221125921Y-81038286D01*
X221015074Y-81315469D01*
X184217048Y-81315469D01*
X182738083Y-79836504D01*
X222940000Y-79836504D01*
X222940000Y-80163496D01*
X223003793Y-80484204D01*
X223128927Y-80786305D01*
X223310594Y-81058188D01*
X223541812Y-81289406D01*
X223813695Y-81471073D01*
X224115796Y-81596207D01*
X224436504Y-81660000D01*
X224763496Y-81660000D01*
X225084204Y-81596207D01*
X225386305Y-81471073D01*
X225619182Y-81315469D01*
X226095074Y-81315469D01*
X227140000Y-82360395D01*
X228184926Y-81315469D01*
X228074079Y-81038286D01*
X227763160Y-80884911D01*
X227428295Y-80795140D01*
X227082350Y-80772424D01*
X226738620Y-80817634D01*
X226410315Y-80929034D01*
X226205921Y-81038286D01*
X226095074Y-81315469D01*
X225619182Y-81315469D01*
X225658188Y-81289406D01*
X225889406Y-81058188D01*
X226071073Y-80786305D01*
X226196207Y-80484204D01*
X226260000Y-80163496D01*
X226260000Y-79836504D01*
X226196207Y-79515796D01*
X226071073Y-79213695D01*
X225889406Y-78941812D01*
X225658188Y-78710594D01*
X225619183Y-78684531D01*
X226095074Y-78684531D01*
X226205921Y-78961714D01*
X226516840Y-79115089D01*
X226851705Y-79204860D01*
X227197650Y-79227576D01*
X227541380Y-79182366D01*
X227869685Y-79070966D01*
X228074079Y-78961714D01*
X228184926Y-78684531D01*
X227140000Y-77639605D01*
X226095074Y-78684531D01*
X225619183Y-78684531D01*
X225386305Y-78528927D01*
X225084204Y-78403793D01*
X224763496Y-78340000D01*
X224436504Y-78340000D01*
X224115796Y-78403793D01*
X223813695Y-78528927D01*
X223541812Y-78710594D01*
X223310594Y-78941812D01*
X223128927Y-79213695D01*
X223003793Y-79515796D01*
X222940000Y-79836504D01*
X182738083Y-79836504D01*
X181586110Y-78684531D01*
X221015074Y-78684531D01*
X221125921Y-78961714D01*
X221436840Y-79115089D01*
X221771705Y-79204860D01*
X222117650Y-79227576D01*
X222461380Y-79182366D01*
X222789685Y-79070966D01*
X222994079Y-78961714D01*
X223104926Y-78684531D01*
X222060000Y-77639605D01*
X221015074Y-78684531D01*
X181586110Y-78684531D01*
X180419229Y-77517650D01*
X220292424Y-77517650D01*
X220337634Y-77861380D01*
X220449034Y-78189685D01*
X220558286Y-78394079D01*
X220835469Y-78504926D01*
X221880395Y-77460000D01*
X222239605Y-77460000D01*
X223284531Y-78504926D01*
X223561714Y-78394079D01*
X223715089Y-78083160D01*
X223804860Y-77748295D01*
X223820004Y-77517650D01*
X225372424Y-77517650D01*
X225417634Y-77861380D01*
X225529034Y-78189685D01*
X225638286Y-78394079D01*
X225915469Y-78504926D01*
X226960395Y-77460000D01*
X227319605Y-77460000D01*
X228364531Y-78504926D01*
X228641714Y-78394079D01*
X228795089Y-78083160D01*
X228884860Y-77748295D01*
X228907576Y-77402350D01*
X228862366Y-77058620D01*
X228750966Y-76730315D01*
X228641714Y-76525921D01*
X228364531Y-76415074D01*
X227319605Y-77460000D01*
X226960395Y-77460000D01*
X225915469Y-76415074D01*
X225638286Y-76525921D01*
X225484911Y-76836840D01*
X225395140Y-77171705D01*
X225372424Y-77517650D01*
X223820004Y-77517650D01*
X223827576Y-77402350D01*
X223782366Y-77058620D01*
X223670966Y-76730315D01*
X223561714Y-76525921D01*
X223284531Y-76415074D01*
X222239605Y-77460000D01*
X221880395Y-77460000D01*
X220835469Y-76415074D01*
X220558286Y-76525921D01*
X220404911Y-76836840D01*
X220315140Y-77171705D01*
X220292424Y-77517650D01*
X180419229Y-77517650D01*
X179137048Y-76235469D01*
X221015074Y-76235469D01*
X222060000Y-77280395D01*
X223104926Y-76235469D01*
X226095074Y-76235469D01*
X227140000Y-77280395D01*
X228184926Y-76235469D01*
X228074079Y-75958286D01*
X227763160Y-75804911D01*
X227428295Y-75715140D01*
X227082350Y-75692424D01*
X226738620Y-75737634D01*
X226410315Y-75849034D01*
X226205921Y-75958286D01*
X226095074Y-76235469D01*
X223104926Y-76235469D01*
X222994079Y-75958286D01*
X222683160Y-75804911D01*
X222348295Y-75715140D01*
X222002350Y-75692424D01*
X221658620Y-75737634D01*
X221330315Y-75849034D01*
X221125921Y-75958286D01*
X221015074Y-76235469D01*
X179137048Y-76235469D01*
X178685001Y-75783423D01*
X178685001Y-73057911D01*
X180515000Y-73057911D01*
X180515000Y-73242089D01*
X180550932Y-73422729D01*
X180621414Y-73592889D01*
X180723738Y-73746028D01*
X180853972Y-73876262D01*
X181007111Y-73978586D01*
X181177271Y-74049068D01*
X181357911Y-74085000D01*
X181542089Y-74085000D01*
X181722729Y-74049068D01*
X181892889Y-73978586D01*
X182046028Y-73876262D01*
X182176262Y-73746028D01*
X182278586Y-73592889D01*
X182349068Y-73422729D01*
X182385000Y-73242089D01*
X182385000Y-73057911D01*
X182349068Y-72877271D01*
X182278586Y-72707111D01*
X182210000Y-72604465D01*
X182210000Y-68664531D01*
X221015074Y-68664531D01*
X221125921Y-68941714D01*
X221436840Y-69095089D01*
X221771705Y-69184860D01*
X222117650Y-69207576D01*
X222461380Y-69162366D01*
X222789685Y-69050966D01*
X222994079Y-68941714D01*
X223104926Y-68664531D01*
X226095074Y-68664531D01*
X226205921Y-68941714D01*
X226516840Y-69095089D01*
X226851705Y-69184860D01*
X227197650Y-69207576D01*
X227541380Y-69162366D01*
X227869685Y-69050966D01*
X228074079Y-68941714D01*
X228184926Y-68664531D01*
X227140000Y-67619605D01*
X226095074Y-68664531D01*
X223104926Y-68664531D01*
X222060000Y-67619605D01*
X221015074Y-68664531D01*
X182210000Y-68664531D01*
X182210000Y-68212288D01*
X182226262Y-68196026D01*
X182328586Y-68042887D01*
X182399068Y-67872727D01*
X182435000Y-67692087D01*
X182435000Y-67507909D01*
X182432960Y-67497650D01*
X220292424Y-67497650D01*
X220337634Y-67841380D01*
X220449034Y-68169685D01*
X220558286Y-68374079D01*
X220835469Y-68484926D01*
X221880395Y-67440000D01*
X222239605Y-67440000D01*
X223284531Y-68484926D01*
X223561714Y-68374079D01*
X223715089Y-68063160D01*
X223804860Y-67728295D01*
X223820004Y-67497650D01*
X225372424Y-67497650D01*
X225417634Y-67841380D01*
X225529034Y-68169685D01*
X225638286Y-68374079D01*
X225915469Y-68484926D01*
X226960395Y-67440000D01*
X227319605Y-67440000D01*
X228364531Y-68484926D01*
X228641714Y-68374079D01*
X228795089Y-68063160D01*
X228884860Y-67728295D01*
X228907576Y-67382350D01*
X228862366Y-67038620D01*
X228750966Y-66710315D01*
X228641714Y-66505921D01*
X228364531Y-66395074D01*
X227319605Y-67440000D01*
X226960395Y-67440000D01*
X225915469Y-66395074D01*
X225638286Y-66505921D01*
X225484911Y-66816840D01*
X225395140Y-67151705D01*
X225372424Y-67497650D01*
X223820004Y-67497650D01*
X223827576Y-67382350D01*
X223782366Y-67038620D01*
X223670966Y-66710315D01*
X223561714Y-66505921D01*
X223284531Y-66395074D01*
X222239605Y-67440000D01*
X221880395Y-67440000D01*
X220835469Y-66395074D01*
X220558286Y-66505921D01*
X220404911Y-66816840D01*
X220315140Y-67151705D01*
X220292424Y-67497650D01*
X182432960Y-67497650D01*
X182399068Y-67327269D01*
X182328586Y-67157109D01*
X182226262Y-67003970D01*
X182096028Y-66873736D01*
X181942889Y-66771412D01*
X181772729Y-66700930D01*
X181592089Y-66664998D01*
X181407911Y-66664998D01*
X181227271Y-66700930D01*
X181057111Y-66771412D01*
X180903972Y-66873736D01*
X180773738Y-67003970D01*
X180671414Y-67157109D01*
X180600932Y-67327269D01*
X180565000Y-67507909D01*
X180565000Y-67692087D01*
X180600932Y-67872727D01*
X180671414Y-68042887D01*
X180690001Y-68070704D01*
X180690000Y-72604464D01*
X180621414Y-72707111D01*
X180550932Y-72877271D01*
X180515000Y-73057911D01*
X178685001Y-73057911D01*
X178685001Y-66215469D01*
X221015074Y-66215469D01*
X222060000Y-67260395D01*
X223104926Y-66215469D01*
X222994079Y-65938286D01*
X222683160Y-65784911D01*
X222348295Y-65695140D01*
X222002350Y-65672424D01*
X221658620Y-65717634D01*
X221330315Y-65829034D01*
X221125921Y-65938286D01*
X221015074Y-66215469D01*
X178685001Y-66215469D01*
X178685001Y-64736504D01*
X222940000Y-64736504D01*
X222940000Y-65063496D01*
X223003793Y-65384204D01*
X223128927Y-65686305D01*
X223310594Y-65958188D01*
X223541812Y-66189406D01*
X223813695Y-66371073D01*
X224115796Y-66496207D01*
X224436504Y-66560000D01*
X224763496Y-66560000D01*
X225084204Y-66496207D01*
X225386305Y-66371073D01*
X225619182Y-66215469D01*
X226095074Y-66215469D01*
X227140000Y-67260395D01*
X228184926Y-66215469D01*
X228074079Y-65938286D01*
X227763160Y-65784911D01*
X227428295Y-65695140D01*
X227082350Y-65672424D01*
X226738620Y-65717634D01*
X226410315Y-65829034D01*
X226205921Y-65938286D01*
X226095074Y-66215469D01*
X225619182Y-66215469D01*
X225658188Y-66189406D01*
X225889406Y-65958188D01*
X226071073Y-65686305D01*
X226196207Y-65384204D01*
X226260000Y-65063496D01*
X226260000Y-64736504D01*
X226196207Y-64415796D01*
X226071073Y-64113695D01*
X225889406Y-63841812D01*
X225658188Y-63610594D01*
X225619183Y-63584531D01*
X226095074Y-63584531D01*
X226205921Y-63861714D01*
X226516840Y-64015089D01*
X226851705Y-64104860D01*
X227197650Y-64127576D01*
X227541380Y-64082366D01*
X227869685Y-63970966D01*
X228074079Y-63861714D01*
X228184926Y-63584531D01*
X227140000Y-62539605D01*
X226095074Y-63584531D01*
X225619183Y-63584531D01*
X225386305Y-63428927D01*
X225084204Y-63303793D01*
X224763496Y-63240000D01*
X224436504Y-63240000D01*
X224115796Y-63303793D01*
X223813695Y-63428927D01*
X223541812Y-63610594D01*
X223310594Y-63841812D01*
X223128927Y-64113695D01*
X223003793Y-64415796D01*
X222940000Y-64736504D01*
X178685001Y-64736504D01*
X178685001Y-63584531D01*
X221015074Y-63584531D01*
X221125921Y-63861714D01*
X221436840Y-64015089D01*
X221771705Y-64104860D01*
X222117650Y-64127576D01*
X222461380Y-64082366D01*
X222789685Y-63970966D01*
X222994079Y-63861714D01*
X223104926Y-63584531D01*
X222060000Y-62539605D01*
X221015074Y-63584531D01*
X178685001Y-63584531D01*
X178685001Y-62417650D01*
X220292424Y-62417650D01*
X220337634Y-62761380D01*
X220449034Y-63089685D01*
X220558286Y-63294079D01*
X220835469Y-63404926D01*
X221880395Y-62360000D01*
X222239605Y-62360000D01*
X223284531Y-63404926D01*
X223561714Y-63294079D01*
X223715089Y-62983160D01*
X223804860Y-62648295D01*
X223820004Y-62417650D01*
X225372424Y-62417650D01*
X225417634Y-62761380D01*
X225529034Y-63089685D01*
X225638286Y-63294079D01*
X225915469Y-63404926D01*
X226960395Y-62360000D01*
X227319605Y-62360000D01*
X228364531Y-63404926D01*
X228641714Y-63294079D01*
X228795089Y-62983160D01*
X228884860Y-62648295D01*
X228907576Y-62302350D01*
X228862366Y-61958620D01*
X228750966Y-61630315D01*
X228641714Y-61425921D01*
X228364531Y-61315074D01*
X227319605Y-62360000D01*
X226960395Y-62360000D01*
X225915469Y-61315074D01*
X225638286Y-61425921D01*
X225484911Y-61736840D01*
X225395140Y-62071705D01*
X225372424Y-62417650D01*
X223820004Y-62417650D01*
X223827576Y-62302350D01*
X223782366Y-61958620D01*
X223670966Y-61630315D01*
X223561714Y-61425921D01*
X223284531Y-61315074D01*
X222239605Y-62360000D01*
X221880395Y-62360000D01*
X220835469Y-61315074D01*
X220558286Y-61425921D01*
X220404911Y-61736840D01*
X220315140Y-62071705D01*
X220292424Y-62417650D01*
X178685001Y-62417650D01*
X178685001Y-61135469D01*
X221015074Y-61135469D01*
X222060000Y-62180395D01*
X223104926Y-61135469D01*
X226095074Y-61135469D01*
X227140000Y-62180395D01*
X228184926Y-61135469D01*
X228074079Y-60858286D01*
X227763160Y-60704911D01*
X227428295Y-60615140D01*
X227082350Y-60592424D01*
X226738620Y-60637634D01*
X226410315Y-60749034D01*
X226205921Y-60858286D01*
X226095074Y-61135469D01*
X223104926Y-61135469D01*
X222994079Y-60858286D01*
X222683160Y-60704911D01*
X222348295Y-60615140D01*
X222002350Y-60592424D01*
X221658620Y-60637634D01*
X221330315Y-60749034D01*
X221125921Y-60858286D01*
X221015074Y-61135469D01*
X178685001Y-61135469D01*
X178685001Y-60833630D01*
X178696028Y-60826262D01*
X178826262Y-60696028D01*
X178928586Y-60542889D01*
X178999068Y-60372729D01*
X179035000Y-60192089D01*
X179035000Y-60007911D01*
X178999068Y-59827271D01*
X178928586Y-59657111D01*
X178826262Y-59503972D01*
X178696028Y-59373738D01*
X178542889Y-59271414D01*
X178372729Y-59200932D01*
X178192089Y-59165000D01*
X178007911Y-59165000D01*
X177827271Y-59200932D01*
X177727000Y-59242465D01*
X177727000Y-54600000D01*
X177724560Y-54575224D01*
X177717333Y-54551399D01*
X177705597Y-54529443D01*
X177689803Y-54510197D01*
X177670557Y-54494403D01*
X177648601Y-54482667D01*
X177624776Y-54475440D01*
X177600000Y-54473000D01*
X176600000Y-54473000D01*
X176575224Y-54475440D01*
X176551399Y-54482667D01*
X176529443Y-54494403D01*
X176510197Y-54510197D01*
X176494403Y-54529443D01*
X176482667Y-54551399D01*
X176475440Y-54575224D01*
X176473000Y-54600000D01*
X176473000Y-87000000D01*
X176478195Y-87035952D01*
X176487549Y-87059024D01*
X176501225Y-87079828D01*
X176518697Y-87097564D01*
X178918697Y-89097564D01*
X178929443Y-89105597D01*
X178951399Y-89117333D01*
X178975224Y-89124560D01*
X179000000Y-89127000D01*
X229290001Y-89127000D01*
X229290000Y-149290000D01*
X70710000Y-149290000D01*
X70710000Y-144881583D01*
X70745126Y-145058172D01*
X70902297Y-145437618D01*
X71130475Y-145779110D01*
X71420890Y-146069525D01*
X71762382Y-146297703D01*
X72141828Y-146454874D01*
X72544645Y-146535000D01*
X72955355Y-146535000D01*
X73358172Y-146454874D01*
X73737618Y-146297703D01*
X74079110Y-146069525D01*
X74369525Y-145779110D01*
X74597703Y-145437618D01*
X74623841Y-145374514D01*
X96332500Y-145374514D01*
X96332500Y-145625485D01*
X96355470Y-145858703D01*
X96446245Y-146157948D01*
X96593655Y-146433734D01*
X96792037Y-146675463D01*
X97033765Y-146873845D01*
X97309551Y-147021255D01*
X97608796Y-147112030D01*
X97920000Y-147142681D01*
X98231203Y-147112030D01*
X98530448Y-147021255D01*
X98806234Y-146873845D01*
X99047963Y-146675463D01*
X99195163Y-146496101D01*
X99350563Y-146681315D01*
X99593077Y-146875969D01*
X99868906Y-147019571D01*
X100087020Y-147090563D01*
X100333000Y-146970594D01*
X100333000Y-145627000D01*
X100313000Y-145627000D01*
X100313000Y-145373000D01*
X100333000Y-145373000D01*
X100333000Y-144029406D01*
X100587000Y-144029406D01*
X100587000Y-145373000D01*
X100607000Y-145373000D01*
X100607000Y-145627000D01*
X100587000Y-145627000D01*
X100587000Y-146970594D01*
X100832980Y-147090563D01*
X101051094Y-147019571D01*
X101326923Y-146875969D01*
X101467941Y-146762781D01*
X101516963Y-146854494D01*
X101596315Y-146951185D01*
X101693006Y-147030537D01*
X101803320Y-147089502D01*
X101923018Y-147125812D01*
X102047500Y-147138072D01*
X103952500Y-147138072D01*
X104076982Y-147125812D01*
X104196680Y-147089502D01*
X104306994Y-147030537D01*
X104403685Y-146951185D01*
X104483037Y-146854494D01*
X104542002Y-146744180D01*
X104578312Y-146624482D01*
X104590572Y-146500000D01*
X104590572Y-144500000D01*
X104578312Y-144375518D01*
X104542002Y-144255820D01*
X104483037Y-144145506D01*
X104403685Y-144048815D01*
X104306994Y-143969463D01*
X104196680Y-143910498D01*
X104076982Y-143874188D01*
X103952500Y-143861928D01*
X102047500Y-143861928D01*
X101923018Y-143874188D01*
X101803320Y-143910498D01*
X101693006Y-143969463D01*
X101596315Y-144048815D01*
X101516963Y-144145506D01*
X101467941Y-144237219D01*
X101326923Y-144124031D01*
X101051094Y-143980429D01*
X100832980Y-143909437D01*
X100587000Y-144029406D01*
X100333000Y-144029406D01*
X100087020Y-143909437D01*
X99868906Y-143980429D01*
X99593077Y-144124031D01*
X99350563Y-144318685D01*
X99195162Y-144503900D01*
X99047963Y-144324537D01*
X98806235Y-144126155D01*
X98530449Y-143978745D01*
X98231204Y-143887970D01*
X97920000Y-143857319D01*
X97608797Y-143887970D01*
X97309552Y-143978745D01*
X97033766Y-144126155D01*
X96792037Y-144324537D01*
X96593655Y-144566265D01*
X96446245Y-144842051D01*
X96355470Y-145141296D01*
X96332500Y-145374514D01*
X74623841Y-145374514D01*
X74754874Y-145058172D01*
X74835000Y-144655355D01*
X74835000Y-144244645D01*
X74754874Y-143841828D01*
X74597703Y-143462382D01*
X74369525Y-143120890D01*
X74079110Y-142830475D01*
X73737618Y-142602297D01*
X73358172Y-142445126D01*
X72955355Y-142365000D01*
X72544645Y-142365000D01*
X72141828Y-142445126D01*
X71762382Y-142602297D01*
X71420890Y-142830475D01*
X71130475Y-143120890D01*
X70902297Y-143462382D01*
X70745126Y-143841828D01*
X70710000Y-144018417D01*
X70710000Y-106198816D01*
X73755000Y-106198816D01*
X73755000Y-106501184D01*
X73813989Y-106797743D01*
X73929701Y-107077095D01*
X74097688Y-107328505D01*
X74311495Y-107542312D01*
X74427763Y-107620000D01*
X74311495Y-107697688D01*
X74097688Y-107911495D01*
X73929701Y-108162905D01*
X73813989Y-108442257D01*
X73755000Y-108738816D01*
X73755000Y-109041184D01*
X73813989Y-109337743D01*
X73929701Y-109617095D01*
X74097688Y-109868505D01*
X74311495Y-110082312D01*
X74427763Y-110160000D01*
X74311495Y-110237688D01*
X74097688Y-110451495D01*
X73929701Y-110702905D01*
X73813989Y-110982257D01*
X73755000Y-111278816D01*
X73755000Y-111581184D01*
X73813989Y-111877743D01*
X73929701Y-112157095D01*
X74097688Y-112408505D01*
X74311495Y-112622312D01*
X74427763Y-112700000D01*
X74311495Y-112777688D01*
X74097688Y-112991495D01*
X73929701Y-113242905D01*
X73813989Y-113522257D01*
X73755000Y-113818816D01*
X73755000Y-114121184D01*
X73813989Y-114417743D01*
X73929701Y-114697095D01*
X74097688Y-114948505D01*
X74311495Y-115162312D01*
X74427763Y-115240000D01*
X74311495Y-115317688D01*
X74097688Y-115531495D01*
X73929701Y-115782905D01*
X73813989Y-116062257D01*
X73755000Y-116358816D01*
X73755000Y-116661184D01*
X73813989Y-116957743D01*
X73929701Y-117237095D01*
X74097688Y-117488505D01*
X74311495Y-117702312D01*
X74427763Y-117780000D01*
X74311495Y-117857688D01*
X74097688Y-118071495D01*
X73929701Y-118322905D01*
X73813989Y-118602257D01*
X73755000Y-118898816D01*
X73755000Y-119201184D01*
X73813989Y-119497743D01*
X73929701Y-119777095D01*
X74097688Y-120028505D01*
X74311495Y-120242312D01*
X74427763Y-120320000D01*
X74311495Y-120397688D01*
X74097688Y-120611495D01*
X73929701Y-120862905D01*
X73813989Y-121142257D01*
X73755000Y-121438816D01*
X73755000Y-121741184D01*
X73813989Y-122037743D01*
X73929701Y-122317095D01*
X74097688Y-122568505D01*
X74311495Y-122782312D01*
X74427763Y-122860000D01*
X74311495Y-122937688D01*
X74097688Y-123151495D01*
X73929701Y-123402905D01*
X73813989Y-123682257D01*
X73755000Y-123978816D01*
X73755000Y-124281184D01*
X73813989Y-124577743D01*
X73929701Y-124857095D01*
X74097688Y-125108505D01*
X74311495Y-125322312D01*
X74427763Y-125400000D01*
X74311495Y-125477688D01*
X74097688Y-125691495D01*
X73929701Y-125942905D01*
X73813989Y-126222257D01*
X73755000Y-126518816D01*
X73755000Y-126821184D01*
X73813989Y-127117743D01*
X73929701Y-127397095D01*
X74097688Y-127648505D01*
X74311495Y-127862312D01*
X74427763Y-127940000D01*
X74311495Y-128017688D01*
X74097688Y-128231495D01*
X73929701Y-128482905D01*
X73813989Y-128762257D01*
X73755000Y-129058816D01*
X73755000Y-129361184D01*
X73813989Y-129657743D01*
X73929701Y-129937095D01*
X74097688Y-130188505D01*
X74311495Y-130402312D01*
X74427763Y-130480000D01*
X74311495Y-130557688D01*
X74097688Y-130771495D01*
X73929701Y-131022905D01*
X73813989Y-131302257D01*
X73755000Y-131598816D01*
X73755000Y-131901184D01*
X73813989Y-132197743D01*
X73929701Y-132477095D01*
X74097688Y-132728505D01*
X74311495Y-132942312D01*
X74427763Y-133020000D01*
X74311495Y-133097688D01*
X74097688Y-133311495D01*
X73929701Y-133562905D01*
X73813989Y-133842257D01*
X73755000Y-134138816D01*
X73755000Y-134441184D01*
X73813989Y-134737743D01*
X73929701Y-135017095D01*
X74097688Y-135268505D01*
X74311495Y-135482312D01*
X74427763Y-135560000D01*
X74311495Y-135637688D01*
X74097688Y-135851495D01*
X73929701Y-136102905D01*
X73813989Y-136382257D01*
X73755000Y-136678816D01*
X73755000Y-136981184D01*
X73813989Y-137277743D01*
X73929701Y-137557095D01*
X74097688Y-137808505D01*
X74311495Y-138022312D01*
X74427763Y-138100000D01*
X74311495Y-138177688D01*
X74097688Y-138391495D01*
X73929701Y-138642905D01*
X73813989Y-138922257D01*
X73755000Y-139218816D01*
X73755000Y-139521184D01*
X73813989Y-139817743D01*
X73929701Y-140097095D01*
X74097688Y-140348505D01*
X74311495Y-140562312D01*
X74562905Y-140730299D01*
X74842257Y-140846011D01*
X75138816Y-140905000D01*
X75441184Y-140905000D01*
X75737743Y-140846011D01*
X76017095Y-140730299D01*
X76268505Y-140562312D01*
X76482312Y-140348505D01*
X76650299Y-140097095D01*
X76766011Y-139817743D01*
X76825000Y-139521184D01*
X76825000Y-139218816D01*
X76766011Y-138922257D01*
X76650299Y-138642905D01*
X76482312Y-138391495D01*
X76268505Y-138177688D01*
X76152237Y-138100000D01*
X76268505Y-138022312D01*
X76482312Y-137808505D01*
X76650299Y-137557095D01*
X76766011Y-137277743D01*
X76825000Y-136981184D01*
X76825000Y-136678816D01*
X76766011Y-136382257D01*
X76650299Y-136102905D01*
X76482312Y-135851495D01*
X76268505Y-135637688D01*
X76152237Y-135560000D01*
X76268505Y-135482312D01*
X76482312Y-135268505D01*
X76650299Y-135017095D01*
X76766011Y-134737743D01*
X76825000Y-134441184D01*
X76825000Y-134138816D01*
X76766011Y-133842257D01*
X76650299Y-133562905D01*
X76482312Y-133311495D01*
X76268505Y-133097688D01*
X76152237Y-133020000D01*
X76268505Y-132942312D01*
X76482312Y-132728505D01*
X76650299Y-132477095D01*
X76766011Y-132197743D01*
X76825000Y-131901184D01*
X76825000Y-131598816D01*
X76766011Y-131302257D01*
X76650299Y-131022905D01*
X76482312Y-130771495D01*
X76268505Y-130557688D01*
X76152237Y-130480000D01*
X76268505Y-130402312D01*
X76482312Y-130188505D01*
X76650299Y-129937095D01*
X76766011Y-129657743D01*
X76825000Y-129361184D01*
X76825000Y-129058816D01*
X76766011Y-128762257D01*
X76650299Y-128482905D01*
X76482312Y-128231495D01*
X76268505Y-128017688D01*
X76152237Y-127940000D01*
X76268505Y-127862312D01*
X76482312Y-127648505D01*
X76650299Y-127397095D01*
X76766011Y-127117743D01*
X76825000Y-126821184D01*
X76825000Y-126518816D01*
X76766011Y-126222257D01*
X76650299Y-125942905D01*
X76482312Y-125691495D01*
X76268505Y-125477688D01*
X76152237Y-125400000D01*
X76268505Y-125322312D01*
X76482312Y-125108505D01*
X76650299Y-124857095D01*
X76766011Y-124577743D01*
X76825000Y-124281184D01*
X76825000Y-123978816D01*
X76766011Y-123682257D01*
X76650299Y-123402905D01*
X76482312Y-123151495D01*
X76268505Y-122937688D01*
X76152237Y-122860000D01*
X76268505Y-122782312D01*
X76482312Y-122568505D01*
X76650299Y-122317095D01*
X76766011Y-122037743D01*
X76825000Y-121741184D01*
X76825000Y-121438816D01*
X76766011Y-121142257D01*
X76650299Y-120862905D01*
X76482312Y-120611495D01*
X76268505Y-120397688D01*
X76152237Y-120320000D01*
X76268505Y-120242312D01*
X76482312Y-120028505D01*
X76650299Y-119777095D01*
X76766011Y-119497743D01*
X76825000Y-119201184D01*
X76825000Y-118898816D01*
X76766011Y-118602257D01*
X76650299Y-118322905D01*
X76482312Y-118071495D01*
X76268505Y-117857688D01*
X76152237Y-117780000D01*
X76268505Y-117702312D01*
X76482312Y-117488505D01*
X76650299Y-117237095D01*
X76766011Y-116957743D01*
X76825000Y-116661184D01*
X76825000Y-116358816D01*
X76766011Y-116062257D01*
X76650299Y-115782905D01*
X76482312Y-115531495D01*
X76268505Y-115317688D01*
X76152237Y-115240000D01*
X76268505Y-115162312D01*
X76482312Y-114948505D01*
X76650299Y-114697095D01*
X76766011Y-114417743D01*
X76825000Y-114121184D01*
X76825000Y-113818816D01*
X76766011Y-113522257D01*
X76650299Y-113242905D01*
X76482312Y-112991495D01*
X76268505Y-112777688D01*
X76152237Y-112700000D01*
X76268505Y-112622312D01*
X76482312Y-112408505D01*
X76650299Y-112157095D01*
X76766011Y-111877743D01*
X76825000Y-111581184D01*
X76825000Y-111278816D01*
X76766011Y-110982257D01*
X76650299Y-110702905D01*
X76482312Y-110451495D01*
X76268505Y-110237688D01*
X76152237Y-110160000D01*
X76268505Y-110082312D01*
X76482312Y-109868505D01*
X76650299Y-109617095D01*
X76766011Y-109337743D01*
X76825000Y-109041184D01*
X76825000Y-108738816D01*
X76766011Y-108442257D01*
X76650299Y-108162905D01*
X76482312Y-107911495D01*
X76268505Y-107697688D01*
X76152237Y-107620000D01*
X76268505Y-107542312D01*
X76482312Y-107328505D01*
X76650299Y-107077095D01*
X76766011Y-106797743D01*
X76825000Y-106501184D01*
X76825000Y-106198816D01*
X78835000Y-106198816D01*
X78835000Y-106501184D01*
X78893989Y-106797743D01*
X79009701Y-107077095D01*
X79177688Y-107328505D01*
X79391495Y-107542312D01*
X79507763Y-107620000D01*
X79391495Y-107697688D01*
X79177688Y-107911495D01*
X79009701Y-108162905D01*
X78893989Y-108442257D01*
X78835000Y-108738816D01*
X78835000Y-109041184D01*
X78893989Y-109337743D01*
X79009701Y-109617095D01*
X79177688Y-109868505D01*
X79391495Y-110082312D01*
X79507763Y-110160000D01*
X79391495Y-110237688D01*
X79177688Y-110451495D01*
X79009701Y-110702905D01*
X78893989Y-110982257D01*
X78835000Y-111278816D01*
X78835000Y-111581184D01*
X78893989Y-111877743D01*
X79009701Y-112157095D01*
X79177688Y-112408505D01*
X79391495Y-112622312D01*
X79507763Y-112700000D01*
X79391495Y-112777688D01*
X79177688Y-112991495D01*
X79009701Y-113242905D01*
X78893989Y-113522257D01*
X78835000Y-113818816D01*
X78835000Y-114121184D01*
X78893989Y-114417743D01*
X79009701Y-114697095D01*
X79177688Y-114948505D01*
X79391495Y-115162312D01*
X79507763Y-115240000D01*
X79391495Y-115317688D01*
X79177688Y-115531495D01*
X79009701Y-115782905D01*
X78893989Y-116062257D01*
X78835000Y-116358816D01*
X78835000Y-116661184D01*
X78893989Y-116957743D01*
X79009701Y-117237095D01*
X79177688Y-117488505D01*
X79391495Y-117702312D01*
X79507763Y-117780000D01*
X79391495Y-117857688D01*
X79177688Y-118071495D01*
X79009701Y-118322905D01*
X78893989Y-118602257D01*
X78835000Y-118898816D01*
X78835000Y-119201184D01*
X78893989Y-119497743D01*
X79009701Y-119777095D01*
X79177688Y-120028505D01*
X79391495Y-120242312D01*
X79507763Y-120320000D01*
X79391495Y-120397688D01*
X79177688Y-120611495D01*
X79009701Y-120862905D01*
X78893989Y-121142257D01*
X78835000Y-121438816D01*
X78835000Y-121741184D01*
X78893989Y-122037743D01*
X79009701Y-122317095D01*
X79177688Y-122568505D01*
X79391495Y-122782312D01*
X79507763Y-122860000D01*
X79391495Y-122937688D01*
X79177688Y-123151495D01*
X79009701Y-123402905D01*
X78893989Y-123682257D01*
X78835000Y-123978816D01*
X78835000Y-124281184D01*
X78893989Y-124577743D01*
X79009701Y-124857095D01*
X79177688Y-125108505D01*
X79391495Y-125322312D01*
X79507763Y-125400000D01*
X79391495Y-125477688D01*
X79177688Y-125691495D01*
X79009701Y-125942905D01*
X78893989Y-126222257D01*
X78835000Y-126518816D01*
X78835000Y-126821184D01*
X78893989Y-127117743D01*
X79009701Y-127397095D01*
X79177688Y-127648505D01*
X79391495Y-127862312D01*
X79507763Y-127940000D01*
X79391495Y-128017688D01*
X79177688Y-128231495D01*
X79009701Y-128482905D01*
X78893989Y-128762257D01*
X78835000Y-129058816D01*
X78835000Y-129361184D01*
X78893989Y-129657743D01*
X79009701Y-129937095D01*
X79177688Y-130188505D01*
X79391495Y-130402312D01*
X79507763Y-130480000D01*
X79391495Y-130557688D01*
X79177688Y-130771495D01*
X79009701Y-131022905D01*
X78893989Y-131302257D01*
X78835000Y-131598816D01*
X78835000Y-131901184D01*
X78893989Y-132197743D01*
X79009701Y-132477095D01*
X79177688Y-132728505D01*
X79391495Y-132942312D01*
X79507763Y-133020000D01*
X79391495Y-133097688D01*
X79177688Y-133311495D01*
X79009701Y-133562905D01*
X78893989Y-133842257D01*
X78835000Y-134138816D01*
X78835000Y-134441184D01*
X78893989Y-134737743D01*
X79009701Y-135017095D01*
X79177688Y-135268505D01*
X79391495Y-135482312D01*
X79507763Y-135560000D01*
X79391495Y-135637688D01*
X79177688Y-135851495D01*
X79009701Y-136102905D01*
X78893989Y-136382257D01*
X78835000Y-136678816D01*
X78835000Y-136981184D01*
X78893989Y-137277743D01*
X79009701Y-137557095D01*
X79177688Y-137808505D01*
X79391495Y-138022312D01*
X79507763Y-138100000D01*
X79391495Y-138177688D01*
X79177688Y-138391495D01*
X79009701Y-138642905D01*
X78893989Y-138922257D01*
X78835000Y-139218816D01*
X78835000Y-139521184D01*
X78893989Y-139817743D01*
X79009701Y-140097095D01*
X79177688Y-140348505D01*
X79391495Y-140562312D01*
X79642905Y-140730299D01*
X79922257Y-140846011D01*
X80218816Y-140905000D01*
X80521184Y-140905000D01*
X80817743Y-140846011D01*
X81097095Y-140730299D01*
X81348505Y-140562312D01*
X81562312Y-140348505D01*
X81730299Y-140097095D01*
X81811938Y-139900000D01*
X91361928Y-139900000D01*
X91361928Y-141500000D01*
X91374188Y-141624482D01*
X91410498Y-141744180D01*
X91469463Y-141854494D01*
X91548815Y-141951185D01*
X91645506Y-142030537D01*
X91755820Y-142089502D01*
X91875518Y-142125812D01*
X92000000Y-142138072D01*
X93600000Y-142138072D01*
X93724482Y-142125812D01*
X93844180Y-142089502D01*
X93954494Y-142030537D01*
X94051185Y-141951185D01*
X94130537Y-141854494D01*
X94189502Y-141744180D01*
X94225812Y-141624482D01*
X94238072Y-141500000D01*
X94238072Y-140000000D01*
X106661928Y-140000000D01*
X106661928Y-141600000D01*
X106674188Y-141724482D01*
X106710498Y-141844180D01*
X106769463Y-141954494D01*
X106848815Y-142051185D01*
X106945506Y-142130537D01*
X107055820Y-142189502D01*
X107175518Y-142225812D01*
X107300000Y-142238072D01*
X108900000Y-142238072D01*
X109024482Y-142225812D01*
X109144180Y-142189502D01*
X109254494Y-142130537D01*
X109351185Y-142051185D01*
X109430537Y-141954494D01*
X109489502Y-141844180D01*
X109525812Y-141724482D01*
X109538072Y-141600000D01*
X109538072Y-140578003D01*
X218197573Y-140578003D01*
X218277947Y-140875368D01*
X218476388Y-141299439D01*
X218753748Y-141676648D01*
X219099369Y-141992498D01*
X219499968Y-142234852D01*
X219940150Y-142394396D01*
X220403000Y-142465000D01*
X222153000Y-142465000D01*
X222153000Y-140207000D01*
X222407000Y-140207000D01*
X222407000Y-142465000D01*
X224157000Y-142465000D01*
X224619850Y-142394396D01*
X225060032Y-142234852D01*
X225460631Y-141992498D01*
X225806252Y-141676648D01*
X226083612Y-141299439D01*
X226282053Y-140875368D01*
X226362427Y-140578003D01*
X226252625Y-140207000D01*
X222407000Y-140207000D01*
X222153000Y-140207000D01*
X218307375Y-140207000D01*
X218197573Y-140578003D01*
X109538072Y-140578003D01*
X109538072Y-140000000D01*
X109525812Y-139875518D01*
X109489502Y-139755820D01*
X109430537Y-139645506D01*
X109378417Y-139581997D01*
X218197573Y-139581997D01*
X218307375Y-139953000D01*
X222153000Y-139953000D01*
X222153000Y-137695000D01*
X222407000Y-137695000D01*
X222407000Y-139953000D01*
X226252625Y-139953000D01*
X226362427Y-139581997D01*
X226282053Y-139284632D01*
X226083612Y-138860561D01*
X225806252Y-138483352D01*
X225460631Y-138167502D01*
X225060032Y-137925148D01*
X224619850Y-137765604D01*
X224157000Y-137695000D01*
X222407000Y-137695000D01*
X222153000Y-137695000D01*
X220403000Y-137695000D01*
X219940150Y-137765604D01*
X219499968Y-137925148D01*
X219099369Y-138167502D01*
X218753748Y-138483352D01*
X218476388Y-138860561D01*
X218277947Y-139284632D01*
X218197573Y-139581997D01*
X109378417Y-139581997D01*
X109351185Y-139548815D01*
X109254494Y-139469463D01*
X109144180Y-139410498D01*
X109024482Y-139374188D01*
X108900000Y-139361928D01*
X108892785Y-139361928D01*
X108913097Y-139292702D01*
X108100000Y-138479605D01*
X107286903Y-139292702D01*
X107307215Y-139361928D01*
X107300000Y-139361928D01*
X107175518Y-139374188D01*
X107055820Y-139410498D01*
X106945506Y-139469463D01*
X106848815Y-139548815D01*
X106769463Y-139645506D01*
X106710498Y-139755820D01*
X106674188Y-139875518D01*
X106661928Y-140000000D01*
X94238072Y-140000000D01*
X94238072Y-139900000D01*
X94225812Y-139775518D01*
X94189502Y-139655820D01*
X94130537Y-139545506D01*
X94051185Y-139448815D01*
X93954494Y-139369463D01*
X93844180Y-139310498D01*
X93724482Y-139274188D01*
X93600000Y-139261928D01*
X93592785Y-139261928D01*
X93613097Y-139192702D01*
X92800000Y-138379605D01*
X91986903Y-139192702D01*
X92007215Y-139261928D01*
X92000000Y-139261928D01*
X91875518Y-139274188D01*
X91755820Y-139310498D01*
X91645506Y-139369463D01*
X91548815Y-139448815D01*
X91469463Y-139545506D01*
X91410498Y-139655820D01*
X91374188Y-139775518D01*
X91361928Y-139900000D01*
X81811938Y-139900000D01*
X81846011Y-139817743D01*
X81905000Y-139521184D01*
X81905000Y-139218816D01*
X81846011Y-138922257D01*
X81730299Y-138642905D01*
X81562312Y-138391495D01*
X81441329Y-138270512D01*
X91359783Y-138270512D01*
X91401213Y-138550130D01*
X91496397Y-138816292D01*
X91563329Y-138941514D01*
X91807298Y-139013097D01*
X92620395Y-138200000D01*
X92979605Y-138200000D01*
X93792702Y-139013097D01*
X94036671Y-138941514D01*
X94157571Y-138686004D01*
X94226300Y-138411816D01*
X94228336Y-138370512D01*
X106659783Y-138370512D01*
X106701213Y-138650130D01*
X106796397Y-138916292D01*
X106863329Y-139041514D01*
X107107298Y-139113097D01*
X107920395Y-138300000D01*
X108279605Y-138300000D01*
X109092702Y-139113097D01*
X109336671Y-139041514D01*
X109457571Y-138786004D01*
X109526300Y-138511816D01*
X109540217Y-138229488D01*
X109498787Y-137949870D01*
X109403603Y-137683708D01*
X109336671Y-137558486D01*
X109092702Y-137486903D01*
X108279605Y-138300000D01*
X107920395Y-138300000D01*
X107107298Y-137486903D01*
X106863329Y-137558486D01*
X106742429Y-137813996D01*
X106673700Y-138088184D01*
X106659783Y-138370512D01*
X94228336Y-138370512D01*
X94240217Y-138129488D01*
X94198787Y-137849870D01*
X94103603Y-137583708D01*
X94036671Y-137458486D01*
X93792702Y-137386903D01*
X92979605Y-138200000D01*
X92620395Y-138200000D01*
X91807298Y-137386903D01*
X91563329Y-137458486D01*
X91442429Y-137713996D01*
X91373700Y-137988184D01*
X91359783Y-138270512D01*
X81441329Y-138270512D01*
X81348505Y-138177688D01*
X81232237Y-138100000D01*
X81348505Y-138022312D01*
X81562312Y-137808505D01*
X81730299Y-137557095D01*
X81846011Y-137277743D01*
X81860023Y-137207298D01*
X91986903Y-137207298D01*
X92800000Y-138020395D01*
X93513097Y-137307298D01*
X107286903Y-137307298D01*
X108100000Y-138120395D01*
X108913097Y-137307298D01*
X108841514Y-137063329D01*
X108586004Y-136942429D01*
X108311816Y-136873700D01*
X108029488Y-136859783D01*
X107749870Y-136901213D01*
X107483708Y-136996397D01*
X107358486Y-137063329D01*
X107286903Y-137307298D01*
X93513097Y-137307298D01*
X93613097Y-137207298D01*
X93541514Y-136963329D01*
X93286004Y-136842429D01*
X93011816Y-136773700D01*
X92729488Y-136759783D01*
X92449870Y-136801213D01*
X92183708Y-136896397D01*
X92058486Y-136963329D01*
X91986903Y-137207298D01*
X81860023Y-137207298D01*
X81905000Y-136981184D01*
X81905000Y-136678816D01*
X81846011Y-136382257D01*
X81730299Y-136102905D01*
X81562312Y-135851495D01*
X81348505Y-135637688D01*
X81232237Y-135560000D01*
X81348505Y-135482312D01*
X81562312Y-135268505D01*
X81730299Y-135017095D01*
X81737380Y-135000000D01*
X215308057Y-135000000D01*
X215335764Y-135281309D01*
X215417818Y-135551808D01*
X215551068Y-135801101D01*
X215730392Y-136019608D01*
X215948899Y-136198932D01*
X216198192Y-136332182D01*
X216468691Y-136414236D01*
X216679508Y-136435000D01*
X217720492Y-136435000D01*
X217931309Y-136414236D01*
X218201808Y-136332182D01*
X218451101Y-136198932D01*
X218669608Y-136019608D01*
X218848932Y-135801101D01*
X218982182Y-135551808D01*
X219064236Y-135281309D01*
X219091943Y-135000000D01*
X219064236Y-134718691D01*
X218982182Y-134448192D01*
X218848932Y-134198899D01*
X218669608Y-133980392D01*
X218451101Y-133801068D01*
X218323259Y-133732735D01*
X218552839Y-133582601D01*
X218754500Y-133384895D01*
X218913715Y-133151646D01*
X219024367Y-132891818D01*
X219041904Y-132809039D01*
X218919915Y-132587000D01*
X217327000Y-132587000D01*
X217327000Y-132607000D01*
X217073000Y-132607000D01*
X217073000Y-132587000D01*
X215480085Y-132587000D01*
X215358096Y-132809039D01*
X215375633Y-132891818D01*
X215486285Y-133151646D01*
X215645500Y-133384895D01*
X215847161Y-133582601D01*
X216076741Y-133732735D01*
X215948899Y-133801068D01*
X215730392Y-133980392D01*
X215551068Y-134198899D01*
X215417818Y-134448192D01*
X215335764Y-134718691D01*
X215308057Y-135000000D01*
X81737380Y-135000000D01*
X81846011Y-134737743D01*
X81905000Y-134441184D01*
X81905000Y-134138816D01*
X81846011Y-133842257D01*
X81730299Y-133562905D01*
X81562312Y-133311495D01*
X81348505Y-133097688D01*
X81232237Y-133020000D01*
X81348505Y-132942312D01*
X81562312Y-132728505D01*
X81730299Y-132477095D01*
X81846011Y-132197743D01*
X81863272Y-132110961D01*
X215358096Y-132110961D01*
X215480085Y-132333000D01*
X217073000Y-132333000D01*
X217073000Y-131025000D01*
X217327000Y-131025000D01*
X217327000Y-132333000D01*
X218919915Y-132333000D01*
X219041904Y-132110961D01*
X219024367Y-132028182D01*
X218913715Y-131768354D01*
X218754500Y-131535105D01*
X218552839Y-131337399D01*
X218316483Y-131182834D01*
X218054514Y-131077350D01*
X217777000Y-131025000D01*
X217327000Y-131025000D01*
X217073000Y-131025000D01*
X216623000Y-131025000D01*
X216345486Y-131077350D01*
X216083517Y-131182834D01*
X215847161Y-131337399D01*
X215645500Y-131535105D01*
X215486285Y-131768354D01*
X215375633Y-132028182D01*
X215358096Y-132110961D01*
X81863272Y-132110961D01*
X81905000Y-131901184D01*
X81905000Y-131598816D01*
X81846011Y-131302257D01*
X81730299Y-131022905D01*
X81562312Y-130771495D01*
X81348505Y-130557688D01*
X81232237Y-130480000D01*
X81325021Y-130418003D01*
X218197573Y-130418003D01*
X218277947Y-130715368D01*
X218476388Y-131139439D01*
X218753748Y-131516648D01*
X219099369Y-131832498D01*
X219499968Y-132074852D01*
X219940150Y-132234396D01*
X220403000Y-132305000D01*
X222153000Y-132305000D01*
X222153000Y-130047000D01*
X222407000Y-130047000D01*
X222407000Y-132305000D01*
X224157000Y-132305000D01*
X224619850Y-132234396D01*
X225060032Y-132074852D01*
X225460631Y-131832498D01*
X225806252Y-131516648D01*
X226083612Y-131139439D01*
X226282053Y-130715368D01*
X226362427Y-130418003D01*
X226252625Y-130047000D01*
X222407000Y-130047000D01*
X222153000Y-130047000D01*
X218307375Y-130047000D01*
X218197573Y-130418003D01*
X81325021Y-130418003D01*
X81348505Y-130402312D01*
X81562312Y-130188505D01*
X81730299Y-129937095D01*
X81846011Y-129657743D01*
X81892903Y-129421997D01*
X218197573Y-129421997D01*
X218307375Y-129793000D01*
X222153000Y-129793000D01*
X222153000Y-127535000D01*
X222407000Y-127535000D01*
X222407000Y-129793000D01*
X226252625Y-129793000D01*
X226362427Y-129421997D01*
X226282053Y-129124632D01*
X226083612Y-128700561D01*
X225806252Y-128323352D01*
X225460631Y-128007502D01*
X225060032Y-127765148D01*
X224619850Y-127605604D01*
X224157000Y-127535000D01*
X222407000Y-127535000D01*
X222153000Y-127535000D01*
X220403000Y-127535000D01*
X219940150Y-127605604D01*
X219499968Y-127765148D01*
X219099369Y-128007502D01*
X218753748Y-128323352D01*
X218476388Y-128700561D01*
X218277947Y-129124632D01*
X218197573Y-129421997D01*
X81892903Y-129421997D01*
X81905000Y-129361184D01*
X81905000Y-129058816D01*
X81846011Y-128762257D01*
X81730299Y-128482905D01*
X81562312Y-128231495D01*
X81348505Y-128017688D01*
X81232237Y-127940000D01*
X81348505Y-127862312D01*
X81562312Y-127648505D01*
X81730299Y-127397095D01*
X81846011Y-127117743D01*
X81905000Y-126821184D01*
X81905000Y-126518816D01*
X81846011Y-126222257D01*
X81730299Y-125942905D01*
X81562312Y-125691495D01*
X81348505Y-125477688D01*
X81232237Y-125400000D01*
X81348505Y-125322312D01*
X81562312Y-125108505D01*
X81730299Y-124857095D01*
X81846011Y-124577743D01*
X81905000Y-124281184D01*
X81905000Y-123978816D01*
X81846011Y-123682257D01*
X81730299Y-123402905D01*
X81562312Y-123151495D01*
X81348505Y-122937688D01*
X81232237Y-122860000D01*
X81348505Y-122782312D01*
X81562312Y-122568505D01*
X81730299Y-122317095D01*
X81846011Y-122037743D01*
X81905000Y-121741184D01*
X81905000Y-121438816D01*
X81846011Y-121142257D01*
X81730299Y-120862905D01*
X81562312Y-120611495D01*
X81348505Y-120397688D01*
X81232237Y-120320000D01*
X81348505Y-120242312D01*
X81562312Y-120028505D01*
X81730299Y-119777095D01*
X81846011Y-119497743D01*
X81905000Y-119201184D01*
X81905000Y-118898816D01*
X81846011Y-118602257D01*
X81730299Y-118322905D01*
X81562312Y-118071495D01*
X81348505Y-117857688D01*
X81232237Y-117780000D01*
X81348505Y-117702312D01*
X81562312Y-117488505D01*
X81730299Y-117237095D01*
X81846011Y-116957743D01*
X81905000Y-116661184D01*
X81905000Y-116358816D01*
X81846011Y-116062257D01*
X81730299Y-115782905D01*
X81562312Y-115531495D01*
X81508820Y-115478003D01*
X218097573Y-115478003D01*
X218177947Y-115775368D01*
X218376388Y-116199439D01*
X218653748Y-116576648D01*
X218999369Y-116892498D01*
X219399968Y-117134852D01*
X219840150Y-117294396D01*
X220303000Y-117365000D01*
X222053000Y-117365000D01*
X222053000Y-115107000D01*
X222307000Y-115107000D01*
X222307000Y-117365000D01*
X224057000Y-117365000D01*
X224519850Y-117294396D01*
X224960032Y-117134852D01*
X225360631Y-116892498D01*
X225706252Y-116576648D01*
X225983612Y-116199439D01*
X226182053Y-115775368D01*
X226262427Y-115478003D01*
X226152625Y-115107000D01*
X222307000Y-115107000D01*
X222053000Y-115107000D01*
X218207375Y-115107000D01*
X218097573Y-115478003D01*
X81508820Y-115478003D01*
X81348505Y-115317688D01*
X81232237Y-115240000D01*
X81348505Y-115162312D01*
X81562312Y-114948505D01*
X81730299Y-114697095D01*
X81819395Y-114481997D01*
X218097573Y-114481997D01*
X218207375Y-114853000D01*
X222053000Y-114853000D01*
X222053000Y-112595000D01*
X222307000Y-112595000D01*
X222307000Y-114853000D01*
X226152625Y-114853000D01*
X226262427Y-114481997D01*
X226182053Y-114184632D01*
X225983612Y-113760561D01*
X225706252Y-113383352D01*
X225360631Y-113067502D01*
X224960032Y-112825148D01*
X224519850Y-112665604D01*
X224057000Y-112595000D01*
X222307000Y-112595000D01*
X222053000Y-112595000D01*
X220303000Y-112595000D01*
X219840150Y-112665604D01*
X219399968Y-112825148D01*
X218999369Y-113067502D01*
X218653748Y-113383352D01*
X218376388Y-113760561D01*
X218177947Y-114184632D01*
X218097573Y-114481997D01*
X81819395Y-114481997D01*
X81846011Y-114417743D01*
X81905000Y-114121184D01*
X81905000Y-113818816D01*
X81846011Y-113522257D01*
X81730299Y-113242905D01*
X81562312Y-112991495D01*
X81378728Y-112807911D01*
X180365000Y-112807911D01*
X180365000Y-112992089D01*
X180400932Y-113172729D01*
X180471414Y-113342889D01*
X180573738Y-113496028D01*
X180703972Y-113626262D01*
X180857111Y-113728586D01*
X181027271Y-113799068D01*
X181207911Y-113835000D01*
X181392089Y-113835000D01*
X181572729Y-113799068D01*
X181606692Y-113785000D01*
X192593308Y-113785000D01*
X192627271Y-113799068D01*
X192807911Y-113835000D01*
X192992089Y-113835000D01*
X193172729Y-113799068D01*
X193342889Y-113728586D01*
X193496028Y-113626262D01*
X193626262Y-113496028D01*
X193728586Y-113342889D01*
X193799068Y-113172729D01*
X193835000Y-112992089D01*
X193835000Y-112807911D01*
X193799068Y-112627271D01*
X193728586Y-112457111D01*
X193626262Y-112303972D01*
X193496028Y-112173738D01*
X193342889Y-112071414D01*
X193172729Y-112000932D01*
X192992089Y-111965000D01*
X192807911Y-111965000D01*
X192627271Y-112000932D01*
X192593308Y-112015000D01*
X191014396Y-112015000D01*
X191114637Y-111914759D01*
X191271680Y-111679727D01*
X191379853Y-111418574D01*
X191435000Y-111141335D01*
X191435000Y-110858665D01*
X191379853Y-110581426D01*
X191271680Y-110320273D01*
X191114637Y-110085241D01*
X190929396Y-109900000D01*
X215208057Y-109900000D01*
X215235764Y-110181309D01*
X215317818Y-110451808D01*
X215451068Y-110701101D01*
X215630392Y-110919608D01*
X215848899Y-111098932D01*
X216098192Y-111232182D01*
X216368691Y-111314236D01*
X216579508Y-111335000D01*
X217620492Y-111335000D01*
X217831309Y-111314236D01*
X218101808Y-111232182D01*
X218351101Y-111098932D01*
X218569608Y-110919608D01*
X218748932Y-110701101D01*
X218882182Y-110451808D01*
X218964236Y-110181309D01*
X218991943Y-109900000D01*
X218964236Y-109618691D01*
X218882182Y-109348192D01*
X218748932Y-109098899D01*
X218569608Y-108880392D01*
X218351101Y-108701068D01*
X218223259Y-108632735D01*
X218452839Y-108482601D01*
X218654500Y-108284895D01*
X218813715Y-108051646D01*
X218924367Y-107791818D01*
X218941904Y-107709039D01*
X218819915Y-107487000D01*
X217227000Y-107487000D01*
X217227000Y-107507000D01*
X216973000Y-107507000D01*
X216973000Y-107487000D01*
X215380085Y-107487000D01*
X215258096Y-107709039D01*
X215275633Y-107791818D01*
X215386285Y-108051646D01*
X215545500Y-108284895D01*
X215747161Y-108482601D01*
X215976741Y-108632735D01*
X215848899Y-108701068D01*
X215630392Y-108880392D01*
X215451068Y-109098899D01*
X215317818Y-109348192D01*
X215235764Y-109618691D01*
X215208057Y-109900000D01*
X190929396Y-109900000D01*
X190914759Y-109885363D01*
X190679727Y-109728320D01*
X190418574Y-109620147D01*
X190141335Y-109565000D01*
X189858665Y-109565000D01*
X189581426Y-109620147D01*
X189320273Y-109728320D01*
X189085241Y-109885363D01*
X188885363Y-110085241D01*
X188728320Y-110320273D01*
X188620147Y-110581426D01*
X188565000Y-110858665D01*
X188565000Y-111141335D01*
X188620147Y-111418574D01*
X188728320Y-111679727D01*
X188885363Y-111914759D01*
X188985604Y-112015000D01*
X181606692Y-112015000D01*
X181572729Y-112000932D01*
X181392089Y-111965000D01*
X181207911Y-111965000D01*
X181027271Y-112000932D01*
X180857111Y-112071414D01*
X180703972Y-112173738D01*
X180573738Y-112303972D01*
X180471414Y-112457111D01*
X180400932Y-112627271D01*
X180365000Y-112807911D01*
X81378728Y-112807911D01*
X81348505Y-112777688D01*
X81232237Y-112700000D01*
X81348505Y-112622312D01*
X81562312Y-112408505D01*
X81730299Y-112157095D01*
X81846011Y-111877743D01*
X81905000Y-111581184D01*
X81905000Y-111278816D01*
X81846011Y-110982257D01*
X81730299Y-110702905D01*
X81562312Y-110451495D01*
X81348505Y-110237688D01*
X81232237Y-110160000D01*
X81348505Y-110082312D01*
X81562312Y-109868505D01*
X81730299Y-109617095D01*
X81846011Y-109337743D01*
X81905000Y-109041184D01*
X81905000Y-108738816D01*
X81846011Y-108442257D01*
X81730299Y-108162905D01*
X81562312Y-107911495D01*
X81348505Y-107697688D01*
X81232237Y-107620000D01*
X81348505Y-107542312D01*
X81562312Y-107328505D01*
X81730299Y-107077095D01*
X81846011Y-106797743D01*
X81905000Y-106501184D01*
X81905000Y-106198816D01*
X81846011Y-105902257D01*
X81730299Y-105622905D01*
X81562312Y-105371495D01*
X81348505Y-105157688D01*
X81194895Y-105055049D01*
X81254475Y-104874080D01*
X80370000Y-103989605D01*
X79485525Y-104874080D01*
X79545105Y-105055049D01*
X79391495Y-105157688D01*
X79177688Y-105371495D01*
X79009701Y-105622905D01*
X78893989Y-105902257D01*
X78835000Y-106198816D01*
X76825000Y-106198816D01*
X76766011Y-105902257D01*
X76650299Y-105622905D01*
X76482312Y-105371495D01*
X76268505Y-105157688D01*
X76114895Y-105055049D01*
X76174475Y-104874080D01*
X75290000Y-103989605D01*
X74405525Y-104874080D01*
X74465105Y-105055049D01*
X74311495Y-105157688D01*
X74097688Y-105371495D01*
X73929701Y-105622905D01*
X73813989Y-105902257D01*
X73755000Y-106198816D01*
X70710000Y-106198816D01*
X70710000Y-103876553D01*
X73749009Y-103876553D01*
X73791603Y-104175907D01*
X73891778Y-104461199D01*
X73971739Y-104610792D01*
X74225920Y-104694475D01*
X75110395Y-103810000D01*
X75469605Y-103810000D01*
X76354080Y-104694475D01*
X76608261Y-104610792D01*
X76739158Y-104338225D01*
X76814365Y-104045358D01*
X76823660Y-103876553D01*
X78829009Y-103876553D01*
X78871603Y-104175907D01*
X78971778Y-104461199D01*
X79051739Y-104610792D01*
X79305920Y-104694475D01*
X80190395Y-103810000D01*
X80549605Y-103810000D01*
X81434080Y-104694475D01*
X81688261Y-104610792D01*
X81819158Y-104338225D01*
X81894365Y-104045358D01*
X81910991Y-103743447D01*
X81868397Y-103444093D01*
X81768222Y-103158801D01*
X81688261Y-103009208D01*
X81434080Y-102925525D01*
X80549605Y-103810000D01*
X80190395Y-103810000D01*
X79305920Y-102925525D01*
X79051739Y-103009208D01*
X78920842Y-103281775D01*
X78845635Y-103574642D01*
X78829009Y-103876553D01*
X76823660Y-103876553D01*
X76830991Y-103743447D01*
X76788397Y-103444093D01*
X76688222Y-103158801D01*
X76608261Y-103009208D01*
X76354080Y-102925525D01*
X75469605Y-103810000D01*
X75110395Y-103810000D01*
X74225920Y-102925525D01*
X73971739Y-103009208D01*
X73840842Y-103281775D01*
X73765635Y-103574642D01*
X73749009Y-103876553D01*
X70710000Y-103876553D01*
X70710000Y-102334080D01*
X74405525Y-102334080D01*
X74473319Y-102540000D01*
X74405525Y-102745920D01*
X75290000Y-103630395D01*
X76174475Y-102745920D01*
X76106681Y-102540000D01*
X76174475Y-102334080D01*
X79485525Y-102334080D01*
X79553319Y-102540000D01*
X79485525Y-102745920D01*
X80370000Y-103630395D01*
X81254475Y-102745920D01*
X81186681Y-102540000D01*
X81254475Y-102334080D01*
X81220395Y-102300000D01*
X88759509Y-102300000D01*
X88781423Y-102522498D01*
X88846324Y-102736446D01*
X88951717Y-102933622D01*
X89093552Y-103106448D01*
X89266378Y-103248283D01*
X89463554Y-103353676D01*
X89677502Y-103418577D01*
X89900000Y-103440491D01*
X90122498Y-103418577D01*
X90209915Y-103392059D01*
X90050987Y-103550987D01*
X89972017Y-103647213D01*
X89913336Y-103756996D01*
X89877201Y-103876118D01*
X89865000Y-104000000D01*
X89865000Y-111000000D01*
X89877201Y-111123882D01*
X89913336Y-111243004D01*
X89972017Y-111352787D01*
X90050987Y-111449013D01*
X90550987Y-111949013D01*
X90647213Y-112027983D01*
X90756996Y-112086664D01*
X90876118Y-112122799D01*
X91000000Y-112135000D01*
X107600000Y-112135000D01*
X107723882Y-112122799D01*
X107843004Y-112086664D01*
X107952787Y-112027983D01*
X108049013Y-111949013D01*
X108549013Y-111449013D01*
X108627983Y-111352787D01*
X108686664Y-111243004D01*
X108722799Y-111123882D01*
X108735000Y-111000000D01*
X108735000Y-104007911D01*
X175265000Y-104007911D01*
X175265000Y-104192089D01*
X175300932Y-104372729D01*
X175371414Y-104542889D01*
X175473738Y-104696028D01*
X175603972Y-104826262D01*
X175757111Y-104928586D01*
X175927271Y-104999068D01*
X176107911Y-105035000D01*
X176292089Y-105035000D01*
X176472729Y-104999068D01*
X176506692Y-104985000D01*
X188985604Y-104985000D01*
X188885363Y-105085241D01*
X188728320Y-105320273D01*
X188620147Y-105581426D01*
X188565000Y-105858665D01*
X188565000Y-106141335D01*
X188620147Y-106418574D01*
X188728320Y-106679727D01*
X188885363Y-106914759D01*
X189085241Y-107114637D01*
X189320273Y-107271680D01*
X189581426Y-107379853D01*
X189858665Y-107435000D01*
X190141335Y-107435000D01*
X190418574Y-107379853D01*
X190679727Y-107271680D01*
X190914759Y-107114637D01*
X191114637Y-106914759D01*
X191271680Y-106679727D01*
X191379853Y-106418574D01*
X191435000Y-106141335D01*
X191435000Y-105858665D01*
X191379853Y-105581426D01*
X191271680Y-105320273D01*
X191114637Y-105085241D01*
X191014396Y-104985000D01*
X200160088Y-104985000D01*
X200120147Y-105081426D01*
X200065000Y-105358665D01*
X200065000Y-105641335D01*
X200120147Y-105918574D01*
X200228320Y-106179727D01*
X200385363Y-106414759D01*
X200585241Y-106614637D01*
X200820273Y-106771680D01*
X201081426Y-106879853D01*
X201358665Y-106935000D01*
X201641335Y-106935000D01*
X201918574Y-106879853D01*
X202179727Y-106771680D01*
X202414759Y-106614637D01*
X202614637Y-106414759D01*
X202771680Y-106179727D01*
X202879853Y-105918574D01*
X202935000Y-105641335D01*
X202935000Y-105358665D01*
X202879853Y-105081426D01*
X202839912Y-104985000D01*
X202933422Y-104985000D01*
X203415000Y-105466579D01*
X203415001Y-107393305D01*
X203400932Y-107427271D01*
X203365000Y-107607911D01*
X203365000Y-107792089D01*
X203400932Y-107972729D01*
X203471414Y-108142889D01*
X203573738Y-108296028D01*
X203703972Y-108426262D01*
X203857111Y-108528586D01*
X204027271Y-108599068D01*
X204207911Y-108635000D01*
X204392089Y-108635000D01*
X204572729Y-108599068D01*
X204742889Y-108528586D01*
X204896028Y-108426262D01*
X205026262Y-108296028D01*
X205128586Y-108142889D01*
X205199068Y-107972729D01*
X205235000Y-107792089D01*
X205235000Y-107607911D01*
X205199068Y-107427271D01*
X205185000Y-107393308D01*
X205185000Y-107010961D01*
X215258096Y-107010961D01*
X215380085Y-107233000D01*
X216973000Y-107233000D01*
X216973000Y-105925000D01*
X217227000Y-105925000D01*
X217227000Y-107233000D01*
X218819915Y-107233000D01*
X218941904Y-107010961D01*
X218924367Y-106928182D01*
X218813715Y-106668354D01*
X218654500Y-106435105D01*
X218452839Y-106237399D01*
X218216483Y-106082834D01*
X217954514Y-105977350D01*
X217677000Y-105925000D01*
X217227000Y-105925000D01*
X216973000Y-105925000D01*
X216523000Y-105925000D01*
X216245486Y-105977350D01*
X215983517Y-106082834D01*
X215747161Y-106237399D01*
X215545500Y-106435105D01*
X215386285Y-106668354D01*
X215275633Y-106928182D01*
X215258096Y-107010961D01*
X205185000Y-107010961D01*
X205185000Y-105318003D01*
X218097573Y-105318003D01*
X218177947Y-105615368D01*
X218376388Y-106039439D01*
X218653748Y-106416648D01*
X218999369Y-106732498D01*
X219399968Y-106974852D01*
X219840150Y-107134396D01*
X220303000Y-107205000D01*
X222053000Y-107205000D01*
X222053000Y-104947000D01*
X222307000Y-104947000D01*
X222307000Y-107205000D01*
X224057000Y-107205000D01*
X224519850Y-107134396D01*
X224960032Y-106974852D01*
X225360631Y-106732498D01*
X225706252Y-106416648D01*
X225983612Y-106039439D01*
X226182053Y-105615368D01*
X226262427Y-105318003D01*
X226152625Y-104947000D01*
X222307000Y-104947000D01*
X222053000Y-104947000D01*
X218207375Y-104947000D01*
X218097573Y-105318003D01*
X205185000Y-105318003D01*
X205185000Y-105143469D01*
X205189281Y-105100000D01*
X205185000Y-105056531D01*
X205185000Y-105056523D01*
X205172195Y-104926510D01*
X205153536Y-104865000D01*
X205121589Y-104759686D01*
X205039411Y-104605941D01*
X204956532Y-104504953D01*
X204956530Y-104504951D01*
X204928817Y-104471183D01*
X204895050Y-104443471D01*
X204773576Y-104321997D01*
X218097573Y-104321997D01*
X218207375Y-104693000D01*
X222053000Y-104693000D01*
X222053000Y-102435000D01*
X222307000Y-102435000D01*
X222307000Y-104693000D01*
X226152625Y-104693000D01*
X226262427Y-104321997D01*
X226182053Y-104024632D01*
X225983612Y-103600561D01*
X225706252Y-103223352D01*
X225360631Y-102907502D01*
X224960032Y-102665148D01*
X224519850Y-102505604D01*
X224057000Y-102435000D01*
X222307000Y-102435000D01*
X222053000Y-102435000D01*
X220303000Y-102435000D01*
X219840150Y-102505604D01*
X219399968Y-102665148D01*
X218999369Y-102907502D01*
X218653748Y-103223352D01*
X218376388Y-103600561D01*
X218177947Y-104024632D01*
X218097573Y-104321997D01*
X204773576Y-104321997D01*
X203956534Y-103504956D01*
X203928817Y-103471183D01*
X203794059Y-103360589D01*
X203640313Y-103278411D01*
X203473490Y-103227805D01*
X203343477Y-103215000D01*
X203343469Y-103215000D01*
X203300000Y-103210719D01*
X203256531Y-103215000D01*
X176506692Y-103215000D01*
X176472729Y-103200932D01*
X176292089Y-103165000D01*
X176107911Y-103165000D01*
X175927271Y-103200932D01*
X175757111Y-103271414D01*
X175603972Y-103373738D01*
X175473738Y-103503972D01*
X175371414Y-103657111D01*
X175300932Y-103827271D01*
X175265000Y-104007911D01*
X108735000Y-104007911D01*
X108735000Y-104000000D01*
X108722799Y-103876118D01*
X108686664Y-103756996D01*
X108627983Y-103647213D01*
X108549013Y-103550987D01*
X108049013Y-103050987D01*
X107952787Y-102972017D01*
X107843004Y-102913336D01*
X107723882Y-102877201D01*
X107600000Y-102865000D01*
X91000000Y-102865000D01*
X90933590Y-102871541D01*
X93446466Y-100358665D01*
X200065000Y-100358665D01*
X200065000Y-100641335D01*
X200120147Y-100918574D01*
X200228320Y-101179727D01*
X200385363Y-101414759D01*
X200585241Y-101614637D01*
X200820273Y-101771680D01*
X201081426Y-101879853D01*
X201358665Y-101935000D01*
X201641335Y-101935000D01*
X201918574Y-101879853D01*
X202179727Y-101771680D01*
X202414759Y-101614637D01*
X202614637Y-101414759D01*
X202771680Y-101179727D01*
X202879853Y-100918574D01*
X202935000Y-100641335D01*
X202935000Y-100358665D01*
X202879853Y-100081426D01*
X202771680Y-99820273D01*
X202614637Y-99585241D01*
X202414759Y-99385363D01*
X202179727Y-99228320D01*
X201918574Y-99120147D01*
X201641335Y-99065000D01*
X201358665Y-99065000D01*
X201081426Y-99120147D01*
X200820273Y-99228320D01*
X200585241Y-99385363D01*
X200385363Y-99585241D01*
X200228320Y-99820273D01*
X200120147Y-100081426D01*
X200065000Y-100358665D01*
X93446466Y-100358665D01*
X93870132Y-99935000D01*
X94655752Y-99935000D01*
X94822499Y-99918577D01*
X95036447Y-99853676D01*
X95233623Y-99748284D01*
X95406449Y-99606449D01*
X95548284Y-99433623D01*
X95653676Y-99236447D01*
X95718577Y-99022499D01*
X95740491Y-98800000D01*
X95718577Y-98577501D01*
X95653676Y-98363553D01*
X95548284Y-98166377D01*
X95406449Y-97993551D01*
X95233623Y-97851716D01*
X95036447Y-97746324D01*
X94822499Y-97681423D01*
X94655752Y-97665000D01*
X93455741Y-97665000D01*
X93399999Y-97659510D01*
X93344257Y-97665000D01*
X93344248Y-97665000D01*
X93177501Y-97681423D01*
X92963553Y-97746324D01*
X92766377Y-97851716D01*
X92593551Y-97993551D01*
X92558009Y-98036859D01*
X89058012Y-101536857D01*
X88951717Y-101666378D01*
X88846324Y-101863554D01*
X88781423Y-102077502D01*
X88759509Y-102300000D01*
X81220395Y-102300000D01*
X80370000Y-101449605D01*
X79485525Y-102334080D01*
X76174475Y-102334080D01*
X75290000Y-101449605D01*
X74405525Y-102334080D01*
X70710000Y-102334080D01*
X70710000Y-101336553D01*
X73749009Y-101336553D01*
X73791603Y-101635907D01*
X73891778Y-101921199D01*
X73971739Y-102070792D01*
X74225920Y-102154475D01*
X75110395Y-101270000D01*
X75469605Y-101270000D01*
X76354080Y-102154475D01*
X76608261Y-102070792D01*
X76739158Y-101798225D01*
X76814365Y-101505358D01*
X76823660Y-101336553D01*
X78829009Y-101336553D01*
X78871603Y-101635907D01*
X78971778Y-101921199D01*
X79051739Y-102070792D01*
X79305920Y-102154475D01*
X80190395Y-101270000D01*
X80549605Y-101270000D01*
X81434080Y-102154475D01*
X81688261Y-102070792D01*
X81819158Y-101798225D01*
X81894365Y-101505358D01*
X81910991Y-101203447D01*
X81868397Y-100904093D01*
X81768222Y-100618801D01*
X81688261Y-100469208D01*
X81434080Y-100385525D01*
X80549605Y-101270000D01*
X80190395Y-101270000D01*
X79305920Y-100385525D01*
X79051739Y-100469208D01*
X78920842Y-100741775D01*
X78845635Y-101034642D01*
X78829009Y-101336553D01*
X76823660Y-101336553D01*
X76830991Y-101203447D01*
X76788397Y-100904093D01*
X76688222Y-100618801D01*
X76608261Y-100469208D01*
X76354080Y-100385525D01*
X75469605Y-101270000D01*
X75110395Y-101270000D01*
X74225920Y-100385525D01*
X73971739Y-100469208D01*
X73840842Y-100741775D01*
X73765635Y-101034642D01*
X73749009Y-101336553D01*
X70710000Y-101336553D01*
X70710000Y-99794080D01*
X74405525Y-99794080D01*
X74473319Y-100000000D01*
X74405525Y-100205920D01*
X75290000Y-101090395D01*
X76174475Y-100205920D01*
X76106681Y-100000000D01*
X76174475Y-99794080D01*
X79485525Y-99794080D01*
X79553319Y-100000000D01*
X79485525Y-100205920D01*
X80370000Y-101090395D01*
X81254475Y-100205920D01*
X81186681Y-100000000D01*
X81254475Y-99794080D01*
X80370000Y-98909605D01*
X79485525Y-99794080D01*
X76174475Y-99794080D01*
X75290000Y-98909605D01*
X74405525Y-99794080D01*
X70710000Y-99794080D01*
X70710000Y-98796553D01*
X73749009Y-98796553D01*
X73791603Y-99095907D01*
X73891778Y-99381199D01*
X73971739Y-99530792D01*
X74225920Y-99614475D01*
X75110395Y-98730000D01*
X75469605Y-98730000D01*
X76354080Y-99614475D01*
X76608261Y-99530792D01*
X76739158Y-99258225D01*
X76814365Y-98965358D01*
X76823660Y-98796553D01*
X78829009Y-98796553D01*
X78871603Y-99095907D01*
X78971778Y-99381199D01*
X79051739Y-99530792D01*
X79305920Y-99614475D01*
X80190395Y-98730000D01*
X80549605Y-98730000D01*
X81434080Y-99614475D01*
X81688261Y-99530792D01*
X81819158Y-99258225D01*
X81894365Y-98965358D01*
X81910991Y-98663447D01*
X81868397Y-98364093D01*
X81768222Y-98078801D01*
X81688261Y-97929208D01*
X81434080Y-97845525D01*
X80549605Y-98730000D01*
X80190395Y-98730000D01*
X79305920Y-97845525D01*
X79051739Y-97929208D01*
X78920842Y-98201775D01*
X78845635Y-98494642D01*
X78829009Y-98796553D01*
X76823660Y-98796553D01*
X76830991Y-98663447D01*
X76788397Y-98364093D01*
X76688222Y-98078801D01*
X76608261Y-97929208D01*
X76354080Y-97845525D01*
X75469605Y-98730000D01*
X75110395Y-98730000D01*
X74225920Y-97845525D01*
X73971739Y-97929208D01*
X73840842Y-98201775D01*
X73765635Y-98494642D01*
X73749009Y-98796553D01*
X70710000Y-98796553D01*
X70710000Y-60478816D01*
X73755000Y-60478816D01*
X73755000Y-60781184D01*
X73813989Y-61077743D01*
X73929701Y-61357095D01*
X74097688Y-61608505D01*
X74311495Y-61822312D01*
X74427763Y-61900000D01*
X74311495Y-61977688D01*
X74097688Y-62191495D01*
X73929701Y-62442905D01*
X73813989Y-62722257D01*
X73755000Y-63018816D01*
X73755000Y-63321184D01*
X73813989Y-63617743D01*
X73929701Y-63897095D01*
X74097688Y-64148505D01*
X74311495Y-64362312D01*
X74427763Y-64440000D01*
X74311495Y-64517688D01*
X74097688Y-64731495D01*
X73929701Y-64982905D01*
X73813989Y-65262257D01*
X73755000Y-65558816D01*
X73755000Y-65861184D01*
X73813989Y-66157743D01*
X73929701Y-66437095D01*
X74097688Y-66688505D01*
X74311495Y-66902312D01*
X74427763Y-66980000D01*
X74311495Y-67057688D01*
X74097688Y-67271495D01*
X73929701Y-67522905D01*
X73813989Y-67802257D01*
X73755000Y-68098816D01*
X73755000Y-68401184D01*
X73813989Y-68697743D01*
X73929701Y-68977095D01*
X74097688Y-69228505D01*
X74311495Y-69442312D01*
X74427763Y-69520000D01*
X74311495Y-69597688D01*
X74097688Y-69811495D01*
X73929701Y-70062905D01*
X73813989Y-70342257D01*
X73755000Y-70638816D01*
X73755000Y-70941184D01*
X73813989Y-71237743D01*
X73929701Y-71517095D01*
X74097688Y-71768505D01*
X74311495Y-71982312D01*
X74427763Y-72060000D01*
X74311495Y-72137688D01*
X74097688Y-72351495D01*
X73929701Y-72602905D01*
X73813989Y-72882257D01*
X73755000Y-73178816D01*
X73755000Y-73481184D01*
X73813989Y-73777743D01*
X73929701Y-74057095D01*
X74097688Y-74308505D01*
X74311495Y-74522312D01*
X74427763Y-74600000D01*
X74311495Y-74677688D01*
X74097688Y-74891495D01*
X73929701Y-75142905D01*
X73813989Y-75422257D01*
X73755000Y-75718816D01*
X73755000Y-76021184D01*
X73813989Y-76317743D01*
X73929701Y-76597095D01*
X74097688Y-76848505D01*
X74311495Y-77062312D01*
X74427763Y-77140000D01*
X74311495Y-77217688D01*
X74097688Y-77431495D01*
X73929701Y-77682905D01*
X73813989Y-77962257D01*
X73755000Y-78258816D01*
X73755000Y-78561184D01*
X73813989Y-78857743D01*
X73929701Y-79137095D01*
X74097688Y-79388505D01*
X74311495Y-79602312D01*
X74427763Y-79680000D01*
X74311495Y-79757688D01*
X74097688Y-79971495D01*
X73929701Y-80222905D01*
X73813989Y-80502257D01*
X73755000Y-80798816D01*
X73755000Y-81101184D01*
X73813989Y-81397743D01*
X73929701Y-81677095D01*
X74097688Y-81928505D01*
X74311495Y-82142312D01*
X74427763Y-82220000D01*
X74311495Y-82297688D01*
X74097688Y-82511495D01*
X73929701Y-82762905D01*
X73813989Y-83042257D01*
X73755000Y-83338816D01*
X73755000Y-83641184D01*
X73813989Y-83937743D01*
X73929701Y-84217095D01*
X74097688Y-84468505D01*
X74311495Y-84682312D01*
X74427763Y-84760000D01*
X74311495Y-84837688D01*
X74097688Y-85051495D01*
X73929701Y-85302905D01*
X73813989Y-85582257D01*
X73755000Y-85878816D01*
X73755000Y-86181184D01*
X73813989Y-86477743D01*
X73929701Y-86757095D01*
X74097688Y-87008505D01*
X74311495Y-87222312D01*
X74427763Y-87300000D01*
X74311495Y-87377688D01*
X74097688Y-87591495D01*
X73929701Y-87842905D01*
X73813989Y-88122257D01*
X73755000Y-88418816D01*
X73755000Y-88721184D01*
X73813989Y-89017743D01*
X73929701Y-89297095D01*
X74097688Y-89548505D01*
X74311495Y-89762312D01*
X74427763Y-89840000D01*
X74311495Y-89917688D01*
X74097688Y-90131495D01*
X73929701Y-90382905D01*
X73813989Y-90662257D01*
X73755000Y-90958816D01*
X73755000Y-91261184D01*
X73813989Y-91557743D01*
X73929701Y-91837095D01*
X74097688Y-92088505D01*
X74311495Y-92302312D01*
X74427763Y-92380000D01*
X74311495Y-92457688D01*
X74097688Y-92671495D01*
X73929701Y-92922905D01*
X73813989Y-93202257D01*
X73755000Y-93498816D01*
X73755000Y-93801184D01*
X73813989Y-94097743D01*
X73929701Y-94377095D01*
X74097688Y-94628505D01*
X74311495Y-94842312D01*
X74427763Y-94920000D01*
X74311495Y-94997688D01*
X74097688Y-95211495D01*
X73929701Y-95462905D01*
X73813989Y-95742257D01*
X73755000Y-96038816D01*
X73755000Y-96341184D01*
X73813989Y-96637743D01*
X73929701Y-96917095D01*
X74097688Y-97168505D01*
X74311495Y-97382312D01*
X74465105Y-97484951D01*
X74405525Y-97665920D01*
X75290000Y-98550395D01*
X76174475Y-97665920D01*
X76114895Y-97484951D01*
X76268505Y-97382312D01*
X76482312Y-97168505D01*
X76650299Y-96917095D01*
X76766011Y-96637743D01*
X76825000Y-96341184D01*
X76825000Y-96038816D01*
X76766011Y-95742257D01*
X76650299Y-95462905D01*
X76482312Y-95211495D01*
X76268505Y-94997688D01*
X76152237Y-94920000D01*
X76268505Y-94842312D01*
X76482312Y-94628505D01*
X76650299Y-94377095D01*
X76766011Y-94097743D01*
X76825000Y-93801184D01*
X76825000Y-93498816D01*
X76766011Y-93202257D01*
X76650299Y-92922905D01*
X76482312Y-92671495D01*
X76268505Y-92457688D01*
X76152237Y-92380000D01*
X76268505Y-92302312D01*
X76482312Y-92088505D01*
X76650299Y-91837095D01*
X76766011Y-91557743D01*
X76825000Y-91261184D01*
X76825000Y-90958816D01*
X76766011Y-90662257D01*
X76650299Y-90382905D01*
X76482312Y-90131495D01*
X76268505Y-89917688D01*
X76152237Y-89840000D01*
X76268505Y-89762312D01*
X76482312Y-89548505D01*
X76650299Y-89297095D01*
X76766011Y-89017743D01*
X76825000Y-88721184D01*
X76825000Y-88418816D01*
X76766011Y-88122257D01*
X76650299Y-87842905D01*
X76482312Y-87591495D01*
X76268505Y-87377688D01*
X76152237Y-87300000D01*
X76268505Y-87222312D01*
X76482312Y-87008505D01*
X76650299Y-86757095D01*
X76766011Y-86477743D01*
X76825000Y-86181184D01*
X76825000Y-85878816D01*
X76766011Y-85582257D01*
X76650299Y-85302905D01*
X76482312Y-85051495D01*
X76268505Y-84837688D01*
X76152237Y-84760000D01*
X76268505Y-84682312D01*
X76482312Y-84468505D01*
X76650299Y-84217095D01*
X76766011Y-83937743D01*
X76825000Y-83641184D01*
X76825000Y-83338816D01*
X76766011Y-83042257D01*
X76650299Y-82762905D01*
X76482312Y-82511495D01*
X76268505Y-82297688D01*
X76152237Y-82220000D01*
X76268505Y-82142312D01*
X76482312Y-81928505D01*
X76650299Y-81677095D01*
X76766011Y-81397743D01*
X76825000Y-81101184D01*
X76825000Y-80798816D01*
X76766011Y-80502257D01*
X76650299Y-80222905D01*
X76482312Y-79971495D01*
X76268505Y-79757688D01*
X76152237Y-79680000D01*
X76268505Y-79602312D01*
X76482312Y-79388505D01*
X76650299Y-79137095D01*
X76766011Y-78857743D01*
X76825000Y-78561184D01*
X76825000Y-78258816D01*
X76766011Y-77962257D01*
X76650299Y-77682905D01*
X76482312Y-77431495D01*
X76268505Y-77217688D01*
X76152237Y-77140000D01*
X76268505Y-77062312D01*
X76482312Y-76848505D01*
X76650299Y-76597095D01*
X76766011Y-76317743D01*
X76825000Y-76021184D01*
X76825000Y-75718816D01*
X76766011Y-75422257D01*
X76650299Y-75142905D01*
X76482312Y-74891495D01*
X76268505Y-74677688D01*
X76152237Y-74600000D01*
X76268505Y-74522312D01*
X76482312Y-74308505D01*
X76650299Y-74057095D01*
X76766011Y-73777743D01*
X76825000Y-73481184D01*
X76825000Y-73178816D01*
X76766011Y-72882257D01*
X76650299Y-72602905D01*
X76482312Y-72351495D01*
X76268505Y-72137688D01*
X76152237Y-72060000D01*
X76268505Y-71982312D01*
X76482312Y-71768505D01*
X76650299Y-71517095D01*
X76766011Y-71237743D01*
X76825000Y-70941184D01*
X76825000Y-70638816D01*
X76766011Y-70342257D01*
X76650299Y-70062905D01*
X76482312Y-69811495D01*
X76268505Y-69597688D01*
X76152237Y-69520000D01*
X76268505Y-69442312D01*
X76482312Y-69228505D01*
X76650299Y-68977095D01*
X76766011Y-68697743D01*
X76825000Y-68401184D01*
X76825000Y-68098816D01*
X76766011Y-67802257D01*
X76650299Y-67522905D01*
X76482312Y-67271495D01*
X76268505Y-67057688D01*
X76152237Y-66980000D01*
X76268505Y-66902312D01*
X76482312Y-66688505D01*
X76650299Y-66437095D01*
X76766011Y-66157743D01*
X76825000Y-65861184D01*
X76825000Y-65558816D01*
X76766011Y-65262257D01*
X76650299Y-64982905D01*
X76482312Y-64731495D01*
X76268505Y-64517688D01*
X76152237Y-64440000D01*
X76268505Y-64362312D01*
X76482312Y-64148505D01*
X76650299Y-63897095D01*
X76766011Y-63617743D01*
X76825000Y-63321184D01*
X76825000Y-63018816D01*
X76766011Y-62722257D01*
X76650299Y-62442905D01*
X76482312Y-62191495D01*
X76268505Y-61977688D01*
X76152237Y-61900000D01*
X76268505Y-61822312D01*
X76482312Y-61608505D01*
X76650299Y-61357095D01*
X76766011Y-61077743D01*
X76825000Y-60781184D01*
X76825000Y-60478816D01*
X78835000Y-60478816D01*
X78835000Y-60781184D01*
X78893989Y-61077743D01*
X79009701Y-61357095D01*
X79177688Y-61608505D01*
X79391495Y-61822312D01*
X79507763Y-61900000D01*
X79391495Y-61977688D01*
X79177688Y-62191495D01*
X79009701Y-62442905D01*
X78893989Y-62722257D01*
X78835000Y-63018816D01*
X78835000Y-63321184D01*
X78893989Y-63617743D01*
X79009701Y-63897095D01*
X79177688Y-64148505D01*
X79391495Y-64362312D01*
X79507763Y-64440000D01*
X79391495Y-64517688D01*
X79177688Y-64731495D01*
X79009701Y-64982905D01*
X78893989Y-65262257D01*
X78835000Y-65558816D01*
X78835000Y-65861184D01*
X78893989Y-66157743D01*
X79009701Y-66437095D01*
X79177688Y-66688505D01*
X79391495Y-66902312D01*
X79507763Y-66980000D01*
X79391495Y-67057688D01*
X79177688Y-67271495D01*
X79009701Y-67522905D01*
X78893989Y-67802257D01*
X78835000Y-68098816D01*
X78835000Y-68401184D01*
X78893989Y-68697743D01*
X79009701Y-68977095D01*
X79177688Y-69228505D01*
X79391495Y-69442312D01*
X79507763Y-69520000D01*
X79391495Y-69597688D01*
X79177688Y-69811495D01*
X79009701Y-70062905D01*
X78893989Y-70342257D01*
X78835000Y-70638816D01*
X78835000Y-70941184D01*
X78893989Y-71237743D01*
X79009701Y-71517095D01*
X79177688Y-71768505D01*
X79391495Y-71982312D01*
X79507763Y-72060000D01*
X79391495Y-72137688D01*
X79177688Y-72351495D01*
X79009701Y-72602905D01*
X78893989Y-72882257D01*
X78835000Y-73178816D01*
X78835000Y-73481184D01*
X78893989Y-73777743D01*
X79009701Y-74057095D01*
X79177688Y-74308505D01*
X79391495Y-74522312D01*
X79507763Y-74600000D01*
X79391495Y-74677688D01*
X79177688Y-74891495D01*
X79009701Y-75142905D01*
X78893989Y-75422257D01*
X78835000Y-75718816D01*
X78835000Y-76021184D01*
X78893989Y-76317743D01*
X79009701Y-76597095D01*
X79177688Y-76848505D01*
X79391495Y-77062312D01*
X79507763Y-77140000D01*
X79391495Y-77217688D01*
X79177688Y-77431495D01*
X79009701Y-77682905D01*
X78893989Y-77962257D01*
X78835000Y-78258816D01*
X78835000Y-78561184D01*
X78893989Y-78857743D01*
X79009701Y-79137095D01*
X79177688Y-79388505D01*
X79391495Y-79602312D01*
X79507763Y-79680000D01*
X79391495Y-79757688D01*
X79177688Y-79971495D01*
X79009701Y-80222905D01*
X78893989Y-80502257D01*
X78835000Y-80798816D01*
X78835000Y-81101184D01*
X78893989Y-81397743D01*
X79009701Y-81677095D01*
X79177688Y-81928505D01*
X79391495Y-82142312D01*
X79507763Y-82220000D01*
X79391495Y-82297688D01*
X79177688Y-82511495D01*
X79009701Y-82762905D01*
X78893989Y-83042257D01*
X78835000Y-83338816D01*
X78835000Y-83641184D01*
X78893989Y-83937743D01*
X79009701Y-84217095D01*
X79177688Y-84468505D01*
X79391495Y-84682312D01*
X79507763Y-84760000D01*
X79391495Y-84837688D01*
X79177688Y-85051495D01*
X79009701Y-85302905D01*
X78893989Y-85582257D01*
X78835000Y-85878816D01*
X78835000Y-86181184D01*
X78893989Y-86477743D01*
X79009701Y-86757095D01*
X79177688Y-87008505D01*
X79391495Y-87222312D01*
X79507763Y-87300000D01*
X79391495Y-87377688D01*
X79177688Y-87591495D01*
X79009701Y-87842905D01*
X78893989Y-88122257D01*
X78835000Y-88418816D01*
X78835000Y-88721184D01*
X78893989Y-89017743D01*
X79009701Y-89297095D01*
X79177688Y-89548505D01*
X79391495Y-89762312D01*
X79507763Y-89840000D01*
X79391495Y-89917688D01*
X79177688Y-90131495D01*
X79009701Y-90382905D01*
X78893989Y-90662257D01*
X78835000Y-90958816D01*
X78835000Y-91261184D01*
X78893989Y-91557743D01*
X79009701Y-91837095D01*
X79177688Y-92088505D01*
X79391495Y-92302312D01*
X79507763Y-92380000D01*
X79391495Y-92457688D01*
X79177688Y-92671495D01*
X79009701Y-92922905D01*
X78893989Y-93202257D01*
X78835000Y-93498816D01*
X78835000Y-93801184D01*
X78893989Y-94097743D01*
X79009701Y-94377095D01*
X79177688Y-94628505D01*
X79391495Y-94842312D01*
X79507763Y-94920000D01*
X79391495Y-94997688D01*
X79177688Y-95211495D01*
X79009701Y-95462905D01*
X78893989Y-95742257D01*
X78835000Y-96038816D01*
X78835000Y-96341184D01*
X78893989Y-96637743D01*
X79009701Y-96917095D01*
X79177688Y-97168505D01*
X79391495Y-97382312D01*
X79545105Y-97484951D01*
X79485525Y-97665920D01*
X80370000Y-98550395D01*
X81254475Y-97665920D01*
X81194895Y-97484951D01*
X81348505Y-97382312D01*
X81562312Y-97168505D01*
X81730299Y-96917095D01*
X81846011Y-96637743D01*
X81905000Y-96341184D01*
X81905000Y-96038816D01*
X81846011Y-95742257D01*
X81790363Y-95607911D01*
X144665000Y-95607911D01*
X144665000Y-95792089D01*
X144700932Y-95972729D01*
X144771414Y-96142889D01*
X144813272Y-96205534D01*
X144860589Y-96294059D01*
X144971183Y-96428817D01*
X145004955Y-96456533D01*
X146657346Y-98108924D01*
X146671414Y-98142889D01*
X146773738Y-98296028D01*
X146903972Y-98426262D01*
X147057111Y-98528586D01*
X147227271Y-98599068D01*
X147407911Y-98635000D01*
X147592089Y-98635000D01*
X147772729Y-98599068D01*
X147942889Y-98528586D01*
X148096028Y-98426262D01*
X148226262Y-98296028D01*
X148328586Y-98142889D01*
X148399068Y-97972729D01*
X148435000Y-97792089D01*
X148435000Y-97607911D01*
X148399068Y-97427271D01*
X148328586Y-97257111D01*
X148226262Y-97103972D01*
X148096028Y-96973738D01*
X147942889Y-96871414D01*
X147908924Y-96857346D01*
X146640394Y-95588816D01*
X219985000Y-95588816D01*
X219985000Y-95891184D01*
X220043989Y-96187743D01*
X220159701Y-96467095D01*
X220327688Y-96718505D01*
X220541495Y-96932312D01*
X220792905Y-97100299D01*
X221072257Y-97216011D01*
X221368816Y-97275000D01*
X221671184Y-97275000D01*
X221967743Y-97216011D01*
X222247095Y-97100299D01*
X222498505Y-96932312D01*
X222712312Y-96718505D01*
X222880299Y-96467095D01*
X222996011Y-96187743D01*
X223055000Y-95891184D01*
X223055000Y-95588816D01*
X222996011Y-95292257D01*
X222880299Y-95012905D01*
X222712312Y-94761495D01*
X222498505Y-94547688D01*
X222247095Y-94379701D01*
X221967743Y-94263989D01*
X221671184Y-94205000D01*
X221368816Y-94205000D01*
X221072257Y-94263989D01*
X220792905Y-94379701D01*
X220541495Y-94547688D01*
X220327688Y-94761495D01*
X220159701Y-95012905D01*
X220043989Y-95292257D01*
X219985000Y-95588816D01*
X146640394Y-95588816D01*
X146504088Y-95452510D01*
X146499068Y-95427271D01*
X146428586Y-95257111D01*
X146326262Y-95103972D01*
X146196028Y-94973738D01*
X146042889Y-94871414D01*
X145872729Y-94800932D01*
X145692089Y-94765000D01*
X145507911Y-94765000D01*
X145327271Y-94800932D01*
X145157111Y-94871414D01*
X145003972Y-94973738D01*
X144873738Y-95103972D01*
X144771414Y-95257111D01*
X144700932Y-95427271D01*
X144665000Y-95607911D01*
X81790363Y-95607911D01*
X81730299Y-95462905D01*
X81562312Y-95211495D01*
X81348505Y-94997688D01*
X81232237Y-94920000D01*
X81348505Y-94842312D01*
X81562312Y-94628505D01*
X81730299Y-94377095D01*
X81846011Y-94097743D01*
X81905000Y-93801184D01*
X81905000Y-93498816D01*
X81846011Y-93202257D01*
X81782454Y-93048816D01*
X212365000Y-93048816D01*
X212365000Y-93351184D01*
X212423989Y-93647743D01*
X212539701Y-93927095D01*
X212707688Y-94178505D01*
X212921495Y-94392312D01*
X213172905Y-94560299D01*
X213452257Y-94676011D01*
X213748816Y-94735000D01*
X214051184Y-94735000D01*
X214347743Y-94676011D01*
X214627095Y-94560299D01*
X214878505Y-94392312D01*
X215092312Y-94178505D01*
X215260299Y-93927095D01*
X215376011Y-93647743D01*
X215435000Y-93351184D01*
X215435000Y-93048816D01*
X225065000Y-93048816D01*
X225065000Y-93351184D01*
X225123989Y-93647743D01*
X225239701Y-93927095D01*
X225407688Y-94178505D01*
X225621495Y-94392312D01*
X225872905Y-94560299D01*
X226152257Y-94676011D01*
X226448816Y-94735000D01*
X226751184Y-94735000D01*
X227047743Y-94676011D01*
X227327095Y-94560299D01*
X227578505Y-94392312D01*
X227792312Y-94178505D01*
X227960299Y-93927095D01*
X228076011Y-93647743D01*
X228135000Y-93351184D01*
X228135000Y-93048816D01*
X228076011Y-92752257D01*
X227960299Y-92472905D01*
X227792312Y-92221495D01*
X227578505Y-92007688D01*
X227327095Y-91839701D01*
X227047743Y-91723989D01*
X226751184Y-91665000D01*
X226448816Y-91665000D01*
X226152257Y-91723989D01*
X225872905Y-91839701D01*
X225621495Y-92007688D01*
X225407688Y-92221495D01*
X225239701Y-92472905D01*
X225123989Y-92752257D01*
X225065000Y-93048816D01*
X215435000Y-93048816D01*
X215376011Y-92752257D01*
X215260299Y-92472905D01*
X215092312Y-92221495D01*
X214878505Y-92007688D01*
X214627095Y-91839701D01*
X214347743Y-91723989D01*
X214051184Y-91665000D01*
X213748816Y-91665000D01*
X213452257Y-91723989D01*
X213172905Y-91839701D01*
X212921495Y-92007688D01*
X212707688Y-92221495D01*
X212539701Y-92472905D01*
X212423989Y-92752257D01*
X212365000Y-93048816D01*
X81782454Y-93048816D01*
X81730299Y-92922905D01*
X81562312Y-92671495D01*
X81348505Y-92457688D01*
X81232237Y-92380000D01*
X81348505Y-92302312D01*
X81562312Y-92088505D01*
X81730299Y-91837095D01*
X81846011Y-91557743D01*
X81905000Y-91261184D01*
X81905000Y-90958816D01*
X81846011Y-90662257D01*
X81730299Y-90382905D01*
X81562312Y-90131495D01*
X81348505Y-89917688D01*
X81232237Y-89840000D01*
X81348505Y-89762312D01*
X81562312Y-89548505D01*
X81730299Y-89297095D01*
X81846011Y-89017743D01*
X81905000Y-88721184D01*
X81905000Y-88418816D01*
X81846011Y-88122257D01*
X81730299Y-87842905D01*
X81562312Y-87591495D01*
X81348505Y-87377688D01*
X81232237Y-87300000D01*
X81348505Y-87222312D01*
X81562312Y-87008505D01*
X81730299Y-86757095D01*
X81846011Y-86477743D01*
X81905000Y-86181184D01*
X81905000Y-85878816D01*
X81846011Y-85582257D01*
X81730299Y-85302905D01*
X81562312Y-85051495D01*
X81348505Y-84837688D01*
X81232237Y-84760000D01*
X81348505Y-84682312D01*
X81562312Y-84468505D01*
X81730299Y-84217095D01*
X81846011Y-83937743D01*
X81905000Y-83641184D01*
X81905000Y-83338816D01*
X81846011Y-83042257D01*
X81730299Y-82762905D01*
X81562312Y-82511495D01*
X81348505Y-82297688D01*
X81232237Y-82220000D01*
X81348505Y-82142312D01*
X81562312Y-81928505D01*
X81730299Y-81677095D01*
X81846011Y-81397743D01*
X81905000Y-81101184D01*
X81905000Y-80798816D01*
X81846011Y-80502257D01*
X81730299Y-80222905D01*
X81562312Y-79971495D01*
X81348505Y-79757688D01*
X81232237Y-79680000D01*
X81348505Y-79602312D01*
X81562312Y-79388505D01*
X81730299Y-79137095D01*
X81846011Y-78857743D01*
X81905000Y-78561184D01*
X81905000Y-78258816D01*
X81846011Y-77962257D01*
X81730299Y-77682905D01*
X81562312Y-77431495D01*
X81348505Y-77217688D01*
X81232237Y-77140000D01*
X81348505Y-77062312D01*
X81562312Y-76848505D01*
X81730299Y-76597095D01*
X81846011Y-76317743D01*
X81905000Y-76021184D01*
X81905000Y-75718816D01*
X81846011Y-75422257D01*
X81730299Y-75142905D01*
X81562312Y-74891495D01*
X81428728Y-74757911D01*
X169915000Y-74757911D01*
X169915000Y-74942089D01*
X169950932Y-75122729D01*
X170021414Y-75292889D01*
X170123738Y-75446028D01*
X170253972Y-75576262D01*
X170407111Y-75678586D01*
X170577271Y-75749068D01*
X170757911Y-75785000D01*
X170942089Y-75785000D01*
X171122729Y-75749068D01*
X171292889Y-75678586D01*
X171446028Y-75576262D01*
X171576262Y-75446028D01*
X171678586Y-75292889D01*
X171749068Y-75122729D01*
X171773153Y-75001648D01*
X174361004Y-72413798D01*
X174390001Y-72390001D01*
X174484974Y-72274276D01*
X174555546Y-72142247D01*
X174599003Y-71998986D01*
X174609052Y-71896954D01*
X174678586Y-71792889D01*
X174749068Y-71622729D01*
X174785000Y-71442089D01*
X174785000Y-71257911D01*
X174749068Y-71077271D01*
X174678586Y-70907111D01*
X174576262Y-70753972D01*
X174446028Y-70623738D01*
X174292889Y-70521414D01*
X174122729Y-70450932D01*
X173942089Y-70415000D01*
X173757911Y-70415000D01*
X173577271Y-70450932D01*
X173407111Y-70521414D01*
X173253972Y-70623738D01*
X173123738Y-70753972D01*
X173021414Y-70907111D01*
X172950932Y-71077271D01*
X172915000Y-71257911D01*
X172915000Y-71442089D01*
X172950932Y-71622729D01*
X172966027Y-71659171D01*
X170698352Y-73926847D01*
X170577271Y-73950932D01*
X170407111Y-74021414D01*
X170253972Y-74123738D01*
X170123738Y-74253972D01*
X170021414Y-74407111D01*
X169950932Y-74577271D01*
X169915000Y-74757911D01*
X81428728Y-74757911D01*
X81348505Y-74677688D01*
X81232237Y-74600000D01*
X81348505Y-74522312D01*
X81562312Y-74308505D01*
X81730299Y-74057095D01*
X81846011Y-73777743D01*
X81905000Y-73481184D01*
X81905000Y-73178816D01*
X81846011Y-72882257D01*
X81730299Y-72602905D01*
X81562312Y-72351495D01*
X81348505Y-72137688D01*
X81232237Y-72060000D01*
X81348505Y-71982312D01*
X81562312Y-71768505D01*
X81730299Y-71517095D01*
X81846011Y-71237743D01*
X81905000Y-70941184D01*
X81905000Y-70638816D01*
X81846011Y-70342257D01*
X81730299Y-70062905D01*
X81562312Y-69811495D01*
X81348505Y-69597688D01*
X81232237Y-69520000D01*
X81348505Y-69442312D01*
X81562312Y-69228505D01*
X81730299Y-68977095D01*
X81846011Y-68697743D01*
X81905000Y-68401184D01*
X81905000Y-68098816D01*
X81846011Y-67802257D01*
X81730299Y-67522905D01*
X81562312Y-67271495D01*
X81348505Y-67057688D01*
X81232237Y-66980000D01*
X81348505Y-66902312D01*
X81562312Y-66688505D01*
X81730299Y-66437095D01*
X81846011Y-66157743D01*
X81905000Y-65861184D01*
X81905000Y-65558816D01*
X81846011Y-65262257D01*
X81730299Y-64982905D01*
X81562312Y-64731495D01*
X81348505Y-64517688D01*
X81232237Y-64440000D01*
X81348505Y-64362312D01*
X81562312Y-64148505D01*
X81730299Y-63897095D01*
X81846011Y-63617743D01*
X81905000Y-63321184D01*
X81905000Y-63018816D01*
X81846011Y-62722257D01*
X81730299Y-62442905D01*
X81562312Y-62191495D01*
X81348505Y-61977688D01*
X81232237Y-61900000D01*
X81348505Y-61822312D01*
X81562312Y-61608505D01*
X81730299Y-61357095D01*
X81846011Y-61077743D01*
X81905000Y-60781184D01*
X81905000Y-60478816D01*
X81846011Y-60182257D01*
X81730299Y-59902905D01*
X81562312Y-59651495D01*
X81348505Y-59437688D01*
X81097095Y-59269701D01*
X80817743Y-59153989D01*
X80521184Y-59095000D01*
X80218816Y-59095000D01*
X79922257Y-59153989D01*
X79642905Y-59269701D01*
X79391495Y-59437688D01*
X79177688Y-59651495D01*
X79009701Y-59902905D01*
X78893989Y-60182257D01*
X78835000Y-60478816D01*
X76825000Y-60478816D01*
X76766011Y-60182257D01*
X76650299Y-59902905D01*
X76482312Y-59651495D01*
X76268505Y-59437688D01*
X76017095Y-59269701D01*
X75737743Y-59153989D01*
X75441184Y-59095000D01*
X75138816Y-59095000D01*
X74842257Y-59153989D01*
X74562905Y-59269701D01*
X74311495Y-59437688D01*
X74097688Y-59651495D01*
X73929701Y-59902905D01*
X73813989Y-60182257D01*
X73755000Y-60478816D01*
X70710000Y-60478816D01*
X70710000Y-55981583D01*
X70745126Y-56158172D01*
X70902297Y-56537618D01*
X71130475Y-56879110D01*
X71420890Y-57169525D01*
X71762382Y-57397703D01*
X72141828Y-57554874D01*
X72544645Y-57635000D01*
X72955355Y-57635000D01*
X73358172Y-57554874D01*
X73737618Y-57397703D01*
X74079110Y-57169525D01*
X74369525Y-56879110D01*
X74597703Y-56537618D01*
X74754874Y-56158172D01*
X74835000Y-55755355D01*
X74835000Y-55344645D01*
X74754874Y-54941828D01*
X74597703Y-54562382D01*
X74369525Y-54220890D01*
X74079110Y-53930475D01*
X73737618Y-53702297D01*
X73358172Y-53545126D01*
X72955355Y-53465000D01*
X72544645Y-53465000D01*
X72141828Y-53545126D01*
X71762382Y-53702297D01*
X71420890Y-53930475D01*
X71130475Y-54220890D01*
X70902297Y-54562382D01*
X70745126Y-54941828D01*
X70710000Y-55118417D01*
X70710000Y-50710000D01*
X229290001Y-50710000D01*
X229290001Y-87873000D01*
G04 #@! TA.AperFunction,Conductor*
D24*
G36*
X229290001Y-87873000D02*
G01*
X180045980Y-87873000D01*
X177727000Y-85940517D01*
X177727000Y-77328578D01*
X185707346Y-85308925D01*
X185721414Y-85342889D01*
X185823738Y-85496028D01*
X185953972Y-85626262D01*
X186107111Y-85728586D01*
X186277271Y-85799068D01*
X186457911Y-85835000D01*
X186642089Y-85835000D01*
X186822729Y-85799068D01*
X186992889Y-85728586D01*
X187146028Y-85626262D01*
X187276262Y-85496028D01*
X187378586Y-85342889D01*
X187449068Y-85172729D01*
X187485000Y-84992089D01*
X187485000Y-84807911D01*
X187449068Y-84627271D01*
X187378586Y-84457111D01*
X187276262Y-84303972D01*
X187146028Y-84173738D01*
X186992889Y-84071414D01*
X186958925Y-84057346D01*
X186666110Y-83764531D01*
X221015074Y-83764531D01*
X221125921Y-84041714D01*
X221436840Y-84195089D01*
X221771705Y-84284860D01*
X222117650Y-84307576D01*
X222461380Y-84262366D01*
X222789685Y-84150966D01*
X222994079Y-84041714D01*
X223104926Y-83764531D01*
X226095074Y-83764531D01*
X226205921Y-84041714D01*
X226516840Y-84195089D01*
X226851705Y-84284860D01*
X227197650Y-84307576D01*
X227541380Y-84262366D01*
X227869685Y-84150966D01*
X228074079Y-84041714D01*
X228184926Y-83764531D01*
X227140000Y-82719605D01*
X226095074Y-83764531D01*
X223104926Y-83764531D01*
X222060000Y-82719605D01*
X221015074Y-83764531D01*
X186666110Y-83764531D01*
X185499229Y-82597650D01*
X220292424Y-82597650D01*
X220337634Y-82941380D01*
X220449034Y-83269685D01*
X220558286Y-83474079D01*
X220835469Y-83584926D01*
X221880395Y-82540000D01*
X222239605Y-82540000D01*
X223284531Y-83584926D01*
X223561714Y-83474079D01*
X223715089Y-83163160D01*
X223804860Y-82828295D01*
X223820004Y-82597650D01*
X225372424Y-82597650D01*
X225417634Y-82941380D01*
X225529034Y-83269685D01*
X225638286Y-83474079D01*
X225915469Y-83584926D01*
X226960395Y-82540000D01*
X227319605Y-82540000D01*
X228364531Y-83584926D01*
X228641714Y-83474079D01*
X228795089Y-83163160D01*
X228884860Y-82828295D01*
X228907576Y-82482350D01*
X228862366Y-82138620D01*
X228750966Y-81810315D01*
X228641714Y-81605921D01*
X228364531Y-81495074D01*
X227319605Y-82540000D01*
X226960395Y-82540000D01*
X225915469Y-81495074D01*
X225638286Y-81605921D01*
X225484911Y-81916840D01*
X225395140Y-82251705D01*
X225372424Y-82597650D01*
X223820004Y-82597650D01*
X223827576Y-82482350D01*
X223782366Y-82138620D01*
X223670966Y-81810315D01*
X223561714Y-81605921D01*
X223284531Y-81495074D01*
X222239605Y-82540000D01*
X221880395Y-82540000D01*
X220835469Y-81495074D01*
X220558286Y-81605921D01*
X220404911Y-81916840D01*
X220315140Y-82251705D01*
X220292424Y-82597650D01*
X185499229Y-82597650D01*
X184217048Y-81315469D01*
X221015074Y-81315469D01*
X222060000Y-82360395D01*
X223104926Y-81315469D01*
X222994079Y-81038286D01*
X222683160Y-80884911D01*
X222348295Y-80795140D01*
X222002350Y-80772424D01*
X221658620Y-80817634D01*
X221330315Y-80929034D01*
X221125921Y-81038286D01*
X221015074Y-81315469D01*
X184217048Y-81315469D01*
X182738083Y-79836504D01*
X222940000Y-79836504D01*
X222940000Y-80163496D01*
X223003793Y-80484204D01*
X223128927Y-80786305D01*
X223310594Y-81058188D01*
X223541812Y-81289406D01*
X223813695Y-81471073D01*
X224115796Y-81596207D01*
X224436504Y-81660000D01*
X224763496Y-81660000D01*
X225084204Y-81596207D01*
X225386305Y-81471073D01*
X225619182Y-81315469D01*
X226095074Y-81315469D01*
X227140000Y-82360395D01*
X228184926Y-81315469D01*
X228074079Y-81038286D01*
X227763160Y-80884911D01*
X227428295Y-80795140D01*
X227082350Y-80772424D01*
X226738620Y-80817634D01*
X226410315Y-80929034D01*
X226205921Y-81038286D01*
X226095074Y-81315469D01*
X225619182Y-81315469D01*
X225658188Y-81289406D01*
X225889406Y-81058188D01*
X226071073Y-80786305D01*
X226196207Y-80484204D01*
X226260000Y-80163496D01*
X226260000Y-79836504D01*
X226196207Y-79515796D01*
X226071073Y-79213695D01*
X225889406Y-78941812D01*
X225658188Y-78710594D01*
X225619183Y-78684531D01*
X226095074Y-78684531D01*
X226205921Y-78961714D01*
X226516840Y-79115089D01*
X226851705Y-79204860D01*
X227197650Y-79227576D01*
X227541380Y-79182366D01*
X227869685Y-79070966D01*
X228074079Y-78961714D01*
X228184926Y-78684531D01*
X227140000Y-77639605D01*
X226095074Y-78684531D01*
X225619183Y-78684531D01*
X225386305Y-78528927D01*
X225084204Y-78403793D01*
X224763496Y-78340000D01*
X224436504Y-78340000D01*
X224115796Y-78403793D01*
X223813695Y-78528927D01*
X223541812Y-78710594D01*
X223310594Y-78941812D01*
X223128927Y-79213695D01*
X223003793Y-79515796D01*
X222940000Y-79836504D01*
X182738083Y-79836504D01*
X181586110Y-78684531D01*
X221015074Y-78684531D01*
X221125921Y-78961714D01*
X221436840Y-79115089D01*
X221771705Y-79204860D01*
X222117650Y-79227576D01*
X222461380Y-79182366D01*
X222789685Y-79070966D01*
X222994079Y-78961714D01*
X223104926Y-78684531D01*
X222060000Y-77639605D01*
X221015074Y-78684531D01*
X181586110Y-78684531D01*
X180419229Y-77517650D01*
X220292424Y-77517650D01*
X220337634Y-77861380D01*
X220449034Y-78189685D01*
X220558286Y-78394079D01*
X220835469Y-78504926D01*
X221880395Y-77460000D01*
X222239605Y-77460000D01*
X223284531Y-78504926D01*
X223561714Y-78394079D01*
X223715089Y-78083160D01*
X223804860Y-77748295D01*
X223820004Y-77517650D01*
X225372424Y-77517650D01*
X225417634Y-77861380D01*
X225529034Y-78189685D01*
X225638286Y-78394079D01*
X225915469Y-78504926D01*
X226960395Y-77460000D01*
X227319605Y-77460000D01*
X228364531Y-78504926D01*
X228641714Y-78394079D01*
X228795089Y-78083160D01*
X228884860Y-77748295D01*
X228907576Y-77402350D01*
X228862366Y-77058620D01*
X228750966Y-76730315D01*
X228641714Y-76525921D01*
X228364531Y-76415074D01*
X227319605Y-77460000D01*
X226960395Y-77460000D01*
X225915469Y-76415074D01*
X225638286Y-76525921D01*
X225484911Y-76836840D01*
X225395140Y-77171705D01*
X225372424Y-77517650D01*
X223820004Y-77517650D01*
X223827576Y-77402350D01*
X223782366Y-77058620D01*
X223670966Y-76730315D01*
X223561714Y-76525921D01*
X223284531Y-76415074D01*
X222239605Y-77460000D01*
X221880395Y-77460000D01*
X220835469Y-76415074D01*
X220558286Y-76525921D01*
X220404911Y-76836840D01*
X220315140Y-77171705D01*
X220292424Y-77517650D01*
X180419229Y-77517650D01*
X179137048Y-76235469D01*
X221015074Y-76235469D01*
X222060000Y-77280395D01*
X223104926Y-76235469D01*
X226095074Y-76235469D01*
X227140000Y-77280395D01*
X228184926Y-76235469D01*
X228074079Y-75958286D01*
X227763160Y-75804911D01*
X227428295Y-75715140D01*
X227082350Y-75692424D01*
X226738620Y-75737634D01*
X226410315Y-75849034D01*
X226205921Y-75958286D01*
X226095074Y-76235469D01*
X223104926Y-76235469D01*
X222994079Y-75958286D01*
X222683160Y-75804911D01*
X222348295Y-75715140D01*
X222002350Y-75692424D01*
X221658620Y-75737634D01*
X221330315Y-75849034D01*
X221125921Y-75958286D01*
X221015074Y-76235469D01*
X179137048Y-76235469D01*
X178685001Y-75783423D01*
X178685001Y-73057911D01*
X180515000Y-73057911D01*
X180515000Y-73242089D01*
X180550932Y-73422729D01*
X180621414Y-73592889D01*
X180723738Y-73746028D01*
X180853972Y-73876262D01*
X181007111Y-73978586D01*
X181177271Y-74049068D01*
X181357911Y-74085000D01*
X181542089Y-74085000D01*
X181722729Y-74049068D01*
X181892889Y-73978586D01*
X182046028Y-73876262D01*
X182176262Y-73746028D01*
X182278586Y-73592889D01*
X182349068Y-73422729D01*
X182385000Y-73242089D01*
X182385000Y-73057911D01*
X182349068Y-72877271D01*
X182278586Y-72707111D01*
X182210000Y-72604465D01*
X182210000Y-68664531D01*
X221015074Y-68664531D01*
X221125921Y-68941714D01*
X221436840Y-69095089D01*
X221771705Y-69184860D01*
X222117650Y-69207576D01*
X222461380Y-69162366D01*
X222789685Y-69050966D01*
X222994079Y-68941714D01*
X223104926Y-68664531D01*
X226095074Y-68664531D01*
X226205921Y-68941714D01*
X226516840Y-69095089D01*
X226851705Y-69184860D01*
X227197650Y-69207576D01*
X227541380Y-69162366D01*
X227869685Y-69050966D01*
X228074079Y-68941714D01*
X228184926Y-68664531D01*
X227140000Y-67619605D01*
X226095074Y-68664531D01*
X223104926Y-68664531D01*
X222060000Y-67619605D01*
X221015074Y-68664531D01*
X182210000Y-68664531D01*
X182210000Y-68212288D01*
X182226262Y-68196026D01*
X182328586Y-68042887D01*
X182399068Y-67872727D01*
X182435000Y-67692087D01*
X182435000Y-67507909D01*
X182432960Y-67497650D01*
X220292424Y-67497650D01*
X220337634Y-67841380D01*
X220449034Y-68169685D01*
X220558286Y-68374079D01*
X220835469Y-68484926D01*
X221880395Y-67440000D01*
X222239605Y-67440000D01*
X223284531Y-68484926D01*
X223561714Y-68374079D01*
X223715089Y-68063160D01*
X223804860Y-67728295D01*
X223820004Y-67497650D01*
X225372424Y-67497650D01*
X225417634Y-67841380D01*
X225529034Y-68169685D01*
X225638286Y-68374079D01*
X225915469Y-68484926D01*
X226960395Y-67440000D01*
X227319605Y-67440000D01*
X228364531Y-68484926D01*
X228641714Y-68374079D01*
X228795089Y-68063160D01*
X228884860Y-67728295D01*
X228907576Y-67382350D01*
X228862366Y-67038620D01*
X228750966Y-66710315D01*
X228641714Y-66505921D01*
X228364531Y-66395074D01*
X227319605Y-67440000D01*
X226960395Y-67440000D01*
X225915469Y-66395074D01*
X225638286Y-66505921D01*
X225484911Y-66816840D01*
X225395140Y-67151705D01*
X225372424Y-67497650D01*
X223820004Y-67497650D01*
X223827576Y-67382350D01*
X223782366Y-67038620D01*
X223670966Y-66710315D01*
X223561714Y-66505921D01*
X223284531Y-66395074D01*
X222239605Y-67440000D01*
X221880395Y-67440000D01*
X220835469Y-66395074D01*
X220558286Y-66505921D01*
X220404911Y-66816840D01*
X220315140Y-67151705D01*
X220292424Y-67497650D01*
X182432960Y-67497650D01*
X182399068Y-67327269D01*
X182328586Y-67157109D01*
X182226262Y-67003970D01*
X182096028Y-66873736D01*
X181942889Y-66771412D01*
X181772729Y-66700930D01*
X181592089Y-66664998D01*
X181407911Y-66664998D01*
X181227271Y-66700930D01*
X181057111Y-66771412D01*
X180903972Y-66873736D01*
X180773738Y-67003970D01*
X180671414Y-67157109D01*
X180600932Y-67327269D01*
X180565000Y-67507909D01*
X180565000Y-67692087D01*
X180600932Y-67872727D01*
X180671414Y-68042887D01*
X180690001Y-68070704D01*
X180690000Y-72604464D01*
X180621414Y-72707111D01*
X180550932Y-72877271D01*
X180515000Y-73057911D01*
X178685001Y-73057911D01*
X178685001Y-66215469D01*
X221015074Y-66215469D01*
X222060000Y-67260395D01*
X223104926Y-66215469D01*
X222994079Y-65938286D01*
X222683160Y-65784911D01*
X222348295Y-65695140D01*
X222002350Y-65672424D01*
X221658620Y-65717634D01*
X221330315Y-65829034D01*
X221125921Y-65938286D01*
X221015074Y-66215469D01*
X178685001Y-66215469D01*
X178685001Y-64736504D01*
X222940000Y-64736504D01*
X222940000Y-65063496D01*
X223003793Y-65384204D01*
X223128927Y-65686305D01*
X223310594Y-65958188D01*
X223541812Y-66189406D01*
X223813695Y-66371073D01*
X224115796Y-66496207D01*
X224436504Y-66560000D01*
X224763496Y-66560000D01*
X225084204Y-66496207D01*
X225386305Y-66371073D01*
X225619182Y-66215469D01*
X226095074Y-66215469D01*
X227140000Y-67260395D01*
X228184926Y-66215469D01*
X228074079Y-65938286D01*
X227763160Y-65784911D01*
X227428295Y-65695140D01*
X227082350Y-65672424D01*
X226738620Y-65717634D01*
X226410315Y-65829034D01*
X226205921Y-65938286D01*
X226095074Y-66215469D01*
X225619182Y-66215469D01*
X225658188Y-66189406D01*
X225889406Y-65958188D01*
X226071073Y-65686305D01*
X226196207Y-65384204D01*
X226260000Y-65063496D01*
X226260000Y-64736504D01*
X226196207Y-64415796D01*
X226071073Y-64113695D01*
X225889406Y-63841812D01*
X225658188Y-63610594D01*
X225619183Y-63584531D01*
X226095074Y-63584531D01*
X226205921Y-63861714D01*
X226516840Y-64015089D01*
X226851705Y-64104860D01*
X227197650Y-64127576D01*
X227541380Y-64082366D01*
X227869685Y-63970966D01*
X228074079Y-63861714D01*
X228184926Y-63584531D01*
X227140000Y-62539605D01*
X226095074Y-63584531D01*
X225619183Y-63584531D01*
X225386305Y-63428927D01*
X225084204Y-63303793D01*
X224763496Y-63240000D01*
X224436504Y-63240000D01*
X224115796Y-63303793D01*
X223813695Y-63428927D01*
X223541812Y-63610594D01*
X223310594Y-63841812D01*
X223128927Y-64113695D01*
X223003793Y-64415796D01*
X222940000Y-64736504D01*
X178685001Y-64736504D01*
X178685001Y-63584531D01*
X221015074Y-63584531D01*
X221125921Y-63861714D01*
X221436840Y-64015089D01*
X221771705Y-64104860D01*
X222117650Y-64127576D01*
X222461380Y-64082366D01*
X222789685Y-63970966D01*
X222994079Y-63861714D01*
X223104926Y-63584531D01*
X222060000Y-62539605D01*
X221015074Y-63584531D01*
X178685001Y-63584531D01*
X178685001Y-62417650D01*
X220292424Y-62417650D01*
X220337634Y-62761380D01*
X220449034Y-63089685D01*
X220558286Y-63294079D01*
X220835469Y-63404926D01*
X221880395Y-62360000D01*
X222239605Y-62360000D01*
X223284531Y-63404926D01*
X223561714Y-63294079D01*
X223715089Y-62983160D01*
X223804860Y-62648295D01*
X223820004Y-62417650D01*
X225372424Y-62417650D01*
X225417634Y-62761380D01*
X225529034Y-63089685D01*
X225638286Y-63294079D01*
X225915469Y-63404926D01*
X226960395Y-62360000D01*
X227319605Y-62360000D01*
X228364531Y-63404926D01*
X228641714Y-63294079D01*
X228795089Y-62983160D01*
X228884860Y-62648295D01*
X228907576Y-62302350D01*
X228862366Y-61958620D01*
X228750966Y-61630315D01*
X228641714Y-61425921D01*
X228364531Y-61315074D01*
X227319605Y-62360000D01*
X226960395Y-62360000D01*
X225915469Y-61315074D01*
X225638286Y-61425921D01*
X225484911Y-61736840D01*
X225395140Y-62071705D01*
X225372424Y-62417650D01*
X223820004Y-62417650D01*
X223827576Y-62302350D01*
X223782366Y-61958620D01*
X223670966Y-61630315D01*
X223561714Y-61425921D01*
X223284531Y-61315074D01*
X222239605Y-62360000D01*
X221880395Y-62360000D01*
X220835469Y-61315074D01*
X220558286Y-61425921D01*
X220404911Y-61736840D01*
X220315140Y-62071705D01*
X220292424Y-62417650D01*
X178685001Y-62417650D01*
X178685001Y-61135469D01*
X221015074Y-61135469D01*
X222060000Y-62180395D01*
X223104926Y-61135469D01*
X226095074Y-61135469D01*
X227140000Y-62180395D01*
X228184926Y-61135469D01*
X228074079Y-60858286D01*
X227763160Y-60704911D01*
X227428295Y-60615140D01*
X227082350Y-60592424D01*
X226738620Y-60637634D01*
X226410315Y-60749034D01*
X226205921Y-60858286D01*
X226095074Y-61135469D01*
X223104926Y-61135469D01*
X222994079Y-60858286D01*
X222683160Y-60704911D01*
X222348295Y-60615140D01*
X222002350Y-60592424D01*
X221658620Y-60637634D01*
X221330315Y-60749034D01*
X221125921Y-60858286D01*
X221015074Y-61135469D01*
X178685001Y-61135469D01*
X178685001Y-60833630D01*
X178696028Y-60826262D01*
X178826262Y-60696028D01*
X178928586Y-60542889D01*
X178999068Y-60372729D01*
X179035000Y-60192089D01*
X179035000Y-60007911D01*
X178999068Y-59827271D01*
X178928586Y-59657111D01*
X178826262Y-59503972D01*
X178696028Y-59373738D01*
X178542889Y-59271414D01*
X178372729Y-59200932D01*
X178192089Y-59165000D01*
X178007911Y-59165000D01*
X177827271Y-59200932D01*
X177727000Y-59242465D01*
X177727000Y-54600000D01*
X177724560Y-54575224D01*
X177717333Y-54551399D01*
X177705597Y-54529443D01*
X177689803Y-54510197D01*
X177670557Y-54494403D01*
X177648601Y-54482667D01*
X177624776Y-54475440D01*
X177600000Y-54473000D01*
X176600000Y-54473000D01*
X176575224Y-54475440D01*
X176551399Y-54482667D01*
X176529443Y-54494403D01*
X176510197Y-54510197D01*
X176494403Y-54529443D01*
X176482667Y-54551399D01*
X176475440Y-54575224D01*
X176473000Y-54600000D01*
X176473000Y-87000000D01*
X176478195Y-87035952D01*
X176487549Y-87059024D01*
X176501225Y-87079828D01*
X176518697Y-87097564D01*
X178918697Y-89097564D01*
X178929443Y-89105597D01*
X178951399Y-89117333D01*
X178975224Y-89124560D01*
X179000000Y-89127000D01*
X229290001Y-89127000D01*
X229290000Y-149290000D01*
X70710000Y-149290000D01*
X70710000Y-144881583D01*
X70745126Y-145058172D01*
X70902297Y-145437618D01*
X71130475Y-145779110D01*
X71420890Y-146069525D01*
X71762382Y-146297703D01*
X72141828Y-146454874D01*
X72544645Y-146535000D01*
X72955355Y-146535000D01*
X73358172Y-146454874D01*
X73737618Y-146297703D01*
X74079110Y-146069525D01*
X74369525Y-145779110D01*
X74597703Y-145437618D01*
X74623841Y-145374514D01*
X96332500Y-145374514D01*
X96332500Y-145625485D01*
X96355470Y-145858703D01*
X96446245Y-146157948D01*
X96593655Y-146433734D01*
X96792037Y-146675463D01*
X97033765Y-146873845D01*
X97309551Y-147021255D01*
X97608796Y-147112030D01*
X97920000Y-147142681D01*
X98231203Y-147112030D01*
X98530448Y-147021255D01*
X98806234Y-146873845D01*
X99047963Y-146675463D01*
X99195163Y-146496101D01*
X99350563Y-146681315D01*
X99593077Y-146875969D01*
X99868906Y-147019571D01*
X100087020Y-147090563D01*
X100333000Y-146970594D01*
X100333000Y-145627000D01*
X100313000Y-145627000D01*
X100313000Y-145373000D01*
X100333000Y-145373000D01*
X100333000Y-144029406D01*
X100587000Y-144029406D01*
X100587000Y-145373000D01*
X100607000Y-145373000D01*
X100607000Y-145627000D01*
X100587000Y-145627000D01*
X100587000Y-146970594D01*
X100832980Y-147090563D01*
X101051094Y-147019571D01*
X101326923Y-146875969D01*
X101467941Y-146762781D01*
X101516963Y-146854494D01*
X101596315Y-146951185D01*
X101693006Y-147030537D01*
X101803320Y-147089502D01*
X101923018Y-147125812D01*
X102047500Y-147138072D01*
X103952500Y-147138072D01*
X104076982Y-147125812D01*
X104196680Y-147089502D01*
X104306994Y-147030537D01*
X104403685Y-146951185D01*
X104483037Y-146854494D01*
X104542002Y-146744180D01*
X104578312Y-146624482D01*
X104590572Y-146500000D01*
X104590572Y-144500000D01*
X104578312Y-144375518D01*
X104542002Y-144255820D01*
X104483037Y-144145506D01*
X104403685Y-144048815D01*
X104306994Y-143969463D01*
X104196680Y-143910498D01*
X104076982Y-143874188D01*
X103952500Y-143861928D01*
X102047500Y-143861928D01*
X101923018Y-143874188D01*
X101803320Y-143910498D01*
X101693006Y-143969463D01*
X101596315Y-144048815D01*
X101516963Y-144145506D01*
X101467941Y-144237219D01*
X101326923Y-144124031D01*
X101051094Y-143980429D01*
X100832980Y-143909437D01*
X100587000Y-144029406D01*
X100333000Y-144029406D01*
X100087020Y-143909437D01*
X99868906Y-143980429D01*
X99593077Y-144124031D01*
X99350563Y-144318685D01*
X99195162Y-144503900D01*
X99047963Y-144324537D01*
X98806235Y-144126155D01*
X98530449Y-143978745D01*
X98231204Y-143887970D01*
X97920000Y-143857319D01*
X97608797Y-143887970D01*
X97309552Y-143978745D01*
X97033766Y-144126155D01*
X96792037Y-144324537D01*
X96593655Y-144566265D01*
X96446245Y-144842051D01*
X96355470Y-145141296D01*
X96332500Y-145374514D01*
X74623841Y-145374514D01*
X74754874Y-145058172D01*
X74835000Y-144655355D01*
X74835000Y-144244645D01*
X74754874Y-143841828D01*
X74597703Y-143462382D01*
X74369525Y-143120890D01*
X74079110Y-142830475D01*
X73737618Y-142602297D01*
X73358172Y-142445126D01*
X72955355Y-142365000D01*
X72544645Y-142365000D01*
X72141828Y-142445126D01*
X71762382Y-142602297D01*
X71420890Y-142830475D01*
X71130475Y-143120890D01*
X70902297Y-143462382D01*
X70745126Y-143841828D01*
X70710000Y-144018417D01*
X70710000Y-106198816D01*
X73755000Y-106198816D01*
X73755000Y-106501184D01*
X73813989Y-106797743D01*
X73929701Y-107077095D01*
X74097688Y-107328505D01*
X74311495Y-107542312D01*
X74427763Y-107620000D01*
X74311495Y-107697688D01*
X74097688Y-107911495D01*
X73929701Y-108162905D01*
X73813989Y-108442257D01*
X73755000Y-108738816D01*
X73755000Y-109041184D01*
X73813989Y-109337743D01*
X73929701Y-109617095D01*
X74097688Y-109868505D01*
X74311495Y-110082312D01*
X74427763Y-110160000D01*
X74311495Y-110237688D01*
X74097688Y-110451495D01*
X73929701Y-110702905D01*
X73813989Y-110982257D01*
X73755000Y-111278816D01*
X73755000Y-111581184D01*
X73813989Y-111877743D01*
X73929701Y-112157095D01*
X74097688Y-112408505D01*
X74311495Y-112622312D01*
X74427763Y-112700000D01*
X74311495Y-112777688D01*
X74097688Y-112991495D01*
X73929701Y-113242905D01*
X73813989Y-113522257D01*
X73755000Y-113818816D01*
X73755000Y-114121184D01*
X73813989Y-114417743D01*
X73929701Y-114697095D01*
X74097688Y-114948505D01*
X74311495Y-115162312D01*
X74427763Y-115240000D01*
X74311495Y-115317688D01*
X74097688Y-115531495D01*
X73929701Y-115782905D01*
X73813989Y-116062257D01*
X73755000Y-116358816D01*
X73755000Y-116661184D01*
X73813989Y-116957743D01*
X73929701Y-117237095D01*
X74097688Y-117488505D01*
X74311495Y-117702312D01*
X74427763Y-117780000D01*
X74311495Y-117857688D01*
X74097688Y-118071495D01*
X73929701Y-118322905D01*
X73813989Y-118602257D01*
X73755000Y-118898816D01*
X73755000Y-119201184D01*
X73813989Y-119497743D01*
X73929701Y-119777095D01*
X74097688Y-120028505D01*
X74311495Y-120242312D01*
X74427763Y-120320000D01*
X74311495Y-120397688D01*
X74097688Y-120611495D01*
X73929701Y-120862905D01*
X73813989Y-121142257D01*
X73755000Y-121438816D01*
X73755000Y-121741184D01*
X73813989Y-122037743D01*
X73929701Y-122317095D01*
X74097688Y-122568505D01*
X74311495Y-122782312D01*
X74427763Y-122860000D01*
X74311495Y-122937688D01*
X74097688Y-123151495D01*
X73929701Y-123402905D01*
X73813989Y-123682257D01*
X73755000Y-123978816D01*
X73755000Y-124281184D01*
X73813989Y-124577743D01*
X73929701Y-124857095D01*
X74097688Y-125108505D01*
X74311495Y-125322312D01*
X74427763Y-125400000D01*
X74311495Y-125477688D01*
X74097688Y-125691495D01*
X73929701Y-125942905D01*
X73813989Y-126222257D01*
X73755000Y-126518816D01*
X73755000Y-126821184D01*
X73813989Y-127117743D01*
X73929701Y-127397095D01*
X74097688Y-127648505D01*
X74311495Y-127862312D01*
X74427763Y-127940000D01*
X74311495Y-128017688D01*
X74097688Y-128231495D01*
X73929701Y-128482905D01*
X73813989Y-128762257D01*
X73755000Y-129058816D01*
X73755000Y-129361184D01*
X73813989Y-129657743D01*
X73929701Y-129937095D01*
X74097688Y-130188505D01*
X74311495Y-130402312D01*
X74427763Y-130480000D01*
X74311495Y-130557688D01*
X74097688Y-130771495D01*
X73929701Y-131022905D01*
X73813989Y-131302257D01*
X73755000Y-131598816D01*
X73755000Y-131901184D01*
X73813989Y-132197743D01*
X73929701Y-132477095D01*
X74097688Y-132728505D01*
X74311495Y-132942312D01*
X74427763Y-133020000D01*
X74311495Y-133097688D01*
X74097688Y-133311495D01*
X73929701Y-133562905D01*
X73813989Y-133842257D01*
X73755000Y-134138816D01*
X73755000Y-134441184D01*
X73813989Y-134737743D01*
X73929701Y-135017095D01*
X74097688Y-135268505D01*
X74311495Y-135482312D01*
X74427763Y-135560000D01*
X74311495Y-135637688D01*
X74097688Y-135851495D01*
X73929701Y-136102905D01*
X73813989Y-136382257D01*
X73755000Y-136678816D01*
X73755000Y-136981184D01*
X73813989Y-137277743D01*
X73929701Y-137557095D01*
X74097688Y-137808505D01*
X74311495Y-138022312D01*
X74427763Y-138100000D01*
X74311495Y-138177688D01*
X74097688Y-138391495D01*
X73929701Y-138642905D01*
X73813989Y-138922257D01*
X73755000Y-139218816D01*
X73755000Y-139521184D01*
X73813989Y-139817743D01*
X73929701Y-140097095D01*
X74097688Y-140348505D01*
X74311495Y-140562312D01*
X74562905Y-140730299D01*
X74842257Y-140846011D01*
X75138816Y-140905000D01*
X75441184Y-140905000D01*
X75737743Y-140846011D01*
X76017095Y-140730299D01*
X76268505Y-140562312D01*
X76482312Y-140348505D01*
X76650299Y-140097095D01*
X76766011Y-139817743D01*
X76825000Y-139521184D01*
X76825000Y-139218816D01*
X76766011Y-138922257D01*
X76650299Y-138642905D01*
X76482312Y-138391495D01*
X76268505Y-138177688D01*
X76152237Y-138100000D01*
X76268505Y-138022312D01*
X76482312Y-137808505D01*
X76650299Y-137557095D01*
X76766011Y-137277743D01*
X76825000Y-136981184D01*
X76825000Y-136678816D01*
X76766011Y-136382257D01*
X76650299Y-136102905D01*
X76482312Y-135851495D01*
X76268505Y-135637688D01*
X76152237Y-135560000D01*
X76268505Y-135482312D01*
X76482312Y-135268505D01*
X76650299Y-135017095D01*
X76766011Y-134737743D01*
X76825000Y-134441184D01*
X76825000Y-134138816D01*
X76766011Y-133842257D01*
X76650299Y-133562905D01*
X76482312Y-133311495D01*
X76268505Y-133097688D01*
X76152237Y-133020000D01*
X76268505Y-132942312D01*
X76482312Y-132728505D01*
X76650299Y-132477095D01*
X76766011Y-132197743D01*
X76825000Y-131901184D01*
X76825000Y-131598816D01*
X76766011Y-131302257D01*
X76650299Y-131022905D01*
X76482312Y-130771495D01*
X76268505Y-130557688D01*
X76152237Y-130480000D01*
X76268505Y-130402312D01*
X76482312Y-130188505D01*
X76650299Y-129937095D01*
X76766011Y-129657743D01*
X76825000Y-129361184D01*
X76825000Y-129058816D01*
X76766011Y-128762257D01*
X76650299Y-128482905D01*
X76482312Y-128231495D01*
X76268505Y-128017688D01*
X76152237Y-127940000D01*
X76268505Y-127862312D01*
X76482312Y-127648505D01*
X76650299Y-127397095D01*
X76766011Y-127117743D01*
X76825000Y-126821184D01*
X76825000Y-126518816D01*
X76766011Y-126222257D01*
X76650299Y-125942905D01*
X76482312Y-125691495D01*
X76268505Y-125477688D01*
X76152237Y-125400000D01*
X76268505Y-125322312D01*
X76482312Y-125108505D01*
X76650299Y-124857095D01*
X76766011Y-124577743D01*
X76825000Y-124281184D01*
X76825000Y-123978816D01*
X76766011Y-123682257D01*
X76650299Y-123402905D01*
X76482312Y-123151495D01*
X76268505Y-122937688D01*
X76152237Y-122860000D01*
X76268505Y-122782312D01*
X76482312Y-122568505D01*
X76650299Y-122317095D01*
X76766011Y-122037743D01*
X76825000Y-121741184D01*
X76825000Y-121438816D01*
X76766011Y-121142257D01*
X76650299Y-120862905D01*
X76482312Y-120611495D01*
X76268505Y-120397688D01*
X76152237Y-120320000D01*
X76268505Y-120242312D01*
X76482312Y-120028505D01*
X76650299Y-119777095D01*
X76766011Y-119497743D01*
X76825000Y-119201184D01*
X76825000Y-118898816D01*
X76766011Y-118602257D01*
X76650299Y-118322905D01*
X76482312Y-118071495D01*
X76268505Y-117857688D01*
X76152237Y-117780000D01*
X76268505Y-117702312D01*
X76482312Y-117488505D01*
X76650299Y-117237095D01*
X76766011Y-116957743D01*
X76825000Y-116661184D01*
X76825000Y-116358816D01*
X76766011Y-116062257D01*
X76650299Y-115782905D01*
X76482312Y-115531495D01*
X76268505Y-115317688D01*
X76152237Y-115240000D01*
X76268505Y-115162312D01*
X76482312Y-114948505D01*
X76650299Y-114697095D01*
X76766011Y-114417743D01*
X76825000Y-114121184D01*
X76825000Y-113818816D01*
X76766011Y-113522257D01*
X76650299Y-113242905D01*
X76482312Y-112991495D01*
X76268505Y-112777688D01*
X76152237Y-112700000D01*
X76268505Y-112622312D01*
X76482312Y-112408505D01*
X76650299Y-112157095D01*
X76766011Y-111877743D01*
X76825000Y-111581184D01*
X76825000Y-111278816D01*
X76766011Y-110982257D01*
X76650299Y-110702905D01*
X76482312Y-110451495D01*
X76268505Y-110237688D01*
X76152237Y-110160000D01*
X76268505Y-110082312D01*
X76482312Y-109868505D01*
X76650299Y-109617095D01*
X76766011Y-109337743D01*
X76825000Y-109041184D01*
X76825000Y-108738816D01*
X76766011Y-108442257D01*
X76650299Y-108162905D01*
X76482312Y-107911495D01*
X76268505Y-107697688D01*
X76152237Y-107620000D01*
X76268505Y-107542312D01*
X76482312Y-107328505D01*
X76650299Y-107077095D01*
X76766011Y-106797743D01*
X76825000Y-106501184D01*
X76825000Y-106198816D01*
X78835000Y-106198816D01*
X78835000Y-106501184D01*
X78893989Y-106797743D01*
X79009701Y-107077095D01*
X79177688Y-107328505D01*
X79391495Y-107542312D01*
X79507763Y-107620000D01*
X79391495Y-107697688D01*
X79177688Y-107911495D01*
X79009701Y-108162905D01*
X78893989Y-108442257D01*
X78835000Y-108738816D01*
X78835000Y-109041184D01*
X78893989Y-109337743D01*
X79009701Y-109617095D01*
X79177688Y-109868505D01*
X79391495Y-110082312D01*
X79507763Y-110160000D01*
X79391495Y-110237688D01*
X79177688Y-110451495D01*
X79009701Y-110702905D01*
X78893989Y-110982257D01*
X78835000Y-111278816D01*
X78835000Y-111581184D01*
X78893989Y-111877743D01*
X79009701Y-112157095D01*
X79177688Y-112408505D01*
X79391495Y-112622312D01*
X79507763Y-112700000D01*
X79391495Y-112777688D01*
X79177688Y-112991495D01*
X79009701Y-113242905D01*
X78893989Y-113522257D01*
X78835000Y-113818816D01*
X78835000Y-114121184D01*
X78893989Y-114417743D01*
X79009701Y-114697095D01*
X79177688Y-114948505D01*
X79391495Y-115162312D01*
X79507763Y-115240000D01*
X79391495Y-115317688D01*
X79177688Y-115531495D01*
X79009701Y-115782905D01*
X78893989Y-116062257D01*
X78835000Y-116358816D01*
X78835000Y-116661184D01*
X78893989Y-116957743D01*
X79009701Y-117237095D01*
X79177688Y-117488505D01*
X79391495Y-117702312D01*
X79507763Y-117780000D01*
X79391495Y-117857688D01*
X79177688Y-118071495D01*
X79009701Y-118322905D01*
X78893989Y-118602257D01*
X78835000Y-118898816D01*
X78835000Y-119201184D01*
X78893989Y-119497743D01*
X79009701Y-119777095D01*
X79177688Y-120028505D01*
X79391495Y-120242312D01*
X79507763Y-120320000D01*
X79391495Y-120397688D01*
X79177688Y-120611495D01*
X79009701Y-120862905D01*
X78893989Y-121142257D01*
X78835000Y-121438816D01*
X78835000Y-121741184D01*
X78893989Y-122037743D01*
X79009701Y-122317095D01*
X79177688Y-122568505D01*
X79391495Y-122782312D01*
X79507763Y-122860000D01*
X79391495Y-122937688D01*
X79177688Y-123151495D01*
X79009701Y-123402905D01*
X78893989Y-123682257D01*
X78835000Y-123978816D01*
X78835000Y-124281184D01*
X78893989Y-124577743D01*
X79009701Y-124857095D01*
X79177688Y-125108505D01*
X79391495Y-125322312D01*
X79507763Y-125400000D01*
X79391495Y-125477688D01*
X79177688Y-125691495D01*
X79009701Y-125942905D01*
X78893989Y-126222257D01*
X78835000Y-126518816D01*
X78835000Y-126821184D01*
X78893989Y-127117743D01*
X79009701Y-127397095D01*
X79177688Y-127648505D01*
X79391495Y-127862312D01*
X79507763Y-127940000D01*
X79391495Y-128017688D01*
X79177688Y-128231495D01*
X79009701Y-128482905D01*
X78893989Y-128762257D01*
X78835000Y-129058816D01*
X78835000Y-129361184D01*
X78893989Y-129657743D01*
X79009701Y-129937095D01*
X79177688Y-130188505D01*
X79391495Y-130402312D01*
X79507763Y-130480000D01*
X79391495Y-130557688D01*
X79177688Y-130771495D01*
X79009701Y-131022905D01*
X78893989Y-131302257D01*
X78835000Y-131598816D01*
X78835000Y-131901184D01*
X78893989Y-132197743D01*
X79009701Y-132477095D01*
X79177688Y-132728505D01*
X79391495Y-132942312D01*
X79507763Y-133020000D01*
X79391495Y-133097688D01*
X79177688Y-133311495D01*
X79009701Y-133562905D01*
X78893989Y-133842257D01*
X78835000Y-134138816D01*
X78835000Y-134441184D01*
X78893989Y-134737743D01*
X79009701Y-135017095D01*
X79177688Y-135268505D01*
X79391495Y-135482312D01*
X79507763Y-135560000D01*
X79391495Y-135637688D01*
X79177688Y-135851495D01*
X79009701Y-136102905D01*
X78893989Y-136382257D01*
X78835000Y-136678816D01*
X78835000Y-136981184D01*
X78893989Y-137277743D01*
X79009701Y-137557095D01*
X79177688Y-137808505D01*
X79391495Y-138022312D01*
X79507763Y-138100000D01*
X79391495Y-138177688D01*
X79177688Y-138391495D01*
X79009701Y-138642905D01*
X78893989Y-138922257D01*
X78835000Y-139218816D01*
X78835000Y-139521184D01*
X78893989Y-139817743D01*
X79009701Y-140097095D01*
X79177688Y-140348505D01*
X79391495Y-140562312D01*
X79642905Y-140730299D01*
X79922257Y-140846011D01*
X80218816Y-140905000D01*
X80521184Y-140905000D01*
X80817743Y-140846011D01*
X81097095Y-140730299D01*
X81348505Y-140562312D01*
X81562312Y-140348505D01*
X81730299Y-140097095D01*
X81811938Y-139900000D01*
X91361928Y-139900000D01*
X91361928Y-141500000D01*
X91374188Y-141624482D01*
X91410498Y-141744180D01*
X91469463Y-141854494D01*
X91548815Y-141951185D01*
X91645506Y-142030537D01*
X91755820Y-142089502D01*
X91875518Y-142125812D01*
X92000000Y-142138072D01*
X93600000Y-142138072D01*
X93724482Y-142125812D01*
X93844180Y-142089502D01*
X93954494Y-142030537D01*
X94051185Y-141951185D01*
X94130537Y-141854494D01*
X94189502Y-141744180D01*
X94225812Y-141624482D01*
X94238072Y-141500000D01*
X94238072Y-140000000D01*
X106661928Y-140000000D01*
X106661928Y-141600000D01*
X106674188Y-141724482D01*
X106710498Y-141844180D01*
X106769463Y-141954494D01*
X106848815Y-142051185D01*
X106945506Y-142130537D01*
X107055820Y-142189502D01*
X107175518Y-142225812D01*
X107300000Y-142238072D01*
X108900000Y-142238072D01*
X109024482Y-142225812D01*
X109144180Y-142189502D01*
X109254494Y-142130537D01*
X109351185Y-142051185D01*
X109430537Y-141954494D01*
X109489502Y-141844180D01*
X109525812Y-141724482D01*
X109538072Y-141600000D01*
X109538072Y-140578003D01*
X218197573Y-140578003D01*
X218277947Y-140875368D01*
X218476388Y-141299439D01*
X218753748Y-141676648D01*
X219099369Y-141992498D01*
X219499968Y-142234852D01*
X219940150Y-142394396D01*
X220403000Y-142465000D01*
X222153000Y-142465000D01*
X222153000Y-140207000D01*
X222407000Y-140207000D01*
X222407000Y-142465000D01*
X224157000Y-142465000D01*
X224619850Y-142394396D01*
X225060032Y-142234852D01*
X225460631Y-141992498D01*
X225806252Y-141676648D01*
X226083612Y-141299439D01*
X226282053Y-140875368D01*
X226362427Y-140578003D01*
X226252625Y-140207000D01*
X222407000Y-140207000D01*
X222153000Y-140207000D01*
X218307375Y-140207000D01*
X218197573Y-140578003D01*
X109538072Y-140578003D01*
X109538072Y-140000000D01*
X109525812Y-139875518D01*
X109489502Y-139755820D01*
X109430537Y-139645506D01*
X109378417Y-139581997D01*
X218197573Y-139581997D01*
X218307375Y-139953000D01*
X222153000Y-139953000D01*
X222153000Y-137695000D01*
X222407000Y-137695000D01*
X222407000Y-139953000D01*
X226252625Y-139953000D01*
X226362427Y-139581997D01*
X226282053Y-139284632D01*
X226083612Y-138860561D01*
X225806252Y-138483352D01*
X225460631Y-138167502D01*
X225060032Y-137925148D01*
X224619850Y-137765604D01*
X224157000Y-137695000D01*
X222407000Y-137695000D01*
X222153000Y-137695000D01*
X220403000Y-137695000D01*
X219940150Y-137765604D01*
X219499968Y-137925148D01*
X219099369Y-138167502D01*
X218753748Y-138483352D01*
X218476388Y-138860561D01*
X218277947Y-139284632D01*
X218197573Y-139581997D01*
X109378417Y-139581997D01*
X109351185Y-139548815D01*
X109254494Y-139469463D01*
X109144180Y-139410498D01*
X109024482Y-139374188D01*
X108900000Y-139361928D01*
X108892785Y-139361928D01*
X108913097Y-139292702D01*
X108100000Y-138479605D01*
X107286903Y-139292702D01*
X107307215Y-139361928D01*
X107300000Y-139361928D01*
X107175518Y-139374188D01*
X107055820Y-139410498D01*
X106945506Y-139469463D01*
X106848815Y-139548815D01*
X106769463Y-139645506D01*
X106710498Y-139755820D01*
X106674188Y-139875518D01*
X106661928Y-140000000D01*
X94238072Y-140000000D01*
X94238072Y-139900000D01*
X94225812Y-139775518D01*
X94189502Y-139655820D01*
X94130537Y-139545506D01*
X94051185Y-139448815D01*
X93954494Y-139369463D01*
X93844180Y-139310498D01*
X93724482Y-139274188D01*
X93600000Y-139261928D01*
X93592785Y-139261928D01*
X93613097Y-139192702D01*
X92800000Y-138379605D01*
X91986903Y-139192702D01*
X92007215Y-139261928D01*
X92000000Y-139261928D01*
X91875518Y-139274188D01*
X91755820Y-139310498D01*
X91645506Y-139369463D01*
X91548815Y-139448815D01*
X91469463Y-139545506D01*
X91410498Y-139655820D01*
X91374188Y-139775518D01*
X91361928Y-139900000D01*
X81811938Y-139900000D01*
X81846011Y-139817743D01*
X81905000Y-139521184D01*
X81905000Y-139218816D01*
X81846011Y-138922257D01*
X81730299Y-138642905D01*
X81562312Y-138391495D01*
X81441329Y-138270512D01*
X91359783Y-138270512D01*
X91401213Y-138550130D01*
X91496397Y-138816292D01*
X91563329Y-138941514D01*
X91807298Y-139013097D01*
X92620395Y-138200000D01*
X92979605Y-138200000D01*
X93792702Y-139013097D01*
X94036671Y-138941514D01*
X94157571Y-138686004D01*
X94226300Y-138411816D01*
X94228336Y-138370512D01*
X106659783Y-138370512D01*
X106701213Y-138650130D01*
X106796397Y-138916292D01*
X106863329Y-139041514D01*
X107107298Y-139113097D01*
X107920395Y-138300000D01*
X108279605Y-138300000D01*
X109092702Y-139113097D01*
X109336671Y-139041514D01*
X109457571Y-138786004D01*
X109526300Y-138511816D01*
X109540217Y-138229488D01*
X109498787Y-137949870D01*
X109403603Y-137683708D01*
X109336671Y-137558486D01*
X109092702Y-137486903D01*
X108279605Y-138300000D01*
X107920395Y-138300000D01*
X107107298Y-137486903D01*
X106863329Y-137558486D01*
X106742429Y-137813996D01*
X106673700Y-138088184D01*
X106659783Y-138370512D01*
X94228336Y-138370512D01*
X94240217Y-138129488D01*
X94198787Y-137849870D01*
X94103603Y-137583708D01*
X94036671Y-137458486D01*
X93792702Y-137386903D01*
X92979605Y-138200000D01*
X92620395Y-138200000D01*
X91807298Y-137386903D01*
X91563329Y-137458486D01*
X91442429Y-137713996D01*
X91373700Y-137988184D01*
X91359783Y-138270512D01*
X81441329Y-138270512D01*
X81348505Y-138177688D01*
X81232237Y-138100000D01*
X81348505Y-138022312D01*
X81562312Y-137808505D01*
X81730299Y-137557095D01*
X81846011Y-137277743D01*
X81860023Y-137207298D01*
X91986903Y-137207298D01*
X92800000Y-138020395D01*
X93513097Y-137307298D01*
X107286903Y-137307298D01*
X108100000Y-138120395D01*
X108913097Y-137307298D01*
X108841514Y-137063329D01*
X108586004Y-136942429D01*
X108311816Y-136873700D01*
X108029488Y-136859783D01*
X107749870Y-136901213D01*
X107483708Y-136996397D01*
X107358486Y-137063329D01*
X107286903Y-137307298D01*
X93513097Y-137307298D01*
X93613097Y-137207298D01*
X93541514Y-136963329D01*
X93286004Y-136842429D01*
X93011816Y-136773700D01*
X92729488Y-136759783D01*
X92449870Y-136801213D01*
X92183708Y-136896397D01*
X92058486Y-136963329D01*
X91986903Y-137207298D01*
X81860023Y-137207298D01*
X81905000Y-136981184D01*
X81905000Y-136678816D01*
X81846011Y-136382257D01*
X81730299Y-136102905D01*
X81562312Y-135851495D01*
X81348505Y-135637688D01*
X81232237Y-135560000D01*
X81348505Y-135482312D01*
X81562312Y-135268505D01*
X81730299Y-135017095D01*
X81737380Y-135000000D01*
X215308057Y-135000000D01*
X215335764Y-135281309D01*
X215417818Y-135551808D01*
X215551068Y-135801101D01*
X215730392Y-136019608D01*
X215948899Y-136198932D01*
X216198192Y-136332182D01*
X216468691Y-136414236D01*
X216679508Y-136435000D01*
X217720492Y-136435000D01*
X217931309Y-136414236D01*
X218201808Y-136332182D01*
X218451101Y-136198932D01*
X218669608Y-136019608D01*
X218848932Y-135801101D01*
X218982182Y-135551808D01*
X219064236Y-135281309D01*
X219091943Y-135000000D01*
X219064236Y-134718691D01*
X218982182Y-134448192D01*
X218848932Y-134198899D01*
X218669608Y-133980392D01*
X218451101Y-133801068D01*
X218323259Y-133732735D01*
X218552839Y-133582601D01*
X218754500Y-133384895D01*
X218913715Y-133151646D01*
X219024367Y-132891818D01*
X219041904Y-132809039D01*
X218919915Y-132587000D01*
X217327000Y-132587000D01*
X217327000Y-132607000D01*
X217073000Y-132607000D01*
X217073000Y-132587000D01*
X215480085Y-132587000D01*
X215358096Y-132809039D01*
X215375633Y-132891818D01*
X215486285Y-133151646D01*
X215645500Y-133384895D01*
X215847161Y-133582601D01*
X216076741Y-133732735D01*
X215948899Y-133801068D01*
X215730392Y-133980392D01*
X215551068Y-134198899D01*
X215417818Y-134448192D01*
X215335764Y-134718691D01*
X215308057Y-135000000D01*
X81737380Y-135000000D01*
X81846011Y-134737743D01*
X81905000Y-134441184D01*
X81905000Y-134138816D01*
X81846011Y-133842257D01*
X81730299Y-133562905D01*
X81562312Y-133311495D01*
X81348505Y-133097688D01*
X81232237Y-133020000D01*
X81348505Y-132942312D01*
X81562312Y-132728505D01*
X81730299Y-132477095D01*
X81846011Y-132197743D01*
X81863272Y-132110961D01*
X215358096Y-132110961D01*
X215480085Y-132333000D01*
X217073000Y-132333000D01*
X217073000Y-131025000D01*
X217327000Y-131025000D01*
X217327000Y-132333000D01*
X218919915Y-132333000D01*
X219041904Y-132110961D01*
X219024367Y-132028182D01*
X218913715Y-131768354D01*
X218754500Y-131535105D01*
X218552839Y-131337399D01*
X218316483Y-131182834D01*
X218054514Y-131077350D01*
X217777000Y-131025000D01*
X217327000Y-131025000D01*
X217073000Y-131025000D01*
X216623000Y-131025000D01*
X216345486Y-131077350D01*
X216083517Y-131182834D01*
X215847161Y-131337399D01*
X215645500Y-131535105D01*
X215486285Y-131768354D01*
X215375633Y-132028182D01*
X215358096Y-132110961D01*
X81863272Y-132110961D01*
X81905000Y-131901184D01*
X81905000Y-131598816D01*
X81846011Y-131302257D01*
X81730299Y-131022905D01*
X81562312Y-130771495D01*
X81348505Y-130557688D01*
X81232237Y-130480000D01*
X81325021Y-130418003D01*
X218197573Y-130418003D01*
X218277947Y-130715368D01*
X218476388Y-131139439D01*
X218753748Y-131516648D01*
X219099369Y-131832498D01*
X219499968Y-132074852D01*
X219940150Y-132234396D01*
X220403000Y-132305000D01*
X222153000Y-132305000D01*
X222153000Y-130047000D01*
X222407000Y-130047000D01*
X222407000Y-132305000D01*
X224157000Y-132305000D01*
X224619850Y-132234396D01*
X225060032Y-132074852D01*
X225460631Y-131832498D01*
X225806252Y-131516648D01*
X226083612Y-131139439D01*
X226282053Y-130715368D01*
X226362427Y-130418003D01*
X226252625Y-130047000D01*
X222407000Y-130047000D01*
X222153000Y-130047000D01*
X218307375Y-130047000D01*
X218197573Y-130418003D01*
X81325021Y-130418003D01*
X81348505Y-130402312D01*
X81562312Y-130188505D01*
X81730299Y-129937095D01*
X81846011Y-129657743D01*
X81892903Y-129421997D01*
X218197573Y-129421997D01*
X218307375Y-129793000D01*
X222153000Y-129793000D01*
X222153000Y-127535000D01*
X222407000Y-127535000D01*
X222407000Y-129793000D01*
X226252625Y-129793000D01*
X226362427Y-129421997D01*
X226282053Y-129124632D01*
X226083612Y-128700561D01*
X225806252Y-128323352D01*
X225460631Y-128007502D01*
X225060032Y-127765148D01*
X224619850Y-127605604D01*
X224157000Y-127535000D01*
X222407000Y-127535000D01*
X222153000Y-127535000D01*
X220403000Y-127535000D01*
X219940150Y-127605604D01*
X219499968Y-127765148D01*
X219099369Y-128007502D01*
X218753748Y-128323352D01*
X218476388Y-128700561D01*
X218277947Y-129124632D01*
X218197573Y-129421997D01*
X81892903Y-129421997D01*
X81905000Y-129361184D01*
X81905000Y-129058816D01*
X81846011Y-128762257D01*
X81730299Y-128482905D01*
X81562312Y-128231495D01*
X81348505Y-128017688D01*
X81232237Y-127940000D01*
X81348505Y-127862312D01*
X81562312Y-127648505D01*
X81730299Y-127397095D01*
X81846011Y-127117743D01*
X81905000Y-126821184D01*
X81905000Y-126518816D01*
X81846011Y-126222257D01*
X81730299Y-125942905D01*
X81562312Y-125691495D01*
X81348505Y-125477688D01*
X81232237Y-125400000D01*
X81348505Y-125322312D01*
X81562312Y-125108505D01*
X81730299Y-124857095D01*
X81846011Y-124577743D01*
X81905000Y-124281184D01*
X81905000Y-123978816D01*
X81846011Y-123682257D01*
X81730299Y-123402905D01*
X81562312Y-123151495D01*
X81348505Y-122937688D01*
X81232237Y-122860000D01*
X81348505Y-122782312D01*
X81562312Y-122568505D01*
X81730299Y-122317095D01*
X81846011Y-122037743D01*
X81905000Y-121741184D01*
X81905000Y-121438816D01*
X81846011Y-121142257D01*
X81730299Y-120862905D01*
X81562312Y-120611495D01*
X81348505Y-120397688D01*
X81232237Y-120320000D01*
X81348505Y-120242312D01*
X81562312Y-120028505D01*
X81730299Y-119777095D01*
X81846011Y-119497743D01*
X81905000Y-119201184D01*
X81905000Y-118898816D01*
X81846011Y-118602257D01*
X81730299Y-118322905D01*
X81562312Y-118071495D01*
X81348505Y-117857688D01*
X81232237Y-117780000D01*
X81348505Y-117702312D01*
X81562312Y-117488505D01*
X81730299Y-117237095D01*
X81846011Y-116957743D01*
X81905000Y-116661184D01*
X81905000Y-116358816D01*
X81846011Y-116062257D01*
X81730299Y-115782905D01*
X81562312Y-115531495D01*
X81508820Y-115478003D01*
X218097573Y-115478003D01*
X218177947Y-115775368D01*
X218376388Y-116199439D01*
X218653748Y-116576648D01*
X218999369Y-116892498D01*
X219399968Y-117134852D01*
X219840150Y-117294396D01*
X220303000Y-117365000D01*
X222053000Y-117365000D01*
X222053000Y-115107000D01*
X222307000Y-115107000D01*
X222307000Y-117365000D01*
X224057000Y-117365000D01*
X224519850Y-117294396D01*
X224960032Y-117134852D01*
X225360631Y-116892498D01*
X225706252Y-116576648D01*
X225983612Y-116199439D01*
X226182053Y-115775368D01*
X226262427Y-115478003D01*
X226152625Y-115107000D01*
X222307000Y-115107000D01*
X222053000Y-115107000D01*
X218207375Y-115107000D01*
X218097573Y-115478003D01*
X81508820Y-115478003D01*
X81348505Y-115317688D01*
X81232237Y-115240000D01*
X81348505Y-115162312D01*
X81562312Y-114948505D01*
X81730299Y-114697095D01*
X81819395Y-114481997D01*
X218097573Y-114481997D01*
X218207375Y-114853000D01*
X222053000Y-114853000D01*
X222053000Y-112595000D01*
X222307000Y-112595000D01*
X222307000Y-114853000D01*
X226152625Y-114853000D01*
X226262427Y-114481997D01*
X226182053Y-114184632D01*
X225983612Y-113760561D01*
X225706252Y-113383352D01*
X225360631Y-113067502D01*
X224960032Y-112825148D01*
X224519850Y-112665604D01*
X224057000Y-112595000D01*
X222307000Y-112595000D01*
X222053000Y-112595000D01*
X220303000Y-112595000D01*
X219840150Y-112665604D01*
X219399968Y-112825148D01*
X218999369Y-113067502D01*
X218653748Y-113383352D01*
X218376388Y-113760561D01*
X218177947Y-114184632D01*
X218097573Y-114481997D01*
X81819395Y-114481997D01*
X81846011Y-114417743D01*
X81905000Y-114121184D01*
X81905000Y-113818816D01*
X81846011Y-113522257D01*
X81730299Y-113242905D01*
X81562312Y-112991495D01*
X81378728Y-112807911D01*
X180365000Y-112807911D01*
X180365000Y-112992089D01*
X180400932Y-113172729D01*
X180471414Y-113342889D01*
X180573738Y-113496028D01*
X180703972Y-113626262D01*
X180857111Y-113728586D01*
X181027271Y-113799068D01*
X181207911Y-113835000D01*
X181392089Y-113835000D01*
X181572729Y-113799068D01*
X181606692Y-113785000D01*
X192593308Y-113785000D01*
X192627271Y-113799068D01*
X192807911Y-113835000D01*
X192992089Y-113835000D01*
X193172729Y-113799068D01*
X193342889Y-113728586D01*
X193496028Y-113626262D01*
X193626262Y-113496028D01*
X193728586Y-113342889D01*
X193799068Y-113172729D01*
X193835000Y-112992089D01*
X193835000Y-112807911D01*
X193799068Y-112627271D01*
X193728586Y-112457111D01*
X193626262Y-112303972D01*
X193496028Y-112173738D01*
X193342889Y-112071414D01*
X193172729Y-112000932D01*
X192992089Y-111965000D01*
X192807911Y-111965000D01*
X192627271Y-112000932D01*
X192593308Y-112015000D01*
X191014396Y-112015000D01*
X191114637Y-111914759D01*
X191271680Y-111679727D01*
X191379853Y-111418574D01*
X191435000Y-111141335D01*
X191435000Y-110858665D01*
X191379853Y-110581426D01*
X191271680Y-110320273D01*
X191114637Y-110085241D01*
X190929396Y-109900000D01*
X215208057Y-109900000D01*
X215235764Y-110181309D01*
X215317818Y-110451808D01*
X215451068Y-110701101D01*
X215630392Y-110919608D01*
X215848899Y-111098932D01*
X216098192Y-111232182D01*
X216368691Y-111314236D01*
X216579508Y-111335000D01*
X217620492Y-111335000D01*
X217831309Y-111314236D01*
X218101808Y-111232182D01*
X218351101Y-111098932D01*
X218569608Y-110919608D01*
X218748932Y-110701101D01*
X218882182Y-110451808D01*
X218964236Y-110181309D01*
X218991943Y-109900000D01*
X218964236Y-109618691D01*
X218882182Y-109348192D01*
X218748932Y-109098899D01*
X218569608Y-108880392D01*
X218351101Y-108701068D01*
X218223259Y-108632735D01*
X218452839Y-108482601D01*
X218654500Y-108284895D01*
X218813715Y-108051646D01*
X218924367Y-107791818D01*
X218941904Y-107709039D01*
X218819915Y-107487000D01*
X217227000Y-107487000D01*
X217227000Y-107507000D01*
X216973000Y-107507000D01*
X216973000Y-107487000D01*
X215380085Y-107487000D01*
X215258096Y-107709039D01*
X215275633Y-107791818D01*
X215386285Y-108051646D01*
X215545500Y-108284895D01*
X215747161Y-108482601D01*
X215976741Y-108632735D01*
X215848899Y-108701068D01*
X215630392Y-108880392D01*
X215451068Y-109098899D01*
X215317818Y-109348192D01*
X215235764Y-109618691D01*
X215208057Y-109900000D01*
X190929396Y-109900000D01*
X190914759Y-109885363D01*
X190679727Y-109728320D01*
X190418574Y-109620147D01*
X190141335Y-109565000D01*
X189858665Y-109565000D01*
X189581426Y-109620147D01*
X189320273Y-109728320D01*
X189085241Y-109885363D01*
X188885363Y-110085241D01*
X188728320Y-110320273D01*
X188620147Y-110581426D01*
X188565000Y-110858665D01*
X188565000Y-111141335D01*
X188620147Y-111418574D01*
X188728320Y-111679727D01*
X188885363Y-111914759D01*
X188985604Y-112015000D01*
X181606692Y-112015000D01*
X181572729Y-112000932D01*
X181392089Y-111965000D01*
X181207911Y-111965000D01*
X181027271Y-112000932D01*
X180857111Y-112071414D01*
X180703972Y-112173738D01*
X180573738Y-112303972D01*
X180471414Y-112457111D01*
X180400932Y-112627271D01*
X180365000Y-112807911D01*
X81378728Y-112807911D01*
X81348505Y-112777688D01*
X81232237Y-112700000D01*
X81348505Y-112622312D01*
X81562312Y-112408505D01*
X81730299Y-112157095D01*
X81846011Y-111877743D01*
X81905000Y-111581184D01*
X81905000Y-111278816D01*
X81846011Y-110982257D01*
X81730299Y-110702905D01*
X81562312Y-110451495D01*
X81348505Y-110237688D01*
X81232237Y-110160000D01*
X81348505Y-110082312D01*
X81562312Y-109868505D01*
X81730299Y-109617095D01*
X81846011Y-109337743D01*
X81905000Y-109041184D01*
X81905000Y-108738816D01*
X81846011Y-108442257D01*
X81730299Y-108162905D01*
X81562312Y-107911495D01*
X81348505Y-107697688D01*
X81232237Y-107620000D01*
X81348505Y-107542312D01*
X81562312Y-107328505D01*
X81730299Y-107077095D01*
X81846011Y-106797743D01*
X81905000Y-106501184D01*
X81905000Y-106198816D01*
X81846011Y-105902257D01*
X81730299Y-105622905D01*
X81562312Y-105371495D01*
X81348505Y-105157688D01*
X81194895Y-105055049D01*
X81254475Y-104874080D01*
X80370000Y-103989605D01*
X79485525Y-104874080D01*
X79545105Y-105055049D01*
X79391495Y-105157688D01*
X79177688Y-105371495D01*
X79009701Y-105622905D01*
X78893989Y-105902257D01*
X78835000Y-106198816D01*
X76825000Y-106198816D01*
X76766011Y-105902257D01*
X76650299Y-105622905D01*
X76482312Y-105371495D01*
X76268505Y-105157688D01*
X76114895Y-105055049D01*
X76174475Y-104874080D01*
X75290000Y-103989605D01*
X74405525Y-104874080D01*
X74465105Y-105055049D01*
X74311495Y-105157688D01*
X74097688Y-105371495D01*
X73929701Y-105622905D01*
X73813989Y-105902257D01*
X73755000Y-106198816D01*
X70710000Y-106198816D01*
X70710000Y-103876553D01*
X73749009Y-103876553D01*
X73791603Y-104175907D01*
X73891778Y-104461199D01*
X73971739Y-104610792D01*
X74225920Y-104694475D01*
X75110395Y-103810000D01*
X75469605Y-103810000D01*
X76354080Y-104694475D01*
X76608261Y-104610792D01*
X76739158Y-104338225D01*
X76814365Y-104045358D01*
X76823660Y-103876553D01*
X78829009Y-103876553D01*
X78871603Y-104175907D01*
X78971778Y-104461199D01*
X79051739Y-104610792D01*
X79305920Y-104694475D01*
X80190395Y-103810000D01*
X80549605Y-103810000D01*
X81434080Y-104694475D01*
X81688261Y-104610792D01*
X81819158Y-104338225D01*
X81894365Y-104045358D01*
X81910991Y-103743447D01*
X81868397Y-103444093D01*
X81768222Y-103158801D01*
X81688261Y-103009208D01*
X81434080Y-102925525D01*
X80549605Y-103810000D01*
X80190395Y-103810000D01*
X79305920Y-102925525D01*
X79051739Y-103009208D01*
X78920842Y-103281775D01*
X78845635Y-103574642D01*
X78829009Y-103876553D01*
X76823660Y-103876553D01*
X76830991Y-103743447D01*
X76788397Y-103444093D01*
X76688222Y-103158801D01*
X76608261Y-103009208D01*
X76354080Y-102925525D01*
X75469605Y-103810000D01*
X75110395Y-103810000D01*
X74225920Y-102925525D01*
X73971739Y-103009208D01*
X73840842Y-103281775D01*
X73765635Y-103574642D01*
X73749009Y-103876553D01*
X70710000Y-103876553D01*
X70710000Y-102334080D01*
X74405525Y-102334080D01*
X74473319Y-102540000D01*
X74405525Y-102745920D01*
X75290000Y-103630395D01*
X76174475Y-102745920D01*
X76106681Y-102540000D01*
X76174475Y-102334080D01*
X79485525Y-102334080D01*
X79553319Y-102540000D01*
X79485525Y-102745920D01*
X80370000Y-103630395D01*
X81254475Y-102745920D01*
X81186681Y-102540000D01*
X81254475Y-102334080D01*
X81220395Y-102300000D01*
X88759509Y-102300000D01*
X88781423Y-102522498D01*
X88846324Y-102736446D01*
X88951717Y-102933622D01*
X89093552Y-103106448D01*
X89266378Y-103248283D01*
X89463554Y-103353676D01*
X89677502Y-103418577D01*
X89900000Y-103440491D01*
X90122498Y-103418577D01*
X90209915Y-103392059D01*
X90050987Y-103550987D01*
X89972017Y-103647213D01*
X89913336Y-103756996D01*
X89877201Y-103876118D01*
X89865000Y-104000000D01*
X89865000Y-111000000D01*
X89877201Y-111123882D01*
X89913336Y-111243004D01*
X89972017Y-111352787D01*
X90050987Y-111449013D01*
X90550987Y-111949013D01*
X90647213Y-112027983D01*
X90756996Y-112086664D01*
X90876118Y-112122799D01*
X91000000Y-112135000D01*
X107600000Y-112135000D01*
X107723882Y-112122799D01*
X107843004Y-112086664D01*
X107952787Y-112027983D01*
X108049013Y-111949013D01*
X108549013Y-111449013D01*
X108627983Y-111352787D01*
X108686664Y-111243004D01*
X108722799Y-111123882D01*
X108735000Y-111000000D01*
X108735000Y-104007911D01*
X175265000Y-104007911D01*
X175265000Y-104192089D01*
X175300932Y-104372729D01*
X175371414Y-104542889D01*
X175473738Y-104696028D01*
X175603972Y-104826262D01*
X175757111Y-104928586D01*
X175927271Y-104999068D01*
X176107911Y-105035000D01*
X176292089Y-105035000D01*
X176472729Y-104999068D01*
X176506692Y-104985000D01*
X188985604Y-104985000D01*
X188885363Y-105085241D01*
X188728320Y-105320273D01*
X188620147Y-105581426D01*
X188565000Y-105858665D01*
X188565000Y-106141335D01*
X188620147Y-106418574D01*
X188728320Y-106679727D01*
X188885363Y-106914759D01*
X189085241Y-107114637D01*
X189320273Y-107271680D01*
X189581426Y-107379853D01*
X189858665Y-107435000D01*
X190141335Y-107435000D01*
X190418574Y-107379853D01*
X190679727Y-107271680D01*
X190914759Y-107114637D01*
X191114637Y-106914759D01*
X191271680Y-106679727D01*
X191379853Y-106418574D01*
X191435000Y-106141335D01*
X191435000Y-105858665D01*
X191379853Y-105581426D01*
X191271680Y-105320273D01*
X191114637Y-105085241D01*
X191014396Y-104985000D01*
X200160088Y-104985000D01*
X200120147Y-105081426D01*
X200065000Y-105358665D01*
X200065000Y-105641335D01*
X200120147Y-105918574D01*
X200228320Y-106179727D01*
X200385363Y-106414759D01*
X200585241Y-106614637D01*
X200820273Y-106771680D01*
X201081426Y-106879853D01*
X201358665Y-106935000D01*
X201641335Y-106935000D01*
X201918574Y-106879853D01*
X202179727Y-106771680D01*
X202414759Y-106614637D01*
X202614637Y-106414759D01*
X202771680Y-106179727D01*
X202879853Y-105918574D01*
X202935000Y-105641335D01*
X202935000Y-105358665D01*
X202879853Y-105081426D01*
X202839912Y-104985000D01*
X202933422Y-104985000D01*
X203415000Y-105466579D01*
X203415001Y-107393305D01*
X203400932Y-107427271D01*
X203365000Y-107607911D01*
X203365000Y-107792089D01*
X203400932Y-107972729D01*
X203471414Y-108142889D01*
X203573738Y-108296028D01*
X203703972Y-108426262D01*
X203857111Y-108528586D01*
X204027271Y-108599068D01*
X204207911Y-108635000D01*
X204392089Y-108635000D01*
X204572729Y-108599068D01*
X204742889Y-108528586D01*
X204896028Y-108426262D01*
X205026262Y-108296028D01*
X205128586Y-108142889D01*
X205199068Y-107972729D01*
X205235000Y-107792089D01*
X205235000Y-107607911D01*
X205199068Y-107427271D01*
X205185000Y-107393308D01*
X205185000Y-107010961D01*
X215258096Y-107010961D01*
X215380085Y-107233000D01*
X216973000Y-107233000D01*
X216973000Y-105925000D01*
X217227000Y-105925000D01*
X217227000Y-107233000D01*
X218819915Y-107233000D01*
X218941904Y-107010961D01*
X218924367Y-106928182D01*
X218813715Y-106668354D01*
X218654500Y-106435105D01*
X218452839Y-106237399D01*
X218216483Y-106082834D01*
X217954514Y-105977350D01*
X217677000Y-105925000D01*
X217227000Y-105925000D01*
X216973000Y-105925000D01*
X216523000Y-105925000D01*
X216245486Y-105977350D01*
X215983517Y-106082834D01*
X215747161Y-106237399D01*
X215545500Y-106435105D01*
X215386285Y-106668354D01*
X215275633Y-106928182D01*
X215258096Y-107010961D01*
X205185000Y-107010961D01*
X205185000Y-105318003D01*
X218097573Y-105318003D01*
X218177947Y-105615368D01*
X218376388Y-106039439D01*
X218653748Y-106416648D01*
X218999369Y-106732498D01*
X219399968Y-106974852D01*
X219840150Y-107134396D01*
X220303000Y-107205000D01*
X222053000Y-107205000D01*
X222053000Y-104947000D01*
X222307000Y-104947000D01*
X222307000Y-107205000D01*
X224057000Y-107205000D01*
X224519850Y-107134396D01*
X224960032Y-106974852D01*
X225360631Y-106732498D01*
X225706252Y-106416648D01*
X225983612Y-106039439D01*
X226182053Y-105615368D01*
X226262427Y-105318003D01*
X226152625Y-104947000D01*
X222307000Y-104947000D01*
X222053000Y-104947000D01*
X218207375Y-104947000D01*
X218097573Y-105318003D01*
X205185000Y-105318003D01*
X205185000Y-105143469D01*
X205189281Y-105100000D01*
X205185000Y-105056531D01*
X205185000Y-105056523D01*
X205172195Y-104926510D01*
X205153536Y-104865000D01*
X205121589Y-104759686D01*
X205039411Y-104605941D01*
X204956532Y-104504953D01*
X204956530Y-104504951D01*
X204928817Y-104471183D01*
X204895050Y-104443471D01*
X204773576Y-104321997D01*
X218097573Y-104321997D01*
X218207375Y-104693000D01*
X222053000Y-104693000D01*
X222053000Y-102435000D01*
X222307000Y-102435000D01*
X222307000Y-104693000D01*
X226152625Y-104693000D01*
X226262427Y-104321997D01*
X226182053Y-104024632D01*
X225983612Y-103600561D01*
X225706252Y-103223352D01*
X225360631Y-102907502D01*
X224960032Y-102665148D01*
X224519850Y-102505604D01*
X224057000Y-102435000D01*
X222307000Y-102435000D01*
X222053000Y-102435000D01*
X220303000Y-102435000D01*
X219840150Y-102505604D01*
X219399968Y-102665148D01*
X218999369Y-102907502D01*
X218653748Y-103223352D01*
X218376388Y-103600561D01*
X218177947Y-104024632D01*
X218097573Y-104321997D01*
X204773576Y-104321997D01*
X203956534Y-103504956D01*
X203928817Y-103471183D01*
X203794059Y-103360589D01*
X203640313Y-103278411D01*
X203473490Y-103227805D01*
X203343477Y-103215000D01*
X203343469Y-103215000D01*
X203300000Y-103210719D01*
X203256531Y-103215000D01*
X176506692Y-103215000D01*
X176472729Y-103200932D01*
X176292089Y-103165000D01*
X176107911Y-103165000D01*
X175927271Y-103200932D01*
X175757111Y-103271414D01*
X175603972Y-103373738D01*
X175473738Y-103503972D01*
X175371414Y-103657111D01*
X175300932Y-103827271D01*
X175265000Y-104007911D01*
X108735000Y-104007911D01*
X108735000Y-104000000D01*
X108722799Y-103876118D01*
X108686664Y-103756996D01*
X108627983Y-103647213D01*
X108549013Y-103550987D01*
X108049013Y-103050987D01*
X107952787Y-102972017D01*
X107843004Y-102913336D01*
X107723882Y-102877201D01*
X107600000Y-102865000D01*
X91000000Y-102865000D01*
X90933590Y-102871541D01*
X93446466Y-100358665D01*
X200065000Y-100358665D01*
X200065000Y-100641335D01*
X200120147Y-100918574D01*
X200228320Y-101179727D01*
X200385363Y-101414759D01*
X200585241Y-101614637D01*
X200820273Y-101771680D01*
X201081426Y-101879853D01*
X201358665Y-101935000D01*
X201641335Y-101935000D01*
X201918574Y-101879853D01*
X202179727Y-101771680D01*
X202414759Y-101614637D01*
X202614637Y-101414759D01*
X202771680Y-101179727D01*
X202879853Y-100918574D01*
X202935000Y-100641335D01*
X202935000Y-100358665D01*
X202879853Y-100081426D01*
X202771680Y-99820273D01*
X202614637Y-99585241D01*
X202414759Y-99385363D01*
X202179727Y-99228320D01*
X201918574Y-99120147D01*
X201641335Y-99065000D01*
X201358665Y-99065000D01*
X201081426Y-99120147D01*
X200820273Y-99228320D01*
X200585241Y-99385363D01*
X200385363Y-99585241D01*
X200228320Y-99820273D01*
X200120147Y-100081426D01*
X200065000Y-100358665D01*
X93446466Y-100358665D01*
X93870132Y-99935000D01*
X94655752Y-99935000D01*
X94822499Y-99918577D01*
X95036447Y-99853676D01*
X95233623Y-99748284D01*
X95406449Y-99606449D01*
X95548284Y-99433623D01*
X95653676Y-99236447D01*
X95718577Y-99022499D01*
X95740491Y-98800000D01*
X95718577Y-98577501D01*
X95653676Y-98363553D01*
X95548284Y-98166377D01*
X95406449Y-97993551D01*
X95233623Y-97851716D01*
X95036447Y-97746324D01*
X94822499Y-97681423D01*
X94655752Y-97665000D01*
X93455741Y-97665000D01*
X93399999Y-97659510D01*
X93344257Y-97665000D01*
X93344248Y-97665000D01*
X93177501Y-97681423D01*
X92963553Y-97746324D01*
X92766377Y-97851716D01*
X92593551Y-97993551D01*
X92558009Y-98036859D01*
X89058012Y-101536857D01*
X88951717Y-101666378D01*
X88846324Y-101863554D01*
X88781423Y-102077502D01*
X88759509Y-102300000D01*
X81220395Y-102300000D01*
X80370000Y-101449605D01*
X79485525Y-102334080D01*
X76174475Y-102334080D01*
X75290000Y-101449605D01*
X74405525Y-102334080D01*
X70710000Y-102334080D01*
X70710000Y-101336553D01*
X73749009Y-101336553D01*
X73791603Y-101635907D01*
X73891778Y-101921199D01*
X73971739Y-102070792D01*
X74225920Y-102154475D01*
X75110395Y-101270000D01*
X75469605Y-101270000D01*
X76354080Y-102154475D01*
X76608261Y-102070792D01*
X76739158Y-101798225D01*
X76814365Y-101505358D01*
X76823660Y-101336553D01*
X78829009Y-101336553D01*
X78871603Y-101635907D01*
X78971778Y-101921199D01*
X79051739Y-102070792D01*
X79305920Y-102154475D01*
X80190395Y-101270000D01*
X80549605Y-101270000D01*
X81434080Y-102154475D01*
X81688261Y-102070792D01*
X81819158Y-101798225D01*
X81894365Y-101505358D01*
X81910991Y-101203447D01*
X81868397Y-100904093D01*
X81768222Y-100618801D01*
X81688261Y-100469208D01*
X81434080Y-100385525D01*
X80549605Y-101270000D01*
X80190395Y-101270000D01*
X79305920Y-100385525D01*
X79051739Y-100469208D01*
X78920842Y-100741775D01*
X78845635Y-101034642D01*
X78829009Y-101336553D01*
X76823660Y-101336553D01*
X76830991Y-101203447D01*
X76788397Y-100904093D01*
X76688222Y-100618801D01*
X76608261Y-100469208D01*
X76354080Y-100385525D01*
X75469605Y-101270000D01*
X75110395Y-101270000D01*
X74225920Y-100385525D01*
X73971739Y-100469208D01*
X73840842Y-100741775D01*
X73765635Y-101034642D01*
X73749009Y-101336553D01*
X70710000Y-101336553D01*
X70710000Y-99794080D01*
X74405525Y-99794080D01*
X74473319Y-100000000D01*
X74405525Y-100205920D01*
X75290000Y-101090395D01*
X76174475Y-100205920D01*
X76106681Y-100000000D01*
X76174475Y-99794080D01*
X79485525Y-99794080D01*
X79553319Y-100000000D01*
X79485525Y-100205920D01*
X80370000Y-101090395D01*
X81254475Y-100205920D01*
X81186681Y-100000000D01*
X81254475Y-99794080D01*
X80370000Y-98909605D01*
X79485525Y-99794080D01*
X76174475Y-99794080D01*
X75290000Y-98909605D01*
X74405525Y-99794080D01*
X70710000Y-99794080D01*
X70710000Y-98796553D01*
X73749009Y-98796553D01*
X73791603Y-99095907D01*
X73891778Y-99381199D01*
X73971739Y-99530792D01*
X74225920Y-99614475D01*
X75110395Y-98730000D01*
X75469605Y-98730000D01*
X76354080Y-99614475D01*
X76608261Y-99530792D01*
X76739158Y-99258225D01*
X76814365Y-98965358D01*
X76823660Y-98796553D01*
X78829009Y-98796553D01*
X78871603Y-99095907D01*
X78971778Y-99381199D01*
X79051739Y-99530792D01*
X79305920Y-99614475D01*
X80190395Y-98730000D01*
X80549605Y-98730000D01*
X81434080Y-99614475D01*
X81688261Y-99530792D01*
X81819158Y-99258225D01*
X81894365Y-98965358D01*
X81910991Y-98663447D01*
X81868397Y-98364093D01*
X81768222Y-98078801D01*
X81688261Y-97929208D01*
X81434080Y-97845525D01*
X80549605Y-98730000D01*
X80190395Y-98730000D01*
X79305920Y-97845525D01*
X79051739Y-97929208D01*
X78920842Y-98201775D01*
X78845635Y-98494642D01*
X78829009Y-98796553D01*
X76823660Y-98796553D01*
X76830991Y-98663447D01*
X76788397Y-98364093D01*
X76688222Y-98078801D01*
X76608261Y-97929208D01*
X76354080Y-97845525D01*
X75469605Y-98730000D01*
X75110395Y-98730000D01*
X74225920Y-97845525D01*
X73971739Y-97929208D01*
X73840842Y-98201775D01*
X73765635Y-98494642D01*
X73749009Y-98796553D01*
X70710000Y-98796553D01*
X70710000Y-60478816D01*
X73755000Y-60478816D01*
X73755000Y-60781184D01*
X73813989Y-61077743D01*
X73929701Y-61357095D01*
X74097688Y-61608505D01*
X74311495Y-61822312D01*
X74427763Y-61900000D01*
X74311495Y-61977688D01*
X74097688Y-62191495D01*
X73929701Y-62442905D01*
X73813989Y-62722257D01*
X73755000Y-63018816D01*
X73755000Y-63321184D01*
X73813989Y-63617743D01*
X73929701Y-63897095D01*
X74097688Y-64148505D01*
X74311495Y-64362312D01*
X74427763Y-64440000D01*
X74311495Y-64517688D01*
X74097688Y-64731495D01*
X73929701Y-64982905D01*
X73813989Y-65262257D01*
X73755000Y-65558816D01*
X73755000Y-65861184D01*
X73813989Y-66157743D01*
X73929701Y-66437095D01*
X74097688Y-66688505D01*
X74311495Y-66902312D01*
X74427763Y-66980000D01*
X74311495Y-67057688D01*
X74097688Y-67271495D01*
X73929701Y-67522905D01*
X73813989Y-67802257D01*
X73755000Y-68098816D01*
X73755000Y-68401184D01*
X73813989Y-68697743D01*
X73929701Y-68977095D01*
X74097688Y-69228505D01*
X74311495Y-69442312D01*
X74427763Y-69520000D01*
X74311495Y-69597688D01*
X74097688Y-69811495D01*
X73929701Y-70062905D01*
X73813989Y-70342257D01*
X73755000Y-70638816D01*
X73755000Y-70941184D01*
X73813989Y-71237743D01*
X73929701Y-71517095D01*
X74097688Y-71768505D01*
X74311495Y-71982312D01*
X74427763Y-72060000D01*
X74311495Y-72137688D01*
X74097688Y-72351495D01*
X73929701Y-72602905D01*
X73813989Y-72882257D01*
X73755000Y-73178816D01*
X73755000Y-73481184D01*
X73813989Y-73777743D01*
X73929701Y-74057095D01*
X74097688Y-74308505D01*
X74311495Y-74522312D01*
X74427763Y-74600000D01*
X74311495Y-74677688D01*
X74097688Y-74891495D01*
X73929701Y-75142905D01*
X73813989Y-75422257D01*
X73755000Y-75718816D01*
X73755000Y-76021184D01*
X73813989Y-76317743D01*
X73929701Y-76597095D01*
X74097688Y-76848505D01*
X74311495Y-77062312D01*
X74427763Y-77140000D01*
X74311495Y-77217688D01*
X74097688Y-77431495D01*
X73929701Y-77682905D01*
X73813989Y-77962257D01*
X73755000Y-78258816D01*
X73755000Y-78561184D01*
X73813989Y-78857743D01*
X73929701Y-79137095D01*
X74097688Y-79388505D01*
X74311495Y-79602312D01*
X74427763Y-79680000D01*
X74311495Y-79757688D01*
X74097688Y-79971495D01*
X73929701Y-80222905D01*
X73813989Y-80502257D01*
X73755000Y-80798816D01*
X73755000Y-81101184D01*
X73813989Y-81397743D01*
X73929701Y-81677095D01*
X74097688Y-81928505D01*
X74311495Y-82142312D01*
X74427763Y-82220000D01*
X74311495Y-82297688D01*
X74097688Y-82511495D01*
X73929701Y-82762905D01*
X73813989Y-83042257D01*
X73755000Y-83338816D01*
X73755000Y-83641184D01*
X73813989Y-83937743D01*
X73929701Y-84217095D01*
X74097688Y-84468505D01*
X74311495Y-84682312D01*
X74427763Y-84760000D01*
X74311495Y-84837688D01*
X74097688Y-85051495D01*
X73929701Y-85302905D01*
X73813989Y-85582257D01*
X73755000Y-85878816D01*
X73755000Y-86181184D01*
X73813989Y-86477743D01*
X73929701Y-86757095D01*
X74097688Y-87008505D01*
X74311495Y-87222312D01*
X74427763Y-87300000D01*
X74311495Y-87377688D01*
X74097688Y-87591495D01*
X73929701Y-87842905D01*
X73813989Y-88122257D01*
X73755000Y-88418816D01*
X73755000Y-88721184D01*
X73813989Y-89017743D01*
X73929701Y-89297095D01*
X74097688Y-89548505D01*
X74311495Y-89762312D01*
X74427763Y-89840000D01*
X74311495Y-89917688D01*
X74097688Y-90131495D01*
X73929701Y-90382905D01*
X73813989Y-90662257D01*
X73755000Y-90958816D01*
X73755000Y-91261184D01*
X73813989Y-91557743D01*
X73929701Y-91837095D01*
X74097688Y-92088505D01*
X74311495Y-92302312D01*
X74427763Y-92380000D01*
X74311495Y-92457688D01*
X74097688Y-92671495D01*
X73929701Y-92922905D01*
X73813989Y-93202257D01*
X73755000Y-93498816D01*
X73755000Y-93801184D01*
X73813989Y-94097743D01*
X73929701Y-94377095D01*
X74097688Y-94628505D01*
X74311495Y-94842312D01*
X74427763Y-94920000D01*
X74311495Y-94997688D01*
X74097688Y-95211495D01*
X73929701Y-95462905D01*
X73813989Y-95742257D01*
X73755000Y-96038816D01*
X73755000Y-96341184D01*
X73813989Y-96637743D01*
X73929701Y-96917095D01*
X74097688Y-97168505D01*
X74311495Y-97382312D01*
X74465105Y-97484951D01*
X74405525Y-97665920D01*
X75290000Y-98550395D01*
X76174475Y-97665920D01*
X76114895Y-97484951D01*
X76268505Y-97382312D01*
X76482312Y-97168505D01*
X76650299Y-96917095D01*
X76766011Y-96637743D01*
X76825000Y-96341184D01*
X76825000Y-96038816D01*
X76766011Y-95742257D01*
X76650299Y-95462905D01*
X76482312Y-95211495D01*
X76268505Y-94997688D01*
X76152237Y-94920000D01*
X76268505Y-94842312D01*
X76482312Y-94628505D01*
X76650299Y-94377095D01*
X76766011Y-94097743D01*
X76825000Y-93801184D01*
X76825000Y-93498816D01*
X76766011Y-93202257D01*
X76650299Y-92922905D01*
X76482312Y-92671495D01*
X76268505Y-92457688D01*
X76152237Y-92380000D01*
X76268505Y-92302312D01*
X76482312Y-92088505D01*
X76650299Y-91837095D01*
X76766011Y-91557743D01*
X76825000Y-91261184D01*
X76825000Y-90958816D01*
X76766011Y-90662257D01*
X76650299Y-90382905D01*
X76482312Y-90131495D01*
X76268505Y-89917688D01*
X76152237Y-89840000D01*
X76268505Y-89762312D01*
X76482312Y-89548505D01*
X76650299Y-89297095D01*
X76766011Y-89017743D01*
X76825000Y-88721184D01*
X76825000Y-88418816D01*
X76766011Y-88122257D01*
X76650299Y-87842905D01*
X76482312Y-87591495D01*
X76268505Y-87377688D01*
X76152237Y-87300000D01*
X76268505Y-87222312D01*
X76482312Y-87008505D01*
X76650299Y-86757095D01*
X76766011Y-86477743D01*
X76825000Y-86181184D01*
X76825000Y-85878816D01*
X76766011Y-85582257D01*
X76650299Y-85302905D01*
X76482312Y-85051495D01*
X76268505Y-84837688D01*
X76152237Y-84760000D01*
X76268505Y-84682312D01*
X76482312Y-84468505D01*
X76650299Y-84217095D01*
X76766011Y-83937743D01*
X76825000Y-83641184D01*
X76825000Y-83338816D01*
X76766011Y-83042257D01*
X76650299Y-82762905D01*
X76482312Y-82511495D01*
X76268505Y-82297688D01*
X76152237Y-82220000D01*
X76268505Y-82142312D01*
X76482312Y-81928505D01*
X76650299Y-81677095D01*
X76766011Y-81397743D01*
X76825000Y-81101184D01*
X76825000Y-80798816D01*
X76766011Y-80502257D01*
X76650299Y-80222905D01*
X76482312Y-79971495D01*
X76268505Y-79757688D01*
X76152237Y-79680000D01*
X76268505Y-79602312D01*
X76482312Y-79388505D01*
X76650299Y-79137095D01*
X76766011Y-78857743D01*
X76825000Y-78561184D01*
X76825000Y-78258816D01*
X76766011Y-77962257D01*
X76650299Y-77682905D01*
X76482312Y-77431495D01*
X76268505Y-77217688D01*
X76152237Y-77140000D01*
X76268505Y-77062312D01*
X76482312Y-76848505D01*
X76650299Y-76597095D01*
X76766011Y-76317743D01*
X76825000Y-76021184D01*
X76825000Y-75718816D01*
X76766011Y-75422257D01*
X76650299Y-75142905D01*
X76482312Y-74891495D01*
X76268505Y-74677688D01*
X76152237Y-74600000D01*
X76268505Y-74522312D01*
X76482312Y-74308505D01*
X76650299Y-74057095D01*
X76766011Y-73777743D01*
X76825000Y-73481184D01*
X76825000Y-73178816D01*
X76766011Y-72882257D01*
X76650299Y-72602905D01*
X76482312Y-72351495D01*
X76268505Y-72137688D01*
X76152237Y-72060000D01*
X76268505Y-71982312D01*
X76482312Y-71768505D01*
X76650299Y-71517095D01*
X76766011Y-71237743D01*
X76825000Y-70941184D01*
X76825000Y-70638816D01*
X76766011Y-70342257D01*
X76650299Y-70062905D01*
X76482312Y-69811495D01*
X76268505Y-69597688D01*
X76152237Y-69520000D01*
X76268505Y-69442312D01*
X76482312Y-69228505D01*
X76650299Y-68977095D01*
X76766011Y-68697743D01*
X76825000Y-68401184D01*
X76825000Y-68098816D01*
X76766011Y-67802257D01*
X76650299Y-67522905D01*
X76482312Y-67271495D01*
X76268505Y-67057688D01*
X76152237Y-66980000D01*
X76268505Y-66902312D01*
X76482312Y-66688505D01*
X76650299Y-66437095D01*
X76766011Y-66157743D01*
X76825000Y-65861184D01*
X76825000Y-65558816D01*
X76766011Y-65262257D01*
X76650299Y-64982905D01*
X76482312Y-64731495D01*
X76268505Y-64517688D01*
X76152237Y-64440000D01*
X76268505Y-64362312D01*
X76482312Y-64148505D01*
X76650299Y-63897095D01*
X76766011Y-63617743D01*
X76825000Y-63321184D01*
X76825000Y-63018816D01*
X76766011Y-62722257D01*
X76650299Y-62442905D01*
X76482312Y-62191495D01*
X76268505Y-61977688D01*
X76152237Y-61900000D01*
X76268505Y-61822312D01*
X76482312Y-61608505D01*
X76650299Y-61357095D01*
X76766011Y-61077743D01*
X76825000Y-60781184D01*
X76825000Y-60478816D01*
X78835000Y-60478816D01*
X78835000Y-60781184D01*
X78893989Y-61077743D01*
X79009701Y-61357095D01*
X79177688Y-61608505D01*
X79391495Y-61822312D01*
X79507763Y-61900000D01*
X79391495Y-61977688D01*
X79177688Y-62191495D01*
X79009701Y-62442905D01*
X78893989Y-62722257D01*
X78835000Y-63018816D01*
X78835000Y-63321184D01*
X78893989Y-63617743D01*
X79009701Y-63897095D01*
X79177688Y-64148505D01*
X79391495Y-64362312D01*
X79507763Y-64440000D01*
X79391495Y-64517688D01*
X79177688Y-64731495D01*
X79009701Y-64982905D01*
X78893989Y-65262257D01*
X78835000Y-65558816D01*
X78835000Y-65861184D01*
X78893989Y-66157743D01*
X79009701Y-66437095D01*
X79177688Y-66688505D01*
X79391495Y-66902312D01*
X79507763Y-66980000D01*
X79391495Y-67057688D01*
X79177688Y-67271495D01*
X79009701Y-67522905D01*
X78893989Y-67802257D01*
X78835000Y-68098816D01*
X78835000Y-68401184D01*
X78893989Y-68697743D01*
X79009701Y-68977095D01*
X79177688Y-69228505D01*
X79391495Y-69442312D01*
X79507763Y-69520000D01*
X79391495Y-69597688D01*
X79177688Y-69811495D01*
X79009701Y-70062905D01*
X78893989Y-70342257D01*
X78835000Y-70638816D01*
X78835000Y-70941184D01*
X78893989Y-71237743D01*
X79009701Y-71517095D01*
X79177688Y-71768505D01*
X79391495Y-71982312D01*
X79507763Y-72060000D01*
X79391495Y-72137688D01*
X79177688Y-72351495D01*
X79009701Y-72602905D01*
X78893989Y-72882257D01*
X78835000Y-73178816D01*
X78835000Y-73481184D01*
X78893989Y-73777743D01*
X79009701Y-74057095D01*
X79177688Y-74308505D01*
X79391495Y-74522312D01*
X79507763Y-74600000D01*
X79391495Y-74677688D01*
X79177688Y-74891495D01*
X79009701Y-75142905D01*
X78893989Y-75422257D01*
X78835000Y-75718816D01*
X78835000Y-76021184D01*
X78893989Y-76317743D01*
X79009701Y-76597095D01*
X79177688Y-76848505D01*
X79391495Y-77062312D01*
X79507763Y-77140000D01*
X79391495Y-77217688D01*
X79177688Y-77431495D01*
X79009701Y-77682905D01*
X78893989Y-77962257D01*
X78835000Y-78258816D01*
X78835000Y-78561184D01*
X78893989Y-78857743D01*
X79009701Y-79137095D01*
X79177688Y-79388505D01*
X79391495Y-79602312D01*
X79507763Y-79680000D01*
X79391495Y-79757688D01*
X79177688Y-79971495D01*
X79009701Y-80222905D01*
X78893989Y-80502257D01*
X78835000Y-80798816D01*
X78835000Y-81101184D01*
X78893989Y-81397743D01*
X79009701Y-81677095D01*
X79177688Y-81928505D01*
X79391495Y-82142312D01*
X79507763Y-82220000D01*
X79391495Y-82297688D01*
X79177688Y-82511495D01*
X79009701Y-82762905D01*
X78893989Y-83042257D01*
X78835000Y-83338816D01*
X78835000Y-83641184D01*
X78893989Y-83937743D01*
X79009701Y-84217095D01*
X79177688Y-84468505D01*
X79391495Y-84682312D01*
X79507763Y-84760000D01*
X79391495Y-84837688D01*
X79177688Y-85051495D01*
X79009701Y-85302905D01*
X78893989Y-85582257D01*
X78835000Y-85878816D01*
X78835000Y-86181184D01*
X78893989Y-86477743D01*
X79009701Y-86757095D01*
X79177688Y-87008505D01*
X79391495Y-87222312D01*
X79507763Y-87300000D01*
X79391495Y-87377688D01*
X79177688Y-87591495D01*
X79009701Y-87842905D01*
X78893989Y-88122257D01*
X78835000Y-88418816D01*
X78835000Y-88721184D01*
X78893989Y-89017743D01*
X79009701Y-89297095D01*
X79177688Y-89548505D01*
X79391495Y-89762312D01*
X79507763Y-89840000D01*
X79391495Y-89917688D01*
X79177688Y-90131495D01*
X79009701Y-90382905D01*
X78893989Y-90662257D01*
X78835000Y-90958816D01*
X78835000Y-91261184D01*
X78893989Y-91557743D01*
X79009701Y-91837095D01*
X79177688Y-92088505D01*
X79391495Y-92302312D01*
X79507763Y-92380000D01*
X79391495Y-92457688D01*
X79177688Y-92671495D01*
X79009701Y-92922905D01*
X78893989Y-93202257D01*
X78835000Y-93498816D01*
X78835000Y-93801184D01*
X78893989Y-94097743D01*
X79009701Y-94377095D01*
X79177688Y-94628505D01*
X79391495Y-94842312D01*
X79507763Y-94920000D01*
X79391495Y-94997688D01*
X79177688Y-95211495D01*
X79009701Y-95462905D01*
X78893989Y-95742257D01*
X78835000Y-96038816D01*
X78835000Y-96341184D01*
X78893989Y-96637743D01*
X79009701Y-96917095D01*
X79177688Y-97168505D01*
X79391495Y-97382312D01*
X79545105Y-97484951D01*
X79485525Y-97665920D01*
X80370000Y-98550395D01*
X81254475Y-97665920D01*
X81194895Y-97484951D01*
X81348505Y-97382312D01*
X81562312Y-97168505D01*
X81730299Y-96917095D01*
X81846011Y-96637743D01*
X81905000Y-96341184D01*
X81905000Y-96038816D01*
X81846011Y-95742257D01*
X81790363Y-95607911D01*
X144665000Y-95607911D01*
X144665000Y-95792089D01*
X144700932Y-95972729D01*
X144771414Y-96142889D01*
X144813272Y-96205534D01*
X144860589Y-96294059D01*
X144971183Y-96428817D01*
X145004955Y-96456533D01*
X146657346Y-98108924D01*
X146671414Y-98142889D01*
X146773738Y-98296028D01*
X146903972Y-98426262D01*
X147057111Y-98528586D01*
X147227271Y-98599068D01*
X147407911Y-98635000D01*
X147592089Y-98635000D01*
X147772729Y-98599068D01*
X147942889Y-98528586D01*
X148096028Y-98426262D01*
X148226262Y-98296028D01*
X148328586Y-98142889D01*
X148399068Y-97972729D01*
X148435000Y-97792089D01*
X148435000Y-97607911D01*
X148399068Y-97427271D01*
X148328586Y-97257111D01*
X148226262Y-97103972D01*
X148096028Y-96973738D01*
X147942889Y-96871414D01*
X147908924Y-96857346D01*
X146640394Y-95588816D01*
X219985000Y-95588816D01*
X219985000Y-95891184D01*
X220043989Y-96187743D01*
X220159701Y-96467095D01*
X220327688Y-96718505D01*
X220541495Y-96932312D01*
X220792905Y-97100299D01*
X221072257Y-97216011D01*
X221368816Y-97275000D01*
X221671184Y-97275000D01*
X221967743Y-97216011D01*
X222247095Y-97100299D01*
X222498505Y-96932312D01*
X222712312Y-96718505D01*
X222880299Y-96467095D01*
X222996011Y-96187743D01*
X223055000Y-95891184D01*
X223055000Y-95588816D01*
X222996011Y-95292257D01*
X222880299Y-95012905D01*
X222712312Y-94761495D01*
X222498505Y-94547688D01*
X222247095Y-94379701D01*
X221967743Y-94263989D01*
X221671184Y-94205000D01*
X221368816Y-94205000D01*
X221072257Y-94263989D01*
X220792905Y-94379701D01*
X220541495Y-94547688D01*
X220327688Y-94761495D01*
X220159701Y-95012905D01*
X220043989Y-95292257D01*
X219985000Y-95588816D01*
X146640394Y-95588816D01*
X146504088Y-95452510D01*
X146499068Y-95427271D01*
X146428586Y-95257111D01*
X146326262Y-95103972D01*
X146196028Y-94973738D01*
X146042889Y-94871414D01*
X145872729Y-94800932D01*
X145692089Y-94765000D01*
X145507911Y-94765000D01*
X145327271Y-94800932D01*
X145157111Y-94871414D01*
X145003972Y-94973738D01*
X144873738Y-95103972D01*
X144771414Y-95257111D01*
X144700932Y-95427271D01*
X144665000Y-95607911D01*
X81790363Y-95607911D01*
X81730299Y-95462905D01*
X81562312Y-95211495D01*
X81348505Y-94997688D01*
X81232237Y-94920000D01*
X81348505Y-94842312D01*
X81562312Y-94628505D01*
X81730299Y-94377095D01*
X81846011Y-94097743D01*
X81905000Y-93801184D01*
X81905000Y-93498816D01*
X81846011Y-93202257D01*
X81782454Y-93048816D01*
X212365000Y-93048816D01*
X212365000Y-93351184D01*
X212423989Y-93647743D01*
X212539701Y-93927095D01*
X212707688Y-94178505D01*
X212921495Y-94392312D01*
X213172905Y-94560299D01*
X213452257Y-94676011D01*
X213748816Y-94735000D01*
X214051184Y-94735000D01*
X214347743Y-94676011D01*
X214627095Y-94560299D01*
X214878505Y-94392312D01*
X215092312Y-94178505D01*
X215260299Y-93927095D01*
X215376011Y-93647743D01*
X215435000Y-93351184D01*
X215435000Y-93048816D01*
X225065000Y-93048816D01*
X225065000Y-93351184D01*
X225123989Y-93647743D01*
X225239701Y-93927095D01*
X225407688Y-94178505D01*
X225621495Y-94392312D01*
X225872905Y-94560299D01*
X226152257Y-94676011D01*
X226448816Y-94735000D01*
X226751184Y-94735000D01*
X227047743Y-94676011D01*
X227327095Y-94560299D01*
X227578505Y-94392312D01*
X227792312Y-94178505D01*
X227960299Y-93927095D01*
X228076011Y-93647743D01*
X228135000Y-93351184D01*
X228135000Y-93048816D01*
X228076011Y-92752257D01*
X227960299Y-92472905D01*
X227792312Y-92221495D01*
X227578505Y-92007688D01*
X227327095Y-91839701D01*
X227047743Y-91723989D01*
X226751184Y-91665000D01*
X226448816Y-91665000D01*
X226152257Y-91723989D01*
X225872905Y-91839701D01*
X225621495Y-92007688D01*
X225407688Y-92221495D01*
X225239701Y-92472905D01*
X225123989Y-92752257D01*
X225065000Y-93048816D01*
X215435000Y-93048816D01*
X215376011Y-92752257D01*
X215260299Y-92472905D01*
X215092312Y-92221495D01*
X214878505Y-92007688D01*
X214627095Y-91839701D01*
X214347743Y-91723989D01*
X214051184Y-91665000D01*
X213748816Y-91665000D01*
X213452257Y-91723989D01*
X213172905Y-91839701D01*
X212921495Y-92007688D01*
X212707688Y-92221495D01*
X212539701Y-92472905D01*
X212423989Y-92752257D01*
X212365000Y-93048816D01*
X81782454Y-93048816D01*
X81730299Y-92922905D01*
X81562312Y-92671495D01*
X81348505Y-92457688D01*
X81232237Y-92380000D01*
X81348505Y-92302312D01*
X81562312Y-92088505D01*
X81730299Y-91837095D01*
X81846011Y-91557743D01*
X81905000Y-91261184D01*
X81905000Y-90958816D01*
X81846011Y-90662257D01*
X81730299Y-90382905D01*
X81562312Y-90131495D01*
X81348505Y-89917688D01*
X81232237Y-89840000D01*
X81348505Y-89762312D01*
X81562312Y-89548505D01*
X81730299Y-89297095D01*
X81846011Y-89017743D01*
X81905000Y-88721184D01*
X81905000Y-88418816D01*
X81846011Y-88122257D01*
X81730299Y-87842905D01*
X81562312Y-87591495D01*
X81348505Y-87377688D01*
X81232237Y-87300000D01*
X81348505Y-87222312D01*
X81562312Y-87008505D01*
X81730299Y-86757095D01*
X81846011Y-86477743D01*
X81905000Y-86181184D01*
X81905000Y-85878816D01*
X81846011Y-85582257D01*
X81730299Y-85302905D01*
X81562312Y-85051495D01*
X81348505Y-84837688D01*
X81232237Y-84760000D01*
X81348505Y-84682312D01*
X81562312Y-84468505D01*
X81730299Y-84217095D01*
X81846011Y-83937743D01*
X81905000Y-83641184D01*
X81905000Y-83338816D01*
X81846011Y-83042257D01*
X81730299Y-82762905D01*
X81562312Y-82511495D01*
X81348505Y-82297688D01*
X81232237Y-82220000D01*
X81348505Y-82142312D01*
X81562312Y-81928505D01*
X81730299Y-81677095D01*
X81846011Y-81397743D01*
X81905000Y-81101184D01*
X81905000Y-80798816D01*
X81846011Y-80502257D01*
X81730299Y-80222905D01*
X81562312Y-79971495D01*
X81348505Y-79757688D01*
X81232237Y-79680000D01*
X81348505Y-79602312D01*
X81562312Y-79388505D01*
X81730299Y-79137095D01*
X81846011Y-78857743D01*
X81905000Y-78561184D01*
X81905000Y-78258816D01*
X81846011Y-77962257D01*
X81730299Y-77682905D01*
X81562312Y-77431495D01*
X81348505Y-77217688D01*
X81232237Y-77140000D01*
X81348505Y-77062312D01*
X81562312Y-76848505D01*
X81730299Y-76597095D01*
X81846011Y-76317743D01*
X81905000Y-76021184D01*
X81905000Y-75718816D01*
X81846011Y-75422257D01*
X81730299Y-75142905D01*
X81562312Y-74891495D01*
X81428728Y-74757911D01*
X169915000Y-74757911D01*
X169915000Y-74942089D01*
X169950932Y-75122729D01*
X170021414Y-75292889D01*
X170123738Y-75446028D01*
X170253972Y-75576262D01*
X170407111Y-75678586D01*
X170577271Y-75749068D01*
X170757911Y-75785000D01*
X170942089Y-75785000D01*
X171122729Y-75749068D01*
X171292889Y-75678586D01*
X171446028Y-75576262D01*
X171576262Y-75446028D01*
X171678586Y-75292889D01*
X171749068Y-75122729D01*
X171773153Y-75001648D01*
X174361004Y-72413798D01*
X174390001Y-72390001D01*
X174484974Y-72274276D01*
X174555546Y-72142247D01*
X174599003Y-71998986D01*
X174609052Y-71896954D01*
X174678586Y-71792889D01*
X174749068Y-71622729D01*
X174785000Y-71442089D01*
X174785000Y-71257911D01*
X174749068Y-71077271D01*
X174678586Y-70907111D01*
X174576262Y-70753972D01*
X174446028Y-70623738D01*
X174292889Y-70521414D01*
X174122729Y-70450932D01*
X173942089Y-70415000D01*
X173757911Y-70415000D01*
X173577271Y-70450932D01*
X173407111Y-70521414D01*
X173253972Y-70623738D01*
X173123738Y-70753972D01*
X173021414Y-70907111D01*
X172950932Y-71077271D01*
X172915000Y-71257911D01*
X172915000Y-71442089D01*
X172950932Y-71622729D01*
X172966027Y-71659171D01*
X170698352Y-73926847D01*
X170577271Y-73950932D01*
X170407111Y-74021414D01*
X170253972Y-74123738D01*
X170123738Y-74253972D01*
X170021414Y-74407111D01*
X169950932Y-74577271D01*
X169915000Y-74757911D01*
X81428728Y-74757911D01*
X81348505Y-74677688D01*
X81232237Y-74600000D01*
X81348505Y-74522312D01*
X81562312Y-74308505D01*
X81730299Y-74057095D01*
X81846011Y-73777743D01*
X81905000Y-73481184D01*
X81905000Y-73178816D01*
X81846011Y-72882257D01*
X81730299Y-72602905D01*
X81562312Y-72351495D01*
X81348505Y-72137688D01*
X81232237Y-72060000D01*
X81348505Y-71982312D01*
X81562312Y-71768505D01*
X81730299Y-71517095D01*
X81846011Y-71237743D01*
X81905000Y-70941184D01*
X81905000Y-70638816D01*
X81846011Y-70342257D01*
X81730299Y-70062905D01*
X81562312Y-69811495D01*
X81348505Y-69597688D01*
X81232237Y-69520000D01*
X81348505Y-69442312D01*
X81562312Y-69228505D01*
X81730299Y-68977095D01*
X81846011Y-68697743D01*
X81905000Y-68401184D01*
X81905000Y-68098816D01*
X81846011Y-67802257D01*
X81730299Y-67522905D01*
X81562312Y-67271495D01*
X81348505Y-67057688D01*
X81232237Y-66980000D01*
X81348505Y-66902312D01*
X81562312Y-66688505D01*
X81730299Y-66437095D01*
X81846011Y-66157743D01*
X81905000Y-65861184D01*
X81905000Y-65558816D01*
X81846011Y-65262257D01*
X81730299Y-64982905D01*
X81562312Y-64731495D01*
X81348505Y-64517688D01*
X81232237Y-64440000D01*
X81348505Y-64362312D01*
X81562312Y-64148505D01*
X81730299Y-63897095D01*
X81846011Y-63617743D01*
X81905000Y-63321184D01*
X81905000Y-63018816D01*
X81846011Y-62722257D01*
X81730299Y-62442905D01*
X81562312Y-62191495D01*
X81348505Y-61977688D01*
X81232237Y-61900000D01*
X81348505Y-61822312D01*
X81562312Y-61608505D01*
X81730299Y-61357095D01*
X81846011Y-61077743D01*
X81905000Y-60781184D01*
X81905000Y-60478816D01*
X81846011Y-60182257D01*
X81730299Y-59902905D01*
X81562312Y-59651495D01*
X81348505Y-59437688D01*
X81097095Y-59269701D01*
X80817743Y-59153989D01*
X80521184Y-59095000D01*
X80218816Y-59095000D01*
X79922257Y-59153989D01*
X79642905Y-59269701D01*
X79391495Y-59437688D01*
X79177688Y-59651495D01*
X79009701Y-59902905D01*
X78893989Y-60182257D01*
X78835000Y-60478816D01*
X76825000Y-60478816D01*
X76766011Y-60182257D01*
X76650299Y-59902905D01*
X76482312Y-59651495D01*
X76268505Y-59437688D01*
X76017095Y-59269701D01*
X75737743Y-59153989D01*
X75441184Y-59095000D01*
X75138816Y-59095000D01*
X74842257Y-59153989D01*
X74562905Y-59269701D01*
X74311495Y-59437688D01*
X74097688Y-59651495D01*
X73929701Y-59902905D01*
X73813989Y-60182257D01*
X73755000Y-60478816D01*
X70710000Y-60478816D01*
X70710000Y-55981583D01*
X70745126Y-56158172D01*
X70902297Y-56537618D01*
X71130475Y-56879110D01*
X71420890Y-57169525D01*
X71762382Y-57397703D01*
X72141828Y-57554874D01*
X72544645Y-57635000D01*
X72955355Y-57635000D01*
X73358172Y-57554874D01*
X73737618Y-57397703D01*
X74079110Y-57169525D01*
X74369525Y-56879110D01*
X74597703Y-56537618D01*
X74754874Y-56158172D01*
X74835000Y-55755355D01*
X74835000Y-55344645D01*
X74754874Y-54941828D01*
X74597703Y-54562382D01*
X74369525Y-54220890D01*
X74079110Y-53930475D01*
X73737618Y-53702297D01*
X73358172Y-53545126D01*
X72955355Y-53465000D01*
X72544645Y-53465000D01*
X72141828Y-53545126D01*
X71762382Y-53702297D01*
X71420890Y-53930475D01*
X71130475Y-54220890D01*
X70902297Y-54562382D01*
X70745126Y-54941828D01*
X70710000Y-55118417D01*
X70710000Y-50710000D01*
X229290001Y-50710000D01*
X229290001Y-87873000D01*
G37*
G04 #@! TD.AperFunction*
M02*
