G04 #@! TF.FileFunction,Legend,Top*
%FSLAX46Y46*%
G04 Gerber Fmt 4.6, Leading zero omitted, Abs format (unit mm)*
G04 Created by KiCad (PCBNEW 4.0.6) date 02/20/19 11:59:32*
%MOMM*%
%LPD*%
G01*
G04 APERTURE LIST*
%ADD10C,0.100000*%
%ADD11C,0.300000*%
%ADD12C,0.120000*%
%ADD13C,0.150000*%
G04 APERTURE END LIST*
D10*
D11*
X118297619Y-54267571D02*
X118297619Y-52767571D01*
X118773810Y-52767571D01*
X118892857Y-52839000D01*
X118952381Y-52910429D01*
X119011905Y-53053286D01*
X119011905Y-53267571D01*
X118952381Y-53410429D01*
X118892857Y-53481857D01*
X118773810Y-53553286D01*
X118297619Y-53553286D01*
X119547619Y-54267571D02*
X119547619Y-52767571D01*
X120083333Y-54267571D02*
X120083333Y-53481857D01*
X120023810Y-53339000D01*
X119904762Y-53267571D01*
X119726190Y-53267571D01*
X119607143Y-53339000D01*
X119547619Y-53410429D01*
X121214285Y-54267571D02*
X121214285Y-53481857D01*
X121154762Y-53339000D01*
X121035714Y-53267571D01*
X120797619Y-53267571D01*
X120678571Y-53339000D01*
X121214285Y-54196143D02*
X121095238Y-54267571D01*
X120797619Y-54267571D01*
X120678571Y-54196143D01*
X120619047Y-54053286D01*
X120619047Y-53910429D01*
X120678571Y-53767571D01*
X120797619Y-53696143D01*
X121095238Y-53696143D01*
X121214285Y-53624714D01*
X121749999Y-54196143D02*
X121869047Y-54267571D01*
X122107142Y-54267571D01*
X122226190Y-54196143D01*
X122285714Y-54053286D01*
X122285714Y-53981857D01*
X122226190Y-53839000D01*
X122107142Y-53767571D01*
X121928571Y-53767571D01*
X121809523Y-53696143D01*
X121749999Y-53553286D01*
X121749999Y-53481857D01*
X121809523Y-53339000D01*
X121928571Y-53267571D01*
X122107142Y-53267571D01*
X122226190Y-53339000D01*
X123297619Y-54196143D02*
X123178571Y-54267571D01*
X122940476Y-54267571D01*
X122821428Y-54196143D01*
X122761904Y-54053286D01*
X122761904Y-53481857D01*
X122821428Y-53339000D01*
X122940476Y-53267571D01*
X123178571Y-53267571D01*
X123297619Y-53339000D01*
X123357142Y-53481857D01*
X123357142Y-53624714D01*
X122761904Y-53767571D01*
X125261905Y-53481857D02*
X124845238Y-53481857D01*
X124845238Y-54267571D02*
X124845238Y-52767571D01*
X125440476Y-52767571D01*
X125916667Y-54267571D02*
X125916667Y-53267571D01*
X125916667Y-53553286D02*
X125976191Y-53410429D01*
X126035715Y-53339000D01*
X126154762Y-53267571D01*
X126273810Y-53267571D01*
X127166668Y-54196143D02*
X127047620Y-54267571D01*
X126809525Y-54267571D01*
X126690477Y-54196143D01*
X126630953Y-54053286D01*
X126630953Y-53481857D01*
X126690477Y-53339000D01*
X126809525Y-53267571D01*
X127047620Y-53267571D01*
X127166668Y-53339000D01*
X127226191Y-53481857D01*
X127226191Y-53624714D01*
X126630953Y-53767571D01*
X128297620Y-53267571D02*
X128297620Y-54767571D01*
X128297620Y-54196143D02*
X128178573Y-54267571D01*
X127940477Y-54267571D01*
X127821430Y-54196143D01*
X127761906Y-54124714D01*
X127702382Y-53981857D01*
X127702382Y-53553286D01*
X127761906Y-53410429D01*
X127821430Y-53339000D01*
X127940477Y-53267571D01*
X128178573Y-53267571D01*
X128297620Y-53339000D01*
X129428572Y-53267571D02*
X129428572Y-54267571D01*
X128892858Y-53267571D02*
X128892858Y-54053286D01*
X128952382Y-54196143D01*
X129071429Y-54267571D01*
X129250001Y-54267571D01*
X129369049Y-54196143D01*
X129428572Y-54124714D01*
X130500001Y-54196143D02*
X130380953Y-54267571D01*
X130142858Y-54267571D01*
X130023810Y-54196143D01*
X129964286Y-54053286D01*
X129964286Y-53481857D01*
X130023810Y-53339000D01*
X130142858Y-53267571D01*
X130380953Y-53267571D01*
X130500001Y-53339000D01*
X130559524Y-53481857D01*
X130559524Y-53624714D01*
X129964286Y-53767571D01*
X131095239Y-53267571D02*
X131095239Y-54267571D01*
X131095239Y-53410429D02*
X131154763Y-53339000D01*
X131273810Y-53267571D01*
X131452382Y-53267571D01*
X131571430Y-53339000D01*
X131630953Y-53481857D01*
X131630953Y-54267571D01*
X132761905Y-54196143D02*
X132642858Y-54267571D01*
X132404762Y-54267571D01*
X132285715Y-54196143D01*
X132226191Y-54124714D01*
X132166667Y-53981857D01*
X132166667Y-53553286D01*
X132226191Y-53410429D01*
X132285715Y-53339000D01*
X132404762Y-53267571D01*
X132642858Y-53267571D01*
X132761905Y-53339000D01*
X133178572Y-53267571D02*
X133476191Y-54267571D01*
X133773811Y-53267571D02*
X133476191Y-54267571D01*
X133357144Y-54624714D01*
X133297620Y-54696143D01*
X133178572Y-54767571D01*
X135202382Y-54267571D02*
X135202382Y-52767571D01*
X135500001Y-52767571D01*
X135678573Y-52839000D01*
X135797620Y-52981857D01*
X135857144Y-53124714D01*
X135916668Y-53410429D01*
X135916668Y-53624714D01*
X135857144Y-53910429D01*
X135797620Y-54053286D01*
X135678573Y-54196143D01*
X135500001Y-54267571D01*
X135202382Y-54267571D01*
X136928573Y-54196143D02*
X136809525Y-54267571D01*
X136571430Y-54267571D01*
X136452382Y-54196143D01*
X136392858Y-54053286D01*
X136392858Y-53481857D01*
X136452382Y-53339000D01*
X136571430Y-53267571D01*
X136809525Y-53267571D01*
X136928573Y-53339000D01*
X136988096Y-53481857D01*
X136988096Y-53624714D01*
X136392858Y-53767571D01*
X137345240Y-53267571D02*
X137821430Y-53267571D01*
X137523811Y-52767571D02*
X137523811Y-54053286D01*
X137583335Y-54196143D01*
X137702382Y-54267571D01*
X137821430Y-54267571D01*
X138714288Y-54196143D02*
X138595240Y-54267571D01*
X138357145Y-54267571D01*
X138238097Y-54196143D01*
X138178573Y-54053286D01*
X138178573Y-53481857D01*
X138238097Y-53339000D01*
X138357145Y-53267571D01*
X138595240Y-53267571D01*
X138714288Y-53339000D01*
X138773811Y-53481857D01*
X138773811Y-53624714D01*
X138178573Y-53767571D01*
X139845240Y-54196143D02*
X139726193Y-54267571D01*
X139488097Y-54267571D01*
X139369050Y-54196143D01*
X139309526Y-54124714D01*
X139250002Y-53981857D01*
X139250002Y-53553286D01*
X139309526Y-53410429D01*
X139369050Y-53339000D01*
X139488097Y-53267571D01*
X139726193Y-53267571D01*
X139845240Y-53339000D01*
X140202384Y-53267571D02*
X140678574Y-53267571D01*
X140380955Y-52767571D02*
X140380955Y-54053286D01*
X140440479Y-54196143D01*
X140559526Y-54267571D01*
X140678574Y-54267571D01*
X141273812Y-54267571D02*
X141154765Y-54196143D01*
X141095241Y-54124714D01*
X141035717Y-53981857D01*
X141035717Y-53553286D01*
X141095241Y-53410429D01*
X141154765Y-53339000D01*
X141273812Y-53267571D01*
X141452384Y-53267571D01*
X141571432Y-53339000D01*
X141630955Y-53410429D01*
X141690479Y-53553286D01*
X141690479Y-53981857D01*
X141630955Y-54124714D01*
X141571432Y-54196143D01*
X141452384Y-54267571D01*
X141273812Y-54267571D01*
X142226193Y-54267571D02*
X142226193Y-53267571D01*
X142226193Y-53553286D02*
X142285717Y-53410429D01*
X142345241Y-53339000D01*
X142464288Y-53267571D01*
X142583336Y-53267571D01*
X118238095Y-55460429D02*
X118297619Y-55389000D01*
X118416667Y-55317571D01*
X118714286Y-55317571D01*
X118833333Y-55389000D01*
X118892857Y-55460429D01*
X118952381Y-55603286D01*
X118952381Y-55746143D01*
X118892857Y-55960429D01*
X118178571Y-56817571D01*
X118952381Y-56817571D01*
X119726190Y-55317571D02*
X119845238Y-55317571D01*
X119964286Y-55389000D01*
X120023809Y-55460429D01*
X120083333Y-55603286D01*
X120142857Y-55889000D01*
X120142857Y-56246143D01*
X120083333Y-56531857D01*
X120023809Y-56674714D01*
X119964286Y-56746143D01*
X119845238Y-56817571D01*
X119726190Y-56817571D01*
X119607143Y-56746143D01*
X119547619Y-56674714D01*
X119488095Y-56531857D01*
X119428571Y-56246143D01*
X119428571Y-55889000D01*
X119488095Y-55603286D01*
X119547619Y-55460429D01*
X119607143Y-55389000D01*
X119726190Y-55317571D01*
X121333333Y-56817571D02*
X120619047Y-56817571D01*
X120976190Y-56817571D02*
X120976190Y-55317571D01*
X120857142Y-55531857D01*
X120738095Y-55674714D01*
X120619047Y-55746143D01*
X121928571Y-56817571D02*
X122166666Y-56817571D01*
X122285714Y-56746143D01*
X122345238Y-56674714D01*
X122464285Y-56460429D01*
X122523809Y-56174714D01*
X122523809Y-55603286D01*
X122464285Y-55460429D01*
X122404761Y-55389000D01*
X122285714Y-55317571D01*
X122047618Y-55317571D01*
X121928571Y-55389000D01*
X121869047Y-55460429D01*
X121809523Y-55603286D01*
X121809523Y-55960429D01*
X121869047Y-56103286D01*
X121928571Y-56174714D01*
X122047618Y-56246143D01*
X122285714Y-56246143D01*
X122404761Y-56174714D01*
X122464285Y-56103286D01*
X122523809Y-55960429D01*
X123952380Y-55246143D02*
X122880952Y-57174714D01*
X124607142Y-55317571D02*
X124726190Y-55317571D01*
X124845238Y-55389000D01*
X124904761Y-55460429D01*
X124964285Y-55603286D01*
X125023809Y-55889000D01*
X125023809Y-56246143D01*
X124964285Y-56531857D01*
X124904761Y-56674714D01*
X124845238Y-56746143D01*
X124726190Y-56817571D01*
X124607142Y-56817571D01*
X124488095Y-56746143D01*
X124428571Y-56674714D01*
X124369047Y-56531857D01*
X124309523Y-56246143D01*
X124309523Y-55889000D01*
X124369047Y-55603286D01*
X124428571Y-55460429D01*
X124488095Y-55389000D01*
X124607142Y-55317571D01*
X125499999Y-55460429D02*
X125559523Y-55389000D01*
X125678571Y-55317571D01*
X125976190Y-55317571D01*
X126095237Y-55389000D01*
X126154761Y-55460429D01*
X126214285Y-55603286D01*
X126214285Y-55746143D01*
X126154761Y-55960429D01*
X125440475Y-56817571D01*
X126214285Y-56817571D01*
X128416666Y-56817571D02*
X127999999Y-56103286D01*
X127702380Y-56817571D02*
X127702380Y-55317571D01*
X128178571Y-55317571D01*
X128297618Y-55389000D01*
X128357142Y-55460429D01*
X128416666Y-55603286D01*
X128416666Y-55817571D01*
X128357142Y-55960429D01*
X128297618Y-56031857D01*
X128178571Y-56103286D01*
X127702380Y-56103286D01*
X129428571Y-56746143D02*
X129309523Y-56817571D01*
X129071428Y-56817571D01*
X128952380Y-56746143D01*
X128892856Y-56603286D01*
X128892856Y-56031857D01*
X128952380Y-55889000D01*
X129071428Y-55817571D01*
X129309523Y-55817571D01*
X129428571Y-55889000D01*
X129488094Y-56031857D01*
X129488094Y-56174714D01*
X128892856Y-56317571D01*
X129904761Y-55817571D02*
X130202380Y-56817571D01*
X130500000Y-55817571D01*
X130976190Y-56674714D02*
X131035714Y-56746143D01*
X130976190Y-56817571D01*
X130916666Y-56746143D01*
X130976190Y-56674714D01*
X130976190Y-56817571D01*
X133178571Y-56817571D02*
X132464285Y-56817571D01*
X132821428Y-56817571D02*
X132821428Y-55317571D01*
X132702380Y-55531857D01*
X132583333Y-55674714D01*
X132464285Y-55746143D01*
X133714285Y-56674714D02*
X133773809Y-56746143D01*
X133714285Y-56817571D01*
X133654761Y-56746143D01*
X133714285Y-56674714D01*
X133714285Y-56817571D01*
X134547618Y-55317571D02*
X134666666Y-55317571D01*
X134785714Y-55389000D01*
X134845237Y-55460429D01*
X134904761Y-55603286D01*
X134964285Y-55889000D01*
X134964285Y-56246143D01*
X134904761Y-56531857D01*
X134845237Y-56674714D01*
X134785714Y-56746143D01*
X134666666Y-56817571D01*
X134547618Y-56817571D01*
X134428571Y-56746143D01*
X134369047Y-56674714D01*
X134309523Y-56531857D01*
X134249999Y-56246143D01*
X134249999Y-55889000D01*
X134309523Y-55603286D01*
X134369047Y-55460429D01*
X134428571Y-55389000D01*
X134547618Y-55317571D01*
X93771429Y-52278571D02*
X94271429Y-53778571D01*
X94771429Y-52278571D01*
X95271429Y-53207143D02*
X96414286Y-53207143D01*
X105571429Y-52278571D02*
X106071429Y-53778571D01*
X106571429Y-52278571D01*
X107071429Y-53207143D02*
X108214286Y-53207143D01*
X107642857Y-53778571D02*
X107642857Y-52635714D01*
D12*
X140600000Y-82030000D02*
X140100000Y-82030000D01*
X140100000Y-82970000D02*
X140600000Y-82970000D01*
X140650000Y-70830000D02*
X140150000Y-70830000D01*
X140150000Y-71770000D02*
X140650000Y-71770000D01*
X102600000Y-58980000D02*
X104600000Y-58980000D01*
X104600000Y-56020000D02*
X102600000Y-56020000D01*
X99300000Y-56020000D02*
X97300000Y-56020000D01*
X97300000Y-58980000D02*
X99300000Y-58980000D01*
X136050000Y-77900000D02*
X135350000Y-77900000D01*
X135350000Y-76700000D02*
X136050000Y-76700000D01*
X135300000Y-72350000D02*
X135300000Y-73050000D01*
X134100000Y-73050000D02*
X134100000Y-72350000D01*
X107500000Y-65980000D02*
X105500000Y-65980000D01*
X105500000Y-68020000D02*
X107500000Y-68020000D01*
X93180000Y-59500000D02*
X93180000Y-61500000D01*
X95220000Y-61500000D02*
X95220000Y-59500000D01*
X132300000Y-81950000D02*
X132300000Y-81250000D01*
X133500000Y-81250000D02*
X133500000Y-81950000D01*
X120700000Y-70250000D02*
X120700000Y-70950000D01*
X119500000Y-70950000D02*
X119500000Y-70250000D01*
X106520000Y-61600000D02*
X106520000Y-63600000D01*
X109480000Y-63600000D02*
X109480000Y-61600000D01*
X97000000Y-69080000D02*
X99000000Y-69080000D01*
X99000000Y-66120000D02*
X97000000Y-66120000D01*
X117900000Y-81700000D02*
X117900000Y-82400000D01*
X116700000Y-82400000D02*
X116700000Y-81700000D01*
X117950000Y-71600000D02*
X117950000Y-72300000D01*
X116750000Y-72300000D02*
X116750000Y-71600000D01*
X105502000Y-72294000D02*
X105502000Y-72994000D01*
X104302000Y-72994000D02*
X104302000Y-72294000D01*
X101254000Y-78328000D02*
X101254000Y-77628000D01*
X102454000Y-77628000D02*
X102454000Y-78328000D01*
X104294000Y-84182000D02*
X104294000Y-83482000D01*
X105494000Y-83482000D02*
X105494000Y-84182000D01*
X110840000Y-75276000D02*
X110140000Y-75276000D01*
X110140000Y-74076000D02*
X110840000Y-74076000D01*
X145200000Y-79200000D02*
X147200000Y-79200000D01*
X145200000Y-85800000D02*
X147200000Y-85800000D01*
X149500000Y-81500000D02*
X149500000Y-83500000D01*
X142900000Y-81500000D02*
X142900000Y-83500000D01*
X145100000Y-68000000D02*
X147100000Y-68000000D01*
X145100000Y-74600000D02*
X147100000Y-74600000D01*
X149400000Y-70300000D02*
X149400000Y-72300000D01*
X142800000Y-70300000D02*
X142800000Y-72300000D01*
X95266000Y-79250000D02*
X97266000Y-79250000D01*
X95266000Y-85850000D02*
X97266000Y-85850000D01*
X99566000Y-81550000D02*
X99566000Y-83550000D01*
X92966000Y-81550000D02*
X92966000Y-83550000D01*
X104830000Y-54530000D02*
X104830000Y-51870000D01*
X99690000Y-54530000D02*
X104830000Y-54530000D01*
X99690000Y-51870000D02*
X104830000Y-51870000D01*
X99690000Y-54530000D02*
X99690000Y-51870000D01*
X98420000Y-54530000D02*
X97090000Y-54530000D01*
X97090000Y-54530000D02*
X97090000Y-53200000D01*
X102250000Y-66620000D02*
X103250000Y-66620000D01*
X103250000Y-67980000D02*
X102250000Y-67980000D01*
X93220000Y-64850000D02*
X93220000Y-63850000D01*
X94580000Y-63850000D02*
X94580000Y-64850000D01*
X124770000Y-72050000D02*
X124770000Y-71050000D01*
X126130000Y-71050000D02*
X126130000Y-72050000D01*
X123630000Y-79950000D02*
X123630000Y-80950000D01*
X122270000Y-80950000D02*
X122270000Y-79950000D01*
X119420000Y-74150000D02*
X119420000Y-73150000D01*
X120780000Y-73150000D02*
X120780000Y-74150000D01*
X126480000Y-81300000D02*
X126480000Y-82300000D01*
X125120000Y-82300000D02*
X125120000Y-81300000D01*
X121300000Y-78030000D02*
X120300000Y-78030000D01*
X120300000Y-76670000D02*
X121300000Y-76670000D01*
X117100000Y-80380000D02*
X116100000Y-80380000D01*
X116100000Y-79020000D02*
X117100000Y-79020000D01*
X117150000Y-75080000D02*
X116150000Y-75080000D01*
X116150000Y-73720000D02*
X117150000Y-73720000D01*
X111270000Y-82200000D02*
X111270000Y-81200000D01*
X112630000Y-81200000D02*
X112630000Y-82200000D01*
X111220000Y-79450000D02*
X111220000Y-78450000D01*
X112580000Y-78450000D02*
X112580000Y-79450000D01*
X107434000Y-75864000D02*
X106434000Y-75864000D01*
X106434000Y-74504000D02*
X107434000Y-74504000D01*
X101174000Y-75442000D02*
X101174000Y-74442000D01*
X102534000Y-74442000D02*
X102534000Y-75442000D01*
X104652000Y-75864000D02*
X103652000Y-75864000D01*
X103652000Y-74504000D02*
X104652000Y-74504000D01*
D13*
X132054300Y-74342500D02*
X128345700Y-74342500D01*
X133725000Y-79742500D02*
X128341400Y-79742500D01*
X105900000Y-64230000D02*
X105835000Y-64230000D01*
X101650000Y-64230000D02*
X101715000Y-64230000D01*
X101650000Y-60980000D02*
X101715000Y-60980000D01*
X105900000Y-60980000D02*
X105900000Y-64230000D01*
X101650000Y-60980000D02*
X101650000Y-64230000D01*
X105900000Y-60980000D02*
X105900000Y-60055000D01*
X100000000Y-64320000D02*
X99935000Y-64320000D01*
X95750000Y-64320000D02*
X95815000Y-64320000D01*
X95750000Y-61070000D02*
X95815000Y-61070000D01*
X100000000Y-61070000D02*
X100000000Y-64320000D01*
X95750000Y-61070000D02*
X95750000Y-64320000D01*
X100000000Y-61070000D02*
X100000000Y-60145000D01*
D12*
X122350000Y-83650000D02*
X122350000Y-82950000D01*
X123550000Y-82950000D02*
X123550000Y-83650000D01*
X98610000Y-77426000D02*
X96610000Y-77426000D01*
X96610000Y-74466000D02*
X98610000Y-74466000D01*
D13*
X105525000Y-78350000D02*
X105525000Y-78525000D01*
X108875000Y-78350000D02*
X108875000Y-78600000D01*
X108875000Y-81700000D02*
X108875000Y-81450000D01*
X105525000Y-81700000D02*
X105525000Y-81450000D01*
X105525000Y-78350000D02*
X108875000Y-78350000D01*
X105525000Y-81700000D02*
X108875000Y-81700000D01*
X105525000Y-78525000D02*
X104275000Y-78525000D01*
X140183334Y-81587143D02*
X140135715Y-81634762D01*
X139992858Y-81682381D01*
X139897620Y-81682381D01*
X139754762Y-81634762D01*
X139659524Y-81539524D01*
X139611905Y-81444286D01*
X139564286Y-81253810D01*
X139564286Y-81110952D01*
X139611905Y-80920476D01*
X139659524Y-80825238D01*
X139754762Y-80730000D01*
X139897620Y-80682381D01*
X139992858Y-80682381D01*
X140135715Y-80730000D01*
X140183334Y-80777619D01*
X141135715Y-81682381D02*
X140564286Y-81682381D01*
X140850000Y-81682381D02*
X140850000Y-80682381D01*
X140754762Y-80825238D01*
X140659524Y-80920476D01*
X140564286Y-80968095D01*
X140233334Y-70387143D02*
X140185715Y-70434762D01*
X140042858Y-70482381D01*
X139947620Y-70482381D01*
X139804762Y-70434762D01*
X139709524Y-70339524D01*
X139661905Y-70244286D01*
X139614286Y-70053810D01*
X139614286Y-69910952D01*
X139661905Y-69720476D01*
X139709524Y-69625238D01*
X139804762Y-69530000D01*
X139947620Y-69482381D01*
X140042858Y-69482381D01*
X140185715Y-69530000D01*
X140233334Y-69577619D01*
X140614286Y-69577619D02*
X140661905Y-69530000D01*
X140757143Y-69482381D01*
X140995239Y-69482381D01*
X141090477Y-69530000D01*
X141138096Y-69577619D01*
X141185715Y-69672857D01*
X141185715Y-69768095D01*
X141138096Y-69910952D01*
X140566667Y-70482381D01*
X141185715Y-70482381D01*
X103433334Y-55657143D02*
X103385715Y-55704762D01*
X103242858Y-55752381D01*
X103147620Y-55752381D01*
X103004762Y-55704762D01*
X102909524Y-55609524D01*
X102861905Y-55514286D01*
X102814286Y-55323810D01*
X102814286Y-55180952D01*
X102861905Y-54990476D01*
X102909524Y-54895238D01*
X103004762Y-54800000D01*
X103147620Y-54752381D01*
X103242858Y-54752381D01*
X103385715Y-54800000D01*
X103433334Y-54847619D01*
X103766667Y-54752381D02*
X104385715Y-54752381D01*
X104052381Y-55133333D01*
X104195239Y-55133333D01*
X104290477Y-55180952D01*
X104338096Y-55228571D01*
X104385715Y-55323810D01*
X104385715Y-55561905D01*
X104338096Y-55657143D01*
X104290477Y-55704762D01*
X104195239Y-55752381D01*
X103909524Y-55752381D01*
X103814286Y-55704762D01*
X103766667Y-55657143D01*
X98133334Y-55607143D02*
X98085715Y-55654762D01*
X97942858Y-55702381D01*
X97847620Y-55702381D01*
X97704762Y-55654762D01*
X97609524Y-55559524D01*
X97561905Y-55464286D01*
X97514286Y-55273810D01*
X97514286Y-55130952D01*
X97561905Y-54940476D01*
X97609524Y-54845238D01*
X97704762Y-54750000D01*
X97847620Y-54702381D01*
X97942858Y-54702381D01*
X98085715Y-54750000D01*
X98133334Y-54797619D01*
X98990477Y-55035714D02*
X98990477Y-55702381D01*
X98752381Y-54654762D02*
X98514286Y-55369048D01*
X99133334Y-55369048D01*
X135533334Y-76157143D02*
X135485715Y-76204762D01*
X135342858Y-76252381D01*
X135247620Y-76252381D01*
X135104762Y-76204762D01*
X135009524Y-76109524D01*
X134961905Y-76014286D01*
X134914286Y-75823810D01*
X134914286Y-75680952D01*
X134961905Y-75490476D01*
X135009524Y-75395238D01*
X135104762Y-75300000D01*
X135247620Y-75252381D01*
X135342858Y-75252381D01*
X135485715Y-75300000D01*
X135533334Y-75347619D01*
X136438096Y-75252381D02*
X135961905Y-75252381D01*
X135914286Y-75728571D01*
X135961905Y-75680952D01*
X136057143Y-75633333D01*
X136295239Y-75633333D01*
X136390477Y-75680952D01*
X136438096Y-75728571D01*
X136485715Y-75823810D01*
X136485715Y-76061905D01*
X136438096Y-76157143D01*
X136390477Y-76204762D01*
X136295239Y-76252381D01*
X136057143Y-76252381D01*
X135961905Y-76204762D01*
X135914286Y-76157143D01*
X134453334Y-70461143D02*
X134405715Y-70508762D01*
X134262858Y-70556381D01*
X134167620Y-70556381D01*
X134024762Y-70508762D01*
X133929524Y-70413524D01*
X133881905Y-70318286D01*
X133834286Y-70127810D01*
X133834286Y-69984952D01*
X133881905Y-69794476D01*
X133929524Y-69699238D01*
X134024762Y-69604000D01*
X134167620Y-69556381D01*
X134262858Y-69556381D01*
X134405715Y-69604000D01*
X134453334Y-69651619D01*
X135310477Y-69556381D02*
X135120000Y-69556381D01*
X135024762Y-69604000D01*
X134977143Y-69651619D01*
X134881905Y-69794476D01*
X134834286Y-69984952D01*
X134834286Y-70365905D01*
X134881905Y-70461143D01*
X134929524Y-70508762D01*
X135024762Y-70556381D01*
X135215239Y-70556381D01*
X135310477Y-70508762D01*
X135358096Y-70461143D01*
X135405715Y-70365905D01*
X135405715Y-70127810D01*
X135358096Y-70032571D01*
X135310477Y-69984952D01*
X135215239Y-69937333D01*
X135024762Y-69937333D01*
X134929524Y-69984952D01*
X134881905Y-70032571D01*
X134834286Y-70127810D01*
X106333334Y-69257143D02*
X106285715Y-69304762D01*
X106142858Y-69352381D01*
X106047620Y-69352381D01*
X105904762Y-69304762D01*
X105809524Y-69209524D01*
X105761905Y-69114286D01*
X105714286Y-68923810D01*
X105714286Y-68780952D01*
X105761905Y-68590476D01*
X105809524Y-68495238D01*
X105904762Y-68400000D01*
X106047620Y-68352381D01*
X106142858Y-68352381D01*
X106285715Y-68400000D01*
X106333334Y-68447619D01*
X106666667Y-68352381D02*
X107333334Y-68352381D01*
X106904762Y-69352381D01*
X92807143Y-60666666D02*
X92854762Y-60714285D01*
X92902381Y-60857142D01*
X92902381Y-60952380D01*
X92854762Y-61095238D01*
X92759524Y-61190476D01*
X92664286Y-61238095D01*
X92473810Y-61285714D01*
X92330952Y-61285714D01*
X92140476Y-61238095D01*
X92045238Y-61190476D01*
X91950000Y-61095238D01*
X91902381Y-60952380D01*
X91902381Y-60857142D01*
X91950000Y-60714285D01*
X91997619Y-60666666D01*
X92330952Y-60095238D02*
X92283333Y-60190476D01*
X92235714Y-60238095D01*
X92140476Y-60285714D01*
X92092857Y-60285714D01*
X91997619Y-60238095D01*
X91950000Y-60190476D01*
X91902381Y-60095238D01*
X91902381Y-59904761D01*
X91950000Y-59809523D01*
X91997619Y-59761904D01*
X92092857Y-59714285D01*
X92140476Y-59714285D01*
X92235714Y-59761904D01*
X92283333Y-59809523D01*
X92330952Y-59904761D01*
X92330952Y-60095238D01*
X92378571Y-60190476D01*
X92426190Y-60238095D01*
X92521429Y-60285714D01*
X92711905Y-60285714D01*
X92807143Y-60238095D01*
X92854762Y-60190476D01*
X92902381Y-60095238D01*
X92902381Y-59904761D01*
X92854762Y-59809523D01*
X92807143Y-59761904D01*
X92711905Y-59714285D01*
X92521429Y-59714285D01*
X92426190Y-59761904D01*
X92378571Y-59809523D01*
X92330952Y-59904761D01*
X134757143Y-81766666D02*
X134804762Y-81814285D01*
X134852381Y-81957142D01*
X134852381Y-82052380D01*
X134804762Y-82195238D01*
X134709524Y-82290476D01*
X134614286Y-82338095D01*
X134423810Y-82385714D01*
X134280952Y-82385714D01*
X134090476Y-82338095D01*
X133995238Y-82290476D01*
X133900000Y-82195238D01*
X133852381Y-82052380D01*
X133852381Y-81957142D01*
X133900000Y-81814285D01*
X133947619Y-81766666D01*
X134852381Y-81290476D02*
X134852381Y-81100000D01*
X134804762Y-81004761D01*
X134757143Y-80957142D01*
X134614286Y-80861904D01*
X134423810Y-80814285D01*
X134042857Y-80814285D01*
X133947619Y-80861904D01*
X133900000Y-80909523D01*
X133852381Y-81004761D01*
X133852381Y-81195238D01*
X133900000Y-81290476D01*
X133947619Y-81338095D01*
X134042857Y-81385714D01*
X134280952Y-81385714D01*
X134376190Y-81338095D01*
X134423810Y-81290476D01*
X134471429Y-81195238D01*
X134471429Y-81004761D01*
X134423810Y-80909523D01*
X134376190Y-80861904D01*
X134280952Y-80814285D01*
X121531143Y-70207143D02*
X121483524Y-70254762D01*
X121340667Y-70302381D01*
X121245429Y-70302381D01*
X121102571Y-70254762D01*
X121007333Y-70159524D01*
X120959714Y-70064286D01*
X120912095Y-69873810D01*
X120912095Y-69730952D01*
X120959714Y-69540476D01*
X121007333Y-69445238D01*
X121102571Y-69350000D01*
X121245429Y-69302381D01*
X121340667Y-69302381D01*
X121483524Y-69350000D01*
X121531143Y-69397619D01*
X122483524Y-70302381D02*
X121912095Y-70302381D01*
X122197809Y-70302381D02*
X122197809Y-69302381D01*
X122102571Y-69445238D01*
X122007333Y-69540476D01*
X121912095Y-69588095D01*
X123102571Y-69302381D02*
X123197810Y-69302381D01*
X123293048Y-69350000D01*
X123340667Y-69397619D01*
X123388286Y-69492857D01*
X123435905Y-69683333D01*
X123435905Y-69921429D01*
X123388286Y-70111905D01*
X123340667Y-70207143D01*
X123293048Y-70254762D01*
X123197810Y-70302381D01*
X123102571Y-70302381D01*
X123007333Y-70254762D01*
X122959714Y-70207143D01*
X122912095Y-70111905D01*
X122864476Y-69921429D01*
X122864476Y-69683333D01*
X122912095Y-69492857D01*
X122959714Y-69397619D01*
X123007333Y-69350000D01*
X123102571Y-69302381D01*
X110557143Y-63242857D02*
X110604762Y-63290476D01*
X110652381Y-63433333D01*
X110652381Y-63528571D01*
X110604762Y-63671429D01*
X110509524Y-63766667D01*
X110414286Y-63814286D01*
X110223810Y-63861905D01*
X110080952Y-63861905D01*
X109890476Y-63814286D01*
X109795238Y-63766667D01*
X109700000Y-63671429D01*
X109652381Y-63528571D01*
X109652381Y-63433333D01*
X109700000Y-63290476D01*
X109747619Y-63242857D01*
X110652381Y-62290476D02*
X110652381Y-62861905D01*
X110652381Y-62576191D02*
X109652381Y-62576191D01*
X109795238Y-62671429D01*
X109890476Y-62766667D01*
X109938095Y-62861905D01*
X110652381Y-61338095D02*
X110652381Y-61909524D01*
X110652381Y-61623810D02*
X109652381Y-61623810D01*
X109795238Y-61719048D01*
X109890476Y-61814286D01*
X109938095Y-61909524D01*
X97357143Y-70207143D02*
X97309524Y-70254762D01*
X97166667Y-70302381D01*
X97071429Y-70302381D01*
X96928571Y-70254762D01*
X96833333Y-70159524D01*
X96785714Y-70064286D01*
X96738095Y-69873810D01*
X96738095Y-69730952D01*
X96785714Y-69540476D01*
X96833333Y-69445238D01*
X96928571Y-69350000D01*
X97071429Y-69302381D01*
X97166667Y-69302381D01*
X97309524Y-69350000D01*
X97357143Y-69397619D01*
X98309524Y-70302381D02*
X97738095Y-70302381D01*
X98023809Y-70302381D02*
X98023809Y-69302381D01*
X97928571Y-69445238D01*
X97833333Y-69540476D01*
X97738095Y-69588095D01*
X98690476Y-69397619D02*
X98738095Y-69350000D01*
X98833333Y-69302381D01*
X99071429Y-69302381D01*
X99166667Y-69350000D01*
X99214286Y-69397619D01*
X99261905Y-69492857D01*
X99261905Y-69588095D01*
X99214286Y-69730952D01*
X98642857Y-70302381D01*
X99261905Y-70302381D01*
X116157143Y-82692857D02*
X116204762Y-82740476D01*
X116252381Y-82883333D01*
X116252381Y-82978571D01*
X116204762Y-83121429D01*
X116109524Y-83216667D01*
X116014286Y-83264286D01*
X115823810Y-83311905D01*
X115680952Y-83311905D01*
X115490476Y-83264286D01*
X115395238Y-83216667D01*
X115300000Y-83121429D01*
X115252381Y-82978571D01*
X115252381Y-82883333D01*
X115300000Y-82740476D01*
X115347619Y-82692857D01*
X116252381Y-81740476D02*
X116252381Y-82311905D01*
X116252381Y-82026191D02*
X115252381Y-82026191D01*
X115395238Y-82121429D01*
X115490476Y-82216667D01*
X115538095Y-82311905D01*
X115252381Y-81407143D02*
X115252381Y-80788095D01*
X115633333Y-81121429D01*
X115633333Y-80978571D01*
X115680952Y-80883333D01*
X115728571Y-80835714D01*
X115823810Y-80788095D01*
X116061905Y-80788095D01*
X116157143Y-80835714D01*
X116204762Y-80883333D01*
X116252381Y-80978571D01*
X116252381Y-81264286D01*
X116204762Y-81359524D01*
X116157143Y-81407143D01*
X116207143Y-72592857D02*
X116254762Y-72640476D01*
X116302381Y-72783333D01*
X116302381Y-72878571D01*
X116254762Y-73021429D01*
X116159524Y-73116667D01*
X116064286Y-73164286D01*
X115873810Y-73211905D01*
X115730952Y-73211905D01*
X115540476Y-73164286D01*
X115445238Y-73116667D01*
X115350000Y-73021429D01*
X115302381Y-72878571D01*
X115302381Y-72783333D01*
X115350000Y-72640476D01*
X115397619Y-72592857D01*
X116302381Y-71640476D02*
X116302381Y-72211905D01*
X116302381Y-71926191D02*
X115302381Y-71926191D01*
X115445238Y-72021429D01*
X115540476Y-72116667D01*
X115588095Y-72211905D01*
X115635714Y-70783333D02*
X116302381Y-70783333D01*
X115254762Y-71021429D02*
X115969048Y-71259524D01*
X115969048Y-70640476D01*
X104259143Y-70969143D02*
X104211524Y-71016762D01*
X104068667Y-71064381D01*
X103973429Y-71064381D01*
X103830571Y-71016762D01*
X103735333Y-70921524D01*
X103687714Y-70826286D01*
X103640095Y-70635810D01*
X103640095Y-70492952D01*
X103687714Y-70302476D01*
X103735333Y-70207238D01*
X103830571Y-70112000D01*
X103973429Y-70064381D01*
X104068667Y-70064381D01*
X104211524Y-70112000D01*
X104259143Y-70159619D01*
X105211524Y-71064381D02*
X104640095Y-71064381D01*
X104925809Y-71064381D02*
X104925809Y-70064381D01*
X104830571Y-70207238D01*
X104735333Y-70302476D01*
X104640095Y-70350095D01*
X106116286Y-70064381D02*
X105640095Y-70064381D01*
X105592476Y-70540571D01*
X105640095Y-70492952D01*
X105735333Y-70445333D01*
X105973429Y-70445333D01*
X106068667Y-70492952D01*
X106116286Y-70540571D01*
X106163905Y-70635810D01*
X106163905Y-70873905D01*
X106116286Y-70969143D01*
X106068667Y-71016762D01*
X105973429Y-71064381D01*
X105735333Y-71064381D01*
X105640095Y-71016762D01*
X105592476Y-70969143D01*
X101211143Y-80367143D02*
X101163524Y-80414762D01*
X101020667Y-80462381D01*
X100925429Y-80462381D01*
X100782571Y-80414762D01*
X100687333Y-80319524D01*
X100639714Y-80224286D01*
X100592095Y-80033810D01*
X100592095Y-79890952D01*
X100639714Y-79700476D01*
X100687333Y-79605238D01*
X100782571Y-79510000D01*
X100925429Y-79462381D01*
X101020667Y-79462381D01*
X101163524Y-79510000D01*
X101211143Y-79557619D01*
X102163524Y-80462381D02*
X101592095Y-80462381D01*
X101877809Y-80462381D02*
X101877809Y-79462381D01*
X101782571Y-79605238D01*
X101687333Y-79700476D01*
X101592095Y-79748095D01*
X103020667Y-79462381D02*
X102830190Y-79462381D01*
X102734952Y-79510000D01*
X102687333Y-79557619D01*
X102592095Y-79700476D01*
X102544476Y-79890952D01*
X102544476Y-80271905D01*
X102592095Y-80367143D01*
X102639714Y-80414762D01*
X102734952Y-80462381D01*
X102925429Y-80462381D01*
X103020667Y-80414762D01*
X103068286Y-80367143D01*
X103115905Y-80271905D01*
X103115905Y-80033810D01*
X103068286Y-79938571D01*
X103020667Y-79890952D01*
X102925429Y-79843333D01*
X102734952Y-79843333D01*
X102639714Y-79890952D01*
X102592095Y-79938571D01*
X102544476Y-80033810D01*
X103981143Y-84474857D02*
X104028762Y-84522476D01*
X104076381Y-84665333D01*
X104076381Y-84760571D01*
X104028762Y-84903429D01*
X103933524Y-84998667D01*
X103838286Y-85046286D01*
X103647810Y-85093905D01*
X103504952Y-85093905D01*
X103314476Y-85046286D01*
X103219238Y-84998667D01*
X103124000Y-84903429D01*
X103076381Y-84760571D01*
X103076381Y-84665333D01*
X103124000Y-84522476D01*
X103171619Y-84474857D01*
X104076381Y-83522476D02*
X104076381Y-84093905D01*
X104076381Y-83808191D02*
X103076381Y-83808191D01*
X103219238Y-83903429D01*
X103314476Y-83998667D01*
X103362095Y-84093905D01*
X103076381Y-83189143D02*
X103076381Y-82522476D01*
X104076381Y-82951048D01*
X109847143Y-73533143D02*
X109799524Y-73580762D01*
X109656667Y-73628381D01*
X109561429Y-73628381D01*
X109418571Y-73580762D01*
X109323333Y-73485524D01*
X109275714Y-73390286D01*
X109228095Y-73199810D01*
X109228095Y-73056952D01*
X109275714Y-72866476D01*
X109323333Y-72771238D01*
X109418571Y-72676000D01*
X109561429Y-72628381D01*
X109656667Y-72628381D01*
X109799524Y-72676000D01*
X109847143Y-72723619D01*
X110799524Y-73628381D02*
X110228095Y-73628381D01*
X110513809Y-73628381D02*
X110513809Y-72628381D01*
X110418571Y-72771238D01*
X110323333Y-72866476D01*
X110228095Y-72914095D01*
X111370952Y-73056952D02*
X111275714Y-73009333D01*
X111228095Y-72961714D01*
X111180476Y-72866476D01*
X111180476Y-72818857D01*
X111228095Y-72723619D01*
X111275714Y-72676000D01*
X111370952Y-72628381D01*
X111561429Y-72628381D01*
X111656667Y-72676000D01*
X111704286Y-72723619D01*
X111751905Y-72818857D01*
X111751905Y-72866476D01*
X111704286Y-72961714D01*
X111656667Y-73009333D01*
X111561429Y-73056952D01*
X111370952Y-73056952D01*
X111275714Y-73104571D01*
X111228095Y-73152190D01*
X111180476Y-73247429D01*
X111180476Y-73437905D01*
X111228095Y-73533143D01*
X111275714Y-73580762D01*
X111370952Y-73628381D01*
X111561429Y-73628381D01*
X111656667Y-73580762D01*
X111704286Y-73533143D01*
X111751905Y-73437905D01*
X111751905Y-73247429D01*
X111704286Y-73152190D01*
X111656667Y-73104571D01*
X111561429Y-73056952D01*
X145628572Y-87952381D02*
X145295238Y-87476190D01*
X145057143Y-87952381D02*
X145057143Y-86952381D01*
X145438096Y-86952381D01*
X145533334Y-87000000D01*
X145580953Y-87047619D01*
X145628572Y-87142857D01*
X145628572Y-87285714D01*
X145580953Y-87380952D01*
X145533334Y-87428571D01*
X145438096Y-87476190D01*
X145057143Y-87476190D01*
X146057143Y-87428571D02*
X146390477Y-87428571D01*
X146533334Y-87952381D02*
X146057143Y-87952381D01*
X146057143Y-86952381D01*
X146533334Y-86952381D01*
X147295239Y-87428571D02*
X146961905Y-87428571D01*
X146961905Y-87952381D02*
X146961905Y-86952381D01*
X147438096Y-86952381D01*
X145576191Y-76752381D02*
X145576191Y-75752381D01*
X146052381Y-76752381D02*
X146052381Y-75752381D01*
X146623810Y-76752381D01*
X146623810Y-75752381D01*
X95432666Y-87002381D02*
X95623143Y-87002381D01*
X95718381Y-87050000D01*
X95813619Y-87145238D01*
X95861238Y-87335714D01*
X95861238Y-87669048D01*
X95813619Y-87859524D01*
X95718381Y-87954762D01*
X95623143Y-88002381D01*
X95432666Y-88002381D01*
X95337428Y-87954762D01*
X95242190Y-87859524D01*
X95194571Y-87669048D01*
X95194571Y-87335714D01*
X95242190Y-87145238D01*
X95337428Y-87050000D01*
X95432666Y-87002381D01*
X96718381Y-87335714D02*
X96718381Y-88002381D01*
X96289809Y-87335714D02*
X96289809Y-87859524D01*
X96337428Y-87954762D01*
X96432666Y-88002381D01*
X96575524Y-88002381D01*
X96670762Y-87954762D01*
X96718381Y-87907143D01*
X97051714Y-87335714D02*
X97432666Y-87335714D01*
X97194571Y-87002381D02*
X97194571Y-87859524D01*
X97242190Y-87954762D01*
X97337428Y-88002381D01*
X97432666Y-88002381D01*
X102583334Y-69202381D02*
X102250000Y-68726190D01*
X102011905Y-69202381D02*
X102011905Y-68202381D01*
X102392858Y-68202381D01*
X102488096Y-68250000D01*
X102535715Y-68297619D01*
X102583334Y-68392857D01*
X102583334Y-68535714D01*
X102535715Y-68630952D01*
X102488096Y-68678571D01*
X102392858Y-68726190D01*
X102011905Y-68726190D01*
X103535715Y-69202381D02*
X102964286Y-69202381D01*
X103250000Y-69202381D02*
X103250000Y-68202381D01*
X103154762Y-68345238D01*
X103059524Y-68440476D01*
X102964286Y-68488095D01*
X92952381Y-64516666D02*
X92476190Y-64850000D01*
X92952381Y-65088095D02*
X91952381Y-65088095D01*
X91952381Y-64707142D01*
X92000000Y-64611904D01*
X92047619Y-64564285D01*
X92142857Y-64516666D01*
X92285714Y-64516666D01*
X92380952Y-64564285D01*
X92428571Y-64611904D01*
X92476190Y-64707142D01*
X92476190Y-65088095D01*
X92047619Y-64135714D02*
X92000000Y-64088095D01*
X91952381Y-63992857D01*
X91952381Y-63754761D01*
X92000000Y-63659523D01*
X92047619Y-63611904D01*
X92142857Y-63564285D01*
X92238095Y-63564285D01*
X92380952Y-63611904D01*
X92952381Y-64183333D01*
X92952381Y-63564285D01*
X127352381Y-71716666D02*
X126876190Y-72050000D01*
X127352381Y-72288095D02*
X126352381Y-72288095D01*
X126352381Y-71907142D01*
X126400000Y-71811904D01*
X126447619Y-71764285D01*
X126542857Y-71716666D01*
X126685714Y-71716666D01*
X126780952Y-71764285D01*
X126828571Y-71811904D01*
X126876190Y-71907142D01*
X126876190Y-72288095D01*
X126352381Y-71383333D02*
X126352381Y-70764285D01*
X126733333Y-71097619D01*
X126733333Y-70954761D01*
X126780952Y-70859523D01*
X126828571Y-70811904D01*
X126923810Y-70764285D01*
X127161905Y-70764285D01*
X127257143Y-70811904D01*
X127304762Y-70859523D01*
X127352381Y-70954761D01*
X127352381Y-71240476D01*
X127304762Y-71335714D01*
X127257143Y-71383333D01*
X121952381Y-80616666D02*
X121476190Y-80950000D01*
X121952381Y-81188095D02*
X120952381Y-81188095D01*
X120952381Y-80807142D01*
X121000000Y-80711904D01*
X121047619Y-80664285D01*
X121142857Y-80616666D01*
X121285714Y-80616666D01*
X121380952Y-80664285D01*
X121428571Y-80711904D01*
X121476190Y-80807142D01*
X121476190Y-81188095D01*
X121285714Y-79759523D02*
X121952381Y-79759523D01*
X120904762Y-79997619D02*
X121619048Y-80235714D01*
X121619048Y-79616666D01*
X121499334Y-72842381D02*
X121166000Y-72366190D01*
X120927905Y-72842381D02*
X120927905Y-71842381D01*
X121308858Y-71842381D01*
X121404096Y-71890000D01*
X121451715Y-71937619D01*
X121499334Y-72032857D01*
X121499334Y-72175714D01*
X121451715Y-72270952D01*
X121404096Y-72318571D01*
X121308858Y-72366190D01*
X120927905Y-72366190D01*
X122404096Y-71842381D02*
X121927905Y-71842381D01*
X121880286Y-72318571D01*
X121927905Y-72270952D01*
X122023143Y-72223333D01*
X122261239Y-72223333D01*
X122356477Y-72270952D01*
X122404096Y-72318571D01*
X122451715Y-72413810D01*
X122451715Y-72651905D01*
X122404096Y-72747143D01*
X122356477Y-72794762D01*
X122261239Y-72842381D01*
X122023143Y-72842381D01*
X121927905Y-72794762D01*
X121880286Y-72747143D01*
X124912381Y-82462666D02*
X124436190Y-82796000D01*
X124912381Y-83034095D02*
X123912381Y-83034095D01*
X123912381Y-82653142D01*
X123960000Y-82557904D01*
X124007619Y-82510285D01*
X124102857Y-82462666D01*
X124245714Y-82462666D01*
X124340952Y-82510285D01*
X124388571Y-82557904D01*
X124436190Y-82653142D01*
X124436190Y-83034095D01*
X123912381Y-81605523D02*
X123912381Y-81796000D01*
X123960000Y-81891238D01*
X124007619Y-81938857D01*
X124150476Y-82034095D01*
X124340952Y-82081714D01*
X124721905Y-82081714D01*
X124817143Y-82034095D01*
X124864762Y-81986476D01*
X124912381Y-81891238D01*
X124912381Y-81700761D01*
X124864762Y-81605523D01*
X124817143Y-81557904D01*
X124721905Y-81510285D01*
X124483810Y-81510285D01*
X124388571Y-81557904D01*
X124340952Y-81605523D01*
X124293333Y-81700761D01*
X124293333Y-81891238D01*
X124340952Y-81986476D01*
X124388571Y-82034095D01*
X124483810Y-82081714D01*
X118451334Y-77922381D02*
X118118000Y-77446190D01*
X117879905Y-77922381D02*
X117879905Y-76922381D01*
X118260858Y-76922381D01*
X118356096Y-76970000D01*
X118403715Y-77017619D01*
X118451334Y-77112857D01*
X118451334Y-77255714D01*
X118403715Y-77350952D01*
X118356096Y-77398571D01*
X118260858Y-77446190D01*
X117879905Y-77446190D01*
X118784667Y-76922381D02*
X119451334Y-76922381D01*
X119022762Y-77922381D01*
X115403334Y-78702381D02*
X115070000Y-78226190D01*
X114831905Y-78702381D02*
X114831905Y-77702381D01*
X115212858Y-77702381D01*
X115308096Y-77750000D01*
X115355715Y-77797619D01*
X115403334Y-77892857D01*
X115403334Y-78035714D01*
X115355715Y-78130952D01*
X115308096Y-78178571D01*
X115212858Y-78226190D01*
X114831905Y-78226190D01*
X115974762Y-78130952D02*
X115879524Y-78083333D01*
X115831905Y-78035714D01*
X115784286Y-77940476D01*
X115784286Y-77892857D01*
X115831905Y-77797619D01*
X115879524Y-77750000D01*
X115974762Y-77702381D01*
X116165239Y-77702381D01*
X116260477Y-77750000D01*
X116308096Y-77797619D01*
X116355715Y-77892857D01*
X116355715Y-77940476D01*
X116308096Y-78035714D01*
X116260477Y-78083333D01*
X116165239Y-78130952D01*
X115974762Y-78130952D01*
X115879524Y-78178571D01*
X115831905Y-78226190D01*
X115784286Y-78321429D01*
X115784286Y-78511905D01*
X115831905Y-78607143D01*
X115879524Y-78654762D01*
X115974762Y-78702381D01*
X116165239Y-78702381D01*
X116260477Y-78654762D01*
X116308096Y-78607143D01*
X116355715Y-78511905D01*
X116355715Y-78321429D01*
X116308096Y-78226190D01*
X116260477Y-78178571D01*
X116165239Y-78130952D01*
X114387334Y-74874381D02*
X114054000Y-74398190D01*
X113815905Y-74874381D02*
X113815905Y-73874381D01*
X114196858Y-73874381D01*
X114292096Y-73922000D01*
X114339715Y-73969619D01*
X114387334Y-74064857D01*
X114387334Y-74207714D01*
X114339715Y-74302952D01*
X114292096Y-74350571D01*
X114196858Y-74398190D01*
X113815905Y-74398190D01*
X114863524Y-74874381D02*
X115054000Y-74874381D01*
X115149239Y-74826762D01*
X115196858Y-74779143D01*
X115292096Y-74636286D01*
X115339715Y-74445810D01*
X115339715Y-74064857D01*
X115292096Y-73969619D01*
X115244477Y-73922000D01*
X115149239Y-73874381D01*
X114958762Y-73874381D01*
X114863524Y-73922000D01*
X114815905Y-73969619D01*
X114768286Y-74064857D01*
X114768286Y-74302952D01*
X114815905Y-74398190D01*
X114863524Y-74445810D01*
X114958762Y-74493429D01*
X115149239Y-74493429D01*
X115244477Y-74445810D01*
X115292096Y-74398190D01*
X115339715Y-74302952D01*
X111371143Y-84272381D02*
X111037809Y-83796190D01*
X110799714Y-84272381D02*
X110799714Y-83272381D01*
X111180667Y-83272381D01*
X111275905Y-83320000D01*
X111323524Y-83367619D01*
X111371143Y-83462857D01*
X111371143Y-83605714D01*
X111323524Y-83700952D01*
X111275905Y-83748571D01*
X111180667Y-83796190D01*
X110799714Y-83796190D01*
X112323524Y-84272381D02*
X111752095Y-84272381D01*
X112037809Y-84272381D02*
X112037809Y-83272381D01*
X111942571Y-83415238D01*
X111847333Y-83510476D01*
X111752095Y-83558095D01*
X112942571Y-83272381D02*
X113037810Y-83272381D01*
X113133048Y-83320000D01*
X113180667Y-83367619D01*
X113228286Y-83462857D01*
X113275905Y-83653333D01*
X113275905Y-83891429D01*
X113228286Y-84081905D01*
X113180667Y-84177143D01*
X113133048Y-84224762D01*
X113037810Y-84272381D01*
X112942571Y-84272381D01*
X112847333Y-84224762D01*
X112799714Y-84177143D01*
X112752095Y-84081905D01*
X112704476Y-83891429D01*
X112704476Y-83653333D01*
X112752095Y-83462857D01*
X112799714Y-83367619D01*
X112847333Y-83320000D01*
X112942571Y-83272381D01*
X111879143Y-77414381D02*
X111545809Y-76938190D01*
X111307714Y-77414381D02*
X111307714Y-76414381D01*
X111688667Y-76414381D01*
X111783905Y-76462000D01*
X111831524Y-76509619D01*
X111879143Y-76604857D01*
X111879143Y-76747714D01*
X111831524Y-76842952D01*
X111783905Y-76890571D01*
X111688667Y-76938190D01*
X111307714Y-76938190D01*
X112831524Y-77414381D02*
X112260095Y-77414381D01*
X112545809Y-77414381D02*
X112545809Y-76414381D01*
X112450571Y-76557238D01*
X112355333Y-76652476D01*
X112260095Y-76700095D01*
X113783905Y-77414381D02*
X113212476Y-77414381D01*
X113498190Y-77414381D02*
X113498190Y-76414381D01*
X113402952Y-76557238D01*
X113307714Y-76652476D01*
X113212476Y-76700095D01*
X106291143Y-74186381D02*
X105957809Y-73710190D01*
X105719714Y-74186381D02*
X105719714Y-73186381D01*
X106100667Y-73186381D01*
X106195905Y-73234000D01*
X106243524Y-73281619D01*
X106291143Y-73376857D01*
X106291143Y-73519714D01*
X106243524Y-73614952D01*
X106195905Y-73662571D01*
X106100667Y-73710190D01*
X105719714Y-73710190D01*
X107243524Y-74186381D02*
X106672095Y-74186381D01*
X106957809Y-74186381D02*
X106957809Y-73186381D01*
X106862571Y-73329238D01*
X106767333Y-73424476D01*
X106672095Y-73472095D01*
X107624476Y-73281619D02*
X107672095Y-73234000D01*
X107767333Y-73186381D01*
X108005429Y-73186381D01*
X108100667Y-73234000D01*
X108148286Y-73281619D01*
X108195905Y-73376857D01*
X108195905Y-73472095D01*
X108148286Y-73614952D01*
X107576857Y-74186381D01*
X108195905Y-74186381D01*
X101036381Y-75572857D02*
X100560190Y-75906191D01*
X101036381Y-76144286D02*
X100036381Y-76144286D01*
X100036381Y-75763333D01*
X100084000Y-75668095D01*
X100131619Y-75620476D01*
X100226857Y-75572857D01*
X100369714Y-75572857D01*
X100464952Y-75620476D01*
X100512571Y-75668095D01*
X100560190Y-75763333D01*
X100560190Y-76144286D01*
X101036381Y-74620476D02*
X101036381Y-75191905D01*
X101036381Y-74906191D02*
X100036381Y-74906191D01*
X100179238Y-75001429D01*
X100274476Y-75096667D01*
X100322095Y-75191905D01*
X100036381Y-74287143D02*
X100036381Y-73668095D01*
X100417333Y-74001429D01*
X100417333Y-73858571D01*
X100464952Y-73763333D01*
X100512571Y-73715714D01*
X100607810Y-73668095D01*
X100845905Y-73668095D01*
X100941143Y-73715714D01*
X100988762Y-73763333D01*
X101036381Y-73858571D01*
X101036381Y-74144286D01*
X100988762Y-74239524D01*
X100941143Y-74287143D01*
X103830381Y-73540857D02*
X103354190Y-73874191D01*
X103830381Y-74112286D02*
X102830381Y-74112286D01*
X102830381Y-73731333D01*
X102878000Y-73636095D01*
X102925619Y-73588476D01*
X103020857Y-73540857D01*
X103163714Y-73540857D01*
X103258952Y-73588476D01*
X103306571Y-73636095D01*
X103354190Y-73731333D01*
X103354190Y-74112286D01*
X103830381Y-72588476D02*
X103830381Y-73159905D01*
X103830381Y-72874191D02*
X102830381Y-72874191D01*
X102973238Y-72969429D01*
X103068476Y-73064667D01*
X103116095Y-73159905D01*
X103163714Y-71731333D02*
X103830381Y-71731333D01*
X102782762Y-71969429D02*
X103497048Y-72207524D01*
X103497048Y-71588476D01*
X129438095Y-79969881D02*
X129438095Y-80779405D01*
X129485714Y-80874643D01*
X129533333Y-80922262D01*
X129628571Y-80969881D01*
X129819048Y-80969881D01*
X129914286Y-80922262D01*
X129961905Y-80874643D01*
X130009524Y-80779405D01*
X130009524Y-79969881D01*
X131009524Y-80969881D02*
X130438095Y-80969881D01*
X130723809Y-80969881D02*
X130723809Y-79969881D01*
X130628571Y-80112738D01*
X130533333Y-80207976D01*
X130438095Y-80255595D01*
X106238095Y-58852381D02*
X106238095Y-59661905D01*
X106285714Y-59757143D01*
X106333333Y-59804762D01*
X106428571Y-59852381D01*
X106619048Y-59852381D01*
X106714286Y-59804762D01*
X106761905Y-59757143D01*
X106809524Y-59661905D01*
X106809524Y-58852381D01*
X107238095Y-58947619D02*
X107285714Y-58900000D01*
X107380952Y-58852381D01*
X107619048Y-58852381D01*
X107714286Y-58900000D01*
X107761905Y-58947619D01*
X107809524Y-59042857D01*
X107809524Y-59138095D01*
X107761905Y-59280952D01*
X107190476Y-59852381D01*
X107809524Y-59852381D01*
X100377381Y-63456905D02*
X101186905Y-63456905D01*
X101282143Y-63409286D01*
X101329762Y-63361667D01*
X101377381Y-63266429D01*
X101377381Y-63075952D01*
X101329762Y-62980714D01*
X101282143Y-62933095D01*
X101186905Y-62885476D01*
X100377381Y-62885476D01*
X100377381Y-62504524D02*
X100377381Y-61885476D01*
X100758333Y-62218810D01*
X100758333Y-62075952D01*
X100805952Y-61980714D01*
X100853571Y-61933095D01*
X100948810Y-61885476D01*
X101186905Y-61885476D01*
X101282143Y-61933095D01*
X101329762Y-61980714D01*
X101377381Y-62075952D01*
X101377381Y-62361667D01*
X101329762Y-62456905D01*
X101282143Y-62504524D01*
X122023143Y-83954857D02*
X122070762Y-84002476D01*
X122118381Y-84145333D01*
X122118381Y-84240571D01*
X122070762Y-84383429D01*
X121975524Y-84478667D01*
X121880286Y-84526286D01*
X121689810Y-84573905D01*
X121546952Y-84573905D01*
X121356476Y-84526286D01*
X121261238Y-84478667D01*
X121166000Y-84383429D01*
X121118381Y-84240571D01*
X121118381Y-84145333D01*
X121166000Y-84002476D01*
X121213619Y-83954857D01*
X122118381Y-83002476D02*
X122118381Y-83573905D01*
X122118381Y-83288191D02*
X121118381Y-83288191D01*
X121261238Y-83383429D01*
X121356476Y-83478667D01*
X121404095Y-83573905D01*
X122118381Y-82526286D02*
X122118381Y-82335810D01*
X122070762Y-82240571D01*
X122023143Y-82192952D01*
X121880286Y-82097714D01*
X121689810Y-82050095D01*
X121308857Y-82050095D01*
X121213619Y-82097714D01*
X121166000Y-82145333D01*
X121118381Y-82240571D01*
X121118381Y-82431048D01*
X121166000Y-82526286D01*
X121213619Y-82573905D01*
X121308857Y-82621524D01*
X121546952Y-82621524D01*
X121642190Y-82573905D01*
X121689810Y-82526286D01*
X121737429Y-82431048D01*
X121737429Y-82240571D01*
X121689810Y-82145333D01*
X121642190Y-82097714D01*
X121546952Y-82050095D01*
X96967143Y-74148381D02*
X96633809Y-73672190D01*
X96395714Y-74148381D02*
X96395714Y-73148381D01*
X96776667Y-73148381D01*
X96871905Y-73196000D01*
X96919524Y-73243619D01*
X96967143Y-73338857D01*
X96967143Y-73481714D01*
X96919524Y-73576952D01*
X96871905Y-73624571D01*
X96776667Y-73672190D01*
X96395714Y-73672190D01*
X97919524Y-74148381D02*
X97348095Y-74148381D01*
X97633809Y-74148381D02*
X97633809Y-73148381D01*
X97538571Y-73291238D01*
X97443333Y-73386476D01*
X97348095Y-73434095D01*
X98824286Y-73148381D02*
X98348095Y-73148381D01*
X98300476Y-73624571D01*
X98348095Y-73576952D01*
X98443333Y-73529333D01*
X98681429Y-73529333D01*
X98776667Y-73576952D01*
X98824286Y-73624571D01*
X98871905Y-73719810D01*
X98871905Y-73957905D01*
X98824286Y-74053143D01*
X98776667Y-74100762D01*
X98681429Y-74148381D01*
X98443333Y-74148381D01*
X98348095Y-74100762D01*
X98300476Y-74053143D01*
X106438095Y-76877381D02*
X106438095Y-77686905D01*
X106485714Y-77782143D01*
X106533333Y-77829762D01*
X106628571Y-77877381D01*
X106819048Y-77877381D01*
X106914286Y-77829762D01*
X106961905Y-77782143D01*
X107009524Y-77686905D01*
X107009524Y-76877381D01*
X107914286Y-77210714D02*
X107914286Y-77877381D01*
X107676190Y-76829762D02*
X107438095Y-77544048D01*
X108057143Y-77544048D01*
M02*
