G04 #@! TF.GenerationSoftware,KiCad,Pcbnew,(5.1.5)-3*
G04 #@! TF.CreationDate,2020-11-23T23:15:06+01:00*
G04 #@! TF.ProjectId,PFD_HMC439QS16G,5046445f-484d-4433-9433-395153313647,1.1*
G04 #@! TF.SameCoordinates,Original*
G04 #@! TF.FileFunction,Legend,Bot*
G04 #@! TF.FilePolarity,Positive*
%FSLAX46Y46*%
G04 Gerber Fmt 4.6, Leading zero omitted, Abs format (unit mm)*
G04 Created by KiCad (PCBNEW (5.1.5)-3) date 2020-11-23 23:15:06*
%MOMM*%
%LPD*%
G04 APERTURE LIST*
%ADD10C,0.010000*%
G04 APERTURE END LIST*
D10*
G36*
X171766786Y-117880139D02*
G01*
X171615368Y-117881181D01*
X171498683Y-117884145D01*
X171406119Y-117890060D01*
X171327062Y-117899951D01*
X171250896Y-117914847D01*
X171167008Y-117935772D01*
X171153023Y-117939516D01*
X170862869Y-118040250D01*
X170595309Y-118178979D01*
X170353326Y-118353213D01*
X170139905Y-118560467D01*
X169958029Y-118798253D01*
X169815064Y-119054678D01*
X169731969Y-119258601D01*
X169673332Y-119467963D01*
X169636252Y-119695596D01*
X169619143Y-119921394D01*
X169622054Y-120255223D01*
X169661734Y-120563691D01*
X169739026Y-120849125D01*
X169854774Y-121113849D01*
X170009819Y-121360189D01*
X170205004Y-121590472D01*
X170234956Y-121620937D01*
X170456295Y-121816500D01*
X170690889Y-121971647D01*
X170946531Y-122090986D01*
X171135724Y-122153854D01*
X171253995Y-122179662D01*
X171403738Y-122200474D01*
X171571249Y-122215339D01*
X171742822Y-122223310D01*
X171904753Y-122223438D01*
X172032462Y-122215912D01*
X172269147Y-122176899D01*
X172513177Y-122108784D01*
X172752483Y-122016426D01*
X172974996Y-121904685D01*
X173168647Y-121778419D01*
X173220137Y-121737747D01*
X173413802Y-121547838D01*
X173578561Y-121325038D01*
X173712694Y-121072762D01*
X173814481Y-120794424D01*
X173882203Y-120493440D01*
X173896110Y-120395268D01*
X173918669Y-120051926D01*
X173918221Y-120043750D01*
X172769799Y-120043750D01*
X172756071Y-120313973D01*
X172712314Y-120551240D01*
X172637779Y-120757234D01*
X172531718Y-120933638D01*
X172393384Y-121082135D01*
X172265689Y-121177695D01*
X172159493Y-121239022D01*
X172059603Y-121278883D01*
X171951801Y-121300725D01*
X171821871Y-121307998D01*
X171732768Y-121306954D01*
X171616089Y-121301720D01*
X171529679Y-121291662D01*
X171458495Y-121273986D01*
X171387495Y-121245903D01*
X171376305Y-121240793D01*
X171242011Y-121160974D01*
X171110281Y-121051219D01*
X170996385Y-120925136D01*
X170953045Y-120863617D01*
X170876705Y-120711827D01*
X170817553Y-120528326D01*
X170777588Y-120324143D01*
X170758812Y-120110304D01*
X170763223Y-119897838D01*
X170768312Y-119845092D01*
X170805330Y-119615291D01*
X170861592Y-119421242D01*
X170939812Y-119256456D01*
X171042709Y-119114446D01*
X171099103Y-119054955D01*
X171259903Y-118927246D01*
X171436653Y-118838650D01*
X171623394Y-118789164D01*
X171814166Y-118778788D01*
X172003009Y-118807520D01*
X172183965Y-118875358D01*
X172351073Y-118982300D01*
X172432435Y-119055282D01*
X172556616Y-119202991D01*
X172650672Y-119368858D01*
X172716363Y-119558039D01*
X172755450Y-119775694D01*
X172769694Y-120026980D01*
X172769799Y-120043750D01*
X173918221Y-120043750D01*
X173900706Y-119724671D01*
X173842751Y-119415131D01*
X173745329Y-119124933D01*
X173608969Y-118855704D01*
X173434197Y-118609073D01*
X173255358Y-118417967D01*
X173038311Y-118242640D01*
X172790274Y-118095890D01*
X172518293Y-117981595D01*
X172388479Y-117941370D01*
X172301869Y-117918368D01*
X172227258Y-117901863D01*
X172154117Y-117890815D01*
X172071918Y-117884189D01*
X171970132Y-117880947D01*
X171838229Y-117880053D01*
X171766786Y-117880139D01*
G37*
X171766786Y-117880139D02*
X171615368Y-117881181D01*
X171498683Y-117884145D01*
X171406119Y-117890060D01*
X171327062Y-117899951D01*
X171250896Y-117914847D01*
X171167008Y-117935772D01*
X171153023Y-117939516D01*
X170862869Y-118040250D01*
X170595309Y-118178979D01*
X170353326Y-118353213D01*
X170139905Y-118560467D01*
X169958029Y-118798253D01*
X169815064Y-119054678D01*
X169731969Y-119258601D01*
X169673332Y-119467963D01*
X169636252Y-119695596D01*
X169619143Y-119921394D01*
X169622054Y-120255223D01*
X169661734Y-120563691D01*
X169739026Y-120849125D01*
X169854774Y-121113849D01*
X170009819Y-121360189D01*
X170205004Y-121590472D01*
X170234956Y-121620937D01*
X170456295Y-121816500D01*
X170690889Y-121971647D01*
X170946531Y-122090986D01*
X171135724Y-122153854D01*
X171253995Y-122179662D01*
X171403738Y-122200474D01*
X171571249Y-122215339D01*
X171742822Y-122223310D01*
X171904753Y-122223438D01*
X172032462Y-122215912D01*
X172269147Y-122176899D01*
X172513177Y-122108784D01*
X172752483Y-122016426D01*
X172974996Y-121904685D01*
X173168647Y-121778419D01*
X173220137Y-121737747D01*
X173413802Y-121547838D01*
X173578561Y-121325038D01*
X173712694Y-121072762D01*
X173814481Y-120794424D01*
X173882203Y-120493440D01*
X173896110Y-120395268D01*
X173918669Y-120051926D01*
X173918221Y-120043750D01*
X172769799Y-120043750D01*
X172756071Y-120313973D01*
X172712314Y-120551240D01*
X172637779Y-120757234D01*
X172531718Y-120933638D01*
X172393384Y-121082135D01*
X172265689Y-121177695D01*
X172159493Y-121239022D01*
X172059603Y-121278883D01*
X171951801Y-121300725D01*
X171821871Y-121307998D01*
X171732768Y-121306954D01*
X171616089Y-121301720D01*
X171529679Y-121291662D01*
X171458495Y-121273986D01*
X171387495Y-121245903D01*
X171376305Y-121240793D01*
X171242011Y-121160974D01*
X171110281Y-121051219D01*
X170996385Y-120925136D01*
X170953045Y-120863617D01*
X170876705Y-120711827D01*
X170817553Y-120528326D01*
X170777588Y-120324143D01*
X170758812Y-120110304D01*
X170763223Y-119897838D01*
X170768312Y-119845092D01*
X170805330Y-119615291D01*
X170861592Y-119421242D01*
X170939812Y-119256456D01*
X171042709Y-119114446D01*
X171099103Y-119054955D01*
X171259903Y-118927246D01*
X171436653Y-118838650D01*
X171623394Y-118789164D01*
X171814166Y-118778788D01*
X172003009Y-118807520D01*
X172183965Y-118875358D01*
X172351073Y-118982300D01*
X172432435Y-119055282D01*
X172556616Y-119202991D01*
X172650672Y-119368858D01*
X172716363Y-119558039D01*
X172755450Y-119775694D01*
X172769694Y-120026980D01*
X172769799Y-120043750D01*
X173918221Y-120043750D01*
X173900706Y-119724671D01*
X173842751Y-119415131D01*
X173745329Y-119124933D01*
X173608969Y-118855704D01*
X173434197Y-118609073D01*
X173255358Y-118417967D01*
X173038311Y-118242640D01*
X172790274Y-118095890D01*
X172518293Y-117981595D01*
X172388479Y-117941370D01*
X172301869Y-117918368D01*
X172227258Y-117901863D01*
X172154117Y-117890815D01*
X172071918Y-117884189D01*
X171970132Y-117880947D01*
X171838229Y-117880053D01*
X171766786Y-117880139D01*
G36*
X160513368Y-116294987D02*
G01*
X160284044Y-116322497D01*
X160074005Y-116366937D01*
X159875167Y-116429711D01*
X159679443Y-116512226D01*
X159636294Y-116533023D01*
X159402692Y-116671313D01*
X159202626Y-116839953D01*
X159035669Y-117039436D01*
X158901395Y-117270254D01*
X158814673Y-117485363D01*
X158778002Y-117613355D01*
X158749305Y-117748596D01*
X158734333Y-117860670D01*
X158720759Y-118036696D01*
X158786050Y-118037926D01*
X158827078Y-118039067D01*
X158906009Y-118041586D01*
X159015421Y-118045232D01*
X159147888Y-118049758D01*
X159295986Y-118054914D01*
X159372947Y-118057628D01*
X159894554Y-118076101D01*
X159935818Y-117915734D01*
X160005413Y-117722995D01*
X160106259Y-117561979D01*
X160237130Y-117434046D01*
X160396796Y-117340559D01*
X160484197Y-117308041D01*
X160589178Y-117284995D01*
X160725136Y-117269055D01*
X160878193Y-117260596D01*
X161034471Y-117259994D01*
X161180091Y-117267626D01*
X161301176Y-117283866D01*
X161309975Y-117285673D01*
X161486166Y-117336343D01*
X161639669Y-117406861D01*
X161763745Y-117493180D01*
X161851654Y-117591252D01*
X161869614Y-117621686D01*
X161892546Y-117698025D01*
X161900469Y-117797458D01*
X161893310Y-117900256D01*
X161870996Y-117986685D01*
X161870968Y-117986752D01*
X161835033Y-118046107D01*
X161779638Y-118111327D01*
X161752593Y-118137116D01*
X161693127Y-118184232D01*
X161623786Y-118228289D01*
X161540107Y-118270901D01*
X161437623Y-118313682D01*
X161311870Y-118358248D01*
X161158382Y-118406213D01*
X160972695Y-118459192D01*
X160750343Y-118518799D01*
X160563572Y-118567103D01*
X160249726Y-118651297D01*
X159976822Y-118733583D01*
X159740622Y-118816098D01*
X159536893Y-118900977D01*
X159361399Y-118990357D01*
X159209904Y-119086375D01*
X159078172Y-119191167D01*
X158961969Y-119306868D01*
X158866353Y-119423166D01*
X158757493Y-119595468D01*
X158667480Y-119792798D01*
X158604603Y-119996074D01*
X158592595Y-120053585D01*
X158574948Y-120195109D01*
X158567452Y-120360686D01*
X158569737Y-120534673D01*
X158581431Y-120701429D01*
X158602161Y-120845314D01*
X158612500Y-120891401D01*
X158676921Y-121082721D01*
X158770890Y-121280214D01*
X158885367Y-121466207D01*
X158951697Y-121554613D01*
X159126931Y-121735408D01*
X159337869Y-121890166D01*
X159582406Y-122017908D01*
X159858439Y-122117654D01*
X160163864Y-122188424D01*
X160377363Y-122218445D01*
X160553568Y-122232327D01*
X160749978Y-122239306D01*
X160952388Y-122239504D01*
X161146591Y-122233046D01*
X161318384Y-122220055D01*
X161402679Y-122209498D01*
X161712659Y-122148740D01*
X161987119Y-122064451D01*
X162230539Y-121954486D01*
X162447396Y-121816698D01*
X162642171Y-121648942D01*
X162701960Y-121587078D01*
X162848421Y-121401526D01*
X162978431Y-121182745D01*
X163087371Y-120941292D01*
X163170625Y-120687725D01*
X163223577Y-120432601D01*
X163230594Y-120378259D01*
X163237909Y-120305101D01*
X163236244Y-120266161D01*
X163222374Y-120250666D01*
X163193072Y-120247842D01*
X163191546Y-120247840D01*
X163153163Y-120245702D01*
X163077371Y-120239746D01*
X162971897Y-120230644D01*
X162844467Y-120219066D01*
X162702807Y-120205683D01*
X162672679Y-120202775D01*
X162498704Y-120185879D01*
X162364576Y-120173213D01*
X162264970Y-120164932D01*
X162194558Y-120161190D01*
X162148015Y-120162139D01*
X162120014Y-120167934D01*
X162105229Y-120178728D01*
X162098334Y-120194676D01*
X162094003Y-120215932D01*
X162093262Y-120219509D01*
X162062098Y-120334752D01*
X162016167Y-120467631D01*
X161962504Y-120600014D01*
X161908146Y-120713769D01*
X161886757Y-120751702D01*
X161763119Y-120913918D01*
X161607584Y-121044475D01*
X161421213Y-121142873D01*
X161205069Y-121208616D01*
X160960211Y-121241205D01*
X160835715Y-121244927D01*
X160582819Y-121230309D01*
X160362672Y-121185989D01*
X160173151Y-121111266D01*
X160012132Y-121005440D01*
X159955691Y-120954697D01*
X159843104Y-120819232D01*
X159769341Y-120674532D01*
X159734985Y-120526086D01*
X159740618Y-120379380D01*
X159786822Y-120239904D01*
X159867211Y-120120925D01*
X159917783Y-120069365D01*
X159976781Y-120022122D01*
X160048371Y-119977619D01*
X160136716Y-119934280D01*
X160245981Y-119890527D01*
X160380331Y-119844785D01*
X160543931Y-119795477D01*
X160740944Y-119741026D01*
X160975535Y-119679856D01*
X161146333Y-119636699D01*
X161498527Y-119539589D01*
X161807895Y-119435409D01*
X162073885Y-119324386D01*
X162295941Y-119206745D01*
X162441813Y-119107843D01*
X162630422Y-118935709D01*
X162784216Y-118738385D01*
X162902167Y-118520946D01*
X162983243Y-118288465D01*
X163026416Y-118046017D01*
X163030654Y-117798677D01*
X162994927Y-117551518D01*
X162918206Y-117309616D01*
X162839930Y-117146799D01*
X162715116Y-116963077D01*
X162554471Y-116791503D01*
X162367341Y-116640164D01*
X162163070Y-116517145D01*
X162055279Y-116467905D01*
X161888646Y-116405619D01*
X161728098Y-116358682D01*
X161562149Y-116324980D01*
X161379311Y-116302400D01*
X161168097Y-116288826D01*
X161062209Y-116285134D01*
X160770061Y-116283001D01*
X160513368Y-116294987D01*
G37*
X160513368Y-116294987D02*
X160284044Y-116322497D01*
X160074005Y-116366937D01*
X159875167Y-116429711D01*
X159679443Y-116512226D01*
X159636294Y-116533023D01*
X159402692Y-116671313D01*
X159202626Y-116839953D01*
X159035669Y-117039436D01*
X158901395Y-117270254D01*
X158814673Y-117485363D01*
X158778002Y-117613355D01*
X158749305Y-117748596D01*
X158734333Y-117860670D01*
X158720759Y-118036696D01*
X158786050Y-118037926D01*
X158827078Y-118039067D01*
X158906009Y-118041586D01*
X159015421Y-118045232D01*
X159147888Y-118049758D01*
X159295986Y-118054914D01*
X159372947Y-118057628D01*
X159894554Y-118076101D01*
X159935818Y-117915734D01*
X160005413Y-117722995D01*
X160106259Y-117561979D01*
X160237130Y-117434046D01*
X160396796Y-117340559D01*
X160484197Y-117308041D01*
X160589178Y-117284995D01*
X160725136Y-117269055D01*
X160878193Y-117260596D01*
X161034471Y-117259994D01*
X161180091Y-117267626D01*
X161301176Y-117283866D01*
X161309975Y-117285673D01*
X161486166Y-117336343D01*
X161639669Y-117406861D01*
X161763745Y-117493180D01*
X161851654Y-117591252D01*
X161869614Y-117621686D01*
X161892546Y-117698025D01*
X161900469Y-117797458D01*
X161893310Y-117900256D01*
X161870996Y-117986685D01*
X161870968Y-117986752D01*
X161835033Y-118046107D01*
X161779638Y-118111327D01*
X161752593Y-118137116D01*
X161693127Y-118184232D01*
X161623786Y-118228289D01*
X161540107Y-118270901D01*
X161437623Y-118313682D01*
X161311870Y-118358248D01*
X161158382Y-118406213D01*
X160972695Y-118459192D01*
X160750343Y-118518799D01*
X160563572Y-118567103D01*
X160249726Y-118651297D01*
X159976822Y-118733583D01*
X159740622Y-118816098D01*
X159536893Y-118900977D01*
X159361399Y-118990357D01*
X159209904Y-119086375D01*
X159078172Y-119191167D01*
X158961969Y-119306868D01*
X158866353Y-119423166D01*
X158757493Y-119595468D01*
X158667480Y-119792798D01*
X158604603Y-119996074D01*
X158592595Y-120053585D01*
X158574948Y-120195109D01*
X158567452Y-120360686D01*
X158569737Y-120534673D01*
X158581431Y-120701429D01*
X158602161Y-120845314D01*
X158612500Y-120891401D01*
X158676921Y-121082721D01*
X158770890Y-121280214D01*
X158885367Y-121466207D01*
X158951697Y-121554613D01*
X159126931Y-121735408D01*
X159337869Y-121890166D01*
X159582406Y-122017908D01*
X159858439Y-122117654D01*
X160163864Y-122188424D01*
X160377363Y-122218445D01*
X160553568Y-122232327D01*
X160749978Y-122239306D01*
X160952388Y-122239504D01*
X161146591Y-122233046D01*
X161318384Y-122220055D01*
X161402679Y-122209498D01*
X161712659Y-122148740D01*
X161987119Y-122064451D01*
X162230539Y-121954486D01*
X162447396Y-121816698D01*
X162642171Y-121648942D01*
X162701960Y-121587078D01*
X162848421Y-121401526D01*
X162978431Y-121182745D01*
X163087371Y-120941292D01*
X163170625Y-120687725D01*
X163223577Y-120432601D01*
X163230594Y-120378259D01*
X163237909Y-120305101D01*
X163236244Y-120266161D01*
X163222374Y-120250666D01*
X163193072Y-120247842D01*
X163191546Y-120247840D01*
X163153163Y-120245702D01*
X163077371Y-120239746D01*
X162971897Y-120230644D01*
X162844467Y-120219066D01*
X162702807Y-120205683D01*
X162672679Y-120202775D01*
X162498704Y-120185879D01*
X162364576Y-120173213D01*
X162264970Y-120164932D01*
X162194558Y-120161190D01*
X162148015Y-120162139D01*
X162120014Y-120167934D01*
X162105229Y-120178728D01*
X162098334Y-120194676D01*
X162094003Y-120215932D01*
X162093262Y-120219509D01*
X162062098Y-120334752D01*
X162016167Y-120467631D01*
X161962504Y-120600014D01*
X161908146Y-120713769D01*
X161886757Y-120751702D01*
X161763119Y-120913918D01*
X161607584Y-121044475D01*
X161421213Y-121142873D01*
X161205069Y-121208616D01*
X160960211Y-121241205D01*
X160835715Y-121244927D01*
X160582819Y-121230309D01*
X160362672Y-121185989D01*
X160173151Y-121111266D01*
X160012132Y-121005440D01*
X159955691Y-120954697D01*
X159843104Y-120819232D01*
X159769341Y-120674532D01*
X159734985Y-120526086D01*
X159740618Y-120379380D01*
X159786822Y-120239904D01*
X159867211Y-120120925D01*
X159917783Y-120069365D01*
X159976781Y-120022122D01*
X160048371Y-119977619D01*
X160136716Y-119934280D01*
X160245981Y-119890527D01*
X160380331Y-119844785D01*
X160543931Y-119795477D01*
X160740944Y-119741026D01*
X160975535Y-119679856D01*
X161146333Y-119636699D01*
X161498527Y-119539589D01*
X161807895Y-119435409D01*
X162073885Y-119324386D01*
X162295941Y-119206745D01*
X162441813Y-119107843D01*
X162630422Y-118935709D01*
X162784216Y-118738385D01*
X162902167Y-118520946D01*
X162983243Y-118288465D01*
X163026416Y-118046017D01*
X163030654Y-117798677D01*
X162994927Y-117551518D01*
X162918206Y-117309616D01*
X162839930Y-117146799D01*
X162715116Y-116963077D01*
X162554471Y-116791503D01*
X162367341Y-116640164D01*
X162163070Y-116517145D01*
X162055279Y-116467905D01*
X161888646Y-116405619D01*
X161728098Y-116358682D01*
X161562149Y-116324980D01*
X161379311Y-116302400D01*
X161168097Y-116288826D01*
X161062209Y-116285134D01*
X160770061Y-116283001D01*
X160513368Y-116294987D01*
G36*
X177861652Y-116377046D02*
G01*
X177505405Y-116379765D01*
X177187134Y-116382980D01*
X176907855Y-116386670D01*
X176668584Y-116390814D01*
X176470337Y-116395391D01*
X176314129Y-116400380D01*
X176200976Y-116405760D01*
X176131893Y-116411511D01*
X176121072Y-116413099D01*
X175910570Y-116454224D01*
X175736407Y-116499936D01*
X175589567Y-116554363D01*
X175461035Y-116621632D01*
X175341796Y-116705868D01*
X175222832Y-116811200D01*
X175197601Y-116835833D01*
X175102109Y-116934505D01*
X175031593Y-117019383D01*
X174975450Y-117104807D01*
X174923081Y-117205117D01*
X174920266Y-117211002D01*
X174851130Y-117366744D01*
X174802871Y-117505619D01*
X174772223Y-117642648D01*
X174755921Y-117792856D01*
X174750700Y-117971265D01*
X174750662Y-117991339D01*
X174762560Y-118245293D01*
X174800139Y-118467428D01*
X174866225Y-118665104D01*
X174963644Y-118845679D01*
X175095221Y-119016513D01*
X175177789Y-119103652D01*
X175288577Y-119206558D01*
X175399505Y-119292462D01*
X175518579Y-119365341D01*
X175653806Y-119429170D01*
X175813190Y-119487928D01*
X176004739Y-119545590D01*
X176140572Y-119581866D01*
X176216769Y-119601518D01*
X176049858Y-119714581D01*
X175880055Y-119845003D01*
X175705000Y-120007436D01*
X175535086Y-120191314D01*
X175380705Y-120386076D01*
X175357854Y-120417946D01*
X175318862Y-120475149D01*
X175262238Y-120560945D01*
X175190977Y-120670589D01*
X175108073Y-120799336D01*
X175016522Y-120942441D01*
X174919316Y-121095156D01*
X174819452Y-121252738D01*
X174719923Y-121410440D01*
X174623725Y-121563517D01*
X174533851Y-121707224D01*
X174453297Y-121836814D01*
X174385057Y-121947542D01*
X174332125Y-122034663D01*
X174297497Y-122093431D01*
X174284166Y-122119101D01*
X174284108Y-122119531D01*
X174305875Y-122122164D01*
X174367530Y-122124560D01*
X174463605Y-122126635D01*
X174588631Y-122128308D01*
X174737140Y-122129494D01*
X174903662Y-122130110D01*
X174983188Y-122130179D01*
X175682268Y-122130179D01*
X176261583Y-121262723D01*
X176386485Y-121076423D01*
X176509316Y-120894574D01*
X176626628Y-120722186D01*
X176734972Y-120564272D01*
X176830901Y-120425840D01*
X176910965Y-120311902D01*
X176971718Y-120227469D01*
X176999559Y-120190342D01*
X177119728Y-120047055D01*
X177236606Y-119936516D01*
X177358570Y-119854885D01*
X177493996Y-119798317D01*
X177651261Y-119762969D01*
X177838742Y-119745000D01*
X177979396Y-119740833D01*
X178264197Y-119737589D01*
X178275937Y-122130179D01*
X179454822Y-122130179D01*
X179454822Y-117367679D01*
X178275536Y-117367679D01*
X178275536Y-118796429D01*
X177566831Y-118796242D01*
X177380818Y-118795453D01*
X177199682Y-118793309D01*
X177031074Y-118790006D01*
X176882647Y-118785736D01*
X176762052Y-118780691D01*
X176676939Y-118775066D01*
X176659973Y-118773352D01*
X176481380Y-118745016D01*
X176339586Y-118703701D01*
X176227140Y-118646377D01*
X176136588Y-118570017D01*
X176123031Y-118555147D01*
X176030162Y-118417636D01*
X175974813Y-118257632D01*
X175956080Y-118072452D01*
X175956109Y-118059375D01*
X175975450Y-117874068D01*
X176030341Y-117716920D01*
X176120889Y-117587785D01*
X176247199Y-117486518D01*
X176409381Y-117412974D01*
X176439209Y-117403608D01*
X176477810Y-117394059D01*
X176526016Y-117386305D01*
X176588547Y-117380172D01*
X176670123Y-117375487D01*
X176775465Y-117372077D01*
X176909292Y-117369768D01*
X177076324Y-117368388D01*
X177281282Y-117367763D01*
X177417867Y-117367679D01*
X178275536Y-117367679D01*
X179454822Y-117367679D01*
X179454822Y-116366576D01*
X177861652Y-116377046D01*
G37*
X177861652Y-116377046D02*
X177505405Y-116379765D01*
X177187134Y-116382980D01*
X176907855Y-116386670D01*
X176668584Y-116390814D01*
X176470337Y-116395391D01*
X176314129Y-116400380D01*
X176200976Y-116405760D01*
X176131893Y-116411511D01*
X176121072Y-116413099D01*
X175910570Y-116454224D01*
X175736407Y-116499936D01*
X175589567Y-116554363D01*
X175461035Y-116621632D01*
X175341796Y-116705868D01*
X175222832Y-116811200D01*
X175197601Y-116835833D01*
X175102109Y-116934505D01*
X175031593Y-117019383D01*
X174975450Y-117104807D01*
X174923081Y-117205117D01*
X174920266Y-117211002D01*
X174851130Y-117366744D01*
X174802871Y-117505619D01*
X174772223Y-117642648D01*
X174755921Y-117792856D01*
X174750700Y-117971265D01*
X174750662Y-117991339D01*
X174762560Y-118245293D01*
X174800139Y-118467428D01*
X174866225Y-118665104D01*
X174963644Y-118845679D01*
X175095221Y-119016513D01*
X175177789Y-119103652D01*
X175288577Y-119206558D01*
X175399505Y-119292462D01*
X175518579Y-119365341D01*
X175653806Y-119429170D01*
X175813190Y-119487928D01*
X176004739Y-119545590D01*
X176140572Y-119581866D01*
X176216769Y-119601518D01*
X176049858Y-119714581D01*
X175880055Y-119845003D01*
X175705000Y-120007436D01*
X175535086Y-120191314D01*
X175380705Y-120386076D01*
X175357854Y-120417946D01*
X175318862Y-120475149D01*
X175262238Y-120560945D01*
X175190977Y-120670589D01*
X175108073Y-120799336D01*
X175016522Y-120942441D01*
X174919316Y-121095156D01*
X174819452Y-121252738D01*
X174719923Y-121410440D01*
X174623725Y-121563517D01*
X174533851Y-121707224D01*
X174453297Y-121836814D01*
X174385057Y-121947542D01*
X174332125Y-122034663D01*
X174297497Y-122093431D01*
X174284166Y-122119101D01*
X174284108Y-122119531D01*
X174305875Y-122122164D01*
X174367530Y-122124560D01*
X174463605Y-122126635D01*
X174588631Y-122128308D01*
X174737140Y-122129494D01*
X174903662Y-122130110D01*
X174983188Y-122130179D01*
X175682268Y-122130179D01*
X176261583Y-121262723D01*
X176386485Y-121076423D01*
X176509316Y-120894574D01*
X176626628Y-120722186D01*
X176734972Y-120564272D01*
X176830901Y-120425840D01*
X176910965Y-120311902D01*
X176971718Y-120227469D01*
X176999559Y-120190342D01*
X177119728Y-120047055D01*
X177236606Y-119936516D01*
X177358570Y-119854885D01*
X177493996Y-119798317D01*
X177651261Y-119762969D01*
X177838742Y-119745000D01*
X177979396Y-119740833D01*
X178264197Y-119737589D01*
X178275937Y-122130179D01*
X179454822Y-122130179D01*
X179454822Y-117367679D01*
X178275536Y-117367679D01*
X178275536Y-118796429D01*
X177566831Y-118796242D01*
X177380818Y-118795453D01*
X177199682Y-118793309D01*
X177031074Y-118790006D01*
X176882647Y-118785736D01*
X176762052Y-118780691D01*
X176676939Y-118775066D01*
X176659973Y-118773352D01*
X176481380Y-118745016D01*
X176339586Y-118703701D01*
X176227140Y-118646377D01*
X176136588Y-118570017D01*
X176123031Y-118555147D01*
X176030162Y-118417636D01*
X175974813Y-118257632D01*
X175956080Y-118072452D01*
X175956109Y-118059375D01*
X175975450Y-117874068D01*
X176030341Y-117716920D01*
X176120889Y-117587785D01*
X176247199Y-117486518D01*
X176409381Y-117412974D01*
X176439209Y-117403608D01*
X176477810Y-117394059D01*
X176526016Y-117386305D01*
X176588547Y-117380172D01*
X176670123Y-117375487D01*
X176775465Y-117372077D01*
X176909292Y-117369768D01*
X177076324Y-117368388D01*
X177281282Y-117367763D01*
X177417867Y-117367679D01*
X178275536Y-117367679D01*
X179454822Y-117367679D01*
X179454822Y-116366576D01*
X177861652Y-116377046D01*
G36*
X167571250Y-118637679D02*
G01*
X165326072Y-118637679D01*
X165326072Y-116369821D01*
X164146786Y-116369821D01*
X164146786Y-122130179D01*
X165326072Y-122130179D01*
X165326072Y-119612430D01*
X166442992Y-119618313D01*
X167559911Y-119624196D01*
X167565773Y-120877187D01*
X167571635Y-122130179D01*
X168750536Y-122130179D01*
X168750536Y-116369821D01*
X167571250Y-116369821D01*
X167571250Y-118637679D01*
G37*
X167571250Y-118637679D02*
X165326072Y-118637679D01*
X165326072Y-116369821D01*
X164146786Y-116369821D01*
X164146786Y-122130179D01*
X165326072Y-122130179D01*
X165326072Y-119612430D01*
X166442992Y-119618313D01*
X167559911Y-119624196D01*
X167565773Y-120877187D01*
X167571635Y-122130179D01*
X168750536Y-122130179D01*
X168750536Y-116369821D01*
X167571250Y-116369821D01*
X167571250Y-118637679D01*
G36*
X153908759Y-120219184D02*
G01*
X153882247Y-120232282D01*
X153849553Y-120255106D01*
X153825725Y-120279996D01*
X153809406Y-120311249D01*
X153799240Y-120353166D01*
X153793872Y-120410044D01*
X153791944Y-120486184D01*
X153791831Y-120518917D01*
X153792161Y-120590656D01*
X153793527Y-120641927D01*
X153796500Y-120677404D01*
X153801649Y-120701763D01*
X153809543Y-120719680D01*
X153817757Y-120731902D01*
X153870187Y-120783905D01*
X153931930Y-120815184D01*
X153998536Y-120824592D01*
X154065558Y-120810980D01*
X154086792Y-120801354D01*
X154137624Y-120774859D01*
X154137624Y-121190052D01*
X154100525Y-121170868D01*
X154051643Y-121156025D01*
X153991561Y-121152222D01*
X153931564Y-121159243D01*
X153886256Y-121175013D01*
X153848675Y-121205047D01*
X153816564Y-121248024D01*
X153814150Y-121252436D01*
X153803967Y-121273221D01*
X153796530Y-121294170D01*
X153791411Y-121319548D01*
X153788181Y-121353618D01*
X153786413Y-121400641D01*
X153785677Y-121464882D01*
X153785544Y-121537176D01*
X153785544Y-121767822D01*
X153923861Y-121767822D01*
X153923861Y-121342533D01*
X153962549Y-121309979D01*
X154002738Y-121283940D01*
X154040797Y-121279205D01*
X154079066Y-121291389D01*
X154099462Y-121303320D01*
X154114642Y-121320313D01*
X154125438Y-121345995D01*
X154132683Y-121383991D01*
X154137208Y-121437926D01*
X154139844Y-121511425D01*
X154140772Y-121560347D01*
X154143911Y-121761535D01*
X154209926Y-121765336D01*
X154275940Y-121769136D01*
X154275940Y-120520650D01*
X154137624Y-120520650D01*
X154134097Y-120590254D01*
X154122215Y-120638569D01*
X154100020Y-120668631D01*
X154065559Y-120683471D01*
X154030742Y-120686436D01*
X153991329Y-120683028D01*
X153965171Y-120669617D01*
X153948814Y-120651896D01*
X153935937Y-120632835D01*
X153928272Y-120611601D01*
X153924861Y-120581849D01*
X153924749Y-120537236D01*
X153925897Y-120499880D01*
X153928532Y-120443604D01*
X153932456Y-120406658D01*
X153939063Y-120383223D01*
X153949749Y-120367480D01*
X153959833Y-120358380D01*
X154001970Y-120338537D01*
X154051840Y-120335332D01*
X154080476Y-120342168D01*
X154108828Y-120366464D01*
X154127609Y-120413728D01*
X154136712Y-120483624D01*
X154137624Y-120520650D01*
X154275940Y-120520650D01*
X154275940Y-120208614D01*
X154206782Y-120208614D01*
X154165260Y-120210256D01*
X154143838Y-120216087D01*
X154137626Y-120227461D01*
X154137624Y-120227798D01*
X154134742Y-120238938D01*
X154122030Y-120237673D01*
X154096757Y-120225433D01*
X154037869Y-120206707D01*
X153971615Y-120204739D01*
X153908759Y-120219184D01*
G37*
X153908759Y-120219184D02*
X153882247Y-120232282D01*
X153849553Y-120255106D01*
X153825725Y-120279996D01*
X153809406Y-120311249D01*
X153799240Y-120353166D01*
X153793872Y-120410044D01*
X153791944Y-120486184D01*
X153791831Y-120518917D01*
X153792161Y-120590656D01*
X153793527Y-120641927D01*
X153796500Y-120677404D01*
X153801649Y-120701763D01*
X153809543Y-120719680D01*
X153817757Y-120731902D01*
X153870187Y-120783905D01*
X153931930Y-120815184D01*
X153998536Y-120824592D01*
X154065558Y-120810980D01*
X154086792Y-120801354D01*
X154137624Y-120774859D01*
X154137624Y-121190052D01*
X154100525Y-121170868D01*
X154051643Y-121156025D01*
X153991561Y-121152222D01*
X153931564Y-121159243D01*
X153886256Y-121175013D01*
X153848675Y-121205047D01*
X153816564Y-121248024D01*
X153814150Y-121252436D01*
X153803967Y-121273221D01*
X153796530Y-121294170D01*
X153791411Y-121319548D01*
X153788181Y-121353618D01*
X153786413Y-121400641D01*
X153785677Y-121464882D01*
X153785544Y-121537176D01*
X153785544Y-121767822D01*
X153923861Y-121767822D01*
X153923861Y-121342533D01*
X153962549Y-121309979D01*
X154002738Y-121283940D01*
X154040797Y-121279205D01*
X154079066Y-121291389D01*
X154099462Y-121303320D01*
X154114642Y-121320313D01*
X154125438Y-121345995D01*
X154132683Y-121383991D01*
X154137208Y-121437926D01*
X154139844Y-121511425D01*
X154140772Y-121560347D01*
X154143911Y-121761535D01*
X154209926Y-121765336D01*
X154275940Y-121769136D01*
X154275940Y-120520650D01*
X154137624Y-120520650D01*
X154134097Y-120590254D01*
X154122215Y-120638569D01*
X154100020Y-120668631D01*
X154065559Y-120683471D01*
X154030742Y-120686436D01*
X153991329Y-120683028D01*
X153965171Y-120669617D01*
X153948814Y-120651896D01*
X153935937Y-120632835D01*
X153928272Y-120611601D01*
X153924861Y-120581849D01*
X153924749Y-120537236D01*
X153925897Y-120499880D01*
X153928532Y-120443604D01*
X153932456Y-120406658D01*
X153939063Y-120383223D01*
X153949749Y-120367480D01*
X153959833Y-120358380D01*
X154001970Y-120338537D01*
X154051840Y-120335332D01*
X154080476Y-120342168D01*
X154108828Y-120366464D01*
X154127609Y-120413728D01*
X154136712Y-120483624D01*
X154137624Y-120520650D01*
X154275940Y-120520650D01*
X154275940Y-120208614D01*
X154206782Y-120208614D01*
X154165260Y-120210256D01*
X154143838Y-120216087D01*
X154137626Y-120227461D01*
X154137624Y-120227798D01*
X154134742Y-120238938D01*
X154122030Y-120237673D01*
X154096757Y-120225433D01*
X154037869Y-120206707D01*
X153971615Y-120204739D01*
X153908759Y-120219184D01*
G36*
X153384210Y-121156555D02*
G01*
X153325055Y-121172339D01*
X153280023Y-121200948D01*
X153248246Y-121238419D01*
X153238366Y-121254411D01*
X153231073Y-121271163D01*
X153225974Y-121292592D01*
X153222679Y-121322616D01*
X153220797Y-121365154D01*
X153219937Y-121424122D01*
X153219707Y-121503440D01*
X153219703Y-121524484D01*
X153219703Y-121767822D01*
X153280059Y-121767822D01*
X153318557Y-121765126D01*
X153347023Y-121758295D01*
X153354155Y-121754083D01*
X153373652Y-121746813D01*
X153393566Y-121754083D01*
X153426353Y-121763160D01*
X153473978Y-121766813D01*
X153526764Y-121765228D01*
X153575036Y-121758589D01*
X153603218Y-121750072D01*
X153657753Y-121715063D01*
X153691835Y-121666479D01*
X153707157Y-121601882D01*
X153707299Y-121600223D01*
X153705955Y-121571566D01*
X153584356Y-121571566D01*
X153573726Y-121604161D01*
X153556410Y-121622505D01*
X153521652Y-121636379D01*
X153475773Y-121641917D01*
X153428988Y-121639191D01*
X153391514Y-121628274D01*
X153381015Y-121621269D01*
X153362668Y-121588904D01*
X153358020Y-121552111D01*
X153358020Y-121503763D01*
X153427582Y-121503763D01*
X153493667Y-121508850D01*
X153543764Y-121523263D01*
X153574929Y-121545729D01*
X153584356Y-121571566D01*
X153705955Y-121571566D01*
X153703987Y-121529647D01*
X153680710Y-121473845D01*
X153636948Y-121431647D01*
X153630899Y-121427808D01*
X153604907Y-121415309D01*
X153572735Y-121407740D01*
X153527760Y-121404061D01*
X153474331Y-121403216D01*
X153358020Y-121403169D01*
X153358020Y-121354411D01*
X153362953Y-121316581D01*
X153375543Y-121291236D01*
X153377017Y-121289887D01*
X153405034Y-121278800D01*
X153447326Y-121274503D01*
X153494064Y-121276615D01*
X153535418Y-121284756D01*
X153559957Y-121296965D01*
X153573253Y-121306746D01*
X153587294Y-121308613D01*
X153606671Y-121300600D01*
X153635976Y-121280739D01*
X153679803Y-121247063D01*
X153683825Y-121243909D01*
X153681764Y-121232236D01*
X153664568Y-121212822D01*
X153638433Y-121191248D01*
X153609552Y-121173096D01*
X153600478Y-121168809D01*
X153567380Y-121160256D01*
X153518880Y-121154155D01*
X153464695Y-121151708D01*
X153462161Y-121151703D01*
X153384210Y-121156555D01*
G37*
X153384210Y-121156555D02*
X153325055Y-121172339D01*
X153280023Y-121200948D01*
X153248246Y-121238419D01*
X153238366Y-121254411D01*
X153231073Y-121271163D01*
X153225974Y-121292592D01*
X153222679Y-121322616D01*
X153220797Y-121365154D01*
X153219937Y-121424122D01*
X153219707Y-121503440D01*
X153219703Y-121524484D01*
X153219703Y-121767822D01*
X153280059Y-121767822D01*
X153318557Y-121765126D01*
X153347023Y-121758295D01*
X153354155Y-121754083D01*
X153373652Y-121746813D01*
X153393566Y-121754083D01*
X153426353Y-121763160D01*
X153473978Y-121766813D01*
X153526764Y-121765228D01*
X153575036Y-121758589D01*
X153603218Y-121750072D01*
X153657753Y-121715063D01*
X153691835Y-121666479D01*
X153707157Y-121601882D01*
X153707299Y-121600223D01*
X153705955Y-121571566D01*
X153584356Y-121571566D01*
X153573726Y-121604161D01*
X153556410Y-121622505D01*
X153521652Y-121636379D01*
X153475773Y-121641917D01*
X153428988Y-121639191D01*
X153391514Y-121628274D01*
X153381015Y-121621269D01*
X153362668Y-121588904D01*
X153358020Y-121552111D01*
X153358020Y-121503763D01*
X153427582Y-121503763D01*
X153493667Y-121508850D01*
X153543764Y-121523263D01*
X153574929Y-121545729D01*
X153584356Y-121571566D01*
X153705955Y-121571566D01*
X153703987Y-121529647D01*
X153680710Y-121473845D01*
X153636948Y-121431647D01*
X153630899Y-121427808D01*
X153604907Y-121415309D01*
X153572735Y-121407740D01*
X153527760Y-121404061D01*
X153474331Y-121403216D01*
X153358020Y-121403169D01*
X153358020Y-121354411D01*
X153362953Y-121316581D01*
X153375543Y-121291236D01*
X153377017Y-121289887D01*
X153405034Y-121278800D01*
X153447326Y-121274503D01*
X153494064Y-121276615D01*
X153535418Y-121284756D01*
X153559957Y-121296965D01*
X153573253Y-121306746D01*
X153587294Y-121308613D01*
X153606671Y-121300600D01*
X153635976Y-121280739D01*
X153679803Y-121247063D01*
X153683825Y-121243909D01*
X153681764Y-121232236D01*
X153664568Y-121212822D01*
X153638433Y-121191248D01*
X153609552Y-121173096D01*
X153600478Y-121168809D01*
X153567380Y-121160256D01*
X153518880Y-121154155D01*
X153464695Y-121151708D01*
X153462161Y-121151703D01*
X153384210Y-121156555D01*
G36*
X152993356Y-121153020D02*
G01*
X152974539Y-121158660D01*
X152968473Y-121171053D01*
X152968218Y-121176647D01*
X152967129Y-121192230D01*
X152959632Y-121194676D01*
X152939381Y-121183993D01*
X152927351Y-121176694D01*
X152889400Y-121161063D01*
X152844072Y-121153334D01*
X152796544Y-121152740D01*
X152751995Y-121158513D01*
X152715602Y-121169884D01*
X152692543Y-121186088D01*
X152687996Y-121206355D01*
X152690291Y-121211843D01*
X152707020Y-121234626D01*
X152732963Y-121262647D01*
X152737655Y-121267177D01*
X152762383Y-121288005D01*
X152783718Y-121294735D01*
X152813555Y-121290038D01*
X152825508Y-121286917D01*
X152862705Y-121279421D01*
X152888859Y-121282792D01*
X152910946Y-121294681D01*
X152931178Y-121310635D01*
X152946079Y-121330700D01*
X152956434Y-121358702D01*
X152963029Y-121398467D01*
X152966649Y-121453823D01*
X152968078Y-121528594D01*
X152968218Y-121573740D01*
X152968218Y-121767822D01*
X153093960Y-121767822D01*
X153093960Y-121151683D01*
X153031089Y-121151683D01*
X152993356Y-121153020D01*
G37*
X152993356Y-121153020D02*
X152974539Y-121158660D01*
X152968473Y-121171053D01*
X152968218Y-121176647D01*
X152967129Y-121192230D01*
X152959632Y-121194676D01*
X152939381Y-121183993D01*
X152927351Y-121176694D01*
X152889400Y-121161063D01*
X152844072Y-121153334D01*
X152796544Y-121152740D01*
X152751995Y-121158513D01*
X152715602Y-121169884D01*
X152692543Y-121186088D01*
X152687996Y-121206355D01*
X152690291Y-121211843D01*
X152707020Y-121234626D01*
X152732963Y-121262647D01*
X152737655Y-121267177D01*
X152762383Y-121288005D01*
X152783718Y-121294735D01*
X152813555Y-121290038D01*
X152825508Y-121286917D01*
X152862705Y-121279421D01*
X152888859Y-121282792D01*
X152910946Y-121294681D01*
X152931178Y-121310635D01*
X152946079Y-121330700D01*
X152956434Y-121358702D01*
X152963029Y-121398467D01*
X152966649Y-121453823D01*
X152968078Y-121528594D01*
X152968218Y-121573740D01*
X152968218Y-121767822D01*
X153093960Y-121767822D01*
X153093960Y-121151683D01*
X153031089Y-121151683D01*
X152993356Y-121153020D01*
G36*
X152201188Y-121767822D02*
G01*
X152270346Y-121767822D01*
X152310488Y-121766645D01*
X152331394Y-121761772D01*
X152338922Y-121751186D01*
X152339505Y-121744029D01*
X152340774Y-121729676D01*
X152348779Y-121726923D01*
X152369815Y-121735771D01*
X152386173Y-121744029D01*
X152448977Y-121763597D01*
X152517248Y-121764729D01*
X152572752Y-121750135D01*
X152624438Y-121714877D01*
X152663838Y-121662835D01*
X152685413Y-121601450D01*
X152685962Y-121598018D01*
X152689167Y-121560571D01*
X152690761Y-121506813D01*
X152690633Y-121466155D01*
X152553279Y-121466155D01*
X152550097Y-121520194D01*
X152542859Y-121564735D01*
X152533060Y-121589888D01*
X152495989Y-121624260D01*
X152451974Y-121636582D01*
X152406584Y-121626618D01*
X152367797Y-121596895D01*
X152353108Y-121576905D01*
X152344519Y-121553050D01*
X152340496Y-121518230D01*
X152339505Y-121465930D01*
X152341278Y-121414139D01*
X152345963Y-121368634D01*
X152352603Y-121338181D01*
X152353710Y-121335452D01*
X152380491Y-121303000D01*
X152419579Y-121285183D01*
X152463315Y-121282306D01*
X152504038Y-121294674D01*
X152534087Y-121322593D01*
X152537204Y-121328148D01*
X152546961Y-121362022D01*
X152552277Y-121410728D01*
X152553279Y-121466155D01*
X152690633Y-121466155D01*
X152690568Y-121445540D01*
X152689664Y-121412563D01*
X152683514Y-121330981D01*
X152670733Y-121269730D01*
X152649471Y-121224449D01*
X152617878Y-121190779D01*
X152587207Y-121171014D01*
X152544354Y-121157120D01*
X152491056Y-121152354D01*
X152436480Y-121156236D01*
X152389792Y-121168282D01*
X152365124Y-121182693D01*
X152339505Y-121205878D01*
X152339505Y-120912773D01*
X152201188Y-120912773D01*
X152201188Y-121767822D01*
G37*
X152201188Y-121767822D02*
X152270346Y-121767822D01*
X152310488Y-121766645D01*
X152331394Y-121761772D01*
X152338922Y-121751186D01*
X152339505Y-121744029D01*
X152340774Y-121729676D01*
X152348779Y-121726923D01*
X152369815Y-121735771D01*
X152386173Y-121744029D01*
X152448977Y-121763597D01*
X152517248Y-121764729D01*
X152572752Y-121750135D01*
X152624438Y-121714877D01*
X152663838Y-121662835D01*
X152685413Y-121601450D01*
X152685962Y-121598018D01*
X152689167Y-121560571D01*
X152690761Y-121506813D01*
X152690633Y-121466155D01*
X152553279Y-121466155D01*
X152550097Y-121520194D01*
X152542859Y-121564735D01*
X152533060Y-121589888D01*
X152495989Y-121624260D01*
X152451974Y-121636582D01*
X152406584Y-121626618D01*
X152367797Y-121596895D01*
X152353108Y-121576905D01*
X152344519Y-121553050D01*
X152340496Y-121518230D01*
X152339505Y-121465930D01*
X152341278Y-121414139D01*
X152345963Y-121368634D01*
X152352603Y-121338181D01*
X152353710Y-121335452D01*
X152380491Y-121303000D01*
X152419579Y-121285183D01*
X152463315Y-121282306D01*
X152504038Y-121294674D01*
X152534087Y-121322593D01*
X152537204Y-121328148D01*
X152546961Y-121362022D01*
X152552277Y-121410728D01*
X152553279Y-121466155D01*
X152690633Y-121466155D01*
X152690568Y-121445540D01*
X152689664Y-121412563D01*
X152683514Y-121330981D01*
X152670733Y-121269730D01*
X152649471Y-121224449D01*
X152617878Y-121190779D01*
X152587207Y-121171014D01*
X152544354Y-121157120D01*
X152491056Y-121152354D01*
X152436480Y-121156236D01*
X152389792Y-121168282D01*
X152365124Y-121182693D01*
X152339505Y-121205878D01*
X152339505Y-120912773D01*
X152201188Y-120912773D01*
X152201188Y-121767822D01*
G36*
X151718476Y-121154237D02*
G01*
X151668745Y-121157971D01*
X151538709Y-121547773D01*
X151518322Y-121478614D01*
X151506054Y-121435874D01*
X151489915Y-121378115D01*
X151472488Y-121314625D01*
X151463274Y-121280570D01*
X151428612Y-121151683D01*
X151285609Y-121151683D01*
X151328354Y-121286857D01*
X151349404Y-121353342D01*
X151374833Y-121433539D01*
X151401390Y-121517193D01*
X151425098Y-121591782D01*
X151479098Y-121761535D01*
X151537402Y-121765328D01*
X151595705Y-121769122D01*
X151627321Y-121664734D01*
X151646818Y-121599889D01*
X151668096Y-121528400D01*
X151686692Y-121465263D01*
X151687426Y-121462750D01*
X151701316Y-121419969D01*
X151713571Y-121390779D01*
X151722154Y-121379741D01*
X151723918Y-121381018D01*
X151730109Y-121398130D01*
X151741872Y-121434787D01*
X151757775Y-121486378D01*
X151776386Y-121548294D01*
X151786457Y-121582352D01*
X151840993Y-121767822D01*
X151956736Y-121767822D01*
X152049263Y-121475471D01*
X152075256Y-121393462D01*
X152098934Y-121318987D01*
X152119180Y-121255544D01*
X152134874Y-121206632D01*
X152144898Y-121175749D01*
X152147945Y-121166726D01*
X152145533Y-121157487D01*
X152126592Y-121153441D01*
X152087177Y-121153846D01*
X152081007Y-121154152D01*
X152007914Y-121157971D01*
X151960043Y-121334010D01*
X151942447Y-121398211D01*
X151926723Y-121454649D01*
X151914254Y-121498422D01*
X151906426Y-121524630D01*
X151904980Y-121528903D01*
X151898986Y-121523990D01*
X151886899Y-121498532D01*
X151870107Y-121455997D01*
X151849997Y-121399850D01*
X151832997Y-121349130D01*
X151768206Y-121150504D01*
X151718476Y-121154237D01*
G37*
X151718476Y-121154237D02*
X151668745Y-121157971D01*
X151538709Y-121547773D01*
X151518322Y-121478614D01*
X151506054Y-121435874D01*
X151489915Y-121378115D01*
X151472488Y-121314625D01*
X151463274Y-121280570D01*
X151428612Y-121151683D01*
X151285609Y-121151683D01*
X151328354Y-121286857D01*
X151349404Y-121353342D01*
X151374833Y-121433539D01*
X151401390Y-121517193D01*
X151425098Y-121591782D01*
X151479098Y-121761535D01*
X151537402Y-121765328D01*
X151595705Y-121769122D01*
X151627321Y-121664734D01*
X151646818Y-121599889D01*
X151668096Y-121528400D01*
X151686692Y-121465263D01*
X151687426Y-121462750D01*
X151701316Y-121419969D01*
X151713571Y-121390779D01*
X151722154Y-121379741D01*
X151723918Y-121381018D01*
X151730109Y-121398130D01*
X151741872Y-121434787D01*
X151757775Y-121486378D01*
X151776386Y-121548294D01*
X151786457Y-121582352D01*
X151840993Y-121767822D01*
X151956736Y-121767822D01*
X152049263Y-121475471D01*
X152075256Y-121393462D01*
X152098934Y-121318987D01*
X152119180Y-121255544D01*
X152134874Y-121206632D01*
X152144898Y-121175749D01*
X152147945Y-121166726D01*
X152145533Y-121157487D01*
X152126592Y-121153441D01*
X152087177Y-121153846D01*
X152081007Y-121154152D01*
X152007914Y-121157971D01*
X151960043Y-121334010D01*
X151942447Y-121398211D01*
X151926723Y-121454649D01*
X151914254Y-121498422D01*
X151906426Y-121524630D01*
X151904980Y-121528903D01*
X151898986Y-121523990D01*
X151886899Y-121498532D01*
X151870107Y-121455997D01*
X151849997Y-121399850D01*
X151832997Y-121349130D01*
X151768206Y-121150504D01*
X151718476Y-121154237D01*
G36*
X150961589Y-121155417D02*
G01*
X150908589Y-121168290D01*
X150893269Y-121175110D01*
X150863572Y-121192974D01*
X150840780Y-121213093D01*
X150823917Y-121238962D01*
X150812002Y-121274073D01*
X150804058Y-121321920D01*
X150799106Y-121385996D01*
X150796169Y-121469794D01*
X150795053Y-121525768D01*
X150790948Y-121767822D01*
X150861068Y-121767822D01*
X150903607Y-121766038D01*
X150925524Y-121759942D01*
X150931188Y-121749706D01*
X150934179Y-121738637D01*
X150947549Y-121740754D01*
X150965767Y-121749629D01*
X151011376Y-121763233D01*
X151069993Y-121766899D01*
X151131646Y-121760903D01*
X151186362Y-121745521D01*
X151191270Y-121743386D01*
X151241277Y-121708255D01*
X151274244Y-121659419D01*
X151289413Y-121602333D01*
X151288254Y-121581824D01*
X151164492Y-121581824D01*
X151153587Y-121609425D01*
X151121255Y-121629204D01*
X151069090Y-121639819D01*
X151041213Y-121641228D01*
X150994753Y-121637620D01*
X150963871Y-121623597D01*
X150956336Y-121616931D01*
X150935924Y-121580666D01*
X150931188Y-121547773D01*
X150931188Y-121503763D01*
X150992487Y-121503763D01*
X151063744Y-121507395D01*
X151113724Y-121518818D01*
X151145304Y-121538824D01*
X151152374Y-121547743D01*
X151164492Y-121581824D01*
X151288254Y-121581824D01*
X151286029Y-121542456D01*
X151263337Y-121485244D01*
X151232376Y-121446580D01*
X151213624Y-121429864D01*
X151195267Y-121418878D01*
X151171381Y-121412180D01*
X151136043Y-121408326D01*
X151083331Y-121405873D01*
X151062423Y-121405168D01*
X150931188Y-121400879D01*
X150931380Y-121361158D01*
X150936463Y-121319405D01*
X150954838Y-121294158D01*
X150991961Y-121278030D01*
X150992957Y-121277742D01*
X151045590Y-121271400D01*
X151097094Y-121279684D01*
X151135370Y-121299827D01*
X151150728Y-121309773D01*
X151167270Y-121308397D01*
X151192725Y-121293987D01*
X151207672Y-121283817D01*
X151236909Y-121262088D01*
X151255020Y-121245800D01*
X151257926Y-121241137D01*
X151245960Y-121217005D01*
X151210604Y-121188185D01*
X151195247Y-121178461D01*
X151151099Y-121161714D01*
X151091602Y-121152227D01*
X151025513Y-121150095D01*
X150961589Y-121155417D01*
G37*
X150961589Y-121155417D02*
X150908589Y-121168290D01*
X150893269Y-121175110D01*
X150863572Y-121192974D01*
X150840780Y-121213093D01*
X150823917Y-121238962D01*
X150812002Y-121274073D01*
X150804058Y-121321920D01*
X150799106Y-121385996D01*
X150796169Y-121469794D01*
X150795053Y-121525768D01*
X150790948Y-121767822D01*
X150861068Y-121767822D01*
X150903607Y-121766038D01*
X150925524Y-121759942D01*
X150931188Y-121749706D01*
X150934179Y-121738637D01*
X150947549Y-121740754D01*
X150965767Y-121749629D01*
X151011376Y-121763233D01*
X151069993Y-121766899D01*
X151131646Y-121760903D01*
X151186362Y-121745521D01*
X151191270Y-121743386D01*
X151241277Y-121708255D01*
X151274244Y-121659419D01*
X151289413Y-121602333D01*
X151288254Y-121581824D01*
X151164492Y-121581824D01*
X151153587Y-121609425D01*
X151121255Y-121629204D01*
X151069090Y-121639819D01*
X151041213Y-121641228D01*
X150994753Y-121637620D01*
X150963871Y-121623597D01*
X150956336Y-121616931D01*
X150935924Y-121580666D01*
X150931188Y-121547773D01*
X150931188Y-121503763D01*
X150992487Y-121503763D01*
X151063744Y-121507395D01*
X151113724Y-121518818D01*
X151145304Y-121538824D01*
X151152374Y-121547743D01*
X151164492Y-121581824D01*
X151288254Y-121581824D01*
X151286029Y-121542456D01*
X151263337Y-121485244D01*
X151232376Y-121446580D01*
X151213624Y-121429864D01*
X151195267Y-121418878D01*
X151171381Y-121412180D01*
X151136043Y-121408326D01*
X151083331Y-121405873D01*
X151062423Y-121405168D01*
X150931188Y-121400879D01*
X150931380Y-121361158D01*
X150936463Y-121319405D01*
X150954838Y-121294158D01*
X150991961Y-121278030D01*
X150992957Y-121277742D01*
X151045590Y-121271400D01*
X151097094Y-121279684D01*
X151135370Y-121299827D01*
X151150728Y-121309773D01*
X151167270Y-121308397D01*
X151192725Y-121293987D01*
X151207672Y-121283817D01*
X151236909Y-121262088D01*
X151255020Y-121245800D01*
X151257926Y-121241137D01*
X151245960Y-121217005D01*
X151210604Y-121188185D01*
X151195247Y-121178461D01*
X151151099Y-121161714D01*
X151091602Y-121152227D01*
X151025513Y-121150095D01*
X150961589Y-121155417D01*
G36*
X150364745Y-121151486D02*
G01*
X150316405Y-121161015D01*
X150288886Y-121175125D01*
X150259936Y-121198568D01*
X150301124Y-121250571D01*
X150326518Y-121282064D01*
X150343762Y-121297428D01*
X150360898Y-121299776D01*
X150385973Y-121292217D01*
X150397743Y-121287941D01*
X150445730Y-121281631D01*
X150489676Y-121295156D01*
X150521940Y-121325710D01*
X150527181Y-121335452D01*
X150532888Y-121361258D01*
X150537294Y-121408817D01*
X150540189Y-121474758D01*
X150541369Y-121555710D01*
X150541386Y-121567226D01*
X150541386Y-121767822D01*
X150679703Y-121767822D01*
X150679703Y-121151683D01*
X150610544Y-121151683D01*
X150570667Y-121152725D01*
X150549893Y-121157358D01*
X150542211Y-121167849D01*
X150541386Y-121177745D01*
X150541386Y-121203806D01*
X150508255Y-121177745D01*
X150470265Y-121159965D01*
X150419230Y-121151174D01*
X150364745Y-121151486D01*
G37*
X150364745Y-121151486D02*
X150316405Y-121161015D01*
X150288886Y-121175125D01*
X150259936Y-121198568D01*
X150301124Y-121250571D01*
X150326518Y-121282064D01*
X150343762Y-121297428D01*
X150360898Y-121299776D01*
X150385973Y-121292217D01*
X150397743Y-121287941D01*
X150445730Y-121281631D01*
X150489676Y-121295156D01*
X150521940Y-121325710D01*
X150527181Y-121335452D01*
X150532888Y-121361258D01*
X150537294Y-121408817D01*
X150540189Y-121474758D01*
X150541369Y-121555710D01*
X150541386Y-121567226D01*
X150541386Y-121767822D01*
X150679703Y-121767822D01*
X150679703Y-121151683D01*
X150610544Y-121151683D01*
X150570667Y-121152725D01*
X150549893Y-121157358D01*
X150542211Y-121167849D01*
X150541386Y-121177745D01*
X150541386Y-121203806D01*
X150508255Y-121177745D01*
X150470265Y-121159965D01*
X150419230Y-121151174D01*
X150364745Y-121151486D01*
G36*
X149967419Y-121154970D02*
G01*
X149907315Y-121170597D01*
X149856979Y-121202848D01*
X149832607Y-121226940D01*
X149792655Y-121283895D01*
X149769758Y-121349965D01*
X149761892Y-121431182D01*
X149761852Y-121437748D01*
X149761782Y-121503763D01*
X150141736Y-121503763D01*
X150133637Y-121538342D01*
X150119013Y-121569659D01*
X150093419Y-121602291D01*
X150088065Y-121607500D01*
X150042057Y-121635694D01*
X149989590Y-121640475D01*
X149929197Y-121621926D01*
X149918960Y-121616931D01*
X149887561Y-121601745D01*
X149866530Y-121593094D01*
X149862861Y-121592293D01*
X149850052Y-121600063D01*
X149825622Y-121619072D01*
X149813221Y-121629460D01*
X149787524Y-121653321D01*
X149779085Y-121669077D01*
X149784942Y-121683571D01*
X149788072Y-121687534D01*
X149809275Y-121704879D01*
X149844262Y-121725959D01*
X149868663Y-121738265D01*
X149937928Y-121759946D01*
X150014612Y-121766971D01*
X150087235Y-121758647D01*
X150107574Y-121752686D01*
X150170524Y-121718952D01*
X150217185Y-121667045D01*
X150247827Y-121596459D01*
X150262718Y-121506692D01*
X150264353Y-121459753D01*
X150259579Y-121391413D01*
X150139010Y-121391413D01*
X150127348Y-121396465D01*
X150096002Y-121400429D01*
X150050429Y-121402768D01*
X150019554Y-121403169D01*
X149964019Y-121402783D01*
X149928967Y-121400975D01*
X149909738Y-121396773D01*
X149901670Y-121389203D01*
X149900099Y-121378218D01*
X149910879Y-121344381D01*
X149938020Y-121310940D01*
X149973723Y-121285272D01*
X150009440Y-121274772D01*
X150057952Y-121284086D01*
X150099947Y-121311013D01*
X150129064Y-121349827D01*
X150139010Y-121391413D01*
X150259579Y-121391413D01*
X150257401Y-121360236D01*
X150235945Y-121280949D01*
X150199530Y-121221263D01*
X150147703Y-121180549D01*
X150080010Y-121158179D01*
X150043338Y-121153871D01*
X149967419Y-121154970D01*
G37*
X149967419Y-121154970D02*
X149907315Y-121170597D01*
X149856979Y-121202848D01*
X149832607Y-121226940D01*
X149792655Y-121283895D01*
X149769758Y-121349965D01*
X149761892Y-121431182D01*
X149761852Y-121437748D01*
X149761782Y-121503763D01*
X150141736Y-121503763D01*
X150133637Y-121538342D01*
X150119013Y-121569659D01*
X150093419Y-121602291D01*
X150088065Y-121607500D01*
X150042057Y-121635694D01*
X149989590Y-121640475D01*
X149929197Y-121621926D01*
X149918960Y-121616931D01*
X149887561Y-121601745D01*
X149866530Y-121593094D01*
X149862861Y-121592293D01*
X149850052Y-121600063D01*
X149825622Y-121619072D01*
X149813221Y-121629460D01*
X149787524Y-121653321D01*
X149779085Y-121669077D01*
X149784942Y-121683571D01*
X149788072Y-121687534D01*
X149809275Y-121704879D01*
X149844262Y-121725959D01*
X149868663Y-121738265D01*
X149937928Y-121759946D01*
X150014612Y-121766971D01*
X150087235Y-121758647D01*
X150107574Y-121752686D01*
X150170524Y-121718952D01*
X150217185Y-121667045D01*
X150247827Y-121596459D01*
X150262718Y-121506692D01*
X150264353Y-121459753D01*
X150259579Y-121391413D01*
X150139010Y-121391413D01*
X150127348Y-121396465D01*
X150096002Y-121400429D01*
X150050429Y-121402768D01*
X150019554Y-121403169D01*
X149964019Y-121402783D01*
X149928967Y-121400975D01*
X149909738Y-121396773D01*
X149901670Y-121389203D01*
X149900099Y-121378218D01*
X149910879Y-121344381D01*
X149938020Y-121310940D01*
X149973723Y-121285272D01*
X150009440Y-121274772D01*
X150057952Y-121284086D01*
X150099947Y-121311013D01*
X150129064Y-121349827D01*
X150139010Y-121391413D01*
X150259579Y-121391413D01*
X150257401Y-121360236D01*
X150235945Y-121280949D01*
X150199530Y-121221263D01*
X150147703Y-121180549D01*
X150080010Y-121158179D01*
X150043338Y-121153871D01*
X149967419Y-121154970D01*
G36*
X154538261Y-120215148D02*
G01*
X154472479Y-120244231D01*
X154422540Y-120292793D01*
X154388374Y-120360908D01*
X154369907Y-120448651D01*
X154368583Y-120462351D01*
X154367546Y-120558939D01*
X154380993Y-120643602D01*
X154408108Y-120712221D01*
X154422627Y-120734294D01*
X154473201Y-120781011D01*
X154537609Y-120811268D01*
X154609666Y-120823824D01*
X154683185Y-120817439D01*
X154739072Y-120797772D01*
X154787132Y-120764629D01*
X154826412Y-120721175D01*
X154827092Y-120720158D01*
X154843044Y-120693338D01*
X154853410Y-120666368D01*
X154859688Y-120632332D01*
X154863373Y-120584310D01*
X154864997Y-120544931D01*
X154865672Y-120509219D01*
X154739955Y-120509219D01*
X154738726Y-120544770D01*
X154734266Y-120592094D01*
X154726397Y-120622465D01*
X154712207Y-120644072D01*
X154698917Y-120656694D01*
X154651802Y-120683122D01*
X154602505Y-120686653D01*
X154556593Y-120667639D01*
X154533638Y-120646331D01*
X154517096Y-120624859D01*
X154507421Y-120604313D01*
X154503174Y-120577574D01*
X154502920Y-120537523D01*
X154504228Y-120500638D01*
X154507043Y-120447947D01*
X154511505Y-120413772D01*
X154519548Y-120391480D01*
X154533103Y-120374442D01*
X154543845Y-120364703D01*
X154588777Y-120339123D01*
X154637249Y-120337847D01*
X154677894Y-120352999D01*
X154712567Y-120384642D01*
X154733224Y-120436620D01*
X154739955Y-120509219D01*
X154865672Y-120509219D01*
X154866479Y-120466621D01*
X154863948Y-120408056D01*
X154856362Y-120364007D01*
X154842681Y-120329248D01*
X154821865Y-120298551D01*
X154814147Y-120289436D01*
X154765889Y-120244021D01*
X154714128Y-120217493D01*
X154650828Y-120206379D01*
X154619961Y-120205471D01*
X154538261Y-120215148D01*
G37*
X154538261Y-120215148D02*
X154472479Y-120244231D01*
X154422540Y-120292793D01*
X154388374Y-120360908D01*
X154369907Y-120448651D01*
X154368583Y-120462351D01*
X154367546Y-120558939D01*
X154380993Y-120643602D01*
X154408108Y-120712221D01*
X154422627Y-120734294D01*
X154473201Y-120781011D01*
X154537609Y-120811268D01*
X154609666Y-120823824D01*
X154683185Y-120817439D01*
X154739072Y-120797772D01*
X154787132Y-120764629D01*
X154826412Y-120721175D01*
X154827092Y-120720158D01*
X154843044Y-120693338D01*
X154853410Y-120666368D01*
X154859688Y-120632332D01*
X154863373Y-120584310D01*
X154864997Y-120544931D01*
X154865672Y-120509219D01*
X154739955Y-120509219D01*
X154738726Y-120544770D01*
X154734266Y-120592094D01*
X154726397Y-120622465D01*
X154712207Y-120644072D01*
X154698917Y-120656694D01*
X154651802Y-120683122D01*
X154602505Y-120686653D01*
X154556593Y-120667639D01*
X154533638Y-120646331D01*
X154517096Y-120624859D01*
X154507421Y-120604313D01*
X154503174Y-120577574D01*
X154502920Y-120537523D01*
X154504228Y-120500638D01*
X154507043Y-120447947D01*
X154511505Y-120413772D01*
X154519548Y-120391480D01*
X154533103Y-120374442D01*
X154543845Y-120364703D01*
X154588777Y-120339123D01*
X154637249Y-120337847D01*
X154677894Y-120352999D01*
X154712567Y-120384642D01*
X154733224Y-120436620D01*
X154739955Y-120509219D01*
X154865672Y-120509219D01*
X154866479Y-120466621D01*
X154863948Y-120408056D01*
X154856362Y-120364007D01*
X154842681Y-120329248D01*
X154821865Y-120298551D01*
X154814147Y-120289436D01*
X154765889Y-120244021D01*
X154714128Y-120217493D01*
X154650828Y-120206379D01*
X154619961Y-120205471D01*
X154538261Y-120215148D01*
G36*
X153356699Y-120222614D02*
G01*
X153344168Y-120228514D01*
X153300799Y-120260283D01*
X153259790Y-120306646D01*
X153229168Y-120357696D01*
X153220459Y-120381166D01*
X153212512Y-120423091D01*
X153207774Y-120473757D01*
X153207199Y-120494679D01*
X153207129Y-120560693D01*
X153587083Y-120560693D01*
X153578983Y-120595273D01*
X153559104Y-120636170D01*
X153524347Y-120671514D01*
X153482998Y-120694282D01*
X153456649Y-120699010D01*
X153420916Y-120693273D01*
X153378282Y-120678882D01*
X153363799Y-120672262D01*
X153310240Y-120645513D01*
X153264533Y-120680376D01*
X153238158Y-120703955D01*
X153224124Y-120723417D01*
X153223414Y-120729129D01*
X153235951Y-120742973D01*
X153263428Y-120764012D01*
X153288366Y-120780425D01*
X153355664Y-120809930D01*
X153431110Y-120823284D01*
X153505888Y-120819812D01*
X153565495Y-120801663D01*
X153626941Y-120762784D01*
X153670608Y-120711595D01*
X153697926Y-120645367D01*
X153710322Y-120561371D01*
X153711421Y-120522936D01*
X153707022Y-120434861D01*
X153706482Y-120432299D01*
X153580582Y-120432299D01*
X153577115Y-120440558D01*
X153562863Y-120445113D01*
X153533470Y-120447065D01*
X153484575Y-120447517D01*
X153465748Y-120447525D01*
X153408467Y-120446843D01*
X153372141Y-120444364D01*
X153352604Y-120439443D01*
X153345690Y-120431434D01*
X153345445Y-120428862D01*
X153353336Y-120408423D01*
X153373085Y-120379789D01*
X153381575Y-120369763D01*
X153413094Y-120341408D01*
X153445949Y-120330259D01*
X153463651Y-120329327D01*
X153511539Y-120340981D01*
X153551699Y-120372285D01*
X153577173Y-120417752D01*
X153577625Y-120419233D01*
X153580582Y-120432299D01*
X153706482Y-120432299D01*
X153692392Y-120365510D01*
X153666038Y-120310025D01*
X153633807Y-120270639D01*
X153574217Y-120227931D01*
X153504168Y-120205109D01*
X153429661Y-120203046D01*
X153356699Y-120222614D01*
G37*
X153356699Y-120222614D02*
X153344168Y-120228514D01*
X153300799Y-120260283D01*
X153259790Y-120306646D01*
X153229168Y-120357696D01*
X153220459Y-120381166D01*
X153212512Y-120423091D01*
X153207774Y-120473757D01*
X153207199Y-120494679D01*
X153207129Y-120560693D01*
X153587083Y-120560693D01*
X153578983Y-120595273D01*
X153559104Y-120636170D01*
X153524347Y-120671514D01*
X153482998Y-120694282D01*
X153456649Y-120699010D01*
X153420916Y-120693273D01*
X153378282Y-120678882D01*
X153363799Y-120672262D01*
X153310240Y-120645513D01*
X153264533Y-120680376D01*
X153238158Y-120703955D01*
X153224124Y-120723417D01*
X153223414Y-120729129D01*
X153235951Y-120742973D01*
X153263428Y-120764012D01*
X153288366Y-120780425D01*
X153355664Y-120809930D01*
X153431110Y-120823284D01*
X153505888Y-120819812D01*
X153565495Y-120801663D01*
X153626941Y-120762784D01*
X153670608Y-120711595D01*
X153697926Y-120645367D01*
X153710322Y-120561371D01*
X153711421Y-120522936D01*
X153707022Y-120434861D01*
X153706482Y-120432299D01*
X153580582Y-120432299D01*
X153577115Y-120440558D01*
X153562863Y-120445113D01*
X153533470Y-120447065D01*
X153484575Y-120447517D01*
X153465748Y-120447525D01*
X153408467Y-120446843D01*
X153372141Y-120444364D01*
X153352604Y-120439443D01*
X153345690Y-120431434D01*
X153345445Y-120428862D01*
X153353336Y-120408423D01*
X153373085Y-120379789D01*
X153381575Y-120369763D01*
X153413094Y-120341408D01*
X153445949Y-120330259D01*
X153463651Y-120329327D01*
X153511539Y-120340981D01*
X153551699Y-120372285D01*
X153577173Y-120417752D01*
X153577625Y-120419233D01*
X153580582Y-120432299D01*
X153706482Y-120432299D01*
X153692392Y-120365510D01*
X153666038Y-120310025D01*
X153633807Y-120270639D01*
X153574217Y-120227931D01*
X153504168Y-120205109D01*
X153429661Y-120203046D01*
X153356699Y-120222614D01*
G36*
X151985983Y-120206452D02*
G01*
X151938366Y-120215482D01*
X151888966Y-120234370D01*
X151883688Y-120236777D01*
X151846226Y-120256476D01*
X151820283Y-120274781D01*
X151811897Y-120286508D01*
X151819883Y-120305632D01*
X151839280Y-120333850D01*
X151847890Y-120344384D01*
X151883372Y-120385847D01*
X151929115Y-120358858D01*
X151972650Y-120340878D01*
X152022950Y-120331267D01*
X152071188Y-120330660D01*
X152108533Y-120339691D01*
X152117495Y-120345327D01*
X152134563Y-120371171D01*
X152136637Y-120400941D01*
X152123866Y-120424197D01*
X152116312Y-120428708D01*
X152093675Y-120434309D01*
X152053885Y-120440892D01*
X152004834Y-120447183D01*
X151995785Y-120448170D01*
X151917004Y-120461798D01*
X151859864Y-120484946D01*
X151821970Y-120519752D01*
X151800921Y-120568354D01*
X151794365Y-120627718D01*
X151803423Y-120695198D01*
X151832836Y-120748188D01*
X151882722Y-120786783D01*
X151953200Y-120811081D01*
X152031435Y-120820667D01*
X152095234Y-120820552D01*
X152146984Y-120811845D01*
X152182327Y-120799825D01*
X152226983Y-120778880D01*
X152268253Y-120754574D01*
X152282921Y-120743876D01*
X152320643Y-120713084D01*
X152275148Y-120667049D01*
X152229653Y-120621013D01*
X152177928Y-120655243D01*
X152126048Y-120680952D01*
X152070649Y-120694399D01*
X152017395Y-120695818D01*
X151971951Y-120685443D01*
X151939984Y-120663507D01*
X151929662Y-120644998D01*
X151931211Y-120615314D01*
X151956860Y-120592615D01*
X152006540Y-120576940D01*
X152060969Y-120569695D01*
X152144736Y-120555873D01*
X152206967Y-120529796D01*
X152248493Y-120490699D01*
X152270147Y-120437820D01*
X152273147Y-120375126D01*
X152258329Y-120309642D01*
X152224546Y-120260144D01*
X152171495Y-120226408D01*
X152098874Y-120208207D01*
X152045072Y-120204639D01*
X151985983Y-120206452D01*
G37*
X151985983Y-120206452D02*
X151938366Y-120215482D01*
X151888966Y-120234370D01*
X151883688Y-120236777D01*
X151846226Y-120256476D01*
X151820283Y-120274781D01*
X151811897Y-120286508D01*
X151819883Y-120305632D01*
X151839280Y-120333850D01*
X151847890Y-120344384D01*
X151883372Y-120385847D01*
X151929115Y-120358858D01*
X151972650Y-120340878D01*
X152022950Y-120331267D01*
X152071188Y-120330660D01*
X152108533Y-120339691D01*
X152117495Y-120345327D01*
X152134563Y-120371171D01*
X152136637Y-120400941D01*
X152123866Y-120424197D01*
X152116312Y-120428708D01*
X152093675Y-120434309D01*
X152053885Y-120440892D01*
X152004834Y-120447183D01*
X151995785Y-120448170D01*
X151917004Y-120461798D01*
X151859864Y-120484946D01*
X151821970Y-120519752D01*
X151800921Y-120568354D01*
X151794365Y-120627718D01*
X151803423Y-120695198D01*
X151832836Y-120748188D01*
X151882722Y-120786783D01*
X151953200Y-120811081D01*
X152031435Y-120820667D01*
X152095234Y-120820552D01*
X152146984Y-120811845D01*
X152182327Y-120799825D01*
X152226983Y-120778880D01*
X152268253Y-120754574D01*
X152282921Y-120743876D01*
X152320643Y-120713084D01*
X152275148Y-120667049D01*
X152229653Y-120621013D01*
X152177928Y-120655243D01*
X152126048Y-120680952D01*
X152070649Y-120694399D01*
X152017395Y-120695818D01*
X151971951Y-120685443D01*
X151939984Y-120663507D01*
X151929662Y-120644998D01*
X151931211Y-120615314D01*
X151956860Y-120592615D01*
X152006540Y-120576940D01*
X152060969Y-120569695D01*
X152144736Y-120555873D01*
X152206967Y-120529796D01*
X152248493Y-120490699D01*
X152270147Y-120437820D01*
X152273147Y-120375126D01*
X152258329Y-120309642D01*
X152224546Y-120260144D01*
X152171495Y-120226408D01*
X152098874Y-120208207D01*
X152045072Y-120204639D01*
X151985983Y-120206452D01*
G36*
X151389238Y-120216055D02*
G01*
X151325637Y-120250692D01*
X151275877Y-120305372D01*
X151252432Y-120349842D01*
X151242366Y-120389121D01*
X151235844Y-120445116D01*
X151233049Y-120509621D01*
X151234164Y-120574429D01*
X151239374Y-120631334D01*
X151245459Y-120661727D01*
X151265986Y-120703306D01*
X151301537Y-120747468D01*
X151344381Y-120786087D01*
X151386789Y-120811034D01*
X151387823Y-120811430D01*
X151440447Y-120822331D01*
X151502812Y-120822601D01*
X151562076Y-120812676D01*
X151584960Y-120804722D01*
X151643898Y-120771300D01*
X151686110Y-120727511D01*
X151713844Y-120669538D01*
X151729349Y-120593565D01*
X151732857Y-120553771D01*
X151732410Y-120503766D01*
X151597624Y-120503766D01*
X151593083Y-120576732D01*
X151580014Y-120632334D01*
X151559244Y-120667861D01*
X151544448Y-120678020D01*
X151506536Y-120685104D01*
X151461473Y-120683007D01*
X151422513Y-120672812D01*
X151412296Y-120667204D01*
X151385341Y-120634538D01*
X151367549Y-120584545D01*
X151359976Y-120523705D01*
X151363675Y-120458497D01*
X151371943Y-120419253D01*
X151395680Y-120373805D01*
X151433151Y-120345396D01*
X151478280Y-120335573D01*
X151524989Y-120345887D01*
X151560868Y-120371112D01*
X151579723Y-120391925D01*
X151590728Y-120412439D01*
X151595974Y-120440203D01*
X151597551Y-120482762D01*
X151597624Y-120503766D01*
X151732410Y-120503766D01*
X151731906Y-120447580D01*
X151714612Y-120360501D01*
X151680971Y-120292530D01*
X151630982Y-120243664D01*
X151564644Y-120213899D01*
X151550399Y-120210448D01*
X151464790Y-120202345D01*
X151389238Y-120216055D01*
G37*
X151389238Y-120216055D02*
X151325637Y-120250692D01*
X151275877Y-120305372D01*
X151252432Y-120349842D01*
X151242366Y-120389121D01*
X151235844Y-120445116D01*
X151233049Y-120509621D01*
X151234164Y-120574429D01*
X151239374Y-120631334D01*
X151245459Y-120661727D01*
X151265986Y-120703306D01*
X151301537Y-120747468D01*
X151344381Y-120786087D01*
X151386789Y-120811034D01*
X151387823Y-120811430D01*
X151440447Y-120822331D01*
X151502812Y-120822601D01*
X151562076Y-120812676D01*
X151584960Y-120804722D01*
X151643898Y-120771300D01*
X151686110Y-120727511D01*
X151713844Y-120669538D01*
X151729349Y-120593565D01*
X151732857Y-120553771D01*
X151732410Y-120503766D01*
X151597624Y-120503766D01*
X151593083Y-120576732D01*
X151580014Y-120632334D01*
X151559244Y-120667861D01*
X151544448Y-120678020D01*
X151506536Y-120685104D01*
X151461473Y-120683007D01*
X151422513Y-120672812D01*
X151412296Y-120667204D01*
X151385341Y-120634538D01*
X151367549Y-120584545D01*
X151359976Y-120523705D01*
X151363675Y-120458497D01*
X151371943Y-120419253D01*
X151395680Y-120373805D01*
X151433151Y-120345396D01*
X151478280Y-120335573D01*
X151524989Y-120345887D01*
X151560868Y-120371112D01*
X151579723Y-120391925D01*
X151590728Y-120412439D01*
X151595974Y-120440203D01*
X151597551Y-120482762D01*
X151597624Y-120503766D01*
X151732410Y-120503766D01*
X151731906Y-120447580D01*
X151714612Y-120360501D01*
X151680971Y-120292530D01*
X151630982Y-120243664D01*
X151564644Y-120213899D01*
X151550399Y-120210448D01*
X151464790Y-120202345D01*
X151389238Y-120216055D01*
G36*
X151006633Y-120404342D02*
G01*
X151005445Y-120496563D01*
X151001103Y-120566610D01*
X150992442Y-120617381D01*
X150978296Y-120651772D01*
X150957500Y-120672679D01*
X150928890Y-120683000D01*
X150893465Y-120685636D01*
X150856364Y-120682682D01*
X150828182Y-120671889D01*
X150807757Y-120650360D01*
X150793921Y-120615199D01*
X150785509Y-120563510D01*
X150781357Y-120492394D01*
X150780297Y-120404342D01*
X150780297Y-120208614D01*
X150641980Y-120208614D01*
X150641980Y-120812179D01*
X150711138Y-120812179D01*
X150752830Y-120810489D01*
X150774299Y-120804556D01*
X150780297Y-120793293D01*
X150783909Y-120783261D01*
X150798286Y-120785383D01*
X150827264Y-120799580D01*
X150893681Y-120821480D01*
X150964125Y-120819928D01*
X151031623Y-120796147D01*
X151063767Y-120777362D01*
X151088285Y-120757022D01*
X151106196Y-120731573D01*
X151118521Y-120697458D01*
X151126277Y-120651121D01*
X151130484Y-120589007D01*
X151132160Y-120507561D01*
X151132376Y-120444578D01*
X151132376Y-120208614D01*
X151006633Y-120208614D01*
X151006633Y-120404342D01*
G37*
X151006633Y-120404342D02*
X151005445Y-120496563D01*
X151001103Y-120566610D01*
X150992442Y-120617381D01*
X150978296Y-120651772D01*
X150957500Y-120672679D01*
X150928890Y-120683000D01*
X150893465Y-120685636D01*
X150856364Y-120682682D01*
X150828182Y-120671889D01*
X150807757Y-120650360D01*
X150793921Y-120615199D01*
X150785509Y-120563510D01*
X150781357Y-120492394D01*
X150780297Y-120404342D01*
X150780297Y-120208614D01*
X150641980Y-120208614D01*
X150641980Y-120812179D01*
X150711138Y-120812179D01*
X150752830Y-120810489D01*
X150774299Y-120804556D01*
X150780297Y-120793293D01*
X150783909Y-120783261D01*
X150798286Y-120785383D01*
X150827264Y-120799580D01*
X150893681Y-120821480D01*
X150964125Y-120819928D01*
X151031623Y-120796147D01*
X151063767Y-120777362D01*
X151088285Y-120757022D01*
X151106196Y-120731573D01*
X151118521Y-120697458D01*
X151126277Y-120651121D01*
X151130484Y-120589007D01*
X151132160Y-120507561D01*
X151132376Y-120444578D01*
X151132376Y-120208614D01*
X151006633Y-120208614D01*
X151006633Y-120404342D01*
G36*
X149782774Y-120213880D02*
G01*
X149709920Y-120244830D01*
X149686973Y-120259895D01*
X149657646Y-120283048D01*
X149639236Y-120301253D01*
X149636039Y-120307183D01*
X149645065Y-120320340D01*
X149668163Y-120342667D01*
X149686656Y-120358250D01*
X149737272Y-120398926D01*
X149777240Y-120365295D01*
X149808126Y-120343584D01*
X149838241Y-120336090D01*
X149872708Y-120337920D01*
X149927439Y-120351528D01*
X149965114Y-120379772D01*
X149988009Y-120425433D01*
X149998403Y-120491289D01*
X149998405Y-120491331D01*
X149997506Y-120564939D01*
X149983537Y-120618946D01*
X149955672Y-120655716D01*
X149936675Y-120668168D01*
X149886224Y-120683673D01*
X149832337Y-120683683D01*
X149785454Y-120668638D01*
X149774356Y-120661287D01*
X149746524Y-120642511D01*
X149724764Y-120639434D01*
X149701296Y-120653409D01*
X149675351Y-120678510D01*
X149634284Y-120720880D01*
X149679879Y-120758464D01*
X149750326Y-120800882D01*
X149829767Y-120821785D01*
X149912785Y-120820272D01*
X149967306Y-120806411D01*
X150031030Y-120772135D01*
X150081995Y-120718212D01*
X150105149Y-120680149D01*
X150123901Y-120625536D01*
X150133285Y-120556369D01*
X150133357Y-120481407D01*
X150124176Y-120409409D01*
X150105801Y-120349137D01*
X150102907Y-120342958D01*
X150060048Y-120282351D01*
X150002021Y-120238224D01*
X149933409Y-120211493D01*
X149858799Y-120203073D01*
X149782774Y-120213880D01*
G37*
X149782774Y-120213880D02*
X149709920Y-120244830D01*
X149686973Y-120259895D01*
X149657646Y-120283048D01*
X149639236Y-120301253D01*
X149636039Y-120307183D01*
X149645065Y-120320340D01*
X149668163Y-120342667D01*
X149686656Y-120358250D01*
X149737272Y-120398926D01*
X149777240Y-120365295D01*
X149808126Y-120343584D01*
X149838241Y-120336090D01*
X149872708Y-120337920D01*
X149927439Y-120351528D01*
X149965114Y-120379772D01*
X149988009Y-120425433D01*
X149998403Y-120491289D01*
X149998405Y-120491331D01*
X149997506Y-120564939D01*
X149983537Y-120618946D01*
X149955672Y-120655716D01*
X149936675Y-120668168D01*
X149886224Y-120683673D01*
X149832337Y-120683683D01*
X149785454Y-120668638D01*
X149774356Y-120661287D01*
X149746524Y-120642511D01*
X149724764Y-120639434D01*
X149701296Y-120653409D01*
X149675351Y-120678510D01*
X149634284Y-120720880D01*
X149679879Y-120758464D01*
X149750326Y-120800882D01*
X149829767Y-120821785D01*
X149912785Y-120820272D01*
X149967306Y-120806411D01*
X150031030Y-120772135D01*
X150081995Y-120718212D01*
X150105149Y-120680149D01*
X150123901Y-120625536D01*
X150133285Y-120556369D01*
X150133357Y-120481407D01*
X150124176Y-120409409D01*
X150105801Y-120349137D01*
X150102907Y-120342958D01*
X150060048Y-120282351D01*
X150002021Y-120238224D01*
X149933409Y-120211493D01*
X149858799Y-120203073D01*
X149782774Y-120213880D01*
G36*
X149322102Y-120206457D02*
G01*
X149289904Y-120214279D01*
X149228175Y-120242921D01*
X149175390Y-120286667D01*
X149138859Y-120339117D01*
X149133840Y-120350893D01*
X149126955Y-120381740D01*
X149122136Y-120427371D01*
X149120495Y-120473492D01*
X149120495Y-120560693D01*
X149302822Y-120560693D01*
X149378021Y-120560978D01*
X149430997Y-120562704D01*
X149464675Y-120567181D01*
X149481980Y-120575720D01*
X149485837Y-120589630D01*
X149479171Y-120610222D01*
X149467230Y-120634315D01*
X149433920Y-120674525D01*
X149387632Y-120694558D01*
X149331056Y-120693905D01*
X149266969Y-120672101D01*
X149211583Y-120645193D01*
X149165625Y-120681532D01*
X149119667Y-120717872D01*
X149162904Y-120757819D01*
X149220626Y-120795563D01*
X149291614Y-120818320D01*
X149367971Y-120824688D01*
X149441801Y-120813268D01*
X149453713Y-120809393D01*
X149518601Y-120775506D01*
X149566870Y-120724986D01*
X149599535Y-120656325D01*
X149617615Y-120568014D01*
X149617825Y-120566121D01*
X149619444Y-120469878D01*
X149612900Y-120435542D01*
X149485148Y-120435542D01*
X149473416Y-120440822D01*
X149441562Y-120444867D01*
X149394603Y-120447176D01*
X149364846Y-120447525D01*
X149309352Y-120447306D01*
X149274654Y-120445916D01*
X149256399Y-120442251D01*
X149250234Y-120435210D01*
X149251805Y-120423690D01*
X149253122Y-120419233D01*
X149275618Y-120377355D01*
X149310997Y-120343604D01*
X149342220Y-120328773D01*
X149383699Y-120329668D01*
X149425731Y-120348164D01*
X149460988Y-120378786D01*
X149482146Y-120416062D01*
X149485148Y-120435542D01*
X149612900Y-120435542D01*
X149603310Y-120385229D01*
X149571302Y-120314191D01*
X149525299Y-120258779D01*
X149467179Y-120221009D01*
X149398820Y-120202896D01*
X149322102Y-120206457D01*
G37*
X149322102Y-120206457D02*
X149289904Y-120214279D01*
X149228175Y-120242921D01*
X149175390Y-120286667D01*
X149138859Y-120339117D01*
X149133840Y-120350893D01*
X149126955Y-120381740D01*
X149122136Y-120427371D01*
X149120495Y-120473492D01*
X149120495Y-120560693D01*
X149302822Y-120560693D01*
X149378021Y-120560978D01*
X149430997Y-120562704D01*
X149464675Y-120567181D01*
X149481980Y-120575720D01*
X149485837Y-120589630D01*
X149479171Y-120610222D01*
X149467230Y-120634315D01*
X149433920Y-120674525D01*
X149387632Y-120694558D01*
X149331056Y-120693905D01*
X149266969Y-120672101D01*
X149211583Y-120645193D01*
X149165625Y-120681532D01*
X149119667Y-120717872D01*
X149162904Y-120757819D01*
X149220626Y-120795563D01*
X149291614Y-120818320D01*
X149367971Y-120824688D01*
X149441801Y-120813268D01*
X149453713Y-120809393D01*
X149518601Y-120775506D01*
X149566870Y-120724986D01*
X149599535Y-120656325D01*
X149617615Y-120568014D01*
X149617825Y-120566121D01*
X149619444Y-120469878D01*
X149612900Y-120435542D01*
X149485148Y-120435542D01*
X149473416Y-120440822D01*
X149441562Y-120444867D01*
X149394603Y-120447176D01*
X149364846Y-120447525D01*
X149309352Y-120447306D01*
X149274654Y-120445916D01*
X149256399Y-120442251D01*
X149250234Y-120435210D01*
X149251805Y-120423690D01*
X149253122Y-120419233D01*
X149275618Y-120377355D01*
X149310997Y-120343604D01*
X149342220Y-120328773D01*
X149383699Y-120329668D01*
X149425731Y-120348164D01*
X149460988Y-120378786D01*
X149482146Y-120416062D01*
X149485148Y-120435542D01*
X149612900Y-120435542D01*
X149603310Y-120385229D01*
X149571302Y-120314191D01*
X149525299Y-120258779D01*
X149467179Y-120221009D01*
X149398820Y-120202896D01*
X149322102Y-120206457D01*
G36*
X152754012Y-120219002D02*
G01*
X152722717Y-120233950D01*
X152692409Y-120255541D01*
X152669318Y-120280391D01*
X152652500Y-120312087D01*
X152641006Y-120354214D01*
X152633891Y-120410358D01*
X152630207Y-120484106D01*
X152629008Y-120579044D01*
X152628989Y-120588985D01*
X152628713Y-120812179D01*
X152767030Y-120812179D01*
X152767030Y-120606418D01*
X152767128Y-120530189D01*
X152767809Y-120474939D01*
X152769651Y-120436501D01*
X152773233Y-120410706D01*
X152779132Y-120393384D01*
X152787927Y-120380368D01*
X152800180Y-120367507D01*
X152843047Y-120339873D01*
X152889843Y-120334745D01*
X152934424Y-120352217D01*
X152949928Y-120365221D01*
X152961310Y-120377447D01*
X152969481Y-120390540D01*
X152974974Y-120408615D01*
X152978320Y-120435787D01*
X152980051Y-120476170D01*
X152980697Y-120533879D01*
X152980792Y-120604132D01*
X152980792Y-120812179D01*
X153119109Y-120812179D01*
X153119109Y-120208614D01*
X153049950Y-120208614D01*
X153008428Y-120210256D01*
X152987006Y-120216087D01*
X152980795Y-120227461D01*
X152980792Y-120227798D01*
X152977910Y-120238938D01*
X152965199Y-120237674D01*
X152939926Y-120225434D01*
X152882605Y-120207424D01*
X152817037Y-120205421D01*
X152754012Y-120219002D01*
G37*
X152754012Y-120219002D02*
X152722717Y-120233950D01*
X152692409Y-120255541D01*
X152669318Y-120280391D01*
X152652500Y-120312087D01*
X152641006Y-120354214D01*
X152633891Y-120410358D01*
X152630207Y-120484106D01*
X152629008Y-120579044D01*
X152628989Y-120588985D01*
X152628713Y-120812179D01*
X152767030Y-120812179D01*
X152767030Y-120606418D01*
X152767128Y-120530189D01*
X152767809Y-120474939D01*
X152769651Y-120436501D01*
X152773233Y-120410706D01*
X152779132Y-120393384D01*
X152787927Y-120380368D01*
X152800180Y-120367507D01*
X152843047Y-120339873D01*
X152889843Y-120334745D01*
X152934424Y-120352217D01*
X152949928Y-120365221D01*
X152961310Y-120377447D01*
X152969481Y-120390540D01*
X152974974Y-120408615D01*
X152978320Y-120435787D01*
X152980051Y-120476170D01*
X152980697Y-120533879D01*
X152980792Y-120604132D01*
X152980792Y-120812179D01*
X153119109Y-120812179D01*
X153119109Y-120208614D01*
X153049950Y-120208614D01*
X153008428Y-120210256D01*
X152987006Y-120216087D01*
X152980795Y-120227461D01*
X152980792Y-120227798D01*
X152977910Y-120238938D01*
X152965199Y-120237674D01*
X152939926Y-120225434D01*
X152882605Y-120207424D01*
X152817037Y-120205421D01*
X152754012Y-120219002D01*
G36*
X150200540Y-120208030D02*
G01*
X150157289Y-120221245D01*
X150129442Y-120237941D01*
X150120371Y-120251145D01*
X150122868Y-120266797D01*
X150139069Y-120291385D01*
X150152768Y-120308800D01*
X150181008Y-120340283D01*
X150202225Y-120353529D01*
X150220312Y-120352664D01*
X150273965Y-120339010D01*
X150313370Y-120339630D01*
X150345368Y-120355104D01*
X150356110Y-120364161D01*
X150390495Y-120396027D01*
X150390495Y-120812179D01*
X150528812Y-120812179D01*
X150528812Y-120208614D01*
X150459653Y-120208614D01*
X150418131Y-120210256D01*
X150396709Y-120216087D01*
X150390498Y-120227461D01*
X150390495Y-120227798D01*
X150387561Y-120239713D01*
X150374296Y-120238159D01*
X150355916Y-120229563D01*
X150317954Y-120213568D01*
X150287128Y-120203945D01*
X150247464Y-120201478D01*
X150200540Y-120208030D01*
G37*
X150200540Y-120208030D02*
X150157289Y-120221245D01*
X150129442Y-120237941D01*
X150120371Y-120251145D01*
X150122868Y-120266797D01*
X150139069Y-120291385D01*
X150152768Y-120308800D01*
X150181008Y-120340283D01*
X150202225Y-120353529D01*
X150220312Y-120352664D01*
X150273965Y-120339010D01*
X150313370Y-120339630D01*
X150345368Y-120355104D01*
X150356110Y-120364161D01*
X150390495Y-120396027D01*
X150390495Y-120812179D01*
X150528812Y-120812179D01*
X150528812Y-120208614D01*
X150459653Y-120208614D01*
X150418131Y-120210256D01*
X150396709Y-120216087D01*
X150390498Y-120227461D01*
X150390495Y-120227798D01*
X150387561Y-120239713D01*
X150374296Y-120238159D01*
X150355916Y-120229563D01*
X150317954Y-120213568D01*
X150287128Y-120203945D01*
X150247464Y-120201478D01*
X150200540Y-120208030D01*
G36*
X151623036Y-116040018D02*
G01*
X151566188Y-116341570D01*
X151146662Y-116514512D01*
X150895016Y-116343395D01*
X150824542Y-116295750D01*
X150760837Y-116253210D01*
X150706874Y-116217715D01*
X150665627Y-116191210D01*
X150640066Y-116175636D01*
X150633105Y-116172278D01*
X150620565Y-116180914D01*
X150593769Y-116204792D01*
X150555720Y-116240859D01*
X150509421Y-116286067D01*
X150457877Y-116337364D01*
X150404091Y-116391701D01*
X150351065Y-116446028D01*
X150301805Y-116497295D01*
X150259313Y-116542451D01*
X150226593Y-116578446D01*
X150206649Y-116602230D01*
X150201881Y-116610190D01*
X150208743Y-116624865D01*
X150227980Y-116657014D01*
X150257570Y-116703492D01*
X150295490Y-116761156D01*
X150339718Y-116826860D01*
X150365346Y-116864336D01*
X150412059Y-116932768D01*
X150453568Y-116994520D01*
X150487860Y-117046519D01*
X150512920Y-117085692D01*
X150526736Y-117108965D01*
X150528812Y-117113855D01*
X150524105Y-117127755D01*
X150511277Y-117160150D01*
X150492262Y-117206485D01*
X150468997Y-117262206D01*
X150443416Y-117322758D01*
X150417455Y-117383586D01*
X150393050Y-117440136D01*
X150372137Y-117487852D01*
X150356651Y-117522181D01*
X150348528Y-117538568D01*
X150348048Y-117539212D01*
X150335293Y-117542341D01*
X150301323Y-117549321D01*
X150249660Y-117559467D01*
X150183824Y-117572092D01*
X150107336Y-117586509D01*
X150062710Y-117594823D01*
X149980979Y-117610384D01*
X149907157Y-117625192D01*
X149844979Y-117638436D01*
X149798178Y-117649305D01*
X149770491Y-117656989D01*
X149764926Y-117659427D01*
X149759474Y-117675930D01*
X149755076Y-117713200D01*
X149751728Y-117766880D01*
X149749426Y-117832612D01*
X149748168Y-117906037D01*
X149747952Y-117982796D01*
X149748773Y-118058532D01*
X149750629Y-118128886D01*
X149753518Y-118189500D01*
X149757435Y-118236016D01*
X149762378Y-118264075D01*
X149765343Y-118269916D01*
X149783066Y-118276917D01*
X149820619Y-118286927D01*
X149873036Y-118298769D01*
X149935348Y-118311267D01*
X149957100Y-118315310D01*
X150061976Y-118334520D01*
X150144820Y-118349991D01*
X150208370Y-118362337D01*
X150255363Y-118372173D01*
X150288537Y-118380114D01*
X150310629Y-118386776D01*
X150324376Y-118392773D01*
X150332516Y-118398719D01*
X150333655Y-118399894D01*
X150345023Y-118418826D01*
X150362365Y-118455669D01*
X150383950Y-118505913D01*
X150408046Y-118565046D01*
X150432921Y-118628556D01*
X150456843Y-118691932D01*
X150478081Y-118750662D01*
X150494903Y-118800235D01*
X150505578Y-118836139D01*
X150508373Y-118853862D01*
X150508140Y-118854483D01*
X150498669Y-118868970D01*
X150477182Y-118900844D01*
X150445937Y-118946789D01*
X150407193Y-119003485D01*
X150363207Y-119067617D01*
X150350681Y-119085842D01*
X150306016Y-119151914D01*
X150266712Y-119212200D01*
X150234912Y-119263235D01*
X150212755Y-119301560D01*
X150202383Y-119323711D01*
X150201881Y-119326432D01*
X150210595Y-119340736D01*
X150234675Y-119369072D01*
X150271024Y-119408396D01*
X150316547Y-119455661D01*
X150368148Y-119507823D01*
X150422733Y-119561835D01*
X150477206Y-119614653D01*
X150528471Y-119663231D01*
X150573433Y-119704523D01*
X150608996Y-119735485D01*
X150632065Y-119753070D01*
X150638446Y-119755941D01*
X150653301Y-119749178D01*
X150683714Y-119730939D01*
X150724732Y-119704297D01*
X150756291Y-119682852D01*
X150813475Y-119643503D01*
X150881194Y-119597171D01*
X150949120Y-119550913D01*
X150985639Y-119526155D01*
X151109248Y-119442547D01*
X151213009Y-119498650D01*
X151260280Y-119523228D01*
X151300477Y-119542331D01*
X151327674Y-119553227D01*
X151334598Y-119554743D01*
X151342923Y-119543549D01*
X151359346Y-119511917D01*
X151382643Y-119462765D01*
X151411586Y-119399010D01*
X151444950Y-119323571D01*
X151481509Y-119239364D01*
X151520036Y-119149308D01*
X151559306Y-119056321D01*
X151598092Y-118963320D01*
X151635170Y-118873223D01*
X151669311Y-118788948D01*
X151699292Y-118713413D01*
X151723884Y-118649534D01*
X151741864Y-118600231D01*
X151752003Y-118568421D01*
X151753634Y-118557496D01*
X151740709Y-118543561D01*
X151712411Y-118520940D01*
X151674654Y-118494333D01*
X151671485Y-118492228D01*
X151573900Y-118414114D01*
X151495214Y-118322982D01*
X151436109Y-118221745D01*
X151397268Y-118113318D01*
X151379372Y-118000614D01*
X151383103Y-117886548D01*
X151409143Y-117774034D01*
X151458175Y-117665985D01*
X151472600Y-117642345D01*
X151547631Y-117546887D01*
X151636270Y-117470232D01*
X151735451Y-117412780D01*
X151842105Y-117374929D01*
X151953164Y-117357078D01*
X152065561Y-117359625D01*
X152176227Y-117382970D01*
X152282094Y-117427510D01*
X152380095Y-117493645D01*
X152410410Y-117520487D01*
X152487562Y-117604512D01*
X152543782Y-117692966D01*
X152582347Y-117792115D01*
X152603826Y-117890303D01*
X152609128Y-118000697D01*
X152591448Y-118111640D01*
X152552581Y-118219381D01*
X152494323Y-118320169D01*
X152418469Y-118410256D01*
X152326817Y-118485892D01*
X152314772Y-118493864D01*
X152276611Y-118519974D01*
X152247601Y-118542595D01*
X152233732Y-118557039D01*
X152233531Y-118557496D01*
X152236508Y-118573121D01*
X152248311Y-118608582D01*
X152267714Y-118660962D01*
X152293488Y-118727345D01*
X152324409Y-118804814D01*
X152359249Y-118890450D01*
X152396783Y-118981337D01*
X152435783Y-119074559D01*
X152475023Y-119167197D01*
X152513276Y-119256335D01*
X152549317Y-119339055D01*
X152581917Y-119412441D01*
X152609852Y-119473575D01*
X152631895Y-119519541D01*
X152646818Y-119547421D01*
X152652828Y-119554743D01*
X152671191Y-119549041D01*
X152705552Y-119533749D01*
X152749984Y-119511599D01*
X152774417Y-119498650D01*
X152878178Y-119442547D01*
X153001787Y-119526155D01*
X153064886Y-119568987D01*
X153133970Y-119616122D01*
X153198707Y-119660503D01*
X153231134Y-119682852D01*
X153276741Y-119713477D01*
X153315360Y-119737747D01*
X153341952Y-119752587D01*
X153350590Y-119755724D01*
X153363161Y-119747261D01*
X153390984Y-119723636D01*
X153431361Y-119687302D01*
X153481595Y-119640711D01*
X153538988Y-119586317D01*
X153575286Y-119551392D01*
X153638790Y-119488996D01*
X153693673Y-119433188D01*
X153737714Y-119386354D01*
X153768695Y-119350882D01*
X153784398Y-119329161D01*
X153785905Y-119324752D01*
X153778914Y-119307985D01*
X153759594Y-119274082D01*
X153730091Y-119226476D01*
X153692545Y-119168599D01*
X153649100Y-119103884D01*
X153636745Y-119085842D01*
X153591727Y-119020267D01*
X153551340Y-118961228D01*
X153517840Y-118912042D01*
X153493486Y-118876028D01*
X153480536Y-118856502D01*
X153479285Y-118854483D01*
X153481156Y-118838922D01*
X153491087Y-118804709D01*
X153507347Y-118756355D01*
X153528205Y-118698371D01*
X153551927Y-118635270D01*
X153576784Y-118571563D01*
X153601042Y-118511761D01*
X153622971Y-118460376D01*
X153640838Y-118421919D01*
X153652913Y-118400902D01*
X153653771Y-118399894D01*
X153661154Y-118393888D01*
X153673625Y-118387948D01*
X153693920Y-118381460D01*
X153724778Y-118373809D01*
X153768934Y-118364380D01*
X153829126Y-118352559D01*
X153908093Y-118337729D01*
X154008570Y-118319277D01*
X154030325Y-118315310D01*
X154094802Y-118302853D01*
X154151011Y-118290666D01*
X154193987Y-118279926D01*
X154218760Y-118271809D01*
X154222082Y-118269916D01*
X154227556Y-118253138D01*
X154232006Y-118215645D01*
X154235428Y-118161794D01*
X154237819Y-118095944D01*
X154239177Y-118022453D01*
X154239499Y-117945680D01*
X154238781Y-117869983D01*
X154237021Y-117799720D01*
X154234216Y-117739250D01*
X154230362Y-117692930D01*
X154225457Y-117665119D01*
X154222500Y-117659427D01*
X154206037Y-117653686D01*
X154168551Y-117644345D01*
X154113775Y-117632215D01*
X154045445Y-117618107D01*
X153967294Y-117602830D01*
X153924716Y-117594823D01*
X153843929Y-117579721D01*
X153771887Y-117566040D01*
X153712111Y-117554467D01*
X153668121Y-117545687D01*
X153643439Y-117540387D01*
X153639377Y-117539212D01*
X153632511Y-117525965D01*
X153617998Y-117494057D01*
X153597771Y-117448047D01*
X153573766Y-117392492D01*
X153547918Y-117331953D01*
X153522160Y-117270986D01*
X153498427Y-117214151D01*
X153478654Y-117166006D01*
X153464776Y-117131110D01*
X153458726Y-117114021D01*
X153458614Y-117113274D01*
X153465472Y-117099793D01*
X153484698Y-117068770D01*
X153514272Y-117023289D01*
X153552173Y-116966432D01*
X153596380Y-116901283D01*
X153622079Y-116863862D01*
X153668907Y-116795247D01*
X153710499Y-116732952D01*
X153744825Y-116680129D01*
X153769857Y-116639927D01*
X153783565Y-116615500D01*
X153785544Y-116610024D01*
X153777034Y-116597278D01*
X153753507Y-116570063D01*
X153717968Y-116531428D01*
X153673423Y-116484423D01*
X153622877Y-116432095D01*
X153569336Y-116377495D01*
X153515805Y-116323670D01*
X153465289Y-116273670D01*
X153420794Y-116230543D01*
X153385325Y-116197339D01*
X153361887Y-116177106D01*
X153354046Y-116172278D01*
X153341280Y-116179067D01*
X153310744Y-116198142D01*
X153265410Y-116227561D01*
X153208244Y-116265381D01*
X153142216Y-116309661D01*
X153092410Y-116343395D01*
X152840764Y-116514512D01*
X152631001Y-116428041D01*
X152421237Y-116341570D01*
X152364389Y-116040018D01*
X152307540Y-115738466D01*
X151679885Y-115738466D01*
X151623036Y-116040018D01*
G37*
X151623036Y-116040018D02*
X151566188Y-116341570D01*
X151146662Y-116514512D01*
X150895016Y-116343395D01*
X150824542Y-116295750D01*
X150760837Y-116253210D01*
X150706874Y-116217715D01*
X150665627Y-116191210D01*
X150640066Y-116175636D01*
X150633105Y-116172278D01*
X150620565Y-116180914D01*
X150593769Y-116204792D01*
X150555720Y-116240859D01*
X150509421Y-116286067D01*
X150457877Y-116337364D01*
X150404091Y-116391701D01*
X150351065Y-116446028D01*
X150301805Y-116497295D01*
X150259313Y-116542451D01*
X150226593Y-116578446D01*
X150206649Y-116602230D01*
X150201881Y-116610190D01*
X150208743Y-116624865D01*
X150227980Y-116657014D01*
X150257570Y-116703492D01*
X150295490Y-116761156D01*
X150339718Y-116826860D01*
X150365346Y-116864336D01*
X150412059Y-116932768D01*
X150453568Y-116994520D01*
X150487860Y-117046519D01*
X150512920Y-117085692D01*
X150526736Y-117108965D01*
X150528812Y-117113855D01*
X150524105Y-117127755D01*
X150511277Y-117160150D01*
X150492262Y-117206485D01*
X150468997Y-117262206D01*
X150443416Y-117322758D01*
X150417455Y-117383586D01*
X150393050Y-117440136D01*
X150372137Y-117487852D01*
X150356651Y-117522181D01*
X150348528Y-117538568D01*
X150348048Y-117539212D01*
X150335293Y-117542341D01*
X150301323Y-117549321D01*
X150249660Y-117559467D01*
X150183824Y-117572092D01*
X150107336Y-117586509D01*
X150062710Y-117594823D01*
X149980979Y-117610384D01*
X149907157Y-117625192D01*
X149844979Y-117638436D01*
X149798178Y-117649305D01*
X149770491Y-117656989D01*
X149764926Y-117659427D01*
X149759474Y-117675930D01*
X149755076Y-117713200D01*
X149751728Y-117766880D01*
X149749426Y-117832612D01*
X149748168Y-117906037D01*
X149747952Y-117982796D01*
X149748773Y-118058532D01*
X149750629Y-118128886D01*
X149753518Y-118189500D01*
X149757435Y-118236016D01*
X149762378Y-118264075D01*
X149765343Y-118269916D01*
X149783066Y-118276917D01*
X149820619Y-118286927D01*
X149873036Y-118298769D01*
X149935348Y-118311267D01*
X149957100Y-118315310D01*
X150061976Y-118334520D01*
X150144820Y-118349991D01*
X150208370Y-118362337D01*
X150255363Y-118372173D01*
X150288537Y-118380114D01*
X150310629Y-118386776D01*
X150324376Y-118392773D01*
X150332516Y-118398719D01*
X150333655Y-118399894D01*
X150345023Y-118418826D01*
X150362365Y-118455669D01*
X150383950Y-118505913D01*
X150408046Y-118565046D01*
X150432921Y-118628556D01*
X150456843Y-118691932D01*
X150478081Y-118750662D01*
X150494903Y-118800235D01*
X150505578Y-118836139D01*
X150508373Y-118853862D01*
X150508140Y-118854483D01*
X150498669Y-118868970D01*
X150477182Y-118900844D01*
X150445937Y-118946789D01*
X150407193Y-119003485D01*
X150363207Y-119067617D01*
X150350681Y-119085842D01*
X150306016Y-119151914D01*
X150266712Y-119212200D01*
X150234912Y-119263235D01*
X150212755Y-119301560D01*
X150202383Y-119323711D01*
X150201881Y-119326432D01*
X150210595Y-119340736D01*
X150234675Y-119369072D01*
X150271024Y-119408396D01*
X150316547Y-119455661D01*
X150368148Y-119507823D01*
X150422733Y-119561835D01*
X150477206Y-119614653D01*
X150528471Y-119663231D01*
X150573433Y-119704523D01*
X150608996Y-119735485D01*
X150632065Y-119753070D01*
X150638446Y-119755941D01*
X150653301Y-119749178D01*
X150683714Y-119730939D01*
X150724732Y-119704297D01*
X150756291Y-119682852D01*
X150813475Y-119643503D01*
X150881194Y-119597171D01*
X150949120Y-119550913D01*
X150985639Y-119526155D01*
X151109248Y-119442547D01*
X151213009Y-119498650D01*
X151260280Y-119523228D01*
X151300477Y-119542331D01*
X151327674Y-119553227D01*
X151334598Y-119554743D01*
X151342923Y-119543549D01*
X151359346Y-119511917D01*
X151382643Y-119462765D01*
X151411586Y-119399010D01*
X151444950Y-119323571D01*
X151481509Y-119239364D01*
X151520036Y-119149308D01*
X151559306Y-119056321D01*
X151598092Y-118963320D01*
X151635170Y-118873223D01*
X151669311Y-118788948D01*
X151699292Y-118713413D01*
X151723884Y-118649534D01*
X151741864Y-118600231D01*
X151752003Y-118568421D01*
X151753634Y-118557496D01*
X151740709Y-118543561D01*
X151712411Y-118520940D01*
X151674654Y-118494333D01*
X151671485Y-118492228D01*
X151573900Y-118414114D01*
X151495214Y-118322982D01*
X151436109Y-118221745D01*
X151397268Y-118113318D01*
X151379372Y-118000614D01*
X151383103Y-117886548D01*
X151409143Y-117774034D01*
X151458175Y-117665985D01*
X151472600Y-117642345D01*
X151547631Y-117546887D01*
X151636270Y-117470232D01*
X151735451Y-117412780D01*
X151842105Y-117374929D01*
X151953164Y-117357078D01*
X152065561Y-117359625D01*
X152176227Y-117382970D01*
X152282094Y-117427510D01*
X152380095Y-117493645D01*
X152410410Y-117520487D01*
X152487562Y-117604512D01*
X152543782Y-117692966D01*
X152582347Y-117792115D01*
X152603826Y-117890303D01*
X152609128Y-118000697D01*
X152591448Y-118111640D01*
X152552581Y-118219381D01*
X152494323Y-118320169D01*
X152418469Y-118410256D01*
X152326817Y-118485892D01*
X152314772Y-118493864D01*
X152276611Y-118519974D01*
X152247601Y-118542595D01*
X152233732Y-118557039D01*
X152233531Y-118557496D01*
X152236508Y-118573121D01*
X152248311Y-118608582D01*
X152267714Y-118660962D01*
X152293488Y-118727345D01*
X152324409Y-118804814D01*
X152359249Y-118890450D01*
X152396783Y-118981337D01*
X152435783Y-119074559D01*
X152475023Y-119167197D01*
X152513276Y-119256335D01*
X152549317Y-119339055D01*
X152581917Y-119412441D01*
X152609852Y-119473575D01*
X152631895Y-119519541D01*
X152646818Y-119547421D01*
X152652828Y-119554743D01*
X152671191Y-119549041D01*
X152705552Y-119533749D01*
X152749984Y-119511599D01*
X152774417Y-119498650D01*
X152878178Y-119442547D01*
X153001787Y-119526155D01*
X153064886Y-119568987D01*
X153133970Y-119616122D01*
X153198707Y-119660503D01*
X153231134Y-119682852D01*
X153276741Y-119713477D01*
X153315360Y-119737747D01*
X153341952Y-119752587D01*
X153350590Y-119755724D01*
X153363161Y-119747261D01*
X153390984Y-119723636D01*
X153431361Y-119687302D01*
X153481595Y-119640711D01*
X153538988Y-119586317D01*
X153575286Y-119551392D01*
X153638790Y-119488996D01*
X153693673Y-119433188D01*
X153737714Y-119386354D01*
X153768695Y-119350882D01*
X153784398Y-119329161D01*
X153785905Y-119324752D01*
X153778914Y-119307985D01*
X153759594Y-119274082D01*
X153730091Y-119226476D01*
X153692545Y-119168599D01*
X153649100Y-119103884D01*
X153636745Y-119085842D01*
X153591727Y-119020267D01*
X153551340Y-118961228D01*
X153517840Y-118912042D01*
X153493486Y-118876028D01*
X153480536Y-118856502D01*
X153479285Y-118854483D01*
X153481156Y-118838922D01*
X153491087Y-118804709D01*
X153507347Y-118756355D01*
X153528205Y-118698371D01*
X153551927Y-118635270D01*
X153576784Y-118571563D01*
X153601042Y-118511761D01*
X153622971Y-118460376D01*
X153640838Y-118421919D01*
X153652913Y-118400902D01*
X153653771Y-118399894D01*
X153661154Y-118393888D01*
X153673625Y-118387948D01*
X153693920Y-118381460D01*
X153724778Y-118373809D01*
X153768934Y-118364380D01*
X153829126Y-118352559D01*
X153908093Y-118337729D01*
X154008570Y-118319277D01*
X154030325Y-118315310D01*
X154094802Y-118302853D01*
X154151011Y-118290666D01*
X154193987Y-118279926D01*
X154218760Y-118271809D01*
X154222082Y-118269916D01*
X154227556Y-118253138D01*
X154232006Y-118215645D01*
X154235428Y-118161794D01*
X154237819Y-118095944D01*
X154239177Y-118022453D01*
X154239499Y-117945680D01*
X154238781Y-117869983D01*
X154237021Y-117799720D01*
X154234216Y-117739250D01*
X154230362Y-117692930D01*
X154225457Y-117665119D01*
X154222500Y-117659427D01*
X154206037Y-117653686D01*
X154168551Y-117644345D01*
X154113775Y-117632215D01*
X154045445Y-117618107D01*
X153967294Y-117602830D01*
X153924716Y-117594823D01*
X153843929Y-117579721D01*
X153771887Y-117566040D01*
X153712111Y-117554467D01*
X153668121Y-117545687D01*
X153643439Y-117540387D01*
X153639377Y-117539212D01*
X153632511Y-117525965D01*
X153617998Y-117494057D01*
X153597771Y-117448047D01*
X153573766Y-117392492D01*
X153547918Y-117331953D01*
X153522160Y-117270986D01*
X153498427Y-117214151D01*
X153478654Y-117166006D01*
X153464776Y-117131110D01*
X153458726Y-117114021D01*
X153458614Y-117113274D01*
X153465472Y-117099793D01*
X153484698Y-117068770D01*
X153514272Y-117023289D01*
X153552173Y-116966432D01*
X153596380Y-116901283D01*
X153622079Y-116863862D01*
X153668907Y-116795247D01*
X153710499Y-116732952D01*
X153744825Y-116680129D01*
X153769857Y-116639927D01*
X153783565Y-116615500D01*
X153785544Y-116610024D01*
X153777034Y-116597278D01*
X153753507Y-116570063D01*
X153717968Y-116531428D01*
X153673423Y-116484423D01*
X153622877Y-116432095D01*
X153569336Y-116377495D01*
X153515805Y-116323670D01*
X153465289Y-116273670D01*
X153420794Y-116230543D01*
X153385325Y-116197339D01*
X153361887Y-116177106D01*
X153354046Y-116172278D01*
X153341280Y-116179067D01*
X153310744Y-116198142D01*
X153265410Y-116227561D01*
X153208244Y-116265381D01*
X153142216Y-116309661D01*
X153092410Y-116343395D01*
X152840764Y-116514512D01*
X152631001Y-116428041D01*
X152421237Y-116341570D01*
X152364389Y-116040018D01*
X152307540Y-115738466D01*
X151679885Y-115738466D01*
X151623036Y-116040018D01*
M02*
