G04 #@! TF.GenerationSoftware,KiCad,Pcbnew,(5.1.5)-3*
G04 #@! TF.CreationDate,2020-12-04T17:06:53+01:00*
G04 #@! TF.ProjectId,PFD_HMC439QS16G,5046445f-484d-4433-9433-395153313647,1.1*
G04 #@! TF.SameCoordinates,Original*
G04 #@! TF.FileFunction,Other,Fab,Top*
%FSLAX46Y46*%
G04 Gerber Fmt 4.6, Leading zero omitted, Abs format (unit mm)*
G04 Created by KiCad (PCBNEW (5.1.5)-3) date 2020-12-04 17:06:53*
%MOMM*%
%LPD*%
G04 APERTURE LIST*
%ADD10C,0.100000*%
%ADD11C,0.150000*%
%ADD12C,0.040000*%
%ADD13C,0.120000*%
%ADD14C,0.060000*%
%ADD15C,0.110000*%
G04 APERTURE END LIST*
D10*
X182850000Y-107150000D02*
X181850000Y-107150000D01*
X182850000Y-106650000D02*
X182850000Y-107150000D01*
X181850000Y-106650000D02*
X182850000Y-106650000D01*
X181850000Y-107150000D02*
X181850000Y-106650000D01*
X182000000Y-92050000D02*
X182000000Y-91550000D01*
X182000000Y-91550000D02*
X183000000Y-91550000D01*
X183000000Y-91550000D02*
X183000000Y-92050000D01*
X183000000Y-92050000D02*
X182000000Y-92050000D01*
X138000000Y-78550000D02*
X138000000Y-81050000D01*
X138000000Y-81050000D02*
X134800000Y-81050000D01*
X134800000Y-81050000D02*
X134800000Y-78550000D01*
X134800000Y-78550000D02*
X138000000Y-78550000D01*
X129500000Y-81050000D02*
X129500000Y-78550000D01*
X129500000Y-78550000D02*
X132700000Y-78550000D01*
X132700000Y-78550000D02*
X132700000Y-81050000D01*
X132700000Y-81050000D02*
X129500000Y-81050000D01*
X176300000Y-100400000D02*
X174700000Y-100400000D01*
X176300000Y-99600000D02*
X176300000Y-100400000D01*
X174700000Y-99600000D02*
X176300000Y-99600000D01*
X174700000Y-100400000D02*
X174700000Y-99600000D01*
X174900000Y-96200000D02*
X174100000Y-96200000D01*
X174100000Y-96200000D02*
X174100000Y-94600000D01*
X174100000Y-94600000D02*
X174900000Y-94600000D01*
X174900000Y-94600000D02*
X174900000Y-96200000D01*
X135000000Y-92800000D02*
X135000000Y-91200000D01*
X135000000Y-91200000D02*
X138200000Y-91200000D01*
X138200000Y-91200000D02*
X138200000Y-92800000D01*
X138200000Y-92800000D02*
X135000000Y-92800000D01*
X127800000Y-81200000D02*
X127800000Y-84400000D01*
X126200000Y-81200000D02*
X127800000Y-81200000D01*
X126200000Y-84400000D02*
X126200000Y-81200000D01*
X127800000Y-84400000D02*
X126200000Y-84400000D01*
X172300000Y-103500000D02*
X173100000Y-103500000D01*
X173100000Y-103500000D02*
X173100000Y-105100000D01*
X173100000Y-105100000D02*
X172300000Y-105100000D01*
X172300000Y-105100000D02*
X172300000Y-103500000D01*
X160300000Y-91800000D02*
X160300000Y-93400000D01*
X159500000Y-91800000D02*
X160300000Y-91800000D01*
X159500000Y-93400000D02*
X159500000Y-91800000D01*
X160300000Y-93400000D02*
X159500000Y-93400000D01*
X142050000Y-83300000D02*
X142050000Y-86500000D01*
X139550000Y-83300000D02*
X142050000Y-83300000D01*
X139550000Y-86500000D02*
X139550000Y-83300000D01*
X142050000Y-86500000D02*
X139550000Y-86500000D01*
X128900000Y-90250000D02*
X132100000Y-90250000D01*
X128900000Y-92750000D02*
X128900000Y-90250000D01*
X132100000Y-92750000D02*
X128900000Y-92750000D01*
X132100000Y-90250000D02*
X132100000Y-92750000D01*
X157500000Y-103950000D02*
X157500000Y-105550000D01*
X156700000Y-103950000D02*
X157500000Y-103950000D01*
X156700000Y-105550000D02*
X156700000Y-103950000D01*
X157500000Y-105550000D02*
X156700000Y-105550000D01*
X157550000Y-95450000D02*
X156750000Y-95450000D01*
X156750000Y-95450000D02*
X156750000Y-93850000D01*
X156750000Y-93850000D02*
X157550000Y-93850000D01*
X157550000Y-93850000D02*
X157550000Y-95450000D01*
X141650000Y-94450000D02*
X141650000Y-96050000D01*
X140850000Y-94450000D02*
X141650000Y-94450000D01*
X140850000Y-96050000D02*
X140850000Y-94450000D01*
X141650000Y-96050000D02*
X140850000Y-96050000D01*
X139100000Y-97950000D02*
X139900000Y-97950000D01*
X139900000Y-97950000D02*
X139900000Y-99550000D01*
X139900000Y-99550000D02*
X139100000Y-99550000D01*
X139100000Y-99550000D02*
X139100000Y-97950000D01*
X143800000Y-103100000D02*
X143800000Y-103900000D01*
X143800000Y-103900000D02*
X142200000Y-103900000D01*
X142200000Y-103900000D02*
X142200000Y-103100000D01*
X142200000Y-103100000D02*
X143800000Y-103100000D01*
X148650000Y-95950000D02*
X148650000Y-97550000D01*
X147850000Y-95950000D02*
X148650000Y-95950000D01*
X147850000Y-97550000D02*
X147850000Y-95950000D01*
X148650000Y-97550000D02*
X147850000Y-97550000D01*
X162350000Y-107200000D02*
X162350000Y-105600000D01*
X163150000Y-107200000D02*
X162350000Y-107200000D01*
X163150000Y-105600000D02*
X163150000Y-107200000D01*
X162350000Y-105600000D02*
X163150000Y-105600000D01*
X151850000Y-101550000D02*
X151850000Y-99950000D01*
X152650000Y-101550000D02*
X151850000Y-101550000D01*
X152650000Y-99950000D02*
X152650000Y-101550000D01*
X151850000Y-99950000D02*
X152650000Y-99950000D01*
X137150000Y-107950000D02*
X137150000Y-109550000D01*
X136350000Y-107950000D02*
X137150000Y-107950000D01*
X136350000Y-109550000D02*
X136350000Y-107950000D01*
X137150000Y-109550000D02*
X136350000Y-109550000D01*
X129350000Y-113950000D02*
X130150000Y-113950000D01*
X130150000Y-113950000D02*
X130150000Y-115550000D01*
X130150000Y-115550000D02*
X129350000Y-115550000D01*
X129350000Y-115550000D02*
X129350000Y-113950000D01*
X125650000Y-111550000D02*
X124850000Y-111550000D01*
X124850000Y-111550000D02*
X124850000Y-109950000D01*
X124850000Y-109950000D02*
X125650000Y-109950000D01*
X125650000Y-109950000D02*
X125650000Y-111550000D01*
X119800000Y-106900000D02*
X119000000Y-106900000D01*
X119000000Y-106900000D02*
X119000000Y-105300000D01*
X119000000Y-105300000D02*
X119800000Y-105300000D01*
X119800000Y-105300000D02*
X119800000Y-106900000D01*
X191375000Y-106900000D02*
G75*
G03X191375000Y-106900000I-3175000J0D01*
G01*
X185025000Y-103725000D02*
X191375000Y-103725000D01*
X185025000Y-103725000D02*
X185025000Y-110075000D01*
X185025000Y-110075000D02*
X191375000Y-110075000D01*
X191375000Y-103725000D02*
X191375000Y-110075000D01*
X191375000Y-88625000D02*
X191375000Y-94975000D01*
X185025000Y-94975000D02*
X191375000Y-94975000D01*
X185025000Y-88625000D02*
X185025000Y-94975000D01*
X185025000Y-88625000D02*
X191375000Y-88625000D01*
X191375000Y-91800000D02*
G75*
G03X191375000Y-91800000I-3175000J0D01*
G01*
X114925000Y-88625000D02*
X114925000Y-94975000D01*
X108575000Y-94975000D02*
X114925000Y-94975000D01*
X108575000Y-88625000D02*
X108575000Y-94975000D01*
X108575000Y-88625000D02*
X114925000Y-88625000D01*
X114925000Y-91800000D02*
G75*
G03X114925000Y-91800000I-3175000J0D01*
G01*
X129950000Y-76135000D02*
X129950000Y-74230000D01*
X129950000Y-74230000D02*
X137570000Y-74230000D01*
X137570000Y-74230000D02*
X137570000Y-76770000D01*
X137570000Y-76770000D02*
X130585000Y-76770000D01*
X130585000Y-76770000D02*
X129950000Y-76135000D01*
X114975000Y-106900000D02*
G75*
G03X114975000Y-106900000I-3175000J0D01*
G01*
X108625000Y-103725000D02*
X114975000Y-103725000D01*
X108625000Y-103725000D02*
X108625000Y-110075000D01*
X108625000Y-110075000D02*
X114975000Y-110075000D01*
X114975000Y-103725000D02*
X114975000Y-110075000D01*
X135000000Y-90200000D02*
X135000000Y-89400000D01*
X135000000Y-89400000D02*
X136600000Y-89400000D01*
X136600000Y-89400000D02*
X136600000Y-90200000D01*
X136600000Y-90200000D02*
X135000000Y-90200000D01*
X126300000Y-85850000D02*
X127100000Y-85850000D01*
X127100000Y-85850000D02*
X127100000Y-87450000D01*
X127100000Y-87450000D02*
X126300000Y-87450000D01*
X126300000Y-87450000D02*
X126300000Y-85850000D01*
X164850000Y-95050000D02*
X164850000Y-93450000D01*
X165650000Y-95050000D02*
X164850000Y-95050000D01*
X165650000Y-93450000D02*
X165650000Y-95050000D01*
X164850000Y-93450000D02*
X165650000Y-93450000D01*
X163150000Y-103950000D02*
X162350000Y-103950000D01*
X162350000Y-103950000D02*
X162350000Y-102350000D01*
X162350000Y-102350000D02*
X163150000Y-102350000D01*
X163150000Y-102350000D02*
X163150000Y-103950000D01*
X159500000Y-97150000D02*
X159500000Y-95550000D01*
X160300000Y-97150000D02*
X159500000Y-97150000D01*
X160300000Y-95550000D02*
X160300000Y-97150000D01*
X159500000Y-95550000D02*
X160300000Y-95550000D01*
X166000000Y-105300000D02*
X165200000Y-105300000D01*
X165200000Y-105300000D02*
X165200000Y-103700000D01*
X165200000Y-103700000D02*
X166000000Y-103700000D01*
X166000000Y-103700000D02*
X166000000Y-105300000D01*
X161400000Y-100450000D02*
X159800000Y-100450000D01*
X161400000Y-99650000D02*
X161400000Y-100450000D01*
X159800000Y-99650000D02*
X161400000Y-99650000D01*
X159800000Y-100450000D02*
X159800000Y-99650000D01*
X157200000Y-102800000D02*
X155600000Y-102800000D01*
X157200000Y-102000000D02*
X157200000Y-102800000D01*
X155600000Y-102000000D02*
X157200000Y-102000000D01*
X155600000Y-102800000D02*
X155600000Y-102000000D01*
X155650000Y-97500000D02*
X155650000Y-96700000D01*
X155650000Y-96700000D02*
X157250000Y-96700000D01*
X157250000Y-96700000D02*
X157250000Y-97500000D01*
X157250000Y-97500000D02*
X155650000Y-97500000D01*
X152650000Y-95450000D02*
X152650000Y-97050000D01*
X151850000Y-95450000D02*
X152650000Y-95450000D01*
X151850000Y-97050000D02*
X151850000Y-95450000D01*
X152650000Y-97050000D02*
X151850000Y-97050000D01*
X150100000Y-99950000D02*
X150900000Y-99950000D01*
X150900000Y-99950000D02*
X150900000Y-101550000D01*
X150900000Y-101550000D02*
X150100000Y-101550000D01*
X150100000Y-101550000D02*
X150100000Y-99950000D01*
X146050000Y-96400000D02*
X144450000Y-96400000D01*
X146050000Y-95600000D02*
X146050000Y-96400000D01*
X144450000Y-95600000D02*
X146050000Y-95600000D01*
X144450000Y-96400000D02*
X144450000Y-95600000D01*
X140850000Y-99550000D02*
X140850000Y-97950000D01*
X141650000Y-99550000D02*
X140850000Y-99550000D01*
X141650000Y-97950000D02*
X141650000Y-99550000D01*
X140850000Y-97950000D02*
X141650000Y-97950000D01*
X137900000Y-99550000D02*
X137100000Y-99550000D01*
X137100000Y-99550000D02*
X137100000Y-97950000D01*
X137100000Y-97950000D02*
X137900000Y-97950000D01*
X137900000Y-97950000D02*
X137900000Y-99550000D01*
X117500000Y-93050000D02*
X117500000Y-90550000D01*
X117500000Y-90550000D02*
X120700000Y-90550000D01*
X120700000Y-90550000D02*
X120700000Y-93050000D01*
X120700000Y-93050000D02*
X117500000Y-93050000D01*
X144800000Y-112850000D02*
X144000000Y-112850000D01*
X144000000Y-112850000D02*
X144000000Y-111250000D01*
X144000000Y-111250000D02*
X144800000Y-111250000D01*
X144800000Y-111250000D02*
X144800000Y-112850000D01*
X133200000Y-113850000D02*
X134800000Y-113850000D01*
X133200000Y-114650000D02*
X133200000Y-113850000D01*
X134800000Y-114650000D02*
X133200000Y-114650000D01*
X134800000Y-113850000D02*
X134800000Y-114650000D01*
X127100000Y-111550000D02*
X127100000Y-109950000D01*
X127900000Y-111550000D02*
X127100000Y-111550000D01*
X127900000Y-109950000D02*
X127900000Y-111550000D01*
X127100000Y-109950000D02*
X127900000Y-109950000D01*
X124950000Y-107100000D02*
X124950000Y-103900000D01*
X127450000Y-107100000D02*
X124950000Y-107100000D01*
X127450000Y-103900000D02*
X127450000Y-107100000D01*
X124950000Y-103900000D02*
X127450000Y-103900000D01*
X121300000Y-107300000D02*
X121300000Y-106500000D01*
X121300000Y-106500000D02*
X122900000Y-106500000D01*
X122900000Y-106500000D02*
X122900000Y-107300000D01*
X122900000Y-107300000D02*
X121300000Y-107300000D01*
X117100000Y-105300000D02*
X117900000Y-105300000D01*
X117900000Y-105300000D02*
X117900000Y-106900000D01*
X117900000Y-106900000D02*
X117100000Y-106900000D01*
X117100000Y-106900000D02*
X117100000Y-105300000D01*
X138580000Y-124250000D02*
X143380000Y-124250000D01*
X143380000Y-124250000D02*
X143380000Y-105250000D01*
X143380000Y-105250000D02*
X138580000Y-105250000D01*
X138580000Y-105250000D02*
X138580000Y-124250000D01*
X139800000Y-125770000D02*
X142160000Y-125770000D01*
X142160000Y-125770000D02*
X142160000Y-124250000D01*
X142160000Y-124250000D02*
X139800000Y-124250000D01*
X139800000Y-124250000D02*
X139800000Y-125770000D01*
X140980000Y-125770000D02*
X140980000Y-125010000D01*
X138575000Y-84155000D02*
X138575000Y-86405000D01*
X138575000Y-86405000D02*
X134575000Y-86405000D01*
X134575000Y-86405000D02*
X134575000Y-83405000D01*
X134575000Y-83405000D02*
X137825000Y-83405000D01*
X137825000Y-83405000D02*
X138575000Y-84155000D01*
X131925000Y-83495000D02*
X132675000Y-84245000D01*
X128675000Y-83495000D02*
X131925000Y-83495000D01*
X128675000Y-86495000D02*
X128675000Y-83495000D01*
X132675000Y-86495000D02*
X128675000Y-86495000D01*
X132675000Y-84245000D02*
X132675000Y-86495000D01*
D11*
X170950000Y-102167500D02*
X168050000Y-102167500D01*
X168050000Y-102167500D02*
X168050000Y-97267500D01*
X168050000Y-97267500D02*
X171950000Y-97267500D01*
X171950000Y-97267500D02*
X171950000Y-101167500D01*
X171950000Y-101167500D02*
X170950000Y-102167500D01*
D10*
X145250000Y-99000000D02*
X147500000Y-99000000D01*
X147500000Y-99000000D02*
X147500000Y-102000000D01*
X147500000Y-102000000D02*
X144500000Y-102000000D01*
X144500000Y-102000000D02*
X144500000Y-99750000D01*
X144500000Y-99750000D02*
X145250000Y-99000000D01*
X133750000Y-111750000D02*
X133000000Y-112500000D01*
X133750000Y-109500000D02*
X133750000Y-111750000D01*
X130750000Y-109500000D02*
X133750000Y-109500000D01*
X130750000Y-112500000D02*
X130750000Y-109500000D01*
X133000000Y-112500000D02*
X130750000Y-112500000D01*
D11*
X181230952Y-108522380D02*
X180659523Y-108522380D01*
X180945238Y-108522380D02*
X180945238Y-107522380D01*
X180850000Y-107665238D01*
X180754761Y-107760476D01*
X180659523Y-107808095D01*
X181850000Y-107522380D02*
X181945238Y-107522380D01*
X182040476Y-107570000D01*
X182088095Y-107617619D01*
X182135714Y-107712857D01*
X182183333Y-107903333D01*
X182183333Y-108141428D01*
X182135714Y-108331904D01*
X182088095Y-108427142D01*
X182040476Y-108474761D01*
X181945238Y-108522380D01*
X181850000Y-108522380D01*
X181754761Y-108474761D01*
X181707142Y-108427142D01*
X181659523Y-108331904D01*
X181611904Y-108141428D01*
X181611904Y-107903333D01*
X181659523Y-107712857D01*
X181707142Y-107617619D01*
X181754761Y-107570000D01*
X181850000Y-107522380D01*
X182802380Y-107522380D02*
X182897619Y-107522380D01*
X182992857Y-107570000D01*
X183040476Y-107617619D01*
X183088095Y-107712857D01*
X183135714Y-107903333D01*
X183135714Y-108141428D01*
X183088095Y-108331904D01*
X183040476Y-108427142D01*
X182992857Y-108474761D01*
X182897619Y-108522380D01*
X182802380Y-108522380D01*
X182707142Y-108474761D01*
X182659523Y-108427142D01*
X182611904Y-108331904D01*
X182564285Y-108141428D01*
X182564285Y-107903333D01*
X182611904Y-107712857D01*
X182659523Y-107617619D01*
X182707142Y-107570000D01*
X182802380Y-107522380D01*
X183564285Y-107855714D02*
X183564285Y-108855714D01*
X183564285Y-107903333D02*
X183659523Y-107855714D01*
X183850000Y-107855714D01*
X183945238Y-107903333D01*
X183992857Y-107950952D01*
X184040476Y-108046190D01*
X184040476Y-108331904D01*
X183992857Y-108427142D01*
X183945238Y-108474761D01*
X183850000Y-108522380D01*
X183659523Y-108522380D01*
X183564285Y-108474761D01*
D12*
X182308333Y-106989285D02*
X182296428Y-107001190D01*
X182260714Y-107013095D01*
X182236904Y-107013095D01*
X182201190Y-107001190D01*
X182177380Y-106977380D01*
X182165476Y-106953571D01*
X182153571Y-106905952D01*
X182153571Y-106870238D01*
X182165476Y-106822619D01*
X182177380Y-106798809D01*
X182201190Y-106775000D01*
X182236904Y-106763095D01*
X182260714Y-106763095D01*
X182296428Y-106775000D01*
X182308333Y-106786904D01*
X182546428Y-107013095D02*
X182403571Y-107013095D01*
X182475000Y-107013095D02*
X182475000Y-106763095D01*
X182451190Y-106798809D01*
X182427380Y-106822619D01*
X182403571Y-106834523D01*
D11*
X181380952Y-93422380D02*
X180809523Y-93422380D01*
X181095238Y-93422380D02*
X181095238Y-92422380D01*
X181000000Y-92565238D01*
X180904761Y-92660476D01*
X180809523Y-92708095D01*
X182000000Y-92422380D02*
X182095238Y-92422380D01*
X182190476Y-92470000D01*
X182238095Y-92517619D01*
X182285714Y-92612857D01*
X182333333Y-92803333D01*
X182333333Y-93041428D01*
X182285714Y-93231904D01*
X182238095Y-93327142D01*
X182190476Y-93374761D01*
X182095238Y-93422380D01*
X182000000Y-93422380D01*
X181904761Y-93374761D01*
X181857142Y-93327142D01*
X181809523Y-93231904D01*
X181761904Y-93041428D01*
X181761904Y-92803333D01*
X181809523Y-92612857D01*
X181857142Y-92517619D01*
X181904761Y-92470000D01*
X182000000Y-92422380D01*
X182952380Y-92422380D02*
X183047619Y-92422380D01*
X183142857Y-92470000D01*
X183190476Y-92517619D01*
X183238095Y-92612857D01*
X183285714Y-92803333D01*
X183285714Y-93041428D01*
X183238095Y-93231904D01*
X183190476Y-93327142D01*
X183142857Y-93374761D01*
X183047619Y-93422380D01*
X182952380Y-93422380D01*
X182857142Y-93374761D01*
X182809523Y-93327142D01*
X182761904Y-93231904D01*
X182714285Y-93041428D01*
X182714285Y-92803333D01*
X182761904Y-92612857D01*
X182809523Y-92517619D01*
X182857142Y-92470000D01*
X182952380Y-92422380D01*
X183714285Y-92755714D02*
X183714285Y-93755714D01*
X183714285Y-92803333D02*
X183809523Y-92755714D01*
X184000000Y-92755714D01*
X184095238Y-92803333D01*
X184142857Y-92850952D01*
X184190476Y-92946190D01*
X184190476Y-93231904D01*
X184142857Y-93327142D01*
X184095238Y-93374761D01*
X184000000Y-93422380D01*
X183809523Y-93422380D01*
X183714285Y-93374761D01*
D12*
X182458333Y-91889285D02*
X182446428Y-91901190D01*
X182410714Y-91913095D01*
X182386904Y-91913095D01*
X182351190Y-91901190D01*
X182327380Y-91877380D01*
X182315476Y-91853571D01*
X182303571Y-91805952D01*
X182303571Y-91770238D01*
X182315476Y-91722619D01*
X182327380Y-91698809D01*
X182351190Y-91675000D01*
X182386904Y-91663095D01*
X182410714Y-91663095D01*
X182446428Y-91675000D01*
X182458333Y-91686904D01*
X182553571Y-91686904D02*
X182565476Y-91675000D01*
X182589285Y-91663095D01*
X182648809Y-91663095D01*
X182672619Y-91675000D01*
X182684523Y-91686904D01*
X182696428Y-91710714D01*
X182696428Y-91734523D01*
X182684523Y-91770238D01*
X182541666Y-91913095D01*
X182696428Y-91913095D01*
D11*
X135757142Y-77972380D02*
X135185714Y-77972380D01*
X135471428Y-77972380D02*
X135471428Y-76972380D01*
X135376190Y-77115238D01*
X135280952Y-77210476D01*
X135185714Y-77258095D01*
X136376190Y-76972380D02*
X136471428Y-76972380D01*
X136566666Y-77020000D01*
X136614285Y-77067619D01*
X136661904Y-77162857D01*
X136709523Y-77353333D01*
X136709523Y-77591428D01*
X136661904Y-77781904D01*
X136614285Y-77877142D01*
X136566666Y-77924761D01*
X136471428Y-77972380D01*
X136376190Y-77972380D01*
X136280952Y-77924761D01*
X136233333Y-77877142D01*
X136185714Y-77781904D01*
X136138095Y-77591428D01*
X136138095Y-77353333D01*
X136185714Y-77162857D01*
X136233333Y-77067619D01*
X136280952Y-77020000D01*
X136376190Y-76972380D01*
X137566666Y-77305714D02*
X137566666Y-77972380D01*
X137138095Y-77305714D02*
X137138095Y-77829523D01*
X137185714Y-77924761D01*
X137280952Y-77972380D01*
X137423809Y-77972380D01*
X137519047Y-77924761D01*
X137566666Y-77877142D01*
D13*
X136266666Y-80085714D02*
X136228571Y-80123809D01*
X136114285Y-80161904D01*
X136038095Y-80161904D01*
X135923809Y-80123809D01*
X135847619Y-80047619D01*
X135809523Y-79971428D01*
X135771428Y-79819047D01*
X135771428Y-79704761D01*
X135809523Y-79552380D01*
X135847619Y-79476190D01*
X135923809Y-79400000D01*
X136038095Y-79361904D01*
X136114285Y-79361904D01*
X136228571Y-79400000D01*
X136266666Y-79438095D01*
X136533333Y-79361904D02*
X137028571Y-79361904D01*
X136761904Y-79666666D01*
X136876190Y-79666666D01*
X136952380Y-79704761D01*
X136990476Y-79742857D01*
X137028571Y-79819047D01*
X137028571Y-80009523D01*
X136990476Y-80085714D01*
X136952380Y-80123809D01*
X136876190Y-80161904D01*
X136647619Y-80161904D01*
X136571428Y-80123809D01*
X136533333Y-80085714D01*
D11*
X130457142Y-82532380D02*
X129885714Y-82532380D01*
X130171428Y-82532380D02*
X130171428Y-81532380D01*
X130076190Y-81675238D01*
X129980952Y-81770476D01*
X129885714Y-81818095D01*
X131076190Y-81532380D02*
X131171428Y-81532380D01*
X131266666Y-81580000D01*
X131314285Y-81627619D01*
X131361904Y-81722857D01*
X131409523Y-81913333D01*
X131409523Y-82151428D01*
X131361904Y-82341904D01*
X131314285Y-82437142D01*
X131266666Y-82484761D01*
X131171428Y-82532380D01*
X131076190Y-82532380D01*
X130980952Y-82484761D01*
X130933333Y-82437142D01*
X130885714Y-82341904D01*
X130838095Y-82151428D01*
X130838095Y-81913333D01*
X130885714Y-81722857D01*
X130933333Y-81627619D01*
X130980952Y-81580000D01*
X131076190Y-81532380D01*
X132266666Y-81865714D02*
X132266666Y-82532380D01*
X131838095Y-81865714D02*
X131838095Y-82389523D01*
X131885714Y-82484761D01*
X131980952Y-82532380D01*
X132123809Y-82532380D01*
X132219047Y-82484761D01*
X132266666Y-82437142D01*
D13*
X130966666Y-80085714D02*
X130928571Y-80123809D01*
X130814285Y-80161904D01*
X130738095Y-80161904D01*
X130623809Y-80123809D01*
X130547619Y-80047619D01*
X130509523Y-79971428D01*
X130471428Y-79819047D01*
X130471428Y-79704761D01*
X130509523Y-79552380D01*
X130547619Y-79476190D01*
X130623809Y-79400000D01*
X130738095Y-79361904D01*
X130814285Y-79361904D01*
X130928571Y-79400000D01*
X130966666Y-79438095D01*
X131652380Y-79628571D02*
X131652380Y-80161904D01*
X131461904Y-79323809D02*
X131271428Y-79895238D01*
X131766666Y-79895238D01*
D11*
X175333333Y-101882380D02*
X174761904Y-101882380D01*
X175047619Y-101882380D02*
X175047619Y-100882380D01*
X174952380Y-101025238D01*
X174857142Y-101120476D01*
X174761904Y-101168095D01*
X175761904Y-101215714D02*
X175761904Y-101882380D01*
X175761904Y-101310952D02*
X175809523Y-101263333D01*
X175904761Y-101215714D01*
X176047619Y-101215714D01*
X176142857Y-101263333D01*
X176190476Y-101358571D01*
X176190476Y-101882380D01*
D14*
X175433333Y-100142857D02*
X175414285Y-100161904D01*
X175357142Y-100180952D01*
X175319047Y-100180952D01*
X175261904Y-100161904D01*
X175223809Y-100123809D01*
X175204761Y-100085714D01*
X175185714Y-100009523D01*
X175185714Y-99952380D01*
X175204761Y-99876190D01*
X175223809Y-99838095D01*
X175261904Y-99800000D01*
X175319047Y-99780952D01*
X175357142Y-99780952D01*
X175414285Y-99800000D01*
X175433333Y-99819047D01*
X175795238Y-99780952D02*
X175604761Y-99780952D01*
X175585714Y-99971428D01*
X175604761Y-99952380D01*
X175642857Y-99933333D01*
X175738095Y-99933333D01*
X175776190Y-99952380D01*
X175795238Y-99971428D01*
X175814285Y-100009523D01*
X175814285Y-100104761D01*
X175795238Y-100142857D01*
X175776190Y-100161904D01*
X175738095Y-100180952D01*
X175642857Y-100180952D01*
X175604761Y-100161904D01*
X175585714Y-100142857D01*
D11*
X176382380Y-95566666D02*
X176382380Y-96138095D01*
X176382380Y-95852380D02*
X175382380Y-95852380D01*
X175525238Y-95947619D01*
X175620476Y-96042857D01*
X175668095Y-96138095D01*
X175715714Y-95138095D02*
X176382380Y-95138095D01*
X175810952Y-95138095D02*
X175763333Y-95090476D01*
X175715714Y-94995238D01*
X175715714Y-94852380D01*
X175763333Y-94757142D01*
X175858571Y-94709523D01*
X176382380Y-94709523D01*
D14*
X174642857Y-95466666D02*
X174661904Y-95485714D01*
X174680952Y-95542857D01*
X174680952Y-95580952D01*
X174661904Y-95638095D01*
X174623809Y-95676190D01*
X174585714Y-95695238D01*
X174509523Y-95714285D01*
X174452380Y-95714285D01*
X174376190Y-95695238D01*
X174338095Y-95676190D01*
X174300000Y-95638095D01*
X174280952Y-95580952D01*
X174280952Y-95542857D01*
X174300000Y-95485714D01*
X174319047Y-95466666D01*
X174280952Y-95123809D02*
X174280952Y-95200000D01*
X174300000Y-95238095D01*
X174319047Y-95257142D01*
X174376190Y-95295238D01*
X174452380Y-95314285D01*
X174604761Y-95314285D01*
X174642857Y-95295238D01*
X174661904Y-95276190D01*
X174680952Y-95238095D01*
X174680952Y-95161904D01*
X174661904Y-95123809D01*
X174642857Y-95104761D01*
X174604761Y-95085714D01*
X174509523Y-95085714D01*
X174471428Y-95104761D01*
X174452380Y-95123809D01*
X174433333Y-95161904D01*
X174433333Y-95238095D01*
X174452380Y-95276190D01*
X174471428Y-95295238D01*
X174509523Y-95314285D01*
D11*
X134909523Y-93272380D02*
X135004761Y-93272380D01*
X135100000Y-93320000D01*
X135147619Y-93367619D01*
X135195238Y-93462857D01*
X135242857Y-93653333D01*
X135242857Y-93891428D01*
X135195238Y-94081904D01*
X135147619Y-94177142D01*
X135100000Y-94224761D01*
X135004761Y-94272380D01*
X134909523Y-94272380D01*
X134814285Y-94224761D01*
X134766666Y-94177142D01*
X134719047Y-94081904D01*
X134671428Y-93891428D01*
X134671428Y-93653333D01*
X134719047Y-93462857D01*
X134766666Y-93367619D01*
X134814285Y-93320000D01*
X134909523Y-93272380D01*
X135671428Y-94177142D02*
X135719047Y-94224761D01*
X135671428Y-94272380D01*
X135623809Y-94224761D01*
X135671428Y-94177142D01*
X135671428Y-94272380D01*
X136576190Y-93605714D02*
X136576190Y-94272380D01*
X136338095Y-93224761D02*
X136100000Y-93939047D01*
X136719047Y-93939047D01*
X137004761Y-93272380D02*
X137671428Y-93272380D01*
X137242857Y-94272380D01*
X138480952Y-93605714D02*
X138480952Y-94272380D01*
X138052380Y-93605714D02*
X138052380Y-94129523D01*
X138100000Y-94224761D01*
X138195238Y-94272380D01*
X138338095Y-94272380D01*
X138433333Y-94224761D01*
X138480952Y-94177142D01*
D13*
X136466666Y-92285714D02*
X136428571Y-92323809D01*
X136314285Y-92361904D01*
X136238095Y-92361904D01*
X136123809Y-92323809D01*
X136047619Y-92247619D01*
X136009523Y-92171428D01*
X135971428Y-92019047D01*
X135971428Y-91904761D01*
X136009523Y-91752380D01*
X136047619Y-91676190D01*
X136123809Y-91600000D01*
X136238095Y-91561904D01*
X136314285Y-91561904D01*
X136428571Y-91600000D01*
X136466666Y-91638095D01*
X136733333Y-91561904D02*
X137266666Y-91561904D01*
X136923809Y-92361904D01*
D11*
X128272380Y-84490476D02*
X128272380Y-84395238D01*
X128320000Y-84300000D01*
X128367619Y-84252380D01*
X128462857Y-84204761D01*
X128653333Y-84157142D01*
X128891428Y-84157142D01*
X129081904Y-84204761D01*
X129177142Y-84252380D01*
X129224761Y-84300000D01*
X129272380Y-84395238D01*
X129272380Y-84490476D01*
X129224761Y-84585714D01*
X129177142Y-84633333D01*
X129081904Y-84680952D01*
X128891428Y-84728571D01*
X128653333Y-84728571D01*
X128462857Y-84680952D01*
X128367619Y-84633333D01*
X128320000Y-84585714D01*
X128272380Y-84490476D01*
X129177142Y-83728571D02*
X129224761Y-83680952D01*
X129272380Y-83728571D01*
X129224761Y-83776190D01*
X129177142Y-83728571D01*
X129272380Y-83728571D01*
X128605714Y-82823809D02*
X129272380Y-82823809D01*
X128224761Y-83061904D02*
X128939047Y-83300000D01*
X128939047Y-82680952D01*
X128272380Y-82395238D02*
X128272380Y-81728571D01*
X129272380Y-82157142D01*
X128605714Y-80919047D02*
X129272380Y-80919047D01*
X128605714Y-81347619D02*
X129129523Y-81347619D01*
X129224761Y-81300000D01*
X129272380Y-81204761D01*
X129272380Y-81061904D01*
X129224761Y-80966666D01*
X129177142Y-80919047D01*
D13*
X127285714Y-82933333D02*
X127323809Y-82971428D01*
X127361904Y-83085714D01*
X127361904Y-83161904D01*
X127323809Y-83276190D01*
X127247619Y-83352380D01*
X127171428Y-83390476D01*
X127019047Y-83428571D01*
X126904761Y-83428571D01*
X126752380Y-83390476D01*
X126676190Y-83352380D01*
X126600000Y-83276190D01*
X126561904Y-83161904D01*
X126561904Y-83085714D01*
X126600000Y-82971428D01*
X126638095Y-82933333D01*
X126904761Y-82476190D02*
X126866666Y-82552380D01*
X126828571Y-82590476D01*
X126752380Y-82628571D01*
X126714285Y-82628571D01*
X126638095Y-82590476D01*
X126600000Y-82552380D01*
X126561904Y-82476190D01*
X126561904Y-82323809D01*
X126600000Y-82247619D01*
X126638095Y-82209523D01*
X126714285Y-82171428D01*
X126752380Y-82171428D01*
X126828571Y-82209523D01*
X126866666Y-82247619D01*
X126904761Y-82323809D01*
X126904761Y-82476190D01*
X126942857Y-82552380D01*
X126980952Y-82590476D01*
X127057142Y-82628571D01*
X127209523Y-82628571D01*
X127285714Y-82590476D01*
X127323809Y-82552380D01*
X127361904Y-82476190D01*
X127361904Y-82323809D01*
X127323809Y-82247619D01*
X127285714Y-82209523D01*
X127209523Y-82171428D01*
X127057142Y-82171428D01*
X126980952Y-82209523D01*
X126942857Y-82247619D01*
X126904761Y-82323809D01*
D11*
X171722380Y-104466666D02*
X171722380Y-105038095D01*
X171722380Y-104752380D02*
X170722380Y-104752380D01*
X170865238Y-104847619D01*
X170960476Y-104942857D01*
X171008095Y-105038095D01*
X171055714Y-104038095D02*
X171722380Y-104038095D01*
X171150952Y-104038095D02*
X171103333Y-103990476D01*
X171055714Y-103895238D01*
X171055714Y-103752380D01*
X171103333Y-103657142D01*
X171198571Y-103609523D01*
X171722380Y-103609523D01*
D14*
X172842857Y-104366666D02*
X172861904Y-104385714D01*
X172880952Y-104442857D01*
X172880952Y-104480952D01*
X172861904Y-104538095D01*
X172823809Y-104576190D01*
X172785714Y-104595238D01*
X172709523Y-104614285D01*
X172652380Y-104614285D01*
X172576190Y-104595238D01*
X172538095Y-104576190D01*
X172500000Y-104538095D01*
X172480952Y-104480952D01*
X172480952Y-104442857D01*
X172500000Y-104385714D01*
X172519047Y-104366666D01*
X172880952Y-104176190D02*
X172880952Y-104100000D01*
X172861904Y-104061904D01*
X172842857Y-104042857D01*
X172785714Y-104004761D01*
X172709523Y-103985714D01*
X172557142Y-103985714D01*
X172519047Y-104004761D01*
X172500000Y-104023809D01*
X172480952Y-104061904D01*
X172480952Y-104138095D01*
X172500000Y-104176190D01*
X172519047Y-104195238D01*
X172557142Y-104214285D01*
X172652380Y-104214285D01*
X172690476Y-104195238D01*
X172709523Y-104176190D01*
X172728571Y-104138095D01*
X172728571Y-104061904D01*
X172709523Y-104023809D01*
X172690476Y-104004761D01*
X172652380Y-103985714D01*
D11*
X161782380Y-92766666D02*
X161782380Y-93338095D01*
X161782380Y-93052380D02*
X160782380Y-93052380D01*
X160925238Y-93147619D01*
X161020476Y-93242857D01*
X161068095Y-93338095D01*
X161115714Y-92338095D02*
X161782380Y-92338095D01*
X161210952Y-92338095D02*
X161163333Y-92290476D01*
X161115714Y-92195238D01*
X161115714Y-92052380D01*
X161163333Y-91957142D01*
X161258571Y-91909523D01*
X161782380Y-91909523D01*
D14*
X160042857Y-92857142D02*
X160061904Y-92876190D01*
X160080952Y-92933333D01*
X160080952Y-92971428D01*
X160061904Y-93028571D01*
X160023809Y-93066666D01*
X159985714Y-93085714D01*
X159909523Y-93104761D01*
X159852380Y-93104761D01*
X159776190Y-93085714D01*
X159738095Y-93066666D01*
X159700000Y-93028571D01*
X159680952Y-92971428D01*
X159680952Y-92933333D01*
X159700000Y-92876190D01*
X159719047Y-92857142D01*
X160080952Y-92476190D02*
X160080952Y-92704761D01*
X160080952Y-92590476D02*
X159680952Y-92590476D01*
X159738095Y-92628571D01*
X159776190Y-92666666D01*
X159795238Y-92704761D01*
X159680952Y-92228571D02*
X159680952Y-92190476D01*
X159700000Y-92152380D01*
X159719047Y-92133333D01*
X159757142Y-92114285D01*
X159833333Y-92095238D01*
X159928571Y-92095238D01*
X160004761Y-92114285D01*
X160042857Y-92133333D01*
X160061904Y-92152380D01*
X160080952Y-92190476D01*
X160080952Y-92228571D01*
X160061904Y-92266666D01*
X160042857Y-92285714D01*
X160004761Y-92304761D01*
X159928571Y-92323809D01*
X159833333Y-92323809D01*
X159757142Y-92304761D01*
X159719047Y-92285714D01*
X159700000Y-92266666D01*
X159680952Y-92228571D01*
D11*
X143532380Y-85542857D02*
X143532380Y-86114285D01*
X143532380Y-85828571D02*
X142532380Y-85828571D01*
X142675238Y-85923809D01*
X142770476Y-86019047D01*
X142818095Y-86114285D01*
X142532380Y-84923809D02*
X142532380Y-84828571D01*
X142580000Y-84733333D01*
X142627619Y-84685714D01*
X142722857Y-84638095D01*
X142913333Y-84590476D01*
X143151428Y-84590476D01*
X143341904Y-84638095D01*
X143437142Y-84685714D01*
X143484761Y-84733333D01*
X143532380Y-84828571D01*
X143532380Y-84923809D01*
X143484761Y-85019047D01*
X143437142Y-85066666D01*
X143341904Y-85114285D01*
X143151428Y-85161904D01*
X142913333Y-85161904D01*
X142722857Y-85114285D01*
X142627619Y-85066666D01*
X142580000Y-85019047D01*
X142532380Y-84923809D01*
X142865714Y-83733333D02*
X143532380Y-83733333D01*
X142865714Y-84161904D02*
X143389523Y-84161904D01*
X143484761Y-84114285D01*
X143532380Y-84019047D01*
X143532380Y-83876190D01*
X143484761Y-83780952D01*
X143437142Y-83733333D01*
D13*
X141085714Y-85414285D02*
X141123809Y-85452380D01*
X141161904Y-85566666D01*
X141161904Y-85642857D01*
X141123809Y-85757142D01*
X141047619Y-85833333D01*
X140971428Y-85871428D01*
X140819047Y-85909523D01*
X140704761Y-85909523D01*
X140552380Y-85871428D01*
X140476190Y-85833333D01*
X140400000Y-85757142D01*
X140361904Y-85642857D01*
X140361904Y-85566666D01*
X140400000Y-85452380D01*
X140438095Y-85414285D01*
X141161904Y-84652380D02*
X141161904Y-85109523D01*
X141161904Y-84880952D02*
X140361904Y-84880952D01*
X140476190Y-84957142D01*
X140552380Y-85033333D01*
X140590476Y-85109523D01*
X141161904Y-83890476D02*
X141161904Y-84347619D01*
X141161904Y-84119047D02*
X140361904Y-84119047D01*
X140476190Y-84195238D01*
X140552380Y-84271428D01*
X140590476Y-84347619D01*
D11*
X129857142Y-89672380D02*
X129285714Y-89672380D01*
X129571428Y-89672380D02*
X129571428Y-88672380D01*
X129476190Y-88815238D01*
X129380952Y-88910476D01*
X129285714Y-88958095D01*
X130476190Y-88672380D02*
X130571428Y-88672380D01*
X130666666Y-88720000D01*
X130714285Y-88767619D01*
X130761904Y-88862857D01*
X130809523Y-89053333D01*
X130809523Y-89291428D01*
X130761904Y-89481904D01*
X130714285Y-89577142D01*
X130666666Y-89624761D01*
X130571428Y-89672380D01*
X130476190Y-89672380D01*
X130380952Y-89624761D01*
X130333333Y-89577142D01*
X130285714Y-89481904D01*
X130238095Y-89291428D01*
X130238095Y-89053333D01*
X130285714Y-88862857D01*
X130333333Y-88767619D01*
X130380952Y-88720000D01*
X130476190Y-88672380D01*
X131666666Y-89005714D02*
X131666666Y-89672380D01*
X131238095Y-89005714D02*
X131238095Y-89529523D01*
X131285714Y-89624761D01*
X131380952Y-89672380D01*
X131523809Y-89672380D01*
X131619047Y-89624761D01*
X131666666Y-89577142D01*
D13*
X129985714Y-91785714D02*
X129947619Y-91823809D01*
X129833333Y-91861904D01*
X129757142Y-91861904D01*
X129642857Y-91823809D01*
X129566666Y-91747619D01*
X129528571Y-91671428D01*
X129490476Y-91519047D01*
X129490476Y-91404761D01*
X129528571Y-91252380D01*
X129566666Y-91176190D01*
X129642857Y-91100000D01*
X129757142Y-91061904D01*
X129833333Y-91061904D01*
X129947619Y-91100000D01*
X129985714Y-91138095D01*
X130747619Y-91861904D02*
X130290476Y-91861904D01*
X130519047Y-91861904D02*
X130519047Y-91061904D01*
X130442857Y-91176190D01*
X130366666Y-91252380D01*
X130290476Y-91290476D01*
X131052380Y-91138095D02*
X131090476Y-91100000D01*
X131166666Y-91061904D01*
X131357142Y-91061904D01*
X131433333Y-91100000D01*
X131471428Y-91138095D01*
X131509523Y-91214285D01*
X131509523Y-91290476D01*
X131471428Y-91404761D01*
X131014285Y-91861904D01*
X131509523Y-91861904D01*
D11*
X157982380Y-106011904D02*
X157982380Y-105392857D01*
X158363333Y-105726190D01*
X158363333Y-105583333D01*
X158410952Y-105488095D01*
X158458571Y-105440476D01*
X158553809Y-105392857D01*
X158791904Y-105392857D01*
X158887142Y-105440476D01*
X158934761Y-105488095D01*
X158982380Y-105583333D01*
X158982380Y-105869047D01*
X158934761Y-105964285D01*
X158887142Y-106011904D01*
X157982380Y-105059523D02*
X157982380Y-104440476D01*
X158363333Y-104773809D01*
X158363333Y-104630952D01*
X158410952Y-104535714D01*
X158458571Y-104488095D01*
X158553809Y-104440476D01*
X158791904Y-104440476D01*
X158887142Y-104488095D01*
X158934761Y-104535714D01*
X158982380Y-104630952D01*
X158982380Y-104916666D01*
X158934761Y-105011904D01*
X158887142Y-105059523D01*
X158315714Y-104011904D02*
X159315714Y-104011904D01*
X158363333Y-104011904D02*
X158315714Y-103916666D01*
X158315714Y-103726190D01*
X158363333Y-103630952D01*
X158410952Y-103583333D01*
X158506190Y-103535714D01*
X158791904Y-103535714D01*
X158887142Y-103583333D01*
X158934761Y-103630952D01*
X158982380Y-103726190D01*
X158982380Y-103916666D01*
X158934761Y-104011904D01*
D14*
X157242857Y-105007142D02*
X157261904Y-105026190D01*
X157280952Y-105083333D01*
X157280952Y-105121428D01*
X157261904Y-105178571D01*
X157223809Y-105216666D01*
X157185714Y-105235714D01*
X157109523Y-105254761D01*
X157052380Y-105254761D01*
X156976190Y-105235714D01*
X156938095Y-105216666D01*
X156900000Y-105178571D01*
X156880952Y-105121428D01*
X156880952Y-105083333D01*
X156900000Y-105026190D01*
X156919047Y-105007142D01*
X157280952Y-104626190D02*
X157280952Y-104854761D01*
X157280952Y-104740476D02*
X156880952Y-104740476D01*
X156938095Y-104778571D01*
X156976190Y-104816666D01*
X156995238Y-104854761D01*
X156880952Y-104492857D02*
X156880952Y-104245238D01*
X157033333Y-104378571D01*
X157033333Y-104321428D01*
X157052380Y-104283333D01*
X157071428Y-104264285D01*
X157109523Y-104245238D01*
X157204761Y-104245238D01*
X157242857Y-104264285D01*
X157261904Y-104283333D01*
X157280952Y-104321428D01*
X157280952Y-104435714D01*
X157261904Y-104473809D01*
X157242857Y-104492857D01*
D11*
X158032380Y-95911904D02*
X158032380Y-95292857D01*
X158413333Y-95626190D01*
X158413333Y-95483333D01*
X158460952Y-95388095D01*
X158508571Y-95340476D01*
X158603809Y-95292857D01*
X158841904Y-95292857D01*
X158937142Y-95340476D01*
X158984761Y-95388095D01*
X159032380Y-95483333D01*
X159032380Y-95769047D01*
X158984761Y-95864285D01*
X158937142Y-95911904D01*
X158032380Y-94959523D02*
X158032380Y-94340476D01*
X158413333Y-94673809D01*
X158413333Y-94530952D01*
X158460952Y-94435714D01*
X158508571Y-94388095D01*
X158603809Y-94340476D01*
X158841904Y-94340476D01*
X158937142Y-94388095D01*
X158984761Y-94435714D01*
X159032380Y-94530952D01*
X159032380Y-94816666D01*
X158984761Y-94911904D01*
X158937142Y-94959523D01*
X158365714Y-93911904D02*
X159365714Y-93911904D01*
X158413333Y-93911904D02*
X158365714Y-93816666D01*
X158365714Y-93626190D01*
X158413333Y-93530952D01*
X158460952Y-93483333D01*
X158556190Y-93435714D01*
X158841904Y-93435714D01*
X158937142Y-93483333D01*
X158984761Y-93530952D01*
X159032380Y-93626190D01*
X159032380Y-93816666D01*
X158984761Y-93911904D01*
D14*
X157292857Y-94907142D02*
X157311904Y-94926190D01*
X157330952Y-94983333D01*
X157330952Y-95021428D01*
X157311904Y-95078571D01*
X157273809Y-95116666D01*
X157235714Y-95135714D01*
X157159523Y-95154761D01*
X157102380Y-95154761D01*
X157026190Y-95135714D01*
X156988095Y-95116666D01*
X156950000Y-95078571D01*
X156930952Y-95021428D01*
X156930952Y-94983333D01*
X156950000Y-94926190D01*
X156969047Y-94907142D01*
X157330952Y-94526190D02*
X157330952Y-94754761D01*
X157330952Y-94640476D02*
X156930952Y-94640476D01*
X156988095Y-94678571D01*
X157026190Y-94716666D01*
X157045238Y-94754761D01*
X157064285Y-94183333D02*
X157330952Y-94183333D01*
X156911904Y-94278571D02*
X157197619Y-94373809D01*
X157197619Y-94126190D01*
D11*
X142227619Y-96702380D02*
X142180000Y-96654761D01*
X142132380Y-96559523D01*
X142132380Y-96321428D01*
X142180000Y-96226190D01*
X142227619Y-96178571D01*
X142322857Y-96130952D01*
X142418095Y-96130952D01*
X142560952Y-96178571D01*
X143132380Y-96750000D01*
X143132380Y-96130952D01*
X143037142Y-95702380D02*
X143084761Y-95654761D01*
X143132380Y-95702380D01*
X143084761Y-95750000D01*
X143037142Y-95702380D01*
X143132380Y-95702380D01*
X142227619Y-95273809D02*
X142180000Y-95226190D01*
X142132380Y-95130952D01*
X142132380Y-94892857D01*
X142180000Y-94797619D01*
X142227619Y-94750000D01*
X142322857Y-94702380D01*
X142418095Y-94702380D01*
X142560952Y-94750000D01*
X143132380Y-95321428D01*
X143132380Y-94702380D01*
X142465714Y-94273809D02*
X143132380Y-94273809D01*
X142560952Y-94273809D02*
X142513333Y-94226190D01*
X142465714Y-94130952D01*
X142465714Y-93988095D01*
X142513333Y-93892857D01*
X142608571Y-93845238D01*
X143132380Y-93845238D01*
D14*
X141392857Y-95507142D02*
X141411904Y-95526190D01*
X141430952Y-95583333D01*
X141430952Y-95621428D01*
X141411904Y-95678571D01*
X141373809Y-95716666D01*
X141335714Y-95735714D01*
X141259523Y-95754761D01*
X141202380Y-95754761D01*
X141126190Y-95735714D01*
X141088095Y-95716666D01*
X141050000Y-95678571D01*
X141030952Y-95621428D01*
X141030952Y-95583333D01*
X141050000Y-95526190D01*
X141069047Y-95507142D01*
X141430952Y-95126190D02*
X141430952Y-95354761D01*
X141430952Y-95240476D02*
X141030952Y-95240476D01*
X141088095Y-95278571D01*
X141126190Y-95316666D01*
X141145238Y-95354761D01*
X141030952Y-94764285D02*
X141030952Y-94954761D01*
X141221428Y-94973809D01*
X141202380Y-94954761D01*
X141183333Y-94916666D01*
X141183333Y-94821428D01*
X141202380Y-94783333D01*
X141221428Y-94764285D01*
X141259523Y-94745238D01*
X141354761Y-94745238D01*
X141392857Y-94764285D01*
X141411904Y-94783333D01*
X141430952Y-94821428D01*
X141430952Y-94916666D01*
X141411904Y-94954761D01*
X141392857Y-94973809D01*
D11*
X137522380Y-99916666D02*
X137522380Y-100392857D01*
X137998571Y-100440476D01*
X137950952Y-100392857D01*
X137903333Y-100297619D01*
X137903333Y-100059523D01*
X137950952Y-99964285D01*
X137998571Y-99916666D01*
X138093809Y-99869047D01*
X138331904Y-99869047D01*
X138427142Y-99916666D01*
X138474761Y-99964285D01*
X138522380Y-100059523D01*
X138522380Y-100297619D01*
X138474761Y-100392857D01*
X138427142Y-100440476D01*
X137522380Y-99011904D02*
X137522380Y-99202380D01*
X137570000Y-99297619D01*
X137617619Y-99345238D01*
X137760476Y-99440476D01*
X137950952Y-99488095D01*
X138331904Y-99488095D01*
X138427142Y-99440476D01*
X138474761Y-99392857D01*
X138522380Y-99297619D01*
X138522380Y-99107142D01*
X138474761Y-99011904D01*
X138427142Y-98964285D01*
X138331904Y-98916666D01*
X138093809Y-98916666D01*
X137998571Y-98964285D01*
X137950952Y-99011904D01*
X137903333Y-99107142D01*
X137903333Y-99297619D01*
X137950952Y-99392857D01*
X137998571Y-99440476D01*
X138093809Y-99488095D01*
X137522380Y-98297619D02*
X137522380Y-98202380D01*
X137570000Y-98107142D01*
X137617619Y-98059523D01*
X137712857Y-98011904D01*
X137903333Y-97964285D01*
X138141428Y-97964285D01*
X138331904Y-98011904D01*
X138427142Y-98059523D01*
X138474761Y-98107142D01*
X138522380Y-98202380D01*
X138522380Y-98297619D01*
X138474761Y-98392857D01*
X138427142Y-98440476D01*
X138331904Y-98488095D01*
X138141428Y-98535714D01*
X137903333Y-98535714D01*
X137712857Y-98488095D01*
X137617619Y-98440476D01*
X137570000Y-98392857D01*
X137522380Y-98297619D01*
X137855714Y-97535714D02*
X138855714Y-97535714D01*
X137903333Y-97535714D02*
X137855714Y-97440476D01*
X137855714Y-97250000D01*
X137903333Y-97154761D01*
X137950952Y-97107142D01*
X138046190Y-97059523D01*
X138331904Y-97059523D01*
X138427142Y-97107142D01*
X138474761Y-97154761D01*
X138522380Y-97250000D01*
X138522380Y-97440476D01*
X138474761Y-97535714D01*
D14*
X139642857Y-99007142D02*
X139661904Y-99026190D01*
X139680952Y-99083333D01*
X139680952Y-99121428D01*
X139661904Y-99178571D01*
X139623809Y-99216666D01*
X139585714Y-99235714D01*
X139509523Y-99254761D01*
X139452380Y-99254761D01*
X139376190Y-99235714D01*
X139338095Y-99216666D01*
X139300000Y-99178571D01*
X139280952Y-99121428D01*
X139280952Y-99083333D01*
X139300000Y-99026190D01*
X139319047Y-99007142D01*
X139680952Y-98626190D02*
X139680952Y-98854761D01*
X139680952Y-98740476D02*
X139280952Y-98740476D01*
X139338095Y-98778571D01*
X139376190Y-98816666D01*
X139395238Y-98854761D01*
X139280952Y-98283333D02*
X139280952Y-98359523D01*
X139300000Y-98397619D01*
X139319047Y-98416666D01*
X139376190Y-98454761D01*
X139452380Y-98473809D01*
X139604761Y-98473809D01*
X139642857Y-98454761D01*
X139661904Y-98435714D01*
X139680952Y-98397619D01*
X139680952Y-98321428D01*
X139661904Y-98283333D01*
X139642857Y-98264285D01*
X139604761Y-98245238D01*
X139509523Y-98245238D01*
X139471428Y-98264285D01*
X139452380Y-98283333D01*
X139433333Y-98321428D01*
X139433333Y-98397619D01*
X139452380Y-98435714D01*
X139471428Y-98454761D01*
X139509523Y-98473809D01*
D11*
X141880952Y-102522380D02*
X141309523Y-102522380D01*
X141595238Y-102522380D02*
X141595238Y-101522380D01*
X141500000Y-101665238D01*
X141404761Y-101760476D01*
X141309523Y-101808095D01*
X142500000Y-101522380D02*
X142595238Y-101522380D01*
X142690476Y-101570000D01*
X142738095Y-101617619D01*
X142785714Y-101712857D01*
X142833333Y-101903333D01*
X142833333Y-102141428D01*
X142785714Y-102331904D01*
X142738095Y-102427142D01*
X142690476Y-102474761D01*
X142595238Y-102522380D01*
X142500000Y-102522380D01*
X142404761Y-102474761D01*
X142357142Y-102427142D01*
X142309523Y-102331904D01*
X142261904Y-102141428D01*
X142261904Y-101903333D01*
X142309523Y-101712857D01*
X142357142Y-101617619D01*
X142404761Y-101570000D01*
X142500000Y-101522380D01*
X143452380Y-101522380D02*
X143547619Y-101522380D01*
X143642857Y-101570000D01*
X143690476Y-101617619D01*
X143738095Y-101712857D01*
X143785714Y-101903333D01*
X143785714Y-102141428D01*
X143738095Y-102331904D01*
X143690476Y-102427142D01*
X143642857Y-102474761D01*
X143547619Y-102522380D01*
X143452380Y-102522380D01*
X143357142Y-102474761D01*
X143309523Y-102427142D01*
X143261904Y-102331904D01*
X143214285Y-102141428D01*
X143214285Y-101903333D01*
X143261904Y-101712857D01*
X143309523Y-101617619D01*
X143357142Y-101570000D01*
X143452380Y-101522380D01*
X144214285Y-101855714D02*
X144214285Y-102522380D01*
X144214285Y-101950952D02*
X144261904Y-101903333D01*
X144357142Y-101855714D01*
X144500000Y-101855714D01*
X144595238Y-101903333D01*
X144642857Y-101998571D01*
X144642857Y-102522380D01*
D14*
X142742857Y-103642857D02*
X142723809Y-103661904D01*
X142666666Y-103680952D01*
X142628571Y-103680952D01*
X142571428Y-103661904D01*
X142533333Y-103623809D01*
X142514285Y-103585714D01*
X142495238Y-103509523D01*
X142495238Y-103452380D01*
X142514285Y-103376190D01*
X142533333Y-103338095D01*
X142571428Y-103300000D01*
X142628571Y-103280952D01*
X142666666Y-103280952D01*
X142723809Y-103300000D01*
X142742857Y-103319047D01*
X143123809Y-103680952D02*
X142895238Y-103680952D01*
X143009523Y-103680952D02*
X143009523Y-103280952D01*
X142971428Y-103338095D01*
X142933333Y-103376190D01*
X142895238Y-103395238D01*
X143257142Y-103280952D02*
X143523809Y-103280952D01*
X143352380Y-103680952D01*
D11*
X150132380Y-97869047D02*
X150132380Y-98440476D01*
X150132380Y-98154761D02*
X149132380Y-98154761D01*
X149275238Y-98250000D01*
X149370476Y-98345238D01*
X149418095Y-98440476D01*
X149132380Y-97250000D02*
X149132380Y-97154761D01*
X149180000Y-97059523D01*
X149227619Y-97011904D01*
X149322857Y-96964285D01*
X149513333Y-96916666D01*
X149751428Y-96916666D01*
X149941904Y-96964285D01*
X150037142Y-97011904D01*
X150084761Y-97059523D01*
X150132380Y-97154761D01*
X150132380Y-97250000D01*
X150084761Y-97345238D01*
X150037142Y-97392857D01*
X149941904Y-97440476D01*
X149751428Y-97488095D01*
X149513333Y-97488095D01*
X149322857Y-97440476D01*
X149227619Y-97392857D01*
X149180000Y-97345238D01*
X149132380Y-97250000D01*
X149132380Y-96297619D02*
X149132380Y-96202380D01*
X149180000Y-96107142D01*
X149227619Y-96059523D01*
X149322857Y-96011904D01*
X149513333Y-95964285D01*
X149751428Y-95964285D01*
X149941904Y-96011904D01*
X150037142Y-96059523D01*
X150084761Y-96107142D01*
X150132380Y-96202380D01*
X150132380Y-96297619D01*
X150084761Y-96392857D01*
X150037142Y-96440476D01*
X149941904Y-96488095D01*
X149751428Y-96535714D01*
X149513333Y-96535714D01*
X149322857Y-96488095D01*
X149227619Y-96440476D01*
X149180000Y-96392857D01*
X149132380Y-96297619D01*
X149465714Y-95535714D02*
X150132380Y-95535714D01*
X149560952Y-95535714D02*
X149513333Y-95488095D01*
X149465714Y-95392857D01*
X149465714Y-95250000D01*
X149513333Y-95154761D01*
X149608571Y-95107142D01*
X150132380Y-95107142D01*
D14*
X148392857Y-97007142D02*
X148411904Y-97026190D01*
X148430952Y-97083333D01*
X148430952Y-97121428D01*
X148411904Y-97178571D01*
X148373809Y-97216666D01*
X148335714Y-97235714D01*
X148259523Y-97254761D01*
X148202380Y-97254761D01*
X148126190Y-97235714D01*
X148088095Y-97216666D01*
X148050000Y-97178571D01*
X148030952Y-97121428D01*
X148030952Y-97083333D01*
X148050000Y-97026190D01*
X148069047Y-97007142D01*
X148430952Y-96626190D02*
X148430952Y-96854761D01*
X148430952Y-96740476D02*
X148030952Y-96740476D01*
X148088095Y-96778571D01*
X148126190Y-96816666D01*
X148145238Y-96854761D01*
X148202380Y-96397619D02*
X148183333Y-96435714D01*
X148164285Y-96454761D01*
X148126190Y-96473809D01*
X148107142Y-96473809D01*
X148069047Y-96454761D01*
X148050000Y-96435714D01*
X148030952Y-96397619D01*
X148030952Y-96321428D01*
X148050000Y-96283333D01*
X148069047Y-96264285D01*
X148107142Y-96245238D01*
X148126190Y-96245238D01*
X148164285Y-96264285D01*
X148183333Y-96283333D01*
X148202380Y-96321428D01*
X148202380Y-96397619D01*
X148221428Y-96435714D01*
X148240476Y-96454761D01*
X148278571Y-96473809D01*
X148354761Y-96473809D01*
X148392857Y-96454761D01*
X148411904Y-96435714D01*
X148430952Y-96397619D01*
X148430952Y-96321428D01*
X148411904Y-96283333D01*
X148392857Y-96264285D01*
X148354761Y-96245238D01*
X148278571Y-96245238D01*
X148240476Y-96264285D01*
X148221428Y-96283333D01*
X148202380Y-96321428D01*
D11*
X161772380Y-106566666D02*
X161772380Y-107138095D01*
X161772380Y-106852380D02*
X160772380Y-106852380D01*
X160915238Y-106947619D01*
X161010476Y-107042857D01*
X161058095Y-107138095D01*
X161105714Y-106138095D02*
X161772380Y-106138095D01*
X161200952Y-106138095D02*
X161153333Y-106090476D01*
X161105714Y-105995238D01*
X161105714Y-105852380D01*
X161153333Y-105757142D01*
X161248571Y-105709523D01*
X161772380Y-105709523D01*
D14*
X162892857Y-106657142D02*
X162911904Y-106676190D01*
X162930952Y-106733333D01*
X162930952Y-106771428D01*
X162911904Y-106828571D01*
X162873809Y-106866666D01*
X162835714Y-106885714D01*
X162759523Y-106904761D01*
X162702380Y-106904761D01*
X162626190Y-106885714D01*
X162588095Y-106866666D01*
X162550000Y-106828571D01*
X162530952Y-106771428D01*
X162530952Y-106733333D01*
X162550000Y-106676190D01*
X162569047Y-106657142D01*
X162930952Y-106276190D02*
X162930952Y-106504761D01*
X162930952Y-106390476D02*
X162530952Y-106390476D01*
X162588095Y-106428571D01*
X162626190Y-106466666D01*
X162645238Y-106504761D01*
X162930952Y-106085714D02*
X162930952Y-106009523D01*
X162911904Y-105971428D01*
X162892857Y-105952380D01*
X162835714Y-105914285D01*
X162759523Y-105895238D01*
X162607142Y-105895238D01*
X162569047Y-105914285D01*
X162550000Y-105933333D01*
X162530952Y-105971428D01*
X162530952Y-106047619D01*
X162550000Y-106085714D01*
X162569047Y-106104761D01*
X162607142Y-106123809D01*
X162702380Y-106123809D01*
X162740476Y-106104761D01*
X162759523Y-106085714D01*
X162778571Y-106047619D01*
X162778571Y-105971428D01*
X162759523Y-105933333D01*
X162740476Y-105914285D01*
X162702380Y-105895238D01*
D11*
X150272380Y-101916666D02*
X150272380Y-102392857D01*
X150748571Y-102440476D01*
X150700952Y-102392857D01*
X150653333Y-102297619D01*
X150653333Y-102059523D01*
X150700952Y-101964285D01*
X150748571Y-101916666D01*
X150843809Y-101869047D01*
X151081904Y-101869047D01*
X151177142Y-101916666D01*
X151224761Y-101964285D01*
X151272380Y-102059523D01*
X151272380Y-102297619D01*
X151224761Y-102392857D01*
X151177142Y-102440476D01*
X150272380Y-101011904D02*
X150272380Y-101202380D01*
X150320000Y-101297619D01*
X150367619Y-101345238D01*
X150510476Y-101440476D01*
X150700952Y-101488095D01*
X151081904Y-101488095D01*
X151177142Y-101440476D01*
X151224761Y-101392857D01*
X151272380Y-101297619D01*
X151272380Y-101107142D01*
X151224761Y-101011904D01*
X151177142Y-100964285D01*
X151081904Y-100916666D01*
X150843809Y-100916666D01*
X150748571Y-100964285D01*
X150700952Y-101011904D01*
X150653333Y-101107142D01*
X150653333Y-101297619D01*
X150700952Y-101392857D01*
X150748571Y-101440476D01*
X150843809Y-101488095D01*
X150272380Y-100297619D02*
X150272380Y-100202380D01*
X150320000Y-100107142D01*
X150367619Y-100059523D01*
X150462857Y-100011904D01*
X150653333Y-99964285D01*
X150891428Y-99964285D01*
X151081904Y-100011904D01*
X151177142Y-100059523D01*
X151224761Y-100107142D01*
X151272380Y-100202380D01*
X151272380Y-100297619D01*
X151224761Y-100392857D01*
X151177142Y-100440476D01*
X151081904Y-100488095D01*
X150891428Y-100535714D01*
X150653333Y-100535714D01*
X150462857Y-100488095D01*
X150367619Y-100440476D01*
X150320000Y-100392857D01*
X150272380Y-100297619D01*
X150605714Y-99535714D02*
X151605714Y-99535714D01*
X150653333Y-99535714D02*
X150605714Y-99440476D01*
X150605714Y-99250000D01*
X150653333Y-99154761D01*
X150700952Y-99107142D01*
X150796190Y-99059523D01*
X151081904Y-99059523D01*
X151177142Y-99107142D01*
X151224761Y-99154761D01*
X151272380Y-99250000D01*
X151272380Y-99440476D01*
X151224761Y-99535714D01*
D14*
X152392857Y-101007142D02*
X152411904Y-101026190D01*
X152430952Y-101083333D01*
X152430952Y-101121428D01*
X152411904Y-101178571D01*
X152373809Y-101216666D01*
X152335714Y-101235714D01*
X152259523Y-101254761D01*
X152202380Y-101254761D01*
X152126190Y-101235714D01*
X152088095Y-101216666D01*
X152050000Y-101178571D01*
X152030952Y-101121428D01*
X152030952Y-101083333D01*
X152050000Y-101026190D01*
X152069047Y-101007142D01*
X152069047Y-100854761D02*
X152050000Y-100835714D01*
X152030952Y-100797619D01*
X152030952Y-100702380D01*
X152050000Y-100664285D01*
X152069047Y-100645238D01*
X152107142Y-100626190D01*
X152145238Y-100626190D01*
X152202380Y-100645238D01*
X152430952Y-100873809D01*
X152430952Y-100626190D01*
X152030952Y-100378571D02*
X152030952Y-100340476D01*
X152050000Y-100302380D01*
X152069047Y-100283333D01*
X152107142Y-100264285D01*
X152183333Y-100245238D01*
X152278571Y-100245238D01*
X152354761Y-100264285D01*
X152392857Y-100283333D01*
X152411904Y-100302380D01*
X152430952Y-100340476D01*
X152430952Y-100378571D01*
X152411904Y-100416666D01*
X152392857Y-100435714D01*
X152354761Y-100454761D01*
X152278571Y-100473809D01*
X152183333Y-100473809D01*
X152107142Y-100454761D01*
X152069047Y-100435714D01*
X152050000Y-100416666D01*
X152030952Y-100378571D01*
D11*
X138632380Y-109869047D02*
X138632380Y-110440476D01*
X138632380Y-110154761D02*
X137632380Y-110154761D01*
X137775238Y-110250000D01*
X137870476Y-110345238D01*
X137918095Y-110440476D01*
X137632380Y-109250000D02*
X137632380Y-109154761D01*
X137680000Y-109059523D01*
X137727619Y-109011904D01*
X137822857Y-108964285D01*
X138013333Y-108916666D01*
X138251428Y-108916666D01*
X138441904Y-108964285D01*
X138537142Y-109011904D01*
X138584761Y-109059523D01*
X138632380Y-109154761D01*
X138632380Y-109250000D01*
X138584761Y-109345238D01*
X138537142Y-109392857D01*
X138441904Y-109440476D01*
X138251428Y-109488095D01*
X138013333Y-109488095D01*
X137822857Y-109440476D01*
X137727619Y-109392857D01*
X137680000Y-109345238D01*
X137632380Y-109250000D01*
X137632380Y-108297619D02*
X137632380Y-108202380D01*
X137680000Y-108107142D01*
X137727619Y-108059523D01*
X137822857Y-108011904D01*
X138013333Y-107964285D01*
X138251428Y-107964285D01*
X138441904Y-108011904D01*
X138537142Y-108059523D01*
X138584761Y-108107142D01*
X138632380Y-108202380D01*
X138632380Y-108297619D01*
X138584761Y-108392857D01*
X138537142Y-108440476D01*
X138441904Y-108488095D01*
X138251428Y-108535714D01*
X138013333Y-108535714D01*
X137822857Y-108488095D01*
X137727619Y-108440476D01*
X137680000Y-108392857D01*
X137632380Y-108297619D01*
X137965714Y-107535714D02*
X138632380Y-107535714D01*
X138060952Y-107535714D02*
X138013333Y-107488095D01*
X137965714Y-107392857D01*
X137965714Y-107250000D01*
X138013333Y-107154761D01*
X138108571Y-107107142D01*
X138632380Y-107107142D01*
D14*
X136892857Y-109007142D02*
X136911904Y-109026190D01*
X136930952Y-109083333D01*
X136930952Y-109121428D01*
X136911904Y-109178571D01*
X136873809Y-109216666D01*
X136835714Y-109235714D01*
X136759523Y-109254761D01*
X136702380Y-109254761D01*
X136626190Y-109235714D01*
X136588095Y-109216666D01*
X136550000Y-109178571D01*
X136530952Y-109121428D01*
X136530952Y-109083333D01*
X136550000Y-109026190D01*
X136569047Y-109007142D01*
X136569047Y-108854761D02*
X136550000Y-108835714D01*
X136530952Y-108797619D01*
X136530952Y-108702380D01*
X136550000Y-108664285D01*
X136569047Y-108645238D01*
X136607142Y-108626190D01*
X136645238Y-108626190D01*
X136702380Y-108645238D01*
X136930952Y-108873809D01*
X136930952Y-108626190D01*
X136930952Y-108245238D02*
X136930952Y-108473809D01*
X136930952Y-108359523D02*
X136530952Y-108359523D01*
X136588095Y-108397619D01*
X136626190Y-108435714D01*
X136645238Y-108473809D01*
D11*
X128772380Y-115869047D02*
X128772380Y-116440476D01*
X128772380Y-116154761D02*
X127772380Y-116154761D01*
X127915238Y-116250000D01*
X128010476Y-116345238D01*
X128058095Y-116440476D01*
X127772380Y-115250000D02*
X127772380Y-115154761D01*
X127820000Y-115059523D01*
X127867619Y-115011904D01*
X127962857Y-114964285D01*
X128153333Y-114916666D01*
X128391428Y-114916666D01*
X128581904Y-114964285D01*
X128677142Y-115011904D01*
X128724761Y-115059523D01*
X128772380Y-115154761D01*
X128772380Y-115250000D01*
X128724761Y-115345238D01*
X128677142Y-115392857D01*
X128581904Y-115440476D01*
X128391428Y-115488095D01*
X128153333Y-115488095D01*
X127962857Y-115440476D01*
X127867619Y-115392857D01*
X127820000Y-115345238D01*
X127772380Y-115250000D01*
X127772380Y-114297619D02*
X127772380Y-114202380D01*
X127820000Y-114107142D01*
X127867619Y-114059523D01*
X127962857Y-114011904D01*
X128153333Y-113964285D01*
X128391428Y-113964285D01*
X128581904Y-114011904D01*
X128677142Y-114059523D01*
X128724761Y-114107142D01*
X128772380Y-114202380D01*
X128772380Y-114297619D01*
X128724761Y-114392857D01*
X128677142Y-114440476D01*
X128581904Y-114488095D01*
X128391428Y-114535714D01*
X128153333Y-114535714D01*
X127962857Y-114488095D01*
X127867619Y-114440476D01*
X127820000Y-114392857D01*
X127772380Y-114297619D01*
X128105714Y-113535714D02*
X128772380Y-113535714D01*
X128200952Y-113535714D02*
X128153333Y-113488095D01*
X128105714Y-113392857D01*
X128105714Y-113250000D01*
X128153333Y-113154761D01*
X128248571Y-113107142D01*
X128772380Y-113107142D01*
D14*
X129892857Y-115007142D02*
X129911904Y-115026190D01*
X129930952Y-115083333D01*
X129930952Y-115121428D01*
X129911904Y-115178571D01*
X129873809Y-115216666D01*
X129835714Y-115235714D01*
X129759523Y-115254761D01*
X129702380Y-115254761D01*
X129626190Y-115235714D01*
X129588095Y-115216666D01*
X129550000Y-115178571D01*
X129530952Y-115121428D01*
X129530952Y-115083333D01*
X129550000Y-115026190D01*
X129569047Y-115007142D01*
X129569047Y-114854761D02*
X129550000Y-114835714D01*
X129530952Y-114797619D01*
X129530952Y-114702380D01*
X129550000Y-114664285D01*
X129569047Y-114645238D01*
X129607142Y-114626190D01*
X129645238Y-114626190D01*
X129702380Y-114645238D01*
X129930952Y-114873809D01*
X129930952Y-114626190D01*
X129569047Y-114473809D02*
X129550000Y-114454761D01*
X129530952Y-114416666D01*
X129530952Y-114321428D01*
X129550000Y-114283333D01*
X129569047Y-114264285D01*
X129607142Y-114245238D01*
X129645238Y-114245238D01*
X129702380Y-114264285D01*
X129930952Y-114492857D01*
X129930952Y-114245238D01*
D11*
X126132380Y-112011904D02*
X126132380Y-111392857D01*
X126513333Y-111726190D01*
X126513333Y-111583333D01*
X126560952Y-111488095D01*
X126608571Y-111440476D01*
X126703809Y-111392857D01*
X126941904Y-111392857D01*
X127037142Y-111440476D01*
X127084761Y-111488095D01*
X127132380Y-111583333D01*
X127132380Y-111869047D01*
X127084761Y-111964285D01*
X127037142Y-112011904D01*
X126132380Y-111059523D02*
X126132380Y-110440476D01*
X126513333Y-110773809D01*
X126513333Y-110630952D01*
X126560952Y-110535714D01*
X126608571Y-110488095D01*
X126703809Y-110440476D01*
X126941904Y-110440476D01*
X127037142Y-110488095D01*
X127084761Y-110535714D01*
X127132380Y-110630952D01*
X127132380Y-110916666D01*
X127084761Y-111011904D01*
X127037142Y-111059523D01*
X126465714Y-110011904D02*
X127465714Y-110011904D01*
X126513333Y-110011904D02*
X126465714Y-109916666D01*
X126465714Y-109726190D01*
X126513333Y-109630952D01*
X126560952Y-109583333D01*
X126656190Y-109535714D01*
X126941904Y-109535714D01*
X127037142Y-109583333D01*
X127084761Y-109630952D01*
X127132380Y-109726190D01*
X127132380Y-109916666D01*
X127084761Y-110011904D01*
D14*
X125392857Y-111007142D02*
X125411904Y-111026190D01*
X125430952Y-111083333D01*
X125430952Y-111121428D01*
X125411904Y-111178571D01*
X125373809Y-111216666D01*
X125335714Y-111235714D01*
X125259523Y-111254761D01*
X125202380Y-111254761D01*
X125126190Y-111235714D01*
X125088095Y-111216666D01*
X125050000Y-111178571D01*
X125030952Y-111121428D01*
X125030952Y-111083333D01*
X125050000Y-111026190D01*
X125069047Y-111007142D01*
X125069047Y-110854761D02*
X125050000Y-110835714D01*
X125030952Y-110797619D01*
X125030952Y-110702380D01*
X125050000Y-110664285D01*
X125069047Y-110645238D01*
X125107142Y-110626190D01*
X125145238Y-110626190D01*
X125202380Y-110645238D01*
X125430952Y-110873809D01*
X125430952Y-110626190D01*
X125030952Y-110492857D02*
X125030952Y-110245238D01*
X125183333Y-110378571D01*
X125183333Y-110321428D01*
X125202380Y-110283333D01*
X125221428Y-110264285D01*
X125259523Y-110245238D01*
X125354761Y-110245238D01*
X125392857Y-110264285D01*
X125411904Y-110283333D01*
X125430952Y-110321428D01*
X125430952Y-110435714D01*
X125411904Y-110473809D01*
X125392857Y-110492857D01*
D11*
X120282380Y-107838095D02*
X120282380Y-107219047D01*
X120663333Y-107552380D01*
X120663333Y-107409523D01*
X120710952Y-107314285D01*
X120758571Y-107266666D01*
X120853809Y-107219047D01*
X121091904Y-107219047D01*
X121187142Y-107266666D01*
X121234761Y-107314285D01*
X121282380Y-107409523D01*
X121282380Y-107695238D01*
X121234761Y-107790476D01*
X121187142Y-107838095D01*
X120282380Y-106885714D02*
X120282380Y-106266666D01*
X120663333Y-106600000D01*
X120663333Y-106457142D01*
X120710952Y-106361904D01*
X120758571Y-106314285D01*
X120853809Y-106266666D01*
X121091904Y-106266666D01*
X121187142Y-106314285D01*
X121234761Y-106361904D01*
X121282380Y-106457142D01*
X121282380Y-106742857D01*
X121234761Y-106838095D01*
X121187142Y-106885714D01*
X120282380Y-105647619D02*
X120282380Y-105552380D01*
X120330000Y-105457142D01*
X120377619Y-105409523D01*
X120472857Y-105361904D01*
X120663333Y-105314285D01*
X120901428Y-105314285D01*
X121091904Y-105361904D01*
X121187142Y-105409523D01*
X121234761Y-105457142D01*
X121282380Y-105552380D01*
X121282380Y-105647619D01*
X121234761Y-105742857D01*
X121187142Y-105790476D01*
X121091904Y-105838095D01*
X120901428Y-105885714D01*
X120663333Y-105885714D01*
X120472857Y-105838095D01*
X120377619Y-105790476D01*
X120330000Y-105742857D01*
X120282380Y-105647619D01*
X120615714Y-104885714D02*
X121615714Y-104885714D01*
X120663333Y-104885714D02*
X120615714Y-104790476D01*
X120615714Y-104600000D01*
X120663333Y-104504761D01*
X120710952Y-104457142D01*
X120806190Y-104409523D01*
X121091904Y-104409523D01*
X121187142Y-104457142D01*
X121234761Y-104504761D01*
X121282380Y-104600000D01*
X121282380Y-104790476D01*
X121234761Y-104885714D01*
D14*
X119542857Y-106357142D02*
X119561904Y-106376190D01*
X119580952Y-106433333D01*
X119580952Y-106471428D01*
X119561904Y-106528571D01*
X119523809Y-106566666D01*
X119485714Y-106585714D01*
X119409523Y-106604761D01*
X119352380Y-106604761D01*
X119276190Y-106585714D01*
X119238095Y-106566666D01*
X119200000Y-106528571D01*
X119180952Y-106471428D01*
X119180952Y-106433333D01*
X119200000Y-106376190D01*
X119219047Y-106357142D01*
X119219047Y-106204761D02*
X119200000Y-106185714D01*
X119180952Y-106147619D01*
X119180952Y-106052380D01*
X119200000Y-106014285D01*
X119219047Y-105995238D01*
X119257142Y-105976190D01*
X119295238Y-105976190D01*
X119352380Y-105995238D01*
X119580952Y-106223809D01*
X119580952Y-105976190D01*
X119314285Y-105633333D02*
X119580952Y-105633333D01*
X119161904Y-105728571D02*
X119447619Y-105823809D01*
X119447619Y-105576190D01*
D11*
X187866666Y-106352380D02*
X187866666Y-107066666D01*
X187819047Y-107209523D01*
X187723809Y-107304761D01*
X187580952Y-107352380D01*
X187485714Y-107352380D01*
X188866666Y-107352380D02*
X188295238Y-107352380D01*
X188580952Y-107352380D02*
X188580952Y-106352380D01*
X188485714Y-106495238D01*
X188390476Y-106590476D01*
X188295238Y-106638095D01*
X187866666Y-91252380D02*
X187866666Y-91966666D01*
X187819047Y-92109523D01*
X187723809Y-92204761D01*
X187580952Y-92252380D01*
X187485714Y-92252380D01*
X188295238Y-91347619D02*
X188342857Y-91300000D01*
X188438095Y-91252380D01*
X188676190Y-91252380D01*
X188771428Y-91300000D01*
X188819047Y-91347619D01*
X188866666Y-91442857D01*
X188866666Y-91538095D01*
X188819047Y-91680952D01*
X188247619Y-92252380D01*
X188866666Y-92252380D01*
X111416666Y-91252380D02*
X111416666Y-91966666D01*
X111369047Y-92109523D01*
X111273809Y-92204761D01*
X111130952Y-92252380D01*
X111035714Y-92252380D01*
X111797619Y-91252380D02*
X112416666Y-91252380D01*
X112083333Y-91633333D01*
X112226190Y-91633333D01*
X112321428Y-91680952D01*
X112369047Y-91728571D01*
X112416666Y-91823809D01*
X112416666Y-92061904D01*
X112369047Y-92157142D01*
X112321428Y-92204761D01*
X112226190Y-92252380D01*
X111940476Y-92252380D01*
X111845238Y-92204761D01*
X111797619Y-92157142D01*
X139034761Y-77785714D02*
X139082380Y-77642857D01*
X139082380Y-77404761D01*
X139034761Y-77309523D01*
X138987142Y-77261904D01*
X138891904Y-77214285D01*
X138796666Y-77214285D01*
X138701428Y-77261904D01*
X138653809Y-77309523D01*
X138606190Y-77404761D01*
X138558571Y-77595238D01*
X138510952Y-77690476D01*
X138463333Y-77738095D01*
X138368095Y-77785714D01*
X138272857Y-77785714D01*
X138177619Y-77738095D01*
X138130000Y-77690476D01*
X138082380Y-77595238D01*
X138082380Y-77357142D01*
X138130000Y-77214285D01*
X138415714Y-76357142D02*
X139082380Y-76357142D01*
X138415714Y-76785714D02*
X138939523Y-76785714D01*
X139034761Y-76738095D01*
X139082380Y-76642857D01*
X139082380Y-76500000D01*
X139034761Y-76404761D01*
X138987142Y-76357142D01*
X138415714Y-75880952D02*
X139415714Y-75880952D01*
X138463333Y-75880952D02*
X138415714Y-75785714D01*
X138415714Y-75595238D01*
X138463333Y-75500000D01*
X138510952Y-75452380D01*
X138606190Y-75404761D01*
X138891904Y-75404761D01*
X138987142Y-75452380D01*
X139034761Y-75500000D01*
X139082380Y-75595238D01*
X139082380Y-75785714D01*
X139034761Y-75880952D01*
X138415714Y-74976190D02*
X139415714Y-74976190D01*
X138463333Y-74976190D02*
X138415714Y-74880952D01*
X138415714Y-74690476D01*
X138463333Y-74595238D01*
X138510952Y-74547619D01*
X138606190Y-74500000D01*
X138891904Y-74500000D01*
X138987142Y-74547619D01*
X139034761Y-74595238D01*
X139082380Y-74690476D01*
X139082380Y-74880952D01*
X139034761Y-74976190D01*
X139082380Y-73928571D02*
X139034761Y-74023809D01*
X138939523Y-74071428D01*
X138082380Y-74071428D01*
X138415714Y-73642857D02*
X139082380Y-73404761D01*
X138415714Y-73166666D02*
X139082380Y-73404761D01*
X139320476Y-73500000D01*
X139368095Y-73547619D01*
X139415714Y-73642857D01*
X133426666Y-74952380D02*
X133426666Y-75666666D01*
X133379047Y-75809523D01*
X133283809Y-75904761D01*
X133140952Y-75952380D01*
X133045714Y-75952380D01*
X134331428Y-75285714D02*
X134331428Y-75952380D01*
X134093333Y-74904761D02*
X133855238Y-75619047D01*
X134474285Y-75619047D01*
X111466666Y-106352380D02*
X111466666Y-107066666D01*
X111419047Y-107209523D01*
X111323809Y-107304761D01*
X111180952Y-107352380D01*
X111085714Y-107352380D01*
X112419047Y-106352380D02*
X111942857Y-106352380D01*
X111895238Y-106828571D01*
X111942857Y-106780952D01*
X112038095Y-106733333D01*
X112276190Y-106733333D01*
X112371428Y-106780952D01*
X112419047Y-106828571D01*
X112466666Y-106923809D01*
X112466666Y-107161904D01*
X112419047Y-107257142D01*
X112371428Y-107304761D01*
X112276190Y-107352380D01*
X112038095Y-107352380D01*
X111942857Y-107304761D01*
X111895238Y-107257142D01*
X126900000Y-105552380D02*
X126900000Y-104552380D01*
X127376190Y-104885714D02*
X127376190Y-105552380D01*
X127376190Y-104980952D02*
X127423809Y-104933333D01*
X127519047Y-104885714D01*
X127661904Y-104885714D01*
X127757142Y-104933333D01*
X127804761Y-105028571D01*
X127804761Y-105552380D01*
X128185714Y-104885714D02*
X128423809Y-105552380D01*
X128661904Y-104885714D01*
X129423809Y-105504761D02*
X129328571Y-105552380D01*
X129138095Y-105552380D01*
X129042857Y-105504761D01*
X128995238Y-105409523D01*
X128995238Y-105028571D01*
X129042857Y-104933333D01*
X129138095Y-104885714D01*
X129328571Y-104885714D01*
X129423809Y-104933333D01*
X129471428Y-105028571D01*
X129471428Y-105123809D01*
X128995238Y-105219047D01*
X129900000Y-105552380D02*
X129900000Y-104885714D01*
X129900000Y-105076190D02*
X129947619Y-104980952D01*
X129995238Y-104933333D01*
X130090476Y-104885714D01*
X130185714Y-104885714D01*
X130376190Y-104885714D02*
X130757142Y-104885714D01*
X130519047Y-104552380D02*
X130519047Y-105409523D01*
X130566666Y-105504761D01*
X130661904Y-105552380D01*
X130757142Y-105552380D01*
X131090476Y-105552380D02*
X131090476Y-104885714D01*
X131090476Y-104552380D02*
X131042857Y-104600000D01*
X131090476Y-104647619D01*
X131138095Y-104600000D01*
X131090476Y-104552380D01*
X131090476Y-104647619D01*
X131566666Y-104885714D02*
X131566666Y-105552380D01*
X131566666Y-104980952D02*
X131614285Y-104933333D01*
X131709523Y-104885714D01*
X131852380Y-104885714D01*
X131947619Y-104933333D01*
X131995238Y-105028571D01*
X131995238Y-105552380D01*
X132900000Y-104885714D02*
X132900000Y-105695238D01*
X132852380Y-105790476D01*
X132804761Y-105838095D01*
X132709523Y-105885714D01*
X132566666Y-105885714D01*
X132471428Y-105838095D01*
X132900000Y-105504761D02*
X132804761Y-105552380D01*
X132614285Y-105552380D01*
X132519047Y-105504761D01*
X132471428Y-105457142D01*
X132423809Y-105361904D01*
X132423809Y-105076190D01*
X132471428Y-104980952D01*
X132519047Y-104933333D01*
X132614285Y-104885714D01*
X132804761Y-104885714D01*
X132900000Y-104933333D01*
X140119047Y-77832380D02*
X139642857Y-77832380D01*
X139642857Y-76832380D01*
X140595238Y-77832380D02*
X140500000Y-77784761D01*
X140452380Y-77737142D01*
X140404761Y-77641904D01*
X140404761Y-77356190D01*
X140452380Y-77260952D01*
X140500000Y-77213333D01*
X140595238Y-77165714D01*
X140738095Y-77165714D01*
X140833333Y-77213333D01*
X140880952Y-77260952D01*
X140928571Y-77356190D01*
X140928571Y-77641904D01*
X140880952Y-77737142D01*
X140833333Y-77784761D01*
X140738095Y-77832380D01*
X140595238Y-77832380D01*
X141785714Y-77165714D02*
X141785714Y-77975238D01*
X141738095Y-78070476D01*
X141690476Y-78118095D01*
X141595238Y-78165714D01*
X141452380Y-78165714D01*
X141357142Y-78118095D01*
X141785714Y-77784761D02*
X141690476Y-77832380D01*
X141500000Y-77832380D01*
X141404761Y-77784761D01*
X141357142Y-77737142D01*
X141309523Y-77641904D01*
X141309523Y-77356190D01*
X141357142Y-77260952D01*
X141404761Y-77213333D01*
X141500000Y-77165714D01*
X141690476Y-77165714D01*
X141785714Y-77213333D01*
X142404761Y-77832380D02*
X142309523Y-77784761D01*
X142261904Y-77737142D01*
X142214285Y-77641904D01*
X142214285Y-77356190D01*
X142261904Y-77260952D01*
X142309523Y-77213333D01*
X142404761Y-77165714D01*
X142547619Y-77165714D01*
X142642857Y-77213333D01*
X142690476Y-77260952D01*
X142738095Y-77356190D01*
X142738095Y-77641904D01*
X142690476Y-77737142D01*
X142642857Y-77784761D01*
X142547619Y-77832380D01*
X142404761Y-77832380D01*
X142928571Y-77927619D02*
X143690476Y-77927619D01*
X143880952Y-77546666D02*
X144357142Y-77546666D01*
X143785714Y-77832380D02*
X144119047Y-76832380D01*
X144452380Y-77832380D01*
X144785714Y-77832380D02*
X144785714Y-76832380D01*
X145166666Y-76832380D01*
X145261904Y-76880000D01*
X145309523Y-76927619D01*
X145357142Y-77022857D01*
X145357142Y-77165714D01*
X145309523Y-77260952D01*
X145261904Y-77308571D01*
X145166666Y-77356190D01*
X144785714Y-77356190D01*
X146452380Y-77927619D02*
X146357142Y-77880000D01*
X146261904Y-77784761D01*
X146119047Y-77641904D01*
X146023809Y-77594285D01*
X145928571Y-77594285D01*
X145976190Y-77832380D02*
X145880952Y-77784761D01*
X145785714Y-77689523D01*
X145738095Y-77499047D01*
X145738095Y-77165714D01*
X145785714Y-76975238D01*
X145880952Y-76880000D01*
X145976190Y-76832380D01*
X146166666Y-76832380D01*
X146261904Y-76880000D01*
X146357142Y-76975238D01*
X146404761Y-77165714D01*
X146404761Y-77499047D01*
X146357142Y-77689523D01*
X146261904Y-77784761D01*
X146166666Y-77832380D01*
X145976190Y-77832380D01*
X134395238Y-91015714D02*
X134395238Y-91682380D01*
X134157142Y-90634761D02*
X133919047Y-91349047D01*
X134538095Y-91349047D01*
X134966666Y-91682380D02*
X135157142Y-91682380D01*
X135252380Y-91634761D01*
X135300000Y-91587142D01*
X135395238Y-91444285D01*
X135442857Y-91253809D01*
X135442857Y-90872857D01*
X135395238Y-90777619D01*
X135347619Y-90730000D01*
X135252380Y-90682380D01*
X135061904Y-90682380D01*
X134966666Y-90730000D01*
X134919047Y-90777619D01*
X134871428Y-90872857D01*
X134871428Y-91110952D01*
X134919047Y-91206190D01*
X134966666Y-91253809D01*
X135061904Y-91301428D01*
X135252380Y-91301428D01*
X135347619Y-91253809D01*
X135395238Y-91206190D01*
X135442857Y-91110952D01*
X135871428Y-91587142D02*
X135919047Y-91634761D01*
X135871428Y-91682380D01*
X135823809Y-91634761D01*
X135871428Y-91587142D01*
X135871428Y-91682380D01*
X136395238Y-91682380D02*
X136585714Y-91682380D01*
X136680952Y-91634761D01*
X136728571Y-91587142D01*
X136823809Y-91444285D01*
X136871428Y-91253809D01*
X136871428Y-90872857D01*
X136823809Y-90777619D01*
X136776190Y-90730000D01*
X136680952Y-90682380D01*
X136490476Y-90682380D01*
X136395238Y-90730000D01*
X136347619Y-90777619D01*
X136300000Y-90872857D01*
X136300000Y-91110952D01*
X136347619Y-91206190D01*
X136395238Y-91253809D01*
X136490476Y-91301428D01*
X136680952Y-91301428D01*
X136776190Y-91253809D01*
X136823809Y-91206190D01*
X136871428Y-91110952D01*
X137300000Y-91682380D02*
X137300000Y-90682380D01*
X137395238Y-91301428D02*
X137680952Y-91682380D01*
X137680952Y-91015714D02*
X137300000Y-91396666D01*
D14*
X135733333Y-89980952D02*
X135600000Y-89790476D01*
X135504761Y-89980952D02*
X135504761Y-89580952D01*
X135657142Y-89580952D01*
X135695238Y-89600000D01*
X135714285Y-89619047D01*
X135733333Y-89657142D01*
X135733333Y-89714285D01*
X135714285Y-89752380D01*
X135695238Y-89771428D01*
X135657142Y-89790476D01*
X135504761Y-89790476D01*
X136114285Y-89980952D02*
X135885714Y-89980952D01*
X136000000Y-89980952D02*
X136000000Y-89580952D01*
X135961904Y-89638095D01*
X135923809Y-89676190D01*
X135885714Y-89695238D01*
D11*
X125055714Y-88054761D02*
X125722380Y-88054761D01*
X124674761Y-88292857D02*
X125389047Y-88530952D01*
X125389047Y-87911904D01*
X125722380Y-87483333D02*
X125722380Y-87292857D01*
X125674761Y-87197619D01*
X125627142Y-87150000D01*
X125484285Y-87054761D01*
X125293809Y-87007142D01*
X124912857Y-87007142D01*
X124817619Y-87054761D01*
X124770000Y-87102380D01*
X124722380Y-87197619D01*
X124722380Y-87388095D01*
X124770000Y-87483333D01*
X124817619Y-87530952D01*
X124912857Y-87578571D01*
X125150952Y-87578571D01*
X125246190Y-87530952D01*
X125293809Y-87483333D01*
X125341428Y-87388095D01*
X125341428Y-87197619D01*
X125293809Y-87102380D01*
X125246190Y-87054761D01*
X125150952Y-87007142D01*
X125627142Y-86578571D02*
X125674761Y-86530952D01*
X125722380Y-86578571D01*
X125674761Y-86626190D01*
X125627142Y-86578571D01*
X125722380Y-86578571D01*
X125722380Y-86054761D02*
X125722380Y-85864285D01*
X125674761Y-85769047D01*
X125627142Y-85721428D01*
X125484285Y-85626190D01*
X125293809Y-85578571D01*
X124912857Y-85578571D01*
X124817619Y-85626190D01*
X124770000Y-85673809D01*
X124722380Y-85769047D01*
X124722380Y-85959523D01*
X124770000Y-86054761D01*
X124817619Y-86102380D01*
X124912857Y-86150000D01*
X125150952Y-86150000D01*
X125246190Y-86102380D01*
X125293809Y-86054761D01*
X125341428Y-85959523D01*
X125341428Y-85769047D01*
X125293809Y-85673809D01*
X125246190Y-85626190D01*
X125150952Y-85578571D01*
X125722380Y-85150000D02*
X124722380Y-85150000D01*
X125341428Y-85054761D02*
X125722380Y-84769047D01*
X125055714Y-84769047D02*
X125436666Y-85150000D01*
D14*
X126880952Y-86716666D02*
X126690476Y-86850000D01*
X126880952Y-86945238D02*
X126480952Y-86945238D01*
X126480952Y-86792857D01*
X126500000Y-86754761D01*
X126519047Y-86735714D01*
X126557142Y-86716666D01*
X126614285Y-86716666D01*
X126652380Y-86735714D01*
X126671428Y-86754761D01*
X126690476Y-86792857D01*
X126690476Y-86945238D01*
X126519047Y-86564285D02*
X126500000Y-86545238D01*
X126480952Y-86507142D01*
X126480952Y-86411904D01*
X126500000Y-86373809D01*
X126519047Y-86354761D01*
X126557142Y-86335714D01*
X126595238Y-86335714D01*
X126652380Y-86354761D01*
X126880952Y-86583333D01*
X126880952Y-86335714D01*
D11*
X163367619Y-95488095D02*
X163320000Y-95440476D01*
X163272380Y-95345238D01*
X163272380Y-95107142D01*
X163320000Y-95011904D01*
X163367619Y-94964285D01*
X163462857Y-94916666D01*
X163558095Y-94916666D01*
X163700952Y-94964285D01*
X164272380Y-95535714D01*
X164272380Y-94916666D01*
X163272380Y-94297619D02*
X163272380Y-94202380D01*
X163320000Y-94107142D01*
X163367619Y-94059523D01*
X163462857Y-94011904D01*
X163653333Y-93964285D01*
X163891428Y-93964285D01*
X164081904Y-94011904D01*
X164177142Y-94059523D01*
X164224761Y-94107142D01*
X164272380Y-94202380D01*
X164272380Y-94297619D01*
X164224761Y-94392857D01*
X164177142Y-94440476D01*
X164081904Y-94488095D01*
X163891428Y-94535714D01*
X163653333Y-94535714D01*
X163462857Y-94488095D01*
X163367619Y-94440476D01*
X163320000Y-94392857D01*
X163272380Y-94297619D01*
X163272380Y-93345238D02*
X163272380Y-93250000D01*
X163320000Y-93154761D01*
X163367619Y-93107142D01*
X163462857Y-93059523D01*
X163653333Y-93011904D01*
X163891428Y-93011904D01*
X164081904Y-93059523D01*
X164177142Y-93107142D01*
X164224761Y-93154761D01*
X164272380Y-93250000D01*
X164272380Y-93345238D01*
X164224761Y-93440476D01*
X164177142Y-93488095D01*
X164081904Y-93535714D01*
X163891428Y-93583333D01*
X163653333Y-93583333D01*
X163462857Y-93535714D01*
X163367619Y-93488095D01*
X163320000Y-93440476D01*
X163272380Y-93345238D01*
D14*
X165430952Y-94316666D02*
X165240476Y-94450000D01*
X165430952Y-94545238D02*
X165030952Y-94545238D01*
X165030952Y-94392857D01*
X165050000Y-94354761D01*
X165069047Y-94335714D01*
X165107142Y-94316666D01*
X165164285Y-94316666D01*
X165202380Y-94335714D01*
X165221428Y-94354761D01*
X165240476Y-94392857D01*
X165240476Y-94545238D01*
X165030952Y-94183333D02*
X165030952Y-93935714D01*
X165183333Y-94069047D01*
X165183333Y-94011904D01*
X165202380Y-93973809D01*
X165221428Y-93954761D01*
X165259523Y-93935714D01*
X165354761Y-93935714D01*
X165392857Y-93954761D01*
X165411904Y-93973809D01*
X165430952Y-94011904D01*
X165430952Y-94126190D01*
X165411904Y-94164285D01*
X165392857Y-94183333D01*
D11*
X163727619Y-104388095D02*
X163680000Y-104340476D01*
X163632380Y-104245238D01*
X163632380Y-104007142D01*
X163680000Y-103911904D01*
X163727619Y-103864285D01*
X163822857Y-103816666D01*
X163918095Y-103816666D01*
X164060952Y-103864285D01*
X164632380Y-104435714D01*
X164632380Y-103816666D01*
X163632380Y-103197619D02*
X163632380Y-103102380D01*
X163680000Y-103007142D01*
X163727619Y-102959523D01*
X163822857Y-102911904D01*
X164013333Y-102864285D01*
X164251428Y-102864285D01*
X164441904Y-102911904D01*
X164537142Y-102959523D01*
X164584761Y-103007142D01*
X164632380Y-103102380D01*
X164632380Y-103197619D01*
X164584761Y-103292857D01*
X164537142Y-103340476D01*
X164441904Y-103388095D01*
X164251428Y-103435714D01*
X164013333Y-103435714D01*
X163822857Y-103388095D01*
X163727619Y-103340476D01*
X163680000Y-103292857D01*
X163632380Y-103197619D01*
X163632380Y-102245238D02*
X163632380Y-102150000D01*
X163680000Y-102054761D01*
X163727619Y-102007142D01*
X163822857Y-101959523D01*
X164013333Y-101911904D01*
X164251428Y-101911904D01*
X164441904Y-101959523D01*
X164537142Y-102007142D01*
X164584761Y-102054761D01*
X164632380Y-102150000D01*
X164632380Y-102245238D01*
X164584761Y-102340476D01*
X164537142Y-102388095D01*
X164441904Y-102435714D01*
X164251428Y-102483333D01*
X164013333Y-102483333D01*
X163822857Y-102435714D01*
X163727619Y-102388095D01*
X163680000Y-102340476D01*
X163632380Y-102245238D01*
D14*
X162930952Y-103216666D02*
X162740476Y-103350000D01*
X162930952Y-103445238D02*
X162530952Y-103445238D01*
X162530952Y-103292857D01*
X162550000Y-103254761D01*
X162569047Y-103235714D01*
X162607142Y-103216666D01*
X162664285Y-103216666D01*
X162702380Y-103235714D01*
X162721428Y-103254761D01*
X162740476Y-103292857D01*
X162740476Y-103445238D01*
X162664285Y-102873809D02*
X162930952Y-102873809D01*
X162511904Y-102969047D02*
X162797619Y-103064285D01*
X162797619Y-102816666D01*
D11*
X158017619Y-97588095D02*
X157970000Y-97540476D01*
X157922380Y-97445238D01*
X157922380Y-97207142D01*
X157970000Y-97111904D01*
X158017619Y-97064285D01*
X158112857Y-97016666D01*
X158208095Y-97016666D01*
X158350952Y-97064285D01*
X158922380Y-97635714D01*
X158922380Y-97016666D01*
X157922380Y-96397619D02*
X157922380Y-96302380D01*
X157970000Y-96207142D01*
X158017619Y-96159523D01*
X158112857Y-96111904D01*
X158303333Y-96064285D01*
X158541428Y-96064285D01*
X158731904Y-96111904D01*
X158827142Y-96159523D01*
X158874761Y-96207142D01*
X158922380Y-96302380D01*
X158922380Y-96397619D01*
X158874761Y-96492857D01*
X158827142Y-96540476D01*
X158731904Y-96588095D01*
X158541428Y-96635714D01*
X158303333Y-96635714D01*
X158112857Y-96588095D01*
X158017619Y-96540476D01*
X157970000Y-96492857D01*
X157922380Y-96397619D01*
X157922380Y-95445238D02*
X157922380Y-95350000D01*
X157970000Y-95254761D01*
X158017619Y-95207142D01*
X158112857Y-95159523D01*
X158303333Y-95111904D01*
X158541428Y-95111904D01*
X158731904Y-95159523D01*
X158827142Y-95207142D01*
X158874761Y-95254761D01*
X158922380Y-95350000D01*
X158922380Y-95445238D01*
X158874761Y-95540476D01*
X158827142Y-95588095D01*
X158731904Y-95635714D01*
X158541428Y-95683333D01*
X158303333Y-95683333D01*
X158112857Y-95635714D01*
X158017619Y-95588095D01*
X157970000Y-95540476D01*
X157922380Y-95445238D01*
D14*
X160080952Y-96416666D02*
X159890476Y-96550000D01*
X160080952Y-96645238D02*
X159680952Y-96645238D01*
X159680952Y-96492857D01*
X159700000Y-96454761D01*
X159719047Y-96435714D01*
X159757142Y-96416666D01*
X159814285Y-96416666D01*
X159852380Y-96435714D01*
X159871428Y-96454761D01*
X159890476Y-96492857D01*
X159890476Y-96645238D01*
X159680952Y-96054761D02*
X159680952Y-96245238D01*
X159871428Y-96264285D01*
X159852380Y-96245238D01*
X159833333Y-96207142D01*
X159833333Y-96111904D01*
X159852380Y-96073809D01*
X159871428Y-96054761D01*
X159909523Y-96035714D01*
X160004761Y-96035714D01*
X160042857Y-96054761D01*
X160061904Y-96073809D01*
X160080952Y-96111904D01*
X160080952Y-96207142D01*
X160061904Y-96245238D01*
X160042857Y-96264285D01*
D11*
X166577619Y-105261904D02*
X166530000Y-105214285D01*
X166482380Y-105119047D01*
X166482380Y-104880952D01*
X166530000Y-104785714D01*
X166577619Y-104738095D01*
X166672857Y-104690476D01*
X166768095Y-104690476D01*
X166910952Y-104738095D01*
X167482380Y-105309523D01*
X167482380Y-104690476D01*
X166482380Y-104071428D02*
X166482380Y-103976190D01*
X166530000Y-103880952D01*
X166577619Y-103833333D01*
X166672857Y-103785714D01*
X166863333Y-103738095D01*
X167101428Y-103738095D01*
X167291904Y-103785714D01*
X167387142Y-103833333D01*
X167434761Y-103880952D01*
X167482380Y-103976190D01*
X167482380Y-104071428D01*
X167434761Y-104166666D01*
X167387142Y-104214285D01*
X167291904Y-104261904D01*
X167101428Y-104309523D01*
X166863333Y-104309523D01*
X166672857Y-104261904D01*
X166577619Y-104214285D01*
X166530000Y-104166666D01*
X166482380Y-104071428D01*
D14*
X165780952Y-104566666D02*
X165590476Y-104700000D01*
X165780952Y-104795238D02*
X165380952Y-104795238D01*
X165380952Y-104642857D01*
X165400000Y-104604761D01*
X165419047Y-104585714D01*
X165457142Y-104566666D01*
X165514285Y-104566666D01*
X165552380Y-104585714D01*
X165571428Y-104604761D01*
X165590476Y-104642857D01*
X165590476Y-104795238D01*
X165380952Y-104223809D02*
X165380952Y-104300000D01*
X165400000Y-104338095D01*
X165419047Y-104357142D01*
X165476190Y-104395238D01*
X165552380Y-104414285D01*
X165704761Y-104414285D01*
X165742857Y-104395238D01*
X165761904Y-104376190D01*
X165780952Y-104338095D01*
X165780952Y-104261904D01*
X165761904Y-104223809D01*
X165742857Y-104204761D01*
X165704761Y-104185714D01*
X165609523Y-104185714D01*
X165571428Y-104204761D01*
X165552380Y-104223809D01*
X165533333Y-104261904D01*
X165533333Y-104338095D01*
X165552380Y-104376190D01*
X165571428Y-104395238D01*
X165609523Y-104414285D01*
D11*
X159838095Y-101027619D02*
X159885714Y-100980000D01*
X159980952Y-100932380D01*
X160219047Y-100932380D01*
X160314285Y-100980000D01*
X160361904Y-101027619D01*
X160409523Y-101122857D01*
X160409523Y-101218095D01*
X160361904Y-101360952D01*
X159790476Y-101932380D01*
X160409523Y-101932380D01*
X161028571Y-100932380D02*
X161123809Y-100932380D01*
X161219047Y-100980000D01*
X161266666Y-101027619D01*
X161314285Y-101122857D01*
X161361904Y-101313333D01*
X161361904Y-101551428D01*
X161314285Y-101741904D01*
X161266666Y-101837142D01*
X161219047Y-101884761D01*
X161123809Y-101932380D01*
X161028571Y-101932380D01*
X160933333Y-101884761D01*
X160885714Y-101837142D01*
X160838095Y-101741904D01*
X160790476Y-101551428D01*
X160790476Y-101313333D01*
X160838095Y-101122857D01*
X160885714Y-101027619D01*
X160933333Y-100980000D01*
X161028571Y-100932380D01*
D14*
X160533333Y-100230952D02*
X160400000Y-100040476D01*
X160304761Y-100230952D02*
X160304761Y-99830952D01*
X160457142Y-99830952D01*
X160495238Y-99850000D01*
X160514285Y-99869047D01*
X160533333Y-99907142D01*
X160533333Y-99964285D01*
X160514285Y-100002380D01*
X160495238Y-100021428D01*
X160457142Y-100040476D01*
X160304761Y-100040476D01*
X160666666Y-99830952D02*
X160933333Y-99830952D01*
X160761904Y-100230952D01*
D11*
X155161904Y-103377619D02*
X155209523Y-103330000D01*
X155304761Y-103282380D01*
X155542857Y-103282380D01*
X155638095Y-103330000D01*
X155685714Y-103377619D01*
X155733333Y-103472857D01*
X155733333Y-103568095D01*
X155685714Y-103710952D01*
X155114285Y-104282380D01*
X155733333Y-104282380D01*
X156352380Y-103282380D02*
X156447619Y-103282380D01*
X156542857Y-103330000D01*
X156590476Y-103377619D01*
X156638095Y-103472857D01*
X156685714Y-103663333D01*
X156685714Y-103901428D01*
X156638095Y-104091904D01*
X156590476Y-104187142D01*
X156542857Y-104234761D01*
X156447619Y-104282380D01*
X156352380Y-104282380D01*
X156257142Y-104234761D01*
X156209523Y-104187142D01*
X156161904Y-104091904D01*
X156114285Y-103901428D01*
X156114285Y-103663333D01*
X156161904Y-103472857D01*
X156209523Y-103377619D01*
X156257142Y-103330000D01*
X156352380Y-103282380D01*
X157304761Y-103282380D02*
X157400000Y-103282380D01*
X157495238Y-103330000D01*
X157542857Y-103377619D01*
X157590476Y-103472857D01*
X157638095Y-103663333D01*
X157638095Y-103901428D01*
X157590476Y-104091904D01*
X157542857Y-104187142D01*
X157495238Y-104234761D01*
X157400000Y-104282380D01*
X157304761Y-104282380D01*
X157209523Y-104234761D01*
X157161904Y-104187142D01*
X157114285Y-104091904D01*
X157066666Y-103901428D01*
X157066666Y-103663333D01*
X157114285Y-103472857D01*
X157161904Y-103377619D01*
X157209523Y-103330000D01*
X157304761Y-103282380D01*
D14*
X156333333Y-102580952D02*
X156200000Y-102390476D01*
X156104761Y-102580952D02*
X156104761Y-102180952D01*
X156257142Y-102180952D01*
X156295238Y-102200000D01*
X156314285Y-102219047D01*
X156333333Y-102257142D01*
X156333333Y-102314285D01*
X156314285Y-102352380D01*
X156295238Y-102371428D01*
X156257142Y-102390476D01*
X156104761Y-102390476D01*
X156561904Y-102352380D02*
X156523809Y-102333333D01*
X156504761Y-102314285D01*
X156485714Y-102276190D01*
X156485714Y-102257142D01*
X156504761Y-102219047D01*
X156523809Y-102200000D01*
X156561904Y-102180952D01*
X156638095Y-102180952D01*
X156676190Y-102200000D01*
X156695238Y-102219047D01*
X156714285Y-102257142D01*
X156714285Y-102276190D01*
X156695238Y-102314285D01*
X156676190Y-102333333D01*
X156638095Y-102352380D01*
X156561904Y-102352380D01*
X156523809Y-102371428D01*
X156504761Y-102390476D01*
X156485714Y-102428571D01*
X156485714Y-102504761D01*
X156504761Y-102542857D01*
X156523809Y-102561904D01*
X156561904Y-102580952D01*
X156638095Y-102580952D01*
X156676190Y-102561904D01*
X156695238Y-102542857D01*
X156714285Y-102504761D01*
X156714285Y-102428571D01*
X156695238Y-102390476D01*
X156676190Y-102371428D01*
X156638095Y-102352380D01*
D11*
X155211904Y-98077619D02*
X155259523Y-98030000D01*
X155354761Y-97982380D01*
X155592857Y-97982380D01*
X155688095Y-98030000D01*
X155735714Y-98077619D01*
X155783333Y-98172857D01*
X155783333Y-98268095D01*
X155735714Y-98410952D01*
X155164285Y-98982380D01*
X155783333Y-98982380D01*
X156402380Y-97982380D02*
X156497619Y-97982380D01*
X156592857Y-98030000D01*
X156640476Y-98077619D01*
X156688095Y-98172857D01*
X156735714Y-98363333D01*
X156735714Y-98601428D01*
X156688095Y-98791904D01*
X156640476Y-98887142D01*
X156592857Y-98934761D01*
X156497619Y-98982380D01*
X156402380Y-98982380D01*
X156307142Y-98934761D01*
X156259523Y-98887142D01*
X156211904Y-98791904D01*
X156164285Y-98601428D01*
X156164285Y-98363333D01*
X156211904Y-98172857D01*
X156259523Y-98077619D01*
X156307142Y-98030000D01*
X156402380Y-97982380D01*
X157354761Y-97982380D02*
X157450000Y-97982380D01*
X157545238Y-98030000D01*
X157592857Y-98077619D01*
X157640476Y-98172857D01*
X157688095Y-98363333D01*
X157688095Y-98601428D01*
X157640476Y-98791904D01*
X157592857Y-98887142D01*
X157545238Y-98934761D01*
X157450000Y-98982380D01*
X157354761Y-98982380D01*
X157259523Y-98934761D01*
X157211904Y-98887142D01*
X157164285Y-98791904D01*
X157116666Y-98601428D01*
X157116666Y-98363333D01*
X157164285Y-98172857D01*
X157211904Y-98077619D01*
X157259523Y-98030000D01*
X157354761Y-97982380D01*
D14*
X156383333Y-97280952D02*
X156250000Y-97090476D01*
X156154761Y-97280952D02*
X156154761Y-96880952D01*
X156307142Y-96880952D01*
X156345238Y-96900000D01*
X156364285Y-96919047D01*
X156383333Y-96957142D01*
X156383333Y-97014285D01*
X156364285Y-97052380D01*
X156345238Y-97071428D01*
X156307142Y-97090476D01*
X156154761Y-97090476D01*
X156573809Y-97280952D02*
X156650000Y-97280952D01*
X156688095Y-97261904D01*
X156707142Y-97242857D01*
X156745238Y-97185714D01*
X156764285Y-97109523D01*
X156764285Y-96957142D01*
X156745238Y-96919047D01*
X156726190Y-96900000D01*
X156688095Y-96880952D01*
X156611904Y-96880952D01*
X156573809Y-96900000D01*
X156554761Y-96919047D01*
X156535714Y-96957142D01*
X156535714Y-97052380D01*
X156554761Y-97090476D01*
X156573809Y-97109523D01*
X156611904Y-97128571D01*
X156688095Y-97128571D01*
X156726190Y-97109523D01*
X156745238Y-97090476D01*
X156764285Y-97052380D01*
D11*
X153227619Y-97488095D02*
X153180000Y-97440476D01*
X153132380Y-97345238D01*
X153132380Y-97107142D01*
X153180000Y-97011904D01*
X153227619Y-96964285D01*
X153322857Y-96916666D01*
X153418095Y-96916666D01*
X153560952Y-96964285D01*
X154132380Y-97535714D01*
X154132380Y-96916666D01*
X153132380Y-96297619D02*
X153132380Y-96202380D01*
X153180000Y-96107142D01*
X153227619Y-96059523D01*
X153322857Y-96011904D01*
X153513333Y-95964285D01*
X153751428Y-95964285D01*
X153941904Y-96011904D01*
X154037142Y-96059523D01*
X154084761Y-96107142D01*
X154132380Y-96202380D01*
X154132380Y-96297619D01*
X154084761Y-96392857D01*
X154037142Y-96440476D01*
X153941904Y-96488095D01*
X153751428Y-96535714D01*
X153513333Y-96535714D01*
X153322857Y-96488095D01*
X153227619Y-96440476D01*
X153180000Y-96392857D01*
X153132380Y-96297619D01*
X153132380Y-95345238D02*
X153132380Y-95250000D01*
X153180000Y-95154761D01*
X153227619Y-95107142D01*
X153322857Y-95059523D01*
X153513333Y-95011904D01*
X153751428Y-95011904D01*
X153941904Y-95059523D01*
X154037142Y-95107142D01*
X154084761Y-95154761D01*
X154132380Y-95250000D01*
X154132380Y-95345238D01*
X154084761Y-95440476D01*
X154037142Y-95488095D01*
X153941904Y-95535714D01*
X153751428Y-95583333D01*
X153513333Y-95583333D01*
X153322857Y-95535714D01*
X153227619Y-95488095D01*
X153180000Y-95440476D01*
X153132380Y-95345238D01*
D14*
X152430952Y-96507142D02*
X152240476Y-96640476D01*
X152430952Y-96735714D02*
X152030952Y-96735714D01*
X152030952Y-96583333D01*
X152050000Y-96545238D01*
X152069047Y-96526190D01*
X152107142Y-96507142D01*
X152164285Y-96507142D01*
X152202380Y-96526190D01*
X152221428Y-96545238D01*
X152240476Y-96583333D01*
X152240476Y-96735714D01*
X152430952Y-96126190D02*
X152430952Y-96354761D01*
X152430952Y-96240476D02*
X152030952Y-96240476D01*
X152088095Y-96278571D01*
X152126190Y-96316666D01*
X152145238Y-96354761D01*
X152030952Y-95878571D02*
X152030952Y-95840476D01*
X152050000Y-95802380D01*
X152069047Y-95783333D01*
X152107142Y-95764285D01*
X152183333Y-95745238D01*
X152278571Y-95745238D01*
X152354761Y-95764285D01*
X152392857Y-95783333D01*
X152411904Y-95802380D01*
X152430952Y-95840476D01*
X152430952Y-95878571D01*
X152411904Y-95916666D01*
X152392857Y-95935714D01*
X152354761Y-95954761D01*
X152278571Y-95973809D01*
X152183333Y-95973809D01*
X152107142Y-95954761D01*
X152069047Y-95935714D01*
X152050000Y-95916666D01*
X152030952Y-95878571D01*
D11*
X148617619Y-101988095D02*
X148570000Y-101940476D01*
X148522380Y-101845238D01*
X148522380Y-101607142D01*
X148570000Y-101511904D01*
X148617619Y-101464285D01*
X148712857Y-101416666D01*
X148808095Y-101416666D01*
X148950952Y-101464285D01*
X149522380Y-102035714D01*
X149522380Y-101416666D01*
X148522380Y-100797619D02*
X148522380Y-100702380D01*
X148570000Y-100607142D01*
X148617619Y-100559523D01*
X148712857Y-100511904D01*
X148903333Y-100464285D01*
X149141428Y-100464285D01*
X149331904Y-100511904D01*
X149427142Y-100559523D01*
X149474761Y-100607142D01*
X149522380Y-100702380D01*
X149522380Y-100797619D01*
X149474761Y-100892857D01*
X149427142Y-100940476D01*
X149331904Y-100988095D01*
X149141428Y-101035714D01*
X148903333Y-101035714D01*
X148712857Y-100988095D01*
X148617619Y-100940476D01*
X148570000Y-100892857D01*
X148522380Y-100797619D01*
X148522380Y-99845238D02*
X148522380Y-99750000D01*
X148570000Y-99654761D01*
X148617619Y-99607142D01*
X148712857Y-99559523D01*
X148903333Y-99511904D01*
X149141428Y-99511904D01*
X149331904Y-99559523D01*
X149427142Y-99607142D01*
X149474761Y-99654761D01*
X149522380Y-99750000D01*
X149522380Y-99845238D01*
X149474761Y-99940476D01*
X149427142Y-99988095D01*
X149331904Y-100035714D01*
X149141428Y-100083333D01*
X148903333Y-100083333D01*
X148712857Y-100035714D01*
X148617619Y-99988095D01*
X148570000Y-99940476D01*
X148522380Y-99845238D01*
D14*
X150680952Y-101007142D02*
X150490476Y-101140476D01*
X150680952Y-101235714D02*
X150280952Y-101235714D01*
X150280952Y-101083333D01*
X150300000Y-101045238D01*
X150319047Y-101026190D01*
X150357142Y-101007142D01*
X150414285Y-101007142D01*
X150452380Y-101026190D01*
X150471428Y-101045238D01*
X150490476Y-101083333D01*
X150490476Y-101235714D01*
X150680952Y-100626190D02*
X150680952Y-100854761D01*
X150680952Y-100740476D02*
X150280952Y-100740476D01*
X150338095Y-100778571D01*
X150376190Y-100816666D01*
X150395238Y-100854761D01*
X150680952Y-100245238D02*
X150680952Y-100473809D01*
X150680952Y-100359523D02*
X150280952Y-100359523D01*
X150338095Y-100397619D01*
X150376190Y-100435714D01*
X150395238Y-100473809D01*
D11*
X144011904Y-96977619D02*
X144059523Y-96930000D01*
X144154761Y-96882380D01*
X144392857Y-96882380D01*
X144488095Y-96930000D01*
X144535714Y-96977619D01*
X144583333Y-97072857D01*
X144583333Y-97168095D01*
X144535714Y-97310952D01*
X143964285Y-97882380D01*
X144583333Y-97882380D01*
X145202380Y-96882380D02*
X145297619Y-96882380D01*
X145392857Y-96930000D01*
X145440476Y-96977619D01*
X145488095Y-97072857D01*
X145535714Y-97263333D01*
X145535714Y-97501428D01*
X145488095Y-97691904D01*
X145440476Y-97787142D01*
X145392857Y-97834761D01*
X145297619Y-97882380D01*
X145202380Y-97882380D01*
X145107142Y-97834761D01*
X145059523Y-97787142D01*
X145011904Y-97691904D01*
X144964285Y-97501428D01*
X144964285Y-97263333D01*
X145011904Y-97072857D01*
X145059523Y-96977619D01*
X145107142Y-96930000D01*
X145202380Y-96882380D01*
X146154761Y-96882380D02*
X146250000Y-96882380D01*
X146345238Y-96930000D01*
X146392857Y-96977619D01*
X146440476Y-97072857D01*
X146488095Y-97263333D01*
X146488095Y-97501428D01*
X146440476Y-97691904D01*
X146392857Y-97787142D01*
X146345238Y-97834761D01*
X146250000Y-97882380D01*
X146154761Y-97882380D01*
X146059523Y-97834761D01*
X146011904Y-97787142D01*
X145964285Y-97691904D01*
X145916666Y-97501428D01*
X145916666Y-97263333D01*
X145964285Y-97072857D01*
X146011904Y-96977619D01*
X146059523Y-96930000D01*
X146154761Y-96882380D01*
D14*
X144992857Y-96180952D02*
X144859523Y-95990476D01*
X144764285Y-96180952D02*
X144764285Y-95780952D01*
X144916666Y-95780952D01*
X144954761Y-95800000D01*
X144973809Y-95819047D01*
X144992857Y-95857142D01*
X144992857Y-95914285D01*
X144973809Y-95952380D01*
X144954761Y-95971428D01*
X144916666Y-95990476D01*
X144764285Y-95990476D01*
X145373809Y-96180952D02*
X145145238Y-96180952D01*
X145259523Y-96180952D02*
X145259523Y-95780952D01*
X145221428Y-95838095D01*
X145183333Y-95876190D01*
X145145238Y-95895238D01*
X145526190Y-95819047D02*
X145545238Y-95800000D01*
X145583333Y-95780952D01*
X145678571Y-95780952D01*
X145716666Y-95800000D01*
X145735714Y-95819047D01*
X145754761Y-95857142D01*
X145754761Y-95895238D01*
X145735714Y-95952380D01*
X145507142Y-96180952D01*
X145754761Y-96180952D01*
D11*
X139367619Y-99988095D02*
X139320000Y-99940476D01*
X139272380Y-99845238D01*
X139272380Y-99607142D01*
X139320000Y-99511904D01*
X139367619Y-99464285D01*
X139462857Y-99416666D01*
X139558095Y-99416666D01*
X139700952Y-99464285D01*
X140272380Y-100035714D01*
X140272380Y-99416666D01*
X139272380Y-98797619D02*
X139272380Y-98702380D01*
X139320000Y-98607142D01*
X139367619Y-98559523D01*
X139462857Y-98511904D01*
X139653333Y-98464285D01*
X139891428Y-98464285D01*
X140081904Y-98511904D01*
X140177142Y-98559523D01*
X140224761Y-98607142D01*
X140272380Y-98702380D01*
X140272380Y-98797619D01*
X140224761Y-98892857D01*
X140177142Y-98940476D01*
X140081904Y-98988095D01*
X139891428Y-99035714D01*
X139653333Y-99035714D01*
X139462857Y-98988095D01*
X139367619Y-98940476D01*
X139320000Y-98892857D01*
X139272380Y-98797619D01*
X139272380Y-97845238D02*
X139272380Y-97750000D01*
X139320000Y-97654761D01*
X139367619Y-97607142D01*
X139462857Y-97559523D01*
X139653333Y-97511904D01*
X139891428Y-97511904D01*
X140081904Y-97559523D01*
X140177142Y-97607142D01*
X140224761Y-97654761D01*
X140272380Y-97750000D01*
X140272380Y-97845238D01*
X140224761Y-97940476D01*
X140177142Y-97988095D01*
X140081904Y-98035714D01*
X139891428Y-98083333D01*
X139653333Y-98083333D01*
X139462857Y-98035714D01*
X139367619Y-97988095D01*
X139320000Y-97940476D01*
X139272380Y-97845238D01*
D14*
X141430952Y-99007142D02*
X141240476Y-99140476D01*
X141430952Y-99235714D02*
X141030952Y-99235714D01*
X141030952Y-99083333D01*
X141050000Y-99045238D01*
X141069047Y-99026190D01*
X141107142Y-99007142D01*
X141164285Y-99007142D01*
X141202380Y-99026190D01*
X141221428Y-99045238D01*
X141240476Y-99083333D01*
X141240476Y-99235714D01*
X141430952Y-98626190D02*
X141430952Y-98854761D01*
X141430952Y-98740476D02*
X141030952Y-98740476D01*
X141088095Y-98778571D01*
X141126190Y-98816666D01*
X141145238Y-98854761D01*
X141030952Y-98492857D02*
X141030952Y-98245238D01*
X141183333Y-98378571D01*
X141183333Y-98321428D01*
X141202380Y-98283333D01*
X141221428Y-98264285D01*
X141259523Y-98245238D01*
X141354761Y-98245238D01*
X141392857Y-98264285D01*
X141411904Y-98283333D01*
X141430952Y-98321428D01*
X141430952Y-98435714D01*
X141411904Y-98473809D01*
X141392857Y-98492857D01*
D11*
X139382380Y-99416666D02*
X139382380Y-99988095D01*
X139382380Y-99702380D02*
X138382380Y-99702380D01*
X138525238Y-99797619D01*
X138620476Y-99892857D01*
X138668095Y-99988095D01*
X138382380Y-98797619D02*
X138382380Y-98702380D01*
X138430000Y-98607142D01*
X138477619Y-98559523D01*
X138572857Y-98511904D01*
X138763333Y-98464285D01*
X139001428Y-98464285D01*
X139191904Y-98511904D01*
X139287142Y-98559523D01*
X139334761Y-98607142D01*
X139382380Y-98702380D01*
X139382380Y-98797619D01*
X139334761Y-98892857D01*
X139287142Y-98940476D01*
X139191904Y-98988095D01*
X139001428Y-99035714D01*
X138763333Y-99035714D01*
X138572857Y-98988095D01*
X138477619Y-98940476D01*
X138430000Y-98892857D01*
X138382380Y-98797619D01*
X138382380Y-97845238D02*
X138382380Y-97750000D01*
X138430000Y-97654761D01*
X138477619Y-97607142D01*
X138572857Y-97559523D01*
X138763333Y-97511904D01*
X139001428Y-97511904D01*
X139191904Y-97559523D01*
X139287142Y-97607142D01*
X139334761Y-97654761D01*
X139382380Y-97750000D01*
X139382380Y-97845238D01*
X139334761Y-97940476D01*
X139287142Y-97988095D01*
X139191904Y-98035714D01*
X139001428Y-98083333D01*
X138763333Y-98083333D01*
X138572857Y-98035714D01*
X138477619Y-97988095D01*
X138430000Y-97940476D01*
X138382380Y-97845238D01*
D14*
X137680952Y-99007142D02*
X137490476Y-99140476D01*
X137680952Y-99235714D02*
X137280952Y-99235714D01*
X137280952Y-99083333D01*
X137300000Y-99045238D01*
X137319047Y-99026190D01*
X137357142Y-99007142D01*
X137414285Y-99007142D01*
X137452380Y-99026190D01*
X137471428Y-99045238D01*
X137490476Y-99083333D01*
X137490476Y-99235714D01*
X137680952Y-98626190D02*
X137680952Y-98854761D01*
X137680952Y-98740476D02*
X137280952Y-98740476D01*
X137338095Y-98778571D01*
X137376190Y-98816666D01*
X137395238Y-98854761D01*
X137414285Y-98283333D02*
X137680952Y-98283333D01*
X137261904Y-98378571D02*
X137547619Y-98473809D01*
X137547619Y-98226190D01*
D11*
X118100000Y-93865714D02*
X118100000Y-94532380D01*
X117861904Y-93484761D02*
X117623809Y-94199047D01*
X118242857Y-94199047D01*
X118671428Y-94532380D02*
X118861904Y-94532380D01*
X118957142Y-94484761D01*
X119004761Y-94437142D01*
X119100000Y-94294285D01*
X119147619Y-94103809D01*
X119147619Y-93722857D01*
X119100000Y-93627619D01*
X119052380Y-93580000D01*
X118957142Y-93532380D01*
X118766666Y-93532380D01*
X118671428Y-93580000D01*
X118623809Y-93627619D01*
X118576190Y-93722857D01*
X118576190Y-93960952D01*
X118623809Y-94056190D01*
X118671428Y-94103809D01*
X118766666Y-94151428D01*
X118957142Y-94151428D01*
X119052380Y-94103809D01*
X119100000Y-94056190D01*
X119147619Y-93960952D01*
X119576190Y-94437142D02*
X119623809Y-94484761D01*
X119576190Y-94532380D01*
X119528571Y-94484761D01*
X119576190Y-94437142D01*
X119576190Y-94532380D01*
X120100000Y-94532380D02*
X120290476Y-94532380D01*
X120385714Y-94484761D01*
X120433333Y-94437142D01*
X120528571Y-94294285D01*
X120576190Y-94103809D01*
X120576190Y-93722857D01*
X120528571Y-93627619D01*
X120480952Y-93580000D01*
X120385714Y-93532380D01*
X120195238Y-93532380D01*
X120100000Y-93580000D01*
X120052380Y-93627619D01*
X120004761Y-93722857D01*
X120004761Y-93960952D01*
X120052380Y-94056190D01*
X120100000Y-94103809D01*
X120195238Y-94151428D01*
X120385714Y-94151428D01*
X120480952Y-94103809D01*
X120528571Y-94056190D01*
X120576190Y-93960952D01*
D13*
X118585714Y-92161904D02*
X118319047Y-91780952D01*
X118128571Y-92161904D02*
X118128571Y-91361904D01*
X118433333Y-91361904D01*
X118509523Y-91400000D01*
X118547619Y-91438095D01*
X118585714Y-91514285D01*
X118585714Y-91628571D01*
X118547619Y-91704761D01*
X118509523Y-91742857D01*
X118433333Y-91780952D01*
X118128571Y-91780952D01*
X119347619Y-92161904D02*
X118890476Y-92161904D01*
X119119047Y-92161904D02*
X119119047Y-91361904D01*
X119042857Y-91476190D01*
X118966666Y-91552380D01*
X118890476Y-91590476D01*
X120071428Y-91361904D02*
X119690476Y-91361904D01*
X119652380Y-91742857D01*
X119690476Y-91704761D01*
X119766666Y-91666666D01*
X119957142Y-91666666D01*
X120033333Y-91704761D01*
X120071428Y-91742857D01*
X120109523Y-91819047D01*
X120109523Y-92009523D01*
X120071428Y-92085714D01*
X120033333Y-92123809D01*
X119957142Y-92161904D01*
X119766666Y-92161904D01*
X119690476Y-92123809D01*
X119652380Y-92085714D01*
D11*
X145377619Y-113288095D02*
X145330000Y-113240476D01*
X145282380Y-113145238D01*
X145282380Y-112907142D01*
X145330000Y-112811904D01*
X145377619Y-112764285D01*
X145472857Y-112716666D01*
X145568095Y-112716666D01*
X145710952Y-112764285D01*
X146282380Y-113335714D01*
X146282380Y-112716666D01*
X145282380Y-112097619D02*
X145282380Y-112002380D01*
X145330000Y-111907142D01*
X145377619Y-111859523D01*
X145472857Y-111811904D01*
X145663333Y-111764285D01*
X145901428Y-111764285D01*
X146091904Y-111811904D01*
X146187142Y-111859523D01*
X146234761Y-111907142D01*
X146282380Y-112002380D01*
X146282380Y-112097619D01*
X146234761Y-112192857D01*
X146187142Y-112240476D01*
X146091904Y-112288095D01*
X145901428Y-112335714D01*
X145663333Y-112335714D01*
X145472857Y-112288095D01*
X145377619Y-112240476D01*
X145330000Y-112192857D01*
X145282380Y-112097619D01*
X145282380Y-111145238D02*
X145282380Y-111050000D01*
X145330000Y-110954761D01*
X145377619Y-110907142D01*
X145472857Y-110859523D01*
X145663333Y-110811904D01*
X145901428Y-110811904D01*
X146091904Y-110859523D01*
X146187142Y-110907142D01*
X146234761Y-110954761D01*
X146282380Y-111050000D01*
X146282380Y-111145238D01*
X146234761Y-111240476D01*
X146187142Y-111288095D01*
X146091904Y-111335714D01*
X145901428Y-111383333D01*
X145663333Y-111383333D01*
X145472857Y-111335714D01*
X145377619Y-111288095D01*
X145330000Y-111240476D01*
X145282380Y-111145238D01*
D14*
X144580952Y-112307142D02*
X144390476Y-112440476D01*
X144580952Y-112535714D02*
X144180952Y-112535714D01*
X144180952Y-112383333D01*
X144200000Y-112345238D01*
X144219047Y-112326190D01*
X144257142Y-112307142D01*
X144314285Y-112307142D01*
X144352380Y-112326190D01*
X144371428Y-112345238D01*
X144390476Y-112383333D01*
X144390476Y-112535714D01*
X144580952Y-111926190D02*
X144580952Y-112154761D01*
X144580952Y-112040476D02*
X144180952Y-112040476D01*
X144238095Y-112078571D01*
X144276190Y-112116666D01*
X144295238Y-112154761D01*
X144180952Y-111583333D02*
X144180952Y-111659523D01*
X144200000Y-111697619D01*
X144219047Y-111716666D01*
X144276190Y-111754761D01*
X144352380Y-111773809D01*
X144504761Y-111773809D01*
X144542857Y-111754761D01*
X144561904Y-111735714D01*
X144580952Y-111697619D01*
X144580952Y-111621428D01*
X144561904Y-111583333D01*
X144542857Y-111564285D01*
X144504761Y-111545238D01*
X144409523Y-111545238D01*
X144371428Y-111564285D01*
X144352380Y-111583333D01*
X144333333Y-111621428D01*
X144333333Y-111697619D01*
X144352380Y-111735714D01*
X144371428Y-111754761D01*
X144409523Y-111773809D01*
D11*
X132761904Y-112367619D02*
X132809523Y-112320000D01*
X132904761Y-112272380D01*
X133142857Y-112272380D01*
X133238095Y-112320000D01*
X133285714Y-112367619D01*
X133333333Y-112462857D01*
X133333333Y-112558095D01*
X133285714Y-112700952D01*
X132714285Y-113272380D01*
X133333333Y-113272380D01*
X133952380Y-112272380D02*
X134047619Y-112272380D01*
X134142857Y-112320000D01*
X134190476Y-112367619D01*
X134238095Y-112462857D01*
X134285714Y-112653333D01*
X134285714Y-112891428D01*
X134238095Y-113081904D01*
X134190476Y-113177142D01*
X134142857Y-113224761D01*
X134047619Y-113272380D01*
X133952380Y-113272380D01*
X133857142Y-113224761D01*
X133809523Y-113177142D01*
X133761904Y-113081904D01*
X133714285Y-112891428D01*
X133714285Y-112653333D01*
X133761904Y-112462857D01*
X133809523Y-112367619D01*
X133857142Y-112320000D01*
X133952380Y-112272380D01*
X134904761Y-112272380D02*
X135000000Y-112272380D01*
X135095238Y-112320000D01*
X135142857Y-112367619D01*
X135190476Y-112462857D01*
X135238095Y-112653333D01*
X135238095Y-112891428D01*
X135190476Y-113081904D01*
X135142857Y-113177142D01*
X135095238Y-113224761D01*
X135000000Y-113272380D01*
X134904761Y-113272380D01*
X134809523Y-113224761D01*
X134761904Y-113177142D01*
X134714285Y-113081904D01*
X134666666Y-112891428D01*
X134666666Y-112653333D01*
X134714285Y-112462857D01*
X134761904Y-112367619D01*
X134809523Y-112320000D01*
X134904761Y-112272380D01*
D14*
X133742857Y-114430952D02*
X133609523Y-114240476D01*
X133514285Y-114430952D02*
X133514285Y-114030952D01*
X133666666Y-114030952D01*
X133704761Y-114050000D01*
X133723809Y-114069047D01*
X133742857Y-114107142D01*
X133742857Y-114164285D01*
X133723809Y-114202380D01*
X133704761Y-114221428D01*
X133666666Y-114240476D01*
X133514285Y-114240476D01*
X134123809Y-114430952D02*
X133895238Y-114430952D01*
X134009523Y-114430952D02*
X134009523Y-114030952D01*
X133971428Y-114088095D01*
X133933333Y-114126190D01*
X133895238Y-114145238D01*
X134257142Y-114030952D02*
X134523809Y-114030952D01*
X134352380Y-114430952D01*
D11*
X125617619Y-111988095D02*
X125570000Y-111940476D01*
X125522380Y-111845238D01*
X125522380Y-111607142D01*
X125570000Y-111511904D01*
X125617619Y-111464285D01*
X125712857Y-111416666D01*
X125808095Y-111416666D01*
X125950952Y-111464285D01*
X126522380Y-112035714D01*
X126522380Y-111416666D01*
X125522380Y-110797619D02*
X125522380Y-110702380D01*
X125570000Y-110607142D01*
X125617619Y-110559523D01*
X125712857Y-110511904D01*
X125903333Y-110464285D01*
X126141428Y-110464285D01*
X126331904Y-110511904D01*
X126427142Y-110559523D01*
X126474761Y-110607142D01*
X126522380Y-110702380D01*
X126522380Y-110797619D01*
X126474761Y-110892857D01*
X126427142Y-110940476D01*
X126331904Y-110988095D01*
X126141428Y-111035714D01*
X125903333Y-111035714D01*
X125712857Y-110988095D01*
X125617619Y-110940476D01*
X125570000Y-110892857D01*
X125522380Y-110797619D01*
X125522380Y-109845238D02*
X125522380Y-109750000D01*
X125570000Y-109654761D01*
X125617619Y-109607142D01*
X125712857Y-109559523D01*
X125903333Y-109511904D01*
X126141428Y-109511904D01*
X126331904Y-109559523D01*
X126427142Y-109607142D01*
X126474761Y-109654761D01*
X126522380Y-109750000D01*
X126522380Y-109845238D01*
X126474761Y-109940476D01*
X126427142Y-109988095D01*
X126331904Y-110035714D01*
X126141428Y-110083333D01*
X125903333Y-110083333D01*
X125712857Y-110035714D01*
X125617619Y-109988095D01*
X125570000Y-109940476D01*
X125522380Y-109845238D01*
D14*
X127680952Y-111007142D02*
X127490476Y-111140476D01*
X127680952Y-111235714D02*
X127280952Y-111235714D01*
X127280952Y-111083333D01*
X127300000Y-111045238D01*
X127319047Y-111026190D01*
X127357142Y-111007142D01*
X127414285Y-111007142D01*
X127452380Y-111026190D01*
X127471428Y-111045238D01*
X127490476Y-111083333D01*
X127490476Y-111235714D01*
X127680952Y-110626190D02*
X127680952Y-110854761D01*
X127680952Y-110740476D02*
X127280952Y-110740476D01*
X127338095Y-110778571D01*
X127376190Y-110816666D01*
X127395238Y-110854761D01*
X127452380Y-110397619D02*
X127433333Y-110435714D01*
X127414285Y-110454761D01*
X127376190Y-110473809D01*
X127357142Y-110473809D01*
X127319047Y-110454761D01*
X127300000Y-110435714D01*
X127280952Y-110397619D01*
X127280952Y-110321428D01*
X127300000Y-110283333D01*
X127319047Y-110264285D01*
X127357142Y-110245238D01*
X127376190Y-110245238D01*
X127414285Y-110264285D01*
X127433333Y-110283333D01*
X127452380Y-110321428D01*
X127452380Y-110397619D01*
X127471428Y-110435714D01*
X127490476Y-110454761D01*
X127528571Y-110473809D01*
X127604761Y-110473809D01*
X127642857Y-110454761D01*
X127661904Y-110435714D01*
X127680952Y-110397619D01*
X127680952Y-110321428D01*
X127661904Y-110283333D01*
X127642857Y-110264285D01*
X127604761Y-110245238D01*
X127528571Y-110245238D01*
X127490476Y-110264285D01*
X127471428Y-110283333D01*
X127452380Y-110321428D01*
D11*
X123372380Y-105738095D02*
X123372380Y-106214285D01*
X123848571Y-106261904D01*
X123800952Y-106214285D01*
X123753333Y-106119047D01*
X123753333Y-105880952D01*
X123800952Y-105785714D01*
X123848571Y-105738095D01*
X123943809Y-105690476D01*
X124181904Y-105690476D01*
X124277142Y-105738095D01*
X124324761Y-105785714D01*
X124372380Y-105880952D01*
X124372380Y-106119047D01*
X124324761Y-106214285D01*
X124277142Y-106261904D01*
X124372380Y-104738095D02*
X124372380Y-105309523D01*
X124372380Y-105023809D02*
X123372380Y-105023809D01*
X123515238Y-105119047D01*
X123610476Y-105214285D01*
X123658095Y-105309523D01*
D13*
X126561904Y-106014285D02*
X126180952Y-106280952D01*
X126561904Y-106471428D02*
X125761904Y-106471428D01*
X125761904Y-106166666D01*
X125800000Y-106090476D01*
X125838095Y-106052380D01*
X125914285Y-106014285D01*
X126028571Y-106014285D01*
X126104761Y-106052380D01*
X126142857Y-106090476D01*
X126180952Y-106166666D01*
X126180952Y-106471428D01*
X126561904Y-105252380D02*
X126561904Y-105709523D01*
X126561904Y-105480952D02*
X125761904Y-105480952D01*
X125876190Y-105557142D01*
X125952380Y-105633333D01*
X125990476Y-105709523D01*
X126561904Y-104871428D02*
X126561904Y-104719047D01*
X126523809Y-104642857D01*
X126485714Y-104604761D01*
X126371428Y-104528571D01*
X126219047Y-104490476D01*
X125914285Y-104490476D01*
X125838095Y-104528571D01*
X125800000Y-104566666D01*
X125761904Y-104642857D01*
X125761904Y-104795238D01*
X125800000Y-104871428D01*
X125838095Y-104909523D01*
X125914285Y-104947619D01*
X126104761Y-104947619D01*
X126180952Y-104909523D01*
X126219047Y-104871428D01*
X126257142Y-104795238D01*
X126257142Y-104642857D01*
X126219047Y-104566666D01*
X126180952Y-104528571D01*
X126104761Y-104490476D01*
D11*
X121266666Y-108782380D02*
X120695238Y-108782380D01*
X120980952Y-108782380D02*
X120980952Y-107782380D01*
X120885714Y-107925238D01*
X120790476Y-108020476D01*
X120695238Y-108068095D01*
X121695238Y-108687142D02*
X121742857Y-108734761D01*
X121695238Y-108782380D01*
X121647619Y-108734761D01*
X121695238Y-108687142D01*
X121695238Y-108782380D01*
X122123809Y-107877619D02*
X122171428Y-107830000D01*
X122266666Y-107782380D01*
X122504761Y-107782380D01*
X122600000Y-107830000D01*
X122647619Y-107877619D01*
X122695238Y-107972857D01*
X122695238Y-108068095D01*
X122647619Y-108210952D01*
X122076190Y-108782380D01*
X122695238Y-108782380D01*
X123123809Y-108782380D02*
X123123809Y-107782380D01*
X123219047Y-108401428D02*
X123504761Y-108782380D01*
X123504761Y-108115714D02*
X123123809Y-108496666D01*
D14*
X121842857Y-107080952D02*
X121709523Y-106890476D01*
X121614285Y-107080952D02*
X121614285Y-106680952D01*
X121766666Y-106680952D01*
X121804761Y-106700000D01*
X121823809Y-106719047D01*
X121842857Y-106757142D01*
X121842857Y-106814285D01*
X121823809Y-106852380D01*
X121804761Y-106871428D01*
X121766666Y-106890476D01*
X121614285Y-106890476D01*
X121995238Y-106719047D02*
X122014285Y-106700000D01*
X122052380Y-106680952D01*
X122147619Y-106680952D01*
X122185714Y-106700000D01*
X122204761Y-106719047D01*
X122223809Y-106757142D01*
X122223809Y-106795238D01*
X122204761Y-106852380D01*
X121976190Y-107080952D01*
X122223809Y-107080952D01*
X122471428Y-106680952D02*
X122509523Y-106680952D01*
X122547619Y-106700000D01*
X122566666Y-106719047D01*
X122585714Y-106757142D01*
X122604761Y-106833333D01*
X122604761Y-106928571D01*
X122585714Y-107004761D01*
X122566666Y-107042857D01*
X122547619Y-107061904D01*
X122509523Y-107080952D01*
X122471428Y-107080952D01*
X122433333Y-107061904D01*
X122414285Y-107042857D01*
X122395238Y-107004761D01*
X122376190Y-106928571D01*
X122376190Y-106833333D01*
X122395238Y-106757142D01*
X122414285Y-106719047D01*
X122433333Y-106700000D01*
X122471428Y-106680952D01*
D11*
X115522380Y-106338095D02*
X115522380Y-106814285D01*
X115998571Y-106861904D01*
X115950952Y-106814285D01*
X115903333Y-106719047D01*
X115903333Y-106480952D01*
X115950952Y-106385714D01*
X115998571Y-106338095D01*
X116093809Y-106290476D01*
X116331904Y-106290476D01*
X116427142Y-106338095D01*
X116474761Y-106385714D01*
X116522380Y-106480952D01*
X116522380Y-106719047D01*
X116474761Y-106814285D01*
X116427142Y-106861904D01*
X116522380Y-105338095D02*
X116522380Y-105909523D01*
X116522380Y-105623809D02*
X115522380Y-105623809D01*
X115665238Y-105719047D01*
X115760476Y-105814285D01*
X115808095Y-105909523D01*
D14*
X117680952Y-106357142D02*
X117490476Y-106490476D01*
X117680952Y-106585714D02*
X117280952Y-106585714D01*
X117280952Y-106433333D01*
X117300000Y-106395238D01*
X117319047Y-106376190D01*
X117357142Y-106357142D01*
X117414285Y-106357142D01*
X117452380Y-106376190D01*
X117471428Y-106395238D01*
X117490476Y-106433333D01*
X117490476Y-106585714D01*
X117319047Y-106204761D02*
X117300000Y-106185714D01*
X117280952Y-106147619D01*
X117280952Y-106052380D01*
X117300000Y-106014285D01*
X117319047Y-105995238D01*
X117357142Y-105976190D01*
X117395238Y-105976190D01*
X117452380Y-105995238D01*
X117680952Y-106223809D01*
X117680952Y-105976190D01*
X117680952Y-105595238D02*
X117680952Y-105823809D01*
X117680952Y-105709523D02*
X117280952Y-105709523D01*
X117338095Y-105747619D01*
X117376190Y-105785714D01*
X117395238Y-105823809D01*
D11*
X145082380Y-115629047D02*
X145082380Y-116200476D01*
X145082380Y-115914761D02*
X144082380Y-115914761D01*
X144225238Y-116010000D01*
X144320476Y-116105238D01*
X144368095Y-116200476D01*
X145082380Y-115200476D02*
X144082380Y-115200476D01*
X144701428Y-115105238D02*
X145082380Y-114819523D01*
X144415714Y-114819523D02*
X144796666Y-115200476D01*
X141432380Y-115345238D02*
X140956190Y-115678571D01*
X141432380Y-115916666D02*
X140432380Y-115916666D01*
X140432380Y-115535714D01*
X140480000Y-115440476D01*
X140527619Y-115392857D01*
X140622857Y-115345238D01*
X140765714Y-115345238D01*
X140860952Y-115392857D01*
X140908571Y-115440476D01*
X140956190Y-115535714D01*
X140956190Y-115916666D01*
X140432380Y-115059523D02*
X141432380Y-114726190D01*
X140432380Y-114392857D01*
X141432380Y-113535714D02*
X141432380Y-114107142D01*
X141432380Y-113821428D02*
X140432380Y-113821428D01*
X140575238Y-113916666D01*
X140670476Y-114011904D01*
X140718095Y-114107142D01*
X134077380Y-88833571D02*
X134077380Y-89309761D01*
X133077380Y-89309761D01*
X133077380Y-88643095D02*
X133077380Y-88071666D01*
X134077380Y-88357380D02*
X133077380Y-88357380D01*
X133077380Y-87833571D02*
X133077380Y-87214523D01*
X133458333Y-87547857D01*
X133458333Y-87405000D01*
X133505952Y-87309761D01*
X133553571Y-87262142D01*
X133648809Y-87214523D01*
X133886904Y-87214523D01*
X133982142Y-87262142D01*
X134029761Y-87309761D01*
X134077380Y-87405000D01*
X134077380Y-87690714D01*
X134029761Y-87785952D01*
X133982142Y-87833571D01*
X133077380Y-86595476D02*
X133077380Y-86500238D01*
X133125000Y-86405000D01*
X133172619Y-86357380D01*
X133267857Y-86309761D01*
X133458333Y-86262142D01*
X133696428Y-86262142D01*
X133886904Y-86309761D01*
X133982142Y-86357380D01*
X134029761Y-86405000D01*
X134077380Y-86500238D01*
X134077380Y-86595476D01*
X134029761Y-86690714D01*
X133982142Y-86738333D01*
X133886904Y-86785952D01*
X133696428Y-86833571D01*
X133458333Y-86833571D01*
X133267857Y-86785952D01*
X133172619Y-86738333D01*
X133125000Y-86690714D01*
X133077380Y-86595476D01*
X133410714Y-85405000D02*
X134077380Y-85405000D01*
X133029761Y-85643095D02*
X133744047Y-85881190D01*
X133744047Y-85262142D01*
X133077380Y-84405000D02*
X133077380Y-84881190D01*
X133553571Y-84928809D01*
X133505952Y-84881190D01*
X133458333Y-84785952D01*
X133458333Y-84547857D01*
X133505952Y-84452619D01*
X133553571Y-84405000D01*
X133648809Y-84357380D01*
X133886904Y-84357380D01*
X133982142Y-84405000D01*
X134029761Y-84452619D01*
X134077380Y-84547857D01*
X134077380Y-84785952D01*
X134029761Y-84881190D01*
X133982142Y-84928809D01*
X133553571Y-83928809D02*
X133553571Y-83595476D01*
X134077380Y-83452619D02*
X134077380Y-83928809D01*
X133077380Y-83928809D01*
X133077380Y-83452619D01*
X134077380Y-83024047D02*
X133077380Y-83024047D01*
X133791666Y-82690714D01*
X133077380Y-82357380D01*
X134077380Y-82357380D01*
X134029761Y-81928809D02*
X134077380Y-81785952D01*
X134077380Y-81547857D01*
X134029761Y-81452619D01*
X133982142Y-81405000D01*
X133886904Y-81357380D01*
X133791666Y-81357380D01*
X133696428Y-81405000D01*
X133648809Y-81452619D01*
X133601190Y-81547857D01*
X133553571Y-81738333D01*
X133505952Y-81833571D01*
X133458333Y-81881190D01*
X133363095Y-81928809D01*
X133267857Y-81928809D01*
X133172619Y-81881190D01*
X133125000Y-81833571D01*
X133077380Y-81738333D01*
X133077380Y-81500238D01*
X133125000Y-81357380D01*
X133553571Y-80928809D02*
X133553571Y-80595476D01*
X134077380Y-80452619D02*
X134077380Y-80928809D01*
X133077380Y-80928809D01*
X133077380Y-80452619D01*
D15*
X136164285Y-85476428D02*
X136771428Y-85476428D01*
X136842857Y-85440714D01*
X136878571Y-85405000D01*
X136914285Y-85333571D01*
X136914285Y-85190714D01*
X136878571Y-85119285D01*
X136842857Y-85083571D01*
X136771428Y-85047857D01*
X136164285Y-85047857D01*
X136235714Y-84726428D02*
X136200000Y-84690714D01*
X136164285Y-84619285D01*
X136164285Y-84440714D01*
X136200000Y-84369285D01*
X136235714Y-84333571D01*
X136307142Y-84297857D01*
X136378571Y-84297857D01*
X136485714Y-84333571D01*
X136914285Y-84762142D01*
X136914285Y-84297857D01*
D11*
X128177380Y-88923571D02*
X128177380Y-89399761D01*
X127177380Y-89399761D01*
X127177380Y-88733095D02*
X127177380Y-88161666D01*
X128177380Y-88447380D02*
X127177380Y-88447380D01*
X127177380Y-87923571D02*
X127177380Y-87304523D01*
X127558333Y-87637857D01*
X127558333Y-87495000D01*
X127605952Y-87399761D01*
X127653571Y-87352142D01*
X127748809Y-87304523D01*
X127986904Y-87304523D01*
X128082142Y-87352142D01*
X128129761Y-87399761D01*
X128177380Y-87495000D01*
X128177380Y-87780714D01*
X128129761Y-87875952D01*
X128082142Y-87923571D01*
X127177380Y-86685476D02*
X127177380Y-86590238D01*
X127225000Y-86495000D01*
X127272619Y-86447380D01*
X127367857Y-86399761D01*
X127558333Y-86352142D01*
X127796428Y-86352142D01*
X127986904Y-86399761D01*
X128082142Y-86447380D01*
X128129761Y-86495000D01*
X128177380Y-86590238D01*
X128177380Y-86685476D01*
X128129761Y-86780714D01*
X128082142Y-86828333D01*
X127986904Y-86875952D01*
X127796428Y-86923571D01*
X127558333Y-86923571D01*
X127367857Y-86875952D01*
X127272619Y-86828333D01*
X127225000Y-86780714D01*
X127177380Y-86685476D01*
X128177380Y-85875952D02*
X128177380Y-85685476D01*
X128129761Y-85590238D01*
X128082142Y-85542619D01*
X127939285Y-85447380D01*
X127748809Y-85399761D01*
X127367857Y-85399761D01*
X127272619Y-85447380D01*
X127225000Y-85495000D01*
X127177380Y-85590238D01*
X127177380Y-85780714D01*
X127225000Y-85875952D01*
X127272619Y-85923571D01*
X127367857Y-85971190D01*
X127605952Y-85971190D01*
X127701190Y-85923571D01*
X127748809Y-85875952D01*
X127796428Y-85780714D01*
X127796428Y-85590238D01*
X127748809Y-85495000D01*
X127701190Y-85447380D01*
X127605952Y-85399761D01*
X127510714Y-84542619D02*
X128177380Y-84542619D01*
X127129761Y-84780714D02*
X127844047Y-85018809D01*
X127844047Y-84399761D01*
X127653571Y-84018809D02*
X127653571Y-83685476D01*
X128177380Y-83542619D02*
X128177380Y-84018809D01*
X127177380Y-84018809D01*
X127177380Y-83542619D01*
X128177380Y-83114047D02*
X127177380Y-83114047D01*
X127891666Y-82780714D01*
X127177380Y-82447380D01*
X128177380Y-82447380D01*
X128129761Y-82018809D02*
X128177380Y-81875952D01*
X128177380Y-81637857D01*
X128129761Y-81542619D01*
X128082142Y-81495000D01*
X127986904Y-81447380D01*
X127891666Y-81447380D01*
X127796428Y-81495000D01*
X127748809Y-81542619D01*
X127701190Y-81637857D01*
X127653571Y-81828333D01*
X127605952Y-81923571D01*
X127558333Y-81971190D01*
X127463095Y-82018809D01*
X127367857Y-82018809D01*
X127272619Y-81971190D01*
X127225000Y-81923571D01*
X127177380Y-81828333D01*
X127177380Y-81590238D01*
X127225000Y-81447380D01*
X127653571Y-81018809D02*
X127653571Y-80685476D01*
X128177380Y-80542619D02*
X128177380Y-81018809D01*
X127177380Y-81018809D01*
X127177380Y-80542619D01*
D15*
X130264285Y-85566428D02*
X130871428Y-85566428D01*
X130942857Y-85530714D01*
X130978571Y-85495000D01*
X131014285Y-85423571D01*
X131014285Y-85280714D01*
X130978571Y-85209285D01*
X130942857Y-85173571D01*
X130871428Y-85137857D01*
X130264285Y-85137857D01*
X130264285Y-84852142D02*
X130264285Y-84387857D01*
X130550000Y-84637857D01*
X130550000Y-84530714D01*
X130585714Y-84459285D01*
X130621428Y-84423571D01*
X130692857Y-84387857D01*
X130871428Y-84387857D01*
X130942857Y-84423571D01*
X130978571Y-84459285D01*
X131014285Y-84530714D01*
X131014285Y-84745000D01*
X130978571Y-84816428D01*
X130942857Y-84852142D01*
D11*
X102828571Y-79252380D02*
X102828571Y-78252380D01*
X103161904Y-78966666D01*
X103495238Y-78252380D01*
X103495238Y-79252380D01*
X104114285Y-79252380D02*
X104019047Y-79204761D01*
X103971428Y-79157142D01*
X103923809Y-79061904D01*
X103923809Y-78776190D01*
X103971428Y-78680952D01*
X104019047Y-78633333D01*
X104114285Y-78585714D01*
X104257142Y-78585714D01*
X104352380Y-78633333D01*
X104400000Y-78680952D01*
X104447619Y-78776190D01*
X104447619Y-79061904D01*
X104400000Y-79157142D01*
X104352380Y-79204761D01*
X104257142Y-79252380D01*
X104114285Y-79252380D01*
X105304761Y-78585714D02*
X105304761Y-79252380D01*
X104876190Y-78585714D02*
X104876190Y-79109523D01*
X104923809Y-79204761D01*
X105019047Y-79252380D01*
X105161904Y-79252380D01*
X105257142Y-79204761D01*
X105304761Y-79157142D01*
X105780952Y-78585714D02*
X105780952Y-79252380D01*
X105780952Y-78680952D02*
X105828571Y-78633333D01*
X105923809Y-78585714D01*
X106066666Y-78585714D01*
X106161904Y-78633333D01*
X106209523Y-78728571D01*
X106209523Y-79252380D01*
X106542857Y-78585714D02*
X106923809Y-78585714D01*
X106685714Y-78252380D02*
X106685714Y-79109523D01*
X106733333Y-79204761D01*
X106828571Y-79252380D01*
X106923809Y-79252380D01*
X107257142Y-79252380D02*
X107257142Y-78585714D01*
X107257142Y-78252380D02*
X107209523Y-78300000D01*
X107257142Y-78347619D01*
X107304761Y-78300000D01*
X107257142Y-78252380D01*
X107257142Y-78347619D01*
X107733333Y-78585714D02*
X107733333Y-79252380D01*
X107733333Y-78680952D02*
X107780952Y-78633333D01*
X107876190Y-78585714D01*
X108019047Y-78585714D01*
X108114285Y-78633333D01*
X108161904Y-78728571D01*
X108161904Y-79252380D01*
X109066666Y-78585714D02*
X109066666Y-79395238D01*
X109019047Y-79490476D01*
X108971428Y-79538095D01*
X108876190Y-79585714D01*
X108733333Y-79585714D01*
X108638095Y-79538095D01*
X109066666Y-79204761D02*
X108971428Y-79252380D01*
X108780952Y-79252380D01*
X108685714Y-79204761D01*
X108638095Y-79157142D01*
X108590476Y-79061904D01*
X108590476Y-78776190D01*
X108638095Y-78680952D01*
X108685714Y-78633333D01*
X108780952Y-78585714D01*
X108971428Y-78585714D01*
X109066666Y-78633333D01*
X109542857Y-79252380D02*
X109542857Y-78252380D01*
X109542857Y-78728571D02*
X110114285Y-78728571D01*
X110114285Y-79252380D02*
X110114285Y-78252380D01*
X110733333Y-79252380D02*
X110638095Y-79204761D01*
X110590476Y-79157142D01*
X110542857Y-79061904D01*
X110542857Y-78776190D01*
X110590476Y-78680952D01*
X110638095Y-78633333D01*
X110733333Y-78585714D01*
X110876190Y-78585714D01*
X110971428Y-78633333D01*
X111019047Y-78680952D01*
X111066666Y-78776190D01*
X111066666Y-79061904D01*
X111019047Y-79157142D01*
X110971428Y-79204761D01*
X110876190Y-79252380D01*
X110733333Y-79252380D01*
X111638095Y-79252380D02*
X111542857Y-79204761D01*
X111495238Y-79109523D01*
X111495238Y-78252380D01*
X112400000Y-79204761D02*
X112304761Y-79252380D01*
X112114285Y-79252380D01*
X112019047Y-79204761D01*
X111971428Y-79109523D01*
X111971428Y-78728571D01*
X112019047Y-78633333D01*
X112114285Y-78585714D01*
X112304761Y-78585714D01*
X112400000Y-78633333D01*
X112447619Y-78728571D01*
X112447619Y-78823809D01*
X111971428Y-78919047D01*
X112638095Y-79347619D02*
X113400000Y-79347619D01*
X113638095Y-79252380D02*
X113638095Y-78252380D01*
X114019047Y-78252380D01*
X114114285Y-78300000D01*
X114161904Y-78347619D01*
X114209523Y-78442857D01*
X114209523Y-78585714D01*
X114161904Y-78680952D01*
X114114285Y-78728571D01*
X114019047Y-78776190D01*
X113638095Y-78776190D01*
X115066666Y-79252380D02*
X115066666Y-78728571D01*
X115019047Y-78633333D01*
X114923809Y-78585714D01*
X114733333Y-78585714D01*
X114638095Y-78633333D01*
X115066666Y-79204761D02*
X114971428Y-79252380D01*
X114733333Y-79252380D01*
X114638095Y-79204761D01*
X114590476Y-79109523D01*
X114590476Y-79014285D01*
X114638095Y-78919047D01*
X114733333Y-78871428D01*
X114971428Y-78871428D01*
X115066666Y-78823809D01*
X115971428Y-79252380D02*
X115971428Y-78252380D01*
X115971428Y-79204761D02*
X115876190Y-79252380D01*
X115685714Y-79252380D01*
X115590476Y-79204761D01*
X115542857Y-79157142D01*
X115495238Y-79061904D01*
X115495238Y-78776190D01*
X115542857Y-78680952D01*
X115590476Y-78633333D01*
X115685714Y-78585714D01*
X115876190Y-78585714D01*
X115971428Y-78633333D01*
X108938095Y-73952380D02*
X108938095Y-72952380D01*
X108938095Y-73428571D02*
X109509523Y-73428571D01*
X109509523Y-73952380D02*
X109509523Y-72952380D01*
X110509523Y-73952380D02*
X109938095Y-73952380D01*
X110223809Y-73952380D02*
X110223809Y-72952380D01*
X110128571Y-73095238D01*
X110033333Y-73190476D01*
X109938095Y-73238095D01*
X181128571Y-79252380D02*
X181128571Y-78252380D01*
X181461904Y-78966666D01*
X181795238Y-78252380D01*
X181795238Y-79252380D01*
X182414285Y-79252380D02*
X182319047Y-79204761D01*
X182271428Y-79157142D01*
X182223809Y-79061904D01*
X182223809Y-78776190D01*
X182271428Y-78680952D01*
X182319047Y-78633333D01*
X182414285Y-78585714D01*
X182557142Y-78585714D01*
X182652380Y-78633333D01*
X182700000Y-78680952D01*
X182747619Y-78776190D01*
X182747619Y-79061904D01*
X182700000Y-79157142D01*
X182652380Y-79204761D01*
X182557142Y-79252380D01*
X182414285Y-79252380D01*
X183604761Y-78585714D02*
X183604761Y-79252380D01*
X183176190Y-78585714D02*
X183176190Y-79109523D01*
X183223809Y-79204761D01*
X183319047Y-79252380D01*
X183461904Y-79252380D01*
X183557142Y-79204761D01*
X183604761Y-79157142D01*
X184080952Y-78585714D02*
X184080952Y-79252380D01*
X184080952Y-78680952D02*
X184128571Y-78633333D01*
X184223809Y-78585714D01*
X184366666Y-78585714D01*
X184461904Y-78633333D01*
X184509523Y-78728571D01*
X184509523Y-79252380D01*
X184842857Y-78585714D02*
X185223809Y-78585714D01*
X184985714Y-78252380D02*
X184985714Y-79109523D01*
X185033333Y-79204761D01*
X185128571Y-79252380D01*
X185223809Y-79252380D01*
X185557142Y-79252380D02*
X185557142Y-78585714D01*
X185557142Y-78252380D02*
X185509523Y-78300000D01*
X185557142Y-78347619D01*
X185604761Y-78300000D01*
X185557142Y-78252380D01*
X185557142Y-78347619D01*
X186033333Y-78585714D02*
X186033333Y-79252380D01*
X186033333Y-78680952D02*
X186080952Y-78633333D01*
X186176190Y-78585714D01*
X186319047Y-78585714D01*
X186414285Y-78633333D01*
X186461904Y-78728571D01*
X186461904Y-79252380D01*
X187366666Y-78585714D02*
X187366666Y-79395238D01*
X187319047Y-79490476D01*
X187271428Y-79538095D01*
X187176190Y-79585714D01*
X187033333Y-79585714D01*
X186938095Y-79538095D01*
X187366666Y-79204761D02*
X187271428Y-79252380D01*
X187080952Y-79252380D01*
X186985714Y-79204761D01*
X186938095Y-79157142D01*
X186890476Y-79061904D01*
X186890476Y-78776190D01*
X186938095Y-78680952D01*
X186985714Y-78633333D01*
X187080952Y-78585714D01*
X187271428Y-78585714D01*
X187366666Y-78633333D01*
X187842857Y-79252380D02*
X187842857Y-78252380D01*
X187842857Y-78728571D02*
X188414285Y-78728571D01*
X188414285Y-79252380D02*
X188414285Y-78252380D01*
X189033333Y-79252380D02*
X188938095Y-79204761D01*
X188890476Y-79157142D01*
X188842857Y-79061904D01*
X188842857Y-78776190D01*
X188890476Y-78680952D01*
X188938095Y-78633333D01*
X189033333Y-78585714D01*
X189176190Y-78585714D01*
X189271428Y-78633333D01*
X189319047Y-78680952D01*
X189366666Y-78776190D01*
X189366666Y-79061904D01*
X189319047Y-79157142D01*
X189271428Y-79204761D01*
X189176190Y-79252380D01*
X189033333Y-79252380D01*
X189938095Y-79252380D02*
X189842857Y-79204761D01*
X189795238Y-79109523D01*
X189795238Y-78252380D01*
X190700000Y-79204761D02*
X190604761Y-79252380D01*
X190414285Y-79252380D01*
X190319047Y-79204761D01*
X190271428Y-79109523D01*
X190271428Y-78728571D01*
X190319047Y-78633333D01*
X190414285Y-78585714D01*
X190604761Y-78585714D01*
X190700000Y-78633333D01*
X190747619Y-78728571D01*
X190747619Y-78823809D01*
X190271428Y-78919047D01*
X190938095Y-79347619D02*
X191700000Y-79347619D01*
X191938095Y-79252380D02*
X191938095Y-78252380D01*
X192319047Y-78252380D01*
X192414285Y-78300000D01*
X192461904Y-78347619D01*
X192509523Y-78442857D01*
X192509523Y-78585714D01*
X192461904Y-78680952D01*
X192414285Y-78728571D01*
X192319047Y-78776190D01*
X191938095Y-78776190D01*
X193366666Y-79252380D02*
X193366666Y-78728571D01*
X193319047Y-78633333D01*
X193223809Y-78585714D01*
X193033333Y-78585714D01*
X192938095Y-78633333D01*
X193366666Y-79204761D02*
X193271428Y-79252380D01*
X193033333Y-79252380D01*
X192938095Y-79204761D01*
X192890476Y-79109523D01*
X192890476Y-79014285D01*
X192938095Y-78919047D01*
X193033333Y-78871428D01*
X193271428Y-78871428D01*
X193366666Y-78823809D01*
X194271428Y-79252380D02*
X194271428Y-78252380D01*
X194271428Y-79204761D02*
X194176190Y-79252380D01*
X193985714Y-79252380D01*
X193890476Y-79204761D01*
X193842857Y-79157142D01*
X193795238Y-79061904D01*
X193795238Y-78776190D01*
X193842857Y-78680952D01*
X193890476Y-78633333D01*
X193985714Y-78585714D01*
X194176190Y-78585714D01*
X194271428Y-78633333D01*
X187238095Y-73952380D02*
X187238095Y-72952380D01*
X187238095Y-73428571D02*
X187809523Y-73428571D01*
X187809523Y-73952380D02*
X187809523Y-72952380D01*
X188238095Y-73047619D02*
X188285714Y-73000000D01*
X188380952Y-72952380D01*
X188619047Y-72952380D01*
X188714285Y-73000000D01*
X188761904Y-73047619D01*
X188809523Y-73142857D01*
X188809523Y-73238095D01*
X188761904Y-73380952D01*
X188190476Y-73952380D01*
X188809523Y-73952380D01*
X180828571Y-127352380D02*
X180828571Y-126352380D01*
X181161904Y-127066666D01*
X181495238Y-126352380D01*
X181495238Y-127352380D01*
X182114285Y-127352380D02*
X182019047Y-127304761D01*
X181971428Y-127257142D01*
X181923809Y-127161904D01*
X181923809Y-126876190D01*
X181971428Y-126780952D01*
X182019047Y-126733333D01*
X182114285Y-126685714D01*
X182257142Y-126685714D01*
X182352380Y-126733333D01*
X182400000Y-126780952D01*
X182447619Y-126876190D01*
X182447619Y-127161904D01*
X182400000Y-127257142D01*
X182352380Y-127304761D01*
X182257142Y-127352380D01*
X182114285Y-127352380D01*
X183304761Y-126685714D02*
X183304761Y-127352380D01*
X182876190Y-126685714D02*
X182876190Y-127209523D01*
X182923809Y-127304761D01*
X183019047Y-127352380D01*
X183161904Y-127352380D01*
X183257142Y-127304761D01*
X183304761Y-127257142D01*
X183780952Y-126685714D02*
X183780952Y-127352380D01*
X183780952Y-126780952D02*
X183828571Y-126733333D01*
X183923809Y-126685714D01*
X184066666Y-126685714D01*
X184161904Y-126733333D01*
X184209523Y-126828571D01*
X184209523Y-127352380D01*
X184542857Y-126685714D02*
X184923809Y-126685714D01*
X184685714Y-126352380D02*
X184685714Y-127209523D01*
X184733333Y-127304761D01*
X184828571Y-127352380D01*
X184923809Y-127352380D01*
X185257142Y-127352380D02*
X185257142Y-126685714D01*
X185257142Y-126352380D02*
X185209523Y-126400000D01*
X185257142Y-126447619D01*
X185304761Y-126400000D01*
X185257142Y-126352380D01*
X185257142Y-126447619D01*
X185733333Y-126685714D02*
X185733333Y-127352380D01*
X185733333Y-126780952D02*
X185780952Y-126733333D01*
X185876190Y-126685714D01*
X186019047Y-126685714D01*
X186114285Y-126733333D01*
X186161904Y-126828571D01*
X186161904Y-127352380D01*
X187066666Y-126685714D02*
X187066666Y-127495238D01*
X187019047Y-127590476D01*
X186971428Y-127638095D01*
X186876190Y-127685714D01*
X186733333Y-127685714D01*
X186638095Y-127638095D01*
X187066666Y-127304761D02*
X186971428Y-127352380D01*
X186780952Y-127352380D01*
X186685714Y-127304761D01*
X186638095Y-127257142D01*
X186590476Y-127161904D01*
X186590476Y-126876190D01*
X186638095Y-126780952D01*
X186685714Y-126733333D01*
X186780952Y-126685714D01*
X186971428Y-126685714D01*
X187066666Y-126733333D01*
X187542857Y-127352380D02*
X187542857Y-126352380D01*
X187542857Y-126828571D02*
X188114285Y-126828571D01*
X188114285Y-127352380D02*
X188114285Y-126352380D01*
X188733333Y-127352380D02*
X188638095Y-127304761D01*
X188590476Y-127257142D01*
X188542857Y-127161904D01*
X188542857Y-126876190D01*
X188590476Y-126780952D01*
X188638095Y-126733333D01*
X188733333Y-126685714D01*
X188876190Y-126685714D01*
X188971428Y-126733333D01*
X189019047Y-126780952D01*
X189066666Y-126876190D01*
X189066666Y-127161904D01*
X189019047Y-127257142D01*
X188971428Y-127304761D01*
X188876190Y-127352380D01*
X188733333Y-127352380D01*
X189638095Y-127352380D02*
X189542857Y-127304761D01*
X189495238Y-127209523D01*
X189495238Y-126352380D01*
X190400000Y-127304761D02*
X190304761Y-127352380D01*
X190114285Y-127352380D01*
X190019047Y-127304761D01*
X189971428Y-127209523D01*
X189971428Y-126828571D01*
X190019047Y-126733333D01*
X190114285Y-126685714D01*
X190304761Y-126685714D01*
X190400000Y-126733333D01*
X190447619Y-126828571D01*
X190447619Y-126923809D01*
X189971428Y-127019047D01*
X190638095Y-127447619D02*
X191400000Y-127447619D01*
X191638095Y-127352380D02*
X191638095Y-126352380D01*
X192019047Y-126352380D01*
X192114285Y-126400000D01*
X192161904Y-126447619D01*
X192209523Y-126542857D01*
X192209523Y-126685714D01*
X192161904Y-126780952D01*
X192114285Y-126828571D01*
X192019047Y-126876190D01*
X191638095Y-126876190D01*
X193066666Y-127352380D02*
X193066666Y-126828571D01*
X193019047Y-126733333D01*
X192923809Y-126685714D01*
X192733333Y-126685714D01*
X192638095Y-126733333D01*
X193066666Y-127304761D02*
X192971428Y-127352380D01*
X192733333Y-127352380D01*
X192638095Y-127304761D01*
X192590476Y-127209523D01*
X192590476Y-127114285D01*
X192638095Y-127019047D01*
X192733333Y-126971428D01*
X192971428Y-126971428D01*
X193066666Y-126923809D01*
X193971428Y-127352380D02*
X193971428Y-126352380D01*
X193971428Y-127304761D02*
X193876190Y-127352380D01*
X193685714Y-127352380D01*
X193590476Y-127304761D01*
X193542857Y-127257142D01*
X193495238Y-127161904D01*
X193495238Y-126876190D01*
X193542857Y-126780952D01*
X193590476Y-126733333D01*
X193685714Y-126685714D01*
X193876190Y-126685714D01*
X193971428Y-126733333D01*
X186938095Y-122052380D02*
X186938095Y-121052380D01*
X186938095Y-121528571D02*
X187509523Y-121528571D01*
X187509523Y-122052380D02*
X187509523Y-121052380D01*
X187890476Y-121052380D02*
X188509523Y-121052380D01*
X188176190Y-121433333D01*
X188319047Y-121433333D01*
X188414285Y-121480952D01*
X188461904Y-121528571D01*
X188509523Y-121623809D01*
X188509523Y-121861904D01*
X188461904Y-121957142D01*
X188414285Y-122004761D01*
X188319047Y-122052380D01*
X188033333Y-122052380D01*
X187938095Y-122004761D01*
X187890476Y-121957142D01*
X102828571Y-127252380D02*
X102828571Y-126252380D01*
X103161904Y-126966666D01*
X103495238Y-126252380D01*
X103495238Y-127252380D01*
X104114285Y-127252380D02*
X104019047Y-127204761D01*
X103971428Y-127157142D01*
X103923809Y-127061904D01*
X103923809Y-126776190D01*
X103971428Y-126680952D01*
X104019047Y-126633333D01*
X104114285Y-126585714D01*
X104257142Y-126585714D01*
X104352380Y-126633333D01*
X104400000Y-126680952D01*
X104447619Y-126776190D01*
X104447619Y-127061904D01*
X104400000Y-127157142D01*
X104352380Y-127204761D01*
X104257142Y-127252380D01*
X104114285Y-127252380D01*
X105304761Y-126585714D02*
X105304761Y-127252380D01*
X104876190Y-126585714D02*
X104876190Y-127109523D01*
X104923809Y-127204761D01*
X105019047Y-127252380D01*
X105161904Y-127252380D01*
X105257142Y-127204761D01*
X105304761Y-127157142D01*
X105780952Y-126585714D02*
X105780952Y-127252380D01*
X105780952Y-126680952D02*
X105828571Y-126633333D01*
X105923809Y-126585714D01*
X106066666Y-126585714D01*
X106161904Y-126633333D01*
X106209523Y-126728571D01*
X106209523Y-127252380D01*
X106542857Y-126585714D02*
X106923809Y-126585714D01*
X106685714Y-126252380D02*
X106685714Y-127109523D01*
X106733333Y-127204761D01*
X106828571Y-127252380D01*
X106923809Y-127252380D01*
X107257142Y-127252380D02*
X107257142Y-126585714D01*
X107257142Y-126252380D02*
X107209523Y-126300000D01*
X107257142Y-126347619D01*
X107304761Y-126300000D01*
X107257142Y-126252380D01*
X107257142Y-126347619D01*
X107733333Y-126585714D02*
X107733333Y-127252380D01*
X107733333Y-126680952D02*
X107780952Y-126633333D01*
X107876190Y-126585714D01*
X108019047Y-126585714D01*
X108114285Y-126633333D01*
X108161904Y-126728571D01*
X108161904Y-127252380D01*
X109066666Y-126585714D02*
X109066666Y-127395238D01*
X109019047Y-127490476D01*
X108971428Y-127538095D01*
X108876190Y-127585714D01*
X108733333Y-127585714D01*
X108638095Y-127538095D01*
X109066666Y-127204761D02*
X108971428Y-127252380D01*
X108780952Y-127252380D01*
X108685714Y-127204761D01*
X108638095Y-127157142D01*
X108590476Y-127061904D01*
X108590476Y-126776190D01*
X108638095Y-126680952D01*
X108685714Y-126633333D01*
X108780952Y-126585714D01*
X108971428Y-126585714D01*
X109066666Y-126633333D01*
X109542857Y-127252380D02*
X109542857Y-126252380D01*
X109542857Y-126728571D02*
X110114285Y-126728571D01*
X110114285Y-127252380D02*
X110114285Y-126252380D01*
X110733333Y-127252380D02*
X110638095Y-127204761D01*
X110590476Y-127157142D01*
X110542857Y-127061904D01*
X110542857Y-126776190D01*
X110590476Y-126680952D01*
X110638095Y-126633333D01*
X110733333Y-126585714D01*
X110876190Y-126585714D01*
X110971428Y-126633333D01*
X111019047Y-126680952D01*
X111066666Y-126776190D01*
X111066666Y-127061904D01*
X111019047Y-127157142D01*
X110971428Y-127204761D01*
X110876190Y-127252380D01*
X110733333Y-127252380D01*
X111638095Y-127252380D02*
X111542857Y-127204761D01*
X111495238Y-127109523D01*
X111495238Y-126252380D01*
X112400000Y-127204761D02*
X112304761Y-127252380D01*
X112114285Y-127252380D01*
X112019047Y-127204761D01*
X111971428Y-127109523D01*
X111971428Y-126728571D01*
X112019047Y-126633333D01*
X112114285Y-126585714D01*
X112304761Y-126585714D01*
X112400000Y-126633333D01*
X112447619Y-126728571D01*
X112447619Y-126823809D01*
X111971428Y-126919047D01*
X112638095Y-127347619D02*
X113400000Y-127347619D01*
X113638095Y-127252380D02*
X113638095Y-126252380D01*
X114019047Y-126252380D01*
X114114285Y-126300000D01*
X114161904Y-126347619D01*
X114209523Y-126442857D01*
X114209523Y-126585714D01*
X114161904Y-126680952D01*
X114114285Y-126728571D01*
X114019047Y-126776190D01*
X113638095Y-126776190D01*
X115066666Y-127252380D02*
X115066666Y-126728571D01*
X115019047Y-126633333D01*
X114923809Y-126585714D01*
X114733333Y-126585714D01*
X114638095Y-126633333D01*
X115066666Y-127204761D02*
X114971428Y-127252380D01*
X114733333Y-127252380D01*
X114638095Y-127204761D01*
X114590476Y-127109523D01*
X114590476Y-127014285D01*
X114638095Y-126919047D01*
X114733333Y-126871428D01*
X114971428Y-126871428D01*
X115066666Y-126823809D01*
X115971428Y-127252380D02*
X115971428Y-126252380D01*
X115971428Y-127204761D02*
X115876190Y-127252380D01*
X115685714Y-127252380D01*
X115590476Y-127204761D01*
X115542857Y-127157142D01*
X115495238Y-127061904D01*
X115495238Y-126776190D01*
X115542857Y-126680952D01*
X115590476Y-126633333D01*
X115685714Y-126585714D01*
X115876190Y-126585714D01*
X115971428Y-126633333D01*
X108938095Y-121952380D02*
X108938095Y-120952380D01*
X108938095Y-121428571D02*
X109509523Y-121428571D01*
X109509523Y-121952380D02*
X109509523Y-120952380D01*
X110414285Y-121285714D02*
X110414285Y-121952380D01*
X110176190Y-120904761D02*
X109938095Y-121619047D01*
X110557142Y-121619047D01*
X164761904Y-96669880D02*
X164761904Y-95669880D01*
X164761904Y-96146071D02*
X165333333Y-96146071D01*
X165333333Y-96669880D02*
X165333333Y-95669880D01*
X165809523Y-96669880D02*
X165809523Y-95669880D01*
X166142857Y-96384166D01*
X166476190Y-95669880D01*
X166476190Y-96669880D01*
X167523809Y-96574642D02*
X167476190Y-96622261D01*
X167333333Y-96669880D01*
X167238095Y-96669880D01*
X167095238Y-96622261D01*
X167000000Y-96527023D01*
X166952380Y-96431785D01*
X166904761Y-96241309D01*
X166904761Y-96098452D01*
X166952380Y-95907976D01*
X167000000Y-95812738D01*
X167095238Y-95717500D01*
X167238095Y-95669880D01*
X167333333Y-95669880D01*
X167476190Y-95717500D01*
X167523809Y-95765119D01*
X168380952Y-96003214D02*
X168380952Y-96669880D01*
X168142857Y-95622261D02*
X167904761Y-96336547D01*
X168523809Y-96336547D01*
X168809523Y-95669880D02*
X169428571Y-95669880D01*
X169095238Y-96050833D01*
X169238095Y-96050833D01*
X169333333Y-96098452D01*
X169380952Y-96146071D01*
X169428571Y-96241309D01*
X169428571Y-96479404D01*
X169380952Y-96574642D01*
X169333333Y-96622261D01*
X169238095Y-96669880D01*
X168952380Y-96669880D01*
X168857142Y-96622261D01*
X168809523Y-96574642D01*
X169904761Y-96669880D02*
X170095238Y-96669880D01*
X170190476Y-96622261D01*
X170238095Y-96574642D01*
X170333333Y-96431785D01*
X170380952Y-96241309D01*
X170380952Y-95860357D01*
X170333333Y-95765119D01*
X170285714Y-95717500D01*
X170190476Y-95669880D01*
X170000000Y-95669880D01*
X169904761Y-95717500D01*
X169857142Y-95765119D01*
X169809523Y-95860357D01*
X169809523Y-96098452D01*
X169857142Y-96193690D01*
X169904761Y-96241309D01*
X170000000Y-96288928D01*
X170190476Y-96288928D01*
X170285714Y-96241309D01*
X170333333Y-96193690D01*
X170380952Y-96098452D01*
X171476190Y-96765119D02*
X171380952Y-96717500D01*
X171285714Y-96622261D01*
X171142857Y-96479404D01*
X171047619Y-96431785D01*
X170952380Y-96431785D01*
X171000000Y-96669880D02*
X170904761Y-96622261D01*
X170809523Y-96527023D01*
X170761904Y-96336547D01*
X170761904Y-96003214D01*
X170809523Y-95812738D01*
X170904761Y-95717500D01*
X171000000Y-95669880D01*
X171190476Y-95669880D01*
X171285714Y-95717500D01*
X171380952Y-95812738D01*
X171428571Y-96003214D01*
X171428571Y-96336547D01*
X171380952Y-96527023D01*
X171285714Y-96622261D01*
X171190476Y-96669880D01*
X171000000Y-96669880D01*
X171809523Y-96622261D02*
X171952380Y-96669880D01*
X172190476Y-96669880D01*
X172285714Y-96622261D01*
X172333333Y-96574642D01*
X172380952Y-96479404D01*
X172380952Y-96384166D01*
X172333333Y-96288928D01*
X172285714Y-96241309D01*
X172190476Y-96193690D01*
X172000000Y-96146071D01*
X171904761Y-96098452D01*
X171857142Y-96050833D01*
X171809523Y-95955595D01*
X171809523Y-95860357D01*
X171857142Y-95765119D01*
X171904761Y-95717500D01*
X172000000Y-95669880D01*
X172238095Y-95669880D01*
X172380952Y-95717500D01*
X173333333Y-96669880D02*
X172761904Y-96669880D01*
X173047619Y-96669880D02*
X173047619Y-95669880D01*
X172952380Y-95812738D01*
X172857142Y-95907976D01*
X172761904Y-95955595D01*
X174190476Y-95669880D02*
X174000000Y-95669880D01*
X173904761Y-95717500D01*
X173857142Y-95765119D01*
X173761904Y-95907976D01*
X173714285Y-96098452D01*
X173714285Y-96479404D01*
X173761904Y-96574642D01*
X173809523Y-96622261D01*
X173904761Y-96669880D01*
X174095238Y-96669880D01*
X174190476Y-96622261D01*
X174238095Y-96574642D01*
X174285714Y-96479404D01*
X174285714Y-96241309D01*
X174238095Y-96146071D01*
X174190476Y-96098452D01*
X174095238Y-96050833D01*
X173904761Y-96050833D01*
X173809523Y-96098452D01*
X173761904Y-96146071D01*
X173714285Y-96241309D01*
X175238095Y-95717500D02*
X175142857Y-95669880D01*
X175000000Y-95669880D01*
X174857142Y-95717500D01*
X174761904Y-95812738D01*
X174714285Y-95907976D01*
X174666666Y-96098452D01*
X174666666Y-96241309D01*
X174714285Y-96431785D01*
X174761904Y-96527023D01*
X174857142Y-96622261D01*
X175000000Y-96669880D01*
X175095238Y-96669880D01*
X175238095Y-96622261D01*
X175285714Y-96574642D01*
X175285714Y-96241309D01*
X175095238Y-96241309D01*
X169466666Y-99334166D02*
X169466666Y-99900833D01*
X169500000Y-99967500D01*
X169533333Y-100000833D01*
X169600000Y-100034166D01*
X169733333Y-100034166D01*
X169800000Y-100000833D01*
X169833333Y-99967500D01*
X169866666Y-99900833D01*
X169866666Y-99334166D01*
X170566666Y-100034166D02*
X170166666Y-100034166D01*
X170366666Y-100034166D02*
X170366666Y-99334166D01*
X170300000Y-99434166D01*
X170233333Y-99500833D01*
X170166666Y-99534166D01*
X139857142Y-103116666D02*
X140333333Y-103116666D01*
X139761904Y-103402380D02*
X140095238Y-102402380D01*
X140428571Y-103402380D01*
X140761904Y-103402380D02*
X140761904Y-102402380D01*
X141000000Y-102402380D01*
X141142857Y-102450000D01*
X141238095Y-102545238D01*
X141285714Y-102640476D01*
X141333333Y-102830952D01*
X141333333Y-102973809D01*
X141285714Y-103164285D01*
X141238095Y-103259523D01*
X141142857Y-103354761D01*
X141000000Y-103402380D01*
X140761904Y-103402380D01*
X141714285Y-103116666D02*
X142190476Y-103116666D01*
X141619047Y-103402380D02*
X141952380Y-102402380D01*
X142285714Y-103402380D01*
X143047619Y-102735714D02*
X143047619Y-103402380D01*
X142809523Y-102354761D02*
X142571428Y-103069047D01*
X143190476Y-103069047D01*
X143714285Y-102830952D02*
X143619047Y-102783333D01*
X143571428Y-102735714D01*
X143523809Y-102640476D01*
X143523809Y-102592857D01*
X143571428Y-102497619D01*
X143619047Y-102450000D01*
X143714285Y-102402380D01*
X143904761Y-102402380D01*
X144000000Y-102450000D01*
X144047619Y-102497619D01*
X144095238Y-102592857D01*
X144095238Y-102640476D01*
X144047619Y-102735714D01*
X144000000Y-102783333D01*
X143904761Y-102830952D01*
X143714285Y-102830952D01*
X143619047Y-102878571D01*
X143571428Y-102926190D01*
X143523809Y-103021428D01*
X143523809Y-103211904D01*
X143571428Y-103307142D01*
X143619047Y-103354761D01*
X143714285Y-103402380D01*
X143904761Y-103402380D01*
X144000000Y-103354761D01*
X144047619Y-103307142D01*
X144095238Y-103211904D01*
X144095238Y-103021428D01*
X144047619Y-102926190D01*
X144000000Y-102878571D01*
X143904761Y-102830952D01*
X144571428Y-103402380D02*
X144761904Y-103402380D01*
X144857142Y-103354761D01*
X144904761Y-103307142D01*
X145000000Y-103164285D01*
X145047619Y-102973809D01*
X145047619Y-102592857D01*
X145000000Y-102497619D01*
X144952380Y-102450000D01*
X144857142Y-102402380D01*
X144666666Y-102402380D01*
X144571428Y-102450000D01*
X144523809Y-102497619D01*
X144476190Y-102592857D01*
X144476190Y-102830952D01*
X144523809Y-102926190D01*
X144571428Y-102973809D01*
X144666666Y-103021428D01*
X144857142Y-103021428D01*
X144952380Y-102973809D01*
X145000000Y-102926190D01*
X145047619Y-102830952D01*
X145904761Y-102402380D02*
X145714285Y-102402380D01*
X145619047Y-102450000D01*
X145571428Y-102497619D01*
X145476190Y-102640476D01*
X145428571Y-102830952D01*
X145428571Y-103211904D01*
X145476190Y-103307142D01*
X145523809Y-103354761D01*
X145619047Y-103402380D01*
X145809523Y-103402380D01*
X145904761Y-103354761D01*
X145952380Y-103307142D01*
X146000000Y-103211904D01*
X146000000Y-102973809D01*
X145952380Y-102878571D01*
X145904761Y-102830952D01*
X145809523Y-102783333D01*
X145619047Y-102783333D01*
X145523809Y-102830952D01*
X145476190Y-102878571D01*
X145428571Y-102973809D01*
X146428571Y-103021428D02*
X147190476Y-103021428D01*
X147619047Y-102497619D02*
X147666666Y-102450000D01*
X147761904Y-102402380D01*
X148000000Y-102402380D01*
X148095238Y-102450000D01*
X148142857Y-102497619D01*
X148190476Y-102592857D01*
X148190476Y-102688095D01*
X148142857Y-102830952D01*
X147571428Y-103402380D01*
X148190476Y-103402380D01*
X148571428Y-103116666D02*
X149047619Y-103116666D01*
X148476190Y-103402380D02*
X148809523Y-102402380D01*
X149142857Y-103402380D01*
X150047619Y-103402380D02*
X149714285Y-102926190D01*
X149476190Y-103402380D02*
X149476190Y-102402380D01*
X149857142Y-102402380D01*
X149952380Y-102450000D01*
X150000000Y-102497619D01*
X150047619Y-102592857D01*
X150047619Y-102735714D01*
X150000000Y-102830952D01*
X149952380Y-102878571D01*
X149857142Y-102926190D01*
X149476190Y-102926190D01*
X150476190Y-103402380D02*
X150476190Y-102402380D01*
X150809523Y-103116666D01*
X151142857Y-102402380D01*
X151142857Y-103402380D01*
X151523809Y-102402380D02*
X152190476Y-102402380D01*
X151523809Y-103402380D01*
X152190476Y-103402380D01*
D15*
X145428571Y-100089285D02*
X145428571Y-100696428D01*
X145464285Y-100767857D01*
X145500000Y-100803571D01*
X145571428Y-100839285D01*
X145714285Y-100839285D01*
X145785714Y-100803571D01*
X145821428Y-100767857D01*
X145857142Y-100696428D01*
X145857142Y-100089285D01*
X146535714Y-100339285D02*
X146535714Y-100839285D01*
X146357142Y-100053571D02*
X146178571Y-100589285D01*
X146642857Y-100589285D01*
D11*
X126107142Y-108716666D02*
X126583333Y-108716666D01*
X126011904Y-109002380D02*
X126345238Y-108002380D01*
X126678571Y-109002380D01*
X127011904Y-109002380D02*
X127011904Y-108002380D01*
X127250000Y-108002380D01*
X127392857Y-108050000D01*
X127488095Y-108145238D01*
X127535714Y-108240476D01*
X127583333Y-108430952D01*
X127583333Y-108573809D01*
X127535714Y-108764285D01*
X127488095Y-108859523D01*
X127392857Y-108954761D01*
X127250000Y-109002380D01*
X127011904Y-109002380D01*
X127964285Y-108716666D02*
X128440476Y-108716666D01*
X127869047Y-109002380D02*
X128202380Y-108002380D01*
X128535714Y-109002380D01*
X129297619Y-108335714D02*
X129297619Y-109002380D01*
X129059523Y-107954761D02*
X128821428Y-108669047D01*
X129440476Y-108669047D01*
X129964285Y-108430952D02*
X129869047Y-108383333D01*
X129821428Y-108335714D01*
X129773809Y-108240476D01*
X129773809Y-108192857D01*
X129821428Y-108097619D01*
X129869047Y-108050000D01*
X129964285Y-108002380D01*
X130154761Y-108002380D01*
X130250000Y-108050000D01*
X130297619Y-108097619D01*
X130345238Y-108192857D01*
X130345238Y-108240476D01*
X130297619Y-108335714D01*
X130250000Y-108383333D01*
X130154761Y-108430952D01*
X129964285Y-108430952D01*
X129869047Y-108478571D01*
X129821428Y-108526190D01*
X129773809Y-108621428D01*
X129773809Y-108811904D01*
X129821428Y-108907142D01*
X129869047Y-108954761D01*
X129964285Y-109002380D01*
X130154761Y-109002380D01*
X130250000Y-108954761D01*
X130297619Y-108907142D01*
X130345238Y-108811904D01*
X130345238Y-108621428D01*
X130297619Y-108526190D01*
X130250000Y-108478571D01*
X130154761Y-108430952D01*
X130821428Y-109002380D02*
X131011904Y-109002380D01*
X131107142Y-108954761D01*
X131154761Y-108907142D01*
X131250000Y-108764285D01*
X131297619Y-108573809D01*
X131297619Y-108192857D01*
X131250000Y-108097619D01*
X131202380Y-108050000D01*
X131107142Y-108002380D01*
X130916666Y-108002380D01*
X130821428Y-108050000D01*
X130773809Y-108097619D01*
X130726190Y-108192857D01*
X130726190Y-108430952D01*
X130773809Y-108526190D01*
X130821428Y-108573809D01*
X130916666Y-108621428D01*
X131107142Y-108621428D01*
X131202380Y-108573809D01*
X131250000Y-108526190D01*
X131297619Y-108430952D01*
X132154761Y-108002380D02*
X131964285Y-108002380D01*
X131869047Y-108050000D01*
X131821428Y-108097619D01*
X131726190Y-108240476D01*
X131678571Y-108430952D01*
X131678571Y-108811904D01*
X131726190Y-108907142D01*
X131773809Y-108954761D01*
X131869047Y-109002380D01*
X132059523Y-109002380D01*
X132154761Y-108954761D01*
X132202380Y-108907142D01*
X132250000Y-108811904D01*
X132250000Y-108573809D01*
X132202380Y-108478571D01*
X132154761Y-108430952D01*
X132059523Y-108383333D01*
X131869047Y-108383333D01*
X131773809Y-108430952D01*
X131726190Y-108478571D01*
X131678571Y-108573809D01*
X132678571Y-108621428D02*
X133440476Y-108621428D01*
X133869047Y-108097619D02*
X133916666Y-108050000D01*
X134011904Y-108002380D01*
X134250000Y-108002380D01*
X134345238Y-108050000D01*
X134392857Y-108097619D01*
X134440476Y-108192857D01*
X134440476Y-108288095D01*
X134392857Y-108430952D01*
X133821428Y-109002380D01*
X134440476Y-109002380D01*
X134821428Y-108716666D02*
X135297619Y-108716666D01*
X134726190Y-109002380D02*
X135059523Y-108002380D01*
X135392857Y-109002380D01*
X136297619Y-109002380D02*
X135964285Y-108526190D01*
X135726190Y-109002380D02*
X135726190Y-108002380D01*
X136107142Y-108002380D01*
X136202380Y-108050000D01*
X136250000Y-108097619D01*
X136297619Y-108192857D01*
X136297619Y-108335714D01*
X136250000Y-108430952D01*
X136202380Y-108478571D01*
X136107142Y-108526190D01*
X135726190Y-108526190D01*
X136726190Y-109002380D02*
X136726190Y-108002380D01*
X137059523Y-108716666D01*
X137392857Y-108002380D01*
X137392857Y-109002380D01*
X137773809Y-108002380D02*
X138440476Y-108002380D01*
X137773809Y-109002380D01*
X138440476Y-109002380D01*
D15*
X131678571Y-110589285D02*
X131678571Y-111196428D01*
X131714285Y-111267857D01*
X131750000Y-111303571D01*
X131821428Y-111339285D01*
X131964285Y-111339285D01*
X132035714Y-111303571D01*
X132071428Y-111267857D01*
X132107142Y-111196428D01*
X132107142Y-110589285D01*
X132821428Y-110589285D02*
X132464285Y-110589285D01*
X132428571Y-110946428D01*
X132464285Y-110910714D01*
X132535714Y-110875000D01*
X132714285Y-110875000D01*
X132785714Y-110910714D01*
X132821428Y-110946428D01*
X132857142Y-111017857D01*
X132857142Y-111196428D01*
X132821428Y-111267857D01*
X132785714Y-111303571D01*
X132714285Y-111339285D01*
X132535714Y-111339285D01*
X132464285Y-111303571D01*
X132428571Y-111267857D01*
D11*
X125352380Y-114547619D02*
X124352380Y-114547619D01*
X125352380Y-113976190D01*
X124352380Y-113976190D01*
X125352380Y-113357142D02*
X125304761Y-113452380D01*
X125257142Y-113500000D01*
X125161904Y-113547619D01*
X124876190Y-113547619D01*
X124780952Y-113500000D01*
X124733333Y-113452380D01*
X124685714Y-113357142D01*
X124685714Y-113214285D01*
X124733333Y-113119047D01*
X124780952Y-113071428D01*
X124876190Y-113023809D01*
X125161904Y-113023809D01*
X125257142Y-113071428D01*
X125304761Y-113119047D01*
X125352380Y-113214285D01*
X125352380Y-113357142D01*
X124685714Y-112595238D02*
X125352380Y-112595238D01*
X124780952Y-112595238D02*
X124733333Y-112547619D01*
X124685714Y-112452380D01*
X124685714Y-112309523D01*
X124733333Y-112214285D01*
X124828571Y-112166666D01*
X125352380Y-112166666D01*
X124971428Y-111690476D02*
X124971428Y-110928571D01*
X125352380Y-110452380D02*
X124352380Y-110452380D01*
X124685714Y-109976190D02*
X125352380Y-109976190D01*
X124780952Y-109976190D02*
X124733333Y-109928571D01*
X124685714Y-109833333D01*
X124685714Y-109690476D01*
X124733333Y-109595238D01*
X124828571Y-109547619D01*
X125352380Y-109547619D01*
X124685714Y-109166666D02*
X125352380Y-108928571D01*
X124685714Y-108690476D01*
X125304761Y-107928571D02*
X125352380Y-108023809D01*
X125352380Y-108214285D01*
X125304761Y-108309523D01*
X125209523Y-108357142D01*
X124828571Y-108357142D01*
X124733333Y-108309523D01*
X124685714Y-108214285D01*
X124685714Y-108023809D01*
X124733333Y-107928571D01*
X124828571Y-107880952D01*
X124923809Y-107880952D01*
X125019047Y-108357142D01*
X125352380Y-107452380D02*
X124685714Y-107452380D01*
X124876190Y-107452380D02*
X124780952Y-107404761D01*
X124733333Y-107357142D01*
X124685714Y-107261904D01*
X124685714Y-107166666D01*
X124685714Y-106976190D02*
X124685714Y-106595238D01*
X124352380Y-106833333D02*
X125209523Y-106833333D01*
X125304761Y-106785714D01*
X125352380Y-106690476D01*
X125352380Y-106595238D01*
X125352380Y-106261904D02*
X124685714Y-106261904D01*
X124352380Y-106261904D02*
X124400000Y-106309523D01*
X124447619Y-106261904D01*
X124400000Y-106214285D01*
X124352380Y-106261904D01*
X124447619Y-106261904D01*
X124685714Y-105785714D02*
X125352380Y-105785714D01*
X124780952Y-105785714D02*
X124733333Y-105738095D01*
X124685714Y-105642857D01*
X124685714Y-105500000D01*
X124733333Y-105404761D01*
X124828571Y-105357142D01*
X125352380Y-105357142D01*
X124685714Y-104452380D02*
X125495238Y-104452380D01*
X125590476Y-104500000D01*
X125638095Y-104547619D01*
X125685714Y-104642857D01*
X125685714Y-104785714D01*
X125638095Y-104880952D01*
X125304761Y-104452380D02*
X125352380Y-104547619D01*
X125352380Y-104738095D01*
X125304761Y-104833333D01*
X125257142Y-104880952D01*
X125161904Y-104928571D01*
X124876190Y-104928571D01*
X124780952Y-104880952D01*
X124733333Y-104833333D01*
X124685714Y-104738095D01*
X124685714Y-104547619D01*
X124733333Y-104452380D01*
M02*
