G04 #@! TF.GenerationSoftware,KiCad,Pcbnew,(5.1.9)-1*
G04 #@! TF.CreationDate,2021-12-02T13:45:28+01:00*
G04 #@! TF.ProjectId,PFD_HMC439QS16G,5046445f-484d-4433-9433-395153313647,1.3*
G04 #@! TF.SameCoordinates,Original*
G04 #@! TF.FileFunction,Paste,Top*
G04 #@! TF.FilePolarity,Positive*
%FSLAX46Y46*%
G04 Gerber Fmt 4.6, Leading zero omitted, Abs format (unit mm)*
G04 Created by KiCad (PCBNEW (5.1.9)-1) date 2021-12-02 13:45:28*
%MOMM*%
%LPD*%
G01*
G04 APERTURE LIST*
%ADD10R,1.600000X0.410000*%
%ADD11R,2.300000X2.500000*%
G04 APERTURE END LIST*
G36*
G01*
X217975000Y-80122500D02*
X217975000Y-79777500D01*
G75*
G02*
X218122500Y-79630000I147500J0D01*
G01*
X218417500Y-79630000D01*
G75*
G02*
X218565000Y-79777500I0J-147500D01*
G01*
X218565000Y-80122500D01*
G75*
G02*
X218417500Y-80270000I-147500J0D01*
G01*
X218122500Y-80270000D01*
G75*
G02*
X217975000Y-80122500I0J147500D01*
G01*
G37*
G36*
G01*
X217005000Y-80122500D02*
X217005000Y-79777500D01*
G75*
G02*
X217152500Y-79630000I147500J0D01*
G01*
X217447500Y-79630000D01*
G75*
G02*
X217595000Y-79777500I0J-147500D01*
G01*
X217595000Y-80122500D01*
G75*
G02*
X217447500Y-80270000I-147500J0D01*
G01*
X217152500Y-80270000D01*
G75*
G02*
X217005000Y-80122500I0J147500D01*
G01*
G37*
G36*
G01*
X100825000Y-98075000D02*
X102975000Y-98075000D01*
G75*
G02*
X103225000Y-98325000I0J-250000D01*
G01*
X103225000Y-99075000D01*
G75*
G02*
X102975000Y-99325000I-250000J0D01*
G01*
X100825000Y-99325000D01*
G75*
G02*
X100575000Y-99075000I0J250000D01*
G01*
X100575000Y-98325000D01*
G75*
G02*
X100825000Y-98075000I250000J0D01*
G01*
G37*
G36*
G01*
X100825000Y-100875000D02*
X102975000Y-100875000D01*
G75*
G02*
X103225000Y-101125000I0J-250000D01*
G01*
X103225000Y-101875000D01*
G75*
G02*
X102975000Y-102125000I-250000J0D01*
G01*
X100825000Y-102125000D01*
G75*
G02*
X100575000Y-101875000I0J250000D01*
G01*
X100575000Y-101125000D01*
G75*
G02*
X100825000Y-100875000I250000J0D01*
G01*
G37*
G36*
G01*
X102975000Y-107425000D02*
X100825000Y-107425000D01*
G75*
G02*
X100575000Y-107175000I0J250000D01*
G01*
X100575000Y-106425000D01*
G75*
G02*
X100825000Y-106175000I250000J0D01*
G01*
X102975000Y-106175000D01*
G75*
G02*
X103225000Y-106425000I0J-250000D01*
G01*
X103225000Y-107175000D01*
G75*
G02*
X102975000Y-107425000I-250000J0D01*
G01*
G37*
G36*
G01*
X102975000Y-104625000D02*
X100825000Y-104625000D01*
G75*
G02*
X100575000Y-104375000I0J250000D01*
G01*
X100575000Y-103625000D01*
G75*
G02*
X100825000Y-103375000I250000J0D01*
G01*
X102975000Y-103375000D01*
G75*
G02*
X103225000Y-103625000I0J-250000D01*
G01*
X103225000Y-104375000D01*
G75*
G02*
X102975000Y-104625000I-250000J0D01*
G01*
G37*
G36*
G01*
X197450000Y-73356250D02*
X197450000Y-72843750D01*
G75*
G02*
X197668750Y-72625000I218750J0D01*
G01*
X198106250Y-72625000D01*
G75*
G02*
X198325000Y-72843750I0J-218750D01*
G01*
X198325000Y-73356250D01*
G75*
G02*
X198106250Y-73575000I-218750J0D01*
G01*
X197668750Y-73575000D01*
G75*
G02*
X197450000Y-73356250I0J218750D01*
G01*
G37*
G36*
G01*
X195875000Y-73356250D02*
X195875000Y-72843750D01*
G75*
G02*
X196093750Y-72625000I218750J0D01*
G01*
X196531250Y-72625000D01*
G75*
G02*
X196750000Y-72843750I0J-218750D01*
G01*
X196750000Y-73356250D01*
G75*
G02*
X196531250Y-73575000I-218750J0D01*
G01*
X196093750Y-73575000D01*
G75*
G02*
X195875000Y-73356250I0J218750D01*
G01*
G37*
G36*
G01*
X196356250Y-69725000D02*
X195843750Y-69725000D01*
G75*
G02*
X195625000Y-69506250I0J218750D01*
G01*
X195625000Y-69068750D01*
G75*
G02*
X195843750Y-68850000I218750J0D01*
G01*
X196356250Y-68850000D01*
G75*
G02*
X196575000Y-69068750I0J-218750D01*
G01*
X196575000Y-69506250D01*
G75*
G02*
X196356250Y-69725000I-218750J0D01*
G01*
G37*
G36*
G01*
X196356250Y-68150000D02*
X195843750Y-68150000D01*
G75*
G02*
X195625000Y-67931250I0J218750D01*
G01*
X195625000Y-67493750D01*
G75*
G02*
X195843750Y-67275000I218750J0D01*
G01*
X196356250Y-67275000D01*
G75*
G02*
X196575000Y-67493750I0J-218750D01*
G01*
X196575000Y-67931250D01*
G75*
G02*
X196356250Y-68150000I-218750J0D01*
G01*
G37*
G36*
G01*
X114725000Y-101925000D02*
X113475000Y-101925000D01*
G75*
G02*
X113225000Y-101675000I0J250000D01*
G01*
X113225000Y-100925000D01*
G75*
G02*
X113475000Y-100675000I250000J0D01*
G01*
X114725000Y-100675000D01*
G75*
G02*
X114975000Y-100925000I0J-250000D01*
G01*
X114975000Y-101675000D01*
G75*
G02*
X114725000Y-101925000I-250000J0D01*
G01*
G37*
G36*
G01*
X114725000Y-99125000D02*
X113475000Y-99125000D01*
G75*
G02*
X113225000Y-98875000I0J250000D01*
G01*
X113225000Y-98125000D01*
G75*
G02*
X113475000Y-97875000I250000J0D01*
G01*
X114725000Y-97875000D01*
G75*
G02*
X114975000Y-98125000I0J-250000D01*
G01*
X114975000Y-98875000D01*
G75*
G02*
X114725000Y-99125000I-250000J0D01*
G01*
G37*
G36*
G01*
X104125000Y-108875000D02*
X104125000Y-110125000D01*
G75*
G02*
X103875000Y-110375000I-250000J0D01*
G01*
X103125000Y-110375000D01*
G75*
G02*
X102875000Y-110125000I0J250000D01*
G01*
X102875000Y-108875000D01*
G75*
G02*
X103125000Y-108625000I250000J0D01*
G01*
X103875000Y-108625000D01*
G75*
G02*
X104125000Y-108875000I0J-250000D01*
G01*
G37*
G36*
G01*
X106925000Y-108875000D02*
X106925000Y-110125000D01*
G75*
G02*
X106675000Y-110375000I-250000J0D01*
G01*
X105925000Y-110375000D01*
G75*
G02*
X105675000Y-110125000I0J250000D01*
G01*
X105675000Y-108875000D01*
G75*
G02*
X105925000Y-108625000I250000J0D01*
G01*
X106675000Y-108625000D01*
G75*
G02*
X106925000Y-108875000I0J-250000D01*
G01*
G37*
G36*
G01*
X194043750Y-76175000D02*
X194556250Y-76175000D01*
G75*
G02*
X194775000Y-76393750I0J-218750D01*
G01*
X194775000Y-76831250D01*
G75*
G02*
X194556250Y-77050000I-218750J0D01*
G01*
X194043750Y-77050000D01*
G75*
G02*
X193825000Y-76831250I0J218750D01*
G01*
X193825000Y-76393750D01*
G75*
G02*
X194043750Y-76175000I218750J0D01*
G01*
G37*
G36*
G01*
X194043750Y-77750000D02*
X194556250Y-77750000D01*
G75*
G02*
X194775000Y-77968750I0J-218750D01*
G01*
X194775000Y-78406250D01*
G75*
G02*
X194556250Y-78625000I-218750J0D01*
G01*
X194043750Y-78625000D01*
G75*
G02*
X193825000Y-78406250I0J218750D01*
G01*
X193825000Y-77968750D01*
G75*
G02*
X194043750Y-77750000I218750J0D01*
G01*
G37*
G36*
G01*
X181756250Y-65350000D02*
X181243750Y-65350000D01*
G75*
G02*
X181025000Y-65131250I0J218750D01*
G01*
X181025000Y-64693750D01*
G75*
G02*
X181243750Y-64475000I218750J0D01*
G01*
X181756250Y-64475000D01*
G75*
G02*
X181975000Y-64693750I0J-218750D01*
G01*
X181975000Y-65131250D01*
G75*
G02*
X181756250Y-65350000I-218750J0D01*
G01*
G37*
G36*
G01*
X181756250Y-66925000D02*
X181243750Y-66925000D01*
G75*
G02*
X181025000Y-66706250I0J218750D01*
G01*
X181025000Y-66268750D01*
G75*
G02*
X181243750Y-66050000I218750J0D01*
G01*
X181756250Y-66050000D01*
G75*
G02*
X181975000Y-66268750I0J-218750D01*
G01*
X181975000Y-66706250D01*
G75*
G02*
X181756250Y-66925000I-218750J0D01*
G01*
G37*
G36*
G01*
X106225000Y-94625000D02*
X106225000Y-96775000D01*
G75*
G02*
X105975000Y-97025000I-250000J0D01*
G01*
X105225000Y-97025000D01*
G75*
G02*
X104975000Y-96775000I0J250000D01*
G01*
X104975000Y-94625000D01*
G75*
G02*
X105225000Y-94375000I250000J0D01*
G01*
X105975000Y-94375000D01*
G75*
G02*
X106225000Y-94625000I0J-250000D01*
G01*
G37*
G36*
G01*
X109025000Y-94625000D02*
X109025000Y-96775000D01*
G75*
G02*
X108775000Y-97025000I-250000J0D01*
G01*
X108025000Y-97025000D01*
G75*
G02*
X107775000Y-96775000I0J250000D01*
G01*
X107775000Y-94625000D01*
G75*
G02*
X108025000Y-94375000I250000J0D01*
G01*
X108775000Y-94375000D01*
G75*
G02*
X109025000Y-94625000I0J-250000D01*
G01*
G37*
G36*
G01*
X112525000Y-106775000D02*
X114675000Y-106775000D01*
G75*
G02*
X114925000Y-107025000I0J-250000D01*
G01*
X114925000Y-107775000D01*
G75*
G02*
X114675000Y-108025000I-250000J0D01*
G01*
X112525000Y-108025000D01*
G75*
G02*
X112275000Y-107775000I0J250000D01*
G01*
X112275000Y-107025000D01*
G75*
G02*
X112525000Y-106775000I250000J0D01*
G01*
G37*
G36*
G01*
X112525000Y-103975000D02*
X114675000Y-103975000D01*
G75*
G02*
X114925000Y-104225000I0J-250000D01*
G01*
X114925000Y-104975000D01*
G75*
G02*
X114675000Y-105225000I-250000J0D01*
G01*
X112525000Y-105225000D01*
G75*
G02*
X112275000Y-104975000I0J250000D01*
G01*
X112275000Y-104225000D01*
G75*
G02*
X112525000Y-103975000I250000J0D01*
G01*
G37*
G36*
G01*
X178956250Y-77500000D02*
X178443750Y-77500000D01*
G75*
G02*
X178225000Y-77281250I0J218750D01*
G01*
X178225000Y-76843750D01*
G75*
G02*
X178443750Y-76625000I218750J0D01*
G01*
X178956250Y-76625000D01*
G75*
G02*
X179175000Y-76843750I0J-218750D01*
G01*
X179175000Y-77281250D01*
G75*
G02*
X178956250Y-77500000I-218750J0D01*
G01*
G37*
G36*
G01*
X178956250Y-79075000D02*
X178443750Y-79075000D01*
G75*
G02*
X178225000Y-78856250I0J218750D01*
G01*
X178225000Y-78418750D01*
G75*
G02*
X178443750Y-78200000I218750J0D01*
G01*
X178956250Y-78200000D01*
G75*
G02*
X179175000Y-78418750I0J-218750D01*
G01*
X179175000Y-78856250D01*
G75*
G02*
X178956250Y-79075000I-218750J0D01*
G01*
G37*
G36*
G01*
X179006250Y-68975000D02*
X178493750Y-68975000D01*
G75*
G02*
X178275000Y-68756250I0J218750D01*
G01*
X178275000Y-68318750D01*
G75*
G02*
X178493750Y-68100000I218750J0D01*
G01*
X179006250Y-68100000D01*
G75*
G02*
X179225000Y-68318750I0J-218750D01*
G01*
X179225000Y-68756250D01*
G75*
G02*
X179006250Y-68975000I-218750J0D01*
G01*
G37*
G36*
G01*
X179006250Y-67400000D02*
X178493750Y-67400000D01*
G75*
G02*
X178275000Y-67181250I0J218750D01*
G01*
X178275000Y-66743750D01*
G75*
G02*
X178493750Y-66525000I218750J0D01*
G01*
X179006250Y-66525000D01*
G75*
G02*
X179225000Y-66743750I0J-218750D01*
G01*
X179225000Y-67181250D01*
G75*
G02*
X179006250Y-67400000I-218750J0D01*
G01*
G37*
G36*
G01*
X163106250Y-68000000D02*
X162593750Y-68000000D01*
G75*
G02*
X162375000Y-67781250I0J218750D01*
G01*
X162375000Y-67343750D01*
G75*
G02*
X162593750Y-67125000I218750J0D01*
G01*
X163106250Y-67125000D01*
G75*
G02*
X163325000Y-67343750I0J-218750D01*
G01*
X163325000Y-67781250D01*
G75*
G02*
X163106250Y-68000000I-218750J0D01*
G01*
G37*
G36*
G01*
X163106250Y-69575000D02*
X162593750Y-69575000D01*
G75*
G02*
X162375000Y-69356250I0J218750D01*
G01*
X162375000Y-68918750D01*
G75*
G02*
X162593750Y-68700000I218750J0D01*
G01*
X163106250Y-68700000D01*
G75*
G02*
X163325000Y-68918750I0J-218750D01*
G01*
X163325000Y-69356250D01*
G75*
G02*
X163106250Y-69575000I-218750J0D01*
G01*
G37*
G36*
G01*
X160843750Y-70625000D02*
X161356250Y-70625000D01*
G75*
G02*
X161575000Y-70843750I0J-218750D01*
G01*
X161575000Y-71281250D01*
G75*
G02*
X161356250Y-71500000I-218750J0D01*
G01*
X160843750Y-71500000D01*
G75*
G02*
X160625000Y-71281250I0J218750D01*
G01*
X160625000Y-70843750D01*
G75*
G02*
X160843750Y-70625000I218750J0D01*
G01*
G37*
G36*
G01*
X160843750Y-72200000D02*
X161356250Y-72200000D01*
G75*
G02*
X161575000Y-72418750I0J-218750D01*
G01*
X161575000Y-72856250D01*
G75*
G02*
X161356250Y-73075000I-218750J0D01*
G01*
X160843750Y-73075000D01*
G75*
G02*
X160625000Y-72856250I0J218750D01*
G01*
X160625000Y-72418750D01*
G75*
G02*
X160843750Y-72200000I218750J0D01*
G01*
G37*
G36*
G01*
X165825000Y-76343750D02*
X165825000Y-76856250D01*
G75*
G02*
X165606250Y-77075000I-218750J0D01*
G01*
X165168750Y-77075000D01*
G75*
G02*
X164950000Y-76856250I0J218750D01*
G01*
X164950000Y-76343750D01*
G75*
G02*
X165168750Y-76125000I218750J0D01*
G01*
X165606250Y-76125000D01*
G75*
G02*
X165825000Y-76343750I0J-218750D01*
G01*
G37*
G36*
G01*
X164250000Y-76343750D02*
X164250000Y-76856250D01*
G75*
G02*
X164031250Y-77075000I-218750J0D01*
G01*
X163593750Y-77075000D01*
G75*
G02*
X163375000Y-76856250I0J218750D01*
G01*
X163375000Y-76343750D01*
G75*
G02*
X163593750Y-76125000I218750J0D01*
G01*
X164031250Y-76125000D01*
G75*
G02*
X164250000Y-76343750I0J-218750D01*
G01*
G37*
G36*
G01*
X170106250Y-69500000D02*
X169593750Y-69500000D01*
G75*
G02*
X169375000Y-69281250I0J218750D01*
G01*
X169375000Y-68843750D01*
G75*
G02*
X169593750Y-68625000I218750J0D01*
G01*
X170106250Y-68625000D01*
G75*
G02*
X170325000Y-68843750I0J-218750D01*
G01*
X170325000Y-69281250D01*
G75*
G02*
X170106250Y-69500000I-218750J0D01*
G01*
G37*
G36*
G01*
X170106250Y-71075000D02*
X169593750Y-71075000D01*
G75*
G02*
X169375000Y-70856250I0J218750D01*
G01*
X169375000Y-70418750D01*
G75*
G02*
X169593750Y-70200000I218750J0D01*
G01*
X170106250Y-70200000D01*
G75*
G02*
X170325000Y-70418750I0J-218750D01*
G01*
X170325000Y-70856250D01*
G75*
G02*
X170106250Y-71075000I-218750J0D01*
G01*
G37*
G36*
G01*
X184093750Y-79850000D02*
X184606250Y-79850000D01*
G75*
G02*
X184825000Y-80068750I0J-218750D01*
G01*
X184825000Y-80506250D01*
G75*
G02*
X184606250Y-80725000I-218750J0D01*
G01*
X184093750Y-80725000D01*
G75*
G02*
X183875000Y-80506250I0J218750D01*
G01*
X183875000Y-80068750D01*
G75*
G02*
X184093750Y-79850000I218750J0D01*
G01*
G37*
G36*
G01*
X184093750Y-78275000D02*
X184606250Y-78275000D01*
G75*
G02*
X184825000Y-78493750I0J-218750D01*
G01*
X184825000Y-78931250D01*
G75*
G02*
X184606250Y-79150000I-218750J0D01*
G01*
X184093750Y-79150000D01*
G75*
G02*
X183875000Y-78931250I0J218750D01*
G01*
X183875000Y-78493750D01*
G75*
G02*
X184093750Y-78275000I218750J0D01*
G01*
G37*
G36*
G01*
X173593750Y-74200000D02*
X174106250Y-74200000D01*
G75*
G02*
X174325000Y-74418750I0J-218750D01*
G01*
X174325000Y-74856250D01*
G75*
G02*
X174106250Y-75075000I-218750J0D01*
G01*
X173593750Y-75075000D01*
G75*
G02*
X173375000Y-74856250I0J218750D01*
G01*
X173375000Y-74418750D01*
G75*
G02*
X173593750Y-74200000I218750J0D01*
G01*
G37*
G36*
G01*
X173593750Y-72625000D02*
X174106250Y-72625000D01*
G75*
G02*
X174325000Y-72843750I0J-218750D01*
G01*
X174325000Y-73281250D01*
G75*
G02*
X174106250Y-73500000I-218750J0D01*
G01*
X173593750Y-73500000D01*
G75*
G02*
X173375000Y-73281250I0J218750D01*
G01*
X173375000Y-72843750D01*
G75*
G02*
X173593750Y-72625000I218750J0D01*
G01*
G37*
G36*
G01*
X206406250Y-107300000D02*
X205893750Y-107300000D01*
G75*
G02*
X205675000Y-107081250I0J218750D01*
G01*
X205675000Y-106643750D01*
G75*
G02*
X205893750Y-106425000I218750J0D01*
G01*
X206406250Y-106425000D01*
G75*
G02*
X206625000Y-106643750I0J-218750D01*
G01*
X206625000Y-107081250D01*
G75*
G02*
X206406250Y-107300000I-218750J0D01*
G01*
G37*
G36*
G01*
X206406250Y-108875000D02*
X205893750Y-108875000D01*
G75*
G02*
X205675000Y-108656250I0J218750D01*
G01*
X205675000Y-108218750D01*
G75*
G02*
X205893750Y-108000000I218750J0D01*
G01*
X206406250Y-108000000D01*
G75*
G02*
X206625000Y-108218750I0J-218750D01*
G01*
X206625000Y-108656250D01*
G75*
G02*
X206406250Y-108875000I-218750J0D01*
G01*
G37*
G36*
G01*
X198893750Y-112425000D02*
X199406250Y-112425000D01*
G75*
G02*
X199625000Y-112643750I0J-218750D01*
G01*
X199625000Y-113081250D01*
G75*
G02*
X199406250Y-113300000I-218750J0D01*
G01*
X198893750Y-113300000D01*
G75*
G02*
X198675000Y-113081250I0J218750D01*
G01*
X198675000Y-112643750D01*
G75*
G02*
X198893750Y-112425000I218750J0D01*
G01*
G37*
G36*
G01*
X198893750Y-114000000D02*
X199406250Y-114000000D01*
G75*
G02*
X199625000Y-114218750I0J-218750D01*
G01*
X199625000Y-114656250D01*
G75*
G02*
X199406250Y-114875000I-218750J0D01*
G01*
X198893750Y-114875000D01*
G75*
G02*
X198675000Y-114656250I0J218750D01*
G01*
X198675000Y-114218750D01*
G75*
G02*
X198893750Y-114000000I218750J0D01*
G01*
G37*
G36*
G01*
X194906250Y-110875000D02*
X194393750Y-110875000D01*
G75*
G02*
X194175000Y-110656250I0J218750D01*
G01*
X194175000Y-110218750D01*
G75*
G02*
X194393750Y-110000000I218750J0D01*
G01*
X194906250Y-110000000D01*
G75*
G02*
X195125000Y-110218750I0J-218750D01*
G01*
X195125000Y-110656250D01*
G75*
G02*
X194906250Y-110875000I-218750J0D01*
G01*
G37*
G36*
G01*
X194906250Y-109300000D02*
X194393750Y-109300000D01*
G75*
G02*
X194175000Y-109081250I0J218750D01*
G01*
X194175000Y-108643750D01*
G75*
G02*
X194393750Y-108425000I218750J0D01*
G01*
X194906250Y-108425000D01*
G75*
G02*
X195125000Y-108643750I0J-218750D01*
G01*
X195125000Y-109081250D01*
G75*
G02*
X194906250Y-109300000I-218750J0D01*
G01*
G37*
G36*
G01*
X211143750Y-111475000D02*
X211656250Y-111475000D01*
G75*
G02*
X211875000Y-111693750I0J-218750D01*
G01*
X211875000Y-112131250D01*
G75*
G02*
X211656250Y-112350000I-218750J0D01*
G01*
X211143750Y-112350000D01*
G75*
G02*
X210925000Y-112131250I0J218750D01*
G01*
X210925000Y-111693750D01*
G75*
G02*
X211143750Y-111475000I218750J0D01*
G01*
G37*
G36*
G01*
X211143750Y-113050000D02*
X211656250Y-113050000D01*
G75*
G02*
X211875000Y-113268750I0J-218750D01*
G01*
X211875000Y-113706250D01*
G75*
G02*
X211656250Y-113925000I-218750J0D01*
G01*
X211143750Y-113925000D01*
G75*
G02*
X210925000Y-113706250I0J218750D01*
G01*
X210925000Y-113268750D01*
G75*
G02*
X211143750Y-113050000I218750J0D01*
G01*
G37*
G36*
G01*
X112156250Y-101925000D02*
X111643750Y-101925000D01*
G75*
G02*
X111425000Y-101706250I0J218750D01*
G01*
X111425000Y-101268750D01*
G75*
G02*
X111643750Y-101050000I218750J0D01*
G01*
X112156250Y-101050000D01*
G75*
G02*
X112375000Y-101268750I0J-218750D01*
G01*
X112375000Y-101706250D01*
G75*
G02*
X112156250Y-101925000I-218750J0D01*
G01*
G37*
G36*
G01*
X112156250Y-100350000D02*
X111643750Y-100350000D01*
G75*
G02*
X111425000Y-100131250I0J218750D01*
G01*
X111425000Y-99693750D01*
G75*
G02*
X111643750Y-99475000I218750J0D01*
G01*
X112156250Y-99475000D01*
G75*
G02*
X112375000Y-99693750I0J-218750D01*
G01*
X112375000Y-100131250D01*
G75*
G02*
X112156250Y-100350000I-218750J0D01*
G01*
G37*
G36*
G01*
X107525000Y-110056250D02*
X107525000Y-109543750D01*
G75*
G02*
X107743750Y-109325000I218750J0D01*
G01*
X108181250Y-109325000D01*
G75*
G02*
X108400000Y-109543750I0J-218750D01*
G01*
X108400000Y-110056250D01*
G75*
G02*
X108181250Y-110275000I-218750J0D01*
G01*
X107743750Y-110275000D01*
G75*
G02*
X107525000Y-110056250I0J218750D01*
G01*
G37*
G36*
G01*
X109100000Y-110056250D02*
X109100000Y-109543750D01*
G75*
G02*
X109318750Y-109325000I218750J0D01*
G01*
X109756250Y-109325000D01*
G75*
G02*
X109975000Y-109543750I0J-218750D01*
G01*
X109975000Y-110056250D01*
G75*
G02*
X109756250Y-110275000I-218750J0D01*
G01*
X109318750Y-110275000D01*
G75*
G02*
X109100000Y-110056250I0J218750D01*
G01*
G37*
G36*
G01*
X186593750Y-67700000D02*
X187106250Y-67700000D01*
G75*
G02*
X187325000Y-67918750I0J-218750D01*
G01*
X187325000Y-68356250D01*
G75*
G02*
X187106250Y-68575000I-218750J0D01*
G01*
X186593750Y-68575000D01*
G75*
G02*
X186375000Y-68356250I0J218750D01*
G01*
X186375000Y-67918750D01*
G75*
G02*
X186593750Y-67700000I218750J0D01*
G01*
G37*
G36*
G01*
X186593750Y-66125000D02*
X187106250Y-66125000D01*
G75*
G02*
X187325000Y-66343750I0J-218750D01*
G01*
X187325000Y-66781250D01*
G75*
G02*
X187106250Y-67000000I-218750J0D01*
G01*
X186593750Y-67000000D01*
G75*
G02*
X186375000Y-66781250I0J218750D01*
G01*
X186375000Y-66343750D01*
G75*
G02*
X186593750Y-66125000I218750J0D01*
G01*
G37*
G36*
G01*
X184606250Y-77475000D02*
X184093750Y-77475000D01*
G75*
G02*
X183875000Y-77256250I0J218750D01*
G01*
X183875000Y-76818750D01*
G75*
G02*
X184093750Y-76600000I218750J0D01*
G01*
X184606250Y-76600000D01*
G75*
G02*
X184825000Y-76818750I0J-218750D01*
G01*
X184825000Y-77256250D01*
G75*
G02*
X184606250Y-77475000I-218750J0D01*
G01*
G37*
G36*
G01*
X184606250Y-75900000D02*
X184093750Y-75900000D01*
G75*
G02*
X183875000Y-75681250I0J218750D01*
G01*
X183875000Y-75243750D01*
G75*
G02*
X184093750Y-75025000I218750J0D01*
G01*
X184606250Y-75025000D01*
G75*
G02*
X184825000Y-75243750I0J-218750D01*
G01*
X184825000Y-75681250D01*
G75*
G02*
X184606250Y-75900000I-218750J0D01*
G01*
G37*
G36*
G01*
X181243750Y-69800000D02*
X181756250Y-69800000D01*
G75*
G02*
X181975000Y-70018750I0J-218750D01*
G01*
X181975000Y-70456250D01*
G75*
G02*
X181756250Y-70675000I-218750J0D01*
G01*
X181243750Y-70675000D01*
G75*
G02*
X181025000Y-70456250I0J218750D01*
G01*
X181025000Y-70018750D01*
G75*
G02*
X181243750Y-69800000I218750J0D01*
G01*
G37*
G36*
G01*
X181243750Y-68225000D02*
X181756250Y-68225000D01*
G75*
G02*
X181975000Y-68443750I0J-218750D01*
G01*
X181975000Y-68881250D01*
G75*
G02*
X181756250Y-69100000I-218750J0D01*
G01*
X181243750Y-69100000D01*
G75*
G02*
X181025000Y-68881250I0J218750D01*
G01*
X181025000Y-68443750D01*
G75*
G02*
X181243750Y-68225000I218750J0D01*
G01*
G37*
G36*
G01*
X187456250Y-78825000D02*
X186943750Y-78825000D01*
G75*
G02*
X186725000Y-78606250I0J218750D01*
G01*
X186725000Y-78168750D01*
G75*
G02*
X186943750Y-77950000I218750J0D01*
G01*
X187456250Y-77950000D01*
G75*
G02*
X187675000Y-78168750I0J-218750D01*
G01*
X187675000Y-78606250D01*
G75*
G02*
X187456250Y-78825000I-218750J0D01*
G01*
G37*
G36*
G01*
X187456250Y-77250000D02*
X186943750Y-77250000D01*
G75*
G02*
X186725000Y-77031250I0J218750D01*
G01*
X186725000Y-76593750D01*
G75*
G02*
X186943750Y-76375000I218750J0D01*
G01*
X187456250Y-76375000D01*
G75*
G02*
X187675000Y-76593750I0J-218750D01*
G01*
X187675000Y-77031250D01*
G75*
G02*
X187456250Y-77250000I-218750J0D01*
G01*
G37*
G36*
G01*
X182550000Y-73406250D02*
X182550000Y-72893750D01*
G75*
G02*
X182768750Y-72675000I218750J0D01*
G01*
X183206250Y-72675000D01*
G75*
G02*
X183425000Y-72893750I0J-218750D01*
G01*
X183425000Y-73406250D01*
G75*
G02*
X183206250Y-73625000I-218750J0D01*
G01*
X182768750Y-73625000D01*
G75*
G02*
X182550000Y-73406250I0J218750D01*
G01*
G37*
G36*
G01*
X180975000Y-73406250D02*
X180975000Y-72893750D01*
G75*
G02*
X181193750Y-72675000I218750J0D01*
G01*
X181631250Y-72675000D01*
G75*
G02*
X181850000Y-72893750I0J-218750D01*
G01*
X181850000Y-73406250D01*
G75*
G02*
X181631250Y-73625000I-218750J0D01*
G01*
X181193750Y-73625000D01*
G75*
G02*
X180975000Y-73406250I0J218750D01*
G01*
G37*
G36*
G01*
X178350000Y-75756250D02*
X178350000Y-75243750D01*
G75*
G02*
X178568750Y-75025000I218750J0D01*
G01*
X179006250Y-75025000D01*
G75*
G02*
X179225000Y-75243750I0J-218750D01*
G01*
X179225000Y-75756250D01*
G75*
G02*
X179006250Y-75975000I-218750J0D01*
G01*
X178568750Y-75975000D01*
G75*
G02*
X178350000Y-75756250I0J218750D01*
G01*
G37*
G36*
G01*
X176775000Y-75756250D02*
X176775000Y-75243750D01*
G75*
G02*
X176993750Y-75025000I218750J0D01*
G01*
X177431250Y-75025000D01*
G75*
G02*
X177650000Y-75243750I0J-218750D01*
G01*
X177650000Y-75756250D01*
G75*
G02*
X177431250Y-75975000I-218750J0D01*
G01*
X176993750Y-75975000D01*
G75*
G02*
X176775000Y-75756250I0J218750D01*
G01*
G37*
G36*
G01*
X176825000Y-70456250D02*
X176825000Y-69943750D01*
G75*
G02*
X177043750Y-69725000I218750J0D01*
G01*
X177481250Y-69725000D01*
G75*
G02*
X177700000Y-69943750I0J-218750D01*
G01*
X177700000Y-70456250D01*
G75*
G02*
X177481250Y-70675000I-218750J0D01*
G01*
X177043750Y-70675000D01*
G75*
G02*
X176825000Y-70456250I0J218750D01*
G01*
G37*
G36*
G01*
X178400000Y-70456250D02*
X178400000Y-69943750D01*
G75*
G02*
X178618750Y-69725000I218750J0D01*
G01*
X179056250Y-69725000D01*
G75*
G02*
X179275000Y-69943750I0J-218750D01*
G01*
X179275000Y-70456250D01*
G75*
G02*
X179056250Y-70675000I-218750J0D01*
G01*
X178618750Y-70675000D01*
G75*
G02*
X178400000Y-70456250I0J218750D01*
G01*
G37*
G36*
G01*
X174106250Y-69000000D02*
X173593750Y-69000000D01*
G75*
G02*
X173375000Y-68781250I0J218750D01*
G01*
X173375000Y-68343750D01*
G75*
G02*
X173593750Y-68125000I218750J0D01*
G01*
X174106250Y-68125000D01*
G75*
G02*
X174325000Y-68343750I0J-218750D01*
G01*
X174325000Y-68781250D01*
G75*
G02*
X174106250Y-69000000I-218750J0D01*
G01*
G37*
G36*
G01*
X174106250Y-70575000D02*
X173593750Y-70575000D01*
G75*
G02*
X173375000Y-70356250I0J218750D01*
G01*
X173375000Y-69918750D01*
G75*
G02*
X173593750Y-69700000I218750J0D01*
G01*
X174106250Y-69700000D01*
G75*
G02*
X174325000Y-69918750I0J-218750D01*
G01*
X174325000Y-70356250D01*
G75*
G02*
X174106250Y-70575000I-218750J0D01*
G01*
G37*
G36*
G01*
X171843750Y-72625000D02*
X172356250Y-72625000D01*
G75*
G02*
X172575000Y-72843750I0J-218750D01*
G01*
X172575000Y-73281250D01*
G75*
G02*
X172356250Y-73500000I-218750J0D01*
G01*
X171843750Y-73500000D01*
G75*
G02*
X171625000Y-73281250I0J218750D01*
G01*
X171625000Y-72843750D01*
G75*
G02*
X171843750Y-72625000I218750J0D01*
G01*
G37*
G36*
G01*
X171843750Y-74200000D02*
X172356250Y-74200000D01*
G75*
G02*
X172575000Y-74418750I0J-218750D01*
G01*
X172575000Y-74856250D01*
G75*
G02*
X172356250Y-75075000I-218750J0D01*
G01*
X171843750Y-75075000D01*
G75*
G02*
X171625000Y-74856250I0J218750D01*
G01*
X171625000Y-74418750D01*
G75*
G02*
X171843750Y-74200000I218750J0D01*
G01*
G37*
G36*
G01*
X167200000Y-69356250D02*
X167200000Y-68843750D01*
G75*
G02*
X167418750Y-68625000I218750J0D01*
G01*
X167856250Y-68625000D01*
G75*
G02*
X168075000Y-68843750I0J-218750D01*
G01*
X168075000Y-69356250D01*
G75*
G02*
X167856250Y-69575000I-218750J0D01*
G01*
X167418750Y-69575000D01*
G75*
G02*
X167200000Y-69356250I0J218750D01*
G01*
G37*
G36*
G01*
X165625000Y-69356250D02*
X165625000Y-68843750D01*
G75*
G02*
X165843750Y-68625000I218750J0D01*
G01*
X166281250Y-68625000D01*
G75*
G02*
X166500000Y-68843750I0J-218750D01*
G01*
X166500000Y-69356250D01*
G75*
G02*
X166281250Y-69575000I-218750J0D01*
G01*
X165843750Y-69575000D01*
G75*
G02*
X165625000Y-69356250I0J218750D01*
G01*
G37*
G36*
G01*
X162593750Y-72200000D02*
X163106250Y-72200000D01*
G75*
G02*
X163325000Y-72418750I0J-218750D01*
G01*
X163325000Y-72856250D01*
G75*
G02*
X163106250Y-73075000I-218750J0D01*
G01*
X162593750Y-73075000D01*
G75*
G02*
X162375000Y-72856250I0J218750D01*
G01*
X162375000Y-72418750D01*
G75*
G02*
X162593750Y-72200000I218750J0D01*
G01*
G37*
G36*
G01*
X162593750Y-70625000D02*
X163106250Y-70625000D01*
G75*
G02*
X163325000Y-70843750I0J-218750D01*
G01*
X163325000Y-71281250D01*
G75*
G02*
X163106250Y-71500000I-218750J0D01*
G01*
X162593750Y-71500000D01*
G75*
G02*
X162375000Y-71281250I0J218750D01*
G01*
X162375000Y-70843750D01*
G75*
G02*
X162593750Y-70625000I218750J0D01*
G01*
G37*
G36*
G01*
X159356250Y-73075000D02*
X158843750Y-73075000D01*
G75*
G02*
X158625000Y-72856250I0J218750D01*
G01*
X158625000Y-72418750D01*
G75*
G02*
X158843750Y-72200000I218750J0D01*
G01*
X159356250Y-72200000D01*
G75*
G02*
X159575000Y-72418750I0J-218750D01*
G01*
X159575000Y-72856250D01*
G75*
G02*
X159356250Y-73075000I-218750J0D01*
G01*
G37*
G36*
G01*
X159356250Y-71500000D02*
X158843750Y-71500000D01*
G75*
G02*
X158625000Y-71281250I0J218750D01*
G01*
X158625000Y-70843750D01*
G75*
G02*
X158843750Y-70625000I218750J0D01*
G01*
X159356250Y-70625000D01*
G75*
G02*
X159575000Y-70843750I0J-218750D01*
G01*
X159575000Y-71281250D01*
G75*
G02*
X159356250Y-71500000I-218750J0D01*
G01*
G37*
G36*
G01*
X213525000Y-133925000D02*
X213525000Y-136075000D01*
G75*
G02*
X213275000Y-136325000I-250000J0D01*
G01*
X212525000Y-136325000D01*
G75*
G02*
X212275000Y-136075000I0J250000D01*
G01*
X212275000Y-133925000D01*
G75*
G02*
X212525000Y-133675000I250000J0D01*
G01*
X213275000Y-133675000D01*
G75*
G02*
X213525000Y-133925000I0J-250000D01*
G01*
G37*
G36*
G01*
X210725000Y-133925000D02*
X210725000Y-136075000D01*
G75*
G02*
X210475000Y-136325000I-250000J0D01*
G01*
X209725000Y-136325000D01*
G75*
G02*
X209475000Y-136075000I0J250000D01*
G01*
X209475000Y-133925000D01*
G75*
G02*
X209725000Y-133675000I250000J0D01*
G01*
X210475000Y-133675000D01*
G75*
G02*
X210725000Y-133925000I0J-250000D01*
G01*
G37*
G36*
G01*
X207175000Y-93456250D02*
X207175000Y-92943750D01*
G75*
G02*
X207393750Y-92725000I218750J0D01*
G01*
X207831250Y-92725000D01*
G75*
G02*
X208050000Y-92943750I0J-218750D01*
G01*
X208050000Y-93456250D01*
G75*
G02*
X207831250Y-93675000I-218750J0D01*
G01*
X207393750Y-93675000D01*
G75*
G02*
X207175000Y-93456250I0J218750D01*
G01*
G37*
G36*
G01*
X208750000Y-93456250D02*
X208750000Y-92943750D01*
G75*
G02*
X208968750Y-92725000I218750J0D01*
G01*
X209406250Y-92725000D01*
G75*
G02*
X209625000Y-92943750I0J-218750D01*
G01*
X209625000Y-93456250D01*
G75*
G02*
X209406250Y-93675000I-218750J0D01*
G01*
X208968750Y-93675000D01*
G75*
G02*
X208750000Y-93456250I0J218750D01*
G01*
G37*
G36*
G01*
X203050000Y-112893750D02*
X203050000Y-113406250D01*
G75*
G02*
X202831250Y-113625000I-218750J0D01*
G01*
X202393750Y-113625000D01*
G75*
G02*
X202175000Y-113406250I0J218750D01*
G01*
X202175000Y-112893750D01*
G75*
G02*
X202393750Y-112675000I218750J0D01*
G01*
X202831250Y-112675000D01*
G75*
G02*
X203050000Y-112893750I0J-218750D01*
G01*
G37*
G36*
G01*
X204625000Y-112893750D02*
X204625000Y-113406250D01*
G75*
G02*
X204406250Y-113625000I-218750J0D01*
G01*
X203968750Y-113625000D01*
G75*
G02*
X203750000Y-113406250I0J218750D01*
G01*
X203750000Y-112893750D01*
G75*
G02*
X203968750Y-112675000I218750J0D01*
G01*
X204406250Y-112675000D01*
G75*
G02*
X204625000Y-112893750I0J-218750D01*
G01*
G37*
G36*
G01*
X196643750Y-110000000D02*
X197156250Y-110000000D01*
G75*
G02*
X197375000Y-110218750I0J-218750D01*
G01*
X197375000Y-110656250D01*
G75*
G02*
X197156250Y-110875000I-218750J0D01*
G01*
X196643750Y-110875000D01*
G75*
G02*
X196425000Y-110656250I0J218750D01*
G01*
X196425000Y-110218750D01*
G75*
G02*
X196643750Y-110000000I218750J0D01*
G01*
G37*
G36*
G01*
X196643750Y-108425000D02*
X197156250Y-108425000D01*
G75*
G02*
X197375000Y-108643750I0J-218750D01*
G01*
X197375000Y-109081250D01*
G75*
G02*
X197156250Y-109300000I-218750J0D01*
G01*
X196643750Y-109300000D01*
G75*
G02*
X196425000Y-109081250I0J218750D01*
G01*
X196425000Y-108643750D01*
G75*
G02*
X196643750Y-108425000I218750J0D01*
G01*
G37*
G36*
G01*
X209525000Y-109275000D02*
X211675000Y-109275000D01*
G75*
G02*
X211925000Y-109525000I0J-250000D01*
G01*
X211925000Y-110275000D01*
G75*
G02*
X211675000Y-110525000I-250000J0D01*
G01*
X209525000Y-110525000D01*
G75*
G02*
X209275000Y-110275000I0J250000D01*
G01*
X209275000Y-109525000D01*
G75*
G02*
X209525000Y-109275000I250000J0D01*
G01*
G37*
G36*
G01*
X209525000Y-106475000D02*
X211675000Y-106475000D01*
G75*
G02*
X211925000Y-106725000I0J-250000D01*
G01*
X211925000Y-107475000D01*
G75*
G02*
X211675000Y-107725000I-250000J0D01*
G01*
X209525000Y-107725000D01*
G75*
G02*
X209275000Y-107475000I0J250000D01*
G01*
X209275000Y-106725000D01*
G75*
G02*
X209525000Y-106475000I250000J0D01*
G01*
G37*
G36*
G01*
X106260000Y-99622500D02*
X106260000Y-98807500D01*
G75*
G02*
X106427500Y-98640000I167500J0D01*
G01*
X106762500Y-98640000D01*
G75*
G02*
X106930000Y-98807500I0J-167500D01*
G01*
X106930000Y-99622500D01*
G75*
G02*
X106762500Y-99790000I-167500J0D01*
G01*
X106427500Y-99790000D01*
G75*
G02*
X106260000Y-99622500I0J167500D01*
G01*
G37*
G36*
G01*
X106260000Y-101042500D02*
X106260000Y-100227500D01*
G75*
G02*
X106427500Y-100060000I167500J0D01*
G01*
X106762500Y-100060000D01*
G75*
G02*
X106930000Y-100227500I0J-167500D01*
G01*
X106930000Y-101042500D01*
G75*
G02*
X106762500Y-101210000I-167500J0D01*
G01*
X106427500Y-101210000D01*
G75*
G02*
X106260000Y-101042500I0J167500D01*
G01*
G37*
G36*
G01*
X107080000Y-99622500D02*
X107080000Y-98807500D01*
G75*
G02*
X107247500Y-98640000I167500J0D01*
G01*
X107582500Y-98640000D01*
G75*
G02*
X107750000Y-98807500I0J-167500D01*
G01*
X107750000Y-99622500D01*
G75*
G02*
X107582500Y-99790000I-167500J0D01*
G01*
X107247500Y-99790000D01*
G75*
G02*
X107080000Y-99622500I0J167500D01*
G01*
G37*
G36*
G01*
X107080000Y-101042500D02*
X107080000Y-100227500D01*
G75*
G02*
X107247500Y-100060000I167500J0D01*
G01*
X107582500Y-100060000D01*
G75*
G02*
X107750000Y-100227500I0J-167500D01*
G01*
X107750000Y-101042500D01*
G75*
G02*
X107582500Y-101210000I-167500J0D01*
G01*
X107247500Y-101210000D01*
G75*
G02*
X107080000Y-101042500I0J167500D01*
G01*
G37*
G36*
G01*
X104130000Y-98400000D02*
X104130000Y-98200000D01*
G75*
G02*
X104230000Y-98100000I100000J0D01*
G01*
X105480000Y-98100000D01*
G75*
G02*
X105580000Y-98200000I0J-100000D01*
G01*
X105580000Y-98400000D01*
G75*
G02*
X105480000Y-98500000I-100000J0D01*
G01*
X104230000Y-98500000D01*
G75*
G02*
X104130000Y-98400000I0J100000D01*
G01*
G37*
G36*
G01*
X104130000Y-99050000D02*
X104130000Y-98850000D01*
G75*
G02*
X104230000Y-98750000I100000J0D01*
G01*
X105480000Y-98750000D01*
G75*
G02*
X105580000Y-98850000I0J-100000D01*
G01*
X105580000Y-99050000D01*
G75*
G02*
X105480000Y-99150000I-100000J0D01*
G01*
X104230000Y-99150000D01*
G75*
G02*
X104130000Y-99050000I0J100000D01*
G01*
G37*
G36*
G01*
X104130000Y-99700000D02*
X104130000Y-99500000D01*
G75*
G02*
X104230000Y-99400000I100000J0D01*
G01*
X105480000Y-99400000D01*
G75*
G02*
X105580000Y-99500000I0J-100000D01*
G01*
X105580000Y-99700000D01*
G75*
G02*
X105480000Y-99800000I-100000J0D01*
G01*
X104230000Y-99800000D01*
G75*
G02*
X104130000Y-99700000I0J100000D01*
G01*
G37*
G36*
G01*
X104130000Y-100350000D02*
X104130000Y-100150000D01*
G75*
G02*
X104230000Y-100050000I100000J0D01*
G01*
X105480000Y-100050000D01*
G75*
G02*
X105580000Y-100150000I0J-100000D01*
G01*
X105580000Y-100350000D01*
G75*
G02*
X105480000Y-100450000I-100000J0D01*
G01*
X104230000Y-100450000D01*
G75*
G02*
X104130000Y-100350000I0J100000D01*
G01*
G37*
G36*
G01*
X104130000Y-101000000D02*
X104130000Y-100800000D01*
G75*
G02*
X104230000Y-100700000I100000J0D01*
G01*
X105480000Y-100700000D01*
G75*
G02*
X105580000Y-100800000I0J-100000D01*
G01*
X105580000Y-101000000D01*
G75*
G02*
X105480000Y-101100000I-100000J0D01*
G01*
X104230000Y-101100000D01*
G75*
G02*
X104130000Y-101000000I0J100000D01*
G01*
G37*
G36*
G01*
X104130000Y-101650000D02*
X104130000Y-101450000D01*
G75*
G02*
X104230000Y-101350000I100000J0D01*
G01*
X105480000Y-101350000D01*
G75*
G02*
X105580000Y-101450000I0J-100000D01*
G01*
X105580000Y-101650000D01*
G75*
G02*
X105480000Y-101750000I-100000J0D01*
G01*
X104230000Y-101750000D01*
G75*
G02*
X104130000Y-101650000I0J100000D01*
G01*
G37*
G36*
G01*
X108430000Y-101650000D02*
X108430000Y-101450000D01*
G75*
G02*
X108530000Y-101350000I100000J0D01*
G01*
X109780000Y-101350000D01*
G75*
G02*
X109880000Y-101450000I0J-100000D01*
G01*
X109880000Y-101650000D01*
G75*
G02*
X109780000Y-101750000I-100000J0D01*
G01*
X108530000Y-101750000D01*
G75*
G02*
X108430000Y-101650000I0J100000D01*
G01*
G37*
G36*
G01*
X108430000Y-101000000D02*
X108430000Y-100800000D01*
G75*
G02*
X108530000Y-100700000I100000J0D01*
G01*
X109780000Y-100700000D01*
G75*
G02*
X109880000Y-100800000I0J-100000D01*
G01*
X109880000Y-101000000D01*
G75*
G02*
X109780000Y-101100000I-100000J0D01*
G01*
X108530000Y-101100000D01*
G75*
G02*
X108430000Y-101000000I0J100000D01*
G01*
G37*
G36*
G01*
X108430000Y-100350000D02*
X108430000Y-100150000D01*
G75*
G02*
X108530000Y-100050000I100000J0D01*
G01*
X109780000Y-100050000D01*
G75*
G02*
X109880000Y-100150000I0J-100000D01*
G01*
X109880000Y-100350000D01*
G75*
G02*
X109780000Y-100450000I-100000J0D01*
G01*
X108530000Y-100450000D01*
G75*
G02*
X108430000Y-100350000I0J100000D01*
G01*
G37*
G36*
G01*
X108430000Y-99700000D02*
X108430000Y-99500000D01*
G75*
G02*
X108530000Y-99400000I100000J0D01*
G01*
X109780000Y-99400000D01*
G75*
G02*
X109880000Y-99500000I0J-100000D01*
G01*
X109880000Y-99700000D01*
G75*
G02*
X109780000Y-99800000I-100000J0D01*
G01*
X108530000Y-99800000D01*
G75*
G02*
X108430000Y-99700000I0J100000D01*
G01*
G37*
G36*
G01*
X108430000Y-99050000D02*
X108430000Y-98850000D01*
G75*
G02*
X108530000Y-98750000I100000J0D01*
G01*
X109780000Y-98750000D01*
G75*
G02*
X109880000Y-98850000I0J-100000D01*
G01*
X109880000Y-99050000D01*
G75*
G02*
X109780000Y-99150000I-100000J0D01*
G01*
X108530000Y-99150000D01*
G75*
G02*
X108430000Y-99050000I0J100000D01*
G01*
G37*
G36*
G01*
X108430000Y-98400000D02*
X108430000Y-98200000D01*
G75*
G02*
X108530000Y-98100000I100000J0D01*
G01*
X109780000Y-98100000D01*
G75*
G02*
X109880000Y-98200000I0J-100000D01*
G01*
X109880000Y-98400000D01*
G75*
G02*
X109780000Y-98500000I-100000J0D01*
G01*
X108530000Y-98500000D01*
G75*
G02*
X108430000Y-98400000I0J100000D01*
G01*
G37*
G36*
G01*
X108520000Y-104300000D02*
X108520000Y-104100000D01*
G75*
G02*
X108620000Y-104000000I100000J0D01*
G01*
X109870000Y-104000000D01*
G75*
G02*
X109970000Y-104100000I0J-100000D01*
G01*
X109970000Y-104300000D01*
G75*
G02*
X109870000Y-104400000I-100000J0D01*
G01*
X108620000Y-104400000D01*
G75*
G02*
X108520000Y-104300000I0J100000D01*
G01*
G37*
G36*
G01*
X108520000Y-104950000D02*
X108520000Y-104750000D01*
G75*
G02*
X108620000Y-104650000I100000J0D01*
G01*
X109870000Y-104650000D01*
G75*
G02*
X109970000Y-104750000I0J-100000D01*
G01*
X109970000Y-104950000D01*
G75*
G02*
X109870000Y-105050000I-100000J0D01*
G01*
X108620000Y-105050000D01*
G75*
G02*
X108520000Y-104950000I0J100000D01*
G01*
G37*
G36*
G01*
X108520000Y-105600000D02*
X108520000Y-105400000D01*
G75*
G02*
X108620000Y-105300000I100000J0D01*
G01*
X109870000Y-105300000D01*
G75*
G02*
X109970000Y-105400000I0J-100000D01*
G01*
X109970000Y-105600000D01*
G75*
G02*
X109870000Y-105700000I-100000J0D01*
G01*
X108620000Y-105700000D01*
G75*
G02*
X108520000Y-105600000I0J100000D01*
G01*
G37*
G36*
G01*
X108520000Y-106250000D02*
X108520000Y-106050000D01*
G75*
G02*
X108620000Y-105950000I100000J0D01*
G01*
X109870000Y-105950000D01*
G75*
G02*
X109970000Y-106050000I0J-100000D01*
G01*
X109970000Y-106250000D01*
G75*
G02*
X109870000Y-106350000I-100000J0D01*
G01*
X108620000Y-106350000D01*
G75*
G02*
X108520000Y-106250000I0J100000D01*
G01*
G37*
G36*
G01*
X108520000Y-106900000D02*
X108520000Y-106700000D01*
G75*
G02*
X108620000Y-106600000I100000J0D01*
G01*
X109870000Y-106600000D01*
G75*
G02*
X109970000Y-106700000I0J-100000D01*
G01*
X109970000Y-106900000D01*
G75*
G02*
X109870000Y-107000000I-100000J0D01*
G01*
X108620000Y-107000000D01*
G75*
G02*
X108520000Y-106900000I0J100000D01*
G01*
G37*
G36*
G01*
X108520000Y-107550000D02*
X108520000Y-107350000D01*
G75*
G02*
X108620000Y-107250000I100000J0D01*
G01*
X109870000Y-107250000D01*
G75*
G02*
X109970000Y-107350000I0J-100000D01*
G01*
X109970000Y-107550000D01*
G75*
G02*
X109870000Y-107650000I-100000J0D01*
G01*
X108620000Y-107650000D01*
G75*
G02*
X108520000Y-107550000I0J100000D01*
G01*
G37*
G36*
G01*
X104220000Y-107550000D02*
X104220000Y-107350000D01*
G75*
G02*
X104320000Y-107250000I100000J0D01*
G01*
X105570000Y-107250000D01*
G75*
G02*
X105670000Y-107350000I0J-100000D01*
G01*
X105670000Y-107550000D01*
G75*
G02*
X105570000Y-107650000I-100000J0D01*
G01*
X104320000Y-107650000D01*
G75*
G02*
X104220000Y-107550000I0J100000D01*
G01*
G37*
G36*
G01*
X104220000Y-106900000D02*
X104220000Y-106700000D01*
G75*
G02*
X104320000Y-106600000I100000J0D01*
G01*
X105570000Y-106600000D01*
G75*
G02*
X105670000Y-106700000I0J-100000D01*
G01*
X105670000Y-106900000D01*
G75*
G02*
X105570000Y-107000000I-100000J0D01*
G01*
X104320000Y-107000000D01*
G75*
G02*
X104220000Y-106900000I0J100000D01*
G01*
G37*
G36*
G01*
X104220000Y-106250000D02*
X104220000Y-106050000D01*
G75*
G02*
X104320000Y-105950000I100000J0D01*
G01*
X105570000Y-105950000D01*
G75*
G02*
X105670000Y-106050000I0J-100000D01*
G01*
X105670000Y-106250000D01*
G75*
G02*
X105570000Y-106350000I-100000J0D01*
G01*
X104320000Y-106350000D01*
G75*
G02*
X104220000Y-106250000I0J100000D01*
G01*
G37*
G36*
G01*
X104220000Y-105600000D02*
X104220000Y-105400000D01*
G75*
G02*
X104320000Y-105300000I100000J0D01*
G01*
X105570000Y-105300000D01*
G75*
G02*
X105670000Y-105400000I0J-100000D01*
G01*
X105670000Y-105600000D01*
G75*
G02*
X105570000Y-105700000I-100000J0D01*
G01*
X104320000Y-105700000D01*
G75*
G02*
X104220000Y-105600000I0J100000D01*
G01*
G37*
G36*
G01*
X104220000Y-104950000D02*
X104220000Y-104750000D01*
G75*
G02*
X104320000Y-104650000I100000J0D01*
G01*
X105570000Y-104650000D01*
G75*
G02*
X105670000Y-104750000I0J-100000D01*
G01*
X105670000Y-104950000D01*
G75*
G02*
X105570000Y-105050000I-100000J0D01*
G01*
X104320000Y-105050000D01*
G75*
G02*
X104220000Y-104950000I0J100000D01*
G01*
G37*
G36*
G01*
X104220000Y-104300000D02*
X104220000Y-104100000D01*
G75*
G02*
X104320000Y-104000000I100000J0D01*
G01*
X105570000Y-104000000D01*
G75*
G02*
X105670000Y-104100000I0J-100000D01*
G01*
X105670000Y-104300000D01*
G75*
G02*
X105570000Y-104400000I-100000J0D01*
G01*
X104320000Y-104400000D01*
G75*
G02*
X104220000Y-104300000I0J100000D01*
G01*
G37*
G36*
G01*
X107170000Y-106942500D02*
X107170000Y-106127500D01*
G75*
G02*
X107337500Y-105960000I167500J0D01*
G01*
X107672500Y-105960000D01*
G75*
G02*
X107840000Y-106127500I0J-167500D01*
G01*
X107840000Y-106942500D01*
G75*
G02*
X107672500Y-107110000I-167500J0D01*
G01*
X107337500Y-107110000D01*
G75*
G02*
X107170000Y-106942500I0J167500D01*
G01*
G37*
G36*
G01*
X107170000Y-105522500D02*
X107170000Y-104707500D01*
G75*
G02*
X107337500Y-104540000I167500J0D01*
G01*
X107672500Y-104540000D01*
G75*
G02*
X107840000Y-104707500I0J-167500D01*
G01*
X107840000Y-105522500D01*
G75*
G02*
X107672500Y-105690000I-167500J0D01*
G01*
X107337500Y-105690000D01*
G75*
G02*
X107170000Y-105522500I0J167500D01*
G01*
G37*
G36*
G01*
X106350000Y-106942500D02*
X106350000Y-106127500D01*
G75*
G02*
X106517500Y-105960000I167500J0D01*
G01*
X106852500Y-105960000D01*
G75*
G02*
X107020000Y-106127500I0J-167500D01*
G01*
X107020000Y-106942500D01*
G75*
G02*
X106852500Y-107110000I-167500J0D01*
G01*
X106517500Y-107110000D01*
G75*
G02*
X106350000Y-106942500I0J167500D01*
G01*
G37*
G36*
G01*
X106350000Y-105522500D02*
X106350000Y-104707500D01*
G75*
G02*
X106517500Y-104540000I167500J0D01*
G01*
X106852500Y-104540000D01*
G75*
G02*
X107020000Y-104707500I0J-167500D01*
G01*
X107020000Y-105522500D01*
G75*
G02*
X106852500Y-105690000I-167500J0D01*
G01*
X106517500Y-105690000D01*
G75*
G02*
X106350000Y-105522500I0J167500D01*
G01*
G37*
D10*
X194254300Y-75040000D03*
X194254300Y-74405000D03*
X194254300Y-73770000D03*
X194254300Y-73135000D03*
X194254300Y-72500000D03*
X194254300Y-71865000D03*
X194254300Y-71230000D03*
X194254300Y-70595000D03*
X188945700Y-70595000D03*
X188945700Y-71230000D03*
X188945700Y-71865000D03*
X188945700Y-72500000D03*
X188945700Y-73135000D03*
X188945700Y-73770000D03*
X188945700Y-74405000D03*
X188945700Y-75040000D03*
G36*
G01*
X192475000Y-72105000D02*
X192475000Y-73530000D01*
G75*
G02*
X192037500Y-73967500I-437500J0D01*
G01*
X191162500Y-73967500D01*
G75*
G02*
X190725000Y-73530000I0J437500D01*
G01*
X190725000Y-72105000D01*
G75*
G02*
X191162500Y-71667500I437500J0D01*
G01*
X192037500Y-71667500D01*
G75*
G02*
X192475000Y-72105000I0J-437500D01*
G01*
G37*
G36*
G01*
X164675000Y-72725000D02*
X164675000Y-72525000D01*
G75*
G02*
X164775000Y-72425000I100000J0D01*
G01*
X166200000Y-72425000D01*
G75*
G02*
X166300000Y-72525000I0J-100000D01*
G01*
X166300000Y-72725000D01*
G75*
G02*
X166200000Y-72825000I-100000J0D01*
G01*
X164775000Y-72825000D01*
G75*
G02*
X164675000Y-72725000I0J100000D01*
G01*
G37*
G36*
G01*
X164675000Y-73375000D02*
X164675000Y-73175000D01*
G75*
G02*
X164775000Y-73075000I100000J0D01*
G01*
X166200000Y-73075000D01*
G75*
G02*
X166300000Y-73175000I0J-100000D01*
G01*
X166300000Y-73375000D01*
G75*
G02*
X166200000Y-73475000I-100000J0D01*
G01*
X164775000Y-73475000D01*
G75*
G02*
X164675000Y-73375000I0J100000D01*
G01*
G37*
G36*
G01*
X164675000Y-74025000D02*
X164675000Y-73825000D01*
G75*
G02*
X164775000Y-73725000I100000J0D01*
G01*
X166200000Y-73725000D01*
G75*
G02*
X166300000Y-73825000I0J-100000D01*
G01*
X166300000Y-74025000D01*
G75*
G02*
X166200000Y-74125000I-100000J0D01*
G01*
X164775000Y-74125000D01*
G75*
G02*
X164675000Y-74025000I0J100000D01*
G01*
G37*
G36*
G01*
X164675000Y-74675000D02*
X164675000Y-74475000D01*
G75*
G02*
X164775000Y-74375000I100000J0D01*
G01*
X166200000Y-74375000D01*
G75*
G02*
X166300000Y-74475000I0J-100000D01*
G01*
X166300000Y-74675000D01*
G75*
G02*
X166200000Y-74775000I-100000J0D01*
G01*
X164775000Y-74775000D01*
G75*
G02*
X164675000Y-74675000I0J100000D01*
G01*
G37*
G36*
G01*
X168900000Y-74675000D02*
X168900000Y-74475000D01*
G75*
G02*
X169000000Y-74375000I100000J0D01*
G01*
X170425000Y-74375000D01*
G75*
G02*
X170525000Y-74475000I0J-100000D01*
G01*
X170525000Y-74675000D01*
G75*
G02*
X170425000Y-74775000I-100000J0D01*
G01*
X169000000Y-74775000D01*
G75*
G02*
X168900000Y-74675000I0J100000D01*
G01*
G37*
G36*
G01*
X168900000Y-74025000D02*
X168900000Y-73825000D01*
G75*
G02*
X169000000Y-73725000I100000J0D01*
G01*
X170425000Y-73725000D01*
G75*
G02*
X170525000Y-73825000I0J-100000D01*
G01*
X170525000Y-74025000D01*
G75*
G02*
X170425000Y-74125000I-100000J0D01*
G01*
X169000000Y-74125000D01*
G75*
G02*
X168900000Y-74025000I0J100000D01*
G01*
G37*
G36*
G01*
X168900000Y-73375000D02*
X168900000Y-73175000D01*
G75*
G02*
X169000000Y-73075000I100000J0D01*
G01*
X170425000Y-73075000D01*
G75*
G02*
X170525000Y-73175000I0J-100000D01*
G01*
X170525000Y-73375000D01*
G75*
G02*
X170425000Y-73475000I-100000J0D01*
G01*
X169000000Y-73475000D01*
G75*
G02*
X168900000Y-73375000I0J100000D01*
G01*
G37*
G36*
G01*
X168900000Y-72725000D02*
X168900000Y-72525000D01*
G75*
G02*
X169000000Y-72425000I100000J0D01*
G01*
X170425000Y-72425000D01*
G75*
G02*
X170525000Y-72525000I0J-100000D01*
G01*
X170525000Y-72725000D01*
G75*
G02*
X170425000Y-72825000I-100000J0D01*
G01*
X169000000Y-72825000D01*
G75*
G02*
X168900000Y-72725000I0J100000D01*
G01*
G37*
G36*
G01*
X200350000Y-110775000D02*
X200350000Y-110975000D01*
G75*
G02*
X200250000Y-111075000I-100000J0D01*
G01*
X198825000Y-111075000D01*
G75*
G02*
X198725000Y-110975000I0J100000D01*
G01*
X198725000Y-110775000D01*
G75*
G02*
X198825000Y-110675000I100000J0D01*
G01*
X200250000Y-110675000D01*
G75*
G02*
X200350000Y-110775000I0J-100000D01*
G01*
G37*
G36*
G01*
X200350000Y-110125000D02*
X200350000Y-110325000D01*
G75*
G02*
X200250000Y-110425000I-100000J0D01*
G01*
X198825000Y-110425000D01*
G75*
G02*
X198725000Y-110325000I0J100000D01*
G01*
X198725000Y-110125000D01*
G75*
G02*
X198825000Y-110025000I100000J0D01*
G01*
X200250000Y-110025000D01*
G75*
G02*
X200350000Y-110125000I0J-100000D01*
G01*
G37*
G36*
G01*
X200350000Y-109475000D02*
X200350000Y-109675000D01*
G75*
G02*
X200250000Y-109775000I-100000J0D01*
G01*
X198825000Y-109775000D01*
G75*
G02*
X198725000Y-109675000I0J100000D01*
G01*
X198725000Y-109475000D01*
G75*
G02*
X198825000Y-109375000I100000J0D01*
G01*
X200250000Y-109375000D01*
G75*
G02*
X200350000Y-109475000I0J-100000D01*
G01*
G37*
G36*
G01*
X200350000Y-108825000D02*
X200350000Y-109025000D01*
G75*
G02*
X200250000Y-109125000I-100000J0D01*
G01*
X198825000Y-109125000D01*
G75*
G02*
X198725000Y-109025000I0J100000D01*
G01*
X198725000Y-108825000D01*
G75*
G02*
X198825000Y-108725000I100000J0D01*
G01*
X200250000Y-108725000D01*
G75*
G02*
X200350000Y-108825000I0J-100000D01*
G01*
G37*
G36*
G01*
X204575000Y-108825000D02*
X204575000Y-109025000D01*
G75*
G02*
X204475000Y-109125000I-100000J0D01*
G01*
X203050000Y-109125000D01*
G75*
G02*
X202950000Y-109025000I0J100000D01*
G01*
X202950000Y-108825000D01*
G75*
G02*
X203050000Y-108725000I100000J0D01*
G01*
X204475000Y-108725000D01*
G75*
G02*
X204575000Y-108825000I0J-100000D01*
G01*
G37*
G36*
G01*
X204575000Y-109475000D02*
X204575000Y-109675000D01*
G75*
G02*
X204475000Y-109775000I-100000J0D01*
G01*
X203050000Y-109775000D01*
G75*
G02*
X202950000Y-109675000I0J100000D01*
G01*
X202950000Y-109475000D01*
G75*
G02*
X203050000Y-109375000I100000J0D01*
G01*
X204475000Y-109375000D01*
G75*
G02*
X204575000Y-109475000I0J-100000D01*
G01*
G37*
G36*
G01*
X204575000Y-110125000D02*
X204575000Y-110325000D01*
G75*
G02*
X204475000Y-110425000I-100000J0D01*
G01*
X203050000Y-110425000D01*
G75*
G02*
X202950000Y-110325000I0J100000D01*
G01*
X202950000Y-110125000D01*
G75*
G02*
X203050000Y-110025000I100000J0D01*
G01*
X204475000Y-110025000D01*
G75*
G02*
X204575000Y-110125000I0J-100000D01*
G01*
G37*
G36*
G01*
X204575000Y-110775000D02*
X204575000Y-110975000D01*
G75*
G02*
X204475000Y-111075000I-100000J0D01*
G01*
X203050000Y-111075000D01*
G75*
G02*
X202950000Y-110975000I0J100000D01*
G01*
X202950000Y-110775000D01*
G75*
G02*
X203050000Y-110675000I100000J0D01*
G01*
X204475000Y-110675000D01*
G75*
G02*
X204575000Y-110775000I0J-100000D01*
G01*
G37*
G36*
G01*
X217040000Y-65070000D02*
X217040000Y-64730000D01*
G75*
G02*
X217180000Y-64590000I140000J0D01*
G01*
X217460000Y-64590000D01*
G75*
G02*
X217600000Y-64730000I0J-140000D01*
G01*
X217600000Y-65070000D01*
G75*
G02*
X217460000Y-65210000I-140000J0D01*
G01*
X217180000Y-65210000D01*
G75*
G02*
X217040000Y-65070000I0J140000D01*
G01*
G37*
G36*
G01*
X218000000Y-65070000D02*
X218000000Y-64730000D01*
G75*
G02*
X218140000Y-64590000I140000J0D01*
G01*
X218420000Y-64590000D01*
G75*
G02*
X218560000Y-64730000I0J-140000D01*
G01*
X218560000Y-65070000D01*
G75*
G02*
X218420000Y-65210000I-140000J0D01*
G01*
X218140000Y-65210000D01*
G75*
G02*
X218000000Y-65070000I0J140000D01*
G01*
G37*
G36*
G01*
X102450000Y-138375000D02*
X102950000Y-138375000D01*
G75*
G02*
X103175000Y-138600000I0J-225000D01*
G01*
X103175000Y-139050000D01*
G75*
G02*
X102950000Y-139275000I-225000J0D01*
G01*
X102450000Y-139275000D01*
G75*
G02*
X102225000Y-139050000I0J225000D01*
G01*
X102225000Y-138600000D01*
G75*
G02*
X102450000Y-138375000I225000J0D01*
G01*
G37*
G36*
G01*
X102450000Y-139925000D02*
X102950000Y-139925000D01*
G75*
G02*
X103175000Y-140150000I0J-225000D01*
G01*
X103175000Y-140600000D01*
G75*
G02*
X102950000Y-140825000I-225000J0D01*
G01*
X102450000Y-140825000D01*
G75*
G02*
X102225000Y-140600000I0J225000D01*
G01*
X102225000Y-140150000D01*
G75*
G02*
X102450000Y-139925000I225000J0D01*
G01*
G37*
G36*
G01*
X97450000Y-140025000D02*
X97950000Y-140025000D01*
G75*
G02*
X98175000Y-140250000I0J-225000D01*
G01*
X98175000Y-140700000D01*
G75*
G02*
X97950000Y-140925000I-225000J0D01*
G01*
X97450000Y-140925000D01*
G75*
G02*
X97225000Y-140700000I0J225000D01*
G01*
X97225000Y-140250000D01*
G75*
G02*
X97450000Y-140025000I225000J0D01*
G01*
G37*
G36*
G01*
X97450000Y-138475000D02*
X97950000Y-138475000D01*
G75*
G02*
X98175000Y-138700000I0J-225000D01*
G01*
X98175000Y-139150000D01*
G75*
G02*
X97950000Y-139375000I-225000J0D01*
G01*
X97450000Y-139375000D01*
G75*
G02*
X97225000Y-139150000I0J225000D01*
G01*
X97225000Y-138700000D01*
G75*
G02*
X97450000Y-138475000I225000J0D01*
G01*
G37*
G36*
G01*
X206350000Y-115225000D02*
X206850000Y-115225000D01*
G75*
G02*
X207075000Y-115450000I0J-225000D01*
G01*
X207075000Y-115900000D01*
G75*
G02*
X206850000Y-116125000I-225000J0D01*
G01*
X206350000Y-116125000D01*
G75*
G02*
X206125000Y-115900000I0J225000D01*
G01*
X206125000Y-115450000D01*
G75*
G02*
X206350000Y-115225000I225000J0D01*
G01*
G37*
G36*
G01*
X206350000Y-113675000D02*
X206850000Y-113675000D01*
G75*
G02*
X207075000Y-113900000I0J-225000D01*
G01*
X207075000Y-114350000D01*
G75*
G02*
X206850000Y-114575000I-225000J0D01*
G01*
X206350000Y-114575000D01*
G75*
G02*
X206125000Y-114350000I0J225000D01*
G01*
X206125000Y-113900000D01*
G75*
G02*
X206350000Y-113675000I225000J0D01*
G01*
G37*
G36*
G01*
X206850000Y-112725000D02*
X206350000Y-112725000D01*
G75*
G02*
X206125000Y-112500000I0J225000D01*
G01*
X206125000Y-112050000D01*
G75*
G02*
X206350000Y-111825000I225000J0D01*
G01*
X206850000Y-111825000D01*
G75*
G02*
X207075000Y-112050000I0J-225000D01*
G01*
X207075000Y-112500000D01*
G75*
G02*
X206850000Y-112725000I-225000J0D01*
G01*
G37*
G36*
G01*
X206850000Y-111175000D02*
X206350000Y-111175000D01*
G75*
G02*
X206125000Y-110950000I0J225000D01*
G01*
X206125000Y-110500000D01*
G75*
G02*
X206350000Y-110275000I225000J0D01*
G01*
X206850000Y-110275000D01*
G75*
G02*
X207075000Y-110500000I0J-225000D01*
G01*
X207075000Y-110950000D01*
G75*
G02*
X206850000Y-111175000I-225000J0D01*
G01*
G37*
G36*
G01*
X97325000Y-66650000D02*
X97325000Y-66150000D01*
G75*
G02*
X97550000Y-65925000I225000J0D01*
G01*
X98000000Y-65925000D01*
G75*
G02*
X98225000Y-66150000I0J-225000D01*
G01*
X98225000Y-66650000D01*
G75*
G02*
X98000000Y-66875000I-225000J0D01*
G01*
X97550000Y-66875000D01*
G75*
G02*
X97325000Y-66650000I0J225000D01*
G01*
G37*
G36*
G01*
X95775000Y-66650000D02*
X95775000Y-66150000D01*
G75*
G02*
X96000000Y-65925000I225000J0D01*
G01*
X96450000Y-65925000D01*
G75*
G02*
X96675000Y-66150000I0J-225000D01*
G01*
X96675000Y-66650000D01*
G75*
G02*
X96450000Y-66875000I-225000J0D01*
G01*
X96000000Y-66875000D01*
G75*
G02*
X95775000Y-66650000I0J225000D01*
G01*
G37*
G36*
G01*
X95775000Y-70050000D02*
X95775000Y-69550000D01*
G75*
G02*
X96000000Y-69325000I225000J0D01*
G01*
X96450000Y-69325000D01*
G75*
G02*
X96675000Y-69550000I0J-225000D01*
G01*
X96675000Y-70050000D01*
G75*
G02*
X96450000Y-70275000I-225000J0D01*
G01*
X96000000Y-70275000D01*
G75*
G02*
X95775000Y-70050000I0J225000D01*
G01*
G37*
G36*
G01*
X97325000Y-70050000D02*
X97325000Y-69550000D01*
G75*
G02*
X97550000Y-69325000I225000J0D01*
G01*
X98000000Y-69325000D01*
G75*
G02*
X98225000Y-69550000I0J-225000D01*
G01*
X98225000Y-70050000D01*
G75*
G02*
X98000000Y-70275000I-225000J0D01*
G01*
X97550000Y-70275000D01*
G75*
G02*
X97325000Y-70050000I0J225000D01*
G01*
G37*
D11*
X85500000Y-139450000D03*
X85500000Y-135150000D03*
X85300000Y-64550000D03*
X85300000Y-60250000D03*
M02*
