M48
; DRILL file {KiCad (6.0.1)} date Tue Jan 25 10:24:52 2022
; FORMAT={-:-/ absolute / inch / decimal}
; #@! TF.CreationDate,2022-01-25T10:24:52+01:00
; #@! TF.GenerationSoftware,Kicad,Pcbnew,(6.0.1)
; #@! TF.FileFunction,Plated,1,2,PTH
FMAT,2
INCH
; #@! TA.AperFunction,Plated,PTH,ViaDrill
T1C0.0118
; #@! TA.AperFunction,Plated,PTH,ComponentDrill
T2C0.0295
; #@! TA.AperFunction,Plated,PTH,ComponentDrill
T3C0.0315
; #@! TA.AperFunction,Plated,PTH,ComponentDrill
T4C0.0350
; #@! TA.AperFunction,Plated,PTH,ComponentDrill
T5C0.0394
; #@! TA.AperFunction,Plated,PTH,ComponentDrill
T6C0.0433
; #@! TA.AperFunction,Plated,PTH,ComponentDrill
T7C0.0791
%
G90
G05
T1
X3.3465Y-2.6535
X3.3465Y-2.6969
X3.3465Y-2.7402
X3.3465Y-2.7835
X3.3465Y-2.8189
X3.3504Y-5.0709
X3.3504Y-5.1181
X3.3504Y-5.1732
X3.3504Y-5.2362
X3.5394Y-4.0276
X3.6417Y-2.6142
X3.6417Y-2.6693
X3.6417Y-2.7205
X3.6417Y-2.7638
X3.6417Y-2.8071
X3.7244Y-3.8898
X3.8465Y-5.4173
X3.911Y-4.0449
X3.9173Y-5.6299
X3.9504Y-4.0449
X3.9528Y-4.2795
X3.9528Y-4.3189
X3.9528Y-4.3583
X3.9551Y-5.6283
X3.9961Y-5.6299
X4.0Y-4.2815
X4.0Y-4.3189
X4.0Y-4.3583
X4.0118Y-4.0433
X4.0433Y-5.4173
X4.0748Y-4.4449
X4.0984Y-3.7677
X4.1063Y-3.5669
X4.1969Y-3.8937
X4.1969Y-3.9331
X4.1969Y-3.9724
X4.2008Y-4.126
X4.2008Y-4.1654
X4.2008Y-4.2047
X4.2283Y-3.8937
X4.2283Y-3.9331
X4.2283Y-3.9724
X4.2323Y-4.126
X4.2323Y-4.1654
X4.2323Y-4.2047
X4.3622Y-4.3228
X4.3701Y-4.1811
X4.4055Y-3.878
X4.4724Y-4.2913
X4.4921Y-3.8228
X5.7323Y-3.7677
X5.8071Y-3.8465
X6.4114Y-2.6024
X6.4235Y-4.4445
X6.4235Y-5.1245
X6.4265Y-4.392
X6.4508Y-2.9173
X6.5118Y-3.1535
X6.5354Y-3.2677
X6.5354Y-3.4646
X6.5354Y-3.7008
X6.5354Y-3.8976
X6.5354Y-4.0945
X6.5354Y-4.2913
X6.5354Y-4.6063
X6.5354Y-4.8031
X6.5551Y-2.7795
X6.5669Y-3.0866
X6.604Y-3.0225
X6.6535Y-4.9213
X6.6575Y-3.08
X6.687Y-2.6417
X6.6929Y-3.2677
X6.6929Y-3.4646
X6.6929Y-3.7008
X6.6929Y-3.8976
X6.6929Y-4.0945
X6.6929Y-4.2913
X6.6929Y-4.6063
X6.6929Y-4.7638
X6.7264Y-2.9469
X6.7717Y-3.9764
X6.7717Y-4.2126
X6.7717Y-4.8425
X6.8445Y-2.6516
X6.8445Y-2.8091
X6.85Y-4.444
X6.8504Y-4.5669
X6.8504Y-4.7244
X6.8504Y-4.9213
X6.8515Y-4.392
X6.8898Y-5.4331
X6.9094Y-3.5906
X6.9134Y-2.1142
X6.9134Y-2.1693
X6.9134Y-2.248
X6.9134Y-2.3268
X6.9134Y-2.4055
X6.9134Y-2.4843
X6.9134Y-2.563
X6.9134Y-2.6417
X6.9134Y-2.7205
X6.9134Y-2.7992
X6.9134Y-2.878
X6.9134Y-2.937
X6.9134Y-3.0354
X6.9134Y-3.1142
X6.9134Y-3.1929
X6.9134Y-3.2717
X6.9134Y-3.3504
X6.9134Y-3.4213
X6.9134Y-3.5
X6.9134Y-3.6693
X6.9291Y-5.0
X6.9291Y-5.1969
X6.9685Y-4.2126
X6.9685Y-4.5669
X6.9685Y-4.7244
X6.9685Y-5.5512
X6.971Y-4.966
X6.9724Y-2.1142
X6.9764Y-3.7323
X7.0079Y-5.4331
X7.0118Y-2.3661
X7.0315Y-2.1142
X7.0315Y-2.1693
X7.0315Y-2.248
X7.0315Y-2.3268
X7.0315Y-2.4055
X7.0315Y-2.4843
X7.0315Y-2.563
X7.0315Y-2.8189
X7.0315Y-2.8681
X7.0315Y-2.9173
X7.0315Y-3.1929
X7.0315Y-3.2717
X7.0315Y-3.3504
X7.0315Y-3.5079
X7.0315Y-3.7835
X7.0354Y-3.1378
X7.0354Y-3.4252
X7.0394Y-3.5906
X7.0709Y-2.8189
X7.0709Y-2.9173
X7.0709Y-3.6339
X7.0805Y-5.167
X7.0866Y-4.5669
X7.0866Y-4.7244
X7.0866Y-5.315
X7.0866Y-5.6693
X7.0906Y-2.7323
X7.0945Y-2.5551
X7.1102Y-2.8189
X7.1102Y-2.9331
X7.1102Y-3.0039
X7.1102Y-3.6693
X7.1102Y-3.7835
X7.126Y-5.4331
X7.1437Y-2.8799
X7.1457Y-2.6614
X7.1496Y-2.9331
X7.1496Y-3.0039
X7.185Y-2.7992
X7.185Y-2.8386
X7.189Y-3.0039
X7.189Y-3.6693
X7.189Y-3.7835
X7.1929Y-2.9331
X7.2047Y-4.2126
X7.2244Y-2.7992
X7.2244Y-2.8386
X7.2283Y-2.6909
X7.2441Y-4.5669
X7.2441Y-4.7244
X7.2441Y-5.2362
X7.2441Y-5.4331
X7.2441Y-5.5512
X7.2441Y-5.6693
X7.2638Y-2.7992
X7.2638Y-2.8386
X7.2677Y-2.6909
X7.2677Y-2.9173
X7.2677Y-3.6693
X7.2677Y-3.7835
X7.3031Y-2.7992
X7.3031Y-2.8386
X7.3071Y-2.6909
X7.3071Y-2.9173
X7.311Y-3.0
X7.311Y-3.0394
X7.3425Y-2.8386
X7.3445Y-3.3425
X7.3465Y-2.9173
X7.3465Y-3.6693
X7.3465Y-3.7835
X7.4252Y-2.6417
X7.4252Y-2.6811
X7.4252Y-2.7205
X7.4252Y-2.9961
X7.4252Y-3.0354
X7.4252Y-3.6693
X7.4252Y-3.7835
X7.4409Y-4.2126
X7.4409Y-5.2362
X7.4646Y-2.6417
X7.4646Y-2.6811
X7.4646Y-2.7205
X7.4646Y-2.9961
X7.4646Y-3.0354
X7.5039Y-2.6417
X7.5039Y-2.6811
X7.5039Y-2.7205
X7.5039Y-2.7598
X7.5039Y-2.7992
X7.5039Y-2.9567
X7.5039Y-2.9961
X7.5039Y-3.0354
X7.5039Y-3.6693
X7.5039Y-3.7835
X7.5365Y-5.422
X7.5433Y-2.6417
X7.5433Y-2.6811
X7.5433Y-2.7205
X7.5433Y-2.7598
X7.5433Y-2.7992
X7.5433Y-2.8661
X7.5433Y-2.9567
X7.5433Y-2.9961
X7.5433Y-3.0354
X7.552Y-5.091
X7.5827Y-2.6417
X7.5827Y-2.6811
X7.5827Y-2.7205
X7.5827Y-2.7598
X7.5827Y-2.7992
X7.5827Y-2.9567
X7.5827Y-2.9961
X7.5827Y-3.0354
X7.5827Y-3.6693
X7.5827Y-3.7835
X7.5984Y-5.2756
X7.604Y-5.623
X7.622Y-2.6417
X7.622Y-2.6811
X7.622Y-2.7205
X7.645Y-5.518
X7.6614Y-3.6693
X7.6614Y-3.7835
X7.667Y-5.0175
X7.693Y-5.154
X7.7008Y-2.9567
X7.7165Y-5.2756
X7.7165Y-5.4724
X7.7205Y-2.6063
X7.7362Y-2.8346
X7.7402Y-2.9173
X7.7402Y-2.9961
X7.7402Y-3.6693
X7.7402Y-3.7835
X7.7559Y-5.4331
X7.767Y-5.7405
X7.7795Y-2.7087
X7.7795Y-2.7992
X7.7795Y-2.9567
X7.7795Y-3.0354
X7.7953Y-4.2126
X7.8015Y-4.8675
X7.818Y-5.1095
X7.8189Y-2.6693
X7.8189Y-2.7598
X7.8189Y-2.9961
X7.8189Y-3.0748
X7.8189Y-3.6693
X7.8189Y-3.7835
X7.8346Y-5.2756
X7.8504Y-2.878
X7.8583Y-2.6299
X7.8583Y-2.7205
X7.8583Y-3.0354
X7.8583Y-3.1142
X7.863Y-4.969
X7.863Y-5.1285
X7.8701Y-2.4016
X7.8976Y-2.5906
X7.8976Y-2.6811
X7.8976Y-3.0748
X7.8976Y-3.1535
X7.8976Y-3.6693
X7.8976Y-3.7835
X7.9134Y-5.2756
X7.9134Y-5.3937
X7.914Y-5.133
X7.9291Y-3.189
X7.937Y-2.5512
X7.937Y-2.6417
X7.937Y-3.1142
X7.9505Y-4.8665
X7.9555Y-5.4795
X7.9646Y-3.2283
X7.9685Y-2.6063
X7.9724Y-3.1496
X7.9764Y-2.5157
X7.9764Y-3.6693
X7.9764Y-3.7835
X8.0Y-2.5709
X8.0039Y-2.4882
X8.0039Y-3.2638
X8.0079Y-2.6417
X8.0079Y-2.7008
X8.0079Y-2.752
X8.0118Y-3.185
X8.0315Y-4.2126
X8.033Y-5.7115
X8.0354Y-2.4646
X8.0354Y-2.5512
X8.0433Y-3.2638
X8.0472Y-2.752
X8.0551Y-3.185
X8.0551Y-3.6693
X8.0551Y-3.7835
X8.0635Y-5.1255
X8.0735Y-4.9105
X8.0748Y-2.4646
X8.0748Y-2.5512
X8.0787Y-3.2717
X8.0866Y-2.752
X8.0984Y-3.185
X8.1102Y-5.2756
X8.1102Y-5.4961
X8.1142Y-2.4646
X8.122Y-3.2717
X8.126Y-2.7874
X8.1339Y-3.6693
X8.1339Y-3.7835
X8.1378Y-3.185
X8.14Y-4.79
X8.147Y-4.655
X8.149Y-4.852
X8.1535Y-2.4646
X8.1535Y-2.5512
X8.1535Y-2.5906
X8.1535Y-2.6299
X8.1535Y-2.6693
X8.1535Y-2.7087
X8.1614Y-3.2717
X8.1654Y-2.7874
X8.1654Y-5.6299
X8.1772Y-3.185
X8.185Y-2.7244
X8.2008Y-3.2717
X8.2047Y-2.7874
X8.2126Y-3.6693
X8.2126Y-3.7835
X8.2165Y-2.7244
X8.2165Y-3.185
X8.2323Y-2.315
X8.2323Y-2.6063
X8.2402Y-3.2638
X8.2441Y-2.7874
X8.252Y-2.7244
X8.2559Y-2.2323
X8.2559Y-2.2717
X8.2559Y-3.185
X8.2795Y-3.2638
X8.2835Y-2.6063
X8.2835Y-2.7244
X8.2835Y-2.7874
X8.2835Y-5.4961
X8.2913Y-3.6693
X8.2913Y-3.7835
X8.2953Y-2.2323
X8.2953Y-2.2717
X8.2953Y-2.311
X8.2953Y-2.3504
X8.2953Y-3.185
X8.2955Y-5.335
X8.308Y-4.79
X8.311Y-2.4291
X8.311Y-2.5354
X8.3189Y-3.2638
X8.3228Y-2.6063
X8.3228Y-2.6457
X8.3228Y-2.685
X8.3228Y-2.7244
X8.3228Y-2.7874
X8.3346Y-2.2323
X8.3346Y-2.2717
X8.3346Y-2.311
X8.3346Y-2.3504
X8.3346Y-2.4803
X8.3346Y-3.185
X8.3465Y-4.3701
X8.3583Y-2.4331
X8.3583Y-2.5354
X8.3583Y-3.2638
X8.3622Y-2.6063
X8.3622Y-2.6457
X8.3622Y-2.685
X8.3622Y-2.7244
X8.3622Y-2.7874
X8.3701Y-3.6693
X8.3701Y-3.7835
X8.374Y-2.2323
X8.374Y-2.2717
X8.374Y-2.311
X8.374Y-2.3504
X8.374Y-3.185
X8.3976Y-3.2638
X8.4016Y-2.6063
X8.4016Y-2.6457
X8.4016Y-2.685
X8.4016Y-2.7244
X8.4016Y-2.7874
X8.4134Y-2.2323
X8.4134Y-2.2717
X8.4134Y-2.311
X8.4134Y-2.3504
X8.4134Y-3.185
X8.437Y-3.2638
X8.4409Y-2.6063
X8.4409Y-2.6457
X8.4409Y-2.685
X8.4409Y-2.7244
X8.4409Y-2.7874
X8.4488Y-3.6693
X8.4488Y-3.7835
X8.4528Y-2.2323
X8.4528Y-2.2717
X8.4528Y-2.311
X8.4528Y-2.3504
X8.4528Y-3.185
X8.4764Y-3.2638
X8.4803Y-2.685
X8.4803Y-2.7244
X8.4803Y-2.7874
X8.4921Y-2.2323
X8.4921Y-2.2717
X8.4921Y-2.311
X8.4921Y-2.3504
X8.4921Y-3.185
X8.4961Y-5.4882
X8.5079Y-2.5118
X8.5079Y-2.5984
X8.5157Y-3.2638
X8.5197Y-2.685
X8.5197Y-2.7244
X8.5197Y-2.7874
X8.5276Y-3.6693
X8.5276Y-3.7835
X8.5315Y-3.185
X8.5551Y-3.2638
X8.5669Y-2.5118
X8.5669Y-2.5984
X8.5709Y-3.185
X8.5945Y-3.2638
X8.6063Y-3.6693
X8.6063Y-3.7835
X8.6102Y-3.185
X8.626Y-2.5118
X8.626Y-2.5984
X8.6339Y-3.2638
X8.6496Y-3.185
X8.6614Y-2.4567
X8.6732Y-3.2638
X8.685Y-2.5197
X8.685Y-2.5906
X8.685Y-3.6693
X8.685Y-3.7835
X8.689Y-3.185
X8.7008Y-5.5118
X8.7126Y-3.2638
X8.7283Y-3.185
X8.7441Y-2.5197
X8.7441Y-2.5906
X8.752Y-3.2638
X8.7638Y-3.6693
X8.7638Y-3.7835
X8.7677Y-3.185
X8.7795Y-2.7165
X8.7795Y-2.8346
X8.7913Y-3.2638
X8.7992Y-2.3031
X8.7992Y-2.4409
X8.7992Y-2.9724
X8.7992Y-3.0512
X8.7992Y-3.3661
X8.7992Y-3.4843
X8.8031Y-2.5197
X8.8031Y-2.5906
X8.8071Y-3.185
X8.8189Y-5.5906
X8.8425Y-3.6693
X8.8425Y-3.7835
X8.878Y-2.4803
X8.878Y-2.6378
X8.878Y-2.9724
X8.878Y-3.1496
X8.878Y-3.3268
X8.878Y-3.4843
X8.8976Y-2.3031
X8.8976Y-2.8346
X8.9213Y-3.6693
X8.9213Y-3.7835
X8.9567Y-3.3268
X8.9764Y-2.8346
X8.9764Y-2.9724
X8.9764Y-3.1496
X8.9764Y-3.4843
X8.9961Y-2.3031
X8.9961Y-2.4803
X8.9961Y-2.6378
X9.0Y-3.6693
X9.0Y-3.7835
T2
X7.2775Y-4.9025
X7.2775Y-4.9812
X7.2775Y-5.06
X7.2775Y-5.1387
T3
X3.6417Y-2.4055
X3.6417Y-2.5039
X3.6535Y-5.4409
X3.6535Y-5.5394
X4.2559Y-5.4449
X4.2559Y-5.5433
T4
X8.5472Y-4.0339
X8.5472Y-4.1339
X8.5512Y-4.9787
X8.5512Y-5.0787
T5
X2.9685Y-2.387
X2.9685Y-2.487
X2.9685Y-2.587
X2.9685Y-2.687
X2.9685Y-2.787
X2.9685Y-2.887
X2.9685Y-2.987
X2.9685Y-3.087
X2.9685Y-3.187
X2.9685Y-3.287
X2.9685Y-3.387
X2.9685Y-3.487
X2.9685Y-3.587
X2.9685Y-3.687
X2.9685Y-3.787
X2.9685Y-3.887
X2.9685Y-3.987
X2.9685Y-4.087
X2.9685Y-4.187
X2.9685Y-4.287
X2.9685Y-4.387
X2.9685Y-4.487
X2.9685Y-4.587
X2.9685Y-4.687
X2.9685Y-4.787
X2.9685Y-4.887
X2.9685Y-4.987
X2.9685Y-5.087
X2.9685Y-5.187
X2.9685Y-5.287
X2.9685Y-5.387
X2.9685Y-5.487
X3.1685Y-2.387
X3.1685Y-2.487
X3.1685Y-2.587
X3.1685Y-2.687
X3.1685Y-2.787
X3.1685Y-2.887
X3.1685Y-2.987
X3.1685Y-3.087
X3.1685Y-3.187
X3.1685Y-3.287
X3.1685Y-3.387
X3.1685Y-3.487
X3.1685Y-3.587
X3.1685Y-3.687
X3.1685Y-3.787
X3.1685Y-3.887
X3.1685Y-3.987
X3.1685Y-4.087
X3.1685Y-4.187
X3.1685Y-4.287
X3.1685Y-4.387
X3.1685Y-4.487
X3.1685Y-4.587
X3.1685Y-4.687
X3.1685Y-4.787
X3.1685Y-4.887
X3.1685Y-4.987
X3.1685Y-5.087
X3.1685Y-5.187
X3.1685Y-5.287
X3.1685Y-5.387
X3.1685Y-5.487
X8.4874Y-5.6362
X8.7874Y-5.7362
X8.9874Y-5.6362
T6
X3.8551Y-5.7283
X3.9551Y-5.7283
X4.0551Y-5.7283
T7
X8.7472Y-3.9339
X8.7472Y-4.3339
X8.7512Y-4.8787
X8.7512Y-5.2787
T0
M30
