G04 #@! TF.FileFunction,Soldermask,Top*
%FSLAX46Y46*%
G04 Gerber Fmt 4.6, Leading zero omitted, Abs format (unit mm)*
G04 Created by KiCad (PCBNEW 4.0.6) date 02/20/19 11:59:32*
%MOMM*%
%LPD*%
G01*
G04 APERTURE LIST*
%ADD10C,0.100000*%
%ADD11R,1.000000X0.900000*%
%ADD12R,1.400000X2.900000*%
%ADD13R,1.200000X1.150000*%
%ADD14R,1.150000X1.200000*%
%ADD15R,1.400000X2.000000*%
%ADD16R,2.000000X1.400000*%
%ADD17R,2.900000X1.400000*%
%ADD18C,2.600000*%
%ADD19C,2.400000*%
%ADD20R,2.100000X2.100000*%
%ADD21O,2.100000X2.100000*%
%ADD22R,0.900000X1.300000*%
%ADD23R,1.300000X0.900000*%
%ADD24R,2.000000X0.810000*%
%ADD25R,2.150000X2.700000*%
%ADD26R,0.820000X1.290000*%
%ADD27R,1.112500X1.225000*%
%ADD28R,1.300000X2.900000*%
%ADD29C,3.100000*%
%ADD30R,1.850000X0.850000*%
G04 APERTURE END LIST*
D10*
D11*
X139800000Y-82500000D03*
X140900000Y-82500000D03*
X139850000Y-71300000D03*
X140950000Y-71300000D03*
D12*
X105100000Y-57500000D03*
X102100000Y-57500000D03*
X96800000Y-57500000D03*
X99800000Y-57500000D03*
D13*
X136450000Y-77300000D03*
X134950000Y-77300000D03*
D14*
X134700000Y-71950000D03*
X134700000Y-73450000D03*
D15*
X105000000Y-67000000D03*
X108000000Y-67000000D03*
D16*
X94200000Y-62000000D03*
X94200000Y-59000000D03*
D14*
X132900000Y-82350000D03*
X132900000Y-80850000D03*
X120100000Y-69850000D03*
X120100000Y-71350000D03*
D17*
X108000000Y-64100000D03*
X108000000Y-61100000D03*
D12*
X99500000Y-67600000D03*
X96500000Y-67600000D03*
D14*
X117300000Y-81300000D03*
X117300000Y-82800000D03*
X117350000Y-71200000D03*
X117350000Y-72700000D03*
X104902000Y-71894000D03*
X104902000Y-73394000D03*
X101854000Y-78728000D03*
X101854000Y-77228000D03*
X104894000Y-84582000D03*
X104894000Y-83082000D03*
D13*
X111240000Y-74676000D03*
X109740000Y-74676000D03*
D18*
X143660000Y-85040000D03*
X143660000Y-79960000D03*
X148740000Y-79960000D03*
X148740000Y-85040000D03*
D19*
X146200000Y-82500000D03*
D18*
X143560000Y-73840000D03*
X143560000Y-68760000D03*
X148640000Y-68760000D03*
X148640000Y-73840000D03*
D19*
X146100000Y-71300000D03*
D18*
X93726000Y-85090000D03*
X93726000Y-80010000D03*
X98806000Y-80010000D03*
X98806000Y-85090000D03*
D19*
X96266000Y-82550000D03*
D20*
X98420000Y-53200000D03*
D21*
X100960000Y-53200000D03*
X103500000Y-53200000D03*
D22*
X103500000Y-67300000D03*
X102000000Y-67300000D03*
D23*
X93900000Y-63600000D03*
X93900000Y-65100000D03*
X125450000Y-70800000D03*
X125450000Y-72300000D03*
X122950000Y-81200000D03*
X122950000Y-79700000D03*
X120100000Y-72900000D03*
X120100000Y-74400000D03*
X125800000Y-82550000D03*
X125800000Y-81050000D03*
D22*
X120050000Y-77350000D03*
X121550000Y-77350000D03*
X115850000Y-79700000D03*
X117350000Y-79700000D03*
X115900000Y-74400000D03*
X117400000Y-74400000D03*
D23*
X111950000Y-80950000D03*
X111950000Y-82450000D03*
X111900000Y-78200000D03*
X111900000Y-79700000D03*
D22*
X106184000Y-75184000D03*
X107684000Y-75184000D03*
D23*
X101854000Y-74192000D03*
X101854000Y-75692000D03*
D22*
X103402000Y-75184000D03*
X104902000Y-75184000D03*
D24*
X132854300Y-79240000D03*
X132854300Y-78605000D03*
X132854300Y-77970000D03*
X132854300Y-77335000D03*
X132854300Y-76700000D03*
X132854300Y-76065000D03*
X132854300Y-75430000D03*
X132854300Y-74795000D03*
X127545700Y-74795000D03*
X127545700Y-75430000D03*
X127545700Y-76065000D03*
X127545700Y-76700000D03*
X127545700Y-77335000D03*
X127545700Y-77970000D03*
X127545700Y-78605000D03*
X127545700Y-79240000D03*
D25*
X130200000Y-76987500D03*
D26*
X105400000Y-60500000D03*
X104750000Y-60500000D03*
X104100000Y-60500000D03*
X103450000Y-60500000D03*
X102800000Y-60500000D03*
X102150000Y-60500000D03*
X102150000Y-64710000D03*
X102800000Y-64710000D03*
X103450000Y-64710000D03*
X104100000Y-64710000D03*
X104750000Y-64710000D03*
X105400000Y-64710000D03*
D27*
X102706250Y-63017500D03*
X103418750Y-63017500D03*
X104131250Y-63017500D03*
X104843750Y-63017500D03*
X102706250Y-62192500D03*
X103418750Y-62192500D03*
X104131250Y-62192500D03*
X104843750Y-62192500D03*
D26*
X99500000Y-60590000D03*
X98850000Y-60590000D03*
X98200000Y-60590000D03*
X97550000Y-60590000D03*
X96900000Y-60590000D03*
X96250000Y-60590000D03*
X96250000Y-64800000D03*
X96900000Y-64800000D03*
X97550000Y-64800000D03*
X98200000Y-64800000D03*
X98850000Y-64800000D03*
X99500000Y-64800000D03*
D27*
X96806250Y-63107500D03*
X97518750Y-63107500D03*
X98231250Y-63107500D03*
X98943750Y-63107500D03*
X96806250Y-62282500D03*
X97518750Y-62282500D03*
X98231250Y-62282500D03*
X98943750Y-62282500D03*
D14*
X122950000Y-84050000D03*
X122950000Y-82550000D03*
D28*
X96160000Y-75946000D03*
X99060000Y-75946000D03*
D29*
X148000000Y-54000000D03*
X111000000Y-87884000D03*
X111000000Y-54000000D03*
X139000000Y-88000000D03*
D30*
X105000000Y-79050000D03*
X105000000Y-79700000D03*
X105000000Y-80350000D03*
X105000000Y-81000000D03*
X109400000Y-81000000D03*
X109400000Y-80350000D03*
X109400000Y-79700000D03*
X109400000Y-79050000D03*
M02*
