M48
;DRILL file {KiCad 4.0.6} date 02/20/19 11:59:34
;FORMAT={-:-/ absolute / metric / decimal}
FMAT,2
METRIC,TZ
T1C0.400
T2C1.000
T3C1.500
T4C1.700
%
G90
G05
M71
T1
X93.9Y-65.1
X94.2Y-59.
X96.5Y-67.6
X96.8Y-57.5
X96.806Y-62.282
X96.806Y-63.107
X97.519Y-62.282
X97.519Y-63.107
X97.6Y-65.6
X98.231Y-62.282
X98.231Y-63.107
X98.944Y-62.282
X98.944Y-63.107
X99.5Y-67.6
X99.8Y-57.5
X100.96Y-54.8
X100.96Y-55.6
X100.96Y-56.4
X100.96Y-57.2
X102.Y-67.3
X102.09Y-60.5
X102.1Y-57.5
X102.706Y-62.192
X102.706Y-63.017
X103.4Y-79.7
X103.402Y-75.184
X103.419Y-62.192
X103.419Y-63.017
X104.131Y-62.192
X104.131Y-63.017
X104.844Y-62.192
X104.844Y-63.017
X104.894Y-84.582
X104.902Y-71.894
X104.95Y-81.075
X105.1Y-57.5
X106.Y-51.5
X106.5Y-80.4
X107.Y-51.5
X108.Y-51.5
X108.Y-61.1
X108.Y-67.
X109.Y-51.5
X109.74Y-74.676
X109.85Y-77.14
X110.Y-51.5
X111.Y-51.5
X111.24Y-74.676
X111.95Y-82.45
X112.Y-51.5
X113.Y-51.5
X113.45Y-78.2
X113.45Y-80.95
X114.Y-51.5
X115.Y-51.5
X115.4Y-64.1
X116.Y-51.5
X116.9Y-75.65
X116.9Y-76.45
X116.9Y-77.4
X116.9Y-78.45
X117.Y-51.5
X117.Y-52.5
X117.Y-53.5
X117.Y-54.5
X117.Y-55.5
X117.Y-56.5
X117.Y-57.5
X117.Y-58.5
X117.Y-59.5
X117.Y-60.5
X117.Y-61.5
X117.Y-62.5
X117.Y-65.5
X117.Y-66.5
X117.Y-67.5
X117.Y-68.5
X117.Y-69.5
X117.Y-84.5
X117.Y-85.5
X117.Y-86.5
X117.Y-89.
X117.Y-90.5
X117.3Y-82.8
X117.35Y-71.2
X117.85Y-78.45
X118.Y-51.5
X118.3Y-75.35
X118.45Y-80.65
X118.7Y-72.1
X118.7Y-73.35
X118.85Y-78.75
X119.Y-51.5
X119.25Y-75.35
X119.9Y-78.75
X120.Y-51.5
X120.05Y-77.35
X120.1Y-69.85
X120.1Y-72.9
X120.95Y-78.75
X121.Y-51.5
X121.Y-75.3
X121.2Y-73.5
X122.Y-51.5
X122.05Y-78.75
X122.15Y-75.35
X122.35Y-73.45
X122.7Y-76.4
X122.95Y-78.6
X122.95Y-84.05
X123.Y-51.5
X123.3Y-75.35
X123.5Y-73.45
X123.75Y-76.4
X123.85Y-78.75
X124.Y-51.5
X124.25Y-75.8
X124.35Y-80.7
X124.45Y-73.45
X124.8Y-78.3
X124.9Y-76.4
X125.Y-51.5
X125.15Y-89.1
X126.Y-51.5
X126.45Y-73.55
X126.7Y-80.2
X127.Y-51.5
X127.5Y-80.2
X127.508Y-81.28
X127.55Y-74.
X128.Y-51.5
X128.778Y-80.264
X128.778Y-81.28
X129.Y-51.5
X129.032Y-78.994
X129.2Y-74.95
X130.Y-51.5
X130.048Y-81.534
X130.2Y-74.95
X130.2Y-76.987
X130.302Y-78.994
X131.Y-51.5
X131.064Y-81.28
X131.2Y-74.95
X131.318Y-78.994
X131.572Y-80.264
X132.Y-51.5
X132.85Y-74.
X132.9Y-82.35
X133.Y-51.5
X133.55Y-73.3
X134.Y-51.5
X134.112Y-80.772
X134.366Y-79.756
X134.7Y-71.95
X135.Y-51.5
X135.382Y-75.946
X135.382Y-80.772
X135.89Y-72.644
X135.89Y-78.486
X136.Y-51.5
X136.398Y-74.93
X136.45Y-77.3
X136.652Y-71.882
X136.652Y-82.042
X136.906Y-79.502
X137.Y-51.5
X137.414Y-73.914
X137.668Y-70.866
X137.922Y-80.518
X137.922Y-83.312
X138.Y-51.5
X138.43Y-72.898
X138.938Y-81.534
X139.Y-51.5
X139.192Y-70.104
X139.446Y-72.39
X139.446Y-83.566
X139.954Y-81.28
X140.Y-51.5
X140.462Y-70.104
X140.462Y-72.39
X140.716Y-83.566
X141.Y-51.5
X141.224Y-81.28
X141.732Y-70.104
X141.732Y-72.39
X142.Y-51.5
X142.24Y-81.534
X142.24Y-83.566
X143.Y-51.5
X144.Y-51.5
X145.Y-51.5
X146.Y-51.5
X147.Y-51.5
X148.Y-51.5
X149.Y-51.5
X150.Y-51.5
T2
X98.42Y-53.2
X100.96Y-53.2
X103.5Y-53.2
T3
X96.266Y-82.55
X146.1Y-71.3
X146.2Y-82.5
T4
X93.726Y-80.01
X93.726Y-85.09
X98.806Y-80.01
X98.806Y-85.09
X143.56Y-68.76
X143.56Y-73.84
X143.66Y-79.96
X143.66Y-85.04
X148.64Y-68.76
X148.64Y-73.84
X148.74Y-79.96
X148.74Y-85.04
T0
M30
