G04 #@! TF.GenerationSoftware,KiCad,Pcbnew,(6.0.7)*
G04 #@! TF.CreationDate,2023-03-22T22:30:53+01:00*
G04 #@! TF.ProjectId,phase-frequency_detector,70686173-652d-4667-9265-7175656e6379,1.4.1*
G04 #@! TF.SameCoordinates,Original*
G04 #@! TF.FileFunction,Legend,Top*
G04 #@! TF.FilePolarity,Positive*
%FSLAX46Y46*%
G04 Gerber Fmt 4.6, Leading zero omitted, Abs format (unit mm)*
G04 Created by KiCad (PCBNEW (6.0.7)) date 2023-03-22 22:30:53*
%MOMM*%
%LPD*%
G01*
G04 APERTURE LIST*
%ADD10C,0.200000*%
%ADD11C,0.300000*%
%ADD12C,0.150000*%
%ADD13C,0.600000*%
%ADD14C,0.120000*%
%ADD15C,1.000000*%
G04 APERTURE END LIST*
D10*
X108368095Y-54642380D02*
X108368095Y-53642380D01*
X108749047Y-53642380D01*
X108844285Y-53690000D01*
X108891904Y-53737619D01*
X108939523Y-53832857D01*
X108939523Y-53975714D01*
X108891904Y-54070952D01*
X108844285Y-54118571D01*
X108749047Y-54166190D01*
X108368095Y-54166190D01*
X109368095Y-54642380D02*
X109368095Y-53642380D01*
X109796666Y-54642380D02*
X109796666Y-54118571D01*
X109749047Y-54023333D01*
X109653809Y-53975714D01*
X109510952Y-53975714D01*
X109415714Y-54023333D01*
X109368095Y-54070952D01*
X110701428Y-54642380D02*
X110701428Y-54118571D01*
X110653809Y-54023333D01*
X110558571Y-53975714D01*
X110368095Y-53975714D01*
X110272857Y-54023333D01*
X110701428Y-54594761D02*
X110606190Y-54642380D01*
X110368095Y-54642380D01*
X110272857Y-54594761D01*
X110225238Y-54499523D01*
X110225238Y-54404285D01*
X110272857Y-54309047D01*
X110368095Y-54261428D01*
X110606190Y-54261428D01*
X110701428Y-54213809D01*
X111130000Y-54594761D02*
X111225238Y-54642380D01*
X111415714Y-54642380D01*
X111510952Y-54594761D01*
X111558571Y-54499523D01*
X111558571Y-54451904D01*
X111510952Y-54356666D01*
X111415714Y-54309047D01*
X111272857Y-54309047D01*
X111177619Y-54261428D01*
X111130000Y-54166190D01*
X111130000Y-54118571D01*
X111177619Y-54023333D01*
X111272857Y-53975714D01*
X111415714Y-53975714D01*
X111510952Y-54023333D01*
X112368095Y-54594761D02*
X112272857Y-54642380D01*
X112082380Y-54642380D01*
X111987142Y-54594761D01*
X111939523Y-54499523D01*
X111939523Y-54118571D01*
X111987142Y-54023333D01*
X112082380Y-53975714D01*
X112272857Y-53975714D01*
X112368095Y-54023333D01*
X112415714Y-54118571D01*
X112415714Y-54213809D01*
X111939523Y-54309047D01*
X112844285Y-54261428D02*
X113606190Y-54261428D01*
X114415714Y-54118571D02*
X114082380Y-54118571D01*
X114082380Y-54642380D02*
X114082380Y-53642380D01*
X114558571Y-53642380D01*
X114939523Y-54642380D02*
X114939523Y-53975714D01*
X114939523Y-54166190D02*
X114987142Y-54070952D01*
X115034761Y-54023333D01*
X115130000Y-53975714D01*
X115225238Y-53975714D01*
X115939523Y-54594761D02*
X115844285Y-54642380D01*
X115653809Y-54642380D01*
X115558571Y-54594761D01*
X115510952Y-54499523D01*
X115510952Y-54118571D01*
X115558571Y-54023333D01*
X115653809Y-53975714D01*
X115844285Y-53975714D01*
X115939523Y-54023333D01*
X115987142Y-54118571D01*
X115987142Y-54213809D01*
X115510952Y-54309047D01*
X116844285Y-53975714D02*
X116844285Y-54975714D01*
X116844285Y-54594761D02*
X116749047Y-54642380D01*
X116558571Y-54642380D01*
X116463333Y-54594761D01*
X116415714Y-54547142D01*
X116368095Y-54451904D01*
X116368095Y-54166190D01*
X116415714Y-54070952D01*
X116463333Y-54023333D01*
X116558571Y-53975714D01*
X116749047Y-53975714D01*
X116844285Y-54023333D01*
X117749047Y-53975714D02*
X117749047Y-54642380D01*
X117320476Y-53975714D02*
X117320476Y-54499523D01*
X117368095Y-54594761D01*
X117463333Y-54642380D01*
X117606190Y-54642380D01*
X117701428Y-54594761D01*
X117749047Y-54547142D01*
X118606190Y-54594761D02*
X118510952Y-54642380D01*
X118320476Y-54642380D01*
X118225238Y-54594761D01*
X118177619Y-54499523D01*
X118177619Y-54118571D01*
X118225238Y-54023333D01*
X118320476Y-53975714D01*
X118510952Y-53975714D01*
X118606190Y-54023333D01*
X118653809Y-54118571D01*
X118653809Y-54213809D01*
X118177619Y-54309047D01*
X119082380Y-53975714D02*
X119082380Y-54642380D01*
X119082380Y-54070952D02*
X119130000Y-54023333D01*
X119225238Y-53975714D01*
X119368095Y-53975714D01*
X119463333Y-54023333D01*
X119510952Y-54118571D01*
X119510952Y-54642380D01*
X120415714Y-54594761D02*
X120320476Y-54642380D01*
X120130000Y-54642380D01*
X120034761Y-54594761D01*
X119987142Y-54547142D01*
X119939523Y-54451904D01*
X119939523Y-54166190D01*
X119987142Y-54070952D01*
X120034761Y-54023333D01*
X120130000Y-53975714D01*
X120320476Y-53975714D01*
X120415714Y-54023333D01*
X120749047Y-53975714D02*
X120987142Y-54642380D01*
X121225238Y-53975714D02*
X120987142Y-54642380D01*
X120891904Y-54880476D01*
X120844285Y-54928095D01*
X120749047Y-54975714D01*
X122368095Y-54642380D02*
X122368095Y-53642380D01*
X122606190Y-53642380D01*
X122749047Y-53690000D01*
X122844285Y-53785238D01*
X122891904Y-53880476D01*
X122939523Y-54070952D01*
X122939523Y-54213809D01*
X122891904Y-54404285D01*
X122844285Y-54499523D01*
X122749047Y-54594761D01*
X122606190Y-54642380D01*
X122368095Y-54642380D01*
X123749047Y-54594761D02*
X123653809Y-54642380D01*
X123463333Y-54642380D01*
X123368095Y-54594761D01*
X123320476Y-54499523D01*
X123320476Y-54118571D01*
X123368095Y-54023333D01*
X123463333Y-53975714D01*
X123653809Y-53975714D01*
X123749047Y-54023333D01*
X123796666Y-54118571D01*
X123796666Y-54213809D01*
X123320476Y-54309047D01*
X124082380Y-53975714D02*
X124463333Y-53975714D01*
X124225238Y-53642380D02*
X124225238Y-54499523D01*
X124272857Y-54594761D01*
X124368095Y-54642380D01*
X124463333Y-54642380D01*
X125177619Y-54594761D02*
X125082380Y-54642380D01*
X124891904Y-54642380D01*
X124796666Y-54594761D01*
X124749047Y-54499523D01*
X124749047Y-54118571D01*
X124796666Y-54023333D01*
X124891904Y-53975714D01*
X125082380Y-53975714D01*
X125177619Y-54023333D01*
X125225238Y-54118571D01*
X125225238Y-54213809D01*
X124749047Y-54309047D01*
X126082380Y-54594761D02*
X125987142Y-54642380D01*
X125796666Y-54642380D01*
X125701428Y-54594761D01*
X125653809Y-54547142D01*
X125606190Y-54451904D01*
X125606190Y-54166190D01*
X125653809Y-54070952D01*
X125701428Y-54023333D01*
X125796666Y-53975714D01*
X125987142Y-53975714D01*
X126082380Y-54023333D01*
X126368095Y-53975714D02*
X126749047Y-53975714D01*
X126510952Y-53642380D02*
X126510952Y-54499523D01*
X126558571Y-54594761D01*
X126653809Y-54642380D01*
X126749047Y-54642380D01*
X127225238Y-54642380D02*
X127130000Y-54594761D01*
X127082380Y-54547142D01*
X127034761Y-54451904D01*
X127034761Y-54166190D01*
X127082380Y-54070952D01*
X127130000Y-54023333D01*
X127225238Y-53975714D01*
X127368095Y-53975714D01*
X127463333Y-54023333D01*
X127510952Y-54070952D01*
X127558571Y-54166190D01*
X127558571Y-54451904D01*
X127510952Y-54547142D01*
X127463333Y-54594761D01*
X127368095Y-54642380D01*
X127225238Y-54642380D01*
X127987142Y-54642380D02*
X127987142Y-53975714D01*
X127987142Y-54166190D02*
X128034761Y-54070952D01*
X128082380Y-54023333D01*
X128177619Y-53975714D01*
X128272857Y-53975714D01*
X108558571Y-55252380D02*
X108653809Y-55252380D01*
X108749047Y-55300000D01*
X108796666Y-55347619D01*
X108844285Y-55442857D01*
X108891904Y-55633333D01*
X108891904Y-55871428D01*
X108844285Y-56061904D01*
X108796666Y-56157142D01*
X108749047Y-56204761D01*
X108653809Y-56252380D01*
X108558571Y-56252380D01*
X108463333Y-56204761D01*
X108415714Y-56157142D01*
X108368095Y-56061904D01*
X108320476Y-55871428D01*
X108320476Y-55633333D01*
X108368095Y-55442857D01*
X108415714Y-55347619D01*
X108463333Y-55300000D01*
X108558571Y-55252380D01*
X109225238Y-55252380D02*
X109844285Y-55252380D01*
X109510952Y-55633333D01*
X109653809Y-55633333D01*
X109749047Y-55680952D01*
X109796666Y-55728571D01*
X109844285Y-55823809D01*
X109844285Y-56061904D01*
X109796666Y-56157142D01*
X109749047Y-56204761D01*
X109653809Y-56252380D01*
X109368095Y-56252380D01*
X109272857Y-56204761D01*
X109225238Y-56157142D01*
X110987142Y-55204761D02*
X110130000Y-56490476D01*
X111272857Y-55347619D02*
X111320476Y-55300000D01*
X111415714Y-55252380D01*
X111653809Y-55252380D01*
X111749047Y-55300000D01*
X111796666Y-55347619D01*
X111844285Y-55442857D01*
X111844285Y-55538095D01*
X111796666Y-55680952D01*
X111225238Y-56252380D01*
X111844285Y-56252380D01*
X112463333Y-55252380D02*
X112558571Y-55252380D01*
X112653809Y-55300000D01*
X112701428Y-55347619D01*
X112749047Y-55442857D01*
X112796666Y-55633333D01*
X112796666Y-55871428D01*
X112749047Y-56061904D01*
X112701428Y-56157142D01*
X112653809Y-56204761D01*
X112558571Y-56252380D01*
X112463333Y-56252380D01*
X112368095Y-56204761D01*
X112320476Y-56157142D01*
X112272857Y-56061904D01*
X112225238Y-55871428D01*
X112225238Y-55633333D01*
X112272857Y-55442857D01*
X112320476Y-55347619D01*
X112368095Y-55300000D01*
X112463333Y-55252380D01*
X113177619Y-55347619D02*
X113225238Y-55300000D01*
X113320476Y-55252380D01*
X113558571Y-55252380D01*
X113653809Y-55300000D01*
X113701428Y-55347619D01*
X113749047Y-55442857D01*
X113749047Y-55538095D01*
X113701428Y-55680952D01*
X113130000Y-56252380D01*
X113749047Y-56252380D01*
X114082380Y-55252380D02*
X114701428Y-55252380D01*
X114368095Y-55633333D01*
X114510952Y-55633333D01*
X114606190Y-55680952D01*
X114653809Y-55728571D01*
X114701428Y-55823809D01*
X114701428Y-56061904D01*
X114653809Y-56157142D01*
X114606190Y-56204761D01*
X114510952Y-56252380D01*
X114225238Y-56252380D01*
X114130000Y-56204761D01*
X114082380Y-56157142D01*
X116463333Y-56252380D02*
X116130000Y-55776190D01*
X115891904Y-56252380D02*
X115891904Y-55252380D01*
X116272857Y-55252380D01*
X116368095Y-55300000D01*
X116415714Y-55347619D01*
X116463333Y-55442857D01*
X116463333Y-55585714D01*
X116415714Y-55680952D01*
X116368095Y-55728571D01*
X116272857Y-55776190D01*
X115891904Y-55776190D01*
X117272857Y-56204761D02*
X117177619Y-56252380D01*
X116987142Y-56252380D01*
X116891904Y-56204761D01*
X116844285Y-56109523D01*
X116844285Y-55728571D01*
X116891904Y-55633333D01*
X116987142Y-55585714D01*
X117177619Y-55585714D01*
X117272857Y-55633333D01*
X117320476Y-55728571D01*
X117320476Y-55823809D01*
X116844285Y-55919047D01*
X117653809Y-55585714D02*
X117891904Y-56252380D01*
X118130000Y-55585714D01*
X119796666Y-56252380D02*
X119225238Y-56252380D01*
X119510952Y-56252380D02*
X119510952Y-55252380D01*
X119415714Y-55395238D01*
X119320476Y-55490476D01*
X119225238Y-55538095D01*
X120225238Y-56157142D02*
X120272857Y-56204761D01*
X120225238Y-56252380D01*
X120177619Y-56204761D01*
X120225238Y-56157142D01*
X120225238Y-56252380D01*
X121130000Y-55585714D02*
X121130000Y-56252380D01*
X120891904Y-55204761D02*
X120653809Y-55919047D01*
X121272857Y-55919047D01*
X121653809Y-56157142D02*
X121701428Y-56204761D01*
X121653809Y-56252380D01*
X121606190Y-56204761D01*
X121653809Y-56157142D01*
X121653809Y-56252380D01*
X122653809Y-56252380D02*
X122082380Y-56252380D01*
X122368095Y-56252380D02*
X122368095Y-55252380D01*
X122272857Y-55395238D01*
X122177619Y-55490476D01*
X122082380Y-55538095D01*
X108368095Y-57862380D02*
X108368095Y-56862380D01*
X108606190Y-56862380D01*
X108749047Y-56910000D01*
X108844285Y-57005238D01*
X108891904Y-57100476D01*
X108939523Y-57290952D01*
X108939523Y-57433809D01*
X108891904Y-57624285D01*
X108844285Y-57719523D01*
X108749047Y-57814761D01*
X108606190Y-57862380D01*
X108368095Y-57862380D01*
X109749047Y-57814761D02*
X109653809Y-57862380D01*
X109463333Y-57862380D01*
X109368095Y-57814761D01*
X109320476Y-57719523D01*
X109320476Y-57338571D01*
X109368095Y-57243333D01*
X109463333Y-57195714D01*
X109653809Y-57195714D01*
X109749047Y-57243333D01*
X109796666Y-57338571D01*
X109796666Y-57433809D01*
X109320476Y-57529047D01*
X110177619Y-57814761D02*
X110272857Y-57862380D01*
X110463333Y-57862380D01*
X110558571Y-57814761D01*
X110606190Y-57719523D01*
X110606190Y-57671904D01*
X110558571Y-57576666D01*
X110463333Y-57529047D01*
X110320476Y-57529047D01*
X110225238Y-57481428D01*
X110177619Y-57386190D01*
X110177619Y-57338571D01*
X110225238Y-57243333D01*
X110320476Y-57195714D01*
X110463333Y-57195714D01*
X110558571Y-57243333D01*
X111034761Y-57862380D02*
X111034761Y-57195714D01*
X111034761Y-56862380D02*
X110987142Y-56910000D01*
X111034761Y-56957619D01*
X111082380Y-56910000D01*
X111034761Y-56862380D01*
X111034761Y-56957619D01*
X111939523Y-57195714D02*
X111939523Y-58005238D01*
X111891904Y-58100476D01*
X111844285Y-58148095D01*
X111749047Y-58195714D01*
X111606190Y-58195714D01*
X111510952Y-58148095D01*
X111939523Y-57814761D02*
X111844285Y-57862380D01*
X111653809Y-57862380D01*
X111558571Y-57814761D01*
X111510952Y-57767142D01*
X111463333Y-57671904D01*
X111463333Y-57386190D01*
X111510952Y-57290952D01*
X111558571Y-57243333D01*
X111653809Y-57195714D01*
X111844285Y-57195714D01*
X111939523Y-57243333D01*
X112415714Y-57195714D02*
X112415714Y-57862380D01*
X112415714Y-57290952D02*
X112463333Y-57243333D01*
X112558571Y-57195714D01*
X112701428Y-57195714D01*
X112796666Y-57243333D01*
X112844285Y-57338571D01*
X112844285Y-57862380D01*
X113320476Y-57767142D02*
X113368095Y-57814761D01*
X113320476Y-57862380D01*
X113272857Y-57814761D01*
X113320476Y-57767142D01*
X113320476Y-57862380D01*
X113320476Y-57243333D02*
X113368095Y-57290952D01*
X113320476Y-57338571D01*
X113272857Y-57290952D01*
X113320476Y-57243333D01*
X113320476Y-57338571D01*
X114415714Y-56862380D02*
X114987142Y-56862380D01*
X114701428Y-57862380D02*
X114701428Y-56862380D01*
X115320476Y-57862380D02*
X115320476Y-57195714D01*
X115320476Y-56862380D02*
X115272857Y-56910000D01*
X115320476Y-56957619D01*
X115368095Y-56910000D01*
X115320476Y-56862380D01*
X115320476Y-56957619D01*
X115939523Y-57862380D02*
X115844285Y-57814761D01*
X115796666Y-57719523D01*
X115796666Y-56862380D01*
X116320476Y-57862380D02*
X116320476Y-57195714D01*
X116320476Y-57290952D02*
X116368095Y-57243333D01*
X116463333Y-57195714D01*
X116606190Y-57195714D01*
X116701428Y-57243333D01*
X116749047Y-57338571D01*
X116749047Y-57862380D01*
X116749047Y-57338571D02*
X116796666Y-57243333D01*
X116891904Y-57195714D01*
X117034761Y-57195714D01*
X117130000Y-57243333D01*
X117177619Y-57338571D01*
X117177619Y-57862380D01*
X118082380Y-57862380D02*
X118082380Y-57338571D01*
X118034761Y-57243333D01*
X117939523Y-57195714D01*
X117749047Y-57195714D01*
X117653809Y-57243333D01*
X118082380Y-57814761D02*
X117987142Y-57862380D01*
X117749047Y-57862380D01*
X117653809Y-57814761D01*
X117606190Y-57719523D01*
X117606190Y-57624285D01*
X117653809Y-57529047D01*
X117749047Y-57481428D01*
X117987142Y-57481428D01*
X118082380Y-57433809D01*
X118558571Y-57195714D02*
X118558571Y-57862380D01*
X118558571Y-57290952D02*
X118606190Y-57243333D01*
X118701428Y-57195714D01*
X118844285Y-57195714D01*
X118939523Y-57243333D01*
X118987142Y-57338571D01*
X118987142Y-57862380D01*
X120225238Y-57862380D02*
X120225238Y-56862380D01*
X120606190Y-56862380D01*
X120701428Y-56910000D01*
X120749047Y-56957619D01*
X120796666Y-57052857D01*
X120796666Y-57195714D01*
X120749047Y-57290952D01*
X120701428Y-57338571D01*
X120606190Y-57386190D01*
X120225238Y-57386190D01*
X121225238Y-57862380D02*
X121225238Y-57195714D01*
X121225238Y-57386190D02*
X121272857Y-57290952D01*
X121320476Y-57243333D01*
X121415714Y-57195714D01*
X121510952Y-57195714D01*
X122225238Y-57814761D02*
X122130000Y-57862380D01*
X121939523Y-57862380D01*
X121844285Y-57814761D01*
X121796666Y-57719523D01*
X121796666Y-57338571D01*
X121844285Y-57243333D01*
X121939523Y-57195714D01*
X122130000Y-57195714D01*
X122225238Y-57243333D01*
X122272857Y-57338571D01*
X122272857Y-57433809D01*
X121796666Y-57529047D01*
X123130000Y-57195714D02*
X123130000Y-57862380D01*
X122701428Y-57195714D02*
X122701428Y-57719523D01*
X122749047Y-57814761D01*
X122844285Y-57862380D01*
X122987142Y-57862380D01*
X123082380Y-57814761D01*
X123130000Y-57767142D01*
X123558571Y-57814761D02*
X123653809Y-57862380D01*
X123844285Y-57862380D01*
X123939523Y-57814761D01*
X123987142Y-57719523D01*
X123987142Y-57671904D01*
X123939523Y-57576666D01*
X123844285Y-57529047D01*
X123701428Y-57529047D01*
X123606190Y-57481428D01*
X123558571Y-57386190D01*
X123558571Y-57338571D01*
X123606190Y-57243333D01*
X123701428Y-57195714D01*
X123844285Y-57195714D01*
X123939523Y-57243333D01*
X124844285Y-57814761D02*
X124749047Y-57862380D01*
X124558571Y-57862380D01*
X124463333Y-57814761D01*
X124415714Y-57767142D01*
X124368095Y-57671904D01*
X124368095Y-57386190D01*
X124415714Y-57290952D01*
X124463333Y-57243333D01*
X124558571Y-57195714D01*
X124749047Y-57195714D01*
X124844285Y-57243333D01*
X125272857Y-57862380D02*
X125272857Y-56862380D01*
X125701428Y-57862380D02*
X125701428Y-57338571D01*
X125653809Y-57243333D01*
X125558571Y-57195714D01*
X125415714Y-57195714D01*
X125320476Y-57243333D01*
X125272857Y-57290952D01*
X126320476Y-57862380D02*
X126225238Y-57814761D01*
X126177619Y-57767142D01*
X126130000Y-57671904D01*
X126130000Y-57386190D01*
X126177619Y-57290952D01*
X126225238Y-57243333D01*
X126320476Y-57195714D01*
X126463333Y-57195714D01*
X126558571Y-57243333D01*
X126606190Y-57290952D01*
X126653809Y-57386190D01*
X126653809Y-57671904D01*
X126606190Y-57767142D01*
X126558571Y-57814761D01*
X126463333Y-57862380D01*
X126320476Y-57862380D01*
X126939523Y-57195714D02*
X127320476Y-57195714D01*
X127082380Y-57862380D02*
X127082380Y-57005238D01*
X127130000Y-56910000D01*
X127225238Y-56862380D01*
X127320476Y-56862380D01*
X127510952Y-57195714D02*
X127891904Y-57195714D01*
X127653809Y-57862380D02*
X127653809Y-57005238D01*
X127701428Y-56910000D01*
X127796666Y-56862380D01*
X127891904Y-56862380D01*
D11*
X76657142Y-56907142D02*
X77800000Y-56907142D01*
X79300000Y-57478571D02*
X78442857Y-57478571D01*
X78871428Y-57478571D02*
X78871428Y-55978571D01*
X78728571Y-56192857D01*
X78585714Y-56335714D01*
X78442857Y-56407142D01*
X80657142Y-55978571D02*
X79942857Y-55978571D01*
X79871428Y-56692857D01*
X79942857Y-56621428D01*
X80085714Y-56550000D01*
X80442857Y-56550000D01*
X80585714Y-56621428D01*
X80657142Y-56692857D01*
X80728571Y-56835714D01*
X80728571Y-57192857D01*
X80657142Y-57335714D01*
X80585714Y-57407142D01*
X80442857Y-57478571D01*
X80085714Y-57478571D01*
X79942857Y-57407142D01*
X79871428Y-57335714D01*
X81157142Y-55978571D02*
X81657142Y-57478571D01*
X82157142Y-55978571D01*
X83250000Y-102642857D02*
X83178571Y-102785714D01*
X83178571Y-103000000D01*
X83250000Y-103214285D01*
X83392857Y-103357142D01*
X83535714Y-103428571D01*
X83821428Y-103500000D01*
X84035714Y-103500000D01*
X84321428Y-103428571D01*
X84464285Y-103357142D01*
X84607142Y-103214285D01*
X84678571Y-103000000D01*
X84678571Y-102857142D01*
X84607142Y-102642857D01*
X84535714Y-102571428D01*
X84035714Y-102571428D01*
X84035714Y-102857142D01*
X84678571Y-101928571D02*
X83178571Y-101928571D01*
X84678571Y-101071428D01*
X83178571Y-101071428D01*
X84678571Y-100357142D02*
X83178571Y-100357142D01*
X83178571Y-100000000D01*
X83250000Y-99785714D01*
X83392857Y-99642857D01*
X83535714Y-99571428D01*
X83821428Y-99500000D01*
X84035714Y-99500000D01*
X84321428Y-99571428D01*
X84464285Y-99642857D01*
X84607142Y-99785714D01*
X84678571Y-100000000D01*
X84678571Y-100357142D01*
X76957142Y-144607142D02*
X78100000Y-144607142D01*
X77528571Y-145178571D02*
X77528571Y-144035714D01*
X79600000Y-145178571D02*
X78742857Y-145178571D01*
X79171428Y-145178571D02*
X79171428Y-143678571D01*
X79028571Y-143892857D01*
X78885714Y-144035714D01*
X78742857Y-144107142D01*
X80957142Y-143678571D02*
X80242857Y-143678571D01*
X80171428Y-144392857D01*
X80242857Y-144321428D01*
X80385714Y-144250000D01*
X80742857Y-144250000D01*
X80885714Y-144321428D01*
X80957142Y-144392857D01*
X81028571Y-144535714D01*
X81028571Y-144892857D01*
X80957142Y-145035714D01*
X80885714Y-145107142D01*
X80742857Y-145178571D01*
X80385714Y-145178571D01*
X80242857Y-145107142D01*
X80171428Y-145035714D01*
X81457142Y-143678571D02*
X81957142Y-145178571D01*
X82457142Y-143678571D01*
D12*
X210938095Y-59052380D02*
X210938095Y-59861904D01*
X210985714Y-59957142D01*
X211033333Y-60004761D01*
X211128571Y-60052380D01*
X211319047Y-60052380D01*
X211414285Y-60004761D01*
X211461904Y-59957142D01*
X211509523Y-59861904D01*
X211509523Y-59052380D01*
X212414285Y-59052380D02*
X212223809Y-59052380D01*
X212128571Y-59100000D01*
X212080952Y-59147619D01*
X211985714Y-59290476D01*
X211938095Y-59480952D01*
X211938095Y-59861904D01*
X211985714Y-59957142D01*
X212033333Y-60004761D01*
X212128571Y-60052380D01*
X212319047Y-60052380D01*
X212414285Y-60004761D01*
X212461904Y-59957142D01*
X212509523Y-59861904D01*
X212509523Y-59623809D01*
X212461904Y-59528571D01*
X212414285Y-59480952D01*
X212319047Y-59433333D01*
X212128571Y-59433333D01*
X212033333Y-59480952D01*
X211985714Y-59528571D01*
X211938095Y-59623809D01*
X190838095Y-75769880D02*
X190838095Y-76579404D01*
X190885714Y-76674642D01*
X190933333Y-76722261D01*
X191028571Y-76769880D01*
X191219047Y-76769880D01*
X191314285Y-76722261D01*
X191361904Y-76674642D01*
X191409523Y-76579404D01*
X191409523Y-75769880D01*
X192409523Y-76769880D02*
X191838095Y-76769880D01*
X192123809Y-76769880D02*
X192123809Y-75769880D01*
X192028571Y-75912738D01*
X191933333Y-76007976D01*
X191838095Y-76055595D01*
X205433333Y-65557142D02*
X205385714Y-65604761D01*
X205242857Y-65652380D01*
X205147619Y-65652380D01*
X205004761Y-65604761D01*
X204909523Y-65509523D01*
X204861904Y-65414285D01*
X204814285Y-65223809D01*
X204814285Y-65080952D01*
X204861904Y-64890476D01*
X204909523Y-64795238D01*
X205004761Y-64700000D01*
X205147619Y-64652380D01*
X205242857Y-64652380D01*
X205385714Y-64700000D01*
X205433333Y-64747619D01*
X205814285Y-64747619D02*
X205861904Y-64700000D01*
X205957142Y-64652380D01*
X206195238Y-64652380D01*
X206290476Y-64700000D01*
X206338095Y-64747619D01*
X206385714Y-64842857D01*
X206385714Y-64938095D01*
X206338095Y-65080952D01*
X205766666Y-65652380D01*
X206385714Y-65652380D01*
X100183333Y-97357142D02*
X100135714Y-97404761D01*
X99992857Y-97452380D01*
X99897619Y-97452380D01*
X99754761Y-97404761D01*
X99659523Y-97309523D01*
X99611904Y-97214285D01*
X99564285Y-97023809D01*
X99564285Y-96880952D01*
X99611904Y-96690476D01*
X99659523Y-96595238D01*
X99754761Y-96500000D01*
X99897619Y-96452380D01*
X99992857Y-96452380D01*
X100135714Y-96500000D01*
X100183333Y-96547619D01*
X100516666Y-96452380D02*
X101135714Y-96452380D01*
X100802380Y-96833333D01*
X100945238Y-96833333D01*
X101040476Y-96880952D01*
X101088095Y-96928571D01*
X101135714Y-97023809D01*
X101135714Y-97261904D01*
X101088095Y-97357142D01*
X101040476Y-97404761D01*
X100945238Y-97452380D01*
X100659523Y-97452380D01*
X100564285Y-97404761D01*
X100516666Y-97357142D01*
X101707142Y-108916666D02*
X101754761Y-108964285D01*
X101802380Y-109107142D01*
X101802380Y-109202380D01*
X101754761Y-109345238D01*
X101659523Y-109440476D01*
X101564285Y-109488095D01*
X101373809Y-109535714D01*
X101230952Y-109535714D01*
X101040476Y-109488095D01*
X100945238Y-109440476D01*
X100850000Y-109345238D01*
X100802380Y-109202380D01*
X100802380Y-109107142D01*
X100850000Y-108964285D01*
X100897619Y-108916666D01*
X101135714Y-108059523D02*
X101802380Y-108059523D01*
X100754761Y-108297619D02*
X101469047Y-108535714D01*
X101469047Y-107916666D01*
X196933333Y-72027142D02*
X196885714Y-72074761D01*
X196742857Y-72122380D01*
X196647619Y-72122380D01*
X196504761Y-72074761D01*
X196409523Y-71979523D01*
X196361904Y-71884285D01*
X196314285Y-71693809D01*
X196314285Y-71550952D01*
X196361904Y-71360476D01*
X196409523Y-71265238D01*
X196504761Y-71170000D01*
X196647619Y-71122380D01*
X196742857Y-71122380D01*
X196885714Y-71170000D01*
X196933333Y-71217619D01*
X197838095Y-71122380D02*
X197361904Y-71122380D01*
X197314285Y-71598571D01*
X197361904Y-71550952D01*
X197457142Y-71503333D01*
X197695238Y-71503333D01*
X197790476Y-71550952D01*
X197838095Y-71598571D01*
X197885714Y-71693809D01*
X197885714Y-71931904D01*
X197838095Y-72027142D01*
X197790476Y-72074761D01*
X197695238Y-72122380D01*
X197457142Y-72122380D01*
X197361904Y-72074761D01*
X197314285Y-72027142D01*
X195027142Y-68666666D02*
X195074761Y-68714285D01*
X195122380Y-68857142D01*
X195122380Y-68952380D01*
X195074761Y-69095238D01*
X194979523Y-69190476D01*
X194884285Y-69238095D01*
X194693809Y-69285714D01*
X194550952Y-69285714D01*
X194360476Y-69238095D01*
X194265238Y-69190476D01*
X194170000Y-69095238D01*
X194122380Y-68952380D01*
X194122380Y-68857142D01*
X194170000Y-68714285D01*
X194217619Y-68666666D01*
X194122380Y-67809523D02*
X194122380Y-68000000D01*
X194170000Y-68095238D01*
X194217619Y-68142857D01*
X194360476Y-68238095D01*
X194550952Y-68285714D01*
X194931904Y-68285714D01*
X195027142Y-68238095D01*
X195074761Y-68190476D01*
X195122380Y-68095238D01*
X195122380Y-67904761D01*
X195074761Y-67809523D01*
X195027142Y-67761904D01*
X194931904Y-67714285D01*
X194693809Y-67714285D01*
X194598571Y-67761904D01*
X194550952Y-67809523D01*
X194503333Y-67904761D01*
X194503333Y-68095238D01*
X194550952Y-68190476D01*
X194598571Y-68238095D01*
X194693809Y-68285714D01*
X116457142Y-100066666D02*
X116504761Y-100114285D01*
X116552380Y-100257142D01*
X116552380Y-100352380D01*
X116504761Y-100495238D01*
X116409523Y-100590476D01*
X116314285Y-100638095D01*
X116123809Y-100685714D01*
X115980952Y-100685714D01*
X115790476Y-100638095D01*
X115695238Y-100590476D01*
X115600000Y-100495238D01*
X115552380Y-100352380D01*
X115552380Y-100257142D01*
X115600000Y-100114285D01*
X115647619Y-100066666D01*
X115552380Y-99733333D02*
X115552380Y-99066666D01*
X116552380Y-99495238D01*
X104733333Y-111677142D02*
X104685714Y-111724761D01*
X104542857Y-111772380D01*
X104447619Y-111772380D01*
X104304761Y-111724761D01*
X104209523Y-111629523D01*
X104161904Y-111534285D01*
X104114285Y-111343809D01*
X104114285Y-111200952D01*
X104161904Y-111010476D01*
X104209523Y-110915238D01*
X104304761Y-110820000D01*
X104447619Y-110772380D01*
X104542857Y-110772380D01*
X104685714Y-110820000D01*
X104733333Y-110867619D01*
X105304761Y-111200952D02*
X105209523Y-111153333D01*
X105161904Y-111105714D01*
X105114285Y-111010476D01*
X105114285Y-110962857D01*
X105161904Y-110867619D01*
X105209523Y-110820000D01*
X105304761Y-110772380D01*
X105495238Y-110772380D01*
X105590476Y-110820000D01*
X105638095Y-110867619D01*
X105685714Y-110962857D01*
X105685714Y-111010476D01*
X105638095Y-111105714D01*
X105590476Y-111153333D01*
X105495238Y-111200952D01*
X105304761Y-111200952D01*
X105209523Y-111248571D01*
X105161904Y-111296190D01*
X105114285Y-111391428D01*
X105114285Y-111581904D01*
X105161904Y-111677142D01*
X105209523Y-111724761D01*
X105304761Y-111772380D01*
X105495238Y-111772380D01*
X105590476Y-111724761D01*
X105638095Y-111677142D01*
X105685714Y-111581904D01*
X105685714Y-111391428D01*
X105638095Y-111296190D01*
X105590476Y-111248571D01*
X105495238Y-111200952D01*
X196087142Y-77566666D02*
X196134761Y-77614285D01*
X196182380Y-77757142D01*
X196182380Y-77852380D01*
X196134761Y-77995238D01*
X196039523Y-78090476D01*
X195944285Y-78138095D01*
X195753809Y-78185714D01*
X195610952Y-78185714D01*
X195420476Y-78138095D01*
X195325238Y-78090476D01*
X195230000Y-77995238D01*
X195182380Y-77852380D01*
X195182380Y-77757142D01*
X195230000Y-77614285D01*
X195277619Y-77566666D01*
X196182380Y-77090476D02*
X196182380Y-76900000D01*
X196134761Y-76804761D01*
X196087142Y-76757142D01*
X195944285Y-76661904D01*
X195753809Y-76614285D01*
X195372857Y-76614285D01*
X195277619Y-76661904D01*
X195230000Y-76709523D01*
X195182380Y-76804761D01*
X195182380Y-76995238D01*
X195230000Y-77090476D01*
X195277619Y-77138095D01*
X195372857Y-77185714D01*
X195610952Y-77185714D01*
X195706190Y-77138095D01*
X195753809Y-77090476D01*
X195801428Y-76995238D01*
X195801428Y-76804761D01*
X195753809Y-76709523D01*
X195706190Y-76661904D01*
X195610952Y-76614285D01*
X180427142Y-66342857D02*
X180474761Y-66390476D01*
X180522380Y-66533333D01*
X180522380Y-66628571D01*
X180474761Y-66771428D01*
X180379523Y-66866666D01*
X180284285Y-66914285D01*
X180093809Y-66961904D01*
X179950952Y-66961904D01*
X179760476Y-66914285D01*
X179665238Y-66866666D01*
X179570000Y-66771428D01*
X179522380Y-66628571D01*
X179522380Y-66533333D01*
X179570000Y-66390476D01*
X179617619Y-66342857D01*
X180522380Y-65390476D02*
X180522380Y-65961904D01*
X180522380Y-65676190D02*
X179522380Y-65676190D01*
X179665238Y-65771428D01*
X179760476Y-65866666D01*
X179808095Y-65961904D01*
X179522380Y-64771428D02*
X179522380Y-64676190D01*
X179570000Y-64580952D01*
X179617619Y-64533333D01*
X179712857Y-64485714D01*
X179903333Y-64438095D01*
X180141428Y-64438095D01*
X180331904Y-64485714D01*
X180427142Y-64533333D01*
X180474761Y-64580952D01*
X180522380Y-64676190D01*
X180522380Y-64771428D01*
X180474761Y-64866666D01*
X180427142Y-64914285D01*
X180331904Y-64961904D01*
X180141428Y-65009523D01*
X179903333Y-65009523D01*
X179712857Y-64961904D01*
X179617619Y-64914285D01*
X179570000Y-64866666D01*
X179522380Y-64771428D01*
X110707142Y-96392857D02*
X110754761Y-96440476D01*
X110802380Y-96583333D01*
X110802380Y-96678571D01*
X110754761Y-96821428D01*
X110659523Y-96916666D01*
X110564285Y-96964285D01*
X110373809Y-97011904D01*
X110230952Y-97011904D01*
X110040476Y-96964285D01*
X109945238Y-96916666D01*
X109850000Y-96821428D01*
X109802380Y-96678571D01*
X109802380Y-96583333D01*
X109850000Y-96440476D01*
X109897619Y-96392857D01*
X110802380Y-95440476D02*
X110802380Y-96011904D01*
X110802380Y-95726190D02*
X109802380Y-95726190D01*
X109945238Y-95821428D01*
X110040476Y-95916666D01*
X110088095Y-96011904D01*
X110802380Y-94488095D02*
X110802380Y-95059523D01*
X110802380Y-94773809D02*
X109802380Y-94773809D01*
X109945238Y-94869047D01*
X110040476Y-94964285D01*
X110088095Y-95059523D01*
X177627142Y-78492857D02*
X177674761Y-78540476D01*
X177722380Y-78683333D01*
X177722380Y-78778571D01*
X177674761Y-78921428D01*
X177579523Y-79016666D01*
X177484285Y-79064285D01*
X177293809Y-79111904D01*
X177150952Y-79111904D01*
X176960476Y-79064285D01*
X176865238Y-79016666D01*
X176770000Y-78921428D01*
X176722380Y-78778571D01*
X176722380Y-78683333D01*
X176770000Y-78540476D01*
X176817619Y-78492857D01*
X177722380Y-77540476D02*
X177722380Y-78111904D01*
X177722380Y-77826190D02*
X176722380Y-77826190D01*
X176865238Y-77921428D01*
X176960476Y-78016666D01*
X177008095Y-78111904D01*
X176722380Y-77207142D02*
X176722380Y-76588095D01*
X177103333Y-76921428D01*
X177103333Y-76778571D01*
X177150952Y-76683333D01*
X177198571Y-76635714D01*
X177293809Y-76588095D01*
X177531904Y-76588095D01*
X177627142Y-76635714D01*
X177674761Y-76683333D01*
X177722380Y-76778571D01*
X177722380Y-77064285D01*
X177674761Y-77159523D01*
X177627142Y-77207142D01*
X177677142Y-68392857D02*
X177724761Y-68440476D01*
X177772380Y-68583333D01*
X177772380Y-68678571D01*
X177724761Y-68821428D01*
X177629523Y-68916666D01*
X177534285Y-68964285D01*
X177343809Y-69011904D01*
X177200952Y-69011904D01*
X177010476Y-68964285D01*
X176915238Y-68916666D01*
X176820000Y-68821428D01*
X176772380Y-68678571D01*
X176772380Y-68583333D01*
X176820000Y-68440476D01*
X176867619Y-68392857D01*
X177772380Y-67440476D02*
X177772380Y-68011904D01*
X177772380Y-67726190D02*
X176772380Y-67726190D01*
X176915238Y-67821428D01*
X177010476Y-67916666D01*
X177058095Y-68011904D01*
X177105714Y-66583333D02*
X177772380Y-66583333D01*
X176724761Y-66821428D02*
X177439047Y-67059523D01*
X177439047Y-66440476D01*
X161777142Y-68992857D02*
X161824761Y-69040476D01*
X161872380Y-69183333D01*
X161872380Y-69278571D01*
X161824761Y-69421428D01*
X161729523Y-69516666D01*
X161634285Y-69564285D01*
X161443809Y-69611904D01*
X161300952Y-69611904D01*
X161110476Y-69564285D01*
X161015238Y-69516666D01*
X160920000Y-69421428D01*
X160872380Y-69278571D01*
X160872380Y-69183333D01*
X160920000Y-69040476D01*
X160967619Y-68992857D01*
X161872380Y-68040476D02*
X161872380Y-68611904D01*
X161872380Y-68326190D02*
X160872380Y-68326190D01*
X161015238Y-68421428D01*
X161110476Y-68516666D01*
X161158095Y-68611904D01*
X160872380Y-67135714D02*
X160872380Y-67611904D01*
X161348571Y-67659523D01*
X161300952Y-67611904D01*
X161253333Y-67516666D01*
X161253333Y-67278571D01*
X161300952Y-67183333D01*
X161348571Y-67135714D01*
X161443809Y-67088095D01*
X161681904Y-67088095D01*
X161777142Y-67135714D01*
X161824761Y-67183333D01*
X161872380Y-67278571D01*
X161872380Y-67516666D01*
X161824761Y-67611904D01*
X161777142Y-67659523D01*
X161457142Y-75742857D02*
X161504761Y-75790476D01*
X161552380Y-75933333D01*
X161552380Y-76028571D01*
X161504761Y-76171428D01*
X161409523Y-76266666D01*
X161314285Y-76314285D01*
X161123809Y-76361904D01*
X160980952Y-76361904D01*
X160790476Y-76314285D01*
X160695238Y-76266666D01*
X160600000Y-76171428D01*
X160552380Y-76028571D01*
X160552380Y-75933333D01*
X160600000Y-75790476D01*
X160647619Y-75742857D01*
X161552380Y-74790476D02*
X161552380Y-75361904D01*
X161552380Y-75076190D02*
X160552380Y-75076190D01*
X160695238Y-75171428D01*
X160790476Y-75266666D01*
X160838095Y-75361904D01*
X160552380Y-73933333D02*
X160552380Y-74123809D01*
X160600000Y-74219047D01*
X160647619Y-74266666D01*
X160790476Y-74361904D01*
X160980952Y-74409523D01*
X161361904Y-74409523D01*
X161457142Y-74361904D01*
X161504761Y-74314285D01*
X161552380Y-74219047D01*
X161552380Y-74028571D01*
X161504761Y-73933333D01*
X161457142Y-73885714D01*
X161361904Y-73838095D01*
X161123809Y-73838095D01*
X161028571Y-73885714D01*
X160980952Y-73933333D01*
X160933333Y-74028571D01*
X160933333Y-74219047D01*
X160980952Y-74314285D01*
X161028571Y-74361904D01*
X161123809Y-74409523D01*
X164207142Y-78892857D02*
X164254761Y-78940476D01*
X164302380Y-79083333D01*
X164302380Y-79178571D01*
X164254761Y-79321428D01*
X164159523Y-79416666D01*
X164064285Y-79464285D01*
X163873809Y-79511904D01*
X163730952Y-79511904D01*
X163540476Y-79464285D01*
X163445238Y-79416666D01*
X163350000Y-79321428D01*
X163302380Y-79178571D01*
X163302380Y-79083333D01*
X163350000Y-78940476D01*
X163397619Y-78892857D01*
X164302380Y-77940476D02*
X164302380Y-78511904D01*
X164302380Y-78226190D02*
X163302380Y-78226190D01*
X163445238Y-78321428D01*
X163540476Y-78416666D01*
X163588095Y-78511904D01*
X163302380Y-77607142D02*
X163302380Y-76940476D01*
X164302380Y-77369047D01*
X170207142Y-67242857D02*
X170254761Y-67290476D01*
X170302380Y-67433333D01*
X170302380Y-67528571D01*
X170254761Y-67671428D01*
X170159523Y-67766666D01*
X170064285Y-67814285D01*
X169873809Y-67861904D01*
X169730952Y-67861904D01*
X169540476Y-67814285D01*
X169445238Y-67766666D01*
X169350000Y-67671428D01*
X169302380Y-67528571D01*
X169302380Y-67433333D01*
X169350000Y-67290476D01*
X169397619Y-67242857D01*
X170302380Y-66290476D02*
X170302380Y-66861904D01*
X170302380Y-66576190D02*
X169302380Y-66576190D01*
X169445238Y-66671428D01*
X169540476Y-66766666D01*
X169588095Y-66861904D01*
X169730952Y-65719047D02*
X169683333Y-65814285D01*
X169635714Y-65861904D01*
X169540476Y-65909523D01*
X169492857Y-65909523D01*
X169397619Y-65861904D01*
X169350000Y-65814285D01*
X169302380Y-65719047D01*
X169302380Y-65528571D01*
X169350000Y-65433333D01*
X169397619Y-65385714D01*
X169492857Y-65338095D01*
X169540476Y-65338095D01*
X169635714Y-65385714D01*
X169683333Y-65433333D01*
X169730952Y-65528571D01*
X169730952Y-65719047D01*
X169778571Y-65814285D01*
X169826190Y-65861904D01*
X169921428Y-65909523D01*
X170111904Y-65909523D01*
X170207142Y-65861904D01*
X170254761Y-65814285D01*
X170302380Y-65719047D01*
X170302380Y-65528571D01*
X170254761Y-65433333D01*
X170207142Y-65385714D01*
X170111904Y-65338095D01*
X169921428Y-65338095D01*
X169826190Y-65385714D01*
X169778571Y-65433333D01*
X169730952Y-65528571D01*
X183207142Y-80142857D02*
X183254761Y-80190476D01*
X183302380Y-80333333D01*
X183302380Y-80428571D01*
X183254761Y-80571428D01*
X183159523Y-80666666D01*
X183064285Y-80714285D01*
X182873809Y-80761904D01*
X182730952Y-80761904D01*
X182540476Y-80714285D01*
X182445238Y-80666666D01*
X182350000Y-80571428D01*
X182302380Y-80428571D01*
X182302380Y-80333333D01*
X182350000Y-80190476D01*
X182397619Y-80142857D01*
X183302380Y-79190476D02*
X183302380Y-79761904D01*
X183302380Y-79476190D02*
X182302380Y-79476190D01*
X182445238Y-79571428D01*
X182540476Y-79666666D01*
X182588095Y-79761904D01*
X183302380Y-78714285D02*
X183302380Y-78523809D01*
X183254761Y-78428571D01*
X183207142Y-78380952D01*
X183064285Y-78285714D01*
X182873809Y-78238095D01*
X182492857Y-78238095D01*
X182397619Y-78285714D01*
X182350000Y-78333333D01*
X182302380Y-78428571D01*
X182302380Y-78619047D01*
X182350000Y-78714285D01*
X182397619Y-78761904D01*
X182492857Y-78809523D01*
X182730952Y-78809523D01*
X182826190Y-78761904D01*
X182873809Y-78714285D01*
X182921428Y-78619047D01*
X182921428Y-78428571D01*
X182873809Y-78333333D01*
X182826190Y-78285714D01*
X182730952Y-78238095D01*
X174207142Y-77492857D02*
X174254761Y-77540476D01*
X174302380Y-77683333D01*
X174302380Y-77778571D01*
X174254761Y-77921428D01*
X174159523Y-78016666D01*
X174064285Y-78064285D01*
X173873809Y-78111904D01*
X173730952Y-78111904D01*
X173540476Y-78064285D01*
X173445238Y-78016666D01*
X173350000Y-77921428D01*
X173302380Y-77778571D01*
X173302380Y-77683333D01*
X173350000Y-77540476D01*
X173397619Y-77492857D01*
X173397619Y-77111904D02*
X173350000Y-77064285D01*
X173302380Y-76969047D01*
X173302380Y-76730952D01*
X173350000Y-76635714D01*
X173397619Y-76588095D01*
X173492857Y-76540476D01*
X173588095Y-76540476D01*
X173730952Y-76588095D01*
X174302380Y-77159523D01*
X174302380Y-76540476D01*
X173302380Y-75921428D02*
X173302380Y-75826190D01*
X173350000Y-75730952D01*
X173397619Y-75683333D01*
X173492857Y-75635714D01*
X173683333Y-75588095D01*
X173921428Y-75588095D01*
X174111904Y-75635714D01*
X174207142Y-75683333D01*
X174254761Y-75730952D01*
X174302380Y-75826190D01*
X174302380Y-75921428D01*
X174254761Y-76016666D01*
X174207142Y-76064285D01*
X174111904Y-76111904D01*
X173921428Y-76159523D01*
X173683333Y-76159523D01*
X173492857Y-76111904D01*
X173397619Y-76064285D01*
X173350000Y-76016666D01*
X173302380Y-75921428D01*
X199291642Y-137849142D02*
X199244023Y-137896761D01*
X199101166Y-137944380D01*
X199005928Y-137944380D01*
X198863071Y-137896761D01*
X198767833Y-137801523D01*
X198720214Y-137706285D01*
X198672595Y-137515809D01*
X198672595Y-137372952D01*
X198720214Y-137182476D01*
X198767833Y-137087238D01*
X198863071Y-136992000D01*
X199005928Y-136944380D01*
X199101166Y-136944380D01*
X199244023Y-136992000D01*
X199291642Y-137039619D01*
X199672595Y-137039619D02*
X199720214Y-136992000D01*
X199815452Y-136944380D01*
X200053547Y-136944380D01*
X200148785Y-136992000D01*
X200196404Y-137039619D01*
X200244023Y-137134857D01*
X200244023Y-137230095D01*
X200196404Y-137372952D01*
X199624976Y-137944380D01*
X200244023Y-137944380D01*
X200624976Y-137039619D02*
X200672595Y-136992000D01*
X200767833Y-136944380D01*
X201005928Y-136944380D01*
X201101166Y-136992000D01*
X201148785Y-137039619D01*
X201196404Y-137134857D01*
X201196404Y-137230095D01*
X201148785Y-137372952D01*
X200577357Y-137944380D01*
X201196404Y-137944380D01*
X194619642Y-147715242D02*
X194572023Y-147762861D01*
X194429166Y-147810480D01*
X194333928Y-147810480D01*
X194191071Y-147762861D01*
X194095833Y-147667623D01*
X194048214Y-147572385D01*
X194000595Y-147381909D01*
X194000595Y-147239052D01*
X194048214Y-147048576D01*
X194095833Y-146953338D01*
X194191071Y-146858100D01*
X194333928Y-146810480D01*
X194429166Y-146810480D01*
X194572023Y-146858100D01*
X194619642Y-146905719D01*
X195000595Y-146905719D02*
X195048214Y-146858100D01*
X195143452Y-146810480D01*
X195381547Y-146810480D01*
X195476785Y-146858100D01*
X195524404Y-146905719D01*
X195572023Y-147000957D01*
X195572023Y-147096195D01*
X195524404Y-147239052D01*
X194952976Y-147810480D01*
X195572023Y-147810480D01*
X195905357Y-146810480D02*
X196524404Y-146810480D01*
X196191071Y-147191433D01*
X196333928Y-147191433D01*
X196429166Y-147239052D01*
X196476785Y-147286671D01*
X196524404Y-147381909D01*
X196524404Y-147620004D01*
X196476785Y-147715242D01*
X196429166Y-147762861D01*
X196333928Y-147810480D01*
X196048214Y-147810480D01*
X195952976Y-147762861D01*
X195905357Y-147715242D01*
X190095142Y-146041757D02*
X190142761Y-146089376D01*
X190190380Y-146232233D01*
X190190380Y-146327471D01*
X190142761Y-146470328D01*
X190047523Y-146565566D01*
X189952285Y-146613185D01*
X189761809Y-146660804D01*
X189618952Y-146660804D01*
X189428476Y-146613185D01*
X189333238Y-146565566D01*
X189238000Y-146470328D01*
X189190380Y-146327471D01*
X189190380Y-146232233D01*
X189238000Y-146089376D01*
X189285619Y-146041757D01*
X189285619Y-145660804D02*
X189238000Y-145613185D01*
X189190380Y-145517947D01*
X189190380Y-145279852D01*
X189238000Y-145184614D01*
X189285619Y-145136995D01*
X189380857Y-145089376D01*
X189476095Y-145089376D01*
X189618952Y-145136995D01*
X190190380Y-145708423D01*
X190190380Y-145089376D01*
X189523714Y-144232233D02*
X190190380Y-144232233D01*
X189142761Y-144470328D02*
X189857047Y-144708423D01*
X189857047Y-144089376D01*
D13*
X95857619Y-56393333D02*
X97952857Y-56393333D01*
X95438571Y-57650476D02*
X96905238Y-53250476D01*
X98371904Y-57650476D01*
X99838571Y-57650476D02*
X99838571Y-53250476D01*
X101514761Y-53250476D01*
X101933809Y-53460000D01*
X102143333Y-53669523D01*
X102352857Y-54088571D01*
X102352857Y-54717142D01*
X102143333Y-55136190D01*
X101933809Y-55345714D01*
X101514761Y-55555238D01*
X99838571Y-55555238D01*
X107171904Y-58069523D02*
X106752857Y-57860000D01*
X106333809Y-57440952D01*
X105705238Y-56812380D01*
X105286190Y-56602857D01*
X104867142Y-56602857D01*
X105076666Y-57650476D02*
X104657619Y-57440952D01*
X104238571Y-57021904D01*
X104029047Y-56183809D01*
X104029047Y-54717142D01*
X104238571Y-53879047D01*
X104657619Y-53460000D01*
X105076666Y-53250476D01*
X105914761Y-53250476D01*
X106333809Y-53460000D01*
X106752857Y-53879047D01*
X106962380Y-54717142D01*
X106962380Y-56183809D01*
X106752857Y-57021904D01*
X106333809Y-57440952D01*
X105914761Y-57650476D01*
X105076666Y-57650476D01*
D12*
X112302380Y-98416666D02*
X111826190Y-98750000D01*
X112302380Y-98988095D02*
X111302380Y-98988095D01*
X111302380Y-98607142D01*
X111350000Y-98511904D01*
X111397619Y-98464285D01*
X111492857Y-98416666D01*
X111635714Y-98416666D01*
X111730952Y-98464285D01*
X111778571Y-98511904D01*
X111826190Y-98607142D01*
X111826190Y-98988095D01*
X112302380Y-97464285D02*
X112302380Y-98035714D01*
X112302380Y-97750000D02*
X111302380Y-97750000D01*
X111445238Y-97845238D01*
X111540476Y-97940476D01*
X111588095Y-98035714D01*
X108933333Y-111702380D02*
X108600000Y-111226190D01*
X108361904Y-111702380D02*
X108361904Y-110702380D01*
X108742857Y-110702380D01*
X108838095Y-110750000D01*
X108885714Y-110797619D01*
X108933333Y-110892857D01*
X108933333Y-111035714D01*
X108885714Y-111130952D01*
X108838095Y-111178571D01*
X108742857Y-111226190D01*
X108361904Y-111226190D01*
X109314285Y-110797619D02*
X109361904Y-110750000D01*
X109457142Y-110702380D01*
X109695238Y-110702380D01*
X109790476Y-110750000D01*
X109838095Y-110797619D01*
X109885714Y-110892857D01*
X109885714Y-110988095D01*
X109838095Y-111130952D01*
X109266666Y-111702380D01*
X109885714Y-111702380D01*
X188732380Y-67516666D02*
X188256190Y-67850000D01*
X188732380Y-68088095D02*
X187732380Y-68088095D01*
X187732380Y-67707142D01*
X187780000Y-67611904D01*
X187827619Y-67564285D01*
X187922857Y-67516666D01*
X188065714Y-67516666D01*
X188160952Y-67564285D01*
X188208571Y-67611904D01*
X188256190Y-67707142D01*
X188256190Y-68088095D01*
X187732380Y-67183333D02*
X187732380Y-66564285D01*
X188113333Y-66897619D01*
X188113333Y-66754761D01*
X188160952Y-66659523D01*
X188208571Y-66611904D01*
X188303809Y-66564285D01*
X188541904Y-66564285D01*
X188637142Y-66611904D01*
X188684761Y-66659523D01*
X188732380Y-66754761D01*
X188732380Y-67040476D01*
X188684761Y-67135714D01*
X188637142Y-67183333D01*
X183372380Y-76416666D02*
X182896190Y-76750000D01*
X183372380Y-76988095D02*
X182372380Y-76988095D01*
X182372380Y-76607142D01*
X182420000Y-76511904D01*
X182467619Y-76464285D01*
X182562857Y-76416666D01*
X182705714Y-76416666D01*
X182800952Y-76464285D01*
X182848571Y-76511904D01*
X182896190Y-76607142D01*
X182896190Y-76988095D01*
X182705714Y-75559523D02*
X183372380Y-75559523D01*
X182324761Y-75797619D02*
X183039047Y-76035714D01*
X183039047Y-75416666D01*
X183382380Y-69616666D02*
X182906190Y-69950000D01*
X183382380Y-70188095D02*
X182382380Y-70188095D01*
X182382380Y-69807142D01*
X182430000Y-69711904D01*
X182477619Y-69664285D01*
X182572857Y-69616666D01*
X182715714Y-69616666D01*
X182810952Y-69664285D01*
X182858571Y-69711904D01*
X182906190Y-69807142D01*
X182906190Y-70188095D01*
X182382380Y-68711904D02*
X182382380Y-69188095D01*
X182858571Y-69235714D01*
X182810952Y-69188095D01*
X182763333Y-69092857D01*
X182763333Y-68854761D01*
X182810952Y-68759523D01*
X182858571Y-68711904D01*
X182953809Y-68664285D01*
X183191904Y-68664285D01*
X183287142Y-68711904D01*
X183334761Y-68759523D01*
X183382380Y-68854761D01*
X183382380Y-69092857D01*
X183334761Y-69188095D01*
X183287142Y-69235714D01*
X187802380Y-80266666D02*
X187326190Y-80600000D01*
X187802380Y-80838095D02*
X186802380Y-80838095D01*
X186802380Y-80457142D01*
X186850000Y-80361904D01*
X186897619Y-80314285D01*
X186992857Y-80266666D01*
X187135714Y-80266666D01*
X187230952Y-80314285D01*
X187278571Y-80361904D01*
X187326190Y-80457142D01*
X187326190Y-80838095D01*
X186802380Y-79409523D02*
X186802380Y-79600000D01*
X186850000Y-79695238D01*
X186897619Y-79742857D01*
X187040476Y-79838095D01*
X187230952Y-79885714D01*
X187611904Y-79885714D01*
X187707142Y-79838095D01*
X187754761Y-79790476D01*
X187802380Y-79695238D01*
X187802380Y-79504761D01*
X187754761Y-79409523D01*
X187707142Y-79361904D01*
X187611904Y-79314285D01*
X187373809Y-79314285D01*
X187278571Y-79361904D01*
X187230952Y-79409523D01*
X187183333Y-79504761D01*
X187183333Y-79695238D01*
X187230952Y-79790476D01*
X187278571Y-79838095D01*
X187373809Y-79885714D01*
X182033333Y-72172380D02*
X181700000Y-71696190D01*
X181461904Y-72172380D02*
X181461904Y-71172380D01*
X181842857Y-71172380D01*
X181938095Y-71220000D01*
X181985714Y-71267619D01*
X182033333Y-71362857D01*
X182033333Y-71505714D01*
X181985714Y-71600952D01*
X181938095Y-71648571D01*
X181842857Y-71696190D01*
X181461904Y-71696190D01*
X182366666Y-71172380D02*
X183033333Y-71172380D01*
X182604761Y-72172380D01*
X177833333Y-74522380D02*
X177500000Y-74046190D01*
X177261904Y-74522380D02*
X177261904Y-73522380D01*
X177642857Y-73522380D01*
X177738095Y-73570000D01*
X177785714Y-73617619D01*
X177833333Y-73712857D01*
X177833333Y-73855714D01*
X177785714Y-73950952D01*
X177738095Y-73998571D01*
X177642857Y-74046190D01*
X177261904Y-74046190D01*
X178404761Y-73950952D02*
X178309523Y-73903333D01*
X178261904Y-73855714D01*
X178214285Y-73760476D01*
X178214285Y-73712857D01*
X178261904Y-73617619D01*
X178309523Y-73570000D01*
X178404761Y-73522380D01*
X178595238Y-73522380D01*
X178690476Y-73570000D01*
X178738095Y-73617619D01*
X178785714Y-73712857D01*
X178785714Y-73760476D01*
X178738095Y-73855714D01*
X178690476Y-73903333D01*
X178595238Y-73950952D01*
X178404761Y-73950952D01*
X178309523Y-73998571D01*
X178261904Y-74046190D01*
X178214285Y-74141428D01*
X178214285Y-74331904D01*
X178261904Y-74427142D01*
X178309523Y-74474761D01*
X178404761Y-74522380D01*
X178595238Y-74522380D01*
X178690476Y-74474761D01*
X178738095Y-74427142D01*
X178785714Y-74331904D01*
X178785714Y-74141428D01*
X178738095Y-74046190D01*
X178690476Y-73998571D01*
X178595238Y-73950952D01*
X177933333Y-72302380D02*
X177600000Y-71826190D01*
X177361904Y-72302380D02*
X177361904Y-71302380D01*
X177742857Y-71302380D01*
X177838095Y-71350000D01*
X177885714Y-71397619D01*
X177933333Y-71492857D01*
X177933333Y-71635714D01*
X177885714Y-71730952D01*
X177838095Y-71778571D01*
X177742857Y-71826190D01*
X177361904Y-71826190D01*
X178409523Y-72302380D02*
X178600000Y-72302380D01*
X178695238Y-72254761D01*
X178742857Y-72207142D01*
X178838095Y-72064285D01*
X178885714Y-71873809D01*
X178885714Y-71492857D01*
X178838095Y-71397619D01*
X178790476Y-71350000D01*
X178695238Y-71302380D01*
X178504761Y-71302380D01*
X178409523Y-71350000D01*
X178361904Y-71397619D01*
X178314285Y-71492857D01*
X178314285Y-71730952D01*
X178361904Y-71826190D01*
X178409523Y-71873809D01*
X178504761Y-71921428D01*
X178695238Y-71921428D01*
X178790476Y-71873809D01*
X178838095Y-71826190D01*
X178885714Y-71730952D01*
X172872380Y-69992857D02*
X172396190Y-70326190D01*
X172872380Y-70564285D02*
X171872380Y-70564285D01*
X171872380Y-70183333D01*
X171920000Y-70088095D01*
X171967619Y-70040476D01*
X172062857Y-69992857D01*
X172205714Y-69992857D01*
X172300952Y-70040476D01*
X172348571Y-70088095D01*
X172396190Y-70183333D01*
X172396190Y-70564285D01*
X172872380Y-69040476D02*
X172872380Y-69611904D01*
X172872380Y-69326190D02*
X171872380Y-69326190D01*
X172015238Y-69421428D01*
X172110476Y-69516666D01*
X172158095Y-69611904D01*
X171872380Y-68421428D02*
X171872380Y-68326190D01*
X171920000Y-68230952D01*
X171967619Y-68183333D01*
X172062857Y-68135714D01*
X172253333Y-68088095D01*
X172491428Y-68088095D01*
X172681904Y-68135714D01*
X172777142Y-68183333D01*
X172824761Y-68230952D01*
X172872380Y-68326190D01*
X172872380Y-68421428D01*
X172824761Y-68516666D01*
X172777142Y-68564285D01*
X172681904Y-68611904D01*
X172491428Y-68659523D01*
X172253333Y-68659523D01*
X172062857Y-68611904D01*
X171967619Y-68564285D01*
X171920000Y-68516666D01*
X171872380Y-68421428D01*
X172552380Y-77492857D02*
X172076190Y-77826190D01*
X172552380Y-78064285D02*
X171552380Y-78064285D01*
X171552380Y-77683333D01*
X171600000Y-77588095D01*
X171647619Y-77540476D01*
X171742857Y-77492857D01*
X171885714Y-77492857D01*
X171980952Y-77540476D01*
X172028571Y-77588095D01*
X172076190Y-77683333D01*
X172076190Y-78064285D01*
X172552380Y-76540476D02*
X172552380Y-77111904D01*
X172552380Y-76826190D02*
X171552380Y-76826190D01*
X171695238Y-76921428D01*
X171790476Y-77016666D01*
X171838095Y-77111904D01*
X172552380Y-75588095D02*
X172552380Y-76159523D01*
X172552380Y-75873809D02*
X171552380Y-75873809D01*
X171695238Y-75969047D01*
X171790476Y-76064285D01*
X171838095Y-76159523D01*
X166207142Y-68122380D02*
X165873809Y-67646190D01*
X165635714Y-68122380D02*
X165635714Y-67122380D01*
X166016666Y-67122380D01*
X166111904Y-67170000D01*
X166159523Y-67217619D01*
X166207142Y-67312857D01*
X166207142Y-67455714D01*
X166159523Y-67550952D01*
X166111904Y-67598571D01*
X166016666Y-67646190D01*
X165635714Y-67646190D01*
X167159523Y-68122380D02*
X166588095Y-68122380D01*
X166873809Y-68122380D02*
X166873809Y-67122380D01*
X166778571Y-67265238D01*
X166683333Y-67360476D01*
X166588095Y-67408095D01*
X167540476Y-67217619D02*
X167588095Y-67170000D01*
X167683333Y-67122380D01*
X167921428Y-67122380D01*
X168016666Y-67170000D01*
X168064285Y-67217619D01*
X168111904Y-67312857D01*
X168111904Y-67408095D01*
X168064285Y-67550952D01*
X167492857Y-68122380D01*
X168111904Y-68122380D01*
X163302380Y-75742857D02*
X162826190Y-76076190D01*
X163302380Y-76314285D02*
X162302380Y-76314285D01*
X162302380Y-75933333D01*
X162350000Y-75838095D01*
X162397619Y-75790476D01*
X162492857Y-75742857D01*
X162635714Y-75742857D01*
X162730952Y-75790476D01*
X162778571Y-75838095D01*
X162826190Y-75933333D01*
X162826190Y-76314285D01*
X163302380Y-74790476D02*
X163302380Y-75361904D01*
X163302380Y-75076190D02*
X162302380Y-75076190D01*
X162445238Y-75171428D01*
X162540476Y-75266666D01*
X162588095Y-75361904D01*
X162302380Y-74457142D02*
X162302380Y-73838095D01*
X162683333Y-74171428D01*
X162683333Y-74028571D01*
X162730952Y-73933333D01*
X162778571Y-73885714D01*
X162873809Y-73838095D01*
X163111904Y-73838095D01*
X163207142Y-73885714D01*
X163254761Y-73933333D01*
X163302380Y-74028571D01*
X163302380Y-74314285D01*
X163254761Y-74409523D01*
X163207142Y-74457142D01*
X159552380Y-75742857D02*
X159076190Y-76076190D01*
X159552380Y-76314285D02*
X158552380Y-76314285D01*
X158552380Y-75933333D01*
X158600000Y-75838095D01*
X158647619Y-75790476D01*
X158742857Y-75742857D01*
X158885714Y-75742857D01*
X158980952Y-75790476D01*
X159028571Y-75838095D01*
X159076190Y-75933333D01*
X159076190Y-76314285D01*
X159552380Y-74790476D02*
X159552380Y-75361904D01*
X159552380Y-75076190D02*
X158552380Y-75076190D01*
X158695238Y-75171428D01*
X158790476Y-75266666D01*
X158838095Y-75361904D01*
X158885714Y-73933333D02*
X159552380Y-73933333D01*
X158504761Y-74171428D02*
X159219047Y-74409523D01*
X159219047Y-73790476D01*
X209057142Y-107632380D02*
X208723809Y-107156190D01*
X208485714Y-107632380D02*
X208485714Y-106632380D01*
X208866666Y-106632380D01*
X208961904Y-106680000D01*
X209009523Y-106727619D01*
X209057142Y-106822857D01*
X209057142Y-106965714D01*
X209009523Y-107060952D01*
X208961904Y-107108571D01*
X208866666Y-107156190D01*
X208485714Y-107156190D01*
X210009523Y-107632380D02*
X209438095Y-107632380D01*
X209723809Y-107632380D02*
X209723809Y-106632380D01*
X209628571Y-106775238D01*
X209533333Y-106870476D01*
X209438095Y-106918095D01*
X210914285Y-106632380D02*
X210438095Y-106632380D01*
X210390476Y-107108571D01*
X210438095Y-107060952D01*
X210533333Y-107013333D01*
X210771428Y-107013333D01*
X210866666Y-107060952D01*
X210914285Y-107108571D01*
X210961904Y-107203809D01*
X210961904Y-107441904D01*
X210914285Y-107537142D01*
X210866666Y-107584761D01*
X210771428Y-107632380D01*
X210533333Y-107632380D01*
X210438095Y-107584761D01*
X210390476Y-107537142D01*
X207803392Y-145152380D02*
X207470059Y-144676190D01*
X207231964Y-145152380D02*
X207231964Y-144152380D01*
X207612916Y-144152380D01*
X207708154Y-144200000D01*
X207755773Y-144247619D01*
X207803392Y-144342857D01*
X207803392Y-144485714D01*
X207755773Y-144580952D01*
X207708154Y-144628571D01*
X207612916Y-144676190D01*
X207231964Y-144676190D01*
X208755773Y-145152380D02*
X208184345Y-145152380D01*
X208470059Y-145152380D02*
X208470059Y-144152380D01*
X208374821Y-144295238D01*
X208279583Y-144390476D01*
X208184345Y-144438095D01*
X209612916Y-144152380D02*
X209422440Y-144152380D01*
X209327202Y-144200000D01*
X209279583Y-144247619D01*
X209184345Y-144390476D01*
X209136726Y-144580952D01*
X209136726Y-144961904D01*
X209184345Y-145057142D01*
X209231964Y-145104761D01*
X209327202Y-145152380D01*
X209517678Y-145152380D01*
X209612916Y-145104761D01*
X209660535Y-145057142D01*
X209708154Y-144961904D01*
X209708154Y-144723809D01*
X209660535Y-144628571D01*
X209612916Y-144580952D01*
X209517678Y-144533333D01*
X209327202Y-144533333D01*
X209231964Y-144580952D01*
X209184345Y-144628571D01*
X209136726Y-144723809D01*
X201357142Y-59952380D02*
X201023809Y-59476190D01*
X200785714Y-59952380D02*
X200785714Y-58952380D01*
X201166666Y-58952380D01*
X201261904Y-59000000D01*
X201309523Y-59047619D01*
X201357142Y-59142857D01*
X201357142Y-59285714D01*
X201309523Y-59380952D01*
X201261904Y-59428571D01*
X201166666Y-59476190D01*
X200785714Y-59476190D01*
X201738095Y-59047619D02*
X201785714Y-59000000D01*
X201880952Y-58952380D01*
X202119047Y-58952380D01*
X202214285Y-59000000D01*
X202261904Y-59047619D01*
X202309523Y-59142857D01*
X202309523Y-59238095D01*
X202261904Y-59380952D01*
X201690476Y-59952380D01*
X202309523Y-59952380D01*
X202928571Y-58952380D02*
X203023809Y-58952380D01*
X203119047Y-59000000D01*
X203166666Y-59047619D01*
X203214285Y-59142857D01*
X203261904Y-59333333D01*
X203261904Y-59571428D01*
X203214285Y-59761904D01*
X203166666Y-59857142D01*
X203119047Y-59904761D01*
X203023809Y-59952380D01*
X202928571Y-59952380D01*
X202833333Y-59904761D01*
X202785714Y-59857142D01*
X202738095Y-59761904D01*
X202690476Y-59571428D01*
X202690476Y-59333333D01*
X202738095Y-59142857D01*
X202785714Y-59047619D01*
X202833333Y-59000000D01*
X202928571Y-58952380D01*
X212149761Y-140852380D02*
X211816428Y-140376190D01*
X211578333Y-140852380D02*
X211578333Y-139852380D01*
X211959285Y-139852380D01*
X212054523Y-139900000D01*
X212102142Y-139947619D01*
X212149761Y-140042857D01*
X212149761Y-140185714D01*
X212102142Y-140280952D01*
X212054523Y-140328571D01*
X211959285Y-140376190D01*
X211578333Y-140376190D01*
X212435476Y-139852380D02*
X212768809Y-140852380D01*
X213102142Y-139852380D01*
X213959285Y-140852380D02*
X213387857Y-140852380D01*
X213673571Y-140852380D02*
X213673571Y-139852380D01*
X213578333Y-139995238D01*
X213483095Y-140090476D01*
X213387857Y-140138095D01*
X102838095Y-96452380D02*
X102838095Y-97261904D01*
X102885714Y-97357142D01*
X102933333Y-97404761D01*
X103028571Y-97452380D01*
X103219047Y-97452380D01*
X103314285Y-97404761D01*
X103361904Y-97357142D01*
X103409523Y-97261904D01*
X103409523Y-96452380D01*
X103838095Y-96547619D02*
X103885714Y-96500000D01*
X103980952Y-96452380D01*
X104219047Y-96452380D01*
X104314285Y-96500000D01*
X104361904Y-96547619D01*
X104409523Y-96642857D01*
X104409523Y-96738095D01*
X104361904Y-96880952D01*
X103790476Y-97452380D01*
X104409523Y-97452380D01*
X110552380Y-105511904D02*
X111361904Y-105511904D01*
X111457142Y-105464285D01*
X111504761Y-105416666D01*
X111552380Y-105321428D01*
X111552380Y-105130952D01*
X111504761Y-105035714D01*
X111457142Y-104988095D01*
X111361904Y-104940476D01*
X110552380Y-104940476D01*
X110552380Y-104559523D02*
X110552380Y-103940476D01*
X110933333Y-104273809D01*
X110933333Y-104130952D01*
X110980952Y-104035714D01*
X111028571Y-103988095D01*
X111123809Y-103940476D01*
X111361904Y-103940476D01*
X111457142Y-103988095D01*
X111504761Y-104035714D01*
X111552380Y-104130952D01*
X111552380Y-104416666D01*
X111504761Y-104511904D01*
X111457142Y-104559523D01*
X206383333Y-80927142D02*
X206335714Y-80974761D01*
X206192857Y-81022380D01*
X206097619Y-81022380D01*
X205954761Y-80974761D01*
X205859523Y-80879523D01*
X205811904Y-80784285D01*
X205764285Y-80593809D01*
X205764285Y-80450952D01*
X205811904Y-80260476D01*
X205859523Y-80165238D01*
X205954761Y-80070000D01*
X206097619Y-80022380D01*
X206192857Y-80022380D01*
X206335714Y-80070000D01*
X206383333Y-80117619D01*
X207335714Y-81022380D02*
X206764285Y-81022380D01*
X207050000Y-81022380D02*
X207050000Y-80022380D01*
X206954761Y-80165238D01*
X206859523Y-80260476D01*
X206764285Y-80308095D01*
X116237142Y-106642857D02*
X116284761Y-106690476D01*
X116332380Y-106833333D01*
X116332380Y-106928571D01*
X116284761Y-107071428D01*
X116189523Y-107166666D01*
X116094285Y-107214285D01*
X115903809Y-107261904D01*
X115760952Y-107261904D01*
X115570476Y-107214285D01*
X115475238Y-107166666D01*
X115380000Y-107071428D01*
X115332380Y-106928571D01*
X115332380Y-106833333D01*
X115380000Y-106690476D01*
X115427619Y-106642857D01*
X116332380Y-105690476D02*
X116332380Y-106261904D01*
X116332380Y-105976190D02*
X115332380Y-105976190D01*
X115475238Y-106071428D01*
X115570476Y-106166666D01*
X115618095Y-106261904D01*
X115427619Y-105309523D02*
X115380000Y-105261904D01*
X115332380Y-105166666D01*
X115332380Y-104928571D01*
X115380000Y-104833333D01*
X115427619Y-104785714D01*
X115522857Y-104738095D01*
X115618095Y-104738095D01*
X115760952Y-104785714D01*
X116332380Y-105357142D01*
X116332380Y-104738095D01*
X166838095Y-70602380D02*
X166838095Y-71411904D01*
X166885714Y-71507142D01*
X166933333Y-71554761D01*
X167028571Y-71602380D01*
X167219047Y-71602380D01*
X167314285Y-71554761D01*
X167361904Y-71507142D01*
X167409523Y-71411904D01*
X167409523Y-70602380D01*
X168314285Y-70935714D02*
X168314285Y-71602380D01*
X168076190Y-70554761D02*
X167838095Y-71269047D01*
X168457142Y-71269047D01*
X198183595Y-144765780D02*
X198183595Y-145575304D01*
X198231214Y-145670542D01*
X198278833Y-145718161D01*
X198374071Y-145765780D01*
X198564547Y-145765780D01*
X198659785Y-145718161D01*
X198707404Y-145670542D01*
X198755023Y-145575304D01*
X198755023Y-144765780D01*
X199707404Y-144765780D02*
X199231214Y-144765780D01*
X199183595Y-145241971D01*
X199231214Y-145194352D01*
X199326452Y-145146733D01*
X199564547Y-145146733D01*
X199659785Y-145194352D01*
X199707404Y-145241971D01*
X199755023Y-145337209D01*
X199755023Y-145575304D01*
X199707404Y-145670542D01*
X199659785Y-145718161D01*
X199564547Y-145765780D01*
X199326452Y-145765780D01*
X199231214Y-145718161D01*
X199183595Y-145670542D01*
X217157142Y-60957142D02*
X217109523Y-61004761D01*
X216966666Y-61052380D01*
X216871428Y-61052380D01*
X216728571Y-61004761D01*
X216633333Y-60909523D01*
X216585714Y-60814285D01*
X216538095Y-60623809D01*
X216538095Y-60480952D01*
X216585714Y-60290476D01*
X216633333Y-60195238D01*
X216728571Y-60100000D01*
X216871428Y-60052380D01*
X216966666Y-60052380D01*
X217109523Y-60100000D01*
X217157142Y-60147619D01*
X217538095Y-60147619D02*
X217585714Y-60100000D01*
X217680952Y-60052380D01*
X217919047Y-60052380D01*
X218014285Y-60100000D01*
X218061904Y-60147619D01*
X218109523Y-60242857D01*
X218109523Y-60338095D01*
X218061904Y-60480952D01*
X217490476Y-61052380D01*
X218109523Y-61052380D01*
X219014285Y-60052380D02*
X218538095Y-60052380D01*
X218490476Y-60528571D01*
X218538095Y-60480952D01*
X218633333Y-60433333D01*
X218871428Y-60433333D01*
X218966666Y-60480952D01*
X219014285Y-60528571D01*
X219061904Y-60623809D01*
X219061904Y-60861904D01*
X219014285Y-60957142D01*
X218966666Y-61004761D01*
X218871428Y-61052380D01*
X218633333Y-61052380D01*
X218538095Y-61004761D01*
X218490476Y-60957142D01*
X220357142Y-65157142D02*
X220309523Y-65204761D01*
X220166666Y-65252380D01*
X220071428Y-65252380D01*
X219928571Y-65204761D01*
X219833333Y-65109523D01*
X219785714Y-65014285D01*
X219738095Y-64823809D01*
X219738095Y-64680952D01*
X219785714Y-64490476D01*
X219833333Y-64395238D01*
X219928571Y-64300000D01*
X220071428Y-64252380D01*
X220166666Y-64252380D01*
X220309523Y-64300000D01*
X220357142Y-64347619D01*
X220738095Y-64347619D02*
X220785714Y-64300000D01*
X220880952Y-64252380D01*
X221119047Y-64252380D01*
X221214285Y-64300000D01*
X221261904Y-64347619D01*
X221309523Y-64442857D01*
X221309523Y-64538095D01*
X221261904Y-64680952D01*
X220690476Y-65252380D01*
X221309523Y-65252380D01*
X222166666Y-64252380D02*
X221976190Y-64252380D01*
X221880952Y-64300000D01*
X221833333Y-64347619D01*
X221738095Y-64490476D01*
X221690476Y-64680952D01*
X221690476Y-65061904D01*
X221738095Y-65157142D01*
X221785714Y-65204761D01*
X221880952Y-65252380D01*
X222071428Y-65252380D01*
X222166666Y-65204761D01*
X222214285Y-65157142D01*
X222261904Y-65061904D01*
X222261904Y-64823809D01*
X222214285Y-64728571D01*
X222166666Y-64680952D01*
X222071428Y-64633333D01*
X221880952Y-64633333D01*
X221785714Y-64680952D01*
X221738095Y-64728571D01*
X221690476Y-64823809D01*
X205082142Y-59927142D02*
X205034523Y-59974761D01*
X204891666Y-60022380D01*
X204796428Y-60022380D01*
X204653571Y-59974761D01*
X204558333Y-59879523D01*
X204510714Y-59784285D01*
X204463095Y-59593809D01*
X204463095Y-59450952D01*
X204510714Y-59260476D01*
X204558333Y-59165238D01*
X204653571Y-59070000D01*
X204796428Y-59022380D01*
X204891666Y-59022380D01*
X205034523Y-59070000D01*
X205082142Y-59117619D01*
X205463095Y-59117619D02*
X205510714Y-59070000D01*
X205605952Y-59022380D01*
X205844047Y-59022380D01*
X205939285Y-59070000D01*
X205986904Y-59117619D01*
X206034523Y-59212857D01*
X206034523Y-59308095D01*
X205986904Y-59450952D01*
X205415476Y-60022380D01*
X206034523Y-60022380D01*
X206367857Y-59022380D02*
X207034523Y-59022380D01*
X206605952Y-60022380D01*
X208757142Y-69787142D02*
X208709523Y-69834761D01*
X208566666Y-69882380D01*
X208471428Y-69882380D01*
X208328571Y-69834761D01*
X208233333Y-69739523D01*
X208185714Y-69644285D01*
X208138095Y-69453809D01*
X208138095Y-69310952D01*
X208185714Y-69120476D01*
X208233333Y-69025238D01*
X208328571Y-68930000D01*
X208471428Y-68882380D01*
X208566666Y-68882380D01*
X208709523Y-68930000D01*
X208757142Y-68977619D01*
X209138095Y-68977619D02*
X209185714Y-68930000D01*
X209280952Y-68882380D01*
X209519047Y-68882380D01*
X209614285Y-68930000D01*
X209661904Y-68977619D01*
X209709523Y-69072857D01*
X209709523Y-69168095D01*
X209661904Y-69310952D01*
X209090476Y-69882380D01*
X209709523Y-69882380D01*
X210280952Y-69310952D02*
X210185714Y-69263333D01*
X210138095Y-69215714D01*
X210090476Y-69120476D01*
X210090476Y-69072857D01*
X210138095Y-68977619D01*
X210185714Y-68930000D01*
X210280952Y-68882380D01*
X210471428Y-68882380D01*
X210566666Y-68930000D01*
X210614285Y-68977619D01*
X210661904Y-69072857D01*
X210661904Y-69120476D01*
X210614285Y-69215714D01*
X210566666Y-69263333D01*
X210471428Y-69310952D01*
X210280952Y-69310952D01*
X210185714Y-69358571D01*
X210138095Y-69406190D01*
X210090476Y-69501428D01*
X210090476Y-69691904D01*
X210138095Y-69787142D01*
X210185714Y-69834761D01*
X210280952Y-69882380D01*
X210471428Y-69882380D01*
X210566666Y-69834761D01*
X210614285Y-69787142D01*
X210661904Y-69691904D01*
X210661904Y-69501428D01*
X210614285Y-69406190D01*
X210566666Y-69358571D01*
X210471428Y-69310952D01*
X112057142Y-140142857D02*
X112104761Y-140190476D01*
X112152380Y-140333333D01*
X112152380Y-140428571D01*
X112104761Y-140571428D01*
X112009523Y-140666666D01*
X111914285Y-140714285D01*
X111723809Y-140761904D01*
X111580952Y-140761904D01*
X111390476Y-140714285D01*
X111295238Y-140666666D01*
X111200000Y-140571428D01*
X111152380Y-140428571D01*
X111152380Y-140333333D01*
X111200000Y-140190476D01*
X111247619Y-140142857D01*
X111247619Y-139761904D02*
X111200000Y-139714285D01*
X111152380Y-139619047D01*
X111152380Y-139380952D01*
X111200000Y-139285714D01*
X111247619Y-139238095D01*
X111342857Y-139190476D01*
X111438095Y-139190476D01*
X111580952Y-139238095D01*
X112152380Y-139809523D01*
X112152380Y-139190476D01*
X112152380Y-138714285D02*
X112152380Y-138523809D01*
X112104761Y-138428571D01*
X112057142Y-138380952D01*
X111914285Y-138285714D01*
X111723809Y-138238095D01*
X111342857Y-138238095D01*
X111247619Y-138285714D01*
X111200000Y-138333333D01*
X111152380Y-138428571D01*
X111152380Y-138619047D01*
X111200000Y-138714285D01*
X111247619Y-138761904D01*
X111342857Y-138809523D01*
X111580952Y-138809523D01*
X111676190Y-138761904D01*
X111723809Y-138714285D01*
X111771428Y-138619047D01*
X111771428Y-138428571D01*
X111723809Y-138333333D01*
X111676190Y-138285714D01*
X111580952Y-138238095D01*
X101457142Y-140242857D02*
X101504761Y-140290476D01*
X101552380Y-140433333D01*
X101552380Y-140528571D01*
X101504761Y-140671428D01*
X101409523Y-140766666D01*
X101314285Y-140814285D01*
X101123809Y-140861904D01*
X100980952Y-140861904D01*
X100790476Y-140814285D01*
X100695238Y-140766666D01*
X100600000Y-140671428D01*
X100552380Y-140528571D01*
X100552380Y-140433333D01*
X100600000Y-140290476D01*
X100647619Y-140242857D01*
X100552380Y-139909523D02*
X100552380Y-139290476D01*
X100933333Y-139623809D01*
X100933333Y-139480952D01*
X100980952Y-139385714D01*
X101028571Y-139338095D01*
X101123809Y-139290476D01*
X101361904Y-139290476D01*
X101457142Y-139338095D01*
X101504761Y-139385714D01*
X101552380Y-139480952D01*
X101552380Y-139766666D01*
X101504761Y-139861904D01*
X101457142Y-139909523D01*
X100552380Y-138671428D02*
X100552380Y-138576190D01*
X100600000Y-138480952D01*
X100647619Y-138433333D01*
X100742857Y-138385714D01*
X100933333Y-138338095D01*
X101171428Y-138338095D01*
X101361904Y-138385714D01*
X101457142Y-138433333D01*
X101504761Y-138480952D01*
X101552380Y-138576190D01*
X101552380Y-138671428D01*
X101504761Y-138766666D01*
X101457142Y-138814285D01*
X101361904Y-138861904D01*
X101171428Y-138909523D01*
X100933333Y-138909523D01*
X100742857Y-138861904D01*
X100647619Y-138814285D01*
X100600000Y-138766666D01*
X100552380Y-138671428D01*
X99487142Y-140342857D02*
X99534761Y-140390476D01*
X99582380Y-140533333D01*
X99582380Y-140628571D01*
X99534761Y-140771428D01*
X99439523Y-140866666D01*
X99344285Y-140914285D01*
X99153809Y-140961904D01*
X99010952Y-140961904D01*
X98820476Y-140914285D01*
X98725238Y-140866666D01*
X98630000Y-140771428D01*
X98582380Y-140628571D01*
X98582380Y-140533333D01*
X98630000Y-140390476D01*
X98677619Y-140342857D01*
X98582380Y-140009523D02*
X98582380Y-139390476D01*
X98963333Y-139723809D01*
X98963333Y-139580952D01*
X99010952Y-139485714D01*
X99058571Y-139438095D01*
X99153809Y-139390476D01*
X99391904Y-139390476D01*
X99487142Y-139438095D01*
X99534761Y-139485714D01*
X99582380Y-139580952D01*
X99582380Y-139866666D01*
X99534761Y-139961904D01*
X99487142Y-140009523D01*
X99582380Y-138438095D02*
X99582380Y-139009523D01*
X99582380Y-138723809D02*
X98582380Y-138723809D01*
X98725238Y-138819047D01*
X98820476Y-138914285D01*
X98868095Y-139009523D01*
X89407142Y-140092857D02*
X89454761Y-140140476D01*
X89502380Y-140283333D01*
X89502380Y-140378571D01*
X89454761Y-140521428D01*
X89359523Y-140616666D01*
X89264285Y-140664285D01*
X89073809Y-140711904D01*
X88930952Y-140711904D01*
X88740476Y-140664285D01*
X88645238Y-140616666D01*
X88550000Y-140521428D01*
X88502380Y-140378571D01*
X88502380Y-140283333D01*
X88550000Y-140140476D01*
X88597619Y-140092857D01*
X88502380Y-139759523D02*
X88502380Y-139140476D01*
X88883333Y-139473809D01*
X88883333Y-139330952D01*
X88930952Y-139235714D01*
X88978571Y-139188095D01*
X89073809Y-139140476D01*
X89311904Y-139140476D01*
X89407142Y-139188095D01*
X89454761Y-139235714D01*
X89502380Y-139330952D01*
X89502380Y-139616666D01*
X89454761Y-139711904D01*
X89407142Y-139759523D01*
X88597619Y-138759523D02*
X88550000Y-138711904D01*
X88502380Y-138616666D01*
X88502380Y-138378571D01*
X88550000Y-138283333D01*
X88597619Y-138235714D01*
X88692857Y-138188095D01*
X88788095Y-138188095D01*
X88930952Y-138235714D01*
X89502380Y-138807142D01*
X89502380Y-138188095D01*
X75852380Y-144783333D02*
X76566666Y-144783333D01*
X76709523Y-144830952D01*
X76804761Y-144926190D01*
X76852380Y-145069047D01*
X76852380Y-145164285D01*
X76185714Y-143878571D02*
X76852380Y-143878571D01*
X75804761Y-144116666D02*
X76519047Y-144354761D01*
X76519047Y-143735714D01*
X99738095Y-142452380D02*
X99738095Y-143261904D01*
X99785714Y-143357142D01*
X99833333Y-143404761D01*
X99928571Y-143452380D01*
X100119047Y-143452380D01*
X100214285Y-143404761D01*
X100261904Y-143357142D01*
X100309523Y-143261904D01*
X100309523Y-142452380D01*
X100690476Y-142452380D02*
X101357142Y-142452380D01*
X100928571Y-143452380D01*
X96857142Y-63142857D02*
X96904761Y-63190476D01*
X96952380Y-63333333D01*
X96952380Y-63428571D01*
X96904761Y-63571428D01*
X96809523Y-63666666D01*
X96714285Y-63714285D01*
X96523809Y-63761904D01*
X96380952Y-63761904D01*
X96190476Y-63714285D01*
X96095238Y-63666666D01*
X96000000Y-63571428D01*
X95952380Y-63428571D01*
X95952380Y-63333333D01*
X96000000Y-63190476D01*
X96047619Y-63142857D01*
X96047619Y-62761904D02*
X96000000Y-62714285D01*
X95952380Y-62619047D01*
X95952380Y-62380952D01*
X96000000Y-62285714D01*
X96047619Y-62238095D01*
X96142857Y-62190476D01*
X96238095Y-62190476D01*
X96380952Y-62238095D01*
X96952380Y-62809523D01*
X96952380Y-62190476D01*
X96952380Y-61238095D02*
X96952380Y-61809523D01*
X96952380Y-61523809D02*
X95952380Y-61523809D01*
X96095238Y-61619047D01*
X96190476Y-61714285D01*
X96238095Y-61809523D01*
X206986142Y-126741157D02*
X207033761Y-126788776D01*
X207081380Y-126931633D01*
X207081380Y-127026871D01*
X207033761Y-127169728D01*
X206938523Y-127264966D01*
X206843285Y-127312585D01*
X206652809Y-127360204D01*
X206509952Y-127360204D01*
X206319476Y-127312585D01*
X206224238Y-127264966D01*
X206129000Y-127169728D01*
X206081380Y-127026871D01*
X206081380Y-126931633D01*
X206129000Y-126788776D01*
X206176619Y-126741157D01*
X206081380Y-126407823D02*
X206081380Y-125788776D01*
X206462333Y-126122109D01*
X206462333Y-125979252D01*
X206509952Y-125884014D01*
X206557571Y-125836395D01*
X206652809Y-125788776D01*
X206890904Y-125788776D01*
X206986142Y-125836395D01*
X207033761Y-125884014D01*
X207081380Y-125979252D01*
X207081380Y-126264966D01*
X207033761Y-126360204D01*
X206986142Y-126407823D01*
X206081380Y-125455442D02*
X206081380Y-124836395D01*
X206462333Y-125169728D01*
X206462333Y-125026871D01*
X206509952Y-124931633D01*
X206557571Y-124884014D01*
X206652809Y-124836395D01*
X206890904Y-124836395D01*
X206986142Y-124884014D01*
X207033761Y-124931633D01*
X207081380Y-125026871D01*
X207081380Y-125312585D01*
X207033761Y-125407823D01*
X206986142Y-125455442D01*
X193248042Y-131797042D02*
X193200423Y-131844661D01*
X193057566Y-131892280D01*
X192962328Y-131892280D01*
X192819471Y-131844661D01*
X192724233Y-131749423D01*
X192676614Y-131654185D01*
X192628995Y-131463709D01*
X192628995Y-131320852D01*
X192676614Y-131130376D01*
X192724233Y-131035138D01*
X192819471Y-130939900D01*
X192962328Y-130892280D01*
X193057566Y-130892280D01*
X193200423Y-130939900D01*
X193248042Y-130987519D01*
X193581376Y-130892280D02*
X194200423Y-130892280D01*
X193867090Y-131273233D01*
X194009947Y-131273233D01*
X194105185Y-131320852D01*
X194152804Y-131368471D01*
X194200423Y-131463709D01*
X194200423Y-131701804D01*
X194152804Y-131797042D01*
X194105185Y-131844661D01*
X194009947Y-131892280D01*
X193724233Y-131892280D01*
X193628995Y-131844661D01*
X193581376Y-131797042D01*
X195057566Y-131225614D02*
X195057566Y-131892280D01*
X194819471Y-130844661D02*
X194581376Y-131558947D01*
X195200423Y-131558947D01*
X193244742Y-126169657D02*
X193292361Y-126217276D01*
X193339980Y-126360133D01*
X193339980Y-126455371D01*
X193292361Y-126598228D01*
X193197123Y-126693466D01*
X193101885Y-126741085D01*
X192911409Y-126788704D01*
X192768552Y-126788704D01*
X192578076Y-126741085D01*
X192482838Y-126693466D01*
X192387600Y-126598228D01*
X192339980Y-126455371D01*
X192339980Y-126360133D01*
X192387600Y-126217276D01*
X192435219Y-126169657D01*
X192339980Y-125836323D02*
X192339980Y-125217276D01*
X192720933Y-125550609D01*
X192720933Y-125407752D01*
X192768552Y-125312514D01*
X192816171Y-125264895D01*
X192911409Y-125217276D01*
X193149504Y-125217276D01*
X193244742Y-125264895D01*
X193292361Y-125312514D01*
X193339980Y-125407752D01*
X193339980Y-125693466D01*
X193292361Y-125788704D01*
X193244742Y-125836323D01*
X192339980Y-124312514D02*
X192339980Y-124788704D01*
X192816171Y-124836323D01*
X192768552Y-124788704D01*
X192720933Y-124693466D01*
X192720933Y-124455371D01*
X192768552Y-124360133D01*
X192816171Y-124312514D01*
X192911409Y-124264895D01*
X193149504Y-124264895D01*
X193244742Y-124312514D01*
X193292361Y-124360133D01*
X193339980Y-124455371D01*
X193339980Y-124693466D01*
X193292361Y-124788704D01*
X193244742Y-124836323D01*
X206892142Y-123096257D02*
X206939761Y-123143876D01*
X206987380Y-123286733D01*
X206987380Y-123381971D01*
X206939761Y-123524828D01*
X206844523Y-123620066D01*
X206749285Y-123667685D01*
X206558809Y-123715304D01*
X206415952Y-123715304D01*
X206225476Y-123667685D01*
X206130238Y-123620066D01*
X206035000Y-123524828D01*
X205987380Y-123381971D01*
X205987380Y-123286733D01*
X206035000Y-123143876D01*
X206082619Y-123096257D01*
X205987380Y-122762923D02*
X205987380Y-122143876D01*
X206368333Y-122477209D01*
X206368333Y-122334352D01*
X206415952Y-122239114D01*
X206463571Y-122191495D01*
X206558809Y-122143876D01*
X206796904Y-122143876D01*
X206892142Y-122191495D01*
X206939761Y-122239114D01*
X206987380Y-122334352D01*
X206987380Y-122620066D01*
X206939761Y-122715304D01*
X206892142Y-122762923D01*
X205987380Y-121286733D02*
X205987380Y-121477209D01*
X206035000Y-121572447D01*
X206082619Y-121620066D01*
X206225476Y-121715304D01*
X206415952Y-121762923D01*
X206796904Y-121762923D01*
X206892142Y-121715304D01*
X206939761Y-121667685D01*
X206987380Y-121572447D01*
X206987380Y-121381971D01*
X206939761Y-121286733D01*
X206892142Y-121239114D01*
X206796904Y-121191495D01*
X206558809Y-121191495D01*
X206463571Y-121239114D01*
X206415952Y-121286733D01*
X206368333Y-121381971D01*
X206368333Y-121572447D01*
X206415952Y-121667685D01*
X206463571Y-121715304D01*
X206558809Y-121762923D01*
X207075042Y-119718057D02*
X207122661Y-119765676D01*
X207170280Y-119908533D01*
X207170280Y-120003771D01*
X207122661Y-120146628D01*
X207027423Y-120241866D01*
X206932185Y-120289485D01*
X206741709Y-120337104D01*
X206598852Y-120337104D01*
X206408376Y-120289485D01*
X206313138Y-120241866D01*
X206217900Y-120146628D01*
X206170280Y-120003771D01*
X206170280Y-119908533D01*
X206217900Y-119765676D01*
X206265519Y-119718057D01*
X206170280Y-119384723D02*
X206170280Y-118765676D01*
X206551233Y-119099009D01*
X206551233Y-118956152D01*
X206598852Y-118860914D01*
X206646471Y-118813295D01*
X206741709Y-118765676D01*
X206979804Y-118765676D01*
X207075042Y-118813295D01*
X207122661Y-118860914D01*
X207170280Y-118956152D01*
X207170280Y-119241866D01*
X207122661Y-119337104D01*
X207075042Y-119384723D01*
X206170280Y-118432342D02*
X206170280Y-117765676D01*
X207170280Y-118194247D01*
X209482142Y-133442857D02*
X209529761Y-133490476D01*
X209577380Y-133633333D01*
X209577380Y-133728571D01*
X209529761Y-133871428D01*
X209434523Y-133966666D01*
X209339285Y-134014285D01*
X209148809Y-134061904D01*
X209005952Y-134061904D01*
X208815476Y-134014285D01*
X208720238Y-133966666D01*
X208625000Y-133871428D01*
X208577380Y-133728571D01*
X208577380Y-133633333D01*
X208625000Y-133490476D01*
X208672619Y-133442857D01*
X208577380Y-133109523D02*
X208577380Y-132490476D01*
X208958333Y-132823809D01*
X208958333Y-132680952D01*
X209005952Y-132585714D01*
X209053571Y-132538095D01*
X209148809Y-132490476D01*
X209386904Y-132490476D01*
X209482142Y-132538095D01*
X209529761Y-132585714D01*
X209577380Y-132680952D01*
X209577380Y-132966666D01*
X209529761Y-133061904D01*
X209482142Y-133109523D01*
X209005952Y-131919047D02*
X208958333Y-132014285D01*
X208910714Y-132061904D01*
X208815476Y-132109523D01*
X208767857Y-132109523D01*
X208672619Y-132061904D01*
X208625000Y-132014285D01*
X208577380Y-131919047D01*
X208577380Y-131728571D01*
X208625000Y-131633333D01*
X208672619Y-131585714D01*
X208767857Y-131538095D01*
X208815476Y-131538095D01*
X208910714Y-131585714D01*
X208958333Y-131633333D01*
X209005952Y-131728571D01*
X209005952Y-131919047D01*
X209053571Y-132014285D01*
X209101190Y-132061904D01*
X209196428Y-132109523D01*
X209386904Y-132109523D01*
X209482142Y-132061904D01*
X209529761Y-132014285D01*
X209577380Y-131919047D01*
X209577380Y-131728571D01*
X209529761Y-131633333D01*
X209482142Y-131585714D01*
X209386904Y-131538095D01*
X209196428Y-131538095D01*
X209101190Y-131585714D01*
X209053571Y-131633333D01*
X209005952Y-131728571D01*
X84461904Y-133552380D02*
X84461904Y-132552380D01*
X84700000Y-132552380D01*
X84842857Y-132600000D01*
X84938095Y-132695238D01*
X84985714Y-132790476D01*
X85033333Y-132980952D01*
X85033333Y-133123809D01*
X84985714Y-133314285D01*
X84938095Y-133409523D01*
X84842857Y-133504761D01*
X84700000Y-133552380D01*
X84461904Y-133552380D01*
X85985714Y-133552380D02*
X85414285Y-133552380D01*
X85700000Y-133552380D02*
X85700000Y-132552380D01*
X85604761Y-132695238D01*
X85509523Y-132790476D01*
X85414285Y-132838095D01*
X84361904Y-58052380D02*
X84361904Y-57052380D01*
X84600000Y-57052380D01*
X84742857Y-57100000D01*
X84838095Y-57195238D01*
X84885714Y-57290476D01*
X84933333Y-57480952D01*
X84933333Y-57623809D01*
X84885714Y-57814285D01*
X84838095Y-57909523D01*
X84742857Y-58004761D01*
X84600000Y-58052380D01*
X84361904Y-58052380D01*
X85314285Y-57147619D02*
X85361904Y-57100000D01*
X85457142Y-57052380D01*
X85695238Y-57052380D01*
X85790476Y-57100000D01*
X85838095Y-57147619D01*
X85885714Y-57242857D01*
X85885714Y-57338095D01*
X85838095Y-57480952D01*
X85266666Y-58052380D01*
X85885714Y-58052380D01*
X204652380Y-146643957D02*
X204176190Y-146977290D01*
X204652380Y-147215385D02*
X203652380Y-147215385D01*
X203652380Y-146834433D01*
X203700000Y-146739195D01*
X203747619Y-146691576D01*
X203842857Y-146643957D01*
X203985714Y-146643957D01*
X204080952Y-146691576D01*
X204128571Y-146739195D01*
X204176190Y-146834433D01*
X204176190Y-147215385D01*
X204652380Y-145691576D02*
X204652380Y-146263004D01*
X204652380Y-145977290D02*
X203652380Y-145977290D01*
X203795238Y-146072528D01*
X203890476Y-146167766D01*
X203938095Y-146263004D01*
X203652380Y-145358242D02*
X203652380Y-144691576D01*
X204652380Y-145120147D01*
X202252380Y-146743957D02*
X201776190Y-147077290D01*
X202252380Y-147315385D02*
X201252380Y-147315385D01*
X201252380Y-146934433D01*
X201300000Y-146839195D01*
X201347619Y-146791576D01*
X201442857Y-146743957D01*
X201585714Y-146743957D01*
X201680952Y-146791576D01*
X201728571Y-146839195D01*
X201776190Y-146934433D01*
X201776190Y-147315385D01*
X202252380Y-145791576D02*
X202252380Y-146363004D01*
X202252380Y-146077290D02*
X201252380Y-146077290D01*
X201395238Y-146172528D01*
X201490476Y-146267766D01*
X201538095Y-146363004D01*
X201680952Y-145220147D02*
X201633333Y-145315385D01*
X201585714Y-145363004D01*
X201490476Y-145410623D01*
X201442857Y-145410623D01*
X201347619Y-145363004D01*
X201300000Y-145315385D01*
X201252380Y-145220147D01*
X201252380Y-145029671D01*
X201300000Y-144934433D01*
X201347619Y-144886814D01*
X201442857Y-144839195D01*
X201490476Y-144839195D01*
X201585714Y-144886814D01*
X201633333Y-144934433D01*
X201680952Y-145029671D01*
X201680952Y-145220147D01*
X201728571Y-145315385D01*
X201776190Y-145363004D01*
X201871428Y-145410623D01*
X202061904Y-145410623D01*
X202157142Y-145363004D01*
X202204761Y-145315385D01*
X202252380Y-145220147D01*
X202252380Y-145029671D01*
X202204761Y-144934433D01*
X202157142Y-144886814D01*
X202061904Y-144839195D01*
X201871428Y-144839195D01*
X201776190Y-144886814D01*
X201728571Y-144934433D01*
X201680952Y-145029671D01*
X189946042Y-137906280D02*
X189612709Y-137430090D01*
X189374614Y-137906280D02*
X189374614Y-136906280D01*
X189755566Y-136906280D01*
X189850804Y-136953900D01*
X189898423Y-137001519D01*
X189946042Y-137096757D01*
X189946042Y-137239614D01*
X189898423Y-137334852D01*
X189850804Y-137382471D01*
X189755566Y-137430090D01*
X189374614Y-137430090D01*
X190898423Y-137906280D02*
X190326995Y-137906280D01*
X190612709Y-137906280D02*
X190612709Y-136906280D01*
X190517471Y-137049138D01*
X190422233Y-137144376D01*
X190326995Y-137191995D01*
X191374614Y-137906280D02*
X191565090Y-137906280D01*
X191660328Y-137858661D01*
X191707947Y-137811042D01*
X191803185Y-137668185D01*
X191850804Y-137477709D01*
X191850804Y-137096757D01*
X191803185Y-137001519D01*
X191755566Y-136953900D01*
X191660328Y-136906280D01*
X191469852Y-136906280D01*
X191374614Y-136953900D01*
X191326995Y-137001519D01*
X191279376Y-137096757D01*
X191279376Y-137334852D01*
X191326995Y-137430090D01*
X191374614Y-137477709D01*
X191469852Y-137525328D01*
X191660328Y-137525328D01*
X191755566Y-137477709D01*
X191803185Y-137430090D01*
X191850804Y-137334852D01*
X180584080Y-125979157D02*
X180107890Y-126312490D01*
X180584080Y-126550585D02*
X179584080Y-126550585D01*
X179584080Y-126169633D01*
X179631700Y-126074395D01*
X179679319Y-126026776D01*
X179774557Y-125979157D01*
X179917414Y-125979157D01*
X180012652Y-126026776D01*
X180060271Y-126074395D01*
X180107890Y-126169633D01*
X180107890Y-126550585D01*
X179679319Y-125598204D02*
X179631700Y-125550585D01*
X179584080Y-125455347D01*
X179584080Y-125217252D01*
X179631700Y-125122014D01*
X179679319Y-125074395D01*
X179774557Y-125026776D01*
X179869795Y-125026776D01*
X180012652Y-125074395D01*
X180584080Y-125645823D01*
X180584080Y-125026776D01*
X180584080Y-124074395D02*
X180584080Y-124645823D01*
X180584080Y-124360109D02*
X179584080Y-124360109D01*
X179726938Y-124455347D01*
X179822176Y-124550585D01*
X179869795Y-124645823D01*
X192090380Y-146041757D02*
X191614190Y-146375090D01*
X192090380Y-146613185D02*
X191090380Y-146613185D01*
X191090380Y-146232233D01*
X191138000Y-146136995D01*
X191185619Y-146089376D01*
X191280857Y-146041757D01*
X191423714Y-146041757D01*
X191518952Y-146089376D01*
X191566571Y-146136995D01*
X191614190Y-146232233D01*
X191614190Y-146613185D01*
X191185619Y-145660804D02*
X191138000Y-145613185D01*
X191090380Y-145517947D01*
X191090380Y-145279852D01*
X191138000Y-145184614D01*
X191185619Y-145136995D01*
X191280857Y-145089376D01*
X191376095Y-145089376D01*
X191518952Y-145136995D01*
X192090380Y-145708423D01*
X192090380Y-145089376D01*
X191185619Y-144708423D02*
X191138000Y-144660804D01*
X191090380Y-144565566D01*
X191090380Y-144327471D01*
X191138000Y-144232233D01*
X191185619Y-144184614D01*
X191280857Y-144136995D01*
X191376095Y-144136995D01*
X191518952Y-144184614D01*
X192090380Y-144756042D01*
X192090380Y-144136995D01*
X191422280Y-126144257D02*
X190946090Y-126477590D01*
X191422280Y-126715685D02*
X190422280Y-126715685D01*
X190422280Y-126334733D01*
X190469900Y-126239495D01*
X190517519Y-126191876D01*
X190612757Y-126144257D01*
X190755614Y-126144257D01*
X190850852Y-126191876D01*
X190898471Y-126239495D01*
X190946090Y-126334733D01*
X190946090Y-126715685D01*
X190517519Y-125763304D02*
X190469900Y-125715685D01*
X190422280Y-125620447D01*
X190422280Y-125382352D01*
X190469900Y-125287114D01*
X190517519Y-125239495D01*
X190612757Y-125191876D01*
X190707995Y-125191876D01*
X190850852Y-125239495D01*
X191422280Y-125810923D01*
X191422280Y-125191876D01*
X190422280Y-124858542D02*
X190422280Y-124239495D01*
X190803233Y-124572828D01*
X190803233Y-124429971D01*
X190850852Y-124334733D01*
X190898471Y-124287114D01*
X190993709Y-124239495D01*
X191231804Y-124239495D01*
X191327042Y-124287114D01*
X191374661Y-124334733D01*
X191422280Y-124429971D01*
X191422280Y-124715685D01*
X191374661Y-124810923D01*
X191327042Y-124858542D01*
X193378080Y-116517657D02*
X192901890Y-116850990D01*
X193378080Y-117089085D02*
X192378080Y-117089085D01*
X192378080Y-116708133D01*
X192425700Y-116612895D01*
X192473319Y-116565276D01*
X192568557Y-116517657D01*
X192711414Y-116517657D01*
X192806652Y-116565276D01*
X192854271Y-116612895D01*
X192901890Y-116708133D01*
X192901890Y-117089085D01*
X192473319Y-116136704D02*
X192425700Y-116089085D01*
X192378080Y-115993847D01*
X192378080Y-115755752D01*
X192425700Y-115660514D01*
X192473319Y-115612895D01*
X192568557Y-115565276D01*
X192663795Y-115565276D01*
X192806652Y-115612895D01*
X193378080Y-116184323D01*
X193378080Y-115565276D01*
X192711414Y-114708133D02*
X193378080Y-114708133D01*
X192330461Y-114946228D02*
X193044747Y-115184323D01*
X193044747Y-114565276D01*
X195219580Y-116479557D02*
X194743390Y-116812890D01*
X195219580Y-117050985D02*
X194219580Y-117050985D01*
X194219580Y-116670033D01*
X194267200Y-116574795D01*
X194314819Y-116527176D01*
X194410057Y-116479557D01*
X194552914Y-116479557D01*
X194648152Y-116527176D01*
X194695771Y-116574795D01*
X194743390Y-116670033D01*
X194743390Y-117050985D01*
X194314819Y-116098604D02*
X194267200Y-116050985D01*
X194219580Y-115955747D01*
X194219580Y-115717652D01*
X194267200Y-115622414D01*
X194314819Y-115574795D01*
X194410057Y-115527176D01*
X194505295Y-115527176D01*
X194648152Y-115574795D01*
X195219580Y-116146223D01*
X195219580Y-115527176D01*
X194219580Y-114622414D02*
X194219580Y-115098604D01*
X194695771Y-115146223D01*
X194648152Y-115098604D01*
X194600533Y-115003366D01*
X194600533Y-114765271D01*
X194648152Y-114670033D01*
X194695771Y-114622414D01*
X194791009Y-114574795D01*
X195029104Y-114574795D01*
X195124342Y-114622414D01*
X195171961Y-114670033D01*
X195219580Y-114765271D01*
X195219580Y-115003366D01*
X195171961Y-115098604D01*
X195124342Y-115146223D01*
X208564242Y-127178980D02*
X208230909Y-126702790D01*
X207992814Y-127178980D02*
X207992814Y-126178980D01*
X208373766Y-126178980D01*
X208469004Y-126226600D01*
X208516623Y-126274219D01*
X208564242Y-126369457D01*
X208564242Y-126512314D01*
X208516623Y-126607552D01*
X208469004Y-126655171D01*
X208373766Y-126702790D01*
X207992814Y-126702790D01*
X208945195Y-126274219D02*
X208992814Y-126226600D01*
X209088052Y-126178980D01*
X209326147Y-126178980D01*
X209421385Y-126226600D01*
X209469004Y-126274219D01*
X209516623Y-126369457D01*
X209516623Y-126464695D01*
X209469004Y-126607552D01*
X208897576Y-127178980D01*
X209516623Y-127178980D01*
X210373766Y-126178980D02*
X210183290Y-126178980D01*
X210088052Y-126226600D01*
X210040433Y-126274219D01*
X209945195Y-126417076D01*
X209897576Y-126607552D01*
X209897576Y-126988504D01*
X209945195Y-127083742D01*
X209992814Y-127131361D01*
X210088052Y-127178980D01*
X210278528Y-127178980D01*
X210373766Y-127131361D01*
X210421385Y-127083742D01*
X210469004Y-126988504D01*
X210469004Y-126750409D01*
X210421385Y-126655171D01*
X210373766Y-126607552D01*
X210278528Y-126559933D01*
X210088052Y-126559933D01*
X209992814Y-126607552D01*
X209945195Y-126655171D01*
X209897576Y-126750409D01*
X199224995Y-126151980D02*
X199224995Y-126961504D01*
X199272614Y-127056742D01*
X199320233Y-127104361D01*
X199415471Y-127151980D01*
X199605947Y-127151980D01*
X199701185Y-127104361D01*
X199748804Y-127056742D01*
X199796423Y-126961504D01*
X199796423Y-126151980D01*
X200415471Y-126580552D02*
X200320233Y-126532933D01*
X200272614Y-126485314D01*
X200224995Y-126390076D01*
X200224995Y-126342457D01*
X200272614Y-126247219D01*
X200320233Y-126199600D01*
X200415471Y-126151980D01*
X200605947Y-126151980D01*
X200701185Y-126199600D01*
X200748804Y-126247219D01*
X200796423Y-126342457D01*
X200796423Y-126390076D01*
X200748804Y-126485314D01*
X200701185Y-126532933D01*
X200605947Y-126580552D01*
X200415471Y-126580552D01*
X200320233Y-126628171D01*
X200272614Y-126675790D01*
X200224995Y-126771028D01*
X200224995Y-126961504D01*
X200272614Y-127056742D01*
X200320233Y-127104361D01*
X200415471Y-127151980D01*
X200605947Y-127151980D01*
X200701185Y-127104361D01*
X200748804Y-127056742D01*
X200796423Y-126961504D01*
X200796423Y-126771028D01*
X200748804Y-126675790D01*
X200701185Y-126628171D01*
X200605947Y-126580552D01*
X199288495Y-116334080D02*
X199288495Y-117143604D01*
X199336114Y-117238842D01*
X199383733Y-117286461D01*
X199478971Y-117334080D01*
X199669447Y-117334080D01*
X199764685Y-117286461D01*
X199812304Y-117238842D01*
X199859923Y-117143604D01*
X199859923Y-116334080D01*
X200383733Y-117334080D02*
X200574209Y-117334080D01*
X200669447Y-117286461D01*
X200717066Y-117238842D01*
X200812304Y-117095985D01*
X200859923Y-116905509D01*
X200859923Y-116524557D01*
X200812304Y-116429319D01*
X200764685Y-116381700D01*
X200669447Y-116334080D01*
X200478971Y-116334080D01*
X200383733Y-116381700D01*
X200336114Y-116429319D01*
X200288495Y-116524557D01*
X200288495Y-116762652D01*
X200336114Y-116857890D01*
X200383733Y-116905509D01*
X200478971Y-116953128D01*
X200669447Y-116953128D01*
X200764685Y-116905509D01*
X200812304Y-116857890D01*
X200859923Y-116762652D01*
X222792380Y-79333333D02*
X223506666Y-79333333D01*
X223649523Y-79380952D01*
X223744761Y-79476190D01*
X223792380Y-79619047D01*
X223792380Y-79714285D01*
X223792380Y-78333333D02*
X223792380Y-78904761D01*
X223792380Y-78619047D02*
X222792380Y-78619047D01*
X222935238Y-78714285D01*
X223030476Y-78809523D01*
X223078095Y-78904761D01*
X222792380Y-62333333D02*
X223506666Y-62333333D01*
X223649523Y-62380952D01*
X223744761Y-62476190D01*
X223792380Y-62619047D01*
X223792380Y-62714285D01*
X222887619Y-61904761D02*
X222840000Y-61857142D01*
X222792380Y-61761904D01*
X222792380Y-61523809D01*
X222840000Y-61428571D01*
X222887619Y-61380952D01*
X222982857Y-61333333D01*
X223078095Y-61333333D01*
X223220952Y-61380952D01*
X223792380Y-61952380D01*
X223792380Y-61333333D01*
X212728571Y-108138095D02*
X212728571Y-107804761D01*
X213252380Y-107661904D02*
X213252380Y-108138095D01*
X212252380Y-108138095D01*
X212252380Y-107661904D01*
X213252380Y-107233333D02*
X212585714Y-107233333D01*
X212776190Y-107233333D02*
X212680952Y-107185714D01*
X212633333Y-107138095D01*
X212585714Y-107042857D01*
X212585714Y-106947619D01*
X213252380Y-106614285D02*
X212585714Y-106614285D01*
X212776190Y-106614285D02*
X212680952Y-106566666D01*
X212633333Y-106519047D01*
X212585714Y-106423809D01*
X212585714Y-106328571D01*
X213252380Y-105852380D02*
X213204761Y-105947619D01*
X213157142Y-105995238D01*
X213061904Y-106042857D01*
X212776190Y-106042857D01*
X212680952Y-105995238D01*
X212633333Y-105947619D01*
X212585714Y-105852380D01*
X212585714Y-105709523D01*
X212633333Y-105614285D01*
X212680952Y-105566666D01*
X212776190Y-105519047D01*
X213061904Y-105519047D01*
X213157142Y-105566666D01*
X213204761Y-105614285D01*
X213252380Y-105709523D01*
X213252380Y-105852380D01*
X213252380Y-105090476D02*
X212585714Y-105090476D01*
X212776190Y-105090476D02*
X212680952Y-105042857D01*
X212633333Y-104995238D01*
X212585714Y-104900000D01*
X212585714Y-104804761D01*
X213347619Y-104709523D02*
X213347619Y-103947619D01*
X212252380Y-103519047D02*
X212252380Y-103328571D01*
X212300000Y-103233333D01*
X212395238Y-103138095D01*
X212585714Y-103090476D01*
X212919047Y-103090476D01*
X213109523Y-103138095D01*
X213204761Y-103233333D01*
X213252380Y-103328571D01*
X213252380Y-103519047D01*
X213204761Y-103614285D01*
X213109523Y-103709523D01*
X212919047Y-103757142D01*
X212585714Y-103757142D01*
X212395238Y-103709523D01*
X212300000Y-103614285D01*
X212252380Y-103519047D01*
X212585714Y-102233333D02*
X213252380Y-102233333D01*
X212585714Y-102661904D02*
X213109523Y-102661904D01*
X213204761Y-102614285D01*
X213252380Y-102519047D01*
X213252380Y-102376190D01*
X213204761Y-102280952D01*
X213157142Y-102233333D01*
X212585714Y-101900000D02*
X212585714Y-101519047D01*
X212252380Y-101757142D02*
X213109523Y-101757142D01*
X213204761Y-101709523D01*
X213252380Y-101614285D01*
X213252380Y-101519047D01*
X213028571Y-131542857D02*
X213028571Y-131876190D01*
X213552380Y-131876190D02*
X212552380Y-131876190D01*
X212552380Y-131400000D01*
X213552380Y-130590476D02*
X213028571Y-130590476D01*
X212933333Y-130638095D01*
X212885714Y-130733333D01*
X212885714Y-130923809D01*
X212933333Y-131019047D01*
X213504761Y-130590476D02*
X213552380Y-130685714D01*
X213552380Y-130923809D01*
X213504761Y-131019047D01*
X213409523Y-131066666D01*
X213314285Y-131066666D01*
X213219047Y-131019047D01*
X213171428Y-130923809D01*
X213171428Y-130685714D01*
X213123809Y-130590476D01*
X213504761Y-130161904D02*
X213552380Y-130066666D01*
X213552380Y-129876190D01*
X213504761Y-129780952D01*
X213409523Y-129733333D01*
X213361904Y-129733333D01*
X213266666Y-129780952D01*
X213219047Y-129876190D01*
X213219047Y-130019047D01*
X213171428Y-130114285D01*
X213076190Y-130161904D01*
X213028571Y-130161904D01*
X212933333Y-130114285D01*
X212885714Y-130019047D01*
X212885714Y-129876190D01*
X212933333Y-129780952D01*
X212885714Y-129447619D02*
X212885714Y-129066666D01*
X212552380Y-129304761D02*
X213409523Y-129304761D01*
X213504761Y-129257142D01*
X213552380Y-129161904D01*
X213552380Y-129066666D01*
X213647619Y-128971428D02*
X213647619Y-128209523D01*
X212552380Y-127780952D02*
X212552380Y-127590476D01*
X212600000Y-127495238D01*
X212695238Y-127400000D01*
X212885714Y-127352380D01*
X213219047Y-127352380D01*
X213409523Y-127400000D01*
X213504761Y-127495238D01*
X213552380Y-127590476D01*
X213552380Y-127780952D01*
X213504761Y-127876190D01*
X213409523Y-127971428D01*
X213219047Y-128019047D01*
X212885714Y-128019047D01*
X212695238Y-127971428D01*
X212600000Y-127876190D01*
X212552380Y-127780952D01*
X212885714Y-126495238D02*
X213552380Y-126495238D01*
X212885714Y-126923809D02*
X213409523Y-126923809D01*
X213504761Y-126876190D01*
X213552380Y-126780952D01*
X213552380Y-126638095D01*
X213504761Y-126542857D01*
X213457142Y-126495238D01*
X212885714Y-126161904D02*
X212885714Y-125780952D01*
X212552380Y-126019047D02*
X213409523Y-126019047D01*
X213504761Y-125971428D01*
X213552380Y-125876190D01*
X213552380Y-125780952D01*
X187200880Y-127856833D02*
X187915166Y-127856833D01*
X188058023Y-127904452D01*
X188153261Y-127999690D01*
X188200880Y-128142547D01*
X188200880Y-128237785D01*
X187200880Y-126904452D02*
X187200880Y-127380642D01*
X187677071Y-127428261D01*
X187629452Y-127380642D01*
X187581833Y-127285404D01*
X187581833Y-127047309D01*
X187629452Y-126952071D01*
X187677071Y-126904452D01*
X187772309Y-126856833D01*
X188010404Y-126856833D01*
X188105642Y-126904452D01*
X188153261Y-126952071D01*
X188200880Y-127047309D01*
X188200880Y-127285404D01*
X188153261Y-127380642D01*
X188105642Y-127428261D01*
X180463442Y-129700257D02*
X180511061Y-129747876D01*
X180558680Y-129890733D01*
X180558680Y-129985971D01*
X180511061Y-130128828D01*
X180415823Y-130224066D01*
X180320585Y-130271685D01*
X180130109Y-130319304D01*
X179987252Y-130319304D01*
X179796776Y-130271685D01*
X179701538Y-130224066D01*
X179606300Y-130128828D01*
X179558680Y-129985971D01*
X179558680Y-129890733D01*
X179606300Y-129747876D01*
X179653919Y-129700257D01*
X179558680Y-129366923D02*
X179558680Y-128747876D01*
X179939633Y-129081209D01*
X179939633Y-128938352D01*
X179987252Y-128843114D01*
X180034871Y-128795495D01*
X180130109Y-128747876D01*
X180368204Y-128747876D01*
X180463442Y-128795495D01*
X180511061Y-128843114D01*
X180558680Y-128938352D01*
X180558680Y-129224066D01*
X180511061Y-129319304D01*
X180463442Y-129366923D01*
X180558680Y-128271685D02*
X180558680Y-128081209D01*
X180511061Y-127985971D01*
X180463442Y-127938352D01*
X180320585Y-127843114D01*
X180130109Y-127795495D01*
X179749157Y-127795495D01*
X179653919Y-127843114D01*
X179606300Y-127890733D01*
X179558680Y-127985971D01*
X179558680Y-128176447D01*
X179606300Y-128271685D01*
X179653919Y-128319304D01*
X179749157Y-128366923D01*
X179987252Y-128366923D01*
X180082490Y-128319304D01*
X180130109Y-128271685D01*
X180177728Y-128176447D01*
X180177728Y-127985971D01*
X180130109Y-127890733D01*
X180082490Y-127843114D01*
X179987252Y-127795495D01*
X106261904Y-89652380D02*
X106261904Y-88652380D01*
X106500000Y-88652380D01*
X106642857Y-88700000D01*
X106738095Y-88795238D01*
X106785714Y-88890476D01*
X106833333Y-89080952D01*
X106833333Y-89223809D01*
X106785714Y-89414285D01*
X106738095Y-89509523D01*
X106642857Y-89604761D01*
X106500000Y-89652380D01*
X106261904Y-89652380D01*
X107166666Y-88652380D02*
X107785714Y-88652380D01*
X107452380Y-89033333D01*
X107595238Y-89033333D01*
X107690476Y-89080952D01*
X107738095Y-89128571D01*
X107785714Y-89223809D01*
X107785714Y-89461904D01*
X107738095Y-89557142D01*
X107690476Y-89604761D01*
X107595238Y-89652380D01*
X107309523Y-89652380D01*
X107214285Y-89604761D01*
X107166666Y-89557142D01*
X203152380Y-68383333D02*
X203866666Y-68383333D01*
X204009523Y-68430952D01*
X204104761Y-68526190D01*
X204152380Y-68669047D01*
X204152380Y-68764285D01*
X204152380Y-67907142D02*
X203152380Y-67907142D01*
X203152380Y-67526190D01*
X203200000Y-67430952D01*
X203247619Y-67383333D01*
X203342857Y-67335714D01*
X203485714Y-67335714D01*
X203580952Y-67383333D01*
X203628571Y-67430952D01*
X203676190Y-67526190D01*
X203676190Y-67907142D01*
X203247619Y-66954761D02*
X203200000Y-66907142D01*
X203152380Y-66811904D01*
X203152380Y-66573809D01*
X203200000Y-66478571D01*
X203247619Y-66430952D01*
X203342857Y-66383333D01*
X203438095Y-66383333D01*
X203580952Y-66430952D01*
X204152380Y-67002380D01*
X204152380Y-66383333D01*
X219752380Y-68933333D02*
X220466666Y-68933333D01*
X220609523Y-68980952D01*
X220704761Y-69076190D01*
X220752380Y-69219047D01*
X220752380Y-69314285D01*
X220752380Y-68457142D02*
X219752380Y-68457142D01*
X219752380Y-68076190D01*
X219800000Y-67980952D01*
X219847619Y-67933333D01*
X219942857Y-67885714D01*
X220085714Y-67885714D01*
X220180952Y-67933333D01*
X220228571Y-67980952D01*
X220276190Y-68076190D01*
X220276190Y-68457142D01*
X220752380Y-66933333D02*
X220752380Y-67504761D01*
X220752380Y-67219047D02*
X219752380Y-67219047D01*
X219895238Y-67314285D01*
X219990476Y-67409523D01*
X220038095Y-67504761D01*
D14*
X211700000Y-60440000D02*
X208250000Y-60440000D01*
X211700000Y-60440000D02*
X213650000Y-60440000D01*
X211700000Y-65560000D02*
X209750000Y-65560000D01*
X211700000Y-65560000D02*
X213650000Y-65560000D01*
D12*
X195125000Y-75542500D02*
X189741400Y-75542500D01*
X193454300Y-70142500D02*
X189745700Y-70142500D01*
D14*
X205459420Y-63090000D02*
X205740580Y-63090000D01*
X205459420Y-64110000D02*
X205740580Y-64110000D01*
X100540000Y-99497936D02*
X100540000Y-100702064D01*
X103260000Y-99497936D02*
X103260000Y-100702064D01*
X103260000Y-106002064D02*
X103260000Y-104797936D01*
X100540000Y-106002064D02*
X100540000Y-104797936D01*
X196937221Y-73610000D02*
X197262779Y-73610000D01*
X196937221Y-72590000D02*
X197262779Y-72590000D01*
X196610000Y-68662779D02*
X196610000Y-68337221D01*
X195590000Y-68662779D02*
X195590000Y-68337221D01*
X113190000Y-100502064D02*
X113190000Y-99297936D01*
X115010000Y-100502064D02*
X115010000Y-99297936D01*
X105502064Y-110410000D02*
X104297936Y-110410000D01*
X105502064Y-108590000D02*
X104297936Y-108590000D01*
X193790000Y-77237221D02*
X193790000Y-77562779D01*
X194810000Y-77237221D02*
X194810000Y-77562779D01*
X180990000Y-65862779D02*
X180990000Y-65537221D01*
X182010000Y-65862779D02*
X182010000Y-65537221D01*
X107602064Y-94340000D02*
X106397936Y-94340000D01*
X107602064Y-97060000D02*
X106397936Y-97060000D01*
X179210000Y-78012779D02*
X179210000Y-77687221D01*
X178190000Y-78012779D02*
X178190000Y-77687221D01*
X178240000Y-67912779D02*
X178240000Y-67587221D01*
X179260000Y-67912779D02*
X179260000Y-67587221D01*
X162340000Y-68512779D02*
X162340000Y-68187221D01*
X163360000Y-68512779D02*
X163360000Y-68187221D01*
X161610000Y-71687221D02*
X161610000Y-72012779D01*
X160590000Y-71687221D02*
X160590000Y-72012779D01*
X164890000Y-77937221D02*
X164890000Y-78262779D01*
X165910000Y-77937221D02*
X165910000Y-78262779D01*
X170360000Y-70012779D02*
X170360000Y-69687221D01*
X169340000Y-70012779D02*
X169340000Y-69687221D01*
X184860000Y-79337221D02*
X184860000Y-79662779D01*
X183840000Y-79337221D02*
X183840000Y-79662779D01*
X174360000Y-73687221D02*
X174360000Y-74012779D01*
X173340000Y-73687221D02*
X173340000Y-74012779D01*
X199671721Y-138682000D02*
X199997279Y-138682000D01*
X199671721Y-139702000D02*
X199997279Y-139702000D01*
X195087021Y-145273300D02*
X195412579Y-145273300D01*
X195087021Y-146293300D02*
X195412579Y-146293300D01*
X189228000Y-142361679D02*
X189228000Y-142036121D01*
X190248000Y-142361679D02*
X190248000Y-142036121D01*
D15*
X94004000Y-55500000D02*
G75*
G03*
X94004000Y-55500000I-254000J0D01*
G01*
X94004000Y-57500000D02*
G75*
G03*
X94004000Y-57500000I-254000J0D01*
G01*
X94004000Y-53500000D02*
G75*
G03*
X94004000Y-53500000I-254000J0D01*
G01*
X90004000Y-57500000D02*
G75*
G03*
X90004000Y-57500000I-254000J0D01*
G01*
X92004000Y-55500000D02*
G75*
G03*
X92004000Y-55500000I-254000J0D01*
G01*
X90004000Y-53500000D02*
G75*
G03*
X90004000Y-53500000I-254000J0D01*
G01*
X92004000Y-57500000D02*
G75*
G03*
X92004000Y-57500000I-254000J0D01*
G01*
X90004000Y-55500000D02*
G75*
G03*
X90004000Y-55500000I-254000J0D01*
G01*
X92004000Y-53500000D02*
G75*
G03*
X92004000Y-53500000I-254000J0D01*
G01*
D14*
X112410000Y-100862779D02*
X112410000Y-100537221D01*
X111390000Y-100862779D02*
X111390000Y-100537221D01*
X108587221Y-109290000D02*
X108912779Y-109290000D01*
X108587221Y-110310000D02*
X108912779Y-110310000D01*
X187360000Y-67187221D02*
X187360000Y-67512779D01*
X186340000Y-67187221D02*
X186340000Y-67512779D01*
X184860000Y-76412779D02*
X184860000Y-76087221D01*
X183840000Y-76412779D02*
X183840000Y-76087221D01*
X180990000Y-69287221D02*
X180990000Y-69612779D01*
X182010000Y-69287221D02*
X182010000Y-69612779D01*
X187710000Y-77762779D02*
X187710000Y-77437221D01*
X186690000Y-77762779D02*
X186690000Y-77437221D01*
X182037221Y-72640000D02*
X182362779Y-72640000D01*
X182037221Y-73660000D02*
X182362779Y-73660000D01*
X177837221Y-76010000D02*
X178162779Y-76010000D01*
X177837221Y-74990000D02*
X178162779Y-74990000D01*
X177887221Y-69690000D02*
X178212779Y-69690000D01*
X177887221Y-70710000D02*
X178212779Y-70710000D01*
X174360000Y-69512779D02*
X174360000Y-69187221D01*
X173340000Y-69512779D02*
X173340000Y-69187221D01*
X171590000Y-73687221D02*
X171590000Y-74012779D01*
X172610000Y-73687221D02*
X172610000Y-74012779D01*
X166687221Y-68590000D02*
X167012779Y-68590000D01*
X166687221Y-69610000D02*
X167012779Y-69610000D01*
X163360000Y-71687221D02*
X163360000Y-72012779D01*
X162340000Y-71687221D02*
X162340000Y-72012779D01*
X159610000Y-72012779D02*
X159610000Y-71687221D01*
X158590000Y-72012779D02*
X158590000Y-71687221D01*
X210302064Y-103540000D02*
X209097936Y-103540000D01*
X210302064Y-106260000D02*
X209097936Y-106260000D01*
X208333471Y-142690000D02*
X208659029Y-142690000D01*
X208333471Y-143710000D02*
X208659029Y-143710000D01*
X202262779Y-60490000D02*
X201937221Y-60490000D01*
X202262779Y-61510000D02*
X201937221Y-61510000D01*
X231565000Y-143130000D02*
X230046000Y-143130000D01*
X210805000Y-146950000D02*
X210805000Y-141910000D01*
X230045000Y-141910000D02*
X210805000Y-141910000D01*
X231565000Y-144430000D02*
X230806000Y-144430000D01*
X230045000Y-146950000D02*
X210805000Y-146950000D01*
X230046000Y-145730000D02*
X230046000Y-143130000D01*
X230045000Y-146950000D02*
X230045000Y-141910000D01*
X231565000Y-145730000D02*
X230046000Y-145730000D01*
X231565000Y-145730000D02*
X231565000Y-143130000D01*
X107005000Y-102035000D02*
X108505000Y-102035000D01*
X107005000Y-102035000D02*
X105505000Y-102035000D01*
X107005000Y-97815000D02*
X104130000Y-97815000D01*
X107005000Y-97815000D02*
X108505000Y-97815000D01*
X107095000Y-107935000D02*
X108595000Y-107935000D01*
X107095000Y-107935000D02*
X105595000Y-107935000D01*
X107095000Y-103715000D02*
X104220000Y-103715000D01*
X107095000Y-103715000D02*
X108595000Y-103715000D01*
X206409420Y-81490000D02*
X206690580Y-81490000D01*
X206409420Y-82510000D02*
X206690580Y-82510000D01*
X114960000Y-105397936D02*
X114960000Y-106602064D01*
X112240000Y-105397936D02*
X112240000Y-106602064D01*
X167600000Y-71990000D02*
X164675000Y-71990000D01*
X167600000Y-75210000D02*
X169100000Y-75210000D01*
X167600000Y-71990000D02*
X169100000Y-71990000D01*
X167600000Y-75210000D02*
X166100000Y-75210000D01*
X196938000Y-140888900D02*
X198438000Y-140888900D01*
X196938000Y-144108900D02*
X195438000Y-144108900D01*
X196938000Y-144108900D02*
X199863000Y-144108900D01*
X196938000Y-140888900D02*
X195438000Y-140888900D01*
X217940580Y-62910000D02*
X217659420Y-62910000D01*
X217940580Y-61890000D02*
X217659420Y-61890000D01*
X217659420Y-64390000D02*
X217940580Y-64390000D01*
X217659420Y-65410000D02*
X217940580Y-65410000D01*
X205584420Y-61510000D02*
X205865580Y-61510000D01*
X205584420Y-60490000D02*
X205865580Y-60490000D01*
X209540580Y-66890000D02*
X209259420Y-66890000D01*
X209540580Y-67910000D02*
X209259420Y-67910000D01*
X109140000Y-137909000D02*
X110104000Y-137909000D01*
X105832000Y-138309000D02*
X107060000Y-138309000D01*
X106401000Y-137589000D02*
X107060000Y-137589000D01*
X109140000Y-137309000D02*
X109419000Y-137309000D01*
X105589000Y-138950000D02*
X107060000Y-138950000D01*
X109140000Y-138789000D02*
X110568000Y-138789000D01*
X109140000Y-139070000D02*
X110636000Y-139070000D01*
X105580000Y-138990000D02*
X107060000Y-138990000D01*
X109140000Y-137949000D02*
X110135000Y-137949000D01*
X106781000Y-137309000D02*
X107060000Y-137309000D01*
X109140000Y-138629000D02*
X110514000Y-138629000D01*
X105557000Y-139110000D02*
X107060000Y-139110000D01*
X106199000Y-137789000D02*
X107060000Y-137789000D01*
X109140000Y-138950000D02*
X110611000Y-138950000D01*
X107002000Y-137189000D02*
X109198000Y-137189000D01*
X109140000Y-138549000D02*
X110482000Y-138549000D01*
X109140000Y-138149000D02*
X110275000Y-138149000D01*
X105925000Y-138149000D02*
X107060000Y-138149000D01*
X109140000Y-139030000D02*
X110628000Y-139030000D01*
X109140000Y-138990000D02*
X110620000Y-138990000D01*
X106600000Y-137429000D02*
X107060000Y-137429000D01*
X109140000Y-137829000D02*
X110037000Y-137829000D01*
X105790000Y-138389000D02*
X107060000Y-138389000D01*
X107423000Y-137029000D02*
X108777000Y-137029000D01*
X109140000Y-138389000D02*
X110410000Y-138389000D01*
X109140000Y-137549000D02*
X109753000Y-137549000D01*
X105550000Y-139150000D02*
X107060000Y-139150000D01*
X105951000Y-138109000D02*
X107060000Y-138109000D01*
X106495000Y-137509000D02*
X107060000Y-137509000D01*
X105527000Y-139350000D02*
X110673000Y-139350000D01*
X109140000Y-138189000D02*
X110300000Y-138189000D01*
X106065000Y-137949000D02*
X107060000Y-137949000D01*
X105702000Y-138589000D02*
X107060000Y-138589000D01*
X106717000Y-137349000D02*
X107060000Y-137349000D01*
X107582000Y-136989000D02*
X108618000Y-136989000D01*
X105632000Y-138789000D02*
X107060000Y-138789000D01*
X106005000Y-138029000D02*
X107060000Y-138029000D01*
X105572000Y-139030000D02*
X107060000Y-139030000D01*
X109140000Y-138829000D02*
X110580000Y-138829000D01*
X106625000Y-142354775D02*
X106625000Y-141854775D01*
X105900000Y-138189000D02*
X107060000Y-138189000D01*
X105520000Y-139550000D02*
X110680000Y-139550000D01*
X109140000Y-138870000D02*
X110591000Y-138870000D01*
X106357000Y-137629000D02*
X107060000Y-137629000D01*
X105771000Y-138429000D02*
X107060000Y-138429000D01*
X105978000Y-138069000D02*
X107060000Y-138069000D01*
X109140000Y-138269000D02*
X110347000Y-138269000D01*
X109140000Y-139230000D02*
X110661000Y-139230000D01*
X105735000Y-138509000D02*
X107060000Y-138509000D01*
X105609000Y-138870000D02*
X107060000Y-138870000D01*
X105539000Y-139230000D02*
X107060000Y-139230000D01*
X109140000Y-137589000D02*
X109799000Y-137589000D01*
X106849000Y-137269000D02*
X107060000Y-137269000D01*
X106129000Y-137869000D02*
X107060000Y-137869000D01*
X109140000Y-138509000D02*
X110465000Y-138509000D01*
X105535000Y-139270000D02*
X107060000Y-139270000D01*
X109140000Y-137709000D02*
X109926000Y-137709000D01*
X106657000Y-137389000D02*
X107060000Y-137389000D01*
X105853000Y-138269000D02*
X107060000Y-138269000D01*
X106274000Y-137709000D02*
X107060000Y-137709000D01*
X109140000Y-138069000D02*
X110222000Y-138069000D01*
X106546000Y-137469000D02*
X107060000Y-137469000D01*
X109140000Y-138669000D02*
X110528000Y-138669000D01*
X106035000Y-137989000D02*
X107060000Y-137989000D01*
X105531000Y-139310000D02*
X107060000Y-139310000D01*
X106922000Y-137229000D02*
X109278000Y-137229000D01*
X107185000Y-137109000D02*
X109015000Y-137109000D01*
X109140000Y-137669000D02*
X109885000Y-137669000D01*
X105672000Y-138669000D02*
X107060000Y-138669000D01*
X109140000Y-138109000D02*
X110249000Y-138109000D01*
X106447000Y-137549000D02*
X107060000Y-137549000D01*
X109140000Y-138709000D02*
X110542000Y-138709000D01*
X107295000Y-137069000D02*
X108905000Y-137069000D01*
X107816000Y-136949000D02*
X108384000Y-136949000D01*
X105564000Y-139070000D02*
X107060000Y-139070000D01*
X109140000Y-138910000D02*
X110601000Y-138910000D01*
X105599000Y-138910000D02*
X107060000Y-138910000D01*
X107089000Y-137149000D02*
X109111000Y-137149000D01*
X109140000Y-137789000D02*
X110001000Y-137789000D01*
X105544000Y-139190000D02*
X107060000Y-139190000D01*
X105524000Y-139390000D02*
X110676000Y-139390000D01*
X109140000Y-138429000D02*
X110429000Y-138429000D01*
X106315000Y-137669000D02*
X107060000Y-137669000D01*
X105686000Y-138629000D02*
X107060000Y-138629000D01*
X109140000Y-138349000D02*
X110390000Y-138349000D01*
X105876000Y-138229000D02*
X107060000Y-138229000D01*
X109140000Y-138309000D02*
X110368000Y-138309000D01*
X109140000Y-139270000D02*
X110665000Y-139270000D01*
X105620000Y-138829000D02*
X107060000Y-138829000D01*
X105658000Y-138709000D02*
X107060000Y-138709000D01*
X109140000Y-138589000D02*
X110498000Y-138589000D01*
X109140000Y-138229000D02*
X110324000Y-138229000D01*
X105522000Y-139430000D02*
X110678000Y-139430000D01*
X106163000Y-137829000D02*
X107060000Y-137829000D01*
X109140000Y-138749000D02*
X110555000Y-138749000D01*
X109140000Y-139190000D02*
X110656000Y-139190000D01*
X109140000Y-137869000D02*
X110071000Y-137869000D01*
X109140000Y-137469000D02*
X109654000Y-137469000D01*
X109140000Y-137509000D02*
X109705000Y-137509000D01*
X109140000Y-138029000D02*
X110195000Y-138029000D01*
X109140000Y-137269000D02*
X109351000Y-137269000D01*
X109140000Y-137349000D02*
X109483000Y-137349000D01*
X106375000Y-142104775D02*
X106875000Y-142104775D01*
X105752000Y-138469000D02*
X107060000Y-138469000D01*
X109140000Y-137749000D02*
X109964000Y-137749000D01*
X105520000Y-139510000D02*
X110680000Y-139510000D01*
X106096000Y-137909000D02*
X107060000Y-137909000D01*
X109140000Y-139110000D02*
X110643000Y-139110000D01*
X109140000Y-139150000D02*
X110650000Y-139150000D01*
X105521000Y-139470000D02*
X110679000Y-139470000D01*
X105810000Y-138349000D02*
X107060000Y-138349000D01*
X109140000Y-137629000D02*
X109843000Y-137629000D01*
X109140000Y-137989000D02*
X110165000Y-137989000D01*
X109140000Y-138469000D02*
X110448000Y-138469000D01*
X109140000Y-139310000D02*
X110669000Y-139310000D01*
X105645000Y-138749000D02*
X107060000Y-138749000D01*
X109140000Y-137429000D02*
X109600000Y-137429000D01*
X106236000Y-137749000D02*
X107060000Y-137749000D01*
X109140000Y-137389000D02*
X109543000Y-137389000D01*
X105718000Y-138549000D02*
X107060000Y-138549000D01*
X110720000Y-139550000D02*
G75*
G03*
X110720000Y-139550000I-2620000J0D01*
G01*
X102190000Y-139459420D02*
X102190000Y-139740580D01*
X103210000Y-139459420D02*
X103210000Y-139740580D01*
X97190000Y-139559420D02*
X97190000Y-139840580D01*
X98210000Y-139559420D02*
X98210000Y-139840580D01*
X90863000Y-137729000D02*
X91760000Y-137729000D01*
X90796000Y-137809000D02*
X91760000Y-137809000D01*
X93840000Y-139170000D02*
X95365000Y-139170000D01*
X93840000Y-138169000D02*
X95047000Y-138169000D01*
X91147000Y-137449000D02*
X91760000Y-137449000D01*
X93840000Y-138569000D02*
X95228000Y-138569000D01*
X90651000Y-138009000D02*
X91760000Y-138009000D01*
X91417000Y-137249000D02*
X91760000Y-137249000D01*
X93840000Y-138289000D02*
X95110000Y-138289000D01*
X90309000Y-138770000D02*
X91760000Y-138770000D01*
X93840000Y-138209000D02*
X95068000Y-138209000D01*
X93840000Y-138369000D02*
X95148000Y-138369000D01*
X93840000Y-137329000D02*
X94300000Y-137329000D01*
X93840000Y-139130000D02*
X95361000Y-139130000D01*
X90490000Y-138289000D02*
X91760000Y-138289000D01*
X93840000Y-138689000D02*
X95268000Y-138689000D01*
X93840000Y-138409000D02*
X95165000Y-138409000D01*
X93840000Y-138089000D02*
X95000000Y-138089000D01*
X90386000Y-138529000D02*
X91760000Y-138529000D01*
X93840000Y-137969000D02*
X94922000Y-137969000D01*
X90435000Y-138409000D02*
X91760000Y-138409000D01*
X93840000Y-138890000D02*
X95320000Y-138890000D01*
X91481000Y-137209000D02*
X91760000Y-137209000D01*
X93840000Y-138129000D02*
X95024000Y-138129000D01*
X90280000Y-138890000D02*
X91760000Y-138890000D01*
X93840000Y-137769000D02*
X94771000Y-137769000D01*
X93840000Y-137569000D02*
X94585000Y-137569000D01*
X90264000Y-138970000D02*
X91760000Y-138970000D01*
X93840000Y-139010000D02*
X95343000Y-139010000D01*
X90235000Y-139170000D02*
X91760000Y-139170000D01*
X93840000Y-137409000D02*
X94405000Y-137409000D01*
X91015000Y-137569000D02*
X91760000Y-137569000D01*
X90829000Y-137769000D02*
X91760000Y-137769000D01*
X91622000Y-137129000D02*
X93978000Y-137129000D01*
X92516000Y-136849000D02*
X93084000Y-136849000D01*
X93840000Y-139050000D02*
X95350000Y-139050000D01*
X90332000Y-138689000D02*
X91760000Y-138689000D01*
X93840000Y-137809000D02*
X94804000Y-137809000D01*
X90272000Y-138930000D02*
X91760000Y-138930000D01*
X91325000Y-142254775D02*
X91325000Y-141754775D01*
X93840000Y-137609000D02*
X94626000Y-137609000D01*
X93840000Y-138729000D02*
X95280000Y-138729000D01*
X90358000Y-138609000D02*
X91760000Y-138609000D01*
X93840000Y-138970000D02*
X95336000Y-138970000D01*
X93840000Y-138009000D02*
X94949000Y-138009000D01*
X93840000Y-137249000D02*
X94183000Y-137249000D01*
X90553000Y-138169000D02*
X91760000Y-138169000D01*
X93840000Y-139210000D02*
X95369000Y-139210000D01*
X93840000Y-137729000D02*
X94737000Y-137729000D01*
X93840000Y-138649000D02*
X95255000Y-138649000D01*
X93840000Y-137449000D02*
X94453000Y-137449000D01*
X91549000Y-137169000D02*
X91760000Y-137169000D01*
X93840000Y-138449000D02*
X95182000Y-138449000D01*
X93840000Y-137649000D02*
X94664000Y-137649000D01*
X90625000Y-138049000D02*
X91760000Y-138049000D01*
X90289000Y-138850000D02*
X91760000Y-138850000D01*
X90257000Y-139010000D02*
X91760000Y-139010000D01*
X90299000Y-138810000D02*
X91760000Y-138810000D01*
X90402000Y-138489000D02*
X91760000Y-138489000D01*
X91057000Y-137529000D02*
X91760000Y-137529000D01*
X90220000Y-139410000D02*
X95380000Y-139410000D01*
X90231000Y-139210000D02*
X91760000Y-139210000D01*
X90227000Y-139250000D02*
X95373000Y-139250000D01*
X91075000Y-142004775D02*
X91575000Y-142004775D01*
X93840000Y-137889000D02*
X94865000Y-137889000D01*
X90705000Y-137929000D02*
X91760000Y-137929000D01*
X91300000Y-137329000D02*
X91760000Y-137329000D01*
X93840000Y-137929000D02*
X94895000Y-137929000D01*
X90678000Y-137969000D02*
X91760000Y-137969000D01*
X90221000Y-139370000D02*
X95379000Y-139370000D01*
X90936000Y-137649000D02*
X91760000Y-137649000D01*
X91101000Y-137489000D02*
X91760000Y-137489000D01*
X93840000Y-137169000D02*
X94051000Y-137169000D01*
X93840000Y-138770000D02*
X95291000Y-138770000D01*
X90471000Y-138329000D02*
X91760000Y-138329000D01*
X90418000Y-138449000D02*
X91760000Y-138449000D01*
X90222000Y-139330000D02*
X95378000Y-139330000D01*
X93840000Y-138609000D02*
X95242000Y-138609000D01*
X93840000Y-139090000D02*
X95356000Y-139090000D01*
X92282000Y-136889000D02*
X93318000Y-136889000D01*
X93840000Y-137849000D02*
X94835000Y-137849000D01*
X91885000Y-137009000D02*
X93715000Y-137009000D01*
X90532000Y-138209000D02*
X91760000Y-138209000D01*
X93840000Y-138489000D02*
X95198000Y-138489000D01*
X90224000Y-139290000D02*
X95376000Y-139290000D01*
X90452000Y-138369000D02*
X91760000Y-138369000D01*
X90576000Y-138129000D02*
X91760000Y-138129000D01*
X93840000Y-137529000D02*
X94543000Y-137529000D01*
X90899000Y-137689000D02*
X91760000Y-137689000D01*
X90765000Y-137849000D02*
X91760000Y-137849000D01*
X91995000Y-136969000D02*
X93605000Y-136969000D01*
X90250000Y-139050000D02*
X91760000Y-139050000D01*
X93840000Y-137489000D02*
X94499000Y-137489000D01*
X93840000Y-137689000D02*
X94701000Y-137689000D01*
X93840000Y-138529000D02*
X95214000Y-138529000D01*
X90244000Y-139090000D02*
X91760000Y-139090000D01*
X92123000Y-136929000D02*
X93477000Y-136929000D01*
X90735000Y-137889000D02*
X91760000Y-137889000D01*
X90320000Y-138729000D02*
X91760000Y-138729000D01*
X90510000Y-138249000D02*
X91760000Y-138249000D01*
X93840000Y-137369000D02*
X94354000Y-137369000D01*
X90600000Y-138089000D02*
X91760000Y-138089000D01*
X90239000Y-139130000D02*
X91760000Y-139130000D01*
X91702000Y-137089000D02*
X93898000Y-137089000D01*
X93840000Y-138329000D02*
X95129000Y-138329000D01*
X90220000Y-139450000D02*
X95380000Y-139450000D01*
X93840000Y-138930000D02*
X95328000Y-138930000D01*
X91195000Y-137409000D02*
X91760000Y-137409000D01*
X93840000Y-137289000D02*
X94243000Y-137289000D01*
X90974000Y-137609000D02*
X91760000Y-137609000D01*
X93840000Y-138810000D02*
X95301000Y-138810000D01*
X91246000Y-137369000D02*
X91760000Y-137369000D01*
X93840000Y-138249000D02*
X95090000Y-138249000D01*
X90372000Y-138569000D02*
X91760000Y-138569000D01*
X91789000Y-137049000D02*
X93811000Y-137049000D01*
X93840000Y-138049000D02*
X94975000Y-138049000D01*
X93840000Y-137209000D02*
X94119000Y-137209000D01*
X91357000Y-137289000D02*
X91760000Y-137289000D01*
X90345000Y-138649000D02*
X91760000Y-138649000D01*
X93840000Y-138850000D02*
X95311000Y-138850000D01*
X95420000Y-139450000D02*
G75*
G03*
X95420000Y-139450000I-2620000J0D01*
G01*
X74660000Y-128340000D02*
X74660000Y-127539000D01*
X74660000Y-130880000D02*
X74660000Y-130079000D01*
X74660000Y-141741000D02*
X74660000Y-140465000D01*
X74660000Y-69920000D02*
X74660000Y-69119000D01*
X74660000Y-67380000D02*
X74660000Y-66579000D01*
X74660000Y-115640000D02*
X74660000Y-114839000D01*
X74660000Y-138275000D02*
X74660000Y-137699000D01*
X75700000Y-141065000D02*
X75400000Y-140465000D01*
X74660000Y-95320000D02*
X74660000Y-94519000D01*
X74660000Y-118180000D02*
X74660000Y-117379000D01*
X74660000Y-62300000D02*
X74660000Y-61499000D01*
X74660000Y-72460000D02*
X74660000Y-71659000D01*
X74660000Y-80080000D02*
X74660000Y-79279000D01*
X70100000Y-52740000D02*
X75660000Y-52740000D01*
X74660000Y-77540000D02*
X74660000Y-76739000D01*
X74660000Y-135960000D02*
X74660000Y-135159000D01*
X74660000Y-110560000D02*
X74660000Y-109759000D01*
X70100000Y-147260000D02*
X75660000Y-147260000D01*
X75660000Y-52740000D02*
X75660000Y-58260000D01*
X74660000Y-75000000D02*
X74660000Y-74199000D01*
X74660000Y-90240000D02*
X74660000Y-89439000D01*
X74660000Y-123260000D02*
X74660000Y-122459000D01*
X74660000Y-97860000D02*
X74660000Y-97059000D01*
X74660000Y-100400000D02*
X74660000Y-99599000D01*
X75660000Y-58260000D02*
X74660000Y-58260000D01*
X75660000Y-147260000D02*
X75660000Y-141740000D01*
X74660000Y-133420000D02*
X74660000Y-132619000D01*
X74660000Y-113100000D02*
X74660000Y-112299000D01*
X74660000Y-125800000D02*
X74660000Y-124999000D01*
X75400000Y-140465000D02*
X75100000Y-141065000D01*
X74660000Y-92780000D02*
X74660000Y-91979000D01*
X75660000Y-141740000D02*
X74660000Y-141740000D01*
X74660000Y-59760000D02*
X74660000Y-58260000D01*
X75100000Y-141065000D02*
X75700000Y-141065000D01*
X74660000Y-85160000D02*
X74660000Y-84359000D01*
X74660000Y-108020000D02*
X74660000Y-107219000D01*
X74660000Y-82620000D02*
X74660000Y-81819000D01*
X74660000Y-87700000D02*
X74660000Y-86899000D01*
X74660000Y-102940000D02*
X74660000Y-102139000D01*
X74660000Y-64840000D02*
X74660000Y-64039000D01*
X74660000Y-105480000D02*
X74660000Y-104679000D01*
X74660000Y-120720000D02*
X74660000Y-119919000D01*
X105580000Y-144129000D02*
X95340000Y-144129000D01*
X105580000Y-148770000D02*
X105580000Y-144129000D01*
X102310000Y-148770000D02*
X102310000Y-147260000D01*
X98609000Y-148770000D02*
X98609000Y-147260000D01*
X105580000Y-148770000D02*
X95340000Y-148770000D01*
X105580000Y-147260000D02*
X95340000Y-147260000D01*
X95340000Y-148770000D02*
X95340000Y-144129000D01*
X90325000Y-60949000D02*
X91460000Y-60949000D01*
X89957000Y-61910000D02*
X91460000Y-61910000D01*
X93540000Y-62070000D02*
X95065000Y-62070000D01*
X90210000Y-61149000D02*
X91460000Y-61149000D01*
X93540000Y-60509000D02*
X94326000Y-60509000D01*
X91057000Y-60189000D02*
X91460000Y-60189000D01*
X91000000Y-60229000D02*
X91460000Y-60229000D01*
X93540000Y-60829000D02*
X94595000Y-60829000D01*
X93540000Y-61589000D02*
X94968000Y-61589000D01*
X90276000Y-61029000D02*
X91460000Y-61029000D01*
X91402000Y-59989000D02*
X93598000Y-59989000D01*
X90636000Y-60549000D02*
X91460000Y-60549000D01*
X93540000Y-61509000D02*
X94942000Y-61509000D01*
X93540000Y-60149000D02*
X93883000Y-60149000D01*
X93540000Y-60109000D02*
X93819000Y-60109000D01*
X93540000Y-60709000D02*
X94504000Y-60709000D01*
X90190000Y-61189000D02*
X91460000Y-61189000D01*
X90715000Y-60469000D02*
X91460000Y-60469000D01*
X90801000Y-60389000D02*
X91460000Y-60389000D01*
X91249000Y-60069000D02*
X91460000Y-60069000D01*
X90086000Y-61429000D02*
X91460000Y-61429000D01*
X93540000Y-61029000D02*
X94724000Y-61029000D01*
X93540000Y-60389000D02*
X94199000Y-60389000D01*
X93540000Y-60949000D02*
X94675000Y-60949000D01*
X93540000Y-60309000D02*
X94105000Y-60309000D01*
X89920000Y-62350000D02*
X95080000Y-62350000D01*
X89950000Y-61950000D02*
X91460000Y-61950000D01*
X90496000Y-60709000D02*
X91460000Y-60709000D01*
X93540000Y-61830000D02*
X95028000Y-61830000D01*
X89924000Y-62190000D02*
X95076000Y-62190000D01*
X93540000Y-60269000D02*
X94054000Y-60269000D01*
X90102000Y-61389000D02*
X91460000Y-61389000D01*
X90529000Y-60669000D02*
X91460000Y-60669000D01*
X89980000Y-61790000D02*
X91460000Y-61790000D01*
X91025000Y-65154775D02*
X91025000Y-64654775D01*
X93540000Y-60669000D02*
X94471000Y-60669000D01*
X90599000Y-60589000D02*
X91460000Y-60589000D01*
X93540000Y-61469000D02*
X94928000Y-61469000D01*
X93540000Y-61910000D02*
X95043000Y-61910000D01*
X93540000Y-61069000D02*
X94747000Y-61069000D01*
X93540000Y-61109000D02*
X94768000Y-61109000D01*
X90135000Y-61309000D02*
X91460000Y-61309000D01*
X89921000Y-62270000D02*
X95079000Y-62270000D01*
X90232000Y-61109000D02*
X91460000Y-61109000D01*
X90895000Y-60309000D02*
X91460000Y-60309000D01*
X90757000Y-60429000D02*
X91460000Y-60429000D01*
X93540000Y-60189000D02*
X93943000Y-60189000D01*
X93540000Y-62030000D02*
X95061000Y-62030000D01*
X93540000Y-60989000D02*
X94700000Y-60989000D01*
X90351000Y-60909000D02*
X91460000Y-60909000D01*
X90072000Y-61469000D02*
X91460000Y-61469000D01*
X90300000Y-60989000D02*
X91460000Y-60989000D01*
X93540000Y-61710000D02*
X95001000Y-61710000D01*
X90253000Y-61069000D02*
X91460000Y-61069000D01*
X93540000Y-61429000D02*
X94914000Y-61429000D01*
X89964000Y-61870000D02*
X91460000Y-61870000D01*
X90045000Y-61549000D02*
X91460000Y-61549000D01*
X89927000Y-62150000D02*
X95073000Y-62150000D01*
X93540000Y-60069000D02*
X93751000Y-60069000D01*
X90946000Y-60269000D02*
X91460000Y-60269000D01*
X89922000Y-62230000D02*
X95078000Y-62230000D01*
X93540000Y-60589000D02*
X94401000Y-60589000D01*
X91823000Y-59829000D02*
X93177000Y-59829000D01*
X93540000Y-61269000D02*
X94848000Y-61269000D01*
X93540000Y-60469000D02*
X94285000Y-60469000D01*
X90009000Y-61670000D02*
X91460000Y-61670000D01*
X93540000Y-61950000D02*
X95050000Y-61950000D01*
X93540000Y-61149000D02*
X94790000Y-61149000D01*
X89931000Y-62110000D02*
X91460000Y-62110000D01*
X93540000Y-60869000D02*
X94622000Y-60869000D01*
X93540000Y-60349000D02*
X94153000Y-60349000D01*
X93540000Y-61670000D02*
X94991000Y-61670000D01*
X90775000Y-64904775D02*
X91275000Y-64904775D01*
X89920000Y-62310000D02*
X95080000Y-62310000D01*
X90435000Y-60789000D02*
X91460000Y-60789000D01*
X91117000Y-60149000D02*
X91460000Y-60149000D01*
X93540000Y-61189000D02*
X94810000Y-61189000D01*
X90465000Y-60749000D02*
X91460000Y-60749000D01*
X93540000Y-61870000D02*
X95036000Y-61870000D01*
X93540000Y-60909000D02*
X94649000Y-60909000D01*
X93540000Y-60629000D02*
X94437000Y-60629000D01*
X93540000Y-60789000D02*
X94565000Y-60789000D01*
X93540000Y-61349000D02*
X94882000Y-61349000D01*
X90020000Y-61629000D02*
X91460000Y-61629000D01*
X90032000Y-61589000D02*
X91460000Y-61589000D01*
X92216000Y-59749000D02*
X92784000Y-59749000D01*
X93540000Y-61990000D02*
X95056000Y-61990000D01*
X91982000Y-59789000D02*
X93018000Y-59789000D01*
X89939000Y-62030000D02*
X91460000Y-62030000D01*
X93540000Y-61309000D02*
X94865000Y-61309000D01*
X90152000Y-61269000D02*
X91460000Y-61269000D01*
X90378000Y-60869000D02*
X91460000Y-60869000D01*
X91322000Y-60029000D02*
X93678000Y-60029000D01*
X93540000Y-60429000D02*
X94243000Y-60429000D01*
X90563000Y-60629000D02*
X91460000Y-60629000D01*
X93540000Y-61389000D02*
X94898000Y-61389000D01*
X89944000Y-61990000D02*
X91460000Y-61990000D01*
X90171000Y-61229000D02*
X91460000Y-61229000D01*
X90674000Y-60509000D02*
X91460000Y-60509000D01*
X93540000Y-61549000D02*
X94955000Y-61549000D01*
X91489000Y-59949000D02*
X93511000Y-59949000D01*
X93540000Y-61229000D02*
X94829000Y-61229000D01*
X91695000Y-59869000D02*
X93305000Y-59869000D01*
X90405000Y-60829000D02*
X91460000Y-60829000D01*
X91181000Y-60109000D02*
X91460000Y-60109000D01*
X93540000Y-60229000D02*
X94000000Y-60229000D01*
X89989000Y-61750000D02*
X91460000Y-61750000D01*
X93540000Y-61750000D02*
X95011000Y-61750000D01*
X93540000Y-60549000D02*
X94364000Y-60549000D01*
X93540000Y-60749000D02*
X94535000Y-60749000D01*
X91585000Y-59909000D02*
X93415000Y-59909000D01*
X93540000Y-62110000D02*
X95069000Y-62110000D01*
X93540000Y-61790000D02*
X95020000Y-61790000D01*
X90118000Y-61349000D02*
X91460000Y-61349000D01*
X90847000Y-60349000D02*
X91460000Y-60349000D01*
X89972000Y-61830000D02*
X91460000Y-61830000D01*
X89999000Y-61710000D02*
X91460000Y-61710000D01*
X89935000Y-62070000D02*
X91460000Y-62070000D01*
X90058000Y-61509000D02*
X91460000Y-61509000D01*
X93540000Y-61629000D02*
X94980000Y-61629000D01*
X95120000Y-62350000D02*
G75*
G03*
X95120000Y-62350000I-2620000J0D01*
G01*
X204544200Y-127394580D02*
X204544200Y-127113420D01*
X205564200Y-127394580D02*
X205564200Y-127113420D01*
X194031480Y-130519900D02*
X193750320Y-130519900D01*
X194031480Y-129499900D02*
X193750320Y-129499900D01*
X193397600Y-122236620D02*
X193397600Y-122517780D01*
X192377600Y-122236620D02*
X192377600Y-122517780D01*
X205615000Y-122312820D02*
X205615000Y-122593980D01*
X204595000Y-122312820D02*
X204595000Y-122593980D01*
X204569600Y-119114180D02*
X204569600Y-118833020D01*
X205589600Y-119114180D02*
X205589600Y-118833020D01*
X210195700Y-132549020D02*
X210195700Y-132830180D01*
X211215700Y-132549020D02*
X211215700Y-132830180D01*
X82950000Y-141250000D02*
X82950000Y-135550000D01*
X82950000Y-141250000D02*
X87250000Y-141250000D01*
X87250000Y-141250000D02*
X87250000Y-135550000D01*
X87150000Y-65850000D02*
X87150000Y-60150000D01*
X82850000Y-65850000D02*
X87150000Y-65850000D01*
X82850000Y-65850000D02*
X82850000Y-60150000D01*
X204560500Y-142762742D02*
X204560500Y-143237258D01*
X203515500Y-142762742D02*
X203515500Y-143237258D01*
X202460500Y-143237258D02*
X202460500Y-142762742D01*
X201415500Y-143237258D02*
X201415500Y-142762742D01*
X190826158Y-139676400D02*
X190351642Y-139676400D01*
X190826158Y-138631400D02*
X190351642Y-138631400D01*
X178179200Y-125099042D02*
X178179200Y-125573558D01*
X179224200Y-125099042D02*
X179224200Y-125573558D01*
X191115500Y-141961642D02*
X191115500Y-142436158D01*
X192160500Y-141961642D02*
X192160500Y-142436158D01*
X191517800Y-122627158D02*
X191517800Y-122152642D01*
X190472800Y-122627158D02*
X190472800Y-122152642D01*
X193397400Y-119287058D02*
X193397400Y-118812542D01*
X192352400Y-119287058D02*
X192352400Y-118812542D01*
X194193900Y-119274358D02*
X194193900Y-118799842D01*
X195238900Y-119274358D02*
X195238900Y-118799842D01*
X208483363Y-127651600D02*
X209930837Y-127651600D01*
X208483363Y-130361600D02*
X209930837Y-130361600D01*
X199986900Y-127414600D02*
X202186900Y-127414600D01*
X199986900Y-132884600D02*
X202186900Y-132884600D01*
X199986900Y-127414600D02*
X196386900Y-127414600D01*
X199986900Y-132884600D02*
X197786900Y-132884600D01*
X200050400Y-122841700D02*
X202000400Y-122841700D01*
X200050400Y-122841700D02*
X198100400Y-122841700D01*
X200050400Y-117721700D02*
X196600400Y-117721700D01*
X200050400Y-117721700D02*
X202000400Y-117721700D01*
X224090000Y-82000000D02*
X223590000Y-81750000D01*
X223590000Y-81750000D02*
X223590000Y-82250000D01*
X223590000Y-82250000D02*
X224090000Y-82000000D01*
X223590000Y-65250000D02*
X224090000Y-65000000D01*
X224090000Y-65000000D02*
X223590000Y-64750000D01*
X223590000Y-64750000D02*
X223590000Y-65250000D01*
X229800000Y-112500000D02*
X214800000Y-112500000D01*
X229600000Y-105000000D02*
X228600000Y-106000000D01*
X214800000Y-112500000D02*
X214800000Y-97500000D01*
X214800000Y-97500000D02*
X229800000Y-97500000D01*
X229800000Y-97500000D02*
X229800000Y-112500000D01*
X229600000Y-105000000D02*
X228600000Y-104000000D01*
X229900000Y-136500000D02*
X214900000Y-136500000D01*
X229700000Y-129000000D02*
X228700000Y-130000000D01*
X229900000Y-121500000D02*
X229900000Y-136500000D01*
X214900000Y-121500000D02*
X229900000Y-121500000D01*
X229700000Y-129000000D02*
X228700000Y-128000000D01*
X214900000Y-136500000D02*
X214900000Y-121500000D01*
X183048500Y-127623500D02*
X182548500Y-127623500D01*
X186048500Y-130023500D02*
X186658500Y-130023500D01*
X182548500Y-125523500D02*
X183048500Y-125523500D01*
X186858500Y-124223500D02*
X186858500Y-123923500D01*
X186958500Y-122163500D02*
X185708500Y-122163500D01*
X186958500Y-123413500D02*
X186958500Y-122163500D01*
X185348500Y-132583500D02*
X185348500Y-131973500D01*
X184048500Y-132583500D02*
X184048500Y-131973500D01*
X182548500Y-123073500D02*
X182548500Y-131973500D01*
X184048500Y-122463500D02*
X184048500Y-123073500D01*
X181938500Y-122463500D02*
X181938500Y-132583500D01*
X186048500Y-131973500D02*
X186048500Y-130023500D01*
X186658500Y-122463500D02*
X181938500Y-122463500D01*
X183048500Y-129623500D02*
X182548500Y-129623500D01*
X182548500Y-125423500D02*
X183048500Y-125423500D01*
X186048500Y-125023500D02*
X186048500Y-123073500D01*
X183048500Y-125623500D02*
X182548500Y-125623500D01*
X186658500Y-125023500D02*
X186048500Y-125023500D01*
X183048500Y-129423500D02*
X183048500Y-129623500D01*
X183048500Y-127423500D02*
X183048500Y-127623500D01*
X182548500Y-127423500D02*
X183048500Y-127423500D01*
X185348500Y-122463500D02*
X185348500Y-123073500D01*
X186658500Y-124223500D02*
X186858500Y-124223500D01*
X182548500Y-129423500D02*
X183048500Y-129423500D01*
X182548500Y-129523500D02*
X183048500Y-129523500D01*
X182548500Y-131973500D02*
X186048500Y-131973500D01*
X186758500Y-124223500D02*
X186758500Y-123923500D01*
X186048500Y-123073500D02*
X182548500Y-123073500D01*
X181938500Y-132583500D02*
X186658500Y-132583500D01*
X186858500Y-123923500D02*
X186658500Y-123923500D01*
X183048500Y-125423500D02*
X183048500Y-125623500D01*
X186658500Y-132583500D02*
X186658500Y-122463500D01*
X182548500Y-127523500D02*
X183048500Y-127523500D01*
X179186300Y-128916820D02*
X179186300Y-129197980D01*
X178166300Y-128916820D02*
X178166300Y-129197980D01*
X107000000Y-90040000D02*
X105325000Y-90040000D01*
X107000000Y-90040000D02*
X107650000Y-90040000D01*
X107000000Y-93160000D02*
X107650000Y-93160000D01*
X107000000Y-93160000D02*
X106350000Y-93160000D01*
X205800000Y-68950000D02*
X205200000Y-68950000D01*
X204500000Y-68250000D02*
X204500000Y-66850000D01*
X205200000Y-66150000D02*
X205800000Y-66150000D01*
X206500000Y-66850000D02*
X206500000Y-68250000D01*
X206500000Y-66850000D02*
G75*
G03*
X205800000Y-66150000I-700000J0D01*
G01*
X205200000Y-66150000D02*
G75*
G03*
X204500000Y-66850000I0J-700000D01*
G01*
X204500000Y-68250000D02*
G75*
G03*
X205200000Y-68950000I699999J-1D01*
G01*
X205800000Y-68950000D02*
G75*
G03*
X206500000Y-68250000I1J699999D01*
G01*
X219500000Y-67400000D02*
X219500000Y-68800000D01*
X217500000Y-68800000D02*
X217500000Y-67400000D01*
X218200000Y-66700000D02*
X218800000Y-66700000D01*
X218800000Y-69500000D02*
X218200000Y-69500000D01*
X218800000Y-69500000D02*
G75*
G03*
X219500000Y-68800000I0J700000D01*
G01*
X219500000Y-67400000D02*
G75*
G03*
X218800000Y-66700000I-699999J1D01*
G01*
X218200000Y-66700000D02*
G75*
G03*
X217500000Y-67400000I-1J-699999D01*
G01*
X217500000Y-68800000D02*
G75*
G03*
X218200000Y-69500000I700000J0D01*
G01*
M02*
