G04 #@! TF.GenerationSoftware,KiCad,Pcbnew,(6.0.7)*
G04 #@! TF.CreationDate,2023-03-22T22:30:53+01:00*
G04 #@! TF.ProjectId,phase-frequency_detector,70686173-652d-4667-9265-7175656e6379,1.4.1*
G04 #@! TF.SameCoordinates,Original*
G04 #@! TF.FileFunction,Paste,Top*
G04 #@! TF.FilePolarity,Positive*
%FSLAX46Y46*%
G04 Gerber Fmt 4.6, Leading zero omitted, Abs format (unit mm)*
G04 Created by KiCad (PCBNEW (6.0.7)) date 2023-03-22 22:30:53*
%MOMM*%
%LPD*%
G01*
G04 APERTURE LIST*
G04 Aperture macros list*
%AMRoundRect*
0 Rectangle with rounded corners*
0 $1 Rounding radius*
0 $2 $3 $4 $5 $6 $7 $8 $9 X,Y pos of 4 corners*
0 Add a 4 corners polygon primitive as box body*
4,1,4,$2,$3,$4,$5,$6,$7,$8,$9,$2,$3,0*
0 Add four circle primitives for the rounded corners*
1,1,$1+$1,$2,$3*
1,1,$1+$1,$4,$5*
1,1,$1+$1,$6,$7*
1,1,$1+$1,$8,$9*
0 Add four rect primitives between the rounded corners*
20,1,$1+$1,$2,$3,$4,$5,0*
20,1,$1+$1,$4,$5,$6,$7,0*
20,1,$1+$1,$6,$7,$8,$9,0*
20,1,$1+$1,$8,$9,$2,$3,0*%
G04 Aperture macros list end*
%ADD10RoundRect,0.225000X-0.225000X-0.250000X0.225000X-0.250000X0.225000X0.250000X-0.225000X0.250000X0*%
%ADD11RoundRect,0.250000X-1.075000X0.375000X-1.075000X-0.375000X1.075000X-0.375000X1.075000X0.375000X0*%
%ADD12RoundRect,0.250000X1.075000X-0.375000X1.075000X0.375000X-1.075000X0.375000X-1.075000X-0.375000X0*%
%ADD13RoundRect,0.218750X-0.218750X-0.256250X0.218750X-0.256250X0.218750X0.256250X-0.218750X0.256250X0*%
%ADD14RoundRect,0.218750X0.256250X-0.218750X0.256250X0.218750X-0.256250X0.218750X-0.256250X-0.218750X0*%
%ADD15RoundRect,0.250000X0.625000X-0.375000X0.625000X0.375000X-0.625000X0.375000X-0.625000X-0.375000X0*%
%ADD16RoundRect,0.250000X0.375000X0.625000X-0.375000X0.625000X-0.375000X-0.625000X0.375000X-0.625000X0*%
%ADD17RoundRect,0.218750X-0.256250X0.218750X-0.256250X-0.218750X0.256250X-0.218750X0.256250X0.218750X0*%
%ADD18RoundRect,0.250000X0.375000X1.075000X-0.375000X1.075000X-0.375000X-1.075000X0.375000X-1.075000X0*%
%ADD19RoundRect,0.218750X0.218750X0.256250X-0.218750X0.256250X-0.218750X-0.256250X0.218750X-0.256250X0*%
%ADD20RoundRect,0.167500X-0.167500X-0.407500X0.167500X-0.407500X0.167500X0.407500X-0.167500X0.407500X0*%
%ADD21RoundRect,0.100000X-0.625000X-0.100000X0.625000X-0.100000X0.625000X0.100000X-0.625000X0.100000X0*%
%ADD22RoundRect,0.100000X-0.712500X-0.100000X0.712500X-0.100000X0.712500X0.100000X-0.712500X0.100000X0*%
%ADD23RoundRect,0.100000X0.712500X0.100000X-0.712500X0.100000X-0.712500X-0.100000X0.712500X-0.100000X0*%
%ADD24RoundRect,0.225000X0.225000X0.250000X-0.225000X0.250000X-0.225000X-0.250000X0.225000X-0.250000X0*%
%ADD25RoundRect,0.225000X-0.250000X0.225000X-0.250000X-0.225000X0.250000X-0.225000X0.250000X0.225000X0*%
%ADD26RoundRect,0.225000X0.250000X-0.225000X0.250000X0.225000X-0.250000X0.225000X-0.250000X-0.225000X0*%
%ADD27R,2.300000X2.500000*%
%ADD28RoundRect,0.200000X-0.275000X0.200000X-0.275000X-0.200000X0.275000X-0.200000X0.275000X0.200000X0*%
%ADD29RoundRect,0.200000X0.275000X-0.200000X0.275000X0.200000X-0.275000X0.200000X-0.275000X-0.200000X0*%
%ADD30RoundRect,0.200000X0.200000X0.275000X-0.200000X0.275000X-0.200000X-0.275000X0.200000X-0.275000X0*%
%ADD31RoundRect,0.250000X-0.312500X-1.075000X0.312500X-1.075000X0.312500X1.075000X-0.312500X1.075000X0*%
%ADD32RoundRect,0.100000X-0.637500X-0.100000X0.637500X-0.100000X0.637500X0.100000X-0.637500X0.100000X0*%
%ADD33RoundRect,0.150000X-0.725000X-0.150000X0.725000X-0.150000X0.725000X0.150000X-0.725000X0.150000X0*%
%ADD34R,5.080000X1.500000*%
%ADD35RoundRect,0.150000X-0.587500X-0.150000X0.587500X-0.150000X0.587500X0.150000X-0.587500X0.150000X0*%
G04 APERTURE END LIST*
D10*
X204825000Y-63600000D03*
X206375000Y-63600000D03*
D11*
X101900000Y-98700000D03*
X101900000Y-101500000D03*
D12*
X101900000Y-106800000D03*
X101900000Y-104000000D03*
D13*
X196312500Y-73100000D03*
X197887500Y-73100000D03*
D14*
X196100000Y-69287500D03*
X196100000Y-67712500D03*
D15*
X114100000Y-101300000D03*
X114100000Y-98500000D03*
D16*
X106300000Y-109500000D03*
X103500000Y-109500000D03*
D17*
X194300000Y-76612500D03*
X194300000Y-78187500D03*
D14*
X181500000Y-66487500D03*
X181500000Y-64912500D03*
D18*
X108400000Y-95700000D03*
X105600000Y-95700000D03*
D14*
X178700000Y-78637500D03*
X178700000Y-77062500D03*
X178750000Y-68537500D03*
X178750000Y-66962500D03*
X162850000Y-69137500D03*
X162850000Y-67562500D03*
D17*
X161100000Y-71062500D03*
X161100000Y-72637500D03*
X165400000Y-77312500D03*
X165400000Y-78887500D03*
D14*
X169850000Y-70637500D03*
X169850000Y-69062500D03*
D17*
X184350000Y-78712500D03*
X184350000Y-80287500D03*
X173850000Y-73062500D03*
X173850000Y-74637500D03*
D13*
X199047000Y-139192000D03*
X200622000Y-139192000D03*
X194462300Y-145783300D03*
X196037300Y-145783300D03*
D14*
X189738000Y-142986400D03*
X189738000Y-141411400D03*
X111900000Y-101487500D03*
X111900000Y-99912500D03*
D13*
X107962500Y-109800000D03*
X109537500Y-109800000D03*
D17*
X186850000Y-66562500D03*
X186850000Y-68137500D03*
D14*
X184350000Y-77037500D03*
X184350000Y-75462500D03*
D17*
X181500000Y-68662500D03*
X181500000Y-70237500D03*
D14*
X187200000Y-78387500D03*
X187200000Y-76812500D03*
D13*
X181412500Y-73150000D03*
X182987500Y-73150000D03*
X177212500Y-75500000D03*
X178787500Y-75500000D03*
X177262500Y-70200000D03*
X178837500Y-70200000D03*
D14*
X173850000Y-70137500D03*
X173850000Y-68562500D03*
D17*
X172100000Y-73062500D03*
X172100000Y-74637500D03*
D13*
X166062500Y-69100000D03*
X167637500Y-69100000D03*
D17*
X162850000Y-71062500D03*
X162850000Y-72637500D03*
D14*
X159100000Y-72637500D03*
X159100000Y-71062500D03*
D18*
X211100000Y-104900000D03*
X208300000Y-104900000D03*
D13*
X207708750Y-143200000D03*
X209283750Y-143200000D03*
D19*
X202887500Y-61000000D03*
X201312500Y-61000000D03*
D20*
X107415000Y-100635000D03*
X106595000Y-100635000D03*
X106595000Y-99215000D03*
X107415000Y-99215000D03*
D21*
X104855000Y-98300000D03*
X104855000Y-98950000D03*
X104855000Y-99600000D03*
X104855000Y-100250000D03*
X104855000Y-100900000D03*
X104855000Y-101550000D03*
X109155000Y-101550000D03*
X109155000Y-100900000D03*
X109155000Y-100250000D03*
X109155000Y-99600000D03*
X109155000Y-98950000D03*
X109155000Y-98300000D03*
D20*
X107505000Y-105115000D03*
X106685000Y-105115000D03*
X107505000Y-106535000D03*
X106685000Y-106535000D03*
D21*
X104945000Y-104200000D03*
X104945000Y-104850000D03*
X104945000Y-105500000D03*
X104945000Y-106150000D03*
X104945000Y-106800000D03*
X104945000Y-107450000D03*
X109245000Y-107450000D03*
X109245000Y-106800000D03*
X109245000Y-106150000D03*
X109245000Y-105500000D03*
X109245000Y-104850000D03*
X109245000Y-104200000D03*
D10*
X205775000Y-82000000D03*
X207325000Y-82000000D03*
D11*
X113600000Y-104600000D03*
X113600000Y-107400000D03*
D22*
X165487500Y-72625000D03*
X165487500Y-73275000D03*
X165487500Y-73925000D03*
X165487500Y-74575000D03*
X169712500Y-74575000D03*
X169712500Y-73925000D03*
X169712500Y-73275000D03*
X169712500Y-72625000D03*
D23*
X199050500Y-143473900D03*
X199050500Y-142823900D03*
X199050500Y-142173900D03*
X199050500Y-141523900D03*
X194825500Y-141523900D03*
X194825500Y-142173900D03*
X194825500Y-142823900D03*
X194825500Y-143473900D03*
D24*
X218575000Y-62400000D03*
X217025000Y-62400000D03*
D10*
X217025000Y-64900000D03*
X218575000Y-64900000D03*
X204950000Y-61000000D03*
X206500000Y-61000000D03*
D24*
X210175000Y-67400000D03*
X208625000Y-67400000D03*
D25*
X102700000Y-138825000D03*
X102700000Y-140375000D03*
X97700000Y-138925000D03*
X97700000Y-140475000D03*
D26*
X205054200Y-128029000D03*
X205054200Y-126479000D03*
D24*
X194665900Y-130009900D03*
X193115900Y-130009900D03*
D25*
X192887600Y-121602200D03*
X192887600Y-123152200D03*
X205105000Y-121678400D03*
X205105000Y-123228400D03*
D26*
X205079600Y-119748600D03*
X205079600Y-118198600D03*
D25*
X210705700Y-131914600D03*
X210705700Y-133464600D03*
D27*
X85100000Y-139850000D03*
X85100000Y-135550000D03*
X85000000Y-64450000D03*
X85000000Y-60150000D03*
D28*
X204038000Y-142175000D03*
X204038000Y-143825000D03*
D29*
X201938000Y-143825000D03*
X201938000Y-142175000D03*
D30*
X191413900Y-139153900D03*
X189763900Y-139153900D03*
D28*
X178701700Y-124511300D03*
X178701700Y-126161300D03*
X191638000Y-141373900D03*
X191638000Y-143023900D03*
D29*
X190995300Y-123214900D03*
X190995300Y-121564900D03*
X192874900Y-119874800D03*
X192874900Y-118224800D03*
X194716400Y-119862100D03*
X194716400Y-118212100D03*
D31*
X207744600Y-129006600D03*
X210669600Y-129006600D03*
D32*
X197124400Y-127874600D03*
X197124400Y-128524600D03*
X197124400Y-129174600D03*
X197124400Y-129824600D03*
X197124400Y-130474600D03*
X197124400Y-131124600D03*
X197124400Y-131774600D03*
X197124400Y-132424600D03*
X202849400Y-132424600D03*
X202849400Y-131774600D03*
X202849400Y-131124600D03*
X202849400Y-130474600D03*
X202849400Y-129824600D03*
X202849400Y-129174600D03*
X202849400Y-128524600D03*
X202849400Y-127874600D03*
D33*
X197475400Y-118376700D03*
X197475400Y-119646700D03*
X197475400Y-120916700D03*
X197475400Y-122186700D03*
X202625400Y-122186700D03*
X202625400Y-120916700D03*
X202625400Y-119646700D03*
X202625400Y-118376700D03*
D34*
X227300000Y-82000000D03*
X227300000Y-77750000D03*
X227300000Y-86250000D03*
X227300000Y-65000000D03*
X227300000Y-69250000D03*
X227300000Y-60750000D03*
D25*
X178676300Y-128282400D03*
X178676300Y-129832400D03*
D35*
X106062500Y-90650000D03*
X106062500Y-92550000D03*
X107937500Y-91600000D03*
M02*
