G04 #@! TF.GenerationSoftware,KiCad,Pcbnew,(6.0.7)*
G04 #@! TF.CreationDate,2023-03-22T22:30:53+01:00*
G04 #@! TF.ProjectId,phase-frequency_detector,70686173-652d-4667-9265-7175656e6379,1.4.1*
G04 #@! TF.SameCoordinates,Original*
G04 #@! TF.FileFunction,Soldermask,Top*
G04 #@! TF.FilePolarity,Negative*
%FSLAX46Y46*%
G04 Gerber Fmt 4.6, Leading zero omitted, Abs format (unit mm)*
G04 Created by KiCad (PCBNEW (6.0.7)) date 2023-03-22 22:30:53*
%MOMM*%
%LPD*%
G01*
G04 APERTURE LIST*
G04 Aperture macros list*
%AMRoundRect*
0 Rectangle with rounded corners*
0 $1 Rounding radius*
0 $2 $3 $4 $5 $6 $7 $8 $9 X,Y pos of 4 corners*
0 Add a 4 corners polygon primitive as box body*
4,1,4,$2,$3,$4,$5,$6,$7,$8,$9,$2,$3,0*
0 Add four circle primitives for the rounded corners*
1,1,$1+$1,$2,$3*
1,1,$1+$1,$4,$5*
1,1,$1+$1,$6,$7*
1,1,$1+$1,$8,$9*
0 Add four rect primitives between the rounded corners*
20,1,$1+$1,$2,$3,$4,$5,0*
20,1,$1+$1,$4,$5,$6,$7,0*
20,1,$1+$1,$6,$7,$8,$9,0*
20,1,$1+$1,$8,$9,$2,$3,0*%
%AMFreePoly0*
4,1,41,0.586777,0.930194,0.656366,0.874698,0.694986,0.794504,0.700000,0.750000,0.700000,-0.750000,0.680194,-0.836777,0.624698,-0.906366,0.544504,-0.944986,0.500000,-0.950000,0.000000,-0.950000,-0.023504,-0.944635,-0.083606,-0.943534,-0.139582,-0.934468,-0.274897,-0.892193,-0.326080,-0.867780,-0.444090,-0.789225,-0.486362,-0.751429,-0.577582,-0.642910,-0.607548,-0.594768,-0.664643,-0.465009,
-0.679893,-0.410393,-0.697476,-0.275933,-0.697084,-0.275882,-0.700000,-0.250000,-0.700000,0.250000,-0.697921,0.259109,-0.697582,0.286880,-0.675771,0.426957,-0.659192,0.481183,-0.598944,0.609508,-0.567811,0.656904,-0.473967,0.763162,-0.430783,0.799915,-0.310888,0.875563,-0.259125,0.898717,-0.122818,0.937674,-0.066635,0.945370,-0.042411,0.945222,0.000000,0.950000,0.500000,0.950000,
0.586777,0.930194,0.586777,0.930194,$1*%
%AMFreePoly1*
4,1,41,0.022678,0.944824,0.075125,0.944504,0.131210,0.936123,0.267031,0.895504,0.318507,0.871718,0.437469,0.794611,0.480202,0.757333,0.572740,0.649936,0.603290,0.602165,0.661967,0.473113,0.677883,0.418686,0.697980,0.278353,0.700000,0.250000,0.700000,-0.250000,0.699985,-0.252439,0.699836,-0.264655,0.697079,-0.295398,0.673559,-0.435199,0.656318,-0.489221,0.594506,-0.616800,
0.562797,-0.663810,0.467662,-0.768914,0.424032,-0.805137,0.303222,-0.879314,0.251181,-0.901834,0.114408,-0.939123,0.058135,-0.946132,0.037663,-0.945757,0.000000,-0.950000,-0.500000,-0.950000,-0.586777,-0.930194,-0.656366,-0.874698,-0.694986,-0.794504,-0.700000,-0.750000,-0.700000,0.750000,-0.680194,0.836777,-0.624698,0.906366,-0.544504,0.944986,-0.500000,0.950000,0.000000,0.950000,
0.022678,0.944824,0.022678,0.944824,$1*%
G04 Aperture macros list end*
%ADD10RoundRect,0.350000X-0.825000X-0.150000X0.825000X-0.150000X0.825000X0.150000X-0.825000X0.150000X0*%
%ADD11RoundRect,0.200000X-1.205000X-1.905000X1.205000X-1.905000X1.205000X1.905000X-1.205000X1.905000X0*%
%ADD12RoundRect,0.302500X0.697500X0.102500X-0.697500X0.102500X-0.697500X-0.102500X0.697500X-0.102500X0*%
%ADD13RoundRect,0.637500X0.437500X0.712500X-0.437500X0.712500X-0.437500X-0.712500X0.437500X-0.712500X0*%
%ADD14RoundRect,0.425000X-0.225000X-0.250000X0.225000X-0.250000X0.225000X0.250000X-0.225000X0.250000X0*%
%ADD15RoundRect,0.450000X-1.075000X0.375000X-1.075000X-0.375000X1.075000X-0.375000X1.075000X0.375000X0*%
%ADD16RoundRect,0.450000X1.075000X-0.375000X1.075000X0.375000X-1.075000X0.375000X-1.075000X-0.375000X0*%
%ADD17RoundRect,0.418750X-0.218750X-0.256250X0.218750X-0.256250X0.218750X0.256250X-0.218750X0.256250X0*%
%ADD18RoundRect,0.418750X0.256250X-0.218750X0.256250X0.218750X-0.256250X0.218750X-0.256250X-0.218750X0*%
%ADD19RoundRect,0.450000X0.625000X-0.375000X0.625000X0.375000X-0.625000X0.375000X-0.625000X-0.375000X0*%
%ADD20RoundRect,0.450000X0.375000X0.625000X-0.375000X0.625000X-0.375000X-0.625000X0.375000X-0.625000X0*%
%ADD21RoundRect,0.418750X-0.256250X0.218750X-0.256250X-0.218750X0.256250X-0.218750X0.256250X0.218750X0*%
%ADD22RoundRect,0.450000X0.375000X1.075000X-0.375000X1.075000X-0.375000X-1.075000X0.375000X-1.075000X0*%
%ADD23RoundRect,0.418750X0.218750X0.256250X-0.218750X0.256250X-0.218750X-0.256250X0.218750X-0.256250X0*%
%ADD24C,2.200000*%
%ADD25RoundRect,0.300000X-0.625000X-0.100000X0.625000X-0.100000X0.625000X0.100000X-0.625000X0.100000X0*%
%ADD26RoundRect,0.450000X-0.575000X-1.175000X0.575000X-1.175000X0.575000X1.175000X-0.575000X1.175000X0*%
%ADD27RoundRect,0.300000X-0.712500X-0.100000X0.712500X-0.100000X0.712500X0.100000X-0.712500X0.100000X0*%
%ADD28RoundRect,0.300000X0.712500X0.100000X-0.712500X0.100000X-0.712500X-0.100000X0.712500X-0.100000X0*%
%ADD29RoundRect,0.425000X0.225000X0.250000X-0.225000X0.250000X-0.225000X-0.250000X0.225000X-0.250000X0*%
%ADD30RoundRect,0.200000X0.800000X-0.800000X0.800000X0.800000X-0.800000X0.800000X-0.800000X-0.800000X0*%
%ADD31C,2.000000*%
%ADD32RoundRect,0.425000X-0.250000X0.225000X-0.250000X-0.225000X0.250000X-0.225000X0.250000X0.225000X0*%
%ADD33C,3.250000*%
%ADD34RoundRect,0.449999X0.525001X-0.525001X0.525001X0.525001X-0.525001X0.525001X-0.525001X-0.525001X0*%
%ADD35C,1.950000*%
%ADD36RoundRect,0.200000X0.952500X1.000000X-0.952500X1.000000X-0.952500X-1.000000X0.952500X-1.000000X0*%
%ADD37O,2.305000X2.400000*%
%ADD38RoundRect,0.425000X0.250000X-0.225000X0.250000X0.225000X-0.250000X0.225000X-0.250000X-0.225000X0*%
%ADD39RoundRect,0.200000X1.150000X-1.250000X1.150000X1.250000X-1.150000X1.250000X-1.150000X-1.250000X0*%
%ADD40RoundRect,0.400000X-0.275000X0.200000X-0.275000X-0.200000X0.275000X-0.200000X0.275000X0.200000X0*%
%ADD41RoundRect,0.400000X0.275000X-0.200000X0.275000X0.200000X-0.275000X0.200000X-0.275000X-0.200000X0*%
%ADD42RoundRect,0.400000X0.200000X0.275000X-0.200000X0.275000X-0.200000X-0.275000X0.200000X-0.275000X0*%
%ADD43RoundRect,0.450000X-0.312500X-1.075000X0.312500X-1.075000X0.312500X1.075000X-0.312500X1.075000X0*%
%ADD44RoundRect,0.300000X-0.637500X-0.100000X0.637500X-0.100000X0.637500X0.100000X-0.637500X0.100000X0*%
%ADD45RoundRect,0.350000X-0.725000X-0.150000X0.725000X-0.150000X0.725000X0.150000X-0.725000X0.150000X0*%
%ADD46RoundRect,0.200000X2.540000X-0.750000X2.540000X0.750000X-2.540000X0.750000X-2.540000X-0.750000X0*%
%ADD47O,2.900000X2.000000*%
%ADD48O,7.400000X3.900000*%
%ADD49RoundRect,0.450000X-0.625000X0.350000X-0.625000X-0.350000X0.625000X-0.350000X0.625000X0.350000X0*%
%ADD50O,2.150000X1.600000*%
%ADD51RoundRect,0.350000X-0.587500X-0.150000X0.587500X-0.150000X0.587500X0.150000X-0.587500X0.150000X0*%
%ADD52FreePoly0,90.000000*%
%ADD53FreePoly1,90.000000*%
%ADD54FreePoly0,270.000000*%
%ADD55FreePoly1,270.000000*%
G04 APERTURE END LIST*
D10*
X209225000Y-61095000D03*
X209225000Y-62365000D03*
X209225000Y-63635000D03*
X209225000Y-64905000D03*
X214175000Y-64905000D03*
X214175000Y-63635000D03*
X214175000Y-62365000D03*
X214175000Y-61095000D03*
D11*
X211700000Y-63000000D03*
D12*
X194254300Y-75040000D03*
X194254300Y-74405000D03*
X194254300Y-73770000D03*
X194254300Y-73135000D03*
X194254300Y-72500000D03*
X194254300Y-71865000D03*
X194254300Y-71230000D03*
X194254300Y-70595000D03*
X188945700Y-70595000D03*
X188945700Y-71230000D03*
X188945700Y-71865000D03*
X188945700Y-72500000D03*
X188945700Y-73135000D03*
X188945700Y-73770000D03*
X188945700Y-74405000D03*
X188945700Y-75040000D03*
D13*
X191600000Y-72817500D03*
D14*
X204825000Y-63600000D03*
X206375000Y-63600000D03*
D15*
X101900000Y-98700000D03*
X101900000Y-101500000D03*
D16*
X101900000Y-106800000D03*
X101900000Y-104000000D03*
D17*
X196312500Y-73100000D03*
X197887500Y-73100000D03*
D18*
X196100000Y-69287500D03*
X196100000Y-67712500D03*
D19*
X114100000Y-101300000D03*
X114100000Y-98500000D03*
D20*
X106300000Y-109500000D03*
X103500000Y-109500000D03*
D21*
X194300000Y-76612500D03*
X194300000Y-78187500D03*
D18*
X181500000Y-66487500D03*
X181500000Y-64912500D03*
D22*
X108400000Y-95700000D03*
X105600000Y-95700000D03*
D18*
X178700000Y-78637500D03*
X178700000Y-77062500D03*
X178750000Y-68537500D03*
X178750000Y-66962500D03*
X162850000Y-69137500D03*
X162850000Y-67562500D03*
D21*
X161100000Y-71062500D03*
X161100000Y-72637500D03*
X165400000Y-77312500D03*
X165400000Y-78887500D03*
D18*
X169850000Y-70637500D03*
X169850000Y-69062500D03*
D21*
X184350000Y-78712500D03*
X184350000Y-80287500D03*
X173850000Y-73062500D03*
X173850000Y-74637500D03*
D17*
X199047000Y-139192000D03*
X200622000Y-139192000D03*
X194462300Y-145783300D03*
X196037300Y-145783300D03*
D18*
X189738000Y-142986400D03*
X189738000Y-141411400D03*
X111900000Y-101487500D03*
X111900000Y-99912500D03*
D17*
X107962500Y-109800000D03*
X109537500Y-109800000D03*
D21*
X186850000Y-66562500D03*
X186850000Y-68137500D03*
D18*
X184350000Y-77037500D03*
X184350000Y-75462500D03*
D21*
X181500000Y-68662500D03*
X181500000Y-70237500D03*
D18*
X187200000Y-78387500D03*
X187200000Y-76812500D03*
D17*
X181412500Y-73150000D03*
X182987500Y-73150000D03*
X177212500Y-75500000D03*
X178787500Y-75500000D03*
X177262500Y-70200000D03*
X178837500Y-70200000D03*
D18*
X173850000Y-70137500D03*
X173850000Y-68562500D03*
D21*
X172100000Y-73062500D03*
X172100000Y-74637500D03*
D17*
X166062500Y-69100000D03*
X167637500Y-69100000D03*
D21*
X162850000Y-71062500D03*
X162850000Y-72637500D03*
D18*
X159100000Y-72637500D03*
X159100000Y-71062500D03*
D22*
X211100000Y-104900000D03*
X208300000Y-104900000D03*
D17*
X207708750Y-143200000D03*
X209283750Y-143200000D03*
D23*
X202887500Y-61000000D03*
X201312500Y-61000000D03*
D24*
X213925000Y-143160000D03*
X221545000Y-145700000D03*
X226625000Y-143160000D03*
D25*
X104855000Y-98300000D03*
X104855000Y-98950000D03*
X104855000Y-99600000D03*
X104855000Y-100250000D03*
X104855000Y-100900000D03*
X104855000Y-101550000D03*
X109155000Y-101550000D03*
X109155000Y-100900000D03*
X109155000Y-100250000D03*
X109155000Y-99600000D03*
X109155000Y-98950000D03*
X109155000Y-98300000D03*
D26*
X107005000Y-99925000D03*
D25*
X104945000Y-104200000D03*
X104945000Y-104850000D03*
X104945000Y-105500000D03*
X104945000Y-106150000D03*
X104945000Y-106800000D03*
X104945000Y-107450000D03*
X109245000Y-107450000D03*
X109245000Y-106800000D03*
X109245000Y-106150000D03*
X109245000Y-105500000D03*
X109245000Y-104850000D03*
X109245000Y-104200000D03*
D26*
X107095000Y-105825000D03*
D14*
X205775000Y-82000000D03*
X207325000Y-82000000D03*
D15*
X113600000Y-104600000D03*
X113600000Y-107400000D03*
D27*
X165487500Y-72625000D03*
X165487500Y-73275000D03*
X165487500Y-73925000D03*
X165487500Y-74575000D03*
X169712500Y-74575000D03*
X169712500Y-73925000D03*
X169712500Y-73275000D03*
X169712500Y-72625000D03*
D28*
X199050500Y-143473900D03*
X199050500Y-142823900D03*
X199050500Y-142173900D03*
X199050500Y-141523900D03*
X194825500Y-141523900D03*
X194825500Y-142173900D03*
X194825500Y-142823900D03*
X194825500Y-143473900D03*
D29*
X218575000Y-62400000D03*
X217025000Y-62400000D03*
D14*
X217025000Y-64900000D03*
X218575000Y-64900000D03*
X204950000Y-61000000D03*
X206500000Y-61000000D03*
D29*
X210175000Y-67400000D03*
X208625000Y-67400000D03*
D30*
X108100000Y-140800000D03*
D31*
X108100000Y-138300000D03*
D32*
X102700000Y-138825000D03*
X102700000Y-140375000D03*
X97700000Y-138925000D03*
X97700000Y-140475000D03*
D30*
X92800000Y-140700000D03*
D31*
X92800000Y-138200000D03*
D33*
X72860000Y-144450000D03*
X72860000Y-55550000D03*
D34*
X75400000Y-139370000D03*
D35*
X75400000Y-136830000D03*
X75400000Y-134290000D03*
X75400000Y-131750000D03*
X75400000Y-129210000D03*
X75400000Y-126670000D03*
X75400000Y-124130000D03*
X75400000Y-121590000D03*
X75400000Y-119050000D03*
X75400000Y-116510000D03*
X75400000Y-113970000D03*
X75400000Y-111430000D03*
X75400000Y-108890000D03*
X75400000Y-106350000D03*
X75400000Y-103810000D03*
X75400000Y-101270000D03*
X75400000Y-98730000D03*
X75400000Y-96190000D03*
X75400000Y-93650000D03*
X75400000Y-91110000D03*
X75400000Y-88570000D03*
X75400000Y-86030000D03*
X75400000Y-83490000D03*
X75400000Y-80950000D03*
X75400000Y-78410000D03*
X75400000Y-75870000D03*
X75400000Y-73330000D03*
X75400000Y-70790000D03*
X75400000Y-68250000D03*
X75400000Y-65710000D03*
X75400000Y-63170000D03*
X75400000Y-60630000D03*
X80480000Y-139370000D03*
X80480000Y-136830000D03*
X80480000Y-134290000D03*
X80480000Y-131750000D03*
X80480000Y-129210000D03*
X80480000Y-126670000D03*
X80480000Y-124130000D03*
X80480000Y-121590000D03*
X80480000Y-119050000D03*
X80480000Y-116510000D03*
X80480000Y-113970000D03*
X80480000Y-111430000D03*
X80480000Y-108890000D03*
X80480000Y-106350000D03*
X80480000Y-103810000D03*
X80480000Y-101270000D03*
X80480000Y-98730000D03*
X80480000Y-96190000D03*
X80480000Y-93650000D03*
X80480000Y-91110000D03*
X80480000Y-88570000D03*
X80480000Y-86030000D03*
X80480000Y-83490000D03*
X80480000Y-80950000D03*
X80480000Y-78410000D03*
X80480000Y-75870000D03*
X80480000Y-73330000D03*
X80480000Y-70790000D03*
X80480000Y-68250000D03*
X80480000Y-65710000D03*
X80480000Y-63170000D03*
X80480000Y-60630000D03*
D36*
X103000000Y-145500000D03*
D37*
X100460000Y-145500000D03*
X97920000Y-145500000D03*
D30*
X92500000Y-63600000D03*
D31*
X92500000Y-61100000D03*
D38*
X205054200Y-128029000D03*
X205054200Y-126479000D03*
D29*
X194665900Y-130009900D03*
X193115900Y-130009900D03*
D32*
X192887600Y-121602200D03*
X192887600Y-123152200D03*
X205105000Y-121678400D03*
X205105000Y-123228400D03*
D38*
X205079600Y-119748600D03*
X205079600Y-118198600D03*
D32*
X210705700Y-131914600D03*
X210705700Y-133464600D03*
D39*
X85100000Y-139850000D03*
X85100000Y-135550000D03*
X85000000Y-64450000D03*
X85000000Y-60150000D03*
D40*
X204038000Y-142175000D03*
X204038000Y-143825000D03*
D41*
X201938000Y-143825000D03*
X201938000Y-142175000D03*
D42*
X191413900Y-139153900D03*
X189763900Y-139153900D03*
D40*
X178701700Y-124511300D03*
X178701700Y-126161300D03*
X191638000Y-141373900D03*
X191638000Y-143023900D03*
D41*
X190995300Y-123214900D03*
X190995300Y-121564900D03*
X192874900Y-119874800D03*
X192874900Y-118224800D03*
X194716400Y-119862100D03*
X194716400Y-118212100D03*
D43*
X207744600Y-129006600D03*
X210669600Y-129006600D03*
D44*
X197124400Y-127874600D03*
X197124400Y-128524600D03*
X197124400Y-129174600D03*
X197124400Y-129824600D03*
X197124400Y-130474600D03*
X197124400Y-131124600D03*
X197124400Y-131774600D03*
X197124400Y-132424600D03*
X202849400Y-132424600D03*
X202849400Y-131774600D03*
X202849400Y-131124600D03*
X202849400Y-130474600D03*
X202849400Y-129824600D03*
X202849400Y-129174600D03*
X202849400Y-128524600D03*
X202849400Y-127874600D03*
D45*
X197475400Y-118376700D03*
X197475400Y-119646700D03*
X197475400Y-120916700D03*
X197475400Y-122186700D03*
X202625400Y-122186700D03*
X202625400Y-120916700D03*
X202625400Y-119646700D03*
X202625400Y-118376700D03*
D46*
X227300000Y-82000000D03*
X227300000Y-77750000D03*
X227300000Y-86250000D03*
X227300000Y-65000000D03*
X227300000Y-69250000D03*
X227300000Y-60750000D03*
D47*
X217100000Y-105000000D03*
D48*
X222180000Y-99920000D03*
D47*
X217100000Y-102460000D03*
D48*
X222180000Y-110080000D03*
D47*
X217200000Y-129000000D03*
D48*
X222280000Y-134080000D03*
X222280000Y-123920000D03*
D47*
X217200000Y-126460000D03*
D49*
X184848500Y-124523500D03*
D50*
X184848500Y-126523500D03*
X184848500Y-128523500D03*
X184848500Y-130523500D03*
D32*
X178676300Y-128282400D03*
X178676300Y-129832400D03*
D51*
X106062500Y-90650000D03*
X106062500Y-92550000D03*
X107937500Y-91600000D03*
D52*
X205500000Y-68200000D03*
D53*
X205500000Y-66900000D03*
D54*
X218500000Y-67450000D03*
D55*
X218500000Y-68750000D03*
M02*
